{
  "version": "1.1.6",
  "modules": [
    {
      "id": 1,
      "plugin": "Core",
      "version": "1.1.6",
      "model": "AudioInterface",
      "params": [],
      "leftModuleId": 2,
      "rightModuleId": 8,
      "data": {
        "audio": {
          "driver": 5,
          "deviceName": "Apple Inc.: Built-in Output",
          "offset": 0,
          "maxChannels": 8,
          "sampleRate": 44100,
          "blockSize": 256
        }
      },
      "pos": [
        57,
        0
      ]
    },
    {
      "id": 2,
      "plugin": "Fundamental",
      "version": "1.4.0",
      "model": "VCMixer",
      "params": [
        {
          "id": 0,
          "value": 0.726999223
        },
        {
          "id": 1,
          "value": 0.381837815
        },
        {
          "id": 2,
          "value": 0.797616303
        },
        {
          "id": 3,
          "value": 1.07763171
        },
        {
          "id": 4,
          "value": 0.66907388
        }
      ],
      "leftModuleId": 7,
      "rightModuleId": 1,
      "pos": [
        47,
        0
      ]
    },
    {
      "id": 3,
      "plugin": "Fundamental",
      "version": "1.4.0",
      "model": "VCO",
      "params": [
        {
          "id": 0,
          "value": 1.0
        },
        {
          "id": 1,
          "value": 1.0
        },
        {
          "id": 2,
          "value": 25.7040253
        },
        {
          "id": 3,
          "value": 0.0
        },
        {
          "id": 4,
          "value": 0.0
        },
        {
          "id": 5,
          "value": 0.5
        },
        {
          "id": 6,
          "value": 0.0
        }
      ],
      "leftModuleId": 5,
      "rightModuleId": 4,
      "pos": [
        8,
        0
      ]
    },
    {
      "id": 4,
      "plugin": "Fundamental",
      "version": "1.4.0",
      "model": "VCF",
      "params": [
        {
          "id": 0,
          "value": 0.537
        },
        {
          "id": 1,
          "value": 0.5
        },
        {
          "id": 2,
          "value": 0.234000027
        },
        {
          "id": 3,
          "value": 0.658000171
        },
        {
          "id": 4,
          "value": 0.369000047
        }
      ],
      "leftModuleId": 3,
      "rightModuleId": 6,
      "pos": [
        18,
        0
      ]
    },
    {
      "id": 5,
      "plugin": "Core",
      "version": "1.1.6",
      "model": "MIDIToCVInterface",
      "params": [],
      "rightModuleId": 3,
      "data": {
        "channels": 1,
        "polyMode": 0,
        "clockDivision": 24,
        "lastPitch": 8192,
        "lastMod": 0,
        "midi": {
          "driver": 1,
          "deviceName": "Adafruit Trellis M4",
          "channel": 9
        }
      },
      "pos": [
        0,
        0
      ]
    },
    {
      "id": 6,
      "plugin": "Fundamental",
      "version": "1.4.0",
      "model": "ADSR",
      "params": [
        {
          "id": 0,
          "value": 0.258000046
        },
        {
          "id": 1,
          "value": 0.743000448
        },
        {
          "id": 2,
          "value": 0.5
        },
        {
          "id": 3,
          "value": 0.576500058
        }
      ],
      "leftModuleId": 4,
      "rightModuleId": 7,
      "pos": [
        26,
        0
      ]
    },
    {
      "id": 7,
      "plugin": "Fundamental",
      "version": "1.4.0",
      "model": "Scope",
      "params": [
        {
          "id": 0,
          "value": 2.0
        },
        {
          "id": 1,
          "value": -0.600001097
        },
        {
          "id": 2,
          "value": 3.0
        },
        {
          "id": 3,
          "value": 0.180000007
        },
        {
          "id": 4,
          "value": 14.0
        },
        {
          "id": 5,
          "value": 0.0
        },
        {
          "id": 6,
          "value": 0.0
        },
        {
          "id": 7,
          "value": 0.0
        }
      ],
      "leftModuleId": 6,
      "rightModuleId": 2,
      "data": {
        "lissajous": 1,
        "external": 0
      },
      "pos": [
        34,
        0
      ]
    },
    {
      "id": 8,
      "plugin": "Core",
      "version": "1.1.6",
      "model": "Notes",
      "params": [],
      "leftModuleId": 1,
      "text": "Demo patch instructions:\n\n1. Choose an audio driver and device in the AUDIO-8 module.\n\n2. Use the QWERTY and ZXCVB rows of your keyboard to generate MIDI notes, which are converted to 1V/oct and GATE signals.\n\n3. Drag knobs up/down. Hold Ctrl (Cmd on Mac) while dragging to fine-tune. Right-click knobs to edit, or double-click to initialize.\n\n4. Drag ports to create and move cables. Stack multiple cables on outputs by holding Ctrl (Cmd on Mac) and dragging from an output.\n\n5. Right-click on an empty rack space to add new modules.",
      "pos": [
        67,
        0
      ]
    },
    {
      "id": 9,
      "plugin": "Core",
      "version": "1.1.6",
      "model": "MIDIToCVInterface",
      "params": [],
      "rightModuleId": 10,
      "data": {
        "channels": 1,
        "polyMode": 0,
        "clockDivision": 24,
        "lastPitch": 8192,
        "lastMod": 0,
        "midi": {
          "driver": 1,
          "deviceName": "Adafruit Trellis M4",
          "channel": 9
        }
      },
      "pos": [
        0,
        1
      ]
    },
    {
      "id": 10,
      "plugin": "Fundamental",
      "version": "1.4.0",
      "model": "VCO",
      "params": [
        {
          "id": 0,
          "value": 1.0
        },
        {
          "id": 1,
          "value": 1.0
        },
        {
          "id": 2,
          "value": 2.26806688
        },
        {
          "id": 3,
          "value": -0.222000003
        },
        {
          "id": 4,
          "value": 0.0
        },
        {
          "id": 5,
          "value": 0.5
        },
        {
          "id": 6,
          "value": 0.0
        }
      ],
      "leftModuleId": 9,
      "rightModuleId": 11,
      "pos": [
        8,
        1
      ]
    },
    {
      "id": 11,
      "plugin": "Fundamental",
      "version": "1.4.0",
      "model": "VCF",
      "params": [
        {
          "id": 0,
          "value": 0.965999961
        },
        {
          "id": 1,
          "value": 0.641000271
        },
        {
          "id": 2,
          "value": 0.234000027
        },
        {
          "id": 3,
          "value": 1.0
        },
        {
          "id": 4,
          "value": 0.0
        }
      ],
      "leftModuleId": 10,
      "rightModuleId": 12,
      "pos": [
        18,
        1
      ]
    },
    {
      "id": 12,
      "plugin": "Fundamental",
      "version": "1.4.0",
      "model": "ADSR",
      "params": [
        {
          "id": 0,
          "value": 0.258000046
        },
        {
          "id": 1,
          "value": 0.743000448
        },
        {
          "id": 2,
          "value": 0.5
        },
        {
          "id": 3,
          "value": 0.576500058
        }
      ],
      "leftModuleId": 11,
      "rightModuleId": 19,
      "pos": [
        26,
        1
      ]
    },
    {
      "id": 13,
      "plugin": "Core",
      "version": "1.1.6",
      "model": "MIDIToCVInterface",
      "params": [],
      "rightModuleId": 14,
      "data": {
        "channels": 1,
        "polyMode": 0,
        "clockDivision": 24,
        "lastPitch": 8192,
        "lastMod": 0,
        "midi": {
          "driver": 1,
          "deviceName": "Adafruit Trellis M4",
          "channel": 9
        }
      },
      "pos": [
        0,
        2
      ]
    },
    {
      "id": 14,
      "plugin": "Fundamental",
      "version": "1.4.0",
      "model": "VCO",
      "params": [
        {
          "id": 0,
          "value": 0.0
        },
        {
          "id": 1,
          "value": 0.0
        },
        {
          "id": 2,
          "value": -3.0240047
        },
        {
          "id": 3,
          "value": -1.0
        },
        {
          "id": 4,
          "value": 0.0
        },
        {
          "id": 5,
          "value": 0.5
        },
        {
          "id": 6,
          "value": 0.0
        }
      ],
      "leftModuleId": 13,
      "rightModuleId": 16,
      "pos": [
        8,
        2
      ]
    },
    {
      "id": 16,
      "plugin": "Fundamental",
      "version": "1.4.0",
      "model": "VCF",
      "params": [
        {
          "id": 0,
          "value": 0.258000016
        },
        {
          "id": 1,
          "value": 0.641000271
        },
        {
          "id": 2,
          "value": 0.613500834
        },
        {
          "id": 3,
          "value": 0.565000415
        },
        {
          "id": 4,
          "value": 0.0
        }
      ],
      "leftModuleId": 14,
      "rightModuleId": 17,
      "pos": [
        18,
        2
      ]
    },
    {
      "id": 17,
      "plugin": "Fundamental",
      "version": "1.4.0",
      "model": "ADSR",
      "params": [
        {
          "id": 0,
          "value": 0.258000046
        },
        {
          "id": 1,
          "value": 0.743000448
        },
        {
          "id": 2,
          "value": 0.5
        },
        {
          "id": 3,
          "value": 0.576500058
        }
      ],
      "leftModuleId": 16,
      "rightModuleId": 132,
      "pos": [
        26,
        2
      ]
    },
    {
      "id": 19,
      "plugin": "Fundamental",
      "version": "1.4.0",
      "model": "Scope",
      "params": [
        {
          "id": 0,
          "value": 1.0
        },
        {
          "id": 1,
          "value": 0.0
        },
        {
          "id": 2,
          "value": 1.0
        },
        {
          "id": 3,
          "value": 0.0
        },
        {
          "id": 4,
          "value": 14.0
        },
        {
          "id": 5,
          "value": 0.0
        },
        {
          "id": 6,
          "value": 0.0
        },
        {
          "id": 7,
          "value": 0.0
        }
      ],
      "leftModuleId": 12,
      "rightModuleId": 133,
      "data": {
        "lissajous": 1,
        "external": 0
      },
      "pos": [
        34,
        1
      ]
    },
    {
      "id": 21,
      "plugin": "Fundamental",
      "version": "1.4.0",
      "model": "VCO",
      "params": [
        {
          "id": 0,
          "value": 1.0
        },
        {
          "id": 1,
          "value": 1.0
        },
        {
          "id": 2,
          "value": -33.5880127
        },
        {
          "id": 3,
          "value": 0.379999608
        },
        {
          "id": 4,
          "value": 0.0
        },
        {
          "id": 5,
          "value": 0.286850065
        },
        {
          "id": 6,
          "value": 0.137999997
        }
      ],
      "leftModuleId": 134,
      "rightModuleId": 22,
      "pos": [
        8,
        3
      ]
    },
    {
      "id": 22,
      "plugin": "Fundamental",
      "version": "1.4.0",
      "model": "VCF",
      "params": [
        {
          "id": 0,
          "value": 0.306000739
        },
        {
          "id": 1,
          "value": 0.641000271
        },
        {
          "id": 2,
          "value": 0.303000569
        },
        {
          "id": 3,
          "value": 0.72399956
        },
        {
          "id": 4,
          "value": 0.715499997
        }
      ],
      "leftModuleId": 21,
      "rightModuleId": 23,
      "pos": [
        18,
        3
      ]
    },
    {
      "id": 23,
      "plugin": "Fundamental",
      "version": "1.4.0",
      "model": "ADSR",
      "params": [
        {
          "id": 0,
          "value": 0.405000031
        },
        {
          "id": 1,
          "value": 0.49699986
        },
        {
          "id": 2,
          "value": 0.399499893
        },
        {
          "id": 3,
          "value": 0.576500058
        }
      ],
      "leftModuleId": 22,
      "pos": [
        26,
        3
      ]
    },
    {
      "id": 132,
      "plugin": "PS-PurrSoftware",
      "version": "1.0.4",
      "model": "Meander",
      "params": [
        {
          "id": 0,
          "value": 0.0
        },
        {
          "id": 1,
          "value": 0.0
        },
        {
          "id": 2,
          "value": 120.0
        },
        {
          "id": 3,
          "value": 4.0
        },
        {
          "id": 4,
          "value": 1.0
        },
        {
          "id": 5,
          "value": 3.0
        },
        {
          "id": 6,
          "value": 5.0
        },
        {
          "id": 7,
          "value": 1.0
        },
        {
          "id": 8,
          "value": 0.0
        },
        {
          "id": 9,
          "value": 0.0
        },
        {
          "id": 10,
          "value": 0.0
        },
        {
          "id": 11,
          "value": 0.0
        },
        {
          "id": 12,
          "value": 0.0
        },
        {
          "id": 13,
          "value": 0.0
        },
        {
          "id": 14,
          "value": 0.0
        },
        {
          "id": 15,
          "value": 0.0
        },
        {
          "id": 16,
          "value": 0.0
        },
        {
          "id": 17,
          "value": 0.0
        },
        {
          "id": 18,
          "value": 0.0
        },
        {
          "id": 19,
          "value": 0.0
        },
        {
          "id": 20,
          "value": 0.0
        },
        {
          "id": 21,
          "value": 0.0
        },
        {
          "id": 22,
          "value": 0.0
        },
        {
          "id": 23,
          "value": 0.0
        },
        {
          "id": 24,
          "value": 0.0
        },
        {
          "id": 25,
          "value": 0.0
        },
        {
          "id": 26,
          "value": 0.0
        },
        {
          "id": 27,
          "value": 0.0
        },
        {
          "id": 28,
          "value": 0.0
        },
        {
          "id": 29,
          "value": 0.0
        },
        {
          "id": 30,
          "value": 0.0
        },
        {
          "id": 31,
          "value": 0.0
        },
        {
          "id": 32,
          "value": 0.0
        },
        {
          "id": 33,
          "value": 0.0
        },
        {
          "id": 34,
          "value": 0.0
        },
        {
          "id": 35,
          "value": 0.0
        },
        {
          "id": 36,
          "value": 8.0
        },
        {
          "id": 37,
          "value": 0.0
        },
        {
          "id": 38,
          "value": 2.0
        },
        {
          "id": 39,
          "value": 3.0
        },
        {
          "id": 40,
          "value": 0.899999976
        },
        {
          "id": 41,
          "value": 1.0
        },
        {
          "id": 42,
          "value": 0.0
        },
        {
          "id": 43,
          "value": 0.0
        },
        {
          "id": 44,
          "value": 4.0
        },
        {
          "id": 45,
          "value": 0.0
        },
        {
          "id": 46,
          "value": 1.0
        },
        {
          "id": 47,
          "value": 1.0
        },
        {
          "id": 48,
          "value": 0.0
        },
        {
          "id": 49,
          "value": 0.0
        },
        {
          "id": 50,
          "value": 0.0
        },
        {
          "id": 51,
          "value": 8.0
        },
        {
          "id": 52,
          "value": 4.0
        },
        {
          "id": 53,
          "value": 3.0
        },
        {
          "id": 54,
          "value": 0.797999501
        },
        {
          "id": 55,
          "value": 1.0
        },
        {
          "id": 56,
          "value": 0.0
        },
        {
          "id": 57,
          "value": 7.0
        },
        {
          "id": 58,
          "value": 0.0
        },
        {
          "id": 59,
          "value": 8.0
        },
        {
          "id": 60,
          "value": 2.0
        },
        {
          "id": 61,
          "value": 0.0
        },
        {
          "id": 62,
          "value": 0.0
        },
        {
          "id": 63,
          "value": 0.0
        },
        {
          "id": 64,
          "value": 0.0
        },
        {
          "id": 65,
          "value": 2.0
        },
        {
          "id": 66,
          "value": 1.0
        },
        {
          "id": 67,
          "value": 3.0
        },
        {
          "id": 68,
          "value": 34.458004
        },
        {
          "id": 69,
          "value": 10.0
        },
        {
          "id": 70,
          "value": 1.0
        },
        {
          "id": 71,
          "value": 1.0
        },
        {
          "id": 72,
          "value": 0.0
        },
        {
          "id": 73,
          "value": 0.0
        },
        {
          "id": 74,
          "value": 0.0
        },
        {
          "id": 75,
          "value": 0.0
        },
        {
          "id": 76,
          "value": 1.0
        },
        {
          "id": 77,
          "value": 0.0
        },
        {
          "id": 78,
          "value": 1.0
        },
        {
          "id": 79,
          "value": 0.0
        }
      ],
      "leftModuleId": 17,
      "data": {
        "running": true,
        "theHarmonyParmsenabled": true,
        "harmony_staccato_enable": true,
        "theHarmonyParmsenable_all_7ths": false,
        "theHarmonyParmsenable_V_7ths": false,
        "theMelodyParmsenabled": true,
        "theMelodyParmsdestutter": true,
        "theMelodyParmsenable_staccato": true,
        "theMelodyParmschordal": true,
        "theMelodyParmsscaler": false,
        "theArpParmsenabled": false,
        "theArpParmschordal": true,
        "theArpParmsscaler": false,
        "theBassParmsenabled": true,
        "theBassParmsenable_staccato": false,
        "theBassParmssyncopate": false,
        "theBassParmsaccent": true,
        "theBassParmsshuffle": false,
        "theBassParmsoctave_enabled": true
      },
      "pos": [
        34,
        2
      ]
    },
    {
      "id": 133,
      "plugin": "Core",
      "version": "1.1.6",
      "model": "MIDITriggerToCVInterface",
      "params": [],
      "leftModuleId": 19,
      "rightModuleId": 135,
      "data": {
        "notes": [
          36,
          38,
          42,
          46,
          44,
          45,
          46,
          47,
          40,
          41,
          42,
          43,
          36,
          37,
          38,
          39
        ],
        "velocity": false,
        "midi": {
          "driver": 1,
          "deviceName": "Adafruit Trellis M4",
          "channel": 9
        }
      },
      "pos": [
        47,
        1
      ]
    },
    {
      "id": 134,
      "plugin": "Core",
      "version": "1.1.6",
      "model": "MIDIToCVInterface",
      "params": [],
      "rightModuleId": 21,
      "data": {
        "channels": 1,
        "polyMode": 0,
        "clockDivision": 24,
        "lastPitch": 8192,
        "lastMod": 0,
        "midi": {
          "driver": 1,
          "deviceName": "Adafruit Trellis M4",
          "channel": 9
        }
      },
      "pos": [
        0,
        3
      ]
    },
    {
      "id": 135,
      "plugin": "Fundamental",
      "version": "1.4.0",
      "model": "VCMixer",
      "params": [
        {
          "id": 0,
          "value": 0.756999373
        },
        {
          "id": 1,
          "value": 0.521844685
        },
        {
          "id": 2,
          "value": 0.492146075
        },
        {
          "id": 3,
          "value": 0.7382195
        },
        {
          "id": 4,
          "value": 0.393302619
        }
      ],
      "leftModuleId": 133,
      "pos": [
        57,
        1
      ]
    }
  ],
  "cables": [
    {
      "id": 55,
      "outputModuleId": 2,
      "outputId": 0,
      "inputModuleId": 1,
      "inputId": 0,
      "color": "#0986ad"
    },
    {
      "id": 56,
      "outputModuleId": 2,
      "outputId": 0,
      "inputModuleId": 1,
      "inputId": 1,
      "color": "#c9b70e"
    },
    {
      "id": 57,
      "outputModuleId": 6,
      "outputId": 0,
      "inputModuleId": 4,
      "inputId": 0,
      "color": "#c91847"
    },
    {
      "id": 58,
      "outputModuleId": 5,
      "outputId": 1,
      "inputModuleId": 6,
      "inputId": 4,
      "color": "#c9b70e"
    },
    {
      "id": 60,
      "outputModuleId": 4,
      "outputId": 0,
      "inputModuleId": 2,
      "inputId": 1,
      "color": "#0986ad"
    },
    {
      "id": 61,
      "outputModuleId": 2,
      "outputId": 1,
      "inputModuleId": 7,
      "inputId": 0,
      "color": "#c9b70e"
    },
    {
      "id": 62,
      "outputModuleId": 5,
      "outputId": 6,
      "inputModuleId": 6,
      "inputId": 5,
      "color": "#c91847"
    },
    {
      "id": 63,
      "outputModuleId": 9,
      "outputId": 6,
      "inputModuleId": 12,
      "inputId": 5,
      "color": "#c91847"
    },
    {
      "id": 64,
      "outputModuleId": 9,
      "outputId": 1,
      "inputModuleId": 12,
      "inputId": 4,
      "color": "#0986ad"
    },
    {
      "id": 66,
      "outputModuleId": 10,
      "outputId": 2,
      "inputModuleId": 11,
      "inputId": 3,
      "color": "#0c8e15"
    },
    {
      "id": 67,
      "outputModuleId": 12,
      "outputId": 0,
      "inputModuleId": 11,
      "inputId": 0,
      "color": "#c91847"
    },
    {
      "id": 69,
      "outputModuleId": 2,
      "outputId": 2,
      "inputModuleId": 7,
      "inputId": 1,
      "color": "#c9b70e"
    },
    {
      "id": 71,
      "outputModuleId": 11,
      "outputId": 0,
      "inputModuleId": 2,
      "inputId": 2,
      "color": "#c91847"
    },
    {
      "id": 74,
      "outputModuleId": 16,
      "outputId": 0,
      "inputModuleId": 2,
      "inputId": 3,
      "color": "#c91847"
    },
    {
      "id": 75,
      "outputModuleId": 17,
      "outputId": 0,
      "inputModuleId": 16,
      "inputId": 0,
      "color": "#0986ad"
    },
    {
      "id": 76,
      "outputModuleId": 13,
      "outputId": 1,
      "inputModuleId": 17,
      "inputId": 4,
      "color": "#c9b70e"
    },
    {
      "id": 77,
      "outputModuleId": 13,
      "outputId": 6,
      "inputModuleId": 17,
      "inputId": 5,
      "color": "#0c8e15"
    },
    {
      "id": 79,
      "outputModuleId": 2,
      "outputId": 3,
      "inputModuleId": 19,
      "inputId": 0,
      "color": "#0986ad"
    },
    {
      "id": 87,
      "outputModuleId": 23,
      "outputId": 0,
      "inputModuleId": 22,
      "inputId": 0,
      "color": "#0c8e15"
    },
    {
      "id": 88,
      "outputModuleId": 2,
      "outputId": 4,
      "inputModuleId": 19,
      "inputId": 1,
      "color": "#c91847"
    },
    {
      "id": 73,
      "outputModuleId": 14,
      "outputId": 2,
      "inputModuleId": 16,
      "inputId": 3,
      "color": "#c9b70e"
    },
    {
      "id": 91,
      "outputModuleId": 133,
      "outputId": 0,
      "inputModuleId": 2,
      "inputId": 8,
      "color": "#c9b70e"
    },
    {
      "id": 72,
      "outputModuleId": 13,
      "outputId": 0,
      "inputModuleId": 14,
      "inputId": 2,
      "color": "#0986ad"
    },
    {
      "id": 92,
      "outputModuleId": 132,
      "outputId": 10,
      "inputModuleId": 14,
      "inputId": 0,
      "color": "#c91847"
    },
    {
      "id": 93,
      "outputModuleId": 132,
      "outputId": 8,
      "inputModuleId": 10,
      "inputId": 0,
      "color": "#0986ad"
    },
    {
      "id": 94,
      "outputModuleId": 132,
      "outputId": 11,
      "inputModuleId": 3,
      "inputId": 0,
      "color": "#c9b70e"
    },
    {
      "id": 95,
      "outputModuleId": 133,
      "outputId": 1,
      "inputModuleId": 2,
      "inputId": 7,
      "color": "#c91847"
    },
    {
      "id": 97,
      "outputModuleId": 133,
      "outputId": 3,
      "inputModuleId": 2,
      "inputId": 5,
      "color": "#c9b70e"
    },
    {
      "id": 98,
      "outputModuleId": 133,
      "outputId": 2,
      "inputModuleId": 2,
      "inputId": 6,
      "color": "#0c8e15"
    },
    {
      "id": 100,
      "outputModuleId": 133,
      "outputId": 0,
      "inputModuleId": 23,
      "inputId": 4,
      "color": "#0986ad"
    },
    {
      "id": 83,
      "outputModuleId": 21,
      "outputId": 2,
      "inputModuleId": 22,
      "inputId": 3,
      "color": "#c9b70e"
    },
    {
      "id": 101,
      "outputModuleId": 134,
      "outputId": 6,
      "inputModuleId": 23,
      "inputId": 5,
      "color": "#c9b70e"
    },
    {
      "id": 102,
      "outputModuleId": 3,
      "outputId": 2,
      "inputModuleId": 4,
      "inputId": 3,
      "color": "#0c8e15"
    },
    {
      "id": 99,
      "outputModuleId": 22,
      "outputId": 0,
      "inputModuleId": 2,
      "inputId": 4,
      "color": "#c91847"
    },
    {
      "id": 104,
      "outputModuleId": 134,
      "outputId": 0,
      "inputModuleId": 21,
      "inputId": 2,
      "color": "#c9b70e"
    },
    {
      "id": 90,
      "outputModuleId": 132,
      "outputId": 11,
      "inputModuleId": 21,
      "inputId": 0,
      "color": "#0986ad"
    }
  ]
}