{
  "version": "1.1.6",
  "modules": [
    {
      "id": 1,
      "plugin": "Core",
      "version": "1.1.6",
      "model": "AudioInterface",
      "params": [],
      "leftModuleId": 2,
      "rightModuleId": 7,
      "data": {
        "audio": {
          "driver": 5,
          "deviceName": "Apple Inc.: MacBook Pro Speakers",
          "offset": 0,
          "maxChannels": 8,
          "sampleRate": 44100,
          "blockSize": 256
        }
      },
      "pos": [
        72,
        0
      ]
    },
    {
      "id": 2,
      "plugin": "Fundamental",
      "version": "1.4.0",
      "model": "VCMixer",
      "params": [
        {
          "id": 0,
          "value": 1.03899932
        },
        {
          "id": 1,
          "value": 0.803272843
        },
        {
          "id": 2,
          "value": 0.905095518
        },
        {
          "id": 3,
          "value": 1.41421354
        },
        {
          "id": 4,
          "value": 0.765089393
        }
      ],
      "leftModuleId": 143,
      "rightModuleId": 1,
      "pos": [
        62,
        0
      ]
    },
    {
      "id": 4,
      "plugin": "Fundamental",
      "version": "1.4.0",
      "model": "VCF",
      "params": [
        {
          "id": 0,
          "value": 0.449998796
        },
        {
          "id": 1,
          "value": 0.5
        },
        {
          "id": 2,
          "value": 0.234000027
        },
        {
          "id": 3,
          "value": 0.658000171
        },
        {
          "id": 4,
          "value": 0.369000047
        }
      ],
      "leftModuleId": 137,
      "rightModuleId": 6,
      "pos": [
        20,
        0
      ]
    },
    {
      "id": 5,
      "plugin": "Core",
      "version": "1.1.6",
      "model": "MIDIToCVInterface",
      "params": [],
      "rightModuleId": 137,
      "data": {
        "channels": 1,
        "polyMode": 0,
        "clockDivision": 24,
        "lastPitch": 8192,
        "lastMod": 0,
        "midi": {
          "driver": -11,
          "deviceName": "QWERTY keyboard (US)",
          "channel": -1
        }
      },
      "pos": [
        0,
        0
      ]
    },
    {
      "id": 6,
      "plugin": "Fundamental",
      "version": "1.4.0",
      "model": "ADSR",
      "params": [
        {
          "id": 0,
          "value": 0.598499417
        },
        {
          "id": 1,
          "value": 0.569000542
        },
        {
          "id": 2,
          "value": 0.205999926
        },
        {
          "id": 3,
          "value": 0.585500121
        }
      ],
      "leftModuleId": 4,
      "rightModuleId": 138,
      "pos": [
        28,
        0
      ]
    },
    {
      "id": 7,
      "plugin": "Fundamental",
      "version": "1.4.0",
      "model": "Scope",
      "params": [
        {
          "id": 0,
          "value": 0.0
        },
        {
          "id": 1,
          "value": 0.0
        },
        {
          "id": 2,
          "value": 0.0
        },
        {
          "id": 3,
          "value": 0.0
        },
        {
          "id": 4,
          "value": 14.0
        },
        {
          "id": 5,
          "value": 0.0
        },
        {
          "id": 6,
          "value": 0.0
        },
        {
          "id": 7,
          "value": 0.0
        }
      ],
      "leftModuleId": 1,
      "rightModuleId": 19,
      "data": {
        "lissajous": 0,
        "external": 0
      },
      "pos": [
        82,
        0
      ]
    },
    {
      "id": 8,
      "plugin": "Core",
      "version": "1.1.6",
      "model": "Notes",
      "params": [],
      "leftModuleId": 19,
      "text": "4/4 time\ns \n\np\n\ns\n\np\n\ns\n\np\n\ns\n\np\n\ns\n\np\n\ns\n\np",
      "pos": [
        108,
        0
      ]
    },
    {
      "id": 9,
      "plugin": "Core",
      "version": "1.1.6",
      "model": "MIDIToCVInterface",
      "params": [],
      "rightModuleId": 10,
      "data": {
        "channels": 1,
        "polyMode": 0,
        "clockDivision": 24,
        "lastPitch": 8192,
        "lastMod": 0,
        "midi": {
          "driver": -11,
          "deviceName": "QWERTY keyboard (US)",
          "channel": -1
        }
      },
      "pos": [
        0,
        1
      ]
    },
    {
      "id": 10,
      "plugin": "Fundamental",
      "version": "1.4.0",
      "model": "VCO",
      "params": [
        {
          "id": 0,
          "value": 1.0
        },
        {
          "id": 1,
          "value": 1.0
        },
        {
          "id": 2,
          "value": -31.6440067
        },
        {
          "id": 3,
          "value": 0.0
        },
        {
          "id": 4,
          "value": 0.0
        },
        {
          "id": 5,
          "value": 0.5
        },
        {
          "id": 6,
          "value": 0.0
        }
      ],
      "leftModuleId": 9,
      "rightModuleId": 14,
      "pos": [
        8,
        1
      ]
    },
    {
      "id": 14,
      "plugin": "Fundamental",
      "version": "1.4.0",
      "model": "VCO",
      "params": [
        {
          "id": 0,
          "value": 0.0
        },
        {
          "id": 1,
          "value": 0.0
        },
        {
          "id": 2,
          "value": -17.3879929
        },
        {
          "id": 3,
          "value": -1.0
        },
        {
          "id": 4,
          "value": 0.0
        },
        {
          "id": 5,
          "value": 0.5
        },
        {
          "id": 6,
          "value": 0.0
        }
      ],
      "leftModuleId": 10,
      "rightModuleId": 142,
      "pos": [
        18,
        1
      ]
    },
    {
      "id": 19,
      "plugin": "Fundamental",
      "version": "1.4.0",
      "model": "Scope",
      "params": [
        {
          "id": 0,
          "value": 0.0
        },
        {
          "id": 1,
          "value": 0.0
        },
        {
          "id": 2,
          "value": -0.0
        },
        {
          "id": 3,
          "value": 0.0
        },
        {
          "id": 4,
          "value": 14.0
        },
        {
          "id": 5,
          "value": 0.0
        },
        {
          "id": 6,
          "value": 0.0
        },
        {
          "id": 7,
          "value": 0.0
        }
      ],
      "leftModuleId": 7,
      "rightModuleId": 8,
      "data": {
        "lissajous": 0,
        "external": 0
      },
      "pos": [
        95,
        0
      ]
    },
    {
      "id": 137,
      "plugin": "Nozoid",
      "version": "1.1.7",
      "model": "Nozori_68_VCO",
      "params": [
        {
          "id": 0,
          "value": 0.224999979
        },
        {
          "id": 1,
          "value": 0.303000122
        },
        {
          "id": 2,
          "value": 0.261000514
        },
        {
          "id": 3,
          "value": 0.351000011
        },
        {
          "id": 4,
          "value": 0.45900017
        },
        {
          "id": 5,
          "value": 0.442500174
        },
        {
          "id": 6,
          "value": 0.0
        }
      ],
      "leftModuleId": 5,
      "rightModuleId": 4,
      "pos": [
        8,
        0
      ]
    },
    {
      "id": 138,
      "plugin": "Geodesics",
      "version": "1.2.0",
      "model": "Energy",
      "params": [
        {
          "id": 0,
          "value": 0.0
        },
        {
          "id": 1,
          "value": 0.0
        },
        {
          "id": 2,
          "value": 0.0
        },
        {
          "id": 3,
          "value": 0.0
        },
        {
          "id": 4,
          "value": 0.0
        },
        {
          "id": 5,
          "value": -0.273000062
        },
        {
          "id": 6,
          "value": -0.459000021
        },
        {
          "id": 7,
          "value": 0.745500386
        },
        {
          "id": 8,
          "value": 0.346500248
        },
        {
          "id": 9,
          "value": 0.0
        }
      ],
      "leftModuleId": 6,
      "rightModuleId": 144,
      "data": {
        "panelTheme": 1,
        "oscM_phase": 813200368,
        "oscC_phase": 1820743288,
        "osc1M_phase": 0,
        "osc1C_phase": 0,
        "osc2M_phase": 0,
        "osc2C_phase": 0,
        "osc3M_phase": 0,
        "osc3C_phase": 0,
        "osc4M_phase": 0,
        "osc4C_phase": 0,
        "osc5M_phase": 0,
        "osc5C_phase": 0,
        "osc6M_phase": 0,
        "osc6C_phase": 0,
        "osc7M_phase": 0,
        "osc7C_phase": 0,
        "osc8M_phase": 0,
        "osc8C_phase": 0,
        "osc9M_phase": 0,
        "osc9C_phase": 0,
        "osc10M_phase": 0,
        "osc10C_phase": 0,
        "osc11M_phase": 0,
        "osc11C_phase": 0,
        "osc12M_phase": 0,
        "osc12C_phase": 0,
        "osc13M_phase": 0,
        "osc13C_phase": 0,
        "osc14M_phase": 0,
        "osc14C_phase": 0,
        "osc15M_phase": 0,
        "osc15C_phase": 0,
        "routing": 1,
        "planck0": 2,
        "planck1": 2,
        "modtype0": 1,
        "modtype1": 0,
        "cross": 0
      },
      "pos": [
        36,
        0
      ]
    },
    {
      "id": 139,
      "plugin": "Geodesics",
      "version": "1.2.0",
      "model": "Entropia",
      "params": [
        {
          "id": 0,
          "value": 0.0
        },
        {
          "id": 1,
          "value": 0.0
        },
        {
          "id": 2,
          "value": 0.0
        },
        {
          "id": 3,
          "value": 0.0
        },
        {
          "id": 4,
          "value": 0.0
        },
        {
          "id": 5,
          "value": 0.374140859
        },
        {
          "id": 6,
          "value": 0.641180098
        },
        {
          "id": 7,
          "value": 0.447645903
        },
        {
          "id": 8,
          "value": 0.865039825
        },
        {
          "id": 9,
          "value": 0.088432312
        },
        {
          "id": 10,
          "value": 0.643874645
        },
        {
          "id": 11,
          "value": 0.770053327
        },
        {
          "id": 12,
          "value": 0.47418046
        },
        {
          "id": 13,
          "value": 0.842066586
        },
        {
          "id": 14,
          "value": 0.614965081
        },
        {
          "id": 15,
          "value": 0.89000231
        },
        {
          "id": 16,
          "value": 0.633921862
        },
        {
          "id": 17,
          "value": 0.905929983
        },
        {
          "id": 18,
          "value": 0.771341085
        },
        {
          "id": 19,
          "value": 0.747116983
        },
        {
          "id": 20,
          "value": 0.659218967
        },
        {
          "id": 21,
          "value": 0.0146512398
        },
        {
          "id": 22,
          "value": 0.479205191
        },
        {
          "id": 23,
          "value": 1.0
        },
        {
          "id": 24,
          "value": 0.134873092
        },
        {
          "id": 25,
          "value": 0.321140289
        },
        {
          "id": 26,
          "value": 0.137718081
        },
        {
          "id": 27,
          "value": 0.196415782
        },
        {
          "id": 28,
          "value": 0.606511593
        },
        {
          "id": 29,
          "value": 0.0
        },
        {
          "id": 30,
          "value": 0.0
        },
        {
          "id": 31,
          "value": 0.0
        },
        {
          "id": 32,
          "value": 0.0
        },
        {
          "id": 33,
          "value": 0.0
        },
        {
          "id": 34,
          "value": 0.0
        },
        {
          "id": 35,
          "value": 0.0
        },
        {
          "id": 36,
          "value": 0.0
        },
        {
          "id": 37,
          "value": 0.0
        },
        {
          "id": 38,
          "value": 0.0
        },
        {
          "id": 39,
          "value": 0.0
        },
        {
          "id": 40,
          "value": 0.0
        },
        {
          "id": 41,
          "value": 0.234031886
        },
        {
          "id": 42,
          "value": 0.0
        },
        {
          "id": 43,
          "value": 0.0
        },
        {
          "id": 44,
          "value": 0.0
        }
      ],
      "leftModuleId": 142,
      "rightModuleId": 140,
      "data": {
        "panelTheme": 1,
        "running": false,
        "resetOnRun": false,
        "length": 8,
        "quantize": 0,
        "audio": 0,
        "ranges0": 1,
        "ranges1": 0,
        "addMode": true,
        "sources0": 1,
        "sources1": 2,
        "stepIndex": 5,
        "pipeBlue": false,
        "randomCVs0": 0.12373203,
        "randomCVs1": 0.629333079,
        "clkSource": 0
      },
      "pos": [
        38,
        1
      ]
    },
    {
      "id": 140,
      "plugin": "cf",
      "version": "1.1.1",
      "model": "METRO",
      "params": [
        {
          "id": 0,
          "value": 55.3838806
        },
        {
          "id": 1,
          "value": 0.0
        },
        {
          "id": 2,
          "value": 0.0
        },
        {
          "id": 3,
          "value": 0.0
        }
      ],
      "leftModuleId": 139,
      "rightModuleId": 141,
      "data": {
        "onstate": 1
      },
      "pos": [
        59,
        1
      ]
    },
    {
      "id": 141,
      "plugin": "Bogaudio",
      "version": "1.1.34",
      "model": "Bogaudio-EightFO",
      "params": [
        {
          "id": 0,
          "value": -2.24250078
        },
        {
          "id": 1,
          "value": 2.0
        },
        {
          "id": 2,
          "value": 0.393000036
        },
        {
          "id": 3,
          "value": 0.0
        },
        {
          "id": 4,
          "value": 0.0
        },
        {
          "id": 5,
          "value": 0.0
        },
        {
          "id": 6,
          "value": 1.0
        },
        {
          "id": 7,
          "value": 0.5400002
        },
        {
          "id": 8,
          "value": -0.0569999889
        },
        {
          "id": 9,
          "value": 0.0
        },
        {
          "id": 10,
          "value": 0.0
        },
        {
          "id": 11,
          "value": 1.0
        },
        {
          "id": 12,
          "value": 0.0899999887
        },
        {
          "id": 13,
          "value": 0.713499367
        }
      ],
      "leftModuleId": 140,
      "data": {},
      "pos": [
        65,
        1
      ]
    },
    {
      "id": 142,
      "plugin": "Bogaudio",
      "version": "1.1.34",
      "model": "Bogaudio-LFO",
      "params": [
        {
          "id": 0,
          "value": 2.20350051
        },
        {
          "id": 1,
          "value": 1.0
        },
        {
          "id": 2,
          "value": 0.0
        },
        {
          "id": 3,
          "value": 0.0
        },
        {
          "id": 4,
          "value": 0.687000215
        },
        {
          "id": 5,
          "value": 1.0
        }
      ],
      "leftModuleId": 14,
      "rightModuleId": 139,
      "data": {},
      "pos": [
        28,
        1
      ]
    },
    {
      "id": 143,
      "plugin": "JW-Modules",
      "version": "1.0.14",
      "model": "Quantizer",
      "params": [
        {
          "id": 0,
          "value": 0.0
        },
        {
          "id": 1,
          "value": 1.0
        }
      ],
      "rightModuleId": 2,
      "data": {},
      "pos": [
        58,
        0
      ]
    },
    {
      "id": 144,
      "plugin": "Fundamental",
      "version": "1.4.0",
      "model": "ADSR",
      "params": [
        {
          "id": 0,
          "value": 0.21649988
        },
        {
          "id": 1,
          "value": 0.540499985
        },
        {
          "id": 2,
          "value": 0.541999936
        },
        {
          "id": 3,
          "value": 0.790999711
        }
      ],
      "leftModuleId": 138,
      "pos": [
        43,
        0
      ]
    }
  ],
  "cables": [
    {
      "id": 55,
      "outputModuleId": 2,
      "outputId": 0,
      "inputModuleId": 1,
      "inputId": 0,
      "color": "#0986ad"
    },
    {
      "id": 57,
      "outputModuleId": 6,
      "outputId": 0,
      "inputModuleId": 4,
      "inputId": 0,
      "color": "#c91847"
    },
    {
      "id": 58,
      "outputModuleId": 5,
      "outputId": 1,
      "inputModuleId": 6,
      "inputId": 4,
      "color": "#c9b70e"
    },
    {
      "id": 59,
      "outputModuleId": 6,
      "outputId": 0,
      "inputModuleId": 2,
      "inputId": 5,
      "color": "#0c8e15"
    },
    {
      "id": 61,
      "outputModuleId": 2,
      "outputId": 1,
      "inputModuleId": 7,
      "inputId": 0,
      "color": "#c9b70e"
    },
    {
      "id": 62,
      "outputModuleId": 5,
      "outputId": 6,
      "inputModuleId": 6,
      "inputId": 5,
      "color": "#c91847"
    },
    {
      "id": 69,
      "outputModuleId": 2,
      "outputId": 2,
      "inputModuleId": 7,
      "inputId": 1,
      "color": "#c9b70e"
    },
    {
      "id": 79,
      "outputModuleId": 2,
      "outputId": 3,
      "inputModuleId": 19,
      "inputId": 0,
      "color": "#0986ad"
    },
    {
      "id": 88,
      "outputModuleId": 2,
      "outputId": 4,
      "inputModuleId": 19,
      "inputId": 1,
      "color": "#c91847"
    },
    {
      "id": 105,
      "outputModuleId": 5,
      "outputId": 0,
      "inputModuleId": 137,
      "inputId": 2,
      "color": "#c91847"
    },
    {
      "id": 54,
      "outputModuleId": 137,
      "outputId": 1,
      "inputModuleId": 4,
      "inputId": 3,
      "color": "#0c8e15"
    },
    {
      "id": 109,
      "outputModuleId": 138,
      "outputId": 0,
      "inputModuleId": 4,
      "inputId": 2,
      "color": "#c91847"
    },
    {
      "id": 111,
      "outputModuleId": 140,
      "outputId": 2,
      "inputModuleId": 139,
      "inputId": 0,
      "color": "#0c8e15"
    },
    {
      "id": 114,
      "outputModuleId": 141,
      "outputId": 0,
      "inputModuleId": 139,
      "inputId": 5,
      "color": "#c9b70e"
    },
    {
      "id": 115,
      "outputModuleId": 5,
      "outputId": 0,
      "inputModuleId": 141,
      "inputId": 9,
      "color": "#0c8e15"
    },
    {
      "id": 116,
      "outputModuleId": 141,
      "outputId": 2,
      "inputModuleId": 139,
      "inputId": 1,
      "color": "#c91847"
    },
    {
      "id": 117,
      "outputModuleId": 141,
      "outputId": 5,
      "inputModuleId": 139,
      "inputId": 10,
      "color": "#c9b70e"
    },
    {
      "id": 118,
      "outputModuleId": 141,
      "outputId": 1,
      "inputModuleId": 139,
      "inputId": 9,
      "color": "#0c8e15"
    },
    {
      "id": 120,
      "outputModuleId": 141,
      "outputId": 7,
      "inputModuleId": 137,
      "inputId": 4,
      "color": "#0986ad"
    },
    {
      "id": 121,
      "outputModuleId": 141,
      "outputId": 4,
      "inputModuleId": 137,
      "inputId": 0,
      "color": "#c9b70e"
    },
    {
      "id": 122,
      "outputModuleId": 6,
      "outputId": 0,
      "inputModuleId": 2,
      "inputId": 6,
      "color": "#0c8e15"
    },
    {
      "id": 124,
      "outputModuleId": 142,
      "outputId": 0,
      "inputModuleId": 14,
      "inputId": 0,
      "color": "#0c8e15"
    },
    {
      "id": 125,
      "outputModuleId": 139,
      "outputId": 0,
      "inputModuleId": 142,
      "inputId": 1,
      "color": "#c91847"
    },
    {
      "id": 127,
      "outputModuleId": 141,
      "outputId": 6,
      "inputModuleId": 10,
      "inputId": 3,
      "color": "#c9b70e"
    },
    {
      "id": 131,
      "outputModuleId": 9,
      "outputId": 1,
      "inputModuleId": 2,
      "inputId": 8,
      "color": "#0986ad"
    },
    {
      "id": 137,
      "outputModuleId": 5,
      "outputId": 0,
      "inputModuleId": 10,
      "inputId": 0,
      "color": "#0c8e15"
    },
    {
      "id": 136,
      "outputModuleId": 5,
      "outputId": 0,
      "inputModuleId": 138,
      "inputId": 2,
      "color": "#c9b70e"
    },
    {
      "id": 139,
      "outputModuleId": 138,
      "outputId": 0,
      "inputModuleId": 143,
      "inputId": 2,
      "color": "#c91847"
    },
    {
      "id": 141,
      "outputModuleId": 142,
      "outputId": 4,
      "inputModuleId": 139,
      "inputId": 2,
      "color": "#0c8e15"
    },
    {
      "id": 142,
      "outputModuleId": 142,
      "outputId": 1,
      "inputModuleId": 139,
      "inputId": 7,
      "color": "#c91847"
    },
    {
      "id": 143,
      "outputModuleId": 142,
      "outputId": 3,
      "inputModuleId": 139,
      "inputId": 8,
      "color": "#0986ad"
    },
    {
      "id": 144,
      "outputModuleId": 142,
      "outputId": 2,
      "inputModuleId": 139,
      "inputId": 3,
      "color": "#c9b70e"
    },
    {
      "id": 110,
      "outputModuleId": 139,
      "outputId": 0,
      "inputModuleId": 142,
      "inputId": 2,
      "color": "#0986ad"
    },
    {
      "id": 123,
      "outputModuleId": 137,
      "outputId": 0,
      "inputModuleId": 2,
      "inputId": 2,
      "color": "#c91847"
    },
    {
      "id": 108,
      "outputModuleId": 4,
      "outputId": 0,
      "inputModuleId": 2,
      "inputId": 1,
      "color": "#0c8e15"
    },
    {
      "id": 146,
      "outputModuleId": 4,
      "outputId": 1,
      "inputModuleId": 2,
      "inputId": 4,
      "color": "#c91847"
    },
    {
      "id": 73,
      "outputModuleId": 14,
      "outputId": 2,
      "inputModuleId": 137,
      "inputId": 1,
      "color": "#c9b70e"
    },
    {
      "id": 66,
      "outputModuleId": 10,
      "outputId": 1,
      "inputModuleId": 137,
      "inputId": 3,
      "color": "#0c8e15"
    },
    {
      "id": 147,
      "outputModuleId": 139,
      "outputId": 0,
      "inputModuleId": 144,
      "inputId": 4,
      "color": "#0986ad"
    },
    {
      "id": 148,
      "outputModuleId": 141,
      "outputId": 3,
      "inputModuleId": 144,
      "inputId": 5,
      "color": "#c9b70e"
    },
    {
      "id": 150,
      "outputModuleId": 143,
      "outputId": 0,
      "inputModuleId": 2,
      "inputId": 3,
      "color": "#c91847"
    },
    {
      "id": 151,
      "outputModuleId": 2,
      "outputId": 0,
      "inputModuleId": 1,
      "inputId": 1,
      "color": "#0986ad"
    },
    {
      "id": 152,
      "outputModuleId": 6,
      "outputId": 0,
      "inputModuleId": 142,
      "inputId": 4,
      "color": "#c9b70e"
    },
    {
      "id": 1392,
      "outputModuleId": 141,
      "outputId": 4,
      "inputModuleId": 138,
      "inputId": 1,
      "color": "#c9b70e"
    },
    {
      "id": 149,
      "outputModuleId": 144,
      "outputId": 0,
      "inputModuleId": 2,
      "inputId": 7,
      "color": "#0c8e15"
    }
  ]
}