{
  "version": "1.1.6",
  "modules": [
    {
      "id": 1,
      "plugin": "Core",
      "version": "1.1.6",
      "model": "AudioInterface",
      "params": [],
      "leftModuleId": 18,
      "rightModuleId": 21,
      "data": {
        "audio": {
          "driver": 5,
          "offset": 0,
          "maxChannels": 8,
          "sampleRate": 44100,
          "blockSize": 256
        }
      },
      "pos": [
        77,
        1
      ]
    },
    {
      "id": 2,
      "plugin": "Fundamental",
      "version": "1.4.0",
      "model": "VCMixer",
      "params": [
        {
          "id": 0,
          "value": 1.0
        },
        {
          "id": 1,
          "value": 1.0
        },
        {
          "id": 2,
          "value": 1.0
        },
        {
          "id": 3,
          "value": 1.0
        },
        {
          "id": 4,
          "value": 1.0
        }
      ],
      "leftModuleId": 15,
      "rightModuleId": 7,
      "pos": [
        41,
        1
      ]
    },
    {
      "id": 3,
      "plugin": "Fundamental",
      "version": "1.4.0",
      "model": "VCO",
      "params": [
        {
          "id": 0,
          "value": 1.0
        },
        {
          "id": 1,
          "value": 1.0
        },
        {
          "id": 2,
          "value": -17.0100098
        },
        {
          "id": 3,
          "value": 0.0
        },
        {
          "id": 4,
          "value": 0.0
        },
        {
          "id": 5,
          "value": 0.5
        },
        {
          "id": 6,
          "value": 0.0
        }
      ],
      "leftModuleId": 5,
      "rightModuleId": 4,
      "pos": [
        8,
        0
      ]
    },
    {
      "id": 4,
      "plugin": "Fundamental",
      "version": "1.4.0",
      "model": "VCF",
      "params": [
        {
          "id": 0,
          "value": 0.5
        },
        {
          "id": 1,
          "value": 0.5
        },
        {
          "id": 2,
          "value": 0.365999997
        },
        {
          "id": 3,
          "value": 1.0
        },
        {
          "id": 4,
          "value": 0.373500019
        }
      ],
      "leftModuleId": 3,
      "rightModuleId": 6,
      "pos": [
        18,
        0
      ]
    },
    {
      "id": 5,
      "plugin": "Core",
      "version": "1.1.6",
      "model": "MIDIToCVInterface",
      "params": [],
      "rightModuleId": 3,
      "data": {
        "channels": 1,
        "polyMode": 0,
        "clockDivision": 24,
        "lastPitch": 8192,
        "lastMod": 0,
        "midi": {
          "driver": -11,
          "deviceName": "QWERTY keyboard (US)",
          "channel": -1
        }
      },
      "pos": [
        0,
        0
      ]
    },
    {
      "id": 6,
      "plugin": "Fundamental",
      "version": "1.4.0",
      "model": "ADSR",
      "params": [
        {
          "id": 0,
          "value": 0.370500058
        },
        {
          "id": 1,
          "value": 0.743000448
        },
        {
          "id": 2,
          "value": 0.5
        },
        {
          "id": 3,
          "value": 0.489500046
        }
      ],
      "leftModuleId": 4,
      "rightModuleId": 14,
      "pos": [
        26,
        0
      ]
    },
    {
      "id": 7,
      "plugin": "Fundamental",
      "version": "1.4.0",
      "model": "Scope",
      "params": [
        {
          "id": 0,
          "value": 0.0
        },
        {
          "id": 1,
          "value": 0.0
        },
        {
          "id": 2,
          "value": 0.0
        },
        {
          "id": 3,
          "value": 2.72999954
        },
        {
          "id": 4,
          "value": 14.0
        },
        {
          "id": 5,
          "value": 0.0
        },
        {
          "id": 6,
          "value": 0.0
        },
        {
          "id": 7,
          "value": 0.0
        }
      ],
      "leftModuleId": 2,
      "rightModuleId": 18,
      "data": {
        "lissajous": 0,
        "external": 0
      },
      "pos": [
        51,
        1
      ]
    },
    {
      "id": 12,
      "plugin": "Bogaudio",
      "version": "1.1.35",
      "model": "Bogaudio-Mix8",
      "params": [
        {
          "id": 0,
          "value": 1.0
        },
        {
          "id": 1,
          "value": 0.0
        },
        {
          "id": 2,
          "value": 0.0
        },
        {
          "id": 3,
          "value": 0.846090972
        },
        {
          "id": 4,
          "value": 0.0
        },
        {
          "id": 5,
          "value": 0.0
        },
        {
          "id": 6,
          "value": 1.0
        },
        {
          "id": 7,
          "value": 0.0
        },
        {
          "id": 8,
          "value": 0.0
        },
        {
          "id": 9,
          "value": 0.838591337
        },
        {
          "id": 10,
          "value": 0.0
        },
        {
          "id": 11,
          "value": 0.0
        },
        {
          "id": 12,
          "value": 0.909090936
        },
        {
          "id": 13,
          "value": 0.0
        },
        {
          "id": 14,
          "value": 0.0
        },
        {
          "id": 15,
          "value": 0.909090936
        },
        {
          "id": 16,
          "value": 0.0
        },
        {
          "id": 17,
          "value": 0.0
        },
        {
          "id": 18,
          "value": 0.909090936
        },
        {
          "id": 19,
          "value": 0.0
        },
        {
          "id": 20,
          "value": 0.0
        },
        {
          "id": 21,
          "value": 0.909090936
        },
        {
          "id": 22,
          "value": 0.0
        },
        {
          "id": 23,
          "value": 0.0
        },
        {
          "id": 24,
          "value": 0.899499893
        },
        {
          "id": 25,
          "value": 0.0
        },
        {
          "id": 26,
          "value": 0.0
        }
      ],
      "leftModuleId": 14,
      "rightModuleId": 20,
      "data": {
        "dim_decibels": 12.0,
        "poly_channel_offset": -1
      },
      "pos": [
        48,
        0
      ]
    },
    {
      "id": 14,
      "plugin": "ESeries",
      "version": "1.0.2",
      "model": "E340",
      "params": [
        {
          "id": 0,
          "value": 0.0
        },
        {
          "id": 1,
          "value": 0.0120000001
        },
        {
          "id": 2,
          "value": 0.0
        },
        {
          "id": 3,
          "value": 0.0
        },
        {
          "id": 4,
          "value": 0.487500042
        },
        {
          "id": 5,
          "value": 0.710000038
        },
        {
          "id": 6,
          "value": 2.0
        }
      ],
      "leftModuleId": 6,
      "rightModuleId": 12,
      "pos": [
        34,
        0
      ]
    },
    {
      "id": 15,
      "plugin": "VultModulesFree",
      "version": "1.14",
      "model": "Caudal",
      "params": [
        {
          "id": 0,
          "value": -0.353999972
        },
        {
          "id": 1,
          "value": 0.549000025
        },
        {
          "id": 2,
          "value": 0.0
        },
        {
          "id": 3,
          "value": 0.0
        },
        {
          "id": 4,
          "value": 0.0
        },
        {
          "id": 5,
          "value": 0.0
        },
        {
          "id": 6,
          "value": 0.0
        },
        {
          "id": 7,
          "value": 0.0
        },
        {
          "id": 8,
          "value": 0.0
        }
      ],
      "rightModuleId": 2,
      "data": {
        "phi1": -2.39581847,
        "phi2": -2.80691671,
        "phi3": -2.3533566,
        "phi4": -1.00190794,
        "w1": -8.44890404,
        "w2": 5.32376194,
        "w3": -11.4515162,
        "w4": -6.60435963,
        "dx1": -252.319763,
        "dy1": 99.2557526,
        "dx2": 9.46780396,
        "dy2": 0.903443396,
        "dx3": 14.1600389,
        "dy3": 25.9126892,
        "dx4": -148.959015,
        "dy4": -169.204086,
        "store_phi1": -2.39581847,
        "store_phi2": -2.80691671,
        "store_phi3": -2.3533566,
        "store_phi4": -1.00190794,
        "store_w1": -8.44890404,
        "store_w2": 5.32376194,
        "store_w3": -11.4515162,
        "store_w4": -6.60435963,
        "store_dx1": -252.319763,
        "store_dy1": 99.2557526,
        "store_dx2": 9.46780396,
        "store_dy2": 0.903443396,
        "store_dx3": 14.1600389,
        "store_dy3": 25.9126892,
        "store_dx4": -148.959015,
        "store_dy4": -169.204086,
        "model": 0
      },
      "pos": [
        31,
        1
      ]
    },
    {
      "id": 16,
      "plugin": "Fundamental",
      "version": "1.4.0",
      "model": "VCF",
      "params": [
        {
          "id": 0,
          "value": 0.170999974
        },
        {
          "id": 1,
          "value": 0.5
        },
        {
          "id": 2,
          "value": 0.651000142
        },
        {
          "id": 3,
          "value": -0.404000014
        },
        {
          "id": 4,
          "value": 0.588000059
        }
      ],
      "leftModuleId": 17,
      "pos": [
        17,
        1
      ]
    },
    {
      "id": 17,
      "plugin": "Bogaudio",
      "version": "1.1.35",
      "model": "Bogaudio-EightFO",
      "params": [
        {
          "id": 0,
          "value": -2.86650038
        },
        {
          "id": 1,
          "value": 1.0
        },
        {
          "id": 2,
          "value": 0.0
        },
        {
          "id": 3,
          "value": 0.0
        },
        {
          "id": 4,
          "value": 0.0
        },
        {
          "id": 5,
          "value": 0.0
        },
        {
          "id": 6,
          "value": 0.0
        },
        {
          "id": 7,
          "value": 0.0
        },
        {
          "id": 8,
          "value": 0.0
        },
        {
          "id": 9,
          "value": 0.0
        },
        {
          "id": 10,
          "value": 0.0
        },
        {
          "id": 11,
          "value": 0.0
        },
        {
          "id": 12,
          "value": 0.0
        },
        {
          "id": 13,
          "value": 1.0
        }
      ],
      "rightModuleId": 16,
      "data": {},
      "pos": [
        0,
        1
      ]
    },
    {
      "id": 18,
      "plugin": "Fundamental",
      "version": "1.4.0",
      "model": "Scope",
      "params": [
        {
          "id": 0,
          "value": 0.0
        },
        {
          "id": 1,
          "value": 0.0
        },
        {
          "id": 2,
          "value": 0.0
        },
        {
          "id": 3,
          "value": 2.72999954
        },
        {
          "id": 4,
          "value": 14.0
        },
        {
          "id": 5,
          "value": 0.0
        },
        {
          "id": 6,
          "value": 0.0
        },
        {
          "id": 7,
          "value": 0.0
        }
      ],
      "leftModuleId": 7,
      "rightModuleId": 1,
      "data": {
        "lissajous": 0,
        "external": 0
      },
      "pos": [
        64,
        1
      ]
    },
    {
      "id": 20,
      "plugin": "Sha-Bang-Modules",
      "version": "1.2.2",
      "model": "StochSeq4",
      "params": [
        {
          "id": 0,
          "value": 0.0
        },
        {
          "id": 1,
          "value": 0.0
        },
        {
          "id": 2,
          "value": 0.0
        },
        {
          "id": 3,
          "value": 0.0
        },
        {
          "id": 4,
          "value": 0.0
        },
        {
          "id": 5,
          "value": 0.0
        },
        {
          "id": 6,
          "value": 0.0
        },
        {
          "id": 7,
          "value": 0.0
        },
        {
          "id": 8,
          "value": 0.0
        },
        {
          "id": 9,
          "value": 0.0
        },
        {
          "id": 10,
          "value": 0.0
        },
        {
          "id": 11,
          "value": 0.0
        },
        {
          "id": 12,
          "value": 0.0
        },
        {
          "id": 13,
          "value": 0.0
        },
        {
          "id": 14,
          "value": 0.0
        },
        {
          "id": 15,
          "value": 0.0
        },
        {
          "id": 16,
          "value": 0.0
        },
        {
          "id": 17,
          "value": 0.0
        },
        {
          "id": 18,
          "value": 0.0
        },
        {
          "id": 19,
          "value": 0.0
        },
        {
          "id": 20,
          "value": 32.0
        },
        {
          "id": 21,
          "value": 32.0
        },
        {
          "id": 22,
          "value": 32.0
        },
        {
          "id": 23,
          "value": 32.0
        },
        {
          "id": 24,
          "value": 1.0
        },
        {
          "id": 25,
          "value": 1.0
        },
        {
          "id": 26,
          "value": 1.0
        },
        {
          "id": 27,
          "value": 1.0
        }
      ],
      "leftModuleId": 12,
      "data": {
        "currentPatterns": [
          0,
          0,
          0,
          0
        ],
        "seqsProbs": [
          [
            0.285578966,
            0.650637627,
            0.0900117159,
            0.324692369,
            0.0,
            0.598486423,
            0.285578966,
            0.0,
            0.0,
            0.494183898,
            0.794053495,
            0.155200779,
            0.0900117159,
            0.415956974,
            0.0,
            0.259503305,
            0.89835602,
            0.624562025,
            0.5332973,
            0.259503305,
            0.546335101,
            0.0,
            0.246465504,
            0.16823864,
            0.911393821,
            0.5202595,
            0.468108296,
            0.637599826,
            0.0,
            0.389881432,
            0.807091355,
            0.0
          ],
          [
            0.756003857,
            0.476315558,
            0.373316705,
            0.370514691,
            0.991940558,
            0.958430886,
            0.770129204,
            0.971728921,
            0.268456817,
            0.682676554,
            0.772497594,
            0.579771876,
            0.975804985,
            0.433979332,
            0.195908248,
            0.23148489,
            0.116927207,
            0.949802935,
            0.524396956,
            0.887131751,
            0.981366694,
            0.816689312,
            0.991589487,
            0.116128564,
            0.0609022379,
            0.210715532,
            0.117571175,
            0.897213697,
            0.721969783,
            0.685521781,
            0.583589852,
            0.768604577
          ],
          [
            0.387453914,
            0.480884969,
            0.225895464,
            0.159013867,
            0.82995373,
            0.377096951,
            0.633336186,
            0.990187645,
            0.32041347,
            0.793241799,
            0.842267752,
            0.428205371,
            0.054207921,
            0.953219712,
            0.838320196,
            0.231731534,
            0.95507288,
            0.024525702,
            0.514860094,
            0.94261378,
            0.804592729,
            0.674848437,
            0.64475137,
            0.264745116,
            0.489447594,
            0.102339506,
            0.280045271,
            0.169805825,
            0.532242417,
            0.0534431934,
            0.295746446,
            0.561637461
          ],
          [
            0.478446245,
            0.064989388,
            0.490980148,
            0.244188249,
            0.813561499,
            0.0505382419,
            0.960044742,
            0.232263327,
            0.949480772,
            0.167126358,
            0.990070641,
            0.0180661082,
            0.172404408,
            0.941647708,
            0.285688698,
            0.306733251,
            0.44994688,
            0.189096689,
            0.344633639,
            0.719537318,
            0.506177723,
            0.205600679,
            0.943554163,
            0.731452227,
            0.516097248,
            0.214368224,
            0.23987484,
            0.978572488,
            0.885576308,
            0.809570074,
            0.011849463,
            0.714591742
          ]
        ]
      },
      "pos": [
        75,
        0
      ]
    },
    {
      "id": 21,
      "plugin": "cf",
      "version": "1.1.1",
      "model": "METRO",
      "params": [
        {
          "id": 0,
          "value": 120.099998
        },
        {
          "id": 1,
          "value": 0.0
        },
        {
          "id": 2,
          "value": 0.0
        },
        {
          "id": 3,
          "value": 0.0
        }
      ],
      "leftModuleId": 1,
      "data": {
        "onstate": 1
      },
      "pos": [
        87,
        1
      ]
    }
  ],
  "cables": [
    {
      "id": 56,
      "outputModuleId": 4,
      "outputId": 0,
      "inputModuleId": 12,
      "inputId": 2,
      "color": "#0986ad"
    },
    {
      "id": 55,
      "outputModuleId": 6,
      "outputId": 0,
      "inputModuleId": 12,
      "inputId": 0,
      "color": "#0c8e15"
    },
    {
      "id": 52,
      "outputModuleId": 12,
      "outputId": 1,
      "inputModuleId": 1,
      "inputId": 1,
      "color": "#c9b70e"
    },
    {
      "id": 51,
      "outputModuleId": 12,
      "outputId": 0,
      "inputModuleId": 1,
      "inputId": 0,
      "color": "#0986ad"
    },
    {
      "id": 59,
      "outputModuleId": 4,
      "outputId": 0,
      "inputModuleId": 2,
      "inputId": 1,
      "color": "#c91847"
    },
    {
      "id": 60,
      "outputModuleId": 2,
      "outputId": 1,
      "inputModuleId": 7,
      "inputId": 0,
      "color": "#0986ad"
    },
    {
      "id": 50,
      "outputModuleId": 14,
      "outputId": 0,
      "inputModuleId": 4,
      "inputId": 3,
      "color": "#0c8e15"
    },
    {
      "id": 64,
      "outputModuleId": 15,
      "outputId": 0,
      "inputModuleId": 14,
      "inputId": 4,
      "color": "#0986ad"
    },
    {
      "id": 65,
      "outputModuleId": 15,
      "outputId": 4,
      "inputModuleId": 14,
      "inputId": 5,
      "color": "#c9b70e"
    },
    {
      "id": 66,
      "outputModuleId": 15,
      "outputId": 8,
      "inputModuleId": 14,
      "inputId": 1,
      "color": "#0c8e15"
    },
    {
      "id": 67,
      "outputModuleId": 15,
      "outputId": 9,
      "inputModuleId": 14,
      "inputId": 3,
      "color": "#c91847"
    },
    {
      "id": 68,
      "outputModuleId": 15,
      "outputId": 7,
      "inputModuleId": 4,
      "inputId": 2,
      "color": "#0986ad"
    },
    {
      "id": 69,
      "outputModuleId": 4,
      "outputId": 1,
      "inputModuleId": 12,
      "inputId": 5,
      "color": "#c9b70e"
    },
    {
      "id": 70,
      "outputModuleId": 6,
      "outputId": 0,
      "inputModuleId": 12,
      "inputId": 3,
      "color": "#0c8e15"
    },
    {
      "id": 71,
      "outputModuleId": 4,
      "outputId": 1,
      "inputModuleId": 2,
      "inputId": 2,
      "color": "#c91847"
    },
    {
      "id": 72,
      "outputModuleId": 2,
      "outputId": 2,
      "inputModuleId": 7,
      "inputId": 1,
      "color": "#0986ad"
    },
    {
      "id": 73,
      "outputModuleId": 14,
      "outputId": 1,
      "inputModuleId": 16,
      "inputId": 3,
      "color": "#c9b70e"
    },
    {
      "id": 74,
      "outputModuleId": 15,
      "outputId": 6,
      "inputModuleId": 16,
      "inputId": 0,
      "color": "#0c8e15"
    },
    {
      "id": 75,
      "outputModuleId": 15,
      "outputId": 2,
      "inputModuleId": 16,
      "inputId": 2,
      "color": "#c91847"
    },
    {
      "id": 77,
      "outputModuleId": 6,
      "outputId": 0,
      "inputModuleId": 12,
      "inputId": 6,
      "color": "#c9b70e"
    },
    {
      "id": 78,
      "outputModuleId": 6,
      "outputId": 0,
      "inputModuleId": 12,
      "inputId": 9,
      "color": "#0c8e15"
    },
    {
      "id": 79,
      "outputModuleId": 16,
      "outputId": 0,
      "inputModuleId": 12,
      "inputId": 8,
      "color": "#c91847"
    },
    {
      "id": 80,
      "outputModuleId": 16,
      "outputId": 1,
      "inputModuleId": 12,
      "inputId": 11,
      "color": "#0986ad"
    },
    {
      "id": 81,
      "outputModuleId": 15,
      "outputId": 11,
      "inputModuleId": 14,
      "inputId": 2,
      "color": "#c9b70e"
    },
    {
      "id": 83,
      "outputModuleId": 16,
      "outputId": 1,
      "inputModuleId": 2,
      "inputId": 4,
      "color": "#0986ad"
    },
    {
      "id": 84,
      "outputModuleId": 2,
      "outputId": 3,
      "inputModuleId": 18,
      "inputId": 0,
      "color": "#0c8e15"
    },
    {
      "id": 85,
      "outputModuleId": 2,
      "outputId": 4,
      "inputModuleId": 18,
      "inputId": 1,
      "color": "#c91847"
    },
    {
      "id": 86,
      "outputModuleId": 17,
      "outputId": 0,
      "inputModuleId": 15,
      "inputId": 0,
      "color": "#0986ad"
    },
    {
      "id": 87,
      "outputModuleId": 17,
      "outputId": 1,
      "inputModuleId": 15,
      "inputId": 1,
      "color": "#c9b70e"
    },
    {
      "id": 88,
      "outputModuleId": 17,
      "outputId": 4,
      "inputModuleId": 17,
      "inputId": 9,
      "color": "#0c8e15"
    },
    {
      "id": 89,
      "outputModuleId": 17,
      "outputId": 6,
      "inputModuleId": 17,
      "inputId": 0,
      "color": "#c91847"
    },
    {
      "id": 49,
      "outputModuleId": 17,
      "outputId": 5,
      "inputModuleId": 4,
      "inputId": 1,
      "color": "#c91847"
    },
    {
      "id": 91,
      "outputModuleId": 17,
      "outputId": 2,
      "inputModuleId": 16,
      "inputId": 1,
      "color": "#c9b70e"
    },
    {
      "id": 92,
      "outputModuleId": 20,
      "outputId": 4,
      "inputModuleId": 6,
      "inputId": 5,
      "color": "#c91847"
    },
    {
      "id": 93,
      "outputModuleId": 21,
      "outputId": 2,
      "inputModuleId": 20,
      "inputId": 4,
      "color": "#0986ad"
    },
    {
      "id": 94,
      "outputModuleId": 3,
      "outputId": 3,
      "inputModuleId": 6,
      "inputId": 4,
      "color": "#c9b70e"
    },
    {
      "id": 95,
      "outputModuleId": 17,
      "outputId": 7,
      "inputModuleId": 3,
      "inputId": 0,
      "color": "#0c8e15"
    },
    {
      "id": 96,
      "outputModuleId": 15,
      "outputId": 1,
      "inputModuleId": 17,
      "inputId": 12,
      "color": "#c91847"
    },
    {
      "id": 97,
      "outputModuleId": 15,
      "outputId": 3,
      "inputModuleId": 17,
      "inputId": 11,
      "color": "#0986ad"
    },
    {
      "id": 98,
      "outputModuleId": 20,
      "outputId": 8,
      "inputModuleId": 14,
      "inputId": 0,
      "color": "#0986ad"
    },
    {
      "id": 99,
      "outputModuleId": 17,
      "outputId": 3,
      "inputModuleId": 4,
      "inputId": 0,
      "color": "#c9b70e"
    },
    {
      "id": 100,
      "outputModuleId": 21,
      "outputId": 0,
      "inputModuleId": 20,
      "inputId": 5,
      "color": "#0c8e15"
    },
    {
      "id": 101,
      "outputModuleId": 20,
      "outputId": 9,
      "inputModuleId": 3,
      "inputId": 3,
      "color": "#c91847"
    }
  ]
}