{
  "version": "1.1.6",
  "modules": [
    {
      "id": 1,
      "plugin": "Core",
      "version": "1.1.6",
      "model": "AudioInterface",
      "params": [],
      "leftModuleId": 18,
      "rightModuleId": 21,
      "data": {
        "audio": {
          "driver": 5,
          "deviceName": "Apple Inc.: MacBook Pro Speakers",
          "offset": 0,
          "maxChannels": 8,
          "sampleRate": 44100,
          "blockSize": 256
        }
      },
      "pos": [
        71,
        1
      ]
    },
    {
      "id": 2,
      "plugin": "Fundamental",
      "version": "1.4.0",
      "model": "VCMixer",
      "params": [
        {
          "id": 0,
          "value": 1.0
        },
        {
          "id": 1,
          "value": 1.0
        },
        {
          "id": 2,
          "value": 1.0
        },
        {
          "id": 3,
          "value": 1.41421354
        },
        {
          "id": 4,
          "value": 1.41421354
        }
      ],
      "leftModuleId": 15,
      "rightModuleId": 7,
      "pos": [
        35,
        1
      ]
    },
    {
      "id": 3,
      "plugin": "Fundamental",
      "version": "1.4.0",
      "model": "VCO",
      "params": [
        {
          "id": 0,
          "value": 1.0
        },
        {
          "id": 1,
          "value": 1.0
        },
        {
          "id": 2,
          "value": -17.0100098
        },
        {
          "id": 3,
          "value": 0.0
        },
        {
          "id": 4,
          "value": 0.0
        },
        {
          "id": 5,
          "value": 0.5
        },
        {
          "id": 6,
          "value": 0.0
        }
      ],
      "leftModuleId": 5,
      "rightModuleId": 4,
      "pos": [
        8,
        0
      ]
    },
    {
      "id": 4,
      "plugin": "Fundamental",
      "version": "1.4.0",
      "model": "VCF",
      "params": [
        {
          "id": 0,
          "value": 0.5
        },
        {
          "id": 1,
          "value": 0.5
        },
        {
          "id": 2,
          "value": 0.365999997
        },
        {
          "id": 3,
          "value": 1.0
        },
        {
          "id": 4,
          "value": 0.373500019
        }
      ],
      "leftModuleId": 3,
      "rightModuleId": 6,
      "pos": [
        18,
        0
      ]
    },
    {
      "id": 5,
      "plugin": "Core",
      "version": "1.1.6",
      "model": "MIDIToCVInterface",
      "params": [],
      "rightModuleId": 3,
      "data": {
        "channels": 1,
        "polyMode": 0,
        "clockDivision": 24,
        "lastPitch": 8192,
        "lastMod": 0,
        "midi": {
          "driver": -11,
          "deviceName": "QWERTY keyboard (US)",
          "channel": -1
        }
      },
      "pos": [
        0,
        0
      ]
    },
    {
      "id": 6,
      "plugin": "Fundamental",
      "version": "1.4.0",
      "model": "ADSR",
      "params": [
        {
          "id": 0,
          "value": 0.370500058
        },
        {
          "id": 1,
          "value": 0.743000448
        },
        {
          "id": 2,
          "value": 0.5
        },
        {
          "id": 3,
          "value": 0.489500046
        }
      ],
      "leftModuleId": 4,
      "rightModuleId": 14,
      "pos": [
        26,
        0
      ]
    },
    {
      "id": 7,
      "plugin": "Fundamental",
      "version": "1.4.0",
      "model": "Scope",
      "params": [
        {
          "id": 0,
          "value": 0.0
        },
        {
          "id": 1,
          "value": 0.0
        },
        {
          "id": 2,
          "value": 0.0
        },
        {
          "id": 3,
          "value": 0.0
        },
        {
          "id": 4,
          "value": 14.0
        },
        {
          "id": 5,
          "value": 0.0
        },
        {
          "id": 6,
          "value": 0.0
        },
        {
          "id": 7,
          "value": 0.0
        }
      ],
      "leftModuleId": 2,
      "rightModuleId": 18,
      "data": {
        "lissajous": 0,
        "external": 0
      },
      "pos": [
        45,
        1
      ]
    },
    {
      "id": 12,
      "plugin": "Bogaudio",
      "version": "1.1.35",
      "model": "Bogaudio-Mix8",
      "params": [
        {
          "id": 0,
          "value": 0.510091186
        },
        {
          "id": 1,
          "value": 0.0
        },
        {
          "id": 2,
          "value": 0.0
        },
        {
          "id": 3,
          "value": 1.0
        },
        {
          "id": 4,
          "value": 1.0
        },
        {
          "id": 5,
          "value": 0.0
        },
        {
          "id": 6,
          "value": 0.519091249
        },
        {
          "id": 7,
          "value": 0.0
        },
        {
          "id": 8,
          "value": 0.0
        },
        {
          "id": 9,
          "value": 0.517591
        },
        {
          "id": 10,
          "value": 0.0
        },
        {
          "id": 11,
          "value": -1.0
        },
        {
          "id": 12,
          "value": 0.523591101
        },
        {
          "id": 13,
          "value": 0.0
        },
        {
          "id": 14,
          "value": 1.0
        },
        {
          "id": 15,
          "value": 0.514591396
        },
        {
          "id": 16,
          "value": 0.0
        },
        {
          "id": 17,
          "value": 0.0
        },
        {
          "id": 18,
          "value": 1.0
        },
        {
          "id": 19,
          "value": 1.0
        },
        {
          "id": 20,
          "value": 0.0
        },
        {
          "id": 21,
          "value": 1.0
        },
        {
          "id": 22,
          "value": 0.0
        },
        {
          "id": 23,
          "value": 0.0
        },
        {
          "id": 24,
          "value": 0.909090936
        },
        {
          "id": 25,
          "value": 0.0
        },
        {
          "id": 26,
          "value": 0.0
        }
      ],
      "leftModuleId": 14,
      "rightModuleId": 20,
      "data": {
        "dim_decibels": 12.0,
        "poly_channel_offset": -1
      },
      "pos": [
        48,
        0
      ]
    },
    {
      "id": 14,
      "plugin": "ESeries",
      "version": "1.0.2",
      "model": "E340",
      "params": [
        {
          "id": 0,
          "value": 0.0
        },
        {
          "id": 1,
          "value": 0.0120000001
        },
        {
          "id": 2,
          "value": 0.0
        },
        {
          "id": 3,
          "value": 0.0
        },
        {
          "id": 4,
          "value": 0.487500042
        },
        {
          "id": 5,
          "value": 0.710000038
        },
        {
          "id": 6,
          "value": 0.0
        }
      ],
      "leftModuleId": 6,
      "rightModuleId": 12,
      "pos": [
        34,
        0
      ]
    },
    {
      "id": 15,
      "plugin": "VultModulesFree",
      "version": "1.14",
      "model": "Caudal",
      "params": [
        {
          "id": 0,
          "value": -0.353999972
        },
        {
          "id": 1,
          "value": 0.549000025
        },
        {
          "id": 2,
          "value": 0.0
        },
        {
          "id": 3,
          "value": 0.0
        },
        {
          "id": 4,
          "value": 0.0
        },
        {
          "id": 5,
          "value": 0.0
        },
        {
          "id": 6,
          "value": 0.0
        },
        {
          "id": 7,
          "value": 0.0
        },
        {
          "id": 8,
          "value": 0.0
        }
      ],
      "leftModuleId": 16,
      "rightModuleId": 2,
      "data": {
        "phi1": -1.03205276,
        "phi2": -2.44383192,
        "phi3": 2.84817839,
        "phi4": 6.07763958,
        "w1": 9.7722702,
        "w2": -15.5766163,
        "w3": 22.6852684,
        "w4": 7.05558634,
        "dx1": -252.319763,
        "dy1": 99.2557526,
        "dx2": 9.46780396,
        "dy2": 0.903443396,
        "dx3": 14.1600389,
        "dy3": 25.9126892,
        "dx4": -148.959015,
        "dy4": -169.204086,
        "store_phi1": -1.03205276,
        "store_phi2": -2.44383192,
        "store_phi3": 2.84817839,
        "store_phi4": 6.07763958,
        "store_w1": 9.7722702,
        "store_w2": -15.5766163,
        "store_w3": 22.6852684,
        "store_w4": 7.05558634,
        "store_dx1": -252.319763,
        "store_dy1": 99.2557526,
        "store_dx2": 9.46780396,
        "store_dy2": 0.903443396,
        "store_dx3": 14.1600389,
        "store_dy3": 25.9126892,
        "store_dx4": -148.959015,
        "store_dy4": -169.204086,
        "model": 0
      },
      "pos": [
        25,
        1
      ]
    },
    {
      "id": 16,
      "plugin": "Fundamental",
      "version": "1.4.0",
      "model": "VCF",
      "params": [
        {
          "id": 0,
          "value": 0.170999974
        },
        {
          "id": 1,
          "value": 0.5
        },
        {
          "id": 2,
          "value": 0.651000142
        },
        {
          "id": 3,
          "value": -0.404000014
        },
        {
          "id": 4,
          "value": 0.588000059
        }
      ],
      "leftModuleId": 17,
      "rightModuleId": 15,
      "pos": [
        17,
        1
      ]
    },
    {
      "id": 17,
      "plugin": "Bogaudio",
      "version": "1.1.35",
      "model": "Bogaudio-EightFO",
      "params": [
        {
          "id": 0,
          "value": -1.93050063
        },
        {
          "id": 1,
          "value": 1.0
        },
        {
          "id": 2,
          "value": -0.224999994
        },
        {
          "id": 3,
          "value": 0.0
        },
        {
          "id": 4,
          "value": 0.0
        },
        {
          "id": 5,
          "value": 0.0
        },
        {
          "id": 6,
          "value": 0.0
        },
        {
          "id": 7,
          "value": 0.0
        },
        {
          "id": 8,
          "value": 0.0
        },
        {
          "id": 9,
          "value": 0.0
        },
        {
          "id": 10,
          "value": 0.0
        },
        {
          "id": 11,
          "value": 0.0
        },
        {
          "id": 12,
          "value": 0.297000021
        },
        {
          "id": 13,
          "value": 0.86500001
        }
      ],
      "rightModuleId": 16,
      "data": {},
      "pos": [
        0,
        1
      ]
    },
    {
      "id": 18,
      "plugin": "Fundamental",
      "version": "1.4.0",
      "model": "Scope",
      "params": [
        {
          "id": 0,
          "value": 0.0
        },
        {
          "id": 1,
          "value": 0.0
        },
        {
          "id": 2,
          "value": 0.0
        },
        {
          "id": 3,
          "value": 0.0
        },
        {
          "id": 4,
          "value": 14.0
        },
        {
          "id": 5,
          "value": 0.0
        },
        {
          "id": 6,
          "value": 0.0
        },
        {
          "id": 7,
          "value": 0.0
        }
      ],
      "leftModuleId": 7,
      "rightModuleId": 1,
      "data": {
        "lissajous": 0,
        "external": 0
      },
      "pos": [
        58,
        1
      ]
    },
    {
      "id": 20,
      "plugin": "Sha-Bang-Modules",
      "version": "1.2.2",
      "model": "StochSeq4",
      "params": [
        {
          "id": 0,
          "value": 10.0
        },
        {
          "id": 1,
          "value": 14.0
        },
        {
          "id": 2,
          "value": 0.0
        },
        {
          "id": 3,
          "value": 0.0
        },
        {
          "id": 4,
          "value": 0.0
        },
        {
          "id": 5,
          "value": 0.0
        },
        {
          "id": 6,
          "value": 0.0
        },
        {
          "id": 7,
          "value": 0.0
        },
        {
          "id": 8,
          "value": 0.0
        },
        {
          "id": 9,
          "value": 0.0
        },
        {
          "id": 10,
          "value": 0.0
        },
        {
          "id": 11,
          "value": 0.0
        },
        {
          "id": 12,
          "value": 0.0
        },
        {
          "id": 13,
          "value": 0.0
        },
        {
          "id": 14,
          "value": 0.0
        },
        {
          "id": 15,
          "value": 0.0
        },
        {
          "id": 16,
          "value": 0.0
        },
        {
          "id": 17,
          "value": 0.0
        },
        {
          "id": 18,
          "value": 0.0
        },
        {
          "id": 19,
          "value": 0.0
        },
        {
          "id": 20,
          "value": 32.0
        },
        {
          "id": 21,
          "value": 32.0
        },
        {
          "id": 22,
          "value": 32.0
        },
        {
          "id": 23,
          "value": 32.0
        },
        {
          "id": 24,
          "value": 1.0
        },
        {
          "id": 25,
          "value": 1.0
        },
        {
          "id": 26,
          "value": 1.0
        },
        {
          "id": 27,
          "value": 1.0
        }
      ],
      "leftModuleId": 12,
      "data": {
        "currentPatterns": [
          0,
          0,
          0,
          0
        ],
        "seqsProbs": [
          [
            0.468227565,
            0.136054218,
            0.974826574,
            0.490107059,
            0.725803018,
            0.608018875,
            0.225298345,
            0.235256195,
            0.163093328,
            0.196633339,
            0.0142551064,
            0.81161654,
            0.067309618,
            0.391361058,
            0.223451614,
            0.301531434,
            0.342054367,
            0.191219747,
            0.480155885,
            0.0366848707,
            0.680063248,
            0.984863222,
            0.313701212,
            0.877767742,
            0.308378577,
            0.585417628,
            0.868987799,
            0.633958638,
            0.25728637,
            0.694941819,
            0.404656649,
            0.185526013
          ],
          [
            0.756003857,
            0.476315558,
            0.373316705,
            0.370514691,
            0.991940558,
            0.958430886,
            0.770129204,
            0.971728921,
            0.268456817,
            0.682676554,
            0.772497594,
            0.579771876,
            0.975804985,
            0.433979332,
            0.195908248,
            0.23148489,
            0.116927207,
            0.949802935,
            0.524396956,
            0.887131751,
            0.981366694,
            0.816689312,
            0.991589487,
            0.116128564,
            0.0609022379,
            0.210715532,
            0.117571175,
            0.897213697,
            0.721969783,
            0.685521781,
            0.583589852,
            0.768604577
          ],
          [
            0.00805342197,
            0.75460422,
            0.107581079,
            0.334341109,
            0.486390471,
            0.144233644,
            0.0370835066,
            0.342639148,
            0.282012939,
            0.0569972396,
            0.224609375,
            0.422122598,
            0.727397621,
            0.398549974,
            0.581822693,
            0.348169088,
            0.00805342197,
            0.75460422,
            0.107581079,
            0.334341109,
            0.486390471,
            0.144233644,
            0.0370835066,
            0.342639148,
            0.282012939,
            0.0569972396,
            0.224609375,
            0.422122598,
            0.727397621,
            0.398549974,
            0.581822693,
            0.348169088
          ],
          [
            0.948925972,
            0.269368231,
            0.706893742,
            0.966870248,
            0.749581814,
            0.960910141,
            0.0621071458,
            0.685104907,
            0.69348228,
            0.26962173,
            0.161103368,
            0.183798194,
            0.868480027,
            0.57621938,
            0.640609443,
            0.52071476,
            0.643267989,
            0.612997949,
            0.933447301,
            0.767690897,
            0.540071309,
            0.139385521,
            0.212710619,
            0.648951352,
            0.10236299,
            0.138236761,
            0.79681778,
            0.741000414,
            0.188594878,
            0.413496077,
            0.330908716,
            0.699445188
          ]
        ]
      },
      "pos": [
        75,
        0
      ]
    },
    {
      "id": 21,
      "plugin": "cf",
      "version": "1.1.1",
      "model": "METRO",
      "params": [
        {
          "id": 0,
          "value": 30.251503
        },
        {
          "id": 1,
          "value": 0.0
        },
        {
          "id": 2,
          "value": 0.0
        },
        {
          "id": 3,
          "value": 0.0
        }
      ],
      "leftModuleId": 1,
      "rightModuleId": 22,
      "data": {
        "onstate": 1
      },
      "pos": [
        81,
        1
      ]
    },
    {
      "id": 22,
      "plugin": "SlimeChild-Substation",
      "version": "1.1.0",
      "model": "SlimeChild-Substation-Mixer",
      "params": [
        {
          "id": 0,
          "value": 0.473999977
        },
        {
          "id": 1,
          "value": 0.493500054
        },
        {
          "id": 2,
          "value": 0.455999881
        },
        {
          "id": 3,
          "value": 0.0570000298
        },
        {
          "id": 4,
          "value": 0.048000019
        },
        {
          "id": 5,
          "value": 0.02700001
        },
        {
          "id": 6,
          "value": 1.0
        },
        {
          "id": 7,
          "value": 1.0
        },
        {
          "id": 8,
          "value": 0.631500125
        }
      ],
      "leftModuleId": 21,
      "rightModuleId": 23,
      "pos": [
        87,
        1
      ]
    },
    {
      "id": 23,
      "plugin": "SlimeChild-Substation",
      "version": "1.1.0",
      "model": "SlimeChild-Substation-PolySeq",
      "params": [
        {
          "id": 0,
          "value": 0.075000003
        },
        {
          "id": 1,
          "value": -0.189000025
        },
        {
          "id": 2,
          "value": 0.213
        },
        {
          "id": 3,
          "value": 0.203999996
        },
        {
          "id": 4,
          "value": 0.165000007
        },
        {
          "id": 5,
          "value": -0.225000009
        },
        {
          "id": 6,
          "value": 0.0779999942
        },
        {
          "id": 7,
          "value": 0.147000015
        },
        {
          "id": 8,
          "value": -0.245999992
        },
        {
          "id": 9,
          "value": -0.162000015
        },
        {
          "id": 10,
          "value": 0.126000002
        },
        {
          "id": 11,
          "value": -0.165000007
        },
        {
          "id": 12,
          "value": 1.0
        },
        {
          "id": 13,
          "value": 6.0
        },
        {
          "id": 14,
          "value": 5.0
        },
        {
          "id": 15,
          "value": 8.0
        },
        {
          "id": 16,
          "value": 1.0
        },
        {
          "id": 17,
          "value": 0.0
        },
        {
          "id": 18,
          "value": 1.0
        },
        {
          "id": 19,
          "value": 0.0
        },
        {
          "id": 20,
          "value": 0.0
        },
        {
          "id": 21,
          "value": 1.0
        },
        {
          "id": 22,
          "value": 0.0
        },
        {
          "id": 23,
          "value": 1.0
        },
        {
          "id": 24,
          "value": 1.0
        },
        {
          "id": 25,
          "value": 0.0
        },
        {
          "id": 26,
          "value": 1.0
        },
        {
          "id": 27,
          "value": 0.0
        },
        {
          "id": 28,
          "value": 2.0
        },
        {
          "id": 29,
          "value": 2.0
        },
        {
          "id": 30,
          "value": 2.0
        },
        {
          "id": 31,
          "value": 0.0
        },
        {
          "id": 32,
          "value": 0.0
        },
        {
          "id": 33,
          "value": 0.0
        },
        {
          "id": 34,
          "value": 4.0
        }
      ],
      "leftModuleId": 22,
      "data": {
        "states": [
          0,
          3,
          0
        ],
        "dividers": [
          0,
          0,
          1,
          6
        ]
      },
      "pos": [
        100,
        1
      ]
    },
    {
      "id": 24,
      "plugin": "SlimeChild-Substation",
      "version": "1.1.0",
      "model": "SlimeChild-Substation-SubOscillator",
      "params": [
        {
          "id": 0,
          "value": -25.2000027
        },
        {
          "id": 1,
          "value": 1.0
        },
        {
          "id": 2,
          "value": 1.0
        },
        {
          "id": 3,
          "value": 1.0
        },
        {
          "id": 4,
          "value": 0.5
        },
        {
          "id": 5,
          "value": -0.252000004
        }
      ],
      "leftModuleId": 25,
      "rightModuleId": 29,
      "pos": [
        95,
        2
      ]
    },
    {
      "id": 25,
      "plugin": "SlimeChild-Substation",
      "version": "1.1.0",
      "model": "SlimeChild-Substation-Envelopes",
      "params": [
        {
          "id": 0,
          "value": -1.80400014
        },
        {
          "id": 1,
          "value": -0.430000007
        },
        {
          "id": 2,
          "value": -2.03799987
        },
        {
          "id": 3,
          "value": -0.75999999
        },
        {
          "id": 4,
          "value": 1.0
        },
        {
          "id": 5,
          "value": 0.0
        }
      ],
      "leftModuleId": 26,
      "rightModuleId": 24,
      "pos": [
        88,
        2
      ]
    },
    {
      "id": 26,
      "plugin": "SlimeChild-Substation",
      "version": "1.1.0",
      "model": "SlimeChild-Substation-Envelopes",
      "params": [
        {
          "id": 0,
          "value": -1.76200008
        },
        {
          "id": 1,
          "value": -0.430000007
        },
        {
          "id": 2,
          "value": -2.03799987
        },
        {
          "id": 3,
          "value": -0.75999999
        },
        {
          "id": 4,
          "value": 1.0
        },
        {
          "id": 5,
          "value": 0.0
        }
      ],
      "leftModuleId": 27,
      "rightModuleId": 25,
      "pos": [
        81,
        2
      ]
    },
    {
      "id": 27,
      "plugin": "ArableInstruments",
      "version": "1.0.0",
      "model": "Joni",
      "params": [
        {
          "id": 0,
          "value": 0.62997371
        },
        {
          "id": 1,
          "value": 0.706738174
        },
        {
          "id": 2,
          "value": -0.744748116
        },
        {
          "id": 3,
          "value": 0.801701307
        },
        {
          "id": 4,
          "value": 0.481660962
        },
        {
          "id": 5,
          "value": 0.629128754
        },
        {
          "id": 6,
          "value": 0.747426033
        },
        {
          "id": 7,
          "value": 0.397539645
        },
        {
          "id": 8,
          "value": 0.29829812
        },
        {
          "id": 9,
          "value": 0.804260612
        },
        {
          "id": 10,
          "value": 0.0
        }
      ],
      "leftModuleId": 28,
      "rightModuleId": 26,
      "data": {
        "playbackmode": 2,
        "lofi": 0,
        "mono": 0,
        "freeze": 0,
        "buffersize": 1
      },
      "pos": [
        50,
        2
      ]
    },
    {
      "id": 28,
      "plugin": "RJModules",
      "version": "1.7.2",
      "model": "Acid",
      "params": [
        {
          "id": 0,
          "value": 3.0
        },
        {
          "id": 1,
          "value": 1.0
        },
        {
          "id": 2,
          "value": 0.590999961
        },
        {
          "id": 3,
          "value": 0.190723836
        },
        {
          "id": 4,
          "value": -0.134000093
        },
        {
          "id": 5,
          "value": 0.618279517
        },
        {
          "id": 6,
          "value": 0.469000071
        },
        {
          "id": 7,
          "value": 0.155670166
        },
        {
          "id": 8,
          "value": 0.0192825049
        },
        {
          "id": 9,
          "value": 1.0303086
        },
        {
          "id": 10,
          "value": -0.82000035
        },
        {
          "id": 11,
          "value": 0.899999976
        },
        {
          "id": 12,
          "value": 0.318774968
        },
        {
          "id": 13,
          "value": 0.283427984
        },
        {
          "id": 14,
          "value": 28.6767349
        }
      ],
      "leftModuleId": 31,
      "rightModuleId": 27,
      "pos": [
        30,
        2
      ]
    },
    {
      "id": 29,
      "plugin": "Hora-ModulationFree",
      "version": "1.0.2",
      "model": "TwinQuartet-LFO",
      "params": [
        {
          "id": 0,
          "value": 3.15501738
        },
        {
          "id": 1,
          "value": 0.0
        },
        {
          "id": 2,
          "value": 1.0
        },
        {
          "id": 3,
          "value": 1.0
        },
        {
          "id": 4,
          "value": 90.0
        },
        {
          "id": 5,
          "value": 90.0
        },
        {
          "id": 6,
          "value": 0.0
        }
      ],
      "leftModuleId": 24,
      "rightModuleId": 33,
      "pos": [
        108,
        2
      ]
    },
    {
      "id": 31,
      "plugin": "AlrightDevices",
      "version": "1.0.3",
      "model": "Chronoblob2",
      "params": [
        {
          "id": 0,
          "value": 0.610999942
        },
        {
          "id": 1,
          "value": 0.630500019
        },
        {
          "id": 2,
          "value": 0.601999998
        },
        {
          "id": 3,
          "value": 0.0
        },
        {
          "id": 4,
          "value": 0.0
        },
        {
          "id": 5,
          "value": 0.0
        },
        {
          "id": 6,
          "value": 0.0
        },
        {
          "id": 7,
          "value": 0.0
        },
        {
          "id": 8,
          "value": 1.0
        },
        {
          "id": 9,
          "value": 0.0
        }
      ],
      "leftModuleId": 32,
      "rightModuleId": 28,
      "data": {
        "delay_mode": 3,
        "hold_behavior": 0,
        "sync_prescaler": 6
      },
      "pos": [
        18,
        2
      ]
    },
    {
      "id": 32,
      "plugin": "AudibleInstruments",
      "version": "1.5.0",
      "model": "Clouds",
      "params": [
        {
          "id": 0,
          "value": 0.0
        },
        {
          "id": 1,
          "value": 0.0
        },
        {
          "id": 2,
          "value": 0.0
        },
        {
          "id": 3,
          "value": 0.381499976
        },
        {
          "id": 4,
          "value": 0.479000002
        },
        {
          "id": 5,
          "value": 0.203999966
        },
        {
          "id": 6,
          "value": 1.0
        },
        {
          "id": 7,
          "value": 0.5
        },
        {
          "id": 8,
          "value": 0.599000037
        },
        {
          "id": 9,
          "value": 0.433999985
        },
        {
          "id": 10,
          "value": 0.0
        },
        {
          "id": 11,
          "value": 0.0
        },
        {
          "id": 12,
          "value": 0.671999991
        }
      ],
      "rightModuleId": 31,
      "data": {
        "playback": 0,
        "quality": 0,
        "blendMode": 3
      },
      "pos": [
        0,
        2
      ]
    },
    {
      "id": 33,
      "plugin": "StudioSixPlusOne",
      "version": "1.2.1",
      "model": "Eva",
      "params": [
        {
          "id": 0,
          "value": 1.0
        }
      ],
      "leftModuleId": 29,
      "pos": [
        123,
        2
      ]
    }
  ],
  "cables": [
    {
      "id": 52,
      "outputModuleId": 12,
      "outputId": 1,
      "inputModuleId": 1,
      "inputId": 1,
      "color": "#c9b70e"
    },
    {
      "id": 51,
      "outputModuleId": 12,
      "outputId": 0,
      "inputModuleId": 1,
      "inputId": 0,
      "color": "#0986ad"
    },
    {
      "id": 60,
      "outputModuleId": 2,
      "outputId": 1,
      "inputModuleId": 7,
      "inputId": 0,
      "color": "#0986ad"
    },
    {
      "id": 50,
      "outputModuleId": 14,
      "outputId": 0,
      "inputModuleId": 4,
      "inputId": 3,
      "color": "#0c8e15"
    },
    {
      "id": 64,
      "outputModuleId": 15,
      "outputId": 0,
      "inputModuleId": 14,
      "inputId": 4,
      "color": "#0986ad"
    },
    {
      "id": 65,
      "outputModuleId": 15,
      "outputId": 4,
      "inputModuleId": 14,
      "inputId": 5,
      "color": "#c9b70e"
    },
    {
      "id": 66,
      "outputModuleId": 15,
      "outputId": 8,
      "inputModuleId": 14,
      "inputId": 1,
      "color": "#0c8e15"
    },
    {
      "id": 67,
      "outputModuleId": 15,
      "outputId": 9,
      "inputModuleId": 14,
      "inputId": 3,
      "color": "#c91847"
    },
    {
      "id": 68,
      "outputModuleId": 15,
      "outputId": 7,
      "inputModuleId": 4,
      "inputId": 2,
      "color": "#0986ad"
    },
    {
      "id": 72,
      "outputModuleId": 2,
      "outputId": 2,
      "inputModuleId": 7,
      "inputId": 1,
      "color": "#0986ad"
    },
    {
      "id": 73,
      "outputModuleId": 14,
      "outputId": 1,
      "inputModuleId": 16,
      "inputId": 3,
      "color": "#c9b70e"
    },
    {
      "id": 74,
      "outputModuleId": 15,
      "outputId": 6,
      "inputModuleId": 16,
      "inputId": 0,
      "color": "#0c8e15"
    },
    {
      "id": 75,
      "outputModuleId": 15,
      "outputId": 2,
      "inputModuleId": 16,
      "inputId": 2,
      "color": "#c91847"
    },
    {
      "id": 81,
      "outputModuleId": 15,
      "outputId": 11,
      "inputModuleId": 14,
      "inputId": 2,
      "color": "#c9b70e"
    },
    {
      "id": 84,
      "outputModuleId": 2,
      "outputId": 3,
      "inputModuleId": 18,
      "inputId": 0,
      "color": "#0c8e15"
    },
    {
      "id": 85,
      "outputModuleId": 2,
      "outputId": 4,
      "inputModuleId": 18,
      "inputId": 1,
      "color": "#c91847"
    },
    {
      "id": 86,
      "outputModuleId": 17,
      "outputId": 0,
      "inputModuleId": 15,
      "inputId": 0,
      "color": "#0986ad"
    },
    {
      "id": 87,
      "outputModuleId": 17,
      "outputId": 1,
      "inputModuleId": 15,
      "inputId": 1,
      "color": "#c9b70e"
    },
    {
      "id": 88,
      "outputModuleId": 17,
      "outputId": 4,
      "inputModuleId": 17,
      "inputId": 9,
      "color": "#0c8e15"
    },
    {
      "id": 89,
      "outputModuleId": 17,
      "outputId": 6,
      "inputModuleId": 17,
      "inputId": 0,
      "color": "#c91847"
    },
    {
      "id": 49,
      "outputModuleId": 17,
      "outputId": 5,
      "inputModuleId": 4,
      "inputId": 1,
      "color": "#c91847"
    },
    {
      "id": 91,
      "outputModuleId": 17,
      "outputId": 2,
      "inputModuleId": 16,
      "inputId": 1,
      "color": "#c9b70e"
    },
    {
      "id": 92,
      "outputModuleId": 20,
      "outputId": 4,
      "inputModuleId": 6,
      "inputId": 5,
      "color": "#c91847"
    },
    {
      "id": 94,
      "outputModuleId": 3,
      "outputId": 3,
      "inputModuleId": 6,
      "inputId": 4,
      "color": "#c9b70e"
    },
    {
      "id": 95,
      "outputModuleId": 17,
      "outputId": 7,
      "inputModuleId": 3,
      "inputId": 0,
      "color": "#0c8e15"
    },
    {
      "id": 96,
      "outputModuleId": 15,
      "outputId": 1,
      "inputModuleId": 17,
      "inputId": 12,
      "color": "#c91847"
    },
    {
      "id": 97,
      "outputModuleId": 15,
      "outputId": 3,
      "inputModuleId": 17,
      "inputId": 11,
      "color": "#0986ad"
    },
    {
      "id": 98,
      "outputModuleId": 20,
      "outputId": 8,
      "inputModuleId": 14,
      "inputId": 0,
      "color": "#0986ad"
    },
    {
      "id": 99,
      "outputModuleId": 17,
      "outputId": 3,
      "inputModuleId": 4,
      "inputId": 0,
      "color": "#c9b70e"
    },
    {
      "id": 101,
      "outputModuleId": 20,
      "outputId": 9,
      "inputModuleId": 3,
      "inputId": 3,
      "color": "#c91847"
    },
    {
      "id": 80,
      "outputModuleId": 16,
      "outputId": 1,
      "inputModuleId": 22,
      "inputId": 0,
      "color": "#0986ad"
    },
    {
      "id": 69,
      "outputModuleId": 4,
      "outputId": 1,
      "inputModuleId": 22,
      "inputId": 1,
      "color": "#c9b70e"
    },
    {
      "id": 56,
      "outputModuleId": 4,
      "outputId": 0,
      "inputModuleId": 22,
      "inputId": 2,
      "color": "#0986ad"
    },
    {
      "id": 102,
      "outputModuleId": 22,
      "outputId": 0,
      "inputModuleId": 12,
      "inputId": 2,
      "color": "#c2cfb2"
    },
    {
      "id": 104,
      "outputModuleId": 3,
      "outputId": 2,
      "inputModuleId": 22,
      "inputId": 3,
      "color": "#d8d1c9"
    },
    {
      "id": 105,
      "outputModuleId": 3,
      "outputId": 1,
      "inputModuleId": 22,
      "inputId": 4,
      "color": "#0c8e15"
    },
    {
      "id": 106,
      "outputModuleId": 3,
      "outputId": 0,
      "inputModuleId": 22,
      "inputId": 5,
      "color": "#c91847"
    },
    {
      "id": 107,
      "outputModuleId": 22,
      "outputId": 0,
      "inputModuleId": 2,
      "inputId": 1,
      "color": "#c9b70e"
    },
    {
      "id": 108,
      "outputModuleId": 21,
      "outputId": 0,
      "inputModuleId": 23,
      "inputId": 0,
      "color": "#c91847"
    },
    {
      "id": 111,
      "outputModuleId": 23,
      "outputId": 0,
      "inputModuleId": 20,
      "inputId": 4,
      "color": "#6b7d72"
    },
    {
      "id": 112,
      "outputModuleId": 23,
      "outputId": 1,
      "inputModuleId": 20,
      "inputId": 5,
      "color": "#0c8e15"
    },
    {
      "id": 113,
      "outputModuleId": 23,
      "outputId": 2,
      "inputModuleId": 20,
      "inputId": 6,
      "color": "#d8d1c9"
    },
    {
      "id": 114,
      "outputModuleId": 23,
      "outputId": 3,
      "inputModuleId": 20,
      "inputId": 7,
      "color": "#0986ad"
    },
    {
      "id": 115,
      "outputModuleId": 3,
      "outputId": 1,
      "inputModuleId": 24,
      "inputId": 1,
      "color": "#d8d1c9"
    },
    {
      "id": 119,
      "outputModuleId": 3,
      "outputId": 2,
      "inputModuleId": 24,
      "inputId": 2,
      "color": "#d8d1c9"
    },
    {
      "id": 118,
      "outputModuleId": 20,
      "outputId": 10,
      "inputModuleId": 24,
      "inputId": 0,
      "color": "#c2cfb2"
    },
    {
      "id": 124,
      "outputModuleId": 15,
      "outputId": 5,
      "inputModuleId": 24,
      "inputId": 3,
      "color": "#6b7d72"
    },
    {
      "id": 128,
      "outputModuleId": 23,
      "outputId": 4,
      "inputModuleId": 20,
      "inputId": 14,
      "color": "#8db580"
    },
    {
      "id": 131,
      "outputModuleId": 25,
      "outputId": 0,
      "inputModuleId": 12,
      "inputId": 9,
      "color": "#c2cfb2"
    },
    {
      "id": 133,
      "outputModuleId": 23,
      "outputId": 1,
      "inputModuleId": 25,
      "inputId": 1,
      "color": "#6b7d72"
    },
    {
      "id": 134,
      "outputModuleId": 23,
      "outputId": 2,
      "inputModuleId": 25,
      "inputId": 0,
      "color": "#6b7d72"
    },
    {
      "id": 138,
      "outputModuleId": 26,
      "outputId": 0,
      "inputModuleId": 12,
      "inputId": 6,
      "color": "#0c8e15"
    },
    {
      "id": 140,
      "outputModuleId": 24,
      "outputId": 0,
      "inputModuleId": 27,
      "inputId": 9,
      "color": "#c2cfb2"
    },
    {
      "id": 141,
      "outputModuleId": 24,
      "outputId": 0,
      "inputModuleId": 27,
      "inputId": 10,
      "color": "#0c8e15"
    },
    {
      "id": 144,
      "outputModuleId": 23,
      "outputId": 2,
      "inputModuleId": 27,
      "inputId": 0,
      "color": "#c9b70e"
    },
    {
      "id": 145,
      "outputModuleId": 23,
      "outputId": 0,
      "inputModuleId": 27,
      "inputId": 1,
      "color": "#0c8e15"
    },
    {
      "id": 146,
      "outputModuleId": 15,
      "outputId": 10,
      "inputModuleId": 27,
      "inputId": 2,
      "color": "#c91847"
    },
    {
      "id": 147,
      "outputModuleId": 17,
      "outputId": 6,
      "inputModuleId": 27,
      "inputId": 4,
      "color": "#0986ad"
    },
    {
      "id": 148,
      "outputModuleId": 17,
      "outputId": 0,
      "inputModuleId": 27,
      "inputId": 7,
      "color": "#c9b70e"
    },
    {
      "id": 142,
      "outputModuleId": 27,
      "outputId": 0,
      "inputModuleId": 12,
      "inputId": 8,
      "color": "#c91847"
    },
    {
      "id": 143,
      "outputModuleId": 27,
      "outputId": 1,
      "inputModuleId": 12,
      "inputId": 11,
      "color": "#0986ad"
    },
    {
      "id": 151,
      "outputModuleId": 24,
      "outputId": 0,
      "inputModuleId": 2,
      "inputId": 2,
      "color": "#0986ad"
    },
    {
      "id": 154,
      "outputModuleId": 14,
      "outputId": 0,
      "inputModuleId": 28,
      "inputId": 1,
      "color": "#c91847"
    },
    {
      "id": 157,
      "outputModuleId": 20,
      "outputId": 11,
      "inputModuleId": 28,
      "inputId": 0,
      "color": "#0c8e15"
    },
    {
      "id": 160,
      "outputModuleId": 23,
      "outputId": 0,
      "inputModuleId": 28,
      "inputId": 2,
      "color": "#c9b70e"
    },
    {
      "id": 161,
      "outputModuleId": 28,
      "outputId": 0,
      "inputModuleId": 2,
      "inputId": 3,
      "color": "#0c8e15"
    },
    {
      "id": 162,
      "outputModuleId": 27,
      "outputId": 0,
      "inputModuleId": 2,
      "inputId": 4,
      "color": "#c91847"
    },
    {
      "id": 164,
      "outputModuleId": 23,
      "outputId": 3,
      "inputModuleId": 26,
      "inputId": 1,
      "color": "#d8d1c9"
    },
    {
      "id": 165,
      "outputModuleId": 23,
      "outputId": 1,
      "inputModuleId": 26,
      "inputId": 0,
      "color": "#6b7d72"
    },
    {
      "id": 167,
      "outputModuleId": 23,
      "outputId": 5,
      "inputModuleId": 20,
      "inputId": 22,
      "color": "#0c8e15"
    },
    {
      "id": 163,
      "outputModuleId": 25,
      "outputId": 1,
      "inputModuleId": 12,
      "inputId": 0,
      "color": "#0986ad"
    },
    {
      "id": 170,
      "outputModuleId": 25,
      "outputId": 0,
      "inputModuleId": 12,
      "inputId": 12,
      "color": "#0c8e15"
    },
    {
      "id": 171,
      "outputModuleId": 25,
      "outputId": 0,
      "inputModuleId": 12,
      "inputId": 15,
      "color": "#c91847"
    },
    {
      "id": 174,
      "outputModuleId": 25,
      "outputId": 0,
      "inputModuleId": 12,
      "inputId": 18,
      "color": "#0c8e15"
    },
    {
      "id": 175,
      "outputModuleId": 25,
      "outputId": 0,
      "inputModuleId": 12,
      "inputId": 21,
      "color": "#c91847"
    },
    {
      "id": 149,
      "outputModuleId": 28,
      "outputId": 0,
      "inputModuleId": 31,
      "inputId": 6,
      "color": "#0c8e15"
    },
    {
      "id": 177,
      "outputModuleId": 31,
      "outputId": 1,
      "inputModuleId": 12,
      "inputId": 5,
      "color": "#c9b70e"
    },
    {
      "id": 178,
      "outputModuleId": 25,
      "outputId": 0,
      "inputModuleId": 12,
      "inputId": 3,
      "color": "#0c8e15"
    },
    {
      "id": 179,
      "outputModuleId": 29,
      "outputId": 3,
      "inputModuleId": 31,
      "inputId": 0,
      "color": "#c91847"
    },
    {
      "id": 180,
      "outputModuleId": 29,
      "outputId": 1,
      "inputModuleId": 31,
      "inputId": 1,
      "color": "#0986ad"
    },
    {
      "id": 181,
      "outputModuleId": 29,
      "outputId": 7,
      "inputModuleId": 31,
      "inputId": 2,
      "color": "#c9b70e"
    },
    {
      "id": 182,
      "outputModuleId": 29,
      "outputId": 5,
      "inputModuleId": 31,
      "inputId": 3,
      "color": "#0c8e15"
    },
    {
      "id": 183,
      "outputModuleId": 29,
      "outputId": 4,
      "inputModuleId": 31,
      "inputId": 4,
      "color": "#c91847"
    },
    {
      "id": 184,
      "outputModuleId": 28,
      "outputId": 0,
      "inputModuleId": 31,
      "inputId": 5,
      "color": "#0986ad"
    },
    {
      "id": 185,
      "outputModuleId": 31,
      "outputId": 0,
      "inputModuleId": 12,
      "inputId": 20,
      "color": "#c9b70e"
    },
    {
      "id": 168,
      "outputModuleId": 24,
      "outputId": 1,
      "inputModuleId": 32,
      "inputId": 6,
      "color": "#d8d1c9"
    },
    {
      "id": 186,
      "outputModuleId": 32,
      "outputId": 0,
      "inputModuleId": 12,
      "inputId": 14,
      "color": "#0c8e15"
    },
    {
      "id": 169,
      "outputModuleId": 24,
      "outputId": 2,
      "inputModuleId": 32,
      "inputId": 7,
      "color": "#c9b70e"
    },
    {
      "id": 187,
      "outputModuleId": 32,
      "outputId": 1,
      "inputModuleId": 12,
      "inputId": 17,
      "color": "#c91847"
    },
    {
      "id": 188,
      "outputModuleId": 29,
      "outputId": 0,
      "inputModuleId": 32,
      "inputId": 2,
      "color": "#0986ad"
    },
    {
      "id": 189,
      "outputModuleId": 29,
      "outputId": 6,
      "inputModuleId": 32,
      "inputId": 3,
      "color": "#c9b70e"
    },
    {
      "id": 192,
      "outputModuleId": 29,
      "outputId": 4,
      "inputModuleId": 32,
      "inputId": 8,
      "color": "#0986ad"
    },
    {
      "id": 191,
      "outputModuleId": 29,
      "outputId": 2,
      "inputModuleId": 32,
      "inputId": 0,
      "color": "#c91847"
    },
    {
      "id": 190,
      "outputModuleId": 29,
      "outputId": 2,
      "inputModuleId": 32,
      "inputId": 1,
      "color": "#0c8e15"
    },
    {
      "id": 193,
      "outputModuleId": 29,
      "outputId": 3,
      "inputModuleId": 32,
      "inputId": 9,
      "color": "#c9b70e"
    },
    {
      "id": 194,
      "outputModuleId": 17,
      "outputId": 6,
      "inputModuleId": 23,
      "inputId": 2,
      "color": "#d8d1c9"
    },
    {
      "id": 195,
      "outputModuleId": 5,
      "outputId": 0,
      "inputModuleId": 33,
      "inputId": 0,
      "color": "#c9b70e"
    },
    {
      "id": 196,
      "outputModuleId": 33,
      "outputId": 0,
      "inputModuleId": 28,
      "inputId": 7,
      "color": "#c91847"
    },
    {
      "id": 197,
      "outputModuleId": 33,
      "outputId": 0,
      "inputModuleId": 28,
      "inputId": 9,
      "color": "#0986ad"
    },
    {
      "id": 198,
      "outputModuleId": 17,
      "outputId": 7,
      "inputModuleId": 32,
      "inputId": 4,
      "color": "#c9b70e"
    }
  ]
}