{
  "version": "1.1.6",
  "modules": [
    {
      "id": 1,
      "plugin": "Core",
      "version": "1.1.6",
      "model": "AudioInterface",
      "params": [],
      "rightModuleId": 8,
      "data": {
        "audio": {
          "driver": 5,
          "offset": 0,
          "maxChannels": 8,
          "sampleRate": 44100,
          "blockSize": 256
        }
      },
      "pos": [
        57,
        0
      ]
    },
    {
      "id": 2,
      "plugin": "Fundamental",
      "version": "1.4.0",
      "model": "VCMixer",
      "params": [
        {
          "id": 0,
          "value": 1.01899981
        },
        {
          "id": 1,
          "value": 0.657609284
        },
        {
          "id": 2,
          "value": 0.295721471
        },
        {
          "id": 3,
          "value": 0.951765656
        },
        {
          "id": 4,
          "value": 0.410272777
        }
      ],
      "rightModuleId": 7,
      "pos": [
        57,
        1
      ]
    },
    {
      "id": 3,
      "plugin": "Fundamental",
      "version": "1.4.0",
      "model": "VCO",
      "params": [
        {
          "id": 0,
          "value": 0.0
        },
        {
          "id": 1,
          "value": 0.0
        },
        {
          "id": 2,
          "value": -29.6459999
        },
        {
          "id": 3,
          "value": 0.0
        },
        {
          "id": 4,
          "value": 0.0
        },
        {
          "id": 5,
          "value": 0.5
        },
        {
          "id": 6,
          "value": 0.0
        }
      ],
      "leftModuleId": 140,
      "rightModuleId": 4,
      "pos": [
        10,
        1
      ]
    },
    {
      "id": 4,
      "plugin": "Fundamental",
      "version": "1.4.0",
      "model": "VCF",
      "params": [
        {
          "id": 0,
          "value": 0.580500007
        },
        {
          "id": 1,
          "value": 0.5
        },
        {
          "id": 2,
          "value": 0.234000027
        },
        {
          "id": 3,
          "value": 1.0
        },
        {
          "id": 4,
          "value": 0.0
        }
      ],
      "leftModuleId": 3,
      "rightModuleId": 6,
      "pos": [
        20,
        1
      ]
    },
    {
      "id": 5,
      "plugin": "Core",
      "version": "1.1.6",
      "model": "MIDIToCVInterface",
      "params": [],
      "rightModuleId": 130,
      "data": {
        "channels": 1,
        "polyMode": 0,
        "clockDivision": 24,
        "lastPitch": 8192,
        "lastMod": 0,
        "midi": {
          "driver": 1,
          "channel": -1
        }
      },
      "pos": [
        2,
        0
      ]
    },
    {
      "id": 6,
      "plugin": "Fundamental",
      "version": "1.4.0",
      "model": "ADSR",
      "params": [
        {
          "id": 0,
          "value": 0.544500113
        },
        {
          "id": 1,
          "value": 0.270500481
        },
        {
          "id": 2,
          "value": 0.5
        },
        {
          "id": 3,
          "value": 0.672500074
        }
      ],
      "leftModuleId": 4,
      "rightModuleId": 129,
      "pos": [
        28,
        1
      ]
    },
    {
      "id": 7,
      "plugin": "Fundamental",
      "version": "1.4.0",
      "model": "Scope",
      "params": [
        {
          "id": 0,
          "value": 0.0
        },
        {
          "id": 1,
          "value": 0.0
        },
        {
          "id": 2,
          "value": 0.0
        },
        {
          "id": 3,
          "value": 0.0
        },
        {
          "id": 4,
          "value": 14.0
        },
        {
          "id": 5,
          "value": 0.0
        },
        {
          "id": 6,
          "value": 0.0
        },
        {
          "id": 7,
          "value": 0.0
        }
      ],
      "leftModuleId": 2,
      "rightModuleId": 132,
      "data": {
        "lissajous": 0,
        "external": 0
      },
      "pos": [
        67,
        1
      ]
    },
    {
      "id": 8,
      "plugin": "Core",
      "version": "1.1.6",
      "model": "Notes",
      "params": [],
      "leftModuleId": 1,
      "text": "Demo patch instructions:\n\n1. Choose an audio driver and device in the AUDIO-8 module.\n\n2. Use the QWERTY and ZXCVB rows of your keyboard to generate MIDI notes, which are converted to 1V/oct and GATE signals.\n\n3. Drag knobs up/down. Hold Ctrl (Cmd on Mac) while dragging to fine-tune. Right-click knobs to edit, or double-click to initialize.\n\n4. Drag ports to create and move cables. Stack multiple cables on outputs by holding Ctrl (Cmd on Mac) and dragging from an output.\n\n5. Right-click on an empty rack space to add new modules.",
      "pos": [
        67,
        0
      ]
    },
    {
      "id": 127,
      "plugin": "AudibleInstruments",
      "version": "1.2.0",
      "model": "Tides2",
      "params": [
        {
          "id": 0,
          "value": 0.0
        },
        {
          "id": 1,
          "value": 0.0
        },
        {
          "id": 2,
          "value": 0.0
        },
        {
          "id": 3,
          "value": 17.8560009
        },
        {
          "id": 4,
          "value": 0.785000026
        },
        {
          "id": 5,
          "value": 0.5
        },
        {
          "id": 6,
          "value": 0.25999999
        },
        {
          "id": 7,
          "value": 0.5
        },
        {
          "id": 8,
          "value": 0.0
        },
        {
          "id": 9,
          "value": 0.0
        },
        {
          "id": 10,
          "value": 0.0
        },
        {
          "id": 11,
          "value": 0.0
        },
        {
          "id": 12,
          "value": 0.0
        }
      ],
      "leftModuleId": 131,
      "rightModuleId": 141,
      "data": {
        "range": 1,
        "output": 2,
        "ramp": 1
      },
      "pos": [
        33,
        0
      ]
    },
    {
      "id": 128,
      "plugin": "Fundamental",
      "version": "1.4.0",
      "model": "Delay",
      "params": [
        {
          "id": 0,
          "value": 0.707000077
        },
        {
          "id": 1,
          "value": 0.279500008
        },
        {
          "id": 2,
          "value": 0.675499976
        },
        {
          "id": 3,
          "value": 1.0
        }
      ],
      "leftModuleId": 129,
      "pos": [
        44,
        1
      ]
    },
    {
      "id": 129,
      "plugin": "Fundamental",
      "version": "1.4.0",
      "model": "Delay",
      "params": [
        {
          "id": 0,
          "value": 0.590000033
        },
        {
          "id": 1,
          "value": 0.576499999
        },
        {
          "id": 2,
          "value": 0.597500026
        },
        {
          "id": 3,
          "value": 0.371000022
        }
      ],
      "leftModuleId": 6,
      "rightModuleId": 128,
      "pos": [
        36,
        1
      ]
    },
    {
      "id": 130,
      "plugin": "Geodesics",
      "version": "1.1.1",
      "model": "Energy",
      "params": [
        {
          "id": 0,
          "value": 0.0
        },
        {
          "id": 1,
          "value": 0.0
        },
        {
          "id": 2,
          "value": 0.0
        },
        {
          "id": 3,
          "value": 0.0
        },
        {
          "id": 4,
          "value": 0.0
        },
        {
          "id": 5,
          "value": -0.558000088
        },
        {
          "id": 6,
          "value": -0.405000031
        },
        {
          "id": 7,
          "value": 0.148499995
        },
        {
          "id": 8,
          "value": 0.257999986
        },
        {
          "id": 9,
          "value": 0.0
        }
      ],
      "leftModuleId": 5,
      "rightModuleId": 131,
      "data": {
        "panelTheme": 0,
        "oscM_phase": 2264985136,
        "oscC_phase": 1493209904,
        "osc1M_phase": 0,
        "osc1C_phase": 0,
        "osc2M_phase": 0,
        "osc2C_phase": 0,
        "osc3M_phase": 0,
        "osc3C_phase": 0,
        "osc4M_phase": 0,
        "osc4C_phase": 0,
        "osc5M_phase": 0,
        "osc5C_phase": 0,
        "osc6M_phase": 0,
        "osc6C_phase": 0,
        "osc7M_phase": 0,
        "osc7C_phase": 0,
        "osc8M_phase": 0,
        "osc8C_phase": 0,
        "osc9M_phase": 0,
        "osc9C_phase": 0,
        "osc10M_phase": 0,
        "osc10C_phase": 0,
        "osc11M_phase": 0,
        "osc11C_phase": 0,
        "osc12M_phase": 0,
        "osc12C_phase": 0,
        "osc13M_phase": 0,
        "osc13C_phase": 0,
        "osc14M_phase": 0,
        "osc14C_phase": 0,
        "osc15M_phase": 0,
        "osc15C_phase": 0,
        "routing": 0,
        "planck0": 2,
        "planck1": 1,
        "modtype0": 1,
        "modtype1": 1,
        "cross": 1
      },
      "pos": [
        10,
        0
      ]
    },
    {
      "id": 131,
      "plugin": "Autinn",
      "version": "1.0.0",
      "model": "Bass",
      "params": [
        {
          "id": 0,
          "value": 0.606999874
        },
        {
          "id": 1,
          "value": 0.361000061
        },
        {
          "id": 2,
          "value": 0.919375122
        },
        {
          "id": 3,
          "value": 0.575624943
        },
        {
          "id": 4,
          "value": 0.614000082
        },
        {
          "id": 5,
          "value": 0.0783000067
        },
        {
          "id": 6,
          "value": 0.0738750026
        },
        {
          "id": 7,
          "value": 0.0653399974
        },
        {
          "id": 8,
          "value": 0.0471000001
        },
        {
          "id": 9,
          "value": 0.0
        }
      ],
      "leftModuleId": 130,
      "rightModuleId": 127,
      "data": {
        "gateInput": false,
        "Gcomp": 1.0
      },
      "pos": [
        17,
        0
      ]
    },
    {
      "id": 132,
      "plugin": "Fundamental",
      "version": "1.4.0",
      "model": "Scope",
      "params": [
        {
          "id": 0,
          "value": 0.0
        },
        {
          "id": 1,
          "value": 0.0
        },
        {
          "id": 2,
          "value": 0.0
        },
        {
          "id": 3,
          "value": 0.0
        },
        {
          "id": 4,
          "value": 14.0
        },
        {
          "id": 5,
          "value": 0.0
        },
        {
          "id": 6,
          "value": 0.0
        },
        {
          "id": 7,
          "value": 0.0
        }
      ],
      "leftModuleId": 7,
      "data": {
        "lissajous": 0,
        "external": 0
      },
      "pos": [
        80,
        1
      ]
    },
    {
      "id": 133,
      "plugin": "AudibleInstruments",
      "version": "1.2.0",
      "model": "Braids",
      "params": [
        {
          "id": 0,
          "value": 0.0
        },
        {
          "id": 1,
          "value": -1.0
        },
        {
          "id": 2,
          "value": 0.0
        },
        {
          "id": 3,
          "value": 0.5
        },
        {
          "id": 4,
          "value": 0.0
        },
        {
          "id": 5,
          "value": 0.5
        },
        {
          "id": 6,
          "value": 0.523500204
        }
      ],
      "rightModuleId": 134,
      "data": {
        "settings": [
          24,
          0,
          0,
          0,
          0,
          0,
          0,
          0,
          0,
          0,
          0,
          0,
          0,
          0,
          0,
          0,
          0,
          0,
          0,
          0
        ],
        "lowCpu": false
      },
      "pos": [
        10,
        2
      ]
    },
    {
      "id": 134,
      "plugin": "Bogaudio",
      "version": "1.1.31",
      "model": "Bogaudio-LVCF",
      "params": [
        {
          "id": 0,
          "value": 0.166500017
        },
        {
          "id": 1,
          "value": 0.0
        },
        {
          "id": 2,
          "value": 0.115499996
        },
        {
          "id": 3,
          "value": 2.0
        }
      ],
      "leftModuleId": 133,
      "rightModuleId": 136,
      "data": {
        "poles": 4,
        "bandwidthMode": "pitched"
      },
      "pos": [
        26,
        2
      ]
    },
    {
      "id": 136,
      "plugin": "AudibleInstruments",
      "version": "1.2.0",
      "model": "Tides2",
      "params": [
        {
          "id": 0,
          "value": 0.0
        },
        {
          "id": 1,
          "value": 0.0
        },
        {
          "id": 2,
          "value": 0.0
        },
        {
          "id": 3,
          "value": -13.8239985
        },
        {
          "id": 4,
          "value": 0.785000026
        },
        {
          "id": 5,
          "value": 0.5
        },
        {
          "id": 6,
          "value": 0.25999999
        },
        {
          "id": 7,
          "value": 0.5
        },
        {
          "id": 8,
          "value": 0.0
        },
        {
          "id": 9,
          "value": 0.0
        },
        {
          "id": 10,
          "value": 0.0
        },
        {
          "id": 11,
          "value": 0.0
        },
        {
          "id": 12,
          "value": 0.0
        }
      ],
      "leftModuleId": 134,
      "rightModuleId": 137,
      "data": {
        "range": 1,
        "output": 3,
        "ramp": 1
      },
      "pos": [
        29,
        2
      ]
    },
    {
      "id": 137,
      "plugin": "CountModula",
      "version": "1.10.0",
      "model": "SequencerChannel16",
      "params": [
        {
          "id": 0,
          "value": 2.0
        },
        {
          "id": 1,
          "value": 2.0
        },
        {
          "id": 2,
          "value": 2.0
        },
        {
          "id": 3,
          "value": 2.0
        },
        {
          "id": 4,
          "value": 2.0
        },
        {
          "id": 5,
          "value": 2.0
        },
        {
          "id": 6,
          "value": 2.0
        },
        {
          "id": 7,
          "value": 2.0
        },
        {
          "id": 8,
          "value": 2.0
        },
        {
          "id": 9,
          "value": 2.0
        },
        {
          "id": 10,
          "value": 2.0
        },
        {
          "id": 11,
          "value": 2.0
        },
        {
          "id": 12,
          "value": 2.0
        },
        {
          "id": 13,
          "value": 2.0
        },
        {
          "id": 14,
          "value": 2.0
        },
        {
          "id": 15,
          "value": 2.0
        },
        {
          "id": 16,
          "value": 0.205499992
        },
        {
          "id": 17,
          "value": 0.0
        },
        {
          "id": 18,
          "value": 0.0
        },
        {
          "id": 19,
          "value": 0.0
        },
        {
          "id": 20,
          "value": 0.0
        },
        {
          "id": 21,
          "value": 0.0
        },
        {
          "id": 22,
          "value": 0.0
        },
        {
          "id": 23,
          "value": 0.0
        },
        {
          "id": 24,
          "value": 0.0
        },
        {
          "id": 25,
          "value": 0.0
        },
        {
          "id": 26,
          "value": 0.0
        },
        {
          "id": 27,
          "value": 0.0
        },
        {
          "id": 28,
          "value": 0.0
        },
        {
          "id": 29,
          "value": 0.0
        },
        {
          "id": 30,
          "value": 0.0
        },
        {
          "id": 31,
          "value": 0.0
        },
        {
          "id": 32,
          "value": 8.0
        },
        {
          "id": 33,
          "value": 0.0
        }
      ],
      "leftModuleId": 136,
      "rightModuleId": 138,
      "data": {
        "moduleVersion": 1,
        "channel": 0,
        "theme": 0
      },
      "pos": [
        43,
        2
      ]
    },
    {
      "id": 138,
      "plugin": "CountModula",
      "version": "1.10.0",
      "model": "Sequencer16",
      "params": [
        {
          "id": 0,
          "value": 2.0
        },
        {
          "id": 1,
          "value": 2.0
        },
        {
          "id": 2,
          "value": 2.0
        },
        {
          "id": 3,
          "value": 2.0
        },
        {
          "id": 4,
          "value": 2.0
        },
        {
          "id": 5,
          "value": 2.0
        },
        {
          "id": 6,
          "value": 2.0
        },
        {
          "id": 7,
          "value": 2.0
        },
        {
          "id": 8,
          "value": 2.0
        },
        {
          "id": 9,
          "value": 2.0
        },
        {
          "id": 10,
          "value": 2.0
        },
        {
          "id": 11,
          "value": 2.0
        },
        {
          "id": 12,
          "value": 2.0
        },
        {
          "id": 13,
          "value": 2.0
        },
        {
          "id": 14,
          "value": 2.0
        },
        {
          "id": 15,
          "value": 2.0
        },
        {
          "id": 16,
          "value": 0.337499976
        },
        {
          "id": 17,
          "value": 0.220499977
        },
        {
          "id": 18,
          "value": 0.440999985
        },
        {
          "id": 19,
          "value": 0.306000024
        },
        {
          "id": 20,
          "value": 0.211500019
        },
        {
          "id": 21,
          "value": 0.238499999
        },
        {
          "id": 22,
          "value": 0.223500013
        },
        {
          "id": 23,
          "value": 0.216000006
        },
        {
          "id": 24,
          "value": 0.0
        },
        {
          "id": 25,
          "value": 0.0
        },
        {
          "id": 26,
          "value": 0.32250002
        },
        {
          "id": 27,
          "value": 0.0
        },
        {
          "id": 28,
          "value": 0.0
        },
        {
          "id": 29,
          "value": 0.0
        },
        {
          "id": 30,
          "value": 0.182999998
        },
        {
          "id": 31,
          "value": 0.161999986
        },
        {
          "id": 32,
          "value": 16.0
        },
        {
          "id": 33,
          "value": 0.0
        },
        {
          "id": 34,
          "value": 0.0
        },
        {
          "id": 35,
          "value": 8.0
        },
        {
          "id": 36,
          "value": 0.0
        }
      ],
      "leftModuleId": 137,
      "data": {
        "moduleVersion": 1,
        "currentStep": 10,
        "direction": 0,
        "clockState": false,
        "runState": true,
        "theme": 0
      },
      "pos": [
        63,
        2
      ]
    },
    {
      "id": 140,
      "plugin": "ImpromptuModular",
      "version": "1.1.6",
      "model": "Clocked-Clkd",
      "params": [
        {
          "id": 0,
          "value": 0.0
        },
        {
          "id": 1,
          "value": -7.0
        },
        {
          "id": 2,
          "value": 13.0
        },
        {
          "id": 3,
          "value": 120.0
        },
        {
          "id": 4,
          "value": 0.0
        },
        {
          "id": 5,
          "value": 0.0
        },
        {
          "id": 6,
          "value": 0.0
        },
        {
          "id": 7,
          "value": 0.0
        },
        {
          "id": 8,
          "value": 0.0
        },
        {
          "id": 9,
          "value": 0.0
        }
      ],
      "rightModuleId": 3,
      "data": {
        "panelTheme": 0,
        "running": true,
        "bpmDetectionMode": false,
        "resetOnStartStop": 0,
        "ppqn": 4,
        "resetClockOutputsHigh": true,
        "momentaryRunInput": true,
        "displayIndex": 2,
        "trigOuts": [
          false,
          false,
          false,
          false
        ]
      },
      "pos": [
        0,
        1
      ]
    },
    {
      "id": 141,
      "plugin": "Fundamental",
      "version": "1.4.0",
      "model": "Delay",
      "params": [
        {
          "id": 0,
          "value": 0.707000077
        },
        {
          "id": 1,
          "value": 0.279500008
        },
        {
          "id": 2,
          "value": 0.675499976
        },
        {
          "id": 3,
          "value": 1.0
        }
      ],
      "leftModuleId": 127,
      "pos": [
        47,
        0
      ]
    },
    {
      "id": 142,
      "plugin": "Bogaudio",
      "version": "1.1.31",
      "model": "Bogaudio-VCO",
      "params": [
        {
          "id": 0,
          "value": -0.809999883
        },
        {
          "id": 1,
          "value": 0.0
        },
        {
          "id": 2,
          "value": 0.0
        },
        {
          "id": 3,
          "value": 0.0
        },
        {
          "id": 4,
          "value": 0.0
        },
        {
          "id": 5,
          "value": 1.0
        },
        {
          "id": 6,
          "value": 0.0
        }
      ],
      "data": {
        "poly_input": 0
      },
      "pos": [
        10,
        3
      ]
    },
    {
      "id": 143,
      "plugin": "Bogaudio",
      "version": "1.1.31",
      "model": "Bogaudio-LVCF",
      "params": [
        {
          "id": 0,
          "value": 0.217500016
        },
        {
          "id": 1,
          "value": -0.0930000097
        },
        {
          "id": 2,
          "value": 0.256499946
        },
        {
          "id": 3,
          "value": 2.0
        }
      ],
      "data": {
        "poles": 4,
        "bandwidthMode": "pitched"
      },
      "pos": [
        26,
        3
      ]
    },
    {
      "id": 144,
      "plugin": "Fundamental",
      "version": "1.4.0",
      "model": "Delay",
      "params": [
        {
          "id": 0,
          "value": 0.707000077
        },
        {
          "id": 1,
          "value": 0.279500008
        },
        {
          "id": 2,
          "value": 0.675499976
        },
        {
          "id": 3,
          "value": 1.0
        }
      ],
      "pos": [
        43,
        3
      ]
    }
  ],
  "cables": [
    {
      "id": 923,
      "outputModuleId": 3,
      "outputId": 2,
      "inputModuleId": 4,
      "inputId": 3,
      "color": "#0c8e15"
    },
    {
      "id": 924,
      "outputModuleId": 2,
      "outputId": 0,
      "inputModuleId": 1,
      "inputId": 0,
      "color": "#0986ad"
    },
    {
      "id": 925,
      "outputModuleId": 2,
      "outputId": 0,
      "inputModuleId": 1,
      "inputId": 1,
      "color": "#c9b70e"
    },
    {
      "id": 927,
      "outputModuleId": 5,
      "outputId": 1,
      "inputModuleId": 6,
      "inputId": 4,
      "color": "#c9b70e"
    },
    {
      "id": 928,
      "outputModuleId": 6,
      "outputId": 0,
      "inputModuleId": 2,
      "inputId": 5,
      "color": "#0c8e15"
    },
    {
      "id": 930,
      "outputModuleId": 2,
      "outputId": 1,
      "inputModuleId": 7,
      "inputId": 0,
      "color": "#c9b70e"
    },
    {
      "id": 931,
      "outputModuleId": 5,
      "outputId": 6,
      "inputModuleId": 6,
      "inputId": 5,
      "color": "#c91847"
    },
    {
      "id": 926,
      "outputModuleId": 6,
      "outputId": 0,
      "inputModuleId": 4,
      "inputId": 2,
      "color": "#c91847"
    },
    {
      "id": 956,
      "outputModuleId": 5,
      "outputId": 0,
      "inputModuleId": 127,
      "inputId": 2,
      "color": "#0986ad"
    },
    {
      "id": 962,
      "outputModuleId": 127,
      "outputId": 2,
      "inputModuleId": 3,
      "inputId": 0,
      "color": "#c91847"
    },
    {
      "id": 963,
      "outputModuleId": 127,
      "outputId": 0,
      "inputModuleId": 127,
      "inputId": 5,
      "color": "#0986ad"
    },
    {
      "id": 965,
      "outputModuleId": 5,
      "outputId": 0,
      "inputModuleId": 127,
      "inputId": 1,
      "color": "#0c8e15"
    },
    {
      "id": 929,
      "outputModuleId": 4,
      "outputId": 0,
      "inputModuleId": 128,
      "inputId": 4,
      "color": "#0986ad"
    },
    {
      "id": 966,
      "outputModuleId": 128,
      "outputId": 0,
      "inputModuleId": 129,
      "inputId": 4,
      "color": "#c91847"
    },
    {
      "id": 967,
      "outputModuleId": 129,
      "outputId": 0,
      "inputModuleId": 2,
      "inputId": 1,
      "color": "#0986ad"
    },
    {
      "id": 968,
      "outputModuleId": 127,
      "outputId": 1,
      "inputModuleId": 130,
      "inputId": 2,
      "color": "#c9b70e"
    },
    {
      "id": 971,
      "outputModuleId": 5,
      "outputId": 6,
      "inputModuleId": 131,
      "inputId": 0,
      "color": "#c9b70e"
    },
    {
      "id": 972,
      "outputModuleId": 130,
      "outputId": 0,
      "inputModuleId": 131,
      "inputId": 2,
      "color": "#0c8e15"
    },
    {
      "id": 974,
      "outputModuleId": 6,
      "outputId": 0,
      "inputModuleId": 2,
      "inputId": 6,
      "color": "#0986ad"
    },
    {
      "id": 976,
      "outputModuleId": 2,
      "outputId": 2,
      "inputModuleId": 7,
      "inputId": 1,
      "color": "#0c8e15"
    },
    {
      "id": 975,
      "outputModuleId": 127,
      "outputId": 3,
      "inputModuleId": 131,
      "inputId": 6,
      "color": "#c9b70e"
    },
    {
      "id": 977,
      "outputModuleId": 2,
      "outputId": 3,
      "inputModuleId": 132,
      "inputId": 0,
      "color": "#c91847"
    },
    {
      "id": 978,
      "outputModuleId": 2,
      "outputId": 4,
      "inputModuleId": 132,
      "inputId": 1,
      "color": "#0986ad"
    },
    {
      "id": 980,
      "outputModuleId": 136,
      "outputId": 1,
      "inputModuleId": 133,
      "inputId": 1,
      "color": "#c91847"
    },
    {
      "id": 982,
      "outputModuleId": 133,
      "outputId": 0,
      "inputModuleId": 134,
      "inputId": 0,
      "color": "#c9b70e"
    },
    {
      "id": 983,
      "outputModuleId": 5,
      "outputId": 0,
      "inputModuleId": 134,
      "inputId": 1,
      "color": "#0c8e15"
    },
    {
      "id": 984,
      "outputModuleId": 134,
      "outputId": 0,
      "inputModuleId": 2,
      "inputId": 3,
      "color": "#c91847"
    },
    {
      "id": 979,
      "outputModuleId": 138,
      "outputId": 3,
      "inputModuleId": 136,
      "inputId": 2,
      "color": "#0c8e15"
    },
    {
      "id": 990,
      "outputModuleId": 140,
      "outputId": 1,
      "inputModuleId": 138,
      "inputId": 1,
      "color": "#c9b70e"
    },
    {
      "id": 993,
      "outputModuleId": 6,
      "outputId": 0,
      "inputModuleId": 2,
      "inputId": 7,
      "color": "#c9b70e"
    },
    {
      "id": 994,
      "outputModuleId": 140,
      "outputId": 2,
      "inputModuleId": 127,
      "inputId": 7,
      "color": "#0c8e15"
    },
    {
      "id": 995,
      "outputModuleId": 140,
      "outputId": 3,
      "inputModuleId": 136,
      "inputId": 7,
      "color": "#c91847"
    },
    {
      "id": 996,
      "outputModuleId": 136,
      "outputId": 3,
      "inputModuleId": 130,
      "inputId": 5,
      "color": "#0986ad"
    },
    {
      "id": 997,
      "outputModuleId": 136,
      "outputId": 0,
      "inputModuleId": 130,
      "inputId": 4,
      "color": "#0c8e15"
    },
    {
      "id": 973,
      "outputModuleId": 131,
      "outputId": 0,
      "inputModuleId": 141,
      "inputId": 4,
      "color": "#c91847"
    },
    {
      "id": 998,
      "outputModuleId": 141,
      "outputId": 0,
      "inputModuleId": 2,
      "inputId": 2,
      "color": "#c91847"
    },
    {
      "id": 999,
      "outputModuleId": 136,
      "outputId": 2,
      "inputModuleId": 142,
      "inputId": 2,
      "color": "#0986ad"
    },
    {
      "id": 1000,
      "outputModuleId": 5,
      "outputId": 0,
      "inputModuleId": 142,
      "inputId": 0,
      "color": "#c9b70e"
    },
    {
      "id": 1001,
      "outputModuleId": 142,
      "outputId": 1,
      "inputModuleId": 143,
      "inputId": 0,
      "color": "#c91847"
    },
    {
      "id": 1003,
      "outputModuleId": 6,
      "outputId": 0,
      "inputModuleId": 2,
      "inputId": 8,
      "color": "#c9b70e"
    },
    {
      "id": 1002,
      "outputModuleId": 143,
      "outputId": 0,
      "inputModuleId": 144,
      "inputId": 4,
      "color": "#0986ad"
    },
    {
      "id": 1005,
      "outputModuleId": 144,
      "outputId": 0,
      "inputModuleId": 2,
      "inputId": 4,
      "color": "#c91847"
    },
    {
      "id": 1007,
      "outputModuleId": 5,
      "outputId": 5,
      "inputModuleId": 6,
      "inputId": 1,
      "color": "#0986ad"
    }
  ]
}