{
  "version": "1.0.0",
  "modules": [
    {
      "plugin": "Core",
      "version": "1.0.0",
      "model": "AudioInterface",
      "params": [],
      "data": {
        "audio": {
          "driver": 5,
          "deviceName": "Apple Inc.: Built-in Output",
          "offset": 0,
          "maxChannels": 8,
          "sampleRate": 44100,
          "blockSize": 256
        }
      },
      "leftModuleId": 2,
      "rightModuleId": 28,
      "id": 1,
      "pos": [
        92,
        1
      ]
    },
    {
      "plugin": "Fundamental",
      "version": "1.0.1",
      "model": "VCMixer",
      "params": [
        {
          "id": 0,
          "value": 0.418000907
        },
        {
          "id": 1,
          "value": 0.92065382
        },
        {
          "id": 2,
          "value": 0.733977199
        },
        {
          "id": 3,
          "value": 1.30249095
        },
        {
          "id": 4,
          "value": 1.02247632
        }
      ],
      "leftModuleId": 35,
      "rightModuleId": 1,
      "id": 2,
      "pos": [
        82,
        1
      ]
    },
    {
      "plugin": "Core",
      "version": "1.0.0",
      "model": "MIDIToCVInterface",
      "params": [],
      "data": {
        "channels": 1,
        "polyMode": 0,
        "clockDivision": 24,
        "lastPitch": 8192,
        "lastMod": 0,
        "midi": {
          "driver": -11,
          "deviceName": "QWERTY keyboard (US)",
          "channel": -1
        }
      },
      "rightModuleId": 38,
      "id": 5,
      "pos": [
        0,
        1
      ]
    },
    {
      "plugin": "Fundamental",
      "version": "1.0.1",
      "model": "ADSR",
      "params": [
        {
          "id": 0,
          "value": 0.258000046
        },
        {
          "id": 1,
          "value": 0.329000443
        },
        {
          "id": 2,
          "value": 0.5
        },
        {
          "id": 3,
          "value": 0.759500086
        }
      ],
      "leftModuleId": 32,
      "rightModuleId": 42,
      "id": 6,
      "pos": [
        32,
        1
      ]
    },
    {
      "plugin": "Fundamental",
      "version": "1.0.1",
      "model": "Scope",
      "params": [
        {
          "id": 0,
          "value": 0.0
        },
        {
          "id": 1,
          "value": 0.0
        },
        {
          "id": 2,
          "value": 0.0
        },
        {
          "id": 3,
          "value": 0.0
        },
        {
          "id": 4,
          "value": 8.98999882
        },
        {
          "id": 5,
          "value": 0.0
        },
        {
          "id": 6,
          "value": 0.0
        },
        {
          "id": 7,
          "value": 0.0
        }
      ],
      "data": {
        "lissajous": 0,
        "external": 0
      },
      "leftModuleId": 42,
      "rightModuleId": 35,
      "id": 7,
      "pos": [
        56,
        1
      ]
    },
    {
      "plugin": "JW-Modules",
      "version": "1.0.2",
      "model": "SimpleClock",
      "params": [
        {
          "id": 0,
          "value": 1.0
        },
        {
          "id": 1,
          "value": 0.0
        },
        {
          "id": 2,
          "value": -2.0
        },
        {
          "id": 3,
          "value": 0.0
        }
      ],
      "data": {
        "running": true
      },
      "leftModuleId": 1,
      "rightModuleId": 31,
      "id": 28,
      "pos": [
        102,
        1
      ]
    },
    {
      "plugin": "AudibleInstruments",
      "version": "1.0.0",
      "model": "Tides2",
      "params": [
        {
          "id": 0,
          "value": 0.0
        },
        {
          "id": 1,
          "value": 0.0
        },
        {
          "id": 2,
          "value": 0.0
        },
        {
          "id": 3,
          "value": 12.5760279
        },
        {
          "id": 4,
          "value": 0.104000345
        },
        {
          "id": 5,
          "value": 0.5
        },
        {
          "id": 6,
          "value": 0.5
        },
        {
          "id": 7,
          "value": 0.5
        },
        {
          "id": 8,
          "value": 0.0
        },
        {
          "id": 9,
          "value": 0.0
        },
        {
          "id": 10,
          "value": 0.0
        },
        {
          "id": 11,
          "value": 0.0
        },
        {
          "id": 12,
          "value": 0.0
        }
      ],
      "data": {
        "range": 1,
        "output": 2,
        "ramp": 1
      },
      "rightModuleId": 33,
      "id": 29,
      "pos": [
        15,
        0
      ]
    },
    {
      "plugin": "Core",
      "version": "1.0.0",
      "model": "MIDI-Map",
      "params": [],
      "data": {
        "maps": [
          {
            "cc": -1,
            "moduleId": 27,
            "paramId": 7
          },
          {
            "cc": -1,
            "moduleId": -1,
            "paramId": 0
          }
        ],
        "midi": {
          "driver": -11,
          "deviceName": "QWERTY keyboard (US)",
          "channel": -1
        }
      },
      "leftModuleId": 28,
      "rightModuleId": 43,
      "id": 31,
      "pos": [
        106,
        1
      ]
    },
    {
      "plugin": "Fundamental",
      "version": "1.0.1",
      "model": "ADSR",
      "params": [
        {
          "id": 0,
          "value": 0.258000046
        },
        {
          "id": 1,
          "value": 0.329000443
        },
        {
          "id": 2,
          "value": 0.5
        },
        {
          "id": 3,
          "value": 0.725000024
        }
      ],
      "leftModuleId": 38,
      "rightModuleId": 6,
      "id": 32,
      "pos": [
        24,
        1
      ]
    },
    {
      "plugin": "CharredDesert",
      "version": "1.0.0",
      "model": "Oscar2",
      "params": [
        {
          "id": 0,
          "value": 1.0
        },
        {
          "id": 1,
          "value": 2.0
        },
        {
          "id": 2,
          "value": 0.0655412674
        },
        {
          "id": 3,
          "value": 7.31011486
        },
        {
          "id": 4,
          "value": -1.0
        },
        {
          "id": 5,
          "value": -3.0
        },
        {
          "id": 6,
          "value": 0.684693217
        },
        {
          "id": 7,
          "value": 0.865112662
        },
        {
          "id": 8,
          "value": 1.84514487
        },
        {
          "id": 9,
          "value": 4.16013718
        },
        {
          "id": 10,
          "value": 0.225817859
        },
        {
          "id": 11,
          "value": 1.0
        },
        {
          "id": 12,
          "value": 0.0
        }
      ],
      "leftModuleId": 29,
      "id": 33,
      "pos": [
        29,
        0
      ]
    },
    {
      "plugin": "Fundamental",
      "version": "1.0.1",
      "model": "ADSR",
      "params": [
        {
          "id": 0,
          "value": 0.258000046
        },
        {
          "id": 1,
          "value": 0.329000443
        },
        {
          "id": 2,
          "value": 0.5
        },
        {
          "id": 3,
          "value": 0.638500154
        }
      ],
      "rightModuleId": 36,
      "id": 34,
      "pos": [
        40,
        0
      ]
    },
    {
      "plugin": "Fundamental",
      "version": "1.0.1",
      "model": "Scope",
      "params": [
        {
          "id": 0,
          "value": 0.0
        },
        {
          "id": 1,
          "value": 0.0
        },
        {
          "id": 2,
          "value": 0.0
        },
        {
          "id": 3,
          "value": -0.0900014043
        },
        {
          "id": 4,
          "value": 9.00499916
        },
        {
          "id": 5,
          "value": 0.0
        },
        {
          "id": 6,
          "value": 0.0
        },
        {
          "id": 7,
          "value": 0.0
        }
      ],
      "data": {
        "lissajous": 0,
        "external": 0
      },
      "leftModuleId": 7,
      "rightModuleId": 2,
      "id": 35,
      "pos": [
        69,
        1
      ]
    },
    {
      "plugin": "Befaco",
      "version": "1.0.0",
      "model": "Rampage",
      "params": [
        {
          "id": 0,
          "value": 1.0
        },
        {
          "id": 1,
          "value": 1.0
        },
        {
          "id": 2,
          "value": -0.276298881
        },
        {
          "id": 3,
          "value": -0.792511344
        },
        {
          "id": 4,
          "value": 0.0
        },
        {
          "id": 5,
          "value": 0.0
        },
        {
          "id": 6,
          "value": 0.399000019
        },
        {
          "id": 7,
          "value": 0.422999978
        },
        {
          "id": 8,
          "value": 0.0339997038
        },
        {
          "id": 9,
          "value": 0.287999868
        },
        {
          "id": 10,
          "value": 0.0
        },
        {
          "id": 11,
          "value": 0.0
        },
        {
          "id": 12,
          "value": 0.508917272
        }
      ],
      "leftModuleId": 34,
      "rightModuleId": 37,
      "id": 36,
      "pos": [
        48,
        0
      ]
    },
    {
      "plugin": "BaconMusic",
      "version": "1.0.2",
      "model": "Bitulator",
      "params": [
        {
          "id": 0,
          "value": 0.342999995
        },
        {
          "id": 1,
          "value": 11.6280041
        },
        {
          "id": 2,
          "value": 5.44000006
        },
        {
          "id": 3,
          "value": 1.0
        },
        {
          "id": 4,
          "value": 1.0
        }
      ],
      "leftModuleId": 36,
      "rightModuleId": 39,
      "id": 37,
      "pos": [
        66,
        0
      ]
    },
    {
      "plugin": "AudibleInstruments",
      "version": "1.0.0",
      "model": "Braids",
      "params": [
        {
          "id": 0,
          "value": -0.873763561
        },
        {
          "id": 1,
          "value": -0.31389606
        },
        {
          "id": 2,
          "value": 0.441949606
        },
        {
          "id": 3,
          "value": 0.752333999
        },
        {
          "id": 4,
          "value": -0.31057176
        },
        {
          "id": 5,
          "value": 0.245931983
        },
        {
          "id": 6,
          "value": 0.197722808
        }
      ],
      "data": {
        "settings": [
          9,
          0,
          0,
          0,
          0,
          0,
          1,
          0,
          0,
          0,
          0,
          0,
          0,
          0,
          0,
          0,
          0,
          0,
          0,
          0
        ],
        "lowCpu": true
      },
      "leftModuleId": 5,
      "rightModuleId": 32,
      "id": 38,
      "pos": [
        8,
        1
      ]
    },
    {
      "plugin": "Fundamental",
      "version": "1.0.1",
      "model": "LFO",
      "params": [
        {
          "id": 0,
          "value": 0.0
        },
        {
          "id": 1,
          "value": 1.0
        },
        {
          "id": 2,
          "value": -0.682999074
        },
        {
          "id": 3,
          "value": 0.0
        },
        {
          "id": 4,
          "value": 0.0
        },
        {
          "id": 5,
          "value": 0.0930000246
        },
        {
          "id": 6,
          "value": 0.0
        }
      ],
      "leftModuleId": 37,
      "rightModuleId": 40,
      "id": 39,
      "pos": [
        72,
        0
      ]
    },
    {
      "plugin": "AS",
      "version": "1.0.1",
      "model": "DelayPlusStereoFx",
      "params": [
        {
          "id": 0,
          "value": 1.12404382
        },
        {
          "id": 1,
          "value": 0.730872571
        },
        {
          "id": 2,
          "value": 0.15235579
        },
        {
          "id": 3,
          "value": 1.67223895
        },
        {
          "id": 4,
          "value": 0.734322965
        },
        {
          "id": 5,
          "value": 0.0333291292
        },
        {
          "id": 6,
          "value": 0.0
        },
        {
          "id": 7,
          "value": 1.0
        },
        {
          "id": 8,
          "value": 0.639268994
        },
        {
          "id": 9,
          "value": 0.0
        }
      ],
      "data": {
        "as_FxBypass": [
          false
        ]
      },
      "leftModuleId": 39,
      "rightModuleId": 41,
      "id": 40,
      "pos": [
        82,
        0
      ]
    },
    {
      "plugin": "AS",
      "version": "1.0.1",
      "model": "DelayPlusStereoFx",
      "params": [
        {
          "id": 0,
          "value": 2.86890388
        },
        {
          "id": 1,
          "value": 0.321048856
        },
        {
          "id": 2,
          "value": 0.769832909
        },
        {
          "id": 3,
          "value": 5.59228468
        },
        {
          "id": 4,
          "value": 0.667882204
        },
        {
          "id": 5,
          "value": 0.0360340476
        },
        {
          "id": 6,
          "value": 1.0
        },
        {
          "id": 7,
          "value": 0.0
        },
        {
          "id": 8,
          "value": 0.486235321
        },
        {
          "id": 9,
          "value": 0.0
        }
      ],
      "data": {
        "as_FxBypass": [
          false
        ]
      },
      "leftModuleId": 40,
      "id": 41,
      "pos": [
        94,
        0
      ]
    },
    {
      "plugin": "mscHack",
      "version": "1.0.1",
      "model": "OSC_WaveMorph_3",
      "params": [
        {
          "id": 0,
          "value": 0.672031164
        },
        {
          "id": 1,
          "value": 0.487000048
        },
        {
          "id": 2,
          "value": 0.0377371311
        },
        {
          "id": 3,
          "value": 0.898403645
        },
        {
          "id": 4,
          "value": 4.0
        }
      ],
      "data": {
        "m_GraphData": [
          2188,
          3609,
          6232,
          7963,
          6015,
          3653,
          4601,
          3251,
          5154,
          7838,
          2384,
          4892,
          4798,
          4793,
          9523,
          1260,
          2928,
          5115,
          9061,
          8523,
          7524,
          4728,
          9576,
          3149,
          3422,
          2280,
          3412,
          6077,
          173,
          3924,
          4614,
          3078,
          410,
          5713,
          1971,
          8839,
          9667,
          457,
          3646,
          9143,
          4931,
          2021,
          3963,
          5018,
          3232,
          4811,
          6158,
          7750,
          8697,
          3734,
          9162
        ],
        "m_bSolo": [
          false
        ]
      },
      "leftModuleId": 6,
      "rightModuleId": 7,
      "id": 42,
      "pos": [
        40,
        1
      ]
    },
    {
      "plugin": "Core",
      "version": "1.0.0",
      "model": "Notes",
      "params": [],
      "leftModuleId": 31,
      "text": "qwerty midi - u &&j \nmidi controller to set mixer levels",
      "id": 43,
      "pos": [
        116,
        1
      ]
    }
  ],
  "id": 46,
  "cables": [
    {
      "outputModuleId": 5,
      "outputId": 1,
      "inputModuleId": 6,
      "inputId": 4,
      "color": "#c9b70e"
    },
    {
      "outputModuleId": 6,
      "outputId": 0,
      "inputModuleId": 2,
      "inputId": 5,
      "color": "#0c8e15"
    },
    {
      "outputModuleId": 2,
      "outputId": 1,
      "inputModuleId": 7,
      "inputId": 0,
      "color": "#c9b70e"
    },
    {
      "outputModuleId": 5,
      "outputId": 6,
      "inputModuleId": 6,
      "inputId": 5,
      "color": "#c91847"
    },
    {
      "outputModuleId": 5,
      "outputId": 0,
      "inputModuleId": 29,
      "inputId": 2,
      "color": "#0c8e15"
    },
    {
      "outputModuleId": 28,
      "outputId": 0,
      "inputModuleId": 29,
      "inputId": 7,
      "color": "#c9b70e"
    },
    {
      "outputModuleId": 2,
      "outputId": 2,
      "inputModuleId": 7,
      "inputId": 1,
      "color": "#0c8e15"
    },
    {
      "outputModuleId": 5,
      "outputId": 1,
      "inputModuleId": 32,
      "inputId": 4,
      "color": "#c91847"
    },
    {
      "outputModuleId": 5,
      "outputId": 6,
      "inputModuleId": 32,
      "inputId": 5,
      "color": "#0986ad"
    },
    {
      "outputModuleId": 32,
      "outputId": 0,
      "inputModuleId": 2,
      "inputId": 6,
      "color": "#c9b70e"
    },
    {
      "outputModuleId": 5,
      "outputId": 0,
      "inputModuleId": 33,
      "inputId": 11,
      "color": "#0c8e15"
    },
    {
      "outputModuleId": 33,
      "outputId": 0,
      "inputModuleId": 2,
      "inputId": 3,
      "color": "#c91847"
    },
    {
      "outputModuleId": 34,
      "outputId": 0,
      "inputModuleId": 2,
      "inputId": 7,
      "color": "#0986ad"
    },
    {
      "outputModuleId": 5,
      "outputId": 1,
      "inputModuleId": 34,
      "inputId": 4,
      "color": "#c9b70e"
    },
    {
      "outputModuleId": 5,
      "outputId": 6,
      "inputModuleId": 34,
      "inputId": 5,
      "color": "#0c8e15"
    },
    {
      "outputModuleId": 2,
      "outputId": 3,
      "inputModuleId": 35,
      "inputId": 0,
      "color": "#0986ad"
    },
    {
      "outputModuleId": 5,
      "outputId": 6,
      "inputModuleId": 36,
      "inputId": 2,
      "color": "#c9b70e"
    },
    {
      "outputModuleId": 2,
      "outputId": 4,
      "inputModuleId": 35,
      "inputId": 1,
      "color": "#c9b70e"
    },
    {
      "outputModuleId": 34,
      "outputId": 0,
      "inputModuleId": 2,
      "inputId": 8,
      "color": "#0c8e15"
    },
    {
      "outputModuleId": 37,
      "outputId": 0,
      "inputModuleId": 36,
      "inputId": 0,
      "color": "#0c8e15"
    },
    {
      "outputModuleId": 28,
      "outputId": 2,
      "inputModuleId": 29,
      "inputId": 6,
      "color": "#0986ad"
    },
    {
      "outputModuleId": 5,
      "outputId": 0,
      "inputModuleId": 38,
      "inputId": 1,
      "color": "#c9b70e"
    },
    {
      "outputModuleId": 5,
      "outputId": 1,
      "inputModuleId": 38,
      "inputId": 0,
      "color": "#0c8e15"
    },
    {
      "outputModuleId": 38,
      "outputId": 0,
      "inputModuleId": 2,
      "inputId": 1,
      "color": "#c91847"
    },
    {
      "outputModuleId": 36,
      "outputId": 4,
      "inputModuleId": 38,
      "inputId": 4,
      "color": "#0986ad"
    },
    {
      "outputModuleId": 33,
      "outputId": 0,
      "inputModuleId": 37,
      "inputId": 0,
      "color": "#c9b70e"
    },
    {
      "outputModuleId": 36,
      "outputId": 1,
      "inputModuleId": 29,
      "inputId": 4,
      "color": "#0c8e15"
    },
    {
      "outputModuleId": 29,
      "outputId": 0,
      "inputModuleId": 36,
      "inputId": 1,
      "color": "#0986ad"
    },
    {
      "outputModuleId": 36,
      "outputId": 8,
      "inputModuleId": 2,
      "inputId": 4,
      "color": "#0c8e15"
    },
    {
      "outputModuleId": 36,
      "outputId": 0,
      "inputModuleId": 36,
      "inputId": 7,
      "color": "#c9b70e"
    },
    {
      "outputModuleId": 36,
      "outputId": 3,
      "inputModuleId": 36,
      "inputId": 8,
      "color": "#0c8e15"
    },
    {
      "outputModuleId": 36,
      "outputId": 5,
      "inputModuleId": 36,
      "inputId": 4,
      "color": "#c91847"
    },
    {
      "outputModuleId": 36,
      "outputId": 2,
      "inputModuleId": 36,
      "inputId": 5,
      "color": "#0986ad"
    },
    {
      "outputModuleId": 5,
      "outputId": 6,
      "inputModuleId": 36,
      "inputId": 3,
      "color": "#c91847"
    },
    {
      "outputModuleId": 2,
      "outputId": 0,
      "inputModuleId": 40,
      "inputId": 9,
      "color": "#0986ad"
    },
    {
      "outputModuleId": 2,
      "outputId": 0,
      "inputModuleId": 40,
      "inputId": 10,
      "color": "#c9b70e"
    },
    {
      "outputModuleId": 40,
      "outputId": 2,
      "inputModuleId": 41,
      "inputId": 9,
      "color": "#0986ad"
    },
    {
      "outputModuleId": 40,
      "outputId": 3,
      "inputModuleId": 41,
      "inputId": 10,
      "color": "#c9b70e"
    },
    {
      "outputModuleId": 41,
      "outputId": 3,
      "inputModuleId": 1,
      "inputId": 0,
      "color": "#0c8e15"
    },
    {
      "outputModuleId": 41,
      "outputId": 2,
      "inputModuleId": 1,
      "inputId": 1,
      "color": "#c91847"
    },
    {
      "outputModuleId": 29,
      "outputId": 2,
      "inputModuleId": 36,
      "inputId": 9,
      "color": "#0986ad"
    },
    {
      "outputModuleId": 28,
      "outputId": 0,
      "inputModuleId": 29,
      "inputId": 1,
      "color": "#c9b70e"
    },
    {
      "outputModuleId": 39,
      "outputId": 1,
      "inputModuleId": 33,
      "inputId": 8,
      "color": "#0986ad"
    },
    {
      "outputModuleId": 42,
      "outputId": 0,
      "inputModuleId": 2,
      "inputId": 2,
      "color": "#c9b70e"
    },
    {
      "outputModuleId": 5,
      "outputId": 0,
      "inputModuleId": 42,
      "inputId": 0,
      "color": "#c91847"
    }
  ]
}