{
  "version": "1.1.6",
  "modules": [
    {
      "id": 1,
      "plugin": "Core",
      "version": "1.1.6",
      "model": "AudioInterface",
      "params": [],
      "leftModuleId": 94,
      "rightModuleId": 3,
      "data": {
        "audio": {
          "driver": 5,
          "deviceName": "ma++ ingalls for Cycling '74: System Audio Recorder",
          "offset": 0,
          "maxChannels": 8,
          "sampleRate": 44100,
          "blockSize": 64
        }
      },
      "pos": [
        23,
        0
      ]
    },
    {
      "id": 3,
      "plugin": "Fundamental",
      "version": "1.4.0",
      "model": "VCO",
      "params": [
        {
          "id": 0,
          "value": 1.0
        },
        {
          "id": 1,
          "value": 0.0
        },
        {
          "id": 2,
          "value": -11.3399982
        },
        {
          "id": 3,
          "value": 0.0
        },
        {
          "id": 4,
          "value": 0.126000002
        },
        {
          "id": 5,
          "value": 0.794001102
        },
        {
          "id": 6,
          "value": 0.0615000017
        }
      ],
      "leftModuleId": 1,
      "rightModuleId": 90,
      "pos": [
        33,
        0
      ]
    },
    {
      "id": 4,
      "plugin": "Fundamental",
      "version": "1.4.0",
      "model": "VCF",
      "params": [
        {
          "id": 0,
          "value": 0.191499501
        },
        {
          "id": 1,
          "value": 0.69200021
        },
        {
          "id": 2,
          "value": 0.403500289
        },
        {
          "id": 3,
          "value": 0.715000033
        },
        {
          "id": 4,
          "value": 0.00300000538
        }
      ],
      "leftModuleId": 90,
      "rightModuleId": 12,
      "pos": [
        47,
        0
      ]
    },
    {
      "id": 5,
      "plugin": "Core",
      "version": "1.1.6",
      "model": "MIDIToCVInterface",
      "params": [],
      "leftModuleId": 78,
      "rightModuleId": 25,
      "data": {
        "channels": 1,
        "polyMode": 0,
        "clockDivision": 24,
        "lastPitch": 8192,
        "lastMod": 0,
        "midi": {
          "driver": 1,
          "deviceName": "OP-Z",
          "channel": -1
        }
      },
      "pos": [
        13,
        1
      ]
    },
    {
      "id": 7,
      "plugin": "Fundamental",
      "version": "1.4.0",
      "model": "Scope",
      "params": [
        {
          "id": 0,
          "value": 0.0
        },
        {
          "id": 1,
          "value": 0.0
        },
        {
          "id": 2,
          "value": 0.0
        },
        {
          "id": 3,
          "value": 0.0
        },
        {
          "id": 4,
          "value": 14.0
        },
        {
          "id": 5,
          "value": 0.0
        },
        {
          "id": 6,
          "value": 0.0
        },
        {
          "id": 7,
          "value": 0.0
        }
      ],
      "rightModuleId": 94,
      "data": {
        "lissajous": 0,
        "external": 0
      },
      "pos": [
        0,
        0
      ]
    },
    {
      "id": 12,
      "plugin": "Befaco",
      "version": "1.0.1",
      "model": "Rampage",
      "params": [
        {
          "id": 0,
          "value": 2.0
        },
        {
          "id": 1,
          "value": 1.0
        },
        {
          "id": 2,
          "value": -0.450000197
        },
        {
          "id": 3,
          "value": 0.330000013
        },
        {
          "id": 4,
          "value": 0.0
        },
        {
          "id": 5,
          "value": 0.0
        },
        {
          "id": 6,
          "value": 0.431999654
        },
        {
          "id": 7,
          "value": 0.381000429
        },
        {
          "id": 8,
          "value": 0.189999834
        },
        {
          "id": 9,
          "value": 0.219999894
        },
        {
          "id": 10,
          "value": 1.0
        },
        {
          "id": 11,
          "value": 1.0
        },
        {
          "id": 12,
          "value": 0.5
        }
      ],
      "leftModuleId": 4,
      "rightModuleId": 19,
      "pos": [
        55,
        0
      ]
    },
    {
      "id": 14,
      "plugin": "AudibleInstruments",
      "version": "1.0.2",
      "model": "Kinks",
      "params": [],
      "leftModuleId": 18,
      "rightModuleId": 15,
      "pos": [
        107,
        0
      ]
    },
    {
      "id": 15,
      "plugin": "AudibleInstruments",
      "version": "1.0.2",
      "model": "Kinks",
      "params": [],
      "leftModuleId": 14,
      "rightModuleId": 17,
      "pos": [
        111,
        0
      ]
    },
    {
      "id": 16,
      "plugin": "Befaco",
      "version": "1.0.1",
      "model": "DualAtenuverter",
      "params": [
        {
          "id": 0,
          "value": 0.39500019
        },
        {
          "id": 1,
          "value": 3.30000162
        },
        {
          "id": 2,
          "value": -0.491999805
        },
        {
          "id": 3,
          "value": 3.87000179
        }
      ],
      "leftModuleId": 19,
      "rightModuleId": 105,
      "pos": [
        78,
        0
      ]
    },
    {
      "id": 17,
      "plugin": "AudibleInstruments",
      "version": "1.0.2",
      "model": "Kinks",
      "params": [],
      "leftModuleId": 15,
      "rightModuleId": 120,
      "pos": [
        115,
        0
      ]
    },
    {
      "id": 18,
      "plugin": "AudibleInstruments",
      "version": "1.0.2",
      "model": "Branches",
      "params": [
        {
          "id": 0,
          "value": 0.644001603
        },
        {
          "id": 1,
          "value": 0.5
        },
        {
          "id": 2,
          "value": 0.0
        },
        {
          "id": 3,
          "value": 0.0
        }
      ],
      "leftModuleId": 104,
      "rightModuleId": 14,
      "data": {
        "modes": [
          false,
          false
        ]
      },
      "pos": [
        101,
        0
      ]
    },
    {
      "id": 19,
      "plugin": "Befaco",
      "version": "1.0.1",
      "model": "DualAtenuverter",
      "params": [
        {
          "id": 0,
          "value": 0.0779999718
        },
        {
          "id": 1,
          "value": 5.55000401
        },
        {
          "id": 2,
          "value": -0.245001018
        },
        {
          "id": 3,
          "value": -0.6200068
        }
      ],
      "leftModuleId": 12,
      "rightModuleId": 16,
      "pos": [
        73,
        0
      ]
    },
    {
      "id": 20,
      "plugin": "ML_modules",
      "version": "1.0.5",
      "model": "Quantum",
      "params": [
        {
          "id": 0,
          "value": 0.0
        },
        {
          "id": 1,
          "value": 0.0
        },
        {
          "id": 2,
          "value": 0.0
        },
        {
          "id": 3,
          "value": 0.0
        },
        {
          "id": 4,
          "value": 0.0
        },
        {
          "id": 5,
          "value": 0.0
        },
        {
          "id": 6,
          "value": 0.0
        },
        {
          "id": 7,
          "value": 0.0
        },
        {
          "id": 8,
          "value": 0.0
        },
        {
          "id": 9,
          "value": 0.0
        },
        {
          "id": 10,
          "value": 0.0
        },
        {
          "id": 11,
          "value": 0.0
        }
      ],
      "leftModuleId": 103,
      "rightModuleId": 93,
      "data": {
        "scale": [
          0,
          1,
          1,
          0,
          1,
          0,
          1,
          0,
          1,
          0,
          0,
          1
        ],
        "mode": 1,
        "transpose_select": 1,
        "toggle_mode": 0
      },
      "pos": [
        43,
        2
      ]
    },
    {
      "id": 21,
      "plugin": "ML_modules",
      "version": "1.0.5",
      "model": "SeqSwitch2",
      "params": [
        {
          "id": 0,
          "value": 8.0
        },
        {
          "id": 1,
          "value": 0.0
        },
        {
          "id": 2,
          "value": 0.0
        },
        {
          "id": 3,
          "value": 0.0
        },
        {
          "id": 4,
          "value": 0.0
        },
        {
          "id": 5,
          "value": 0.0
        },
        {
          "id": 6,
          "value": 0.0
        },
        {
          "id": 7,
          "value": 0.0
        },
        {
          "id": 8,
          "value": 0.0
        }
      ],
      "leftModuleId": 24,
      "rightModuleId": 22,
      "data": {
        "outMode": 0,
        "inputRange": 0
      },
      "pos": [
        16,
        2
      ]
    },
    {
      "id": 22,
      "plugin": "ML_modules",
      "version": "1.0.5",
      "model": "SeqSwitch",
      "params": [
        {
          "id": 0,
          "value": 8.0
        },
        {
          "id": 1,
          "value": 0.0
        },
        {
          "id": 2,
          "value": 0.0
        },
        {
          "id": 3,
          "value": 0.0
        },
        {
          "id": 4,
          "value": 0.0
        },
        {
          "id": 5,
          "value": 0.0
        },
        {
          "id": 6,
          "value": 0.0
        },
        {
          "id": 7,
          "value": 0.0
        },
        {
          "id": 8,
          "value": 0.0
        }
      ],
      "leftModuleId": 21,
      "rightModuleId": 91,
      "data": {
        "inputRange": 0
      },
      "pos": [
        24,
        2
      ]
    },
    {
      "id": 23,
      "plugin": "AudibleInstruments",
      "version": "1.0.2",
      "model": "Kinks",
      "params": [],
      "leftModuleId": 26,
      "rightModuleId": 104,
      "pos": [
        93,
        0
      ]
    },
    {
      "id": 24,
      "plugin": "ML_modules",
      "version": "1.0.5",
      "model": "ShiftRegister",
      "params": [
        {
          "id": 0,
          "value": 0.0
        },
        {
          "id": 1,
          "value": 0.0
        },
        {
          "id": 2,
          "value": 0.0
        },
        {
          "id": 3,
          "value": 0.0
        },
        {
          "id": 4,
          "value": 0.0
        },
        {
          "id": 5,
          "value": 0.0
        },
        {
          "id": 6,
          "value": 0.0
        },
        {
          "id": 7,
          "value": 0.0
        },
        {
          "id": 8,
          "value": 0.0
        }
      ],
      "leftModuleId": 107,
      "rightModuleId": 21,
      "pos": [
        12,
        2
      ]
    },
    {
      "id": 25,
      "plugin": "AudibleInstruments",
      "version": "1.0.2",
      "model": "Elements",
      "params": [
        {
          "id": 0,
          "value": 0.355000108
        },
        {
          "id": 1,
          "value": 0.205499932
        },
        {
          "id": 2,
          "value": 0.465000272
        },
        {
          "id": 3,
          "value": 0.313999921
        },
        {
          "id": 4,
          "value": 6.56999969
        },
        {
          "id": 5,
          "value": -0.275999814
        },
        {
          "id": 6,
          "value": 0.0
        },
        {
          "id": 7,
          "value": 0.864000797
        },
        {
          "id": 8,
          "value": 0.401000828
        },
        {
          "id": 9,
          "value": 0.443001479
        },
        {
          "id": 10,
          "value": 0.168500438
        },
        {
          "id": 11,
          "value": 0.5
        },
        {
          "id": 12,
          "value": 0.5
        },
        {
          "id": 13,
          "value": 0.582499981
        },
        {
          "id": 14,
          "value": 0.715999961
        },
        {
          "id": 15,
          "value": 0.181499988
        },
        {
          "id": 16,
          "value": 1.21500266
        },
        {
          "id": 17,
          "value": 0.0
        },
        {
          "id": 18,
          "value": 0.0
        },
        {
          "id": 19,
          "value": 0.0
        },
        {
          "id": 20,
          "value": 0.0
        },
        {
          "id": 21,
          "value": 0.0
        },
        {
          "id": 22,
          "value": 0.0
        },
        {
          "id": 23,
          "value": 0.213000149
        },
        {
          "id": 24,
          "value": 0.0
        },
        {
          "id": 25,
          "value": 0.0
        },
        {
          "id": 26,
          "value": 0.0
        },
        {
          "id": 27,
          "value": 0.0
        }
      ],
      "leftModuleId": 5,
      "rightModuleId": 92,
      "data": {
        "model": 0
      },
      "pos": [
        21,
        1
      ]
    },
    {
      "id": 26,
      "plugin": "Befaco",
      "version": "1.0.1",
      "model": "DualAtenuverter",
      "params": [
        {
          "id": 0,
          "value": -0.0639998615
        },
        {
          "id": 1,
          "value": 2.70001674
        },
        {
          "id": 2,
          "value": 0.228
        },
        {
          "id": 3,
          "value": 1.92000675
        }
      ],
      "leftModuleId": 105,
      "rightModuleId": 23,
      "pos": [
        88,
        0
      ]
    },
    {
      "id": 78,
      "plugin": "Fundamental",
      "version": "1.4.0",
      "model": "Scope",
      "params": [
        {
          "id": 0,
          "value": -0.0
        },
        {
          "id": 1,
          "value": 0.0
        },
        {
          "id": 2,
          "value": 0.0
        },
        {
          "id": 3,
          "value": 0.0
        },
        {
          "id": 4,
          "value": 13.9099874
        },
        {
          "id": 5,
          "value": 0.0
        },
        {
          "id": 6,
          "value": 0.0
        },
        {
          "id": 7,
          "value": 0.0
        }
      ],
      "rightModuleId": 5,
      "data": {
        "lissajous": 0,
        "external": 0
      },
      "pos": [
        0,
        1
      ]
    },
    {
      "id": 90,
      "plugin": "NYSTHI",
      "version": "1.0.11",
      "model": "QuadSimplerSlicerQuantizer",
      "params": [],
      "leftModuleId": 3,
      "rightModuleId": 4,
      "data": {
        "m_param_values0": 16,
        "m_param_values1": 16,
        "m_param_values2": 16,
        "m_param_values3": 16,
        "m_subdivision_mode": 1
      },
      "pos": [
        43,
        0
      ]
    },
    {
      "id": 91,
      "plugin": "TinyTricks",
      "version": "1.5.0",
      "model": "MG1",
      "params": [
        {
          "id": 0,
          "value": 1.0
        },
        {
          "id": 1,
          "value": 0.267998815
        },
        {
          "id": 2,
          "value": -0.213000059
        },
        {
          "id": 3,
          "value": 0.0
        }
      ],
      "leftModuleId": 22,
      "rightModuleId": 103,
      "data": {
        "skin": 0,
        "forcebright": false
      },
      "pos": [
        32,
        2
      ]
    },
    {
      "id": 92,
      "plugin": "Bogaudio",
      "version": "1.1.26",
      "model": "Bogaudio-XCO",
      "params": [
        {
          "id": 0,
          "value": -1.16399944
        },
        {
          "id": 1,
          "value": -0.498997957
        },
        {
          "id": 2,
          "value": 0.0
        },
        {
          "id": 3,
          "value": 0.574500084
        },
        {
          "id": 4,
          "value": 0.0
        },
        {
          "id": 5,
          "value": 0.970000029
        },
        {
          "id": 6,
          "value": -0.795000315
        },
        {
          "id": 7,
          "value": 0.845499873
        },
        {
          "id": 8,
          "value": 0.0
        },
        {
          "id": 9,
          "value": 0.0
        },
        {
          "id": 10,
          "value": 0.626499891
        },
        {
          "id": 11,
          "value": 0.0
        },
        {
          "id": 12,
          "value": 0.0
        },
        {
          "id": 13,
          "value": 0.617499471
        },
        {
          "id": 14,
          "value": 0.0
        },
        {
          "id": 15,
          "value": 0.0
        },
        {
          "id": 16,
          "value": 1.0
        }
      ],
      "leftModuleId": 25,
      "rightModuleId": 102,
      "pos": [
        55,
        1
      ]
    },
    {
      "id": 93,
      "plugin": "AudibleInstruments",
      "version": "1.0.2",
      "model": "Tides2",
      "params": [
        {
          "id": 0,
          "value": 0.0
        },
        {
          "id": 1,
          "value": 0.0
        },
        {
          "id": 2,
          "value": 0.0
        },
        {
          "id": 3,
          "value": -34.7520065
        },
        {
          "id": 4,
          "value": 0.343999714
        },
        {
          "id": 5,
          "value": 0.769999921
        },
        {
          "id": 6,
          "value": 0.5
        },
        {
          "id": 7,
          "value": 0.588499904
        },
        {
          "id": 8,
          "value": 0.0
        },
        {
          "id": 9,
          "value": 0.0
        },
        {
          "id": 10,
          "value": 0.0
        },
        {
          "id": 11,
          "value": 0.0
        },
        {
          "id": 12,
          "value": 0.0
        }
      ],
      "leftModuleId": 20,
      "rightModuleId": 109,
      "data": {
        "range": 2,
        "output": 0,
        "ramp": 2
      },
      "pos": [
        51,
        2
      ]
    },
    {
      "id": 94,
      "plugin": "Core",
      "version": "1.1.6",
      "model": "MIDITriggerToCVInterface",
      "params": [],
      "leftModuleId": 7,
      "rightModuleId": 1,
      "data": {
        "notes": [
          46,
          42,
          38,
          36,
          36,
          45,
          46,
          47,
          40,
          41,
          42,
          43,
          36,
          37,
          38,
          39
        ],
        "velocity": false,
        "midi": {
          "driver": 1,
          "deviceName": "OP-Z",
          "channel": -1
        }
      },
      "pos": [
        13,
        0
      ]
    },
    {
      "id": 98,
      "plugin": "StellareModular",
      "version": "1.0.0",
      "model": "TuringMachine",
      "params": [
        {
          "id": 0,
          "value": 0.456554353
        },
        {
          "id": 1,
          "value": 0.386184961
        },
        {
          "id": 2,
          "value": 0.3159706
        },
        {
          "id": 3,
          "value": 0.33240971
        },
        {
          "id": 4,
          "value": 0.421008289
        },
        {
          "id": 5,
          "value": -0.243816629
        },
        {
          "id": 6,
          "value": 7.0
        },
        {
          "id": 7,
          "value": 0.882553458
        },
        {
          "id": 8,
          "value": 0.0
        },
        {
          "id": 9,
          "value": 0.0
        },
        {
          "id": 10,
          "value": 0.0
        },
        {
          "id": 11,
          "value": 0.0
        },
        {
          "id": 12,
          "value": 0.0
        }
      ],
      "leftModuleId": 102,
      "rightModuleId": 113,
      "data": {
        "pulses_mode": 0
      },
      "pos": [
        91,
        1
      ]
    },
    {
      "id": 102,
      "plugin": "AudibleInstruments",
      "version": "1.0.2",
      "model": "Braids",
      "params": [
        {
          "id": 0,
          "value": 0.0
        },
        {
          "id": 1,
          "value": -1.55599844
        },
        {
          "id": 2,
          "value": -0.40199995
        },
        {
          "id": 3,
          "value": 0.758000016
        },
        {
          "id": 4,
          "value": -0.621000111
        },
        {
          "id": 5,
          "value": 0.157998919
        },
        {
          "id": 6,
          "value": 0.627001226
        }
      ],
      "leftModuleId": 92,
      "rightModuleId": 98,
      "data": {
        "settings": [
          29,
          0,
          0,
          0,
          0,
          0,
          0,
          0,
          0,
          0,
          0,
          0,
          0,
          0,
          0,
          0,
          0,
          0,
          0,
          0
        ],
        "lowCpu": false
      },
      "pos": [
        75,
        1
      ]
    },
    {
      "id": 103,
      "plugin": "ML_modules",
      "version": "1.0.5",
      "model": "Quantum",
      "params": [
        {
          "id": 0,
          "value": 0.0
        },
        {
          "id": 1,
          "value": 0.0
        },
        {
          "id": 2,
          "value": 0.0
        },
        {
          "id": 3,
          "value": 0.0
        },
        {
          "id": 4,
          "value": 0.0
        },
        {
          "id": 5,
          "value": 0.0
        },
        {
          "id": 6,
          "value": 0.0
        },
        {
          "id": 7,
          "value": 0.0
        },
        {
          "id": 8,
          "value": 0.0
        },
        {
          "id": 9,
          "value": 0.0
        },
        {
          "id": 10,
          "value": 0.0
        },
        {
          "id": 11,
          "value": 0.0
        }
      ],
      "leftModuleId": 91,
      "rightModuleId": 20,
      "data": {
        "scale": [
          0,
          1,
          1,
          0,
          1,
          0,
          1,
          0,
          1,
          1,
          0,
          0
        ],
        "mode": 1,
        "transpose_select": 1,
        "toggle_mode": 0
      },
      "pos": [
        35,
        2
      ]
    },
    {
      "id": 104,
      "plugin": "AudibleInstruments",
      "version": "1.0.2",
      "model": "Kinks",
      "params": [],
      "leftModuleId": 23,
      "rightModuleId": 18,
      "pos": [
        97,
        0
      ]
    },
    {
      "id": 105,
      "plugin": "Befaco",
      "version": "1.0.1",
      "model": "DualAtenuverter",
      "params": [
        {
          "id": 0,
          "value": -0.318999767
        },
        {
          "id": 1,
          "value": 3.5100019
        },
        {
          "id": 2,
          "value": -0.491999805
        },
        {
          "id": 3,
          "value": 3.87000179
        }
      ],
      "leftModuleId": 16,
      "rightModuleId": 26,
      "pos": [
        83,
        0
      ]
    },
    {
      "id": 107,
      "plugin": "Valley",
      "version": "1.0.1",
      "model": "Plateau",
      "params": [
        {
          "id": 0,
          "value": 0.791499615
        },
        {
          "id": 1,
          "value": 0.259999692
        },
        {
          "id": 2,
          "value": 0.0
        },
        {
          "id": 3,
          "value": 7.97499371
        },
        {
          "id": 4,
          "value": 10.0
        },
        {
          "id": 5,
          "value": 0.349999815
        },
        {
          "id": 6,
          "value": 2.75498748
        },
        {
          "id": 7,
          "value": 0.348822355
        },
        {
          "id": 8,
          "value": 10.0
        },
        {
          "id": 9,
          "value": 10.0
        },
        {
          "id": 10,
          "value": 0.0
        },
        {
          "id": 11,
          "value": 0.536000133
        },
        {
          "id": 12,
          "value": 2.10800052
        },
        {
          "id": 13,
          "value": 0.0
        },
        {
          "id": 14,
          "value": 0.0
        },
        {
          "id": 15,
          "value": 0.0
        },
        {
          "id": 16,
          "value": 0.0
        },
        {
          "id": 17,
          "value": 0.0
        },
        {
          "id": 18,
          "value": 0.0
        },
        {
          "id": 19,
          "value": 0.0
        },
        {
          "id": 20,
          "value": 0.0
        },
        {
          "id": 21,
          "value": 0.0
        },
        {
          "id": 22,
          "value": 0.0
        },
        {
          "id": 23,
          "value": 0.0
        },
        {
          "id": 24,
          "value": 0.0
        },
        {
          "id": 25,
          "value": 0.0
        },
        {
          "id": 26,
          "value": 0.0
        },
        {
          "id": 27,
          "value": 0.0
        },
        {
          "id": 28,
          "value": 0.0
        },
        {
          "id": 29,
          "value": 0.0
        },
        {
          "id": 30,
          "value": 1.0
        }
      ],
      "rightModuleId": 24,
      "data": {
        "frozen": false,
        "freezeToggle": false,
        "panelStyle": 0,
        "tuned": 0,
        "diffuseInput": 1,
        "preDelayCVSens": 0,
        "inputSensitivity": 0,
        "outputSaturation": 0
      },
      "pos": [
        0,
        2
      ]
    },
    {
      "id": 109,
      "plugin": "FrozenWasteland",
      "version": "1.12.0",
      "model": "LissajousLFO",
      "params": [
        {
          "id": 0,
          "value": 2.74749827
        },
        {
          "id": 1,
          "value": 3.57999849
        },
        {
          "id": 2,
          "value": -0.098999992
        },
        {
          "id": 3,
          "value": 1.75250006
        },
        {
          "id": 4,
          "value": 0.155984387
        },
        {
          "id": 5,
          "value": 0.921999753
        },
        {
          "id": 6,
          "value": 1.0
        },
        {
          "id": 7,
          "value": 0.415999919
        },
        {
          "id": 8,
          "value": 0.564500034
        },
        {
          "id": 9,
          "value": 0.0
        },
        {
          "id": 10,
          "value": -3.14149928
        },
        {
          "id": 11,
          "value": 0.088491112
        },
        {
          "id": 12,
          "value": 0.797499418
        },
        {
          "id": 13,
          "value": 0.837999701
        },
        {
          "id": 14,
          "value": 0.618499994
        },
        {
          "id": 15,
          "value": 0.604999959
        },
        {
          "id": 16,
          "value": 0.0
        },
        {
          "id": 17,
          "value": 0.0
        },
        {
          "id": 18,
          "value": 0.0
        },
        {
          "id": 19,
          "value": 0.0
        },
        {
          "id": 20,
          "value": 0.0
        },
        {
          "id": 21,
          "value": 0.0
        },
        {
          "id": 22,
          "value": 0.0
        },
        {
          "id": 23,
          "value": 0.0
        },
        {
          "id": 24,
          "value": 0.0
        },
        {
          "id": 25,
          "value": 0.0
        },
        {
          "id": 26,
          "value": 0.0
        },
        {
          "id": 27,
          "value": 0.0
        },
        {
          "id": 28,
          "value": 0.0
        },
        {
          "id": 29,
          "value": 0.0
        },
        {
          "id": 30,
          "value": 0.0
        },
        {
          "id": 31,
          "value": 0.0
        }
      ],
      "leftModuleId": 93,
      "rightModuleId": 110,
      "pos": [
        65,
        2
      ]
    },
    {
      "id": 110,
      "plugin": "AudibleInstruments",
      "version": "1.0.2",
      "model": "Tides2",
      "params": [
        {
          "id": 0,
          "value": 0.0
        },
        {
          "id": 1,
          "value": 0.0
        },
        {
          "id": 2,
          "value": 0.0
        },
        {
          "id": 3,
          "value": 6.14400625
        },
        {
          "id": 4,
          "value": 0.343999714
        },
        {
          "id": 5,
          "value": 0.769999921
        },
        {
          "id": 6,
          "value": 0.5
        },
        {
          "id": 7,
          "value": 0.588499904
        },
        {
          "id": 8,
          "value": 0.0
        },
        {
          "id": 9,
          "value": 0.0
        },
        {
          "id": 10,
          "value": 0.0
        },
        {
          "id": 11,
          "value": 0.0
        },
        {
          "id": 12,
          "value": 0.0
        }
      ],
      "leftModuleId": 109,
      "rightModuleId": 114,
      "data": {
        "range": 0,
        "output": 0,
        "ramp": 2
      },
      "pos": [
        82,
        2
      ]
    },
    {
      "id": 113,
      "plugin": "Bogaudio",
      "version": "1.1.26",
      "model": "Bogaudio-Mix8",
      "params": [
        {
          "id": 0,
          "value": 0.711090565
        },
        {
          "id": 1,
          "value": 0.0
        },
        {
          "id": 2,
          "value": 0.0
        },
        {
          "id": 3,
          "value": 0.871590793
        },
        {
          "id": 4,
          "value": 0.0
        },
        {
          "id": 5,
          "value": 0.0
        },
        {
          "id": 6,
          "value": 0.877590716
        },
        {
          "id": 7,
          "value": 0.0
        },
        {
          "id": 8,
          "value": 0.0
        },
        {
          "id": 9,
          "value": 0.70509088
        },
        {
          "id": 10,
          "value": 0.0
        },
        {
          "id": 11,
          "value": 0.0
        },
        {
          "id": 12,
          "value": 0.722500205
        },
        {
          "id": 13,
          "value": 0.0
        },
        {
          "id": 14,
          "value": 0.0
        },
        {
          "id": 15,
          "value": 0.705091298
        },
        {
          "id": 16,
          "value": 0.0
        },
        {
          "id": 17,
          "value": 0.0
        },
        {
          "id": 18,
          "value": 0.909090936
        },
        {
          "id": 19,
          "value": 0.0
        },
        {
          "id": 20,
          "value": 0.0
        },
        {
          "id": 21,
          "value": 0.909090936
        },
        {
          "id": 22,
          "value": 0.0
        },
        {
          "id": 23,
          "value": 0.0
        },
        {
          "id": 24,
          "value": 0.909090936
        },
        {
          "id": 25,
          "value": 0.0
        }
      ],
      "leftModuleId": 98,
      "data": {
        "poly_channel_offset": -1
      },
      "pos": [
        109,
        1
      ]
    },
    {
      "id": 114,
      "plugin": "ML_modules",
      "version": "1.0.5",
      "model": "Quantum",
      "params": [
        {
          "id": 0,
          "value": 0.0
        },
        {
          "id": 1,
          "value": 0.0
        },
        {
          "id": 2,
          "value": 0.0
        },
        {
          "id": 3,
          "value": 0.0
        },
        {
          "id": 4,
          "value": 0.0
        },
        {
          "id": 5,
          "value": 0.0
        },
        {
          "id": 6,
          "value": 0.0
        },
        {
          "id": 7,
          "value": 0.0
        },
        {
          "id": 8,
          "value": 0.0
        },
        {
          "id": 9,
          "value": 0.0
        },
        {
          "id": 10,
          "value": 0.0
        },
        {
          "id": 11,
          "value": 0.0
        }
      ],
      "leftModuleId": 110,
      "rightModuleId": 115,
      "data": {
        "scale": [
          1,
          0,
          1,
          0,
          1,
          1,
          0,
          1,
          0,
          1,
          1,
          0
        ],
        "mode": 1,
        "transpose_select": 1,
        "toggle_mode": 0
      },
      "pos": [
        96,
        2
      ]
    },
    {
      "id": 115,
      "plugin": "ML_modules",
      "version": "1.0.5",
      "model": "Quantum",
      "params": [
        {
          "id": 0,
          "value": 0.0
        },
        {
          "id": 1,
          "value": 0.0
        },
        {
          "id": 2,
          "value": 0.0
        },
        {
          "id": 3,
          "value": 0.0
        },
        {
          "id": 4,
          "value": 0.0
        },
        {
          "id": 5,
          "value": 0.0
        },
        {
          "id": 6,
          "value": 0.0
        },
        {
          "id": 7,
          "value": 0.0
        },
        {
          "id": 8,
          "value": 0.0
        },
        {
          "id": 9,
          "value": 0.0
        },
        {
          "id": 10,
          "value": 0.0
        },
        {
          "id": 11,
          "value": 0.0
        }
      ],
      "leftModuleId": 114,
      "rightModuleId": 118,
      "data": {
        "scale": [
          1,
          0,
          1,
          0,
          1,
          1,
          0,
          0,
          0,
          1,
          1,
          1
        ],
        "mode": 1,
        "transpose_select": 1,
        "toggle_mode": 0
      },
      "pos": [
        104,
        2
      ]
    },
    {
      "id": 118,
      "plugin": "Geodesics",
      "version": "1.1.0",
      "model": "Ions",
      "params": [
        {
          "id": 0,
          "value": 0.0
        },
        {
          "id": 1,
          "value": 0.0
        },
        {
          "id": 2,
          "value": 0.283856988
        },
        {
          "id": 3,
          "value": 0.571181417
        },
        {
          "id": 4,
          "value": 0.322982073
        },
        {
          "id": 5,
          "value": 0.365801871
        },
        {
          "id": 6,
          "value": 0.609275639
        },
        {
          "id": 7,
          "value": 0.0822013617
        },
        {
          "id": 8,
          "value": 0.86463207
        },
        {
          "id": 9,
          "value": 0.86716181
        },
        {
          "id": 10,
          "value": 0.343619823
        },
        {
          "id": 11,
          "value": 0.52801162
        },
        {
          "id": 12,
          "value": 0.888900757
        },
        {
          "id": 13,
          "value": 0.288214803
        },
        {
          "id": 14,
          "value": 0.114601135
        },
        {
          "id": 15,
          "value": 0.532084227
        },
        {
          "id": 16,
          "value": 0.35980916
        },
        {
          "id": 17,
          "value": 0.550795972
        },
        {
          "id": 18,
          "value": 0.0
        },
        {
          "id": 19,
          "value": 0.0
        },
        {
          "id": 20,
          "value": 0.0
        },
        {
          "id": 21,
          "value": 0.0
        },
        {
          "id": 22,
          "value": 0.0
        },
        {
          "id": 23,
          "value": 0.0
        },
        {
          "id": 24,
          "value": 0.0
        },
        {
          "id": 25,
          "value": 0.0
        },
        {
          "id": 26,
          "value": 0.0
        },
        {
          "id": 27,
          "value": 0.0
        }
      ],
      "leftModuleId": 115,
      "rightModuleId": 119,
      "data": {
        "panelTheme": 1,
        "running": true,
        "resetOnRun": false,
        "quantize": 2,
        "uncertainty": false,
        "stepIndexes0": 5,
        "stepIndexes1": 5,
        "states0": 0,
        "states1": 0,
        "ranges0": 0,
        "ranges1": 1,
        "leap": false
      },
      "pos": [
        112,
        2
      ]
    },
    {
      "id": 119,
      "plugin": "Geodesics",
      "version": "1.1.0",
      "model": "Energy",
      "params": [
        {
          "id": 0,
          "value": 0.0
        },
        {
          "id": 1,
          "value": 0.0
        },
        {
          "id": 2,
          "value": 0.0
        },
        {
          "id": 3,
          "value": 0.0
        },
        {
          "id": 4,
          "value": 0.0
        },
        {
          "id": 5,
          "value": -0.378000021
        },
        {
          "id": 6,
          "value": 0.737999201
        },
        {
          "id": 7,
          "value": 0.490500361
        },
        {
          "id": 8,
          "value": 0.805499971
        },
        {
          "id": 9,
          "value": 0.0
        }
      ],
      "leftModuleId": 118,
      "data": {
        "panelTheme": 1,
        "oscM_phase": 891809904,
        "oscC_phase": 3856632616,
        "osc1M_phase": 0,
        "osc1C_phase": 0,
        "osc2M_phase": 0,
        "osc2C_phase": 0,
        "osc3M_phase": 0,
        "osc3C_phase": 0,
        "osc4M_phase": 0,
        "osc4C_phase": 0,
        "osc5M_phase": 0,
        "osc5C_phase": 0,
        "osc6M_phase": 0,
        "osc6C_phase": 0,
        "osc7M_phase": 0,
        "osc7C_phase": 0,
        "osc8M_phase": 0,
        "osc8C_phase": 0,
        "osc9M_phase": 0,
        "osc9C_phase": 0,
        "osc10M_phase": 0,
        "osc10C_phase": 0,
        "osc11M_phase": 0,
        "osc11C_phase": 0,
        "osc12M_phase": 0,
        "osc12C_phase": 0,
        "osc13M_phase": 0,
        "osc13C_phase": 0,
        "osc14M_phase": 0,
        "osc14C_phase": 0,
        "osc15M_phase": 0,
        "osc15C_phase": 0,
        "routing": 0,
        "planck0": 1,
        "planck1": 1,
        "modtype0": 2,
        "modtype1": 2,
        "cross": 0
      },
      "pos": [
        131,
        2
      ]
    },
    {
      "id": 120,
      "plugin": "AudibleInstruments",
      "version": "1.0.2",
      "model": "Kinks",
      "params": [],
      "leftModuleId": 17,
      "rightModuleId": 121,
      "pos": [
        119,
        0
      ]
    },
    {
      "id": 121,
      "plugin": "AudibleInstruments",
      "version": "1.0.2",
      "model": "Tides2",
      "params": [
        {
          "id": 0,
          "value": 0.0
        },
        {
          "id": 1,
          "value": 0.0
        },
        {
          "id": 2,
          "value": 0.0
        },
        {
          "id": 3,
          "value": 19.3440094
        },
        {
          "id": 4,
          "value": 0.381500036
        },
        {
          "id": 5,
          "value": 1.0
        },
        {
          "id": 6,
          "value": 0.702499986
        },
        {
          "id": 7,
          "value": 0.620000243
        },
        {
          "id": 8,
          "value": 0.231000081
        },
        {
          "id": 9,
          "value": 0.0
        },
        {
          "id": 10,
          "value": 0.0
        },
        {
          "id": 11,
          "value": 0.0
        },
        {
          "id": 12,
          "value": 0.0
        }
      ],
      "leftModuleId": 120,
      "data": {
        "range": 1,
        "output": 2,
        "ramp": 1
      },
      "pos": [
        123,
        0
      ]
    }
  ],
  "cables": [
    {
      "id": 545,
      "outputModuleId": 12,
      "outputId": 4,
      "inputModuleId": 14,
      "inputId": 4,
      "color": "#c9b70e"
    },
    {
      "id": 546,
      "outputModuleId": 12,
      "outputId": 4,
      "inputModuleId": 15,
      "inputId": 4,
      "color": "#0c8e15"
    },
    {
      "id": 549,
      "outputModuleId": 14,
      "outputId": 6,
      "inputModuleId": 16,
      "inputId": 0,
      "color": "#c9b70e"
    },
    {
      "id": 550,
      "outputModuleId": 15,
      "outputId": 6,
      "inputModuleId": 16,
      "inputId": 1,
      "color": "#0c8e15"
    },
    {
      "id": 552,
      "outputModuleId": 18,
      "outputId": 0,
      "inputModuleId": 17,
      "inputId": 4,
      "color": "#0986ad"
    },
    {
      "id": 553,
      "outputModuleId": 17,
      "outputId": 6,
      "inputModuleId": 19,
      "inputId": 1,
      "color": "#c9b70e"
    },
    {
      "id": 554,
      "outputModuleId": 19,
      "outputId": 1,
      "inputModuleId": 20,
      "inputId": 0,
      "color": "#0c8e15"
    },
    {
      "id": 555,
      "outputModuleId": 20,
      "outputId": 0,
      "inputModuleId": 3,
      "inputId": 0,
      "color": "#c91847"
    },
    {
      "id": 558,
      "outputModuleId": 20,
      "outputId": 2,
      "inputModuleId": 21,
      "inputId": 1,
      "color": "#c9b70e"
    },
    {
      "id": 559,
      "outputModuleId": 20,
      "outputId": 0,
      "inputModuleId": 21,
      "inputId": 0,
      "color": "#0c8e15"
    },
    {
      "id": 560,
      "outputModuleId": 21,
      "outputId": 0,
      "inputModuleId": 22,
      "inputId": 0,
      "color": "#c91847"
    },
    {
      "id": 561,
      "outputModuleId": 21,
      "outputId": 1,
      "inputModuleId": 22,
      "inputId": 1,
      "color": "#0986ad"
    },
    {
      "id": 562,
      "outputModuleId": 21,
      "outputId": 2,
      "inputModuleId": 22,
      "inputId": 2,
      "color": "#c9b70e"
    },
    {
      "id": 563,
      "outputModuleId": 21,
      "outputId": 3,
      "inputModuleId": 22,
      "inputId": 3,
      "color": "#0c8e15"
    },
    {
      "id": 564,
      "outputModuleId": 21,
      "outputId": 4,
      "inputModuleId": 22,
      "inputId": 4,
      "color": "#c91847"
    },
    {
      "id": 565,
      "outputModuleId": 21,
      "outputId": 5,
      "inputModuleId": 22,
      "inputId": 5,
      "color": "#0986ad"
    },
    {
      "id": 566,
      "outputModuleId": 21,
      "outputId": 6,
      "inputModuleId": 22,
      "inputId": 6,
      "color": "#c9b70e"
    },
    {
      "id": 567,
      "outputModuleId": 21,
      "outputId": 7,
      "inputModuleId": 22,
      "inputId": 7,
      "color": "#0c8e15"
    },
    {
      "id": 569,
      "outputModuleId": 12,
      "outputId": 4,
      "inputModuleId": 23,
      "inputId": 4,
      "color": "#0986ad"
    },
    {
      "id": 570,
      "outputModuleId": 23,
      "outputId": 6,
      "inputModuleId": 24,
      "inputId": 0,
      "color": "#c9b70e"
    },
    {
      "id": 571,
      "outputModuleId": 12,
      "outputId": 4,
      "inputModuleId": 24,
      "inputId": 1,
      "color": "#0c8e15"
    },
    {
      "id": 572,
      "outputModuleId": 24,
      "outputId": 0,
      "inputModuleId": 25,
      "inputId": 6,
      "color": "#c91847"
    },
    {
      "id": 573,
      "outputModuleId": 24,
      "outputId": 2,
      "inputModuleId": 25,
      "inputId": 8,
      "color": "#0986ad"
    },
    {
      "id": 577,
      "outputModuleId": 24,
      "outputId": 1,
      "inputModuleId": 25,
      "inputId": 15,
      "color": "#0986ad"
    },
    {
      "id": 579,
      "outputModuleId": 24,
      "outputId": 5,
      "inputModuleId": 25,
      "inputId": 11,
      "color": "#0c8e15"
    },
    {
      "id": 583,
      "outputModuleId": 22,
      "outputId": 0,
      "inputModuleId": 26,
      "inputId": 0,
      "color": "#0c8e15"
    },
    {
      "id": 585,
      "outputModuleId": 22,
      "outputId": 0,
      "inputModuleId": 26,
      "inputId": 1,
      "color": "#0c8e15"
    },
    {
      "id": 622,
      "outputModuleId": 5,
      "outputId": 6,
      "inputModuleId": 12,
      "inputId": 3,
      "color": "#0c8e15"
    },
    {
      "id": 624,
      "outputModuleId": 90,
      "outputId": 0,
      "inputModuleId": 4,
      "inputId": 3,
      "color": "#0986ad"
    },
    {
      "id": 626,
      "outputModuleId": 5,
      "outputId": 6,
      "inputModuleId": 91,
      "inputId": 0,
      "color": "#0c8e15"
    },
    {
      "id": 625,
      "outputModuleId": 91,
      "outputId": 0,
      "inputModuleId": 4,
      "inputId": 0,
      "color": "#c9b70e"
    },
    {
      "id": 631,
      "outputModuleId": 26,
      "outputId": 0,
      "inputModuleId": 92,
      "inputId": 4,
      "color": "#c91847"
    },
    {
      "id": 632,
      "outputModuleId": 26,
      "outputId": 1,
      "inputModuleId": 92,
      "inputId": 10,
      "color": "#0986ad"
    },
    {
      "id": 643,
      "outputModuleId": 5,
      "outputId": 6,
      "inputModuleId": 93,
      "inputId": 6,
      "color": "#0c8e15"
    },
    {
      "id": 548,
      "outputModuleId": 16,
      "outputId": 0,
      "inputModuleId": 12,
      "inputId": 4,
      "color": "#0986ad"
    },
    {
      "id": 637,
      "outputModuleId": 12,
      "outputId": 6,
      "inputModuleId": 22,
      "inputId": 13,
      "color": "#0986ad"
    },
    {
      "id": 645,
      "outputModuleId": 92,
      "outputId": 0,
      "inputModuleId": 12,
      "inputId": 1,
      "color": "#0986ad"
    },
    {
      "id": 646,
      "outputModuleId": 5,
      "outputId": 6,
      "inputModuleId": 12,
      "inputId": 2,
      "color": "#c9b70e"
    },
    {
      "id": 642,
      "outputModuleId": 93,
      "outputId": 1,
      "inputModuleId": 25,
      "inputId": 0,
      "color": "#c9b70e"
    },
    {
      "id": 647,
      "outputModuleId": 93,
      "outputId": 0,
      "inputModuleId": 12,
      "inputId": 8,
      "color": "#0c8e15"
    },
    {
      "id": 654,
      "outputModuleId": 92,
      "outputId": 4,
      "inputModuleId": 90,
      "inputId": 1,
      "color": "#c9b70e"
    },
    {
      "id": 640,
      "outputModuleId": 93,
      "outputId": 2,
      "inputModuleId": 4,
      "inputId": 2,
      "color": "#c91847"
    },
    {
      "id": 656,
      "outputModuleId": 5,
      "outputId": 0,
      "inputModuleId": 92,
      "inputId": 14,
      "color": "#c91847"
    },
    {
      "id": 630,
      "outputModuleId": 91,
      "outputId": 0,
      "inputModuleId": 92,
      "inputId": 0,
      "color": "#0c8e15"
    },
    {
      "id": 659,
      "outputModuleId": 5,
      "outputId": 6,
      "inputModuleId": 98,
      "inputId": 0,
      "color": "#0c8e15"
    },
    {
      "id": 663,
      "outputModuleId": 98,
      "outputId": 4,
      "inputModuleId": 25,
      "inputId": 9,
      "color": "#c91847"
    },
    {
      "id": 664,
      "outputModuleId": 98,
      "outputId": 10,
      "inputModuleId": 25,
      "inputId": 7,
      "color": "#0986ad"
    },
    {
      "id": 666,
      "outputModuleId": 4,
      "outputId": 1,
      "inputModuleId": 98,
      "inputId": 2,
      "color": "#0c8e15"
    },
    {
      "id": 667,
      "outputModuleId": 98,
      "outputId": 8,
      "inputModuleId": 25,
      "inputId": 5,
      "color": "#c91847"
    },
    {
      "id": 593,
      "outputModuleId": 5,
      "outputId": 1,
      "inputModuleId": 25,
      "inputId": 2,
      "color": "#c91847"
    },
    {
      "id": 547,
      "outputModuleId": 16,
      "outputId": 1,
      "inputModuleId": 12,
      "inputId": 0,
      "color": "#c91847"
    },
    {
      "id": 568,
      "outputModuleId": 18,
      "outputId": 1,
      "inputModuleId": 22,
      "inputId": 9,
      "color": "#c91847"
    },
    {
      "id": 551,
      "outputModuleId": 12,
      "outputId": 4,
      "inputModuleId": 18,
      "inputId": 0,
      "color": "#c91847"
    },
    {
      "id": 677,
      "outputModuleId": 12,
      "outputId": 5,
      "inputModuleId": 18,
      "inputId": 1,
      "color": "#c9b70e"
    },
    {
      "id": 687,
      "outputModuleId": 98,
      "outputId": 3,
      "inputModuleId": 25,
      "inputId": 13,
      "color": "#0986ad"
    },
    {
      "id": 688,
      "outputModuleId": 98,
      "outputId": 5,
      "inputModuleId": 25,
      "inputId": 10,
      "color": "#c9b70e"
    },
    {
      "id": 689,
      "outputModuleId": 98,
      "outputId": 9,
      "inputModuleId": 25,
      "inputId": 14,
      "color": "#0c8e15"
    },
    {
      "id": 692,
      "outputModuleId": 103,
      "outputId": 0,
      "inputModuleId": 102,
      "inputId": 1,
      "color": "#c9b70e"
    },
    {
      "id": 693,
      "outputModuleId": 98,
      "outputId": 14,
      "inputModuleId": 25,
      "inputId": 3,
      "color": "#0c8e15"
    },
    {
      "id": 694,
      "outputModuleId": 5,
      "outputId": 6,
      "inputModuleId": 102,
      "inputId": 0,
      "color": "#c91847"
    },
    {
      "id": 690,
      "outputModuleId": 98,
      "outputId": 14,
      "inputModuleId": 105,
      "inputId": 0,
      "color": "#c91847"
    },
    {
      "id": 696,
      "outputModuleId": 105,
      "outputId": 0,
      "inputModuleId": 103,
      "inputId": 0,
      "color": "#c9b70e"
    },
    {
      "id": 703,
      "outputModuleId": 93,
      "outputId": 3,
      "inputModuleId": 102,
      "inputId": 3,
      "color": "#c91847"
    },
    {
      "id": 704,
      "outputModuleId": 109,
      "outputId": 0,
      "inputModuleId": 93,
      "inputId": 0,
      "color": "#0986ad"
    },
    {
      "id": 705,
      "outputModuleId": 98,
      "outputId": 7,
      "inputModuleId": 109,
      "inputId": 3,
      "color": "#0c8e15"
    },
    {
      "id": 706,
      "outputModuleId": 98,
      "outputId": 6,
      "inputModuleId": 109,
      "inputId": 9,
      "color": "#c91847"
    },
    {
      "id": 707,
      "outputModuleId": 98,
      "outputId": 12,
      "inputModuleId": 109,
      "inputId": 0,
      "color": "#0986ad"
    },
    {
      "id": 708,
      "outputModuleId": 98,
      "outputId": 0,
      "inputModuleId": 109,
      "inputId": 13,
      "color": "#c9b70e"
    },
    {
      "id": 709,
      "outputModuleId": 109,
      "outputId": 1,
      "inputModuleId": 93,
      "inputId": 3,
      "color": "#0c8e15"
    },
    {
      "id": 712,
      "outputModuleId": 109,
      "outputId": 6,
      "inputModuleId": 92,
      "inputId": 7,
      "color": "#c9b70e"
    },
    {
      "id": 713,
      "outputModuleId": 109,
      "outputId": 2,
      "inputModuleId": 92,
      "inputId": 13,
      "color": "#0c8e15"
    },
    {
      "id": 710,
      "outputModuleId": 109,
      "outputId": 4,
      "inputModuleId": 93,
      "inputId": 1,
      "color": "#c91847"
    },
    {
      "id": 714,
      "outputModuleId": 5,
      "outputId": 1,
      "inputModuleId": 110,
      "inputId": 6,
      "color": "#c91847"
    },
    {
      "id": 715,
      "outputModuleId": 5,
      "outputId": 6,
      "inputModuleId": 110,
      "inputId": 7,
      "color": "#c9b70e"
    },
    {
      "id": 716,
      "outputModuleId": 110,
      "outputId": 1,
      "inputModuleId": 109,
      "inputId": 11,
      "color": "#0c8e15"
    },
    {
      "id": 717,
      "outputModuleId": 110,
      "outputId": 3,
      "inputModuleId": 109,
      "inputId": 5,
      "color": "#c91847"
    },
    {
      "id": 718,
      "outputModuleId": 110,
      "outputId": 2,
      "inputModuleId": 109,
      "inputId": 6,
      "color": "#0986ad"
    },
    {
      "id": 719,
      "outputModuleId": 110,
      "outputId": 0,
      "inputModuleId": 109,
      "inputId": 14,
      "color": "#c9b70e"
    },
    {
      "id": 720,
      "outputModuleId": 109,
      "outputId": 3,
      "inputModuleId": 3,
      "inputId": 1,
      "color": "#0c8e15"
    },
    {
      "id": 721,
      "outputModuleId": 109,
      "outputId": 7,
      "inputModuleId": 3,
      "inputId": 3,
      "color": "#c91847"
    },
    {
      "id": 722,
      "outputModuleId": 109,
      "outputId": 5,
      "inputModuleId": 25,
      "inputId": 12,
      "color": "#c9b70e"
    },
    {
      "id": 701,
      "outputModuleId": 113,
      "outputId": 0,
      "inputModuleId": 107,
      "inputId": 0,
      "color": "#0986ad"
    },
    {
      "id": 699,
      "outputModuleId": 113,
      "outputId": 1,
      "inputModuleId": 107,
      "inputId": 1,
      "color": "#0c8e15"
    },
    {
      "id": 580,
      "outputModuleId": 25,
      "outputId": 0,
      "inputModuleId": 113,
      "inputId": 5,
      "color": "#c91847"
    },
    {
      "id": 581,
      "outputModuleId": 25,
      "outputId": 1,
      "inputModuleId": 113,
      "inputId": 8,
      "color": "#0986ad"
    },
    {
      "id": 691,
      "outputModuleId": 102,
      "outputId": 0,
      "inputModuleId": 113,
      "inputId": 11,
      "color": "#0986ad"
    },
    {
      "id": 723,
      "outputModuleId": 102,
      "outputId": 0,
      "inputModuleId": 78,
      "inputId": 0,
      "color": "#0c8e15"
    },
    {
      "id": 724,
      "outputModuleId": 4,
      "outputId": 0,
      "inputModuleId": 78,
      "inputId": 1,
      "color": "#c91847"
    },
    {
      "id": 725,
      "outputModuleId": 25,
      "outputId": 0,
      "inputModuleId": 7,
      "inputId": 0,
      "color": "#0986ad"
    },
    {
      "id": 726,
      "outputModuleId": 25,
      "outputId": 1,
      "inputModuleId": 7,
      "inputId": 1,
      "color": "#c9b70e"
    },
    {
      "id": 702,
      "outputModuleId": 114,
      "outputId": 0,
      "inputModuleId": 1,
      "inputId": 1,
      "color": "#c9b70e"
    },
    {
      "id": 732,
      "outputModuleId": 107,
      "outputId": 0,
      "inputModuleId": 114,
      "inputId": 0,
      "color": "#c91847"
    },
    {
      "id": 544,
      "outputModuleId": 4,
      "outputId": 0,
      "inputModuleId": 113,
      "inputId": 2,
      "color": "#0986ad"
    },
    {
      "id": 733,
      "outputModuleId": 107,
      "outputId": 1,
      "inputModuleId": 115,
      "inputId": 0,
      "color": "#0986ad"
    },
    {
      "id": 700,
      "outputModuleId": 115,
      "outputId": 0,
      "inputModuleId": 1,
      "inputId": 0,
      "color": "#c91847"
    },
    {
      "id": 742,
      "outputModuleId": 118,
      "outputId": 0,
      "inputModuleId": 119,
      "inputId": 2,
      "color": "#0986ad"
    },
    {
      "id": 745,
      "outputModuleId": 5,
      "outputId": 6,
      "inputModuleId": 118,
      "inputId": 0,
      "color": "#c91847"
    },
    {
      "id": 746,
      "outputModuleId": 109,
      "outputId": 5,
      "inputModuleId": 4,
      "inputId": 1,
      "color": "#c91847"
    },
    {
      "id": 540,
      "outputModuleId": 3,
      "outputId": 2,
      "inputModuleId": 90,
      "inputId": 0,
      "color": "#0c8e15"
    },
    {
      "id": 747,
      "outputModuleId": 5,
      "outputId": 6,
      "inputModuleId": 120,
      "inputId": 4,
      "color": "#0986ad"
    },
    {
      "id": 743,
      "outputModuleId": 119,
      "outputId": 0,
      "inputModuleId": 113,
      "inputId": 14,
      "color": "#c9b70e"
    },
    {
      "id": 749,
      "outputModuleId": 121,
      "outputId": 2,
      "inputModuleId": 119,
      "inputId": 1,
      "color": "#0c8e15"
    },
    {
      "id": 751,
      "outputModuleId": 121,
      "outputId": 0,
      "inputModuleId": 119,
      "inputId": 3,
      "color": "#0986ad"
    },
    {
      "id": 627,
      "outputModuleId": 12,
      "outputId": 10,
      "inputModuleId": 21,
      "inputId": 5,
      "color": "#c91847"
    },
    {
      "id": 650,
      "outputModuleId": 5,
      "outputId": 1,
      "inputModuleId": 113,
      "inputId": 0,
      "color": "#c9b70e"
    },
    {
      "id": 651,
      "outputModuleId": 5,
      "outputId": 1,
      "inputModuleId": 113,
      "inputId": 3,
      "color": "#0c8e15"
    },
    {
      "id": 727,
      "outputModuleId": 5,
      "outputId": 1,
      "inputModuleId": 113,
      "inputId": 6,
      "color": "#0c8e15"
    },
    {
      "id": 653,
      "outputModuleId": 5,
      "outputId": 1,
      "inputModuleId": 113,
      "inputId": 9,
      "color": "#0986ad"
    },
    {
      "id": 728,
      "outputModuleId": 5,
      "outputId": 1,
      "inputModuleId": 113,
      "inputId": 12,
      "color": "#c91847"
    }
  ]
}