{
  "version": "1.1.6",
  "modules": [
    {
      "id": 1,
      "plugin": "Core",
      "version": "1.1.6",
      "model": "AudioInterface",
      "params": [],
      "leftModuleId": 2,
      "rightModuleId": 15,
      "data": {
        "audio": {
          "driver": 5,
          "deviceName": "Apple Inc.: External Headphones",
          "offset": 0,
          "maxChannels": 8,
          "sampleRate": 44100,
          "blockSize": 256
        }
      },
      "pos": [
        33,
        0
      ]
    },
    {
      "id": 2,
      "plugin": "Fundamental",
      "version": "1.4.0",
      "model": "VCMixer",
      "params": [
        {
          "id": 0,
          "value": 1.0
        },
        {
          "id": 1,
          "value": 1.0
        },
        {
          "id": 2,
          "value": 1.0
        },
        {
          "id": 3,
          "value": 1.0
        },
        {
          "id": 4,
          "value": 1.0
        }
      ],
      "leftModuleId": 6,
      "rightModuleId": 1,
      "pos": [
        23,
        0
      ]
    },
    {
      "id": 5,
      "plugin": "Core",
      "version": "1.1.6",
      "model": "MIDIToCVInterface",
      "params": [],
      "leftModuleId": 7,
      "data": {
        "channels": 1,
        "polyMode": 0,
        "clockDivision": 24,
        "lastPitch": 8192,
        "lastMod": 0,
        "midi": {
          "driver": -11,
          "deviceName": "QWERTY keyboard (US)",
          "channel": -1
        }
      },
      "pos": [
        37,
        1
      ]
    },
    {
      "id": 6,
      "plugin": "Fundamental",
      "version": "1.4.0",
      "model": "ADSR",
      "params": [
        {
          "id": 0,
          "value": 0.258000046
        },
        {
          "id": 1,
          "value": 0.743000448
        },
        {
          "id": 2,
          "value": 0.5
        },
        {
          "id": 3,
          "value": 0.576500058
        }
      ],
      "leftModuleId": 12,
      "rightModuleId": 2,
      "pos": [
        15,
        0
      ]
    },
    {
      "id": 8,
      "plugin": "Core",
      "version": "1.1.6",
      "model": "Notes",
      "params": [],
      "text": "",
      "pos": [
        58,
        0
      ]
    },
    {
      "id": 7,
      "plugin": "Fundamental",
      "version": "1.4.0",
      "model": "Scope",
      "params": [
        {
          "id": 0,
          "value": 0.0
        },
        {
          "id": 1,
          "value": 0.0
        },
        {
          "id": 2,
          "value": 0.0
        },
        {
          "id": 3,
          "value": 0.0
        },
        {
          "id": 4,
          "value": 14.0
        },
        {
          "id": 5,
          "value": 0.0
        },
        {
          "id": 6,
          "value": 0.0
        },
        {
          "id": 7,
          "value": 0.0
        }
      ],
      "leftModuleId": 9,
      "rightModuleId": 5,
      "data": {
        "lissajous": 0,
        "external": 0
      },
      "pos": [
        24,
        1
      ]
    },
    {
      "id": 9,
      "plugin": "Valley",
      "version": "1.1.7",
      "model": "Amalgam",
      "params": [
        {
          "id": 0,
          "value": 2.01400018
        },
        {
          "id": 1,
          "value": 2.19400144
        },
        {
          "id": 2,
          "value": 0.430499882
        },
        {
          "id": 3,
          "value": 0.626499414
        },
        {
          "id": 4,
          "value": 6.42389393
        },
        {
          "id": 5,
          "value": -0.405000091
        },
        {
          "id": 6,
          "value": 0.558000028
        },
        {
          "id": 7,
          "value": 0.291000009
        },
        {
          "id": 8,
          "value": -0.42900002
        },
        {
          "id": 9,
          "value": 0.0
        },
        {
          "id": 10,
          "value": 0.0
        },
        {
          "id": 11,
          "value": 0.0
        },
        {
          "id": 12,
          "value": 0.0
        },
        {
          "id": 13,
          "value": 0.0
        }
      ],
      "leftModuleId": 10,
      "rightModuleId": 7,
      "data": {
        "panelStyle": 0,
        "dcCoupled": 0
      },
      "pos": [
        14,
        1
      ]
    },
    {
      "id": 10,
      "plugin": "AudibleInstruments",
      "version": "1.5.0",
      "model": "Tides2",
      "params": [
        {
          "id": 0,
          "value": 0.0
        },
        {
          "id": 1,
          "value": 0.0
        },
        {
          "id": 2,
          "value": 0.0
        },
        {
          "id": 3,
          "value": -27.9359512
        },
        {
          "id": 4,
          "value": 0.747499585
        },
        {
          "id": 5,
          "value": 0.186500028
        },
        {
          "id": 6,
          "value": 0.5
        },
        {
          "id": 7,
          "value": 0.33499971
        },
        {
          "id": 8,
          "value": 0.0
        },
        {
          "id": 9,
          "value": 0.0
        },
        {
          "id": 10,
          "value": 0.0
        },
        {
          "id": 11,
          "value": 0.0
        },
        {
          "id": 12,
          "value": 0.0
        }
      ],
      "rightModuleId": 9,
      "data": {
        "range": 1,
        "output": 3,
        "ramp": 1
      },
      "pos": [
        0,
        1
      ]
    },
    {
      "id": 11,
      "plugin": "Geodesics",
      "version": "1.2.0",
      "model": "Energy",
      "params": [
        {
          "id": 0,
          "value": 0.0
        },
        {
          "id": 1,
          "value": 0.0
        },
        {
          "id": 2,
          "value": 0.0
        },
        {
          "id": 3,
          "value": 0.0
        },
        {
          "id": 4,
          "value": 0.0
        },
        {
          "id": 5,
          "value": -0.575999975
        },
        {
          "id": 6,
          "value": -0.845998287
        },
        {
          "id": 7,
          "value": 0.184499994
        },
        {
          "id": 8,
          "value": 0.547500014
        },
        {
          "id": 9,
          "value": 0.0
        }
      ],
      "leftModuleId": 16,
      "rightModuleId": 12,
      "data": {
        "panelTheme": 0,
        "oscM_phase": 3465840216,
        "oscC_phase": 3311772328,
        "osc1M_phase": 0,
        "osc1C_phase": 0,
        "osc2M_phase": 0,
        "osc2C_phase": 0,
        "osc3M_phase": 0,
        "osc3C_phase": 0,
        "osc4M_phase": 0,
        "osc4C_phase": 0,
        "osc5M_phase": 0,
        "osc5C_phase": 0,
        "osc6M_phase": 0,
        "osc6C_phase": 0,
        "osc7M_phase": 0,
        "osc7C_phase": 0,
        "osc8M_phase": 0,
        "osc8C_phase": 0,
        "osc9M_phase": 0,
        "osc9C_phase": 0,
        "osc10M_phase": 0,
        "osc10C_phase": 0,
        "osc11M_phase": 0,
        "osc11C_phase": 0,
        "osc12M_phase": 0,
        "osc12C_phase": 0,
        "osc13M_phase": 0,
        "osc13C_phase": 0,
        "osc14M_phase": 0,
        "osc14C_phase": 0,
        "osc15M_phase": 0,
        "osc15C_phase": 0,
        "routing": 0,
        "planck0": 2,
        "planck1": 2,
        "modtype0": 1,
        "modtype1": 1,
        "cross": 1
      },
      "pos": [
        2,
        0
      ]
    },
    {
      "id": 12,
      "plugin": "NANOModules",
      "version": "1.6.0.2",
      "model": "FONT",
      "params": [
        {
          "id": 0,
          "value": 0.223499998
        },
        {
          "id": 1,
          "value": 19.767992
        },
        {
          "id": 2,
          "value": -0.450999916
        },
        {
          "id": 3,
          "value": 0.227999836
        }
      ],
      "leftModuleId": 11,
      "rightModuleId": 6,
      "pos": [
        9,
        0
      ]
    },
    {
      "id": 15,
      "plugin": "NANOModules",
      "version": "1.6.0.2",
      "model": "BLANK2Hp",
      "params": [],
      "leftModuleId": 1,
      "pos": [
        43,
        0
      ]
    },
    {
      "id": 16,
      "plugin": "NANOModules",
      "version": "1.6.0.2",
      "model": "BLANK2Hp",
      "params": [],
      "rightModuleId": 11,
      "pos": [
        0,
        0
      ]
    }
  ],
  "cables": [
    {
      "id": 2,
      "outputModuleId": 2,
      "outputId": 0,
      "inputModuleId": 1,
      "inputId": 0,
      "color": "#0986ad"
    },
    {
      "id": 3,
      "outputModuleId": 2,
      "outputId": 0,
      "inputModuleId": 1,
      "inputId": 1,
      "color": "#c9b70e"
    },
    {
      "id": 5,
      "outputModuleId": 5,
      "outputId": 1,
      "inputModuleId": 6,
      "inputId": 4,
      "color": "#c9b70e"
    },
    {
      "id": 9,
      "outputModuleId": 5,
      "outputId": 6,
      "inputModuleId": 6,
      "inputId": 5,
      "color": "#c91847"
    },
    {
      "id": 8,
      "outputModuleId": 2,
      "outputId": 1,
      "inputModuleId": 7,
      "inputId": 0,
      "color": "#c9b70e"
    },
    {
      "id": 22,
      "outputModuleId": 2,
      "outputId": 2,
      "inputModuleId": 7,
      "inputId": 1,
      "color": "#0986ad"
    },
    {
      "id": 23,
      "outputModuleId": 5,
      "outputId": 1,
      "inputModuleId": 10,
      "inputId": 6,
      "color": "#c9b70e"
    },
    {
      "id": 26,
      "outputModuleId": 10,
      "outputId": 3,
      "inputModuleId": 9,
      "inputId": 10,
      "color": "#0986ad"
    },
    {
      "id": 27,
      "outputModuleId": 10,
      "outputId": 0,
      "inputModuleId": 9,
      "inputId": 12,
      "color": "#c9b70e"
    },
    {
      "id": 24,
      "outputModuleId": 10,
      "outputId": 1,
      "inputModuleId": 9,
      "inputId": 4,
      "color": "#0c8e15"
    },
    {
      "id": 25,
      "outputModuleId": 10,
      "outputId": 2,
      "inputModuleId": 9,
      "inputId": 7,
      "color": "#c91847"
    },
    {
      "id": 11,
      "outputModuleId": 5,
      "outputId": 1,
      "inputModuleId": 9,
      "inputId": 9,
      "color": "#c9b70e"
    },
    {
      "id": 28,
      "outputModuleId": 5,
      "outputId": 0,
      "inputModuleId": 10,
      "inputId": 2,
      "color": "#0c8e15"
    },
    {
      "id": 0,
      "outputModuleId": 5,
      "outputId": 0,
      "inputModuleId": 11,
      "inputId": 2,
      "color": "#c91847"
    },
    {
      "id": 4,
      "outputModuleId": 6,
      "outputId": 0,
      "inputModuleId": 12,
      "inputId": 1,
      "color": "#c91847"
    },
    {
      "id": 1,
      "outputModuleId": 11,
      "outputId": 0,
      "inputModuleId": 12,
      "inputId": 3,
      "color": "#0c8e15"
    },
    {
      "id": 21,
      "outputModuleId": 12,
      "outputId": 0,
      "inputModuleId": 9,
      "inputId": 0,
      "color": "#c91847"
    },
    {
      "id": 20,
      "outputModuleId": 12,
      "outputId": 0,
      "inputModuleId": 9,
      "inputId": 2,
      "color": "#0c8e15"
    },
    {
      "id": 16,
      "outputModuleId": 12,
      "outputId": 0,
      "inputModuleId": 2,
      "inputId": 2,
      "color": "#0c8e15"
    },
    {
      "id": 7,
      "outputModuleId": 12,
      "outputId": 0,
      "inputModuleId": 2,
      "inputId": 1,
      "color": "#0986ad"
    },
    {
      "id": 19,
      "outputModuleId": 12,
      "outputId": 1,
      "inputModuleId": 9,
      "inputId": 1,
      "color": "#c9b70e"
    },
    {
      "id": 18,
      "outputModuleId": 12,
      "outputId": 1,
      "inputModuleId": 9,
      "inputId": 3,
      "color": "#0986ad"
    },
    {
      "id": 29,
      "outputModuleId": 12,
      "outputId": 0,
      "inputModuleId": 2,
      "inputId": 3,
      "color": "#c91847"
    },
    {
      "id": 30,
      "outputModuleId": 12,
      "outputId": 1,
      "inputModuleId": 2,
      "inputId": 4,
      "color": "#0986ad"
    },
    {
      "id": 32,
      "outputModuleId": 9,
      "outputId": 9,
      "inputModuleId": 11,
      "inputId": 4,
      "color": "#0986ad"
    },
    {
      "id": 33,
      "outputModuleId": 9,
      "outputId": 10,
      "inputModuleId": 11,
      "inputId": 5,
      "color": "#c9b70e"
    },
    {
      "id": 35,
      "outputModuleId": 9,
      "outputId": 8,
      "inputModuleId": 12,
      "inputId": 0,
      "color": "#c91847"
    },
    {
      "id": 36,
      "outputModuleId": 9,
      "outputId": 11,
      "inputModuleId": 12,
      "inputId": 2,
      "color": "#0986ad"
    },
    {
      "id": 43,
      "outputModuleId": 9,
      "outputId": 6,
      "inputModuleId": 2,
      "inputId": 5,
      "color": "#c9b70e"
    },
    {
      "id": 44,
      "outputModuleId": 9,
      "outputId": 7,
      "inputModuleId": 2,
      "inputId": 7,
      "color": "#0c8e15"
    },
    {
      "id": 45,
      "outputModuleId": 9,
      "outputId": 7,
      "inputModuleId": 2,
      "inputId": 8,
      "color": "#c91847"
    },
    {
      "id": 46,
      "outputModuleId": 9,
      "outputId": 6,
      "inputModuleId": 2,
      "inputId": 6,
      "color": "#0986ad"
    },
    {
      "id": 47,
      "outputModuleId": 9,
      "outputId": 4,
      "inputModuleId": 11,
      "inputId": 0,
      "color": "#c9b70e"
    },
    {
      "id": 48,
      "outputModuleId": 9,
      "outputId": 5,
      "inputModuleId": 11,
      "inputId": 1,
      "color": "#0c8e15"
    }
  ]
}