{
  "version": "1.1.6",
  "modules": [
    {
      "id": 1,
      "plugin": "Core",
      "version": "1.1.6",
      "model": "AudioInterface",
      "params": [],
      "leftModuleId": 2,
      "data": {
        "audio": {
          "driver": 5,
          "deviceName": "Apple Inc.: MacBook Pro Speakers",
          "offset": 0,
          "maxChannels": 8,
          "sampleRate": 44100,
          "blockSize": 256
        }
      },
      "pos": [
        64,
        0
      ]
    },
    {
      "id": 2,
      "plugin": "Fundamental",
      "version": "1.4.0",
      "model": "VCMixer",
      "params": [
        {
          "id": 0,
          "value": 1.0
        },
        {
          "id": 1,
          "value": 1.0
        },
        {
          "id": 2,
          "value": 1.0
        },
        {
          "id": 3,
          "value": 1.0
        },
        {
          "id": 4,
          "value": 1.0
        }
      ],
      "leftModuleId": 19,
      "rightModuleId": 1,
      "pos": [
        54,
        0
      ]
    },
    {
      "id": 5,
      "plugin": "Core",
      "version": "1.1.6",
      "model": "MIDIToCVInterface",
      "params": [],
      "data": {
        "channels": 1,
        "polyMode": 0,
        "clockDivision": 24,
        "lastPitch": 8192,
        "lastMod": 0,
        "midi": {
          "driver": 1,
          "deviceName": "Adafruit Trellis M4",
          "channel": -1
        }
      },
      "pos": [
        0,
        0
      ]
    },
    {
      "id": 6,
      "plugin": "Fundamental",
      "version": "1.4.0",
      "model": "ADSR",
      "params": [
        {
          "id": 0,
          "value": 0.19949998
        },
        {
          "id": 1,
          "value": 0.743000448
        },
        {
          "id": 2,
          "value": 0.5
        },
        {
          "id": 3,
          "value": 0.576500058
        }
      ],
      "rightModuleId": 19,
      "pos": [
        35,
        0
      ]
    },
    {
      "id": 7,
      "plugin": "Fundamental",
      "version": "1.4.0",
      "model": "Scope",
      "params": [
        {
          "id": 0,
          "value": 0.0
        },
        {
          "id": 1,
          "value": 0.0
        },
        {
          "id": 2,
          "value": 0.0
        },
        {
          "id": 3,
          "value": 0.0
        },
        {
          "id": 4,
          "value": 14.0
        },
        {
          "id": 5,
          "value": 0.0
        },
        {
          "id": 6,
          "value": 0.0
        },
        {
          "id": 7,
          "value": 0.0
        }
      ],
      "leftModuleId": 21,
      "data": {
        "lissajous": 0,
        "external": 0
      },
      "pos": [
        61,
        1
      ]
    },
    {
      "id": 17,
      "plugin": "QuantalAudio",
      "version": "1.0.0",
      "model": "Horsehair",
      "params": [
        {
          "id": 0,
          "value": 1.36800122
        },
        {
          "id": 1,
          "value": -3.0
        },
        {
          "id": 2,
          "value": -2.0
        },
        {
          "id": 3,
          "value": 0.761999965
        },
        {
          "id": 4,
          "value": 0.454000115
        },
        {
          "id": 5,
          "value": 0.375499904
        },
        {
          "id": 6,
          "value": 0.676999807
        },
        {
          "id": 7,
          "value": 0.5
        }
      ],
      "pos": [
        16,
        1
      ]
    },
    {
      "id": 18,
      "plugin": "AudibleInstruments",
      "version": "1.5.0",
      "model": "Tides2",
      "params": [
        {
          "id": 0,
          "value": 0.0
        },
        {
          "id": 1,
          "value": 0.0
        },
        {
          "id": 2,
          "value": 0.0
        },
        {
          "id": 3,
          "value": -25.7760029
        },
        {
          "id": 4,
          "value": 0.219499782
        },
        {
          "id": 5,
          "value": 0.405499905
        },
        {
          "id": 6,
          "value": 0.5
        },
        {
          "id": 7,
          "value": 0.5
        },
        {
          "id": 8,
          "value": 0.0
        },
        {
          "id": 9,
          "value": 0.0
        },
        {
          "id": 10,
          "value": 0.0
        },
        {
          "id": 11,
          "value": 0.0
        },
        {
          "id": 12,
          "value": 0.0
        }
      ],
      "leftModuleId": 22,
      "rightModuleId": 21,
      "data": {
        "range": 1,
        "output": 2,
        "ramp": 1
      },
      "pos": [
        35,
        1
      ]
    },
    {
      "id": 19,
      "plugin": "Geodesics",
      "version": "1.2.0",
      "model": "Branes",
      "params": [
        {
          "id": 0,
          "value": 0.0
        },
        {
          "id": 1,
          "value": 0.0
        },
        {
          "id": 2,
          "value": 0.0
        },
        {
          "id": 3,
          "value": 0.0
        }
      ],
      "leftModuleId": 6,
      "rightModuleId": 2,
      "data": {
        "panelTheme": 0,
        "vibrations0": 0,
        "vibrations1": 1,
        "noiseRange0": 0.0,
        "noiseRange1": 1.0
      },
      "pos": [
        43,
        0
      ]
    },
    {
      "id": 20,
      "plugin": "Bogaudio",
      "version": "1.1.38",
      "model": "Bogaudio-VCF",
      "params": [
        {
          "id": 0,
          "value": 0.391610146
        },
        {
          "id": 1,
          "value": 0.0
        },
        {
          "id": 2,
          "value": 0.0
        },
        {
          "id": 3,
          "value": 0.206999987
        },
        {
          "id": 4,
          "value": 0.0
        },
        {
          "id": 5,
          "value": 0.370732903
        }
      ],
      "leftModuleId": 25,
      "data": {
        "skin": "lowcontrast",
        "bandwidthMode": "pitched"
      },
      "pos": [
        24,
        0
      ]
    },
    {
      "id": 21,
      "plugin": "AlrightDevices",
      "version": "1.0.3",
      "model": "Chronoblob2",
      "params": [
        {
          "id": 0,
          "value": 0.59000051
        },
        {
          "id": 1,
          "value": 0.696500123
        },
        {
          "id": 2,
          "value": 0.41749981
        },
        {
          "id": 3,
          "value": 0.0
        },
        {
          "id": 4,
          "value": 0.0
        },
        {
          "id": 5,
          "value": 0.0
        },
        {
          "id": 6,
          "value": 0.0
        },
        {
          "id": 7,
          "value": 0.0
        },
        {
          "id": 8,
          "value": 1.0
        },
        {
          "id": 9,
          "value": 0.0
        }
      ],
      "leftModuleId": 18,
      "rightModuleId": 7,
      "data": {
        "delay_mode": 1,
        "hold_behavior": 0,
        "sync_prescaler": 6
      },
      "pos": [
        49,
        1
      ]
    },
    {
      "id": 22,
      "plugin": "Bogaudio",
      "version": "1.1.38",
      "model": "Bogaudio-VCF",
      "params": [
        {
          "id": 0,
          "value": 0.738110065
        },
        {
          "id": 1,
          "value": 0.0
        },
        {
          "id": 2,
          "value": 0.0
        },
        {
          "id": 3,
          "value": 0.206999987
        },
        {
          "id": 4,
          "value": 0.0
        },
        {
          "id": 5,
          "value": 0.370732903
        }
      ],
      "rightModuleId": 18,
      "data": {
        "skin": "lowcontrast",
        "bandwidthMode": "pitched"
      },
      "pos": [
        25,
        1
      ]
    },
    {
      "id": 24,
      "plugin": "Core",
      "version": "1.1.6",
      "model": "MIDIToCVInterface",
      "params": [],
      "data": {
        "channels": 1,
        "polyMode": 0,
        "clockDivision": 24,
        "lastPitch": 8192,
        "lastMod": 0,
        "midi": {
          "driver": 1,
          "channel": -1
        }
      },
      "pos": [
        0,
        1
      ]
    },
    {
      "id": 25,
      "plugin": "Core",
      "version": "1.1.6",
      "model": "MIDITriggerToCVInterface",
      "params": [],
      "rightModuleId": 20,
      "data": {
        "notes": [
          46,
          49,
          50,
          51,
          44,
          45,
          46,
          47,
          40,
          41,
          42,
          43,
          36,
          37,
          38,
          39
        ],
        "velocity": false,
        "midi": {
          "driver": 1,
          "deviceName": "Adafruit Trellis M4",
          "channel": -1
        }
      },
      "pos": [
        14,
        0
      ]
    }
  ],
  "cables": [
    {
      "id": 51,
      "outputModuleId": 2,
      "outputId": 0,
      "inputModuleId": 1,
      "inputId": 0,
      "color": "#0986ad"
    },
    {
      "id": 52,
      "outputModuleId": 2,
      "outputId": 0,
      "inputModuleId": 1,
      "inputId": 1,
      "color": "#c9b70e"
    },
    {
      "id": 55,
      "outputModuleId": 6,
      "outputId": 0,
      "inputModuleId": 2,
      "inputId": 5,
      "color": "#0c8e15"
    },
    {
      "id": 57,
      "outputModuleId": 2,
      "outputId": 1,
      "inputModuleId": 7,
      "inputId": 0,
      "color": "#c9b70e"
    },
    {
      "id": 59,
      "outputModuleId": 18,
      "outputId": 1,
      "inputModuleId": 17,
      "inputId": 1,
      "color": "#c9b70e"
    },
    {
      "id": 60,
      "outputModuleId": 18,
      "outputId": 2,
      "inputModuleId": 17,
      "inputId": 2,
      "color": "#0c8e15"
    },
    {
      "id": 61,
      "outputModuleId": 18,
      "outputId": 3,
      "inputModuleId": 17,
      "inputId": 5,
      "color": "#c91847"
    },
    {
      "id": 62,
      "outputModuleId": 18,
      "outputId": 0,
      "inputModuleId": 17,
      "inputId": 4,
      "color": "#0986ad"
    },
    {
      "id": 63,
      "outputModuleId": 18,
      "outputId": 0,
      "inputModuleId": 17,
      "inputId": 3,
      "color": "#c9b70e"
    },
    {
      "id": 50,
      "outputModuleId": 17,
      "outputId": 1,
      "inputModuleId": 20,
      "inputId": 3,
      "color": "#0c8e15"
    },
    {
      "id": 56,
      "outputModuleId": 20,
      "outputId": 0,
      "inputModuleId": 21,
      "inputId": 5,
      "color": "#0986ad"
    },
    {
      "id": 78,
      "outputModuleId": 21,
      "outputId": 0,
      "inputModuleId": 2,
      "inputId": 1,
      "color": "#c91847"
    },
    {
      "id": 72,
      "outputModuleId": 19,
      "outputId": 8,
      "inputModuleId": 18,
      "inputId": 5,
      "color": "#0986ad"
    },
    {
      "id": 79,
      "outputModuleId": 19,
      "outputId": 7,
      "inputModuleId": 17,
      "inputId": 0,
      "color": "#0986ad"
    },
    {
      "id": 80,
      "outputModuleId": 18,
      "outputId": 0,
      "inputModuleId": 19,
      "inputId": 15,
      "color": "#c9b70e"
    },
    {
      "id": 81,
      "outputModuleId": 18,
      "outputId": 1,
      "inputModuleId": 19,
      "inputId": 9,
      "color": "#0c8e15"
    },
    {
      "id": 83,
      "outputModuleId": 21,
      "outputId": 1,
      "inputModuleId": 2,
      "inputId": 2,
      "color": "#0986ad"
    },
    {
      "id": 84,
      "outputModuleId": 6,
      "outputId": 0,
      "inputModuleId": 2,
      "inputId": 6,
      "color": "#c9b70e"
    },
    {
      "id": 85,
      "outputModuleId": 2,
      "outputId": 2,
      "inputModuleId": 7,
      "inputId": 1,
      "color": "#0c8e15"
    },
    {
      "id": 53,
      "outputModuleId": 6,
      "outputId": 0,
      "inputModuleId": 20,
      "inputId": 1,
      "color": "#c91847"
    },
    {
      "id": 86,
      "outputModuleId": 17,
      "outputId": 0,
      "inputModuleId": 22,
      "inputId": 3,
      "color": "#0986ad"
    },
    {
      "id": 87,
      "outputModuleId": 19,
      "outputId": 11,
      "inputModuleId": 22,
      "inputId": 1,
      "color": "#c9b70e"
    },
    {
      "id": 88,
      "outputModuleId": 22,
      "outputId": 0,
      "inputModuleId": 21,
      "inputId": 6,
      "color": "#0c8e15"
    },
    {
      "id": 89,
      "outputModuleId": 19,
      "outputId": 10,
      "inputModuleId": 21,
      "inputId": 2,
      "color": "#c91847"
    },
    {
      "id": 64,
      "outputModuleId": 19,
      "outputId": 13,
      "inputModuleId": 18,
      "inputId": 3,
      "color": "#0c8e15"
    },
    {
      "id": 90,
      "outputModuleId": 19,
      "outputId": 12,
      "inputModuleId": 18,
      "inputId": 1,
      "color": "#0986ad"
    },
    {
      "id": 91,
      "outputModuleId": 19,
      "outputId": 9,
      "inputModuleId": 22,
      "inputId": 0,
      "color": "#c9b70e"
    },
    {
      "id": 92,
      "outputModuleId": 24,
      "outputId": 0,
      "inputModuleId": 22,
      "inputId": 2,
      "color": "#c9b70e"
    },
    {
      "id": 93,
      "outputModuleId": 24,
      "outputId": 0,
      "inputModuleId": 20,
      "inputId": 2,
      "color": "#0c8e15"
    },
    {
      "id": 54,
      "outputModuleId": 25,
      "outputId": 0,
      "inputModuleId": 6,
      "inputId": 4,
      "color": "#c9b70e"
    },
    {
      "id": 58,
      "outputModuleId": 5,
      "outputId": 6,
      "inputModuleId": 6,
      "inputId": 5,
      "color": "#c91847"
    },
    {
      "id": 71,
      "outputModuleId": 5,
      "outputId": 6,
      "inputModuleId": 18,
      "inputId": 6,
      "color": "#c91847"
    },
    {
      "id": 94,
      "outputModuleId": 25,
      "outputId": 0,
      "inputModuleId": 21,
      "inputId": 7,
      "color": "#c9b70e"
    }
  ]
}