{
  "version": "1.1.6",
  "modules": [
    {
      "id": 1,
      "plugin": "Core",
      "version": "1.1.6",
      "model": "AudioInterface",
      "params": [],
      "leftModuleId": 2,
      "rightModuleId": 8,
      "data": {
        "audio": {
          "driver": 5,
          "deviceName": "Apple Inc.: MacBook Pro Speakers",
          "offset": 0,
          "maxChannels": 8,
          "sampleRate": 44100,
          "blockSize": 256
        }
      },
      "pos": [
        59,
        0
      ]
    },
    {
      "id": 2,
      "plugin": "Fundamental",
      "version": "1.4.0",
      "model": "VCMixer",
      "params": [
        {
          "id": 0,
          "value": 1.34900045
        },
        {
          "id": 1,
          "value": 1.0
        },
        {
          "id": 2,
          "value": 1.0
        },
        {
          "id": 3,
          "value": 1.0
        },
        {
          "id": 4,
          "value": 1.0
        }
      ],
      "leftModuleId": 7,
      "rightModuleId": 1,
      "pos": [
        49,
        0
      ]
    },
    {
      "id": 5,
      "plugin": "Core",
      "version": "1.1.6",
      "model": "MIDIToCVInterface",
      "params": [],
      "rightModuleId": 26,
      "data": {
        "channels": 1,
        "polyMode": 0,
        "clockDivision": 24,
        "lastPitch": 8192,
        "lastMod": 0,
        "midi": {
          "driver": -11,
          "deviceName": "QWERTY keyboard (US)",
          "channel": -1
        }
      },
      "pos": [
        2,
        0
      ]
    },
    {
      "id": 6,
      "plugin": "Fundamental",
      "version": "1.4.0",
      "model": "ADSR",
      "params": [
        {
          "id": 0,
          "value": 0.258000046
        },
        {
          "id": 1,
          "value": 0.743000448
        },
        {
          "id": 2,
          "value": 0.5
        },
        {
          "id": 3,
          "value": 0.576500058
        }
      ],
      "leftModuleId": 26,
      "rightModuleId": 7,
      "pos": [
        28,
        0
      ]
    },
    {
      "id": 7,
      "plugin": "Fundamental",
      "version": "1.4.0",
      "model": "Scope",
      "params": [
        {
          "id": 0,
          "value": 0.0
        },
        {
          "id": 1,
          "value": 0.0
        },
        {
          "id": 2,
          "value": 0.0
        },
        {
          "id": 3,
          "value": 0.0
        },
        {
          "id": 4,
          "value": 14.0
        },
        {
          "id": 5,
          "value": 0.0
        },
        {
          "id": 6,
          "value": 0.0
        },
        {
          "id": 7,
          "value": 0.0
        }
      ],
      "leftModuleId": 6,
      "rightModuleId": 2,
      "data": {
        "lissajous": 0,
        "external": 0
      },
      "pos": [
        36,
        0
      ]
    },
    {
      "id": 8,
      "plugin": "Core",
      "version": "1.1.6",
      "model": "Notes",
      "params": [],
      "leftModuleId": 1,
      "text": "Demo patch instructions:\n\n1. Choose an audio driver and device in the AUDIO-8 module.\n\n2. Use the QWERTY and ZXCVB rows of your keyboard to generate MIDI notes, which are converted to 1V/oct and GATE signals.\n\n3. Drag knobs up/down. Hold Ctrl (Cmd on Mac) while dragging to fine-tune. Right-click knobs to edit, or double-click to initialize.\n\n4. Drag ports to create and move cables. Stack multiple cables on outputs by holding Ctrl (Cmd on Mac) and dragging from an output.\n\n5. Right-click on an empty rack space to add new modules.",
      "pos": [
        69,
        0
      ]
    },
    {
      "id": 26,
      "plugin": "Atelier",
      "version": "1.0.5",
      "model": "AtelierPalette",
      "params": [
        {
          "id": 0,
          "value": 0.0
        },
        {
          "id": 1,
          "value": 0.0
        },
        {
          "id": 2,
          "value": -2.0
        },
        {
          "id": 3,
          "value": 0.0
        },
        {
          "id": 4,
          "value": 0.0
        },
        {
          "id": 5,
          "value": 0.97099936
        },
        {
          "id": 6,
          "value": 0.0
        },
        {
          "id": 7,
          "value": 0.0
        },
        {
          "id": 8,
          "value": 0.0
        },
        {
          "id": 9,
          "value": 0.0
        },
        {
          "id": 10,
          "value": 0.0
        },
        {
          "id": 11,
          "value": 0.0
        },
        {
          "id": 12,
          "value": 0.750499845
        },
        {
          "id": 13,
          "value": 0.367999941
        },
        {
          "id": 14,
          "value": 0.578499794
        },
        {
          "id": 15,
          "value": 0.0
        },
        {
          "id": 16,
          "value": 0.0
        },
        {
          "id": 17,
          "value": 1.0
        },
        {
          "id": 18,
          "value": 0.0500000007
        },
        {
          "id": 19,
          "value": 0.0
        },
        {
          "id": 20,
          "value": 0.0
        },
        {
          "id": 21,
          "value": 0.0
        },
        {
          "id": 22,
          "value": 0.0
        },
        {
          "id": 23,
          "value": 0.0
        },
        {
          "id": 24,
          "value": 0.0
        },
        {
          "id": 25,
          "value": 2.49900055
        },
        {
          "id": 26,
          "value": 0.0
        }
      ],
      "leftModuleId": 5,
      "rightModuleId": 6,
      "data": {
        "rsqual": 4,
        "model": 5,
        "lpgColor": 0.750499845,
        "decay": 0.367999941,
        "freetune": false,
        "showmods": true,
        "lpgMode": 0
      },
      "pos": [
        10,
        0
      ]
    },
    {
      "id": 28,
      "plugin": "KautenjaDSP-PotatoChips",
      "version": "1.11.0",
      "model": "SuperEcho",
      "params": [
        {
          "id": 0,
          "value": 10.0
        },
        {
          "id": 1,
          "value": 0.0
        },
        {
          "id": 2,
          "value": 0.0
        },
        {
          "id": 3,
          "value": 0.0
        },
        {
          "id": 4,
          "value": 13.0
        },
        {
          "id": 5,
          "value": 34.0
        },
        {
          "id": 6,
          "value": 34.0
        },
        {
          "id": 7,
          "value": 36.0
        },
        {
          "id": 8,
          "value": 17.0
        },
        {
          "id": 9,
          "value": -16.0
        },
        {
          "id": 10,
          "value": 3.0
        },
        {
          "id": 11,
          "value": -1.0
        },
        {
          "id": 12,
          "value": 0.0
        },
        {
          "id": 13,
          "value": 0.0
        },
        {
          "id": 14,
          "value": 0.0
        },
        {
          "id": 15,
          "value": 0.0
        },
        {
          "id": 16,
          "value": 0.0
        },
        {
          "id": 17,
          "value": 0.0
        },
        {
          "id": 18,
          "value": 0.0
        },
        {
          "id": 19,
          "value": 0.0
        },
        {
          "id": 20,
          "value": 1.0
        },
        {
          "id": 21,
          "value": 1.0
        },
        {
          "id": 22,
          "value": 1.0
        }
      ],
      "leftModuleId": 30,
      "rightModuleId": 29,
      "pos": [
        10,
        1
      ]
    },
    {
      "id": 29,
      "plugin": "AudibleInstruments",
      "version": "1.5.0",
      "model": "Tides",
      "params": [
        {
          "id": 0,
          "value": 0.0
        },
        {
          "id": 1,
          "value": 0.0
        },
        {
          "id": 2,
          "value": -19.5839901
        },
        {
          "id": 3,
          "value": 0.0
        },
        {
          "id": 4,
          "value": 0.0
        },
        {
          "id": 5,
          "value": 0.0
        },
        {
          "id": 6,
          "value": 0.0
        }
      ],
      "leftModuleId": 28,
      "rightModuleId": 31,
      "data": {
        "mode": 1,
        "range": 1,
        "sheep": false
      },
      "pos": [
        26,
        1
      ]
    },
    {
      "id": 30,
      "plugin": "Core",
      "version": "1.1.6",
      "model": "MIDITriggerToCVInterface",
      "params": [],
      "rightModuleId": 28,
      "data": {
        "notes": [
          46,
          42,
          38,
          36,
          44,
          45,
          46,
          47,
          40,
          41,
          42,
          43,
          36,
          37,
          38,
          39
        ],
        "velocity": false,
        "midi": {
          "driver": -11,
          "deviceName": "QWERTY keyboard (US)",
          "channel": -1
        }
      },
      "pos": [
        0,
        1
      ]
    },
    {
      "id": 31,
      "plugin": "LittleUtils",
      "version": "1.0.3",
      "model": "MultiplyDivide",
      "params": [
        {
          "id": 0,
          "value": 0.0
        },
        {
          "id": 1,
          "value": 0.0
        },
        {
          "id": 2,
          "value": 0.0
        },
        {
          "id": 3,
          "value": 1.0
        }
      ],
      "leftModuleId": 29,
      "rightModuleId": 32,
      "pos": [
        40,
        1
      ]
    },
    {
      "id": 32,
      "plugin": "Hora-treasureFree",
      "version": "1.0.3",
      "model": "HiHat",
      "params": [
        {
          "id": 0,
          "value": 0.5
        },
        {
          "id": 1,
          "value": 0.600000024
        },
        {
          "id": 2,
          "value": 0.730440021
        },
        {
          "id": 3,
          "value": 0.0
        },
        {
          "id": 4,
          "value": 0.0
        },
        {
          "id": 5,
          "value": 0.0
        },
        {
          "id": 6,
          "value": 1.25049996
        },
        {
          "id": 7,
          "value": 0.800000012
        },
        {
          "id": 8,
          "value": 0.800000012
        },
        {
          "id": 9,
          "value": 0.600000024
        },
        {
          "id": 10,
          "value": 0.100000001
        },
        {
          "id": 11,
          "value": 0.421000004
        }
      ],
      "leftModuleId": 31,
      "rightModuleId": 33,
      "pos": [
        43,
        1
      ]
    },
    {
      "id": 33,
      "plugin": "Hora-treasureFree",
      "version": "1.0.3",
      "model": "Deep",
      "params": [
        {
          "id": 0,
          "value": 0.878800035
        },
        {
          "id": 1,
          "value": 0.329599977
        },
        {
          "id": 2,
          "value": 0.0
        },
        {
          "id": 3,
          "value": 0.401000023
        },
        {
          "id": 4,
          "value": 0.385549515
        },
        {
          "id": 5,
          "value": 0.196499944
        },
        {
          "id": 6,
          "value": 4.5763979
        },
        {
          "id": 7,
          "value": 0.659849703
        },
        {
          "id": 8,
          "value": 0.800000012
        },
        {
          "id": 9,
          "value": 0.0
        },
        {
          "id": 10,
          "value": 1.0
        },
        {
          "id": 11,
          "value": 0.86530447
        },
        {
          "id": 12,
          "value": 0.874200106
        },
        {
          "id": 13,
          "value": -0.0749999583
        }
      ],
      "leftModuleId": 32,
      "rightModuleId": 35,
      "pos": [
        51,
        1
      ]
    },
    {
      "id": 35,
      "plugin": "squinkylabs-plug1",
      "version": "1.0.23",
      "model": "squinkylabs-mix8",
      "params": [
        {
          "id": 0,
          "value": 0.800000012
        },
        {
          "id": 1,
          "value": 0.0
        },
        {
          "id": 2,
          "value": 0.800000012
        },
        {
          "id": 3,
          "value": 0.354500234
        },
        {
          "id": 4,
          "value": 0.336499989
        },
        {
          "id": 5,
          "value": 0.582499981
        },
        {
          "id": 6,
          "value": 0.800000012
        },
        {
          "id": 7,
          "value": 0.800000012
        },
        {
          "id": 8,
          "value": 0.800000012
        },
        {
          "id": 9,
          "value": 0.800000012
        },
        {
          "id": 10,
          "value": 0.0
        },
        {
          "id": 11,
          "value": 0.0
        },
        {
          "id": 12,
          "value": 0.0
        },
        {
          "id": 13,
          "value": 0.0
        },
        {
          "id": 14,
          "value": 0.0
        },
        {
          "id": 15,
          "value": 0.0
        },
        {
          "id": 16,
          "value": 0.0
        },
        {
          "id": 17,
          "value": 0.0
        },
        {
          "id": 18,
          "value": 0.0
        },
        {
          "id": 19,
          "value": 0.0
        },
        {
          "id": 20,
          "value": 0.0
        },
        {
          "id": 21,
          "value": 0.0
        },
        {
          "id": 22,
          "value": 0.0
        },
        {
          "id": 23,
          "value": 0.0
        },
        {
          "id": 24,
          "value": 0.0
        },
        {
          "id": 25,
          "value": 0.0
        },
        {
          "id": 26,
          "value": 0.0
        },
        {
          "id": 27,
          "value": 0.0
        },
        {
          "id": 28,
          "value": 0.0
        },
        {
          "id": 29,
          "value": 0.0
        },
        {
          "id": 30,
          "value": 0.0
        },
        {
          "id": 31,
          "value": 0.0
        },
        {
          "id": 32,
          "value": 0.0
        },
        {
          "id": 33,
          "value": 0.0
        },
        {
          "id": 34,
          "value": 0.0
        },
        {
          "id": 35,
          "value": 0.0
        },
        {
          "id": 36,
          "value": 0.0
        },
        {
          "id": 37,
          "value": 0.0
        },
        {
          "id": 38,
          "value": 0.0
        },
        {
          "id": 39,
          "value": 0.0
        },
        {
          "id": 40,
          "value": 0.0
        },
        {
          "id": 41,
          "value": 0.0
        },
        {
          "id": 42,
          "value": 0.0
        }
      ],
      "leftModuleId": 33,
      "pos": [
        59,
        1
      ]
    },
    {
      "id": 36,
      "plugin": "EricaCopies",
      "version": "1.0.4",
      "model": "FusionDelay",
      "params": [
        {
          "id": 0,
          "value": 1.0
        },
        {
          "id": 1,
          "value": 0.977000296
        },
        {
          "id": 2,
          "value": 0.786499441
        },
        {
          "id": 3,
          "value": 0.19149974
        },
        {
          "id": 4,
          "value": 0.423999935
        },
        {
          "id": 5,
          "value": 0.401500285
        },
        {
          "id": 6,
          "value": 0.877499759
        },
        {
          "id": 7,
          "value": 0.767000318
        },
        {
          "id": 8,
          "value": 0.215648919
        }
      ],
      "pos": [
        10,
        2
      ]
    }
  ],
  "cables": [
    {
      "id": 100,
      "outputModuleId": 5,
      "outputId": 1,
      "inputModuleId": 6,
      "inputId": 4,
      "color": "#c9b70e"
    },
    {
      "id": 104,
      "outputModuleId": 5,
      "outputId": 6,
      "inputModuleId": 6,
      "inputId": 5,
      "color": "#c91847"
    },
    {
      "id": 95,
      "outputModuleId": 5,
      "outputId": 0,
      "inputModuleId": 26,
      "inputId": 7,
      "color": "#c91847"
    },
    {
      "id": 109,
      "outputModuleId": 26,
      "outputId": 0,
      "inputModuleId": 28,
      "inputId": 0,
      "color": "#0986ad"
    },
    {
      "id": 110,
      "outputModuleId": 26,
      "outputId": 1,
      "inputModuleId": 28,
      "inputId": 1,
      "color": "#c9b70e"
    },
    {
      "id": 111,
      "outputModuleId": 29,
      "outputId": 2,
      "inputModuleId": 28,
      "inputId": 2,
      "color": "#0c8e15"
    },
    {
      "id": 112,
      "outputModuleId": 5,
      "outputId": 0,
      "inputModuleId": 29,
      "inputId": 5,
      "color": "#c91847"
    },
    {
      "id": 115,
      "outputModuleId": 29,
      "outputId": 3,
      "inputModuleId": 28,
      "inputId": 3,
      "color": "#0c8e15"
    },
    {
      "id": 121,
      "outputModuleId": 5,
      "outputId": 6,
      "inputModuleId": 29,
      "inputId": 8,
      "color": "#c9b70e"
    },
    {
      "id": 122,
      "outputModuleId": 6,
      "outputId": 0,
      "inputModuleId": 29,
      "inputId": 3,
      "color": "#0c8e15"
    },
    {
      "id": 123,
      "outputModuleId": 29,
      "outputId": 0,
      "inputModuleId": 28,
      "inputId": 12,
      "color": "#c91847"
    },
    {
      "id": 124,
      "outputModuleId": 29,
      "outputId": 1,
      "inputModuleId": 28,
      "inputId": 8,
      "color": "#0986ad"
    },
    {
      "id": 125,
      "outputModuleId": 31,
      "outputId": 1,
      "inputModuleId": 28,
      "inputId": 10,
      "color": "#c9b70e"
    },
    {
      "id": 126,
      "outputModuleId": 31,
      "outputId": 0,
      "inputModuleId": 28,
      "inputId": 6,
      "color": "#0c8e15"
    },
    {
      "id": 127,
      "outputModuleId": 29,
      "outputId": 2,
      "inputModuleId": 31,
      "inputId": 1,
      "color": "#c91847"
    },
    {
      "id": 128,
      "outputModuleId": 29,
      "outputId": 0,
      "inputModuleId": 31,
      "inputId": 0,
      "color": "#0986ad"
    },
    {
      "id": 131,
      "outputModuleId": 30,
      "outputId": 2,
      "inputModuleId": 32,
      "inputId": 1,
      "color": "#0986ad"
    },
    {
      "id": 132,
      "outputModuleId": 30,
      "outputId": 0,
      "inputModuleId": 32,
      "inputId": 2,
      "color": "#c9b70e"
    },
    {
      "id": 120,
      "outputModuleId": 30,
      "outputId": 3,
      "inputModuleId": 29,
      "inputId": 4,
      "color": "#0986ad"
    },
    {
      "id": 130,
      "outputModuleId": 30,
      "outputId": 1,
      "inputModuleId": 32,
      "inputId": 0,
      "color": "#c91847"
    },
    {
      "id": 134,
      "outputModuleId": 29,
      "outputId": 2,
      "inputModuleId": 33,
      "inputId": 3,
      "color": "#c91847"
    },
    {
      "id": 135,
      "outputModuleId": 30,
      "outputId": 3,
      "inputModuleId": 33,
      "inputId": 0,
      "color": "#0986ad"
    },
    {
      "id": 98,
      "outputModuleId": 35,
      "outputId": 0,
      "inputModuleId": 1,
      "inputId": 1,
      "color": "#c9b70e"
    },
    {
      "id": 97,
      "outputModuleId": 35,
      "outputId": 1,
      "inputModuleId": 1,
      "inputId": 0,
      "color": "#0986ad"
    },
    {
      "id": 107,
      "outputModuleId": 6,
      "outputId": 0,
      "inputModuleId": 35,
      "inputId": 11,
      "color": "#0c8e15"
    },
    {
      "id": 103,
      "outputModuleId": 35,
      "outputId": 5,
      "inputModuleId": 7,
      "inputId": 0,
      "color": "#c9b70e"
    },
    {
      "id": 133,
      "outputModuleId": 32,
      "outputId": 2,
      "inputModuleId": 35,
      "inputId": 0,
      "color": "#0c8e15"
    },
    {
      "id": 136,
      "outputModuleId": 33,
      "outputId": 2,
      "inputModuleId": 36,
      "inputId": 1,
      "color": "#c9b70e"
    },
    {
      "id": 139,
      "outputModuleId": 36,
      "outputId": 1,
      "inputModuleId": 35,
      "inputId": 1,
      "color": "#c9b70e"
    },
    {
      "id": 137,
      "outputModuleId": 35,
      "outputId": 3,
      "inputModuleId": 7,
      "inputId": 1,
      "color": "#c91847"
    },
    {
      "id": 101,
      "outputModuleId": 6,
      "outputId": 0,
      "inputModuleId": 35,
      "inputId": 13,
      "color": "#0c8e15"
    },
    {
      "id": 116,
      "outputModuleId": 26,
      "outputId": 2,
      "inputModuleId": 35,
      "inputId": 5,
      "color": "#c91847"
    },
    {
      "id": 129,
      "outputModuleId": 28,
      "outputId": 1,
      "inputModuleId": 35,
      "inputId": 4,
      "color": "#0c8e15"
    },
    {
      "id": 106,
      "outputModuleId": 28,
      "outputId": 0,
      "inputModuleId": 35,
      "inputId": 3,
      "color": "#c9b70e"
    },
    {
      "id": 117,
      "outputModuleId": 6,
      "outputId": 0,
      "inputModuleId": 35,
      "inputId": 12,
      "color": "#0986ad"
    },
    {
      "id": 140,
      "outputModuleId": 36,
      "outputId": 0,
      "inputModuleId": 35,
      "inputId": 2,
      "color": "#0c8e15"
    },
    {
      "id": 141,
      "outputModuleId": 6,
      "outputId": 0,
      "inputModuleId": 35,
      "inputId": 10,
      "color": "#c9b70e"
    },
    {
      "id": 142,
      "outputModuleId": 6,
      "outputId": 0,
      "inputModuleId": 35,
      "inputId": 9,
      "color": "#0c8e15"
    },
    {
      "id": 143,
      "outputModuleId": 5,
      "outputId": 1,
      "inputModuleId": 36,
      "inputId": 0,
      "color": "#c91847"
    }
  ]
}