{
  "version": "1.1.6",
  "modules": [
    {
      "id": 0,
      "plugin": "Core",
      "version": "1.1.6",
      "model": "MIDIToCVInterface",
      "params": [],
      "rightModuleId": 3,
      "data": {
        "channels": 1,
        "polyMode": 0,
        "clockDivision": 24,
        "lastPitch": 8192,
        "lastMod": 0,
        "midi": {
          "driver": 1,
          "deviceName": "Adafruit Trellis M4",
          "channel": -1
        }
      },
      "pos": [
        0,
        0
      ]
    },
    {
      "id": 1,
      "plugin": "Befaco",
      "version": "1.0.1",
      "model": "EvenVCO",
      "params": [
        {
          "id": 0,
          "value": 0.0
        },
        {
          "id": 1,
          "value": 0.0
        },
        {
          "id": 2,
          "value": 0.0
        }
      ],
      "leftModuleId": 3,
      "rightModuleId": 4,
      "pos": [
        13,
        0
      ]
    },
    {
      "id": 2,
      "plugin": "Core",
      "version": "1.1.6",
      "model": "AudioInterface",
      "params": [],
      "data": {
        "audio": {
          "driver": 5,
          "deviceName": "Apple Inc.: Built-in Output",
          "offset": 0,
          "maxChannels": 8,
          "sampleRate": 44100,
          "blockSize": 256
        }
      },
      "pos": [
        70,
        0
      ]
    },
    {
      "id": 3,
      "plugin": "mscHack",
      "version": "1.0.2",
      "model": "Dronez",
      "params": [
        {
          "id": 0,
          "value": 4.0
        }
      ],
      "leftModuleId": 0,
      "rightModuleId": 1,
      "data": {
        "m_Seed": [
          -30704537
        ]
      },
      "pos": [
        8,
        0
      ]
    },
    {
      "id": 4,
      "plugin": "FrozenWasteland",
      "version": "1.12.0",
      "model": "VoxInhumana",
      "params": [
        {
          "id": 0,
          "value": 0.127786055
        },
        {
          "id": 1,
          "value": 0.252393544
        },
        {
          "id": 2,
          "value": 0.492347896
        },
        {
          "id": 3,
          "value": 4.0
        },
        {
          "id": 4,
          "value": 0.937834263
        },
        {
          "id": 5,
          "value": -0.0154136419
        },
        {
          "id": 6,
          "value": 0.0517770611
        },
        {
          "id": 7,
          "value": -0.417366505
        },
        {
          "id": 8,
          "value": 0.851500273
        },
        {
          "id": 9,
          "value": -0.353465557
        },
        {
          "id": 10,
          "value": 1.54849911
        },
        {
          "id": 11,
          "value": 1.38413858
        },
        {
          "id": 12,
          "value": 0.433109164
        },
        {
          "id": 13,
          "value": 1.7393682
        },
        {
          "id": 14,
          "value": 1.03113663
        },
        {
          "id": 15,
          "value": -0.264730692
        },
        {
          "id": 16,
          "value": -0.970554948
        },
        {
          "id": 17,
          "value": 0.550909758
        },
        {
          "id": 18,
          "value": 0.448630452
        },
        {
          "id": 19,
          "value": 0.0192497969
        },
        {
          "id": 20,
          "value": 0.967348814
        },
        {
          "id": 21,
          "value": 0.218223527
        },
        {
          "id": 22,
          "value": 0.700687885
        },
        {
          "id": 23,
          "value": -0.331762075
        },
        {
          "id": 24,
          "value": 0.152205706
        },
        {
          "id": 25,
          "value": -0.112815402
        },
        {
          "id": 26,
          "value": -0.0841729119
        },
        {
          "id": 27,
          "value": -0.0491413958
        },
        {
          "id": 28,
          "value": 0.570223093
        },
        {
          "id": 29,
          "value": 0.255644917
        }
      ],
      "leftModuleId": 1,
      "rightModuleId": 7,
      "pos": [
        21,
        0
      ]
    },
    {
      "id": 5,
      "plugin": "AmalgamatedHarmonics",
      "version": "1.0.4",
      "model": "Generative",
      "params": [
        {
          "id": 0,
          "value": -4.48099899
        },
        {
          "id": 1,
          "value": 4.0
        },
        {
          "id": 2,
          "value": 0.352999896
        },
        {
          "id": 3,
          "value": 0.5
        },
        {
          "id": 4,
          "value": 0.178500012
        },
        {
          "id": 5,
          "value": 1.0
        },
        {
          "id": 6,
          "value": 0.5
        },
        {
          "id": 7,
          "value": 1.59699988
        },
        {
          "id": 8,
          "value": 1.28950047
        },
        {
          "id": 9,
          "value": 1.426
        },
        {
          "id": 10,
          "value": 1.64650035
        },
        {
          "id": 11,
          "value": 0.380999923
        },
        {
          "id": 12,
          "value": 0.380999148
        },
        {
          "id": 13,
          "value": 0.719499826
        }
      ],
      "rightModuleId": 6,
      "data": {
        "quantise": false,
        "offset": false
      },
      "pos": [
        0,
        1
      ]
    },
    {
      "id": 6,
      "plugin": "ImpromptuModular",
      "version": "1.1.4",
      "model": "Clocked",
      "params": [
        {
          "id": 0,
          "value": 120.0
        },
        {
          "id": 1,
          "value": 0.0
        },
        {
          "id": 2,
          "value": -1.0
        },
        {
          "id": 3,
          "value": 0.0
        },
        {
          "id": 4,
          "value": 0.0
        },
        {
          "id": 5,
          "value": 0.0
        },
        {
          "id": 6,
          "value": -0.198000044
        },
        {
          "id": 7,
          "value": 0.0
        },
        {
          "id": 8,
          "value": 0.5
        },
        {
          "id": 9,
          "value": 0.5
        },
        {
          "id": 10,
          "value": 0.705500364
        },
        {
          "id": 11,
          "value": 0.5
        },
        {
          "id": 12,
          "value": 0.0
        },
        {
          "id": 13,
          "value": 0.0
        },
        {
          "id": 14,
          "value": 0.0
        },
        {
          "id": 15,
          "value": 0.0
        },
        {
          "id": 16,
          "value": 2.0
        },
        {
          "id": 17,
          "value": 0.0
        },
        {
          "id": 18,
          "value": 0.0
        },
        {
          "id": 19,
          "value": 0.0
        }
      ],
      "leftModuleId": 5,
      "rightModuleId": 17,
      "data": {
        "panelTheme": 0,
        "running": false,
        "displayDelayNoteMode": true,
        "bpmDetectionMode": false,
        "restartOnStopStartRun": 0,
        "sendResetOnRestart": false,
        "ppqn": 4,
        "resetClockOutputsHigh": true,
        "momentaryRunInput": true
      },
      "pos": [
        16,
        1
      ]
    },
    {
      "id": 7,
      "plugin": "AudibleInstruments",
      "version": "1.0.2",
      "model": "Veils",
      "params": [
        {
          "id": 0,
          "value": 0.275499612
        },
        {
          "id": 1,
          "value": 0.652500451
        },
        {
          "id": 2,
          "value": 0.661000013
        },
        {
          "id": 3,
          "value": 0.549000204
        },
        {
          "id": 4,
          "value": 0.177999839
        },
        {
          "id": 5,
          "value": 1.0
        },
        {
          "id": 6,
          "value": 0.290499926
        },
        {
          "id": 7,
          "value": 1.0
        }
      ],
      "leftModuleId": 4,
      "rightModuleId": 9,
      "pos": [
        35,
        0
      ]
    },
    {
      "id": 9,
      "plugin": "mscHack",
      "version": "1.0.2",
      "model": "SynthDrums",
      "params": [
        {
          "id": 0,
          "value": 0.150000006
        },
        {
          "id": 1,
          "value": 0.151499927
        },
        {
          "id": 2,
          "value": 0.0
        },
        {
          "id": 3,
          "value": 0.123900078
        },
        {
          "id": 4,
          "value": 0.201599911
        },
        {
          "id": 5,
          "value": 0.0
        },
        {
          "id": 6,
          "value": 1.0
        },
        {
          "id": 7,
          "value": 0.362499893
        },
        {
          "id": 8,
          "value": 0.0
        }
      ],
      "leftModuleId": 7,
      "rightModuleId": 18,
      "data": {
        "wavetypes": [
          2,
          2,
          0
        ]
      },
      "pos": [
        47,
        0
      ]
    },
    {
      "id": 10,
      "plugin": "AS",
      "version": "1.0.4",
      "model": "Mixer8ch",
      "params": [
        {
          "id": 0,
          "value": 0.800000012
        },
        {
          "id": 1,
          "value": 0.800000012
        },
        {
          "id": 2,
          "value": 0.800000012
        },
        {
          "id": 3,
          "value": 0.436999828
        },
        {
          "id": 4,
          "value": 0.352999687
        },
        {
          "id": 5,
          "value": 0.800000012
        },
        {
          "id": 6,
          "value": 0.800000012
        },
        {
          "id": 7,
          "value": 0.800000012
        },
        {
          "id": 8,
          "value": 0.800000012
        },
        {
          "id": 9,
          "value": 0.0
        },
        {
          "id": 10,
          "value": 0.0
        },
        {
          "id": 11,
          "value": 0.0
        },
        {
          "id": 12,
          "value": 0.0
        },
        {
          "id": 13,
          "value": 0.0
        },
        {
          "id": 14,
          "value": 0.0
        },
        {
          "id": 15,
          "value": 0.0
        },
        {
          "id": 16,
          "value": 0.0
        },
        {
          "id": 17,
          "value": 0.0
        },
        {
          "id": 18,
          "value": 0.0
        },
        {
          "id": 19,
          "value": 0.0
        },
        {
          "id": 20,
          "value": 0.0
        },
        {
          "id": 21,
          "value": 0.0
        },
        {
          "id": 22,
          "value": 0.0
        },
        {
          "id": 23,
          "value": 0.0
        },
        {
          "id": 24,
          "value": 0.0
        },
        {
          "id": 25,
          "value": 0.0
        }
      ],
      "leftModuleId": 17,
      "data": {
        "as_MixerMutes": [
          0,
          0,
          1,
          1,
          0,
          0,
          0,
          0,
          0
        ]
      },
      "pos": [
        54,
        1
      ]
    },
    {
      "id": 17,
      "plugin": "squinkylabs-plug1",
      "version": "1.0.7",
      "model": "squinkylabs-ev3",
      "params": [
        {
          "id": 0,
          "value": 0.0
        },
        {
          "id": 1,
          "value": 0.0
        },
        {
          "id": 2,
          "value": 0.0
        },
        {
          "id": 3,
          "value": -2.0
        },
        {
          "id": 4,
          "value": -4.0
        },
        {
          "id": 5,
          "value": 0.0
        },
        {
          "id": 6,
          "value": 0.0
        },
        {
          "id": 7,
          "value": 0.0
        },
        {
          "id": 8,
          "value": 1.0
        },
        {
          "id": 9,
          "value": 0.243000075
        },
        {
          "id": 10,
          "value": -0.34799996
        },
        {
          "id": 11,
          "value": -0.0
        },
        {
          "id": 12,
          "value": -4.0
        },
        {
          "id": 13,
          "value": 0.0
        },
        {
          "id": 14,
          "value": 0.0
        },
        {
          "id": 15,
          "value": 1.0
        },
        {
          "id": 16,
          "value": 0.0
        },
        {
          "id": 17,
          "value": 0.0
        },
        {
          "id": 18,
          "value": 0.0
        },
        {
          "id": 19,
          "value": -2.0
        },
        {
          "id": 20,
          "value": 3.0
        },
        {
          "id": 21,
          "value": -0.0899999887
        },
        {
          "id": 22,
          "value": 0.0
        },
        {
          "id": 23,
          "value": 1.0
        },
        {
          "id": 24,
          "value": 2.0
        },
        {
          "id": 25,
          "value": 0.0
        },
        {
          "id": 26,
          "value": 0.0
        }
      ],
      "leftModuleId": 6,
      "rightModuleId": 10,
      "pos": [
        36,
        1
      ]
    },
    {
      "id": 18,
      "plugin": "Bogaudio",
      "version": "1.1.26",
      "model": "Bogaudio-ADSR",
      "params": [
        {
          "id": 0,
          "value": 0.132421076
        },
        {
          "id": 1,
          "value": 0.42723015
        },
        {
          "id": 2,
          "value": 0.59349978
        },
        {
          "id": 3,
          "value": 0.356729776
        },
        {
          "id": 4,
          "value": 0.0
        }
      ],
      "leftModuleId": 9,
      "data": {
        "invert": 1.0
      },
      "pos": [
        58,
        0
      ]
    }
  ],
  "cables": [
    {
      "id": 103,
      "outputModuleId": 0,
      "outputId": 0,
      "inputModuleId": 3,
      "inputId": 0,
      "color": "#c9b70e"
    },
    {
      "id": 104,
      "outputModuleId": 3,
      "outputId": 0,
      "inputModuleId": 1,
      "inputId": 1,
      "color": "#c91847"
    },
    {
      "id": 105,
      "outputModuleId": 3,
      "outputId": 1,
      "inputModuleId": 1,
      "inputId": 0,
      "color": "#0c8e15"
    },
    {
      "id": 106,
      "outputModuleId": 0,
      "outputId": 6,
      "inputModuleId": 3,
      "inputId": 1,
      "color": "#0986ad"
    },
    {
      "id": 107,
      "outputModuleId": 0,
      "outputId": 0,
      "inputModuleId": 1,
      "inputId": 2,
      "color": "#c9b70e"
    },
    {
      "id": 108,
      "outputModuleId": 5,
      "outputId": 1,
      "inputModuleId": 4,
      "inputId": 1,
      "color": "#0986ad"
    },
    {
      "id": 109,
      "outputModuleId": 5,
      "outputId": 0,
      "inputModuleId": 4,
      "inputId": 2,
      "color": "#c9b70e"
    },
    {
      "id": 110,
      "outputModuleId": 3,
      "outputId": 1,
      "inputModuleId": 5,
      "inputId": 0,
      "color": "#c91847"
    },
    {
      "id": 111,
      "outputModuleId": 1,
      "outputId": 3,
      "inputModuleId": 5,
      "inputId": 4,
      "color": "#0c8e15"
    },
    {
      "id": 112,
      "outputModuleId": 6,
      "outputId": 1,
      "inputModuleId": 5,
      "inputId": 5,
      "color": "#c9b70e"
    },
    {
      "id": 113,
      "outputModuleId": 7,
      "outputId": 0,
      "inputModuleId": 10,
      "inputId": 1,
      "color": "#c9b70e"
    },
    {
      "id": 114,
      "outputModuleId": 4,
      "outputId": 0,
      "inputModuleId": 7,
      "inputId": 1,
      "color": "#0c8e15"
    },
    {
      "id": 115,
      "outputModuleId": 7,
      "outputId": 1,
      "inputModuleId": 10,
      "inputId": 4,
      "color": "#0986ad"
    },
    {
      "id": 116,
      "outputModuleId": 0,
      "outputId": 1,
      "inputModuleId": 6,
      "inputId": 5,
      "color": "#c91847"
    },
    {
      "id": 117,
      "outputModuleId": 6,
      "outputId": 2,
      "inputModuleId": 9,
      "inputId": 3,
      "color": "#0c8e15"
    },
    {
      "id": 118,
      "outputModuleId": 9,
      "outputId": 0,
      "inputModuleId": 7,
      "inputId": 2,
      "color": "#0986ad"
    },
    {
      "id": 119,
      "outputModuleId": 10,
      "outputId": 0,
      "inputModuleId": 2,
      "inputId": 0,
      "color": "#c9b70e"
    },
    {
      "id": 120,
      "outputModuleId": 10,
      "outputId": 1,
      "inputModuleId": 2,
      "inputId": 1,
      "color": "#c91847"
    },
    {
      "id": 122,
      "outputModuleId": 0,
      "outputId": 1,
      "inputModuleId": 9,
      "inputId": 0,
      "color": "#c9b70e"
    },
    {
      "id": 123,
      "outputModuleId": 9,
      "outputId": 1,
      "inputModuleId": 7,
      "inputId": 3,
      "color": "#c91847"
    },
    {
      "id": 124,
      "outputModuleId": 6,
      "outputId": 0,
      "inputModuleId": 5,
      "inputId": 1,
      "color": "#c91847"
    },
    {
      "id": 125,
      "outputModuleId": 6,
      "outputId": 3,
      "inputModuleId": 9,
      "inputId": 4,
      "color": "#0c8e15"
    },
    {
      "id": 126,
      "outputModuleId": 0,
      "outputId": 1,
      "inputModuleId": 9,
      "inputId": 1,
      "color": "#0986ad"
    },
    {
      "id": 127,
      "outputModuleId": 7,
      "outputId": 3,
      "inputModuleId": 10,
      "inputId": 10,
      "color": "#c9b70e"
    },
    {
      "id": 121,
      "outputModuleId": 7,
      "outputId": 2,
      "inputModuleId": 10,
      "inputId": 7,
      "color": "#0986ad"
    },
    {
      "id": 129,
      "outputModuleId": 0,
      "outputId": 0,
      "inputModuleId": 17,
      "inputId": 0,
      "color": "#c91847"
    },
    {
      "id": 130,
      "outputModuleId": 0,
      "outputId": 0,
      "inputModuleId": 17,
      "inputId": 1,
      "color": "#0986ad"
    },
    {
      "id": 132,
      "outputModuleId": 17,
      "outputId": 3,
      "inputModuleId": 7,
      "inputId": 0,
      "color": "#0c8e15"
    },
    {
      "id": 134,
      "outputModuleId": 0,
      "outputId": 1,
      "inputModuleId": 18,
      "inputId": 0,
      "color": "#0986ad"
    },
    {
      "id": 135,
      "outputModuleId": 18,
      "outputId": 0,
      "inputModuleId": 10,
      "inputId": 0,
      "color": "#0c8e15"
    },
    {
      "id": 102,
      "outputModuleId": 1,
      "outputId": 2,
      "inputModuleId": 4,
      "inputId": 0,
      "color": "#0986ad"
    },
    {
      "id": 136,
      "outputModuleId": 5,
      "outputId": 2,
      "inputModuleId": 17,
      "inputId": 5,
      "color": "#c91847"
    }
  ]
}