{
  "version": "1.1.6",
  "modules": [
    {
      "id": 0,
      "plugin": "Core",
      "version": "1.1.6",
      "model": "AudioInterface",
      "params": [],
      "leftModuleId": 5,
      "data": {
        "audio": {
          "driver": 5,
          "deviceName": "Apple Inc.: Built-in Output",
          "offset": 0,
          "maxChannels": 8,
          "sampleRate": 44100,
          "blockSize": 256
        }
      },
      "pos": [
        58,
        1
      ]
    },
    {
      "id": 1,
      "plugin": "CharredDesert",
      "version": "1.3.0",
      "model": "Oscar2",
      "params": [
        {
          "id": 0,
          "value": 0.0
        },
        {
          "id": 1,
          "value": 1.0
        },
        {
          "id": 2,
          "value": 0.0
        },
        {
          "id": 3,
          "value": 0.779999852
        },
        {
          "id": 4,
          "value": 0.0
        },
        {
          "id": 5,
          "value": 1.0
        },
        {
          "id": 6,
          "value": 0.0
        },
        {
          "id": 7,
          "value": 0.0
        },
        {
          "id": 8,
          "value": 1.56000042
        },
        {
          "id": 9,
          "value": 0.517499983
        },
        {
          "id": 10,
          "value": 5.0
        },
        {
          "id": 11,
          "value": 1.0
        },
        {
          "id": 12,
          "value": 1.0
        }
      ],
      "leftModuleId": 2,
      "rightModuleId": 3,
      "pos": [
        30,
        0
      ]
    },
    {
      "id": 2,
      "plugin": "CharredDesert",
      "version": "1.3.0",
      "model": "Oscar2",
      "params": [
        {
          "id": 0,
          "value": 1.0
        },
        {
          "id": 1,
          "value": 2.0
        },
        {
          "id": 2,
          "value": 0.0
        },
        {
          "id": 3,
          "value": 0.524999857
        },
        {
          "id": 4,
          "value": 0.0
        },
        {
          "id": 5,
          "value": 3.0
        },
        {
          "id": 6,
          "value": 0.0
        },
        {
          "id": 7,
          "value": 0.0599999912
        },
        {
          "id": 8,
          "value": 0.592499793
        },
        {
          "id": 9,
          "value": 1.29750013
        },
        {
          "id": 10,
          "value": 5.0
        },
        {
          "id": 11,
          "value": 1.0
        },
        {
          "id": 12,
          "value": 1.0
        }
      ],
      "leftModuleId": 13,
      "rightModuleId": 1,
      "pos": [
        20,
        0
      ]
    },
    {
      "id": 3,
      "plugin": "Befaco",
      "version": "1.0.1",
      "model": "Rampage",
      "params": [
        {
          "id": 0,
          "value": 1.0
        },
        {
          "id": 1,
          "value": 1.0
        },
        {
          "id": 2,
          "value": -1.0
        },
        {
          "id": 3,
          "value": 0.69500035
        },
        {
          "id": 4,
          "value": 0.0
        },
        {
          "id": 5,
          "value": 0.0
        },
        {
          "id": 6,
          "value": 0.0939993039
        },
        {
          "id": 7,
          "value": 0.0899999812
        },
        {
          "id": 8,
          "value": 0.188999832
        },
        {
          "id": 9,
          "value": 0.13199988
        },
        {
          "id": 10,
          "value": 1.0
        },
        {
          "id": 11,
          "value": 1.0
        },
        {
          "id": 12,
          "value": 0.5
        }
      ],
      "leftModuleId": 1,
      "rightModuleId": 9,
      "pos": [
        40,
        0
      ]
    },
    {
      "id": 4,
      "plugin": "squinkylabs-plug1",
      "version": "1.0.7",
      "model": "squinkylabs-vocalanimator",
      "params": [
        {
          "id": 0,
          "value": -3.46000171
        },
        {
          "id": 1,
          "value": -1.34427524
        },
        {
          "id": 2,
          "value": -2.52056074
        },
        {
          "id": 3,
          "value": -3.81660366
        },
        {
          "id": 4,
          "value": -0.748000324
        },
        {
          "id": 5,
          "value": -0.842209458
        },
        {
          "id": 6,
          "value": -0.569483757
        },
        {
          "id": 7,
          "value": -0.0779645443
        },
        {
          "id": 8,
          "value": 1.0
        },
        {
          "id": 9,
          "value": 0.0
        },
        {
          "id": 10,
          "value": 1.0
        }
      ],
      "leftModuleId": 10,
      "rightModuleId": 6,
      "pos": [
        20,
        1
      ]
    },
    {
      "id": 5,
      "plugin": "modular80",
      "version": "1.0.1",
      "model": "RadioMusic",
      "params": [
        {
          "id": 0,
          "value": 0.0780001804
        },
        {
          "id": 1,
          "value": 0.0929999799
        },
        {
          "id": 2,
          "value": 0.0
        }
      ],
      "leftModuleId": 6,
      "rightModuleId": 0,
      "data": {
        "loopingEnabled": false,
        "enableCrossfade": false,
        "sortFiles": false,
        "allowAllFiles": false,
        "rootDir": "/Volumes/workStation/MEDIA/_aLib",
        "currentBank": 0
      },
      "pos": [
        54,
        1
      ]
    },
    {
      "id": 6,
      "plugin": "ImpromptuModular",
      "version": "1.1.4",
      "model": "Clocked",
      "params": [
        {
          "id": 0,
          "value": 120.0
        },
        {
          "id": 1,
          "value": 0.0
        },
        {
          "id": 2,
          "value": 7.0
        },
        {
          "id": 3,
          "value": 0.0
        },
        {
          "id": 4,
          "value": 0.11399997
        },
        {
          "id": 5,
          "value": 0.0
        },
        {
          "id": 6,
          "value": 0.210000023
        },
        {
          "id": 7,
          "value": 0.0
        },
        {
          "id": 8,
          "value": 0.5
        },
        {
          "id": 9,
          "value": 0.5
        },
        {
          "id": 10,
          "value": 0.351500034
        },
        {
          "id": 11,
          "value": 0.5
        },
        {
          "id": 12,
          "value": 0.0
        },
        {
          "id": 13,
          "value": 0.0
        },
        {
          "id": 14,
          "value": 0.0
        },
        {
          "id": 15,
          "value": 0.0
        },
        {
          "id": 16,
          "value": 5.0
        },
        {
          "id": 17,
          "value": 0.0
        },
        {
          "id": 18,
          "value": 0.0
        },
        {
          "id": 19,
          "value": 0.0
        }
      ],
      "leftModuleId": 4,
      "rightModuleId": 5,
      "data": {
        "panelTheme": 0,
        "running": true,
        "displayDelayNoteMode": true,
        "bpmDetectionMode": false,
        "restartOnStopStartRun": 0,
        "sendResetOnRestart": false,
        "ppqn": 4,
        "resetClockOutputsHigh": true,
        "momentaryRunInput": true
      },
      "pos": [
        34,
        1
      ]
    },
    {
      "id": 7,
      "plugin": "HetrickCV",
      "version": "1.0.0",
      "model": "Exponent",
      "params": [
        {
          "id": 0,
          "value": 1.70500898
        },
        {
          "id": 1,
          "value": -0.238999993
        },
        {
          "id": 2,
          "value": 1.0
        }
      ],
      "rightModuleId": 13,
      "pos": [
        11,
        0
      ]
    },
    {
      "id": 9,
      "plugin": "AS",
      "version": "1.0.4",
      "model": "Mixer8ch",
      "params": [
        {
          "id": 0,
          "value": 1.0
        },
        {
          "id": 1,
          "value": 0.489000022
        },
        {
          "id": 2,
          "value": 0.504999578
        },
        {
          "id": 3,
          "value": 0.516000032
        },
        {
          "id": 4,
          "value": 0.058999557
        },
        {
          "id": 5,
          "value": 0.72200042
        },
        {
          "id": 6,
          "value": 0.800000012
        },
        {
          "id": 7,
          "value": 0.800000012
        },
        {
          "id": 8,
          "value": 0.800000012
        },
        {
          "id": 9,
          "value": 0.0
        },
        {
          "id": 10,
          "value": 0.0
        },
        {
          "id": 11,
          "value": 0.0
        },
        {
          "id": 12,
          "value": 0.0
        },
        {
          "id": 13,
          "value": 0.0
        },
        {
          "id": 14,
          "value": 0.0
        },
        {
          "id": 15,
          "value": 0.0
        },
        {
          "id": 16,
          "value": 0.0
        },
        {
          "id": 17,
          "value": 0.0
        },
        {
          "id": 18,
          "value": 0.0
        },
        {
          "id": 19,
          "value": 0.0
        },
        {
          "id": 20,
          "value": 0.0
        },
        {
          "id": 21,
          "value": 0.0
        },
        {
          "id": 22,
          "value": 0.0
        },
        {
          "id": 23,
          "value": 0.0
        },
        {
          "id": 24,
          "value": 0.0
        },
        {
          "id": 25,
          "value": 0.0
        }
      ],
      "leftModuleId": 3,
      "data": {
        "as_MixerMutes": [
          0,
          0,
          0,
          0,
          0,
          0,
          0,
          0,
          0
        ]
      },
      "pos": [
        58,
        0
      ]
    },
    {
      "id": 10,
      "plugin": "RJModules",
      "version": "1.7.2",
      "model": "Randoms",
      "params": [],
      "leftModuleId": 11,
      "rightModuleId": 4,
      "pos": [
        10,
        1
      ]
    },
    {
      "id": 11,
      "plugin": "Core",
      "version": "1.1.6",
      "model": "MIDITriggerToCVInterface",
      "params": [],
      "rightModuleId": 10,
      "data": {
        "notes": [
          46,
          36,
          38,
          51,
          44,
          45,
          46,
          47,
          40,
          41,
          42,
          43,
          36,
          37,
          38,
          39
        ],
        "velocity": false,
        "midi": {
          "driver": 1,
          "deviceName": "Adafruit Trellis M4",
          "channel": -1
        }
      },
      "pos": [
        0,
        1
      ]
    },
    {
      "id": 12,
      "plugin": "Core",
      "version": "1.1.6",
      "model": "MIDIToCVInterface",
      "params": [],
      "data": {
        "channels": 1,
        "polyMode": 0,
        "clockDivision": 24,
        "lastPitch": 8192,
        "lastMod": 0,
        "midi": {
          "driver": 1,
          "deviceName": "Adafruit Trellis M4",
          "channel": -1
        }
      },
      "pos": [
        0,
        0
      ]
    },
    {
      "id": 13,
      "plugin": "Bogaudio",
      "version": "1.1.26",
      "model": "Bogaudio-ADSR",
      "params": [
        {
          "id": 0,
          "value": 0.176999986
        },
        {
          "id": 1,
          "value": 0.332730144
        },
        {
          "id": 2,
          "value": 0.455499321
        },
        {
          "id": 3,
          "value": 0.422729552
        },
        {
          "id": 4,
          "value": 0.0
        }
      ],
      "leftModuleId": 7,
      "rightModuleId": 2,
      "data": {
        "invert": 1.0
      },
      "pos": [
        17,
        0
      ]
    }
  ],
  "cables": [
    {
      "id": 1,
      "outputModuleId": 2,
      "outputId": 0,
      "inputModuleId": 3,
      "inputId": 1,
      "color": "#0c8e15"
    },
    {
      "id": 5,
      "outputModuleId": 4,
      "outputId": 2,
      "inputModuleId": 10,
      "inputId": 1,
      "color": "#c91847"
    },
    {
      "id": 7,
      "outputModuleId": 4,
      "outputId": 3,
      "inputModuleId": 10,
      "inputId": 0,
      "color": "#0986ad"
    },
    {
      "id": 20,
      "outputModuleId": 9,
      "outputId": 1,
      "inputModuleId": 0,
      "inputId": 1,
      "color": "#0986ad"
    },
    {
      "id": 3,
      "outputModuleId": 3,
      "outputId": 8,
      "inputModuleId": 4,
      "inputId": 0,
      "color": "#0c8e15"
    },
    {
      "id": 18,
      "outputModuleId": 3,
      "outputId": 10,
      "inputModuleId": 9,
      "inputId": 7,
      "color": "#c91847"
    },
    {
      "id": 30,
      "outputModuleId": 3,
      "outputId": 7,
      "inputModuleId": 9,
      "inputId": 13,
      "color": "#c91847"
    },
    {
      "id": 32,
      "outputModuleId": 4,
      "outputId": 1,
      "inputModuleId": 10,
      "inputId": 2,
      "color": "#c9b70e"
    },
    {
      "id": 33,
      "outputModuleId": 4,
      "outputId": 2,
      "inputModuleId": 10,
      "inputId": 3,
      "color": "#0c8e15"
    },
    {
      "id": 34,
      "outputModuleId": 4,
      "outputId": 1,
      "inputModuleId": 10,
      "inputId": 4,
      "color": "#c91847"
    },
    {
      "id": 35,
      "outputModuleId": 4,
      "outputId": 3,
      "inputModuleId": 10,
      "inputId": 5,
      "color": "#0986ad"
    },
    {
      "id": 36,
      "outputModuleId": 10,
      "outputId": 1,
      "inputModuleId": 2,
      "inputId": 6,
      "color": "#c9b70e"
    },
    {
      "id": 37,
      "outputModuleId": 10,
      "outputId": 2,
      "inputModuleId": 1,
      "inputId": 7,
      "color": "#0c8e15"
    },
    {
      "id": 41,
      "outputModuleId": 10,
      "outputId": 0,
      "inputModuleId": 2,
      "inputId": 2,
      "color": "#0c8e15"
    },
    {
      "id": 42,
      "outputModuleId": 10,
      "outputId": 2,
      "inputModuleId": 1,
      "inputId": 2,
      "color": "#c91847"
    },
    {
      "id": 43,
      "outputModuleId": 12,
      "outputId": 0,
      "inputModuleId": 1,
      "inputId": 4,
      "color": "#0986ad"
    },
    {
      "id": 44,
      "outputModuleId": 12,
      "outputId": 0,
      "inputModuleId": 2,
      "inputId": 5,
      "color": "#c9b70e"
    },
    {
      "id": 53,
      "outputModuleId": 12,
      "outputId": 0,
      "inputModuleId": 2,
      "inputId": 11,
      "color": "#0c8e15"
    },
    {
      "id": 54,
      "outputModuleId": 12,
      "outputId": 0,
      "inputModuleId": 1,
      "inputId": 11,
      "color": "#c91847"
    },
    {
      "id": 55,
      "outputModuleId": 11,
      "outputId": 0,
      "inputModuleId": 13,
      "inputId": 0,
      "color": "#0986ad"
    },
    {
      "id": 0,
      "outputModuleId": 1,
      "outputId": 0,
      "inputModuleId": 3,
      "inputId": 0,
      "color": "#c9b70e"
    },
    {
      "id": 24,
      "outputModuleId": 5,
      "outputId": 0,
      "inputModuleId": 9,
      "inputId": 10,
      "color": "#c9b70e"
    },
    {
      "id": 10,
      "outputModuleId": 7,
      "outputId": 0,
      "inputModuleId": 2,
      "inputId": 10,
      "color": "#c91847"
    },
    {
      "id": 60,
      "outputModuleId": 4,
      "outputId": 0,
      "inputModuleId": 7,
      "inputId": 0,
      "color": "#0c8e15"
    },
    {
      "id": 61,
      "outputModuleId": 12,
      "outputId": 0,
      "inputModuleId": 7,
      "inputId": 1,
      "color": "#c91847"
    },
    {
      "id": 62,
      "outputModuleId": 7,
      "outputId": 0,
      "inputModuleId": 1,
      "inputId": 10,
      "color": "#0986ad"
    },
    {
      "id": 63,
      "outputModuleId": 3,
      "outputId": 2,
      "inputModuleId": 3,
      "inputId": 3,
      "color": "#c91847"
    },
    {
      "id": 64,
      "outputModuleId": 3,
      "outputId": 0,
      "inputModuleId": 3,
      "inputId": 2,
      "color": "#0986ad"
    },
    {
      "id": 66,
      "outputModuleId": 11,
      "outputId": 1,
      "inputModuleId": 5,
      "inputId": 2,
      "color": "#0c8e15"
    },
    {
      "id": 67,
      "outputModuleId": 11,
      "outputId": 2,
      "inputModuleId": 5,
      "inputId": 1,
      "color": "#c91847"
    },
    {
      "id": 2,
      "outputModuleId": 3,
      "outputId": 9,
      "inputModuleId": 9,
      "inputId": 1,
      "color": "#0c8e15"
    },
    {
      "id": 59,
      "outputModuleId": 13,
      "outputId": 0,
      "inputModuleId": 9,
      "inputId": 0,
      "color": "#c9b70e"
    },
    {
      "id": 19,
      "outputModuleId": 9,
      "outputId": 0,
      "inputModuleId": 0,
      "inputId": 0,
      "color": "#0c8e15"
    }
  ]
}