{
  "version": "0.6.2b",
  "modules": [
    {
      "plugin": "Core",
      "version": "0.6.2b",
      "model": "AudioInterface",
      "params": [],
      "data": {
        "audio": {
          "driver": 5,
          "deviceName": "Apple Inc.: Built-in Output",
          "offset": 0,
          "maxChannels": 8,
          "sampleRate": 44100,
          "blockSize": 256
        }
      },
      "pos": [
        20,
        0
      ]
    },
    {
      "plugin": "Core",
      "version": "0.6.2b",
      "model": "MIDIToCVInterface",
      "params": [],
      "data": {
        "divisions": [
          24,
          6
        ],
        "midi": {
          "driver": 1,
          "deviceName": "IAC Driver Bus 1",
          "channel": 0
        }
      },
      "pos": [
        30,
        0
      ]
    },
    {
      "plugin": "CharredDesert",
      "version": "0.6.4",
      "model": "Oscar^2",
      "params": [
        {
          "paramId": 0,
          "value": 0.0
        },
        {
          "paramId": 2,
          "value": 2.05500031
        },
        {
          "paramId": 4,
          "value": 2.0
        },
        {
          "paramId": 6,
          "value": -0.609000087
        },
        {
          "paramId": 8,
          "value": 1.09500003
        },
        {
          "paramId": 11,
          "value": 0.0
        },
        {
          "paramId": 1,
          "value": 1.0
        },
        {
          "paramId": 3,
          "value": 0.944999814
        },
        {
          "paramId": 5,
          "value": -1.0
        },
        {
          "paramId": 7,
          "value": 0.360000014
        },
        {
          "paramId": 9,
          "value": 3.4950006
        },
        {
          "paramId": 12,
          "value": 1.0
        },
        {
          "paramId": 10,
          "value": 5.0
        }
      ],
      "pos": [
        10,
        0
      ]
    },
    {
      "plugin": "CharredDesert",
      "version": "0.6.4",
      "model": "Oscar^2",
      "params": [
        {
          "paramId": 0,
          "value": 0.0
        },
        {
          "paramId": 2,
          "value": 2.05500031
        },
        {
          "paramId": 4,
          "value": 2.0
        },
        {
          "paramId": 6,
          "value": -0.372000009
        },
        {
          "paramId": 8,
          "value": 1.09500003
        },
        {
          "paramId": 11,
          "value": 0.0
        },
        {
          "paramId": 1,
          "value": 1.0
        },
        {
          "paramId": 3,
          "value": 0.944999814
        },
        {
          "paramId": 5,
          "value": -1.0
        },
        {
          "paramId": 7,
          "value": 0.0
        },
        {
          "paramId": 9,
          "value": 2.54250073
        },
        {
          "paramId": 12,
          "value": 1.0
        },
        {
          "paramId": 10,
          "value": 5.0
        }
      ],
      "pos": [
        0,
        0
      ]
    },
    {
      "plugin": "Befaco",
      "version": "0.6.0",
      "model": "Rampage",
      "params": [
        {
          "paramId": 0,
          "value": 2.0
        },
        {
          "paramId": 2,
          "value": 0.64199996
        },
        {
          "paramId": 4,
          "value": 0.0
        },
        {
          "paramId": 6,
          "value": 0.305999964
        },
        {
          "paramId": 8,
          "value": 0.899999857
        },
        {
          "paramId": 10,
          "value": 1.0
        },
        {
          "paramId": 1,
          "value": 1.0
        },
        {
          "paramId": 3,
          "value": 0.138000011
        },
        {
          "paramId": 5,
          "value": 0.0
        },
        {
          "paramId": 7,
          "value": 0.0360000432
        },
        {
          "paramId": 9,
          "value": 0.0
        },
        {
          "paramId": 11,
          "value": 1.0
        },
        {
          "paramId": 12,
          "value": 0.5
        }
      ],
      "pos": [
        38,
        0
      ]
    },
    {
      "plugin": "squinkylabs-plug1",
      "version": "0.6.14",
      "model": "squinkylabs-vocalanimator",
      "params": [
        {
          "paramId": 0,
          "value": -4.17238522
        },
        {
          "paramId": 4,
          "value": -0.731150866
        },
        {
          "paramId": 10,
          "value": 2.0
        },
        {
          "paramId": 2,
          "value": -3.88556194
        },
        {
          "paramId": 6,
          "value": -0.569483757
        },
        {
          "paramId": 1,
          "value": -1.68927312
        },
        {
          "paramId": 5,
          "value": -0.842209458
        },
        {
          "paramId": 3,
          "value": -0.846604705
        },
        {
          "paramId": 7,
          "value": -0.0779645443
        },
        {
          "paramId": 8,
          "value": 1.0
        }
      ],
      "pos": [
        0,
        1
      ]
    },
    {
      "plugin": "modular80",
      "version": "0.6.4",
      "model": "Radio Music",
      "params": [
        {
          "paramId": 0,
          "value": 0.535500169
        },
        {
          "paramId": 1,
          "value": 0.300000012
        },
        {
          "paramId": 2,
          "value": 0.0
        }
      ],
      "data": {
        "loopingEnabled": true,
        "enableCrossfade": true,
        "sortFiles": false,
        "allowAllFiles": false,
        "rootDir": "",
        "currentBank": 0
      },
      "pos": [
        14,
        1
      ]
    },
    {
      "plugin": "ImpromptuModular",
      "version": "0.6.17",
      "model": "Clocked",
      "params": [
        {
          "paramId": 0,
          "value": 120.0
        },
        {
          "paramId": 12,
          "value": 0.0
        },
        {
          "paramId": 13,
          "value": 0.0
        },
        {
          "paramId": 18,
          "value": 0.0
        },
        {
          "paramId": 19,
          "value": 0.0
        },
        {
          "paramId": 4,
          "value": 0.0899999812
        },
        {
          "paramId": 8,
          "value": 0.5
        },
        {
          "paramId": 1,
          "value": 0.0
        },
        {
          "paramId": 5,
          "value": 0.0
        },
        {
          "paramId": 9,
          "value": 0.5
        },
        {
          "paramId": 15,
          "value": 0.0
        },
        {
          "paramId": 2,
          "value": 7.0
        },
        {
          "paramId": 6,
          "value": 0.210000023
        },
        {
          "paramId": 10,
          "value": 0.351500034
        },
        {
          "paramId": 16,
          "value": 5.0
        },
        {
          "paramId": 3,
          "value": 0.0
        },
        {
          "paramId": 7,
          "value": 0.0
        },
        {
          "paramId": 11,
          "value": 0.5
        },
        {
          "paramId": 17,
          "value": 0.0
        }
      ],
      "data": {
        "running": true,
        "panelTheme": 0,
        "expansion": 0,
        "displayDelayNoteMode": true,
        "bpmDetectionMode": false,
        "emitResetOnStopRun": false,
        "ppqn": 4,
        "resetClockOutputsHigh": true
      },
      "pos": [
        18,
        1
      ]
    },
    {
      "plugin": "HetrickCV",
      "version": "0.6.0",
      "model": "Exponent",
      "params": [
        {
          "paramId": 0,
          "value": -2.35500002
        },
        {
          "paramId": 1,
          "value": -0.175999954
        },
        {
          "paramId": 2,
          "value": 1.0
        }
      ],
      "pos": [
        38,
        1
      ]
    }
  ],
  "wires": [
    {
      "color": "#c9b70e",
      "outputModuleId": 2,
      "outputId": 0,
      "inputModuleId": 4,
      "inputId": 0
    },
    {
      "color": "#c91847",
      "outputModuleId": 1,
      "outputId": 0,
      "inputModuleId": 2,
      "inputId": 11
    },
    {
      "color": "#0c8e15",
      "outputModuleId": 1,
      "outputId": 0,
      "inputModuleId": 2,
      "inputId": 5
    },
    {
      "color": "#0986ad",
      "outputModuleId": 1,
      "outputId": 0,
      "inputModuleId": 2,
      "inputId": 0
    },
    {
      "color": "#c9b70e",
      "outputModuleId": 1,
      "outputId": 0,
      "inputModuleId": 2,
      "inputId": 1
    },
    {
      "color": "#c91847",
      "outputModuleId": 1,
      "outputId": 0,
      "inputModuleId": 3,
      "inputId": 4
    },
    {
      "color": "#0c8e15",
      "outputModuleId": 3,
      "outputId": 0,
      "inputModuleId": 4,
      "inputId": 1
    },
    {
      "color": "#0986ad",
      "outputModuleId": 1,
      "outputId": 0,
      "inputModuleId": 3,
      "inputId": 11
    },
    {
      "color": "#0c8e15",
      "outputModuleId": 4,
      "outputId": 6,
      "inputModuleId": 0,
      "inputId": 0
    },
    {
      "color": "#c9b70e",
      "outputModuleId": 4,
      "outputId": 2,
      "inputModuleId": 4,
      "inputId": 4
    },
    {
      "color": "#c9b70e",
      "outputModuleId": 4,
      "outputId": 5,
      "inputModuleId": 4,
      "inputId": 7
    },
    {
      "color": "#0c8e15",
      "outputModuleId": 4,
      "outputId": 8,
      "inputModuleId": 5,
      "inputId": 0
    },
    {
      "color": "#c9b70e",
      "outputModuleId": 5,
      "outputId": 0,
      "inputModuleId": 8,
      "inputId": 0
    },
    {
      "color": "#c91847",
      "outputModuleId": 5,
      "outputId": 2,
      "inputModuleId": 4,
      "inputId": 5
    },
    {
      "color": "#0c8e15",
      "outputModuleId": 5,
      "outputId": 1,
      "inputModuleId": 4,
      "inputId": 8
    },
    {
      "color": "#0986ad",
      "outputModuleId": 5,
      "outputId": 3,
      "inputModuleId": 4,
      "inputId": 9
    },
    {
      "color": "#c9b70e",
      "outputModuleId": 5,
      "outputId": 3,
      "inputModuleId": 6,
      "inputId": 0
    },
    {
      "color": "#c91847",
      "outputModuleId": 7,
      "outputId": 2,
      "inputModuleId": 6,
      "inputId": 1
    },
    {
      "color": "#c91847",
      "outputModuleId": 8,
      "outputId": 0,
      "inputModuleId": 0,
      "inputId": 1
    },
    {
      "color": "#0c8e15",
      "outputModuleId": 1,
      "outputId": 0,
      "inputModuleId": 8,
      "inputId": 1
    }
  ]
}