{
  "version": "0.5.1",
  "modules": [
    {
      "plugin": "Core",
      "model": "AudioInterface",
      "pos": [
        0.0,
        0.0
      ],
      "params": [],
      "data": {
        "driver": 5,
        "device": 1,
        "sampleRate": 44100.0,
        "blockSize": 256
      }
    },
    {
      "plugin": "DHE-Modules",
      "model": "Stage",
      "pos": [
        180.0,
        0.0
      ],
      "params": [
        0.98449999094009399,
        0.0,
        0.33650019764900208
      ]
    },
    {
      "plugin": "FrozenWasteland",
      "model": "LissajousLFO",
      "pos": [
        240.0,
        0.0
      ],
      "params": [
        0.0,
        -2.6264998912811279,
        -2.5274994373321533,
        0.12499874085187912,
        -2.6594991683959961,
        -2.4449994564056396
      ]
    },
    {
      "plugin": "Fundamental",
      "model": "VCO",
      "pos": [
        435.0,
        0.0
      ],
      "params": [
        0.0,
        0.0,
        -30.206262588500977,
        -0.59793317317962646,
        0.73228013515472412,
        0.89176911115646362,
        0.36363422870635986
      ]
    },
    {
      "plugin": "Fundamental",
      "model": "Delay",
      "pos": [
        90.0,
        380.0
      ],
      "params": [
        0.10999996215105057,
        0.28400003910064697,
        0.888499915599823,
        0.18500019609928131
      ]
    },
    {
      "plugin": "Autodafe",
      "model": "BitCrusher",
      "pos": [
        0.0,
        380.0
      ],
      "params": [
        1.0,
        0.2528001070022583,
        0.99199992418289185
      ]
    },
    {
      "plugin": "AS",
      "model": "DelayPlusFx",
      "pos": [
        525.0,
        380.0
      ],
      "params": [
        1.174917459487915,
        0.5,
        0.5,
        0.5,
        0.0
      ],
      "data": {
        "as_FxBypass": [
          false
        ]
      }
    },
    {
      "plugin": "AS",
      "model": "SawOSC",
      "pos": [
        585.0,
        0.0
      ],
      "params": [
        0.0,
        -4.1999998092651367
      ]
    },
    {
      "plugin": "AS",
      "model": "SuperDriveFx",
      "pos": [
        435.0,
        380.0
      ],
      "params": [
        0.92484968900680542,
        0.5,
        0.5,
        0.0
      ],
      "data": {
        "as_FxBypass": [
          false
        ]
      }
    }
  ],
  "wires": [
    {
      "outputModuleId": 3,
      "outputId": 1,
      "inputModuleId": 2,
      "inputId": 1
    },
    {
      "outputModuleId": 2,
      "outputId": 4,
      "inputModuleId": 3,
      "inputId": 0
    },
    {
      "outputModuleId": 3,
      "outputId": 3,
      "inputModuleId": 2,
      "inputId": 2
    },
    {
      "outputModuleId": 3,
      "outputId": 0,
      "inputModuleId": 2,
      "inputId": 0
    },
    {
      "outputModuleId": 1,
      "outputId": 2,
      "inputModuleId": 2,
      "inputId": 5
    },
    {
      "outputModuleId": 2,
      "outputId": 0,
      "inputModuleId": 1,
      "inputId": 2
    },
    {
      "outputModuleId": 3,
      "outputId": 1,
      "inputModuleId": 1,
      "inputId": 1
    },
    {
      "outputModuleId": 1,
      "outputId": 0,
      "inputModuleId": 2,
      "inputId": 3
    },
    {
      "outputModuleId": 1,
      "outputId": 1,
      "inputModuleId": 3,
      "inputId": 2
    },
    {
      "outputModuleId": 2,
      "outputId": 3,
      "inputModuleId": 2,
      "inputId": 4
    },
    {
      "outputModuleId": 2,
      "outputId": 2,
      "inputModuleId": 4,
      "inputId": 0
    },
    {
      "outputModuleId": 3,
      "outputId": 2,
      "inputModuleId": 5,
      "inputId": 1
    },
    {
      "outputModuleId": 5,
      "outputId": 0,
      "inputModuleId": 4,
      "inputId": 4
    },
    {
      "outputModuleId": 3,
      "outputId": 1,
      "inputModuleId": 4,
      "inputId": 3
    },
    {
      "outputModuleId": 2,
      "outputId": 3,
      "inputModuleId": 4,
      "inputId": 2
    },
    {
      "outputModuleId": 3,
      "outputId": 1,
      "inputModuleId": 4,
      "inputId": 1
    },
    {
      "outputModuleId": 4,
      "outputId": 0,
      "inputModuleId": 6,
      "inputId": 5
    },
    {
      "outputModuleId": 1,
      "outputId": 2,
      "inputModuleId": 5,
      "inputId": 0
    },
    {
      "outputModuleId": 2,
      "outputId": 2,
      "inputModuleId": 3,
      "inputId": 1
    },
    {
      "outputModuleId": 2,
      "outputId": 1,
      "inputModuleId": 3,
      "inputId": 3
    },
    {
      "outputModuleId": 2,
      "outputId": 4,
      "inputModuleId": 1,
      "inputId": 0
    },
    {
      "outputModuleId": 6,
      "outputId": 1,
      "inputModuleId": 8,
      "inputId": 0
    },
    {
      "outputModuleId": 8,
      "outputId": 0,
      "inputModuleId": 0,
      "inputId": 0
    }
  ]
}