{
  "version": "0.5.1",
  "modules": [
    {
      "plugin": "VultModulesFree",
      "model": "Tangents",
      "pos": [
        180.0,
        0.0
      ],
      "params": [
        0.42500001192092896,
        0.7169995903968811,
        0.0,
        0.0,
        1.6379991769790649,
        0.0
      ]
    },
    {
      "plugin": "Core",
      "model": "AudioInterface",
      "pos": [
        0.0,
        0.0
      ],
      "params": [],
      "data": {
        "driver": 5,
        "device": 1,
        "sampleRate": 44100.0,
        "blockSize": 256
      }
    },
    {
      "plugin": "VultModulesFree",
      "model": "Vessek",
      "pos": [
        330.0,
        0.0
      ],
      "params": [
        1.8394650220870972,
        -0.52244114875793457,
        -0.73242747783660889,
        0.3890344500541687,
        0.19096601009368896,
        1.6580724716186523,
        -0.93494284152984619,
        -0.41372251510620117,
        0.32979196310043335,
        1.9667751789093018,
        0.23364889621734619,
        0.24964302778244019,
        0.31408798694610596,
        0.66952329874038696,
        0.7149810791015625,
        -0.56344616413116455,
        0.31287890672683716,
        0.81938225030899048,
        0.48406219482421875,
        0.41488742828369141,
        -0.37750744819641113,
        0.64668774604797363,
        0.010337352752685547,
        -0.16270387172698975,
        0.67450273036956787,
        0.0,
        0.0,
        0.0,
        0.0,
        0.0,
        0.0,
        0.0
      ],
      "data": {
        "mod_a": 16,
        "mod_b": 5,
        "mod_c": 18,
        "mod_d": 2,
        "mod_e": 17,
        "mod_f": 9
      }
    },
    {
      "plugin": "VultModulesFree",
      "model": "Trummor",
      "pos": [
        0.0,
        380.0
      ],
      "params": [
        0.81574720144271851,
        0.86727750301361084,
        0.54980069398880005,
        0.62252628803253174,
        0.65974152088165283,
        0.036254703998565674,
        0.027901709079742432,
        0.63457447290420532,
        0.26116377115249634,
        0.91723084449768066,
        0.40059924125671387,
        -0.092094063758850098,
        0.2084018737077713,
        0.16358952224254608,
        0.0,
        0.21525204181671143,
        0.58321666717529297,
        0.64631325006484985,
        2.2057504653930664,
        7.4899797439575195,
        0.31918030977249146
      ]
    },
    {
      "plugin": "Autinn",
      "model": "Flopper",
      "pos": [
        630.0,
        0.0
      ],
      "params": [
        -5.5900015830993652
      ]
    },
    {
      "plugin": "AS",
      "model": "TriLFO",
      "pos": [
        315.0,
        380.0
      ],
      "params": [
        -5.1159987449645996,
        1.0,
        1.0,
        -3.6879997253417969,
        1.0,
        1.0,
        -1.0,
        1.0,
        1.0
      ]
    },
    {
      "plugin": "AS",
      "model": "SignalDelay",
      "pos": [
        465.0,
        380.0
      ],
      "params": [
        2.2007825374603271,
        0.34999999403953552
      ]
    },
    {
      "plugin": "AS",
      "model": "SawOSC",
      "pos": [
        555.0,
        380.0
      ],
      "params": [
        -2.7840006351470947,
        2.2722008228302002
      ]
    },
    {
      "plugin": "AS",
      "model": "Mixer8ch",
      "pos": [
        615.0,
        380.0
      ],
      "params": [
        -0.00099985720589756966,
        0.0,
        -0.020000012591481209,
        0.0,
        0.0,
        0.0,
        0.0,
        0.0,
        0.45299983024597168,
        0.73449999094009399,
        1.0,
        0.80000001192092896,
        0.80000001192092896,
        0.80000001192092896,
        0.80000001192092896,
        0.80000001192092896,
        0.0,
        0.0,
        0.0,
        0.0,
        0.0,
        0.0,
        0.0,
        0.0,
        0.80000001192092896,
        0.0
      ],
      "data": {
        "as_MixerMutes": [
          1,
          0,
          1,
          0,
          0,
          0,
          0,
          0,
          0
        ]
      }
    }
  ],
  "wires": [
    {
      "outputModuleId": 2,
      "outputId": 1,
      "inputModuleId": 4,
      "inputId": 1
    },
    {
      "outputModuleId": 3,
      "outputId": 0,
      "inputModuleId": 0,
      "inputId": 2
    },
    {
      "outputModuleId": 0,
      "outputId": 0,
      "inputModuleId": 8,
      "inputId": 6
    },
    {
      "outputModuleId": 4,
      "outputId": 0,
      "inputModuleId": 8,
      "inputId": 0
    },
    {
      "outputModuleId": 2,
      "outputId": 1,
      "inputModuleId": 4,
      "inputId": 0
    },
    {
      "outputModuleId": 5,
      "outputId": 2,
      "inputModuleId": 6,
      "inputId": 1
    },
    {
      "outputModuleId": 6,
      "outputId": 1,
      "inputModuleId": 7,
      "inputId": 0
    },
    {
      "outputModuleId": 7,
      "outputId": 0,
      "inputModuleId": 8,
      "inputId": 3
    },
    {
      "outputModuleId": 5,
      "outputId": 7,
      "inputModuleId": 7,
      "inputId": 1
    },
    {
      "outputModuleId": 8,
      "outputId": 0,
      "inputModuleId": 3,
      "inputId": 0
    },
    {
      "outputModuleId": 8,
      "outputId": 2,
      "inputModuleId": 1,
      "inputId": 0
    },
    {
      "outputModuleId": 8,
      "outputId": 1,
      "inputModuleId": 1,
      "inputId": 1
    }
  ]
}