{
  "version": "0.6.2b",
  "modules": [
    {
      "plugin": "Core",
      "version": "0.6.2b",
      "model": "AudioInterface",
      "params": [],
      "data": {
        "audio": {
          "driver": 5,
          "deviceName": "Apple Inc.: Built-in Output",
          "offset": 0,
          "maxChannels": 8,
          "sampleRate": 44100,
          "blockSize": 256
        }
      },
      "pos": [
        0,
        0
      ]
    },
    {
      "plugin": "Geodesics",
      "version": "0.6.2",
      "model": "Ions",
      "params": [
        {
          "paramId": 2,
          "value": 0.799501002
        },
        {
          "paramId": 3,
          "value": 0.487020969
        },
        {
          "paramId": 4,
          "value": 0.39458409
        },
        {
          "paramId": 5,
          "value": 0.506774843
        },
        {
          "paramId": 6,
          "value": 0.838608742
        },
        {
          "paramId": 7,
          "value": 0.69584012
        },
        {
          "paramId": 8,
          "value": 0.545208573
        },
        {
          "paramId": 9,
          "value": 0.356441319
        },
        {
          "paramId": 10,
          "value": 0.41946426
        },
        {
          "paramId": 11,
          "value": 0.988197625
        },
        {
          "paramId": 12,
          "value": 0.267730355
        },
        {
          "paramId": 13,
          "value": 0.436668873
        },
        {
          "paramId": 14,
          "value": 0.560048997
        },
        {
          "paramId": 15,
          "value": 0.300900817
        },
        {
          "paramId": 16,
          "value": 0.681164443
        },
        {
          "paramId": 17,
          "value": 0.363450766
        },
        {
          "paramId": 20,
          "value": 0.0
        },
        {
          "paramId": 23,
          "value": 0.0
        },
        {
          "paramId": 18,
          "value": 0.0
        },
        {
          "paramId": 19,
          "value": 0.0
        },
        {
          "paramId": 0,
          "value": 0.0
        },
        {
          "paramId": 1,
          "value": 0.0
        },
        {
          "paramId": 26,
          "value": 0.0
        },
        {
          "paramId": 25,
          "value": 0.0
        },
        {
          "paramId": 21,
          "value": 0.0
        },
        {
          "paramId": 22,
          "value": 0.0
        },
        {
          "paramId": 24,
          "value": 0.0
        }
      ],
      "data": {
        "panelTheme": 0,
        "resetOnRun": true,
        "quantize": 3,
        "uncertainty": false,
        "running": true,
        "stepIndexes0": 9,
        "stepIndexes1": 8,
        "states0": 0,
        "states1": 1,
        "ranges0": 2,
        "ranges1": 2,
        "leap": true
      },
      "pos": [
        26,
        0
      ]
    },
    {
      "plugin": "21kHz",
      "version": "0.6.1",
      "model": "kHzPalmLoop",
      "params": [
        {
          "paramId": 0,
          "value": 6.91267872
        },
        {
          "paramId": 1,
          "value": 0.260532379
        },
        {
          "paramId": 2,
          "value": -0.0750992745
        },
        {
          "paramId": 3,
          "value": 0.891147614
        },
        {
          "paramId": 4,
          "value": 3.60503101
        }
      ],
      "pos": [
        13,
        0
      ]
    },
    {
      "plugin": "Hora-treasureFree",
      "version": "0.6.0",
      "model": "Frequency divider",
      "params": [
        {
          "paramId": 0,
          "value": 2.0
        },
        {
          "paramId": 1,
          "value": 0.0
        },
        {
          "paramId": 2,
          "value": 0.0
        },
        {
          "paramId": 3,
          "value": 0.0
        }
      ],
      "pos": [
        21,
        0
      ]
    },
    {
      "plugin": "SynthKit",
      "version": "0.6.2",
      "model": "And",
      "params": [],
      "pos": [
        10,
        0
      ]
    },
    {
      "plugin": "AudibleInstruments",
      "version": "0.6.0",
      "model": "Tides",
      "params": [
        {
          "paramId": 0,
          "value": 0.0
        },
        {
          "paramId": 1,
          "value": 0.0
        },
        {
          "paramId": 2,
          "value": 33.7146835
        },
        {
          "paramId": 3,
          "value": 12.0
        },
        {
          "paramId": 4,
          "value": -0.443619251
        },
        {
          "paramId": 5,
          "value": 0.738000095
        },
        {
          "paramId": 6,
          "value": 0.13775073
        }
      ],
      "data": {
        "mode": 1,
        "range": 1,
        "sheep": false
      },
      "pos": [
        34,
        1
      ]
    },
    {
      "plugin": "Fundamental",
      "version": "0.6.1",
      "model": "ADSR",
      "params": [
        {
          "paramId": 0,
          "value": 0.0225000065
        },
        {
          "paramId": 1,
          "value": 0.783500016
        },
        {
          "paramId": 2,
          "value": 1.0
        },
        {
          "paramId": 3,
          "value": 0.0
        }
      ],
      "pos": [
        6,
        1
      ]
    },
    {
      "plugin": "VultModulesFree",
      "version": "0.6.10",
      "model": "Trummor",
      "params": [
        {
          "paramId": 0,
          "value": 0.55352819
        },
        {
          "paramId": 1,
          "value": 0.998143017
        },
        {
          "paramId": 2,
          "value": 0.110696435
        },
        {
          "paramId": 3,
          "value": 0.851270497
        },
        {
          "paramId": 4,
          "value": 0.637306333
        },
        {
          "paramId": 5,
          "value": 0.0522230864
        },
        {
          "paramId": 6,
          "value": 0.399506032
        },
        {
          "paramId": 7,
          "value": 0.483464837
        },
        {
          "paramId": 8,
          "value": 0.197537318
        },
        {
          "paramId": 9,
          "value": 0.0614155717
        },
        {
          "paramId": 10,
          "value": 3.28200912
        },
        {
          "paramId": 11,
          "value": 0.295321703
        },
        {
          "paramId": 12,
          "value": 0.303715825
        },
        {
          "paramId": 13,
          "value": 0.0542278886
        },
        {
          "paramId": 14,
          "value": 0.0904791355
        },
        {
          "paramId": 15,
          "value": 0.739809453
        },
        {
          "paramId": 17,
          "value": 0.493590981
        },
        {
          "paramId": 18,
          "value": 0.410948157
        },
        {
          "paramId": 20,
          "value": 1.81039572
        },
        {
          "paramId": 19,
          "value": 7.48192167
        },
        {
          "paramId": 16,
          "value": 0.980422676
        }
      ],
      "pos": [
        14,
        1
      ]
    },
    {
      "plugin": "AS",
      "version": "0.6.9",
      "model": "VCA",
      "params": [
        {
          "paramId": 0,
          "value": 0.57799989
        },
        {
          "paramId": 1,
          "value": 0.5
        },
        {
          "paramId": 2,
          "value": 1.0
        },
        {
          "paramId": 3,
          "value": 1.0
        }
      ],
      "pos": [
        0,
        1
      ]
    }
  ],
  "wires": [
    {
      "color": "#c91847",
      "outputModuleId": 1,
      "outputId": 0,
      "inputModuleId": 2,
      "inputId": 1
    },
    {
      "color": "#0986ad",
      "outputModuleId": 2,
      "outputId": 3,
      "inputModuleId": 4,
      "inputId": 1
    },
    {
      "color": "#0986ad",
      "outputModuleId": 2,
      "outputId": 1,
      "inputModuleId": 3,
      "inputId": 0
    },
    {
      "color": "#c9b70e",
      "outputModuleId": 3,
      "outputId": 0,
      "inputModuleId": 1,
      "inputId": 0
    },
    {
      "color": "#c91847",
      "outputModuleId": 2,
      "outputId": 3,
      "inputModuleId": 4,
      "inputId": 0
    },
    {
      "color": "#0986ad",
      "outputModuleId": 5,
      "outputId": 0,
      "inputModuleId": 1,
      "inputId": 6
    },
    {
      "color": "#0c8e15",
      "outputModuleId": 4,
      "outputId": 0,
      "inputModuleId": 6,
      "inputId": 4
    },
    {
      "color": "#0986ad",
      "outputModuleId": 6,
      "outputId": 0,
      "inputModuleId": 8,
      "inputId": 1
    },
    {
      "color": "#c9b70e",
      "outputModuleId": 1,
      "outputId": 1,
      "inputModuleId": 5,
      "inputId": 6
    },
    {
      "color": "#c91847",
      "outputModuleId": 2,
      "outputId": 1,
      "inputModuleId": 3,
      "inputId": 1
    },
    {
      "color": "#0c8e15",
      "outputModuleId": 3,
      "outputId": 1,
      "inputModuleId": 7,
      "inputId": 0
    },
    {
      "color": "#0986ad",
      "outputModuleId": 7,
      "outputId": 0,
      "inputModuleId": 8,
      "inputId": 3
    },
    {
      "color": "#c9b70e",
      "outputModuleId": 8,
      "outputId": 1,
      "inputModuleId": 0,
      "inputId": 1
    },
    {
      "color": "#c91847",
      "outputModuleId": 8,
      "outputId": 0,
      "inputModuleId": 0,
      "inputId": 0
    },
    {
      "color": "#0c8e15",
      "outputModuleId": 3,
      "outputId": 0,
      "inputModuleId": 8,
      "inputId": 0
    },
    {
      "color": "#c9b70e",
      "outputModuleId": 3,
      "outputId": 1,
      "inputModuleId": 7,
      "inputId": 4
    },
    {
      "color": "#c91847",
      "outputModuleId": 3,
      "outputId": 1,
      "inputModuleId": 7,
      "inputId": 3
    },
    {
      "color": "#0c8e15",
      "outputModuleId": 7,
      "outputId": 1,
      "inputModuleId": 2,
      "inputId": 3
    },
    {
      "color": "#0986ad",
      "outputModuleId": 3,
      "outputId": 0,
      "inputModuleId": 8,
      "inputId": 2
    },
    {
      "color": "#0986ad",
      "outputModuleId": 5,
      "outputId": 2,
      "inputModuleId": 1,
      "inputId": 8
    },
    {
      "color": "#c9b70e",
      "outputModuleId": 5,
      "outputId": 3,
      "inputModuleId": 1,
      "inputId": 9
    },
    {
      "color": "#c9b70e",
      "outputModuleId": 5,
      "outputId": 0,
      "inputModuleId": 1,
      "inputId": 7
    },
    {
      "color": "#c91847",
      "outputModuleId": 2,
      "outputId": 2,
      "inputModuleId": 5,
      "inputId": 5
    }
  ]
}