{
  "version": "0.5.1",
  "modules": [
    {
      "plugin": "Autinn",
      "model": "Square",
      "pos": [
        0.0,
        380.0
      ],
      "params": [
        -3.0
      ]
    },
    {
      "plugin": "Core",
      "model": "AudioInterface",
      "pos": [
        150.0,
        760.0
      ],
      "params": [],
      "data": {
        "driver": 5,
        "device": 1,
        "sampleRate": 44100.0,
        "blockSize": 256
      }
    },
    {
      "plugin": "Autinn",
      "model": "Sjip",
      "pos": [
        75.0,
        380.0
      ],
      "params": [
        -1.2059996128082275
      ]
    },
    {
      "plugin": "Autinn",
      "model": "Oxcart",
      "pos": [
        150.0,
        380.0
      ],
      "params": [
        -2.4389994144439697
      ]
    },
    {
      "plugin": "Autodafe",
      "model": "LFO",
      "pos": [
        0.0,
        760.0
      ],
      "params": [
        0.0,
        1.0,
        -42.767997741699219,
        1.0,
        1.0
      ]
    }
  ],
  "wires": [
    {
      "outputModuleId": 2,
      "outputId": 0,
      "inputModuleId": 3,
      "inputId": 0
    },
    {
      "outputModuleId": 0,
      "outputId": 0,
      "inputModuleId": 2,
      "inputId": 0
    },
    {
      "outputModuleId": 4,
      "outputId": 1,
      "inputModuleId": 0,
      "inputId": 0
    },
    {
      "outputModuleId": 3,
      "outputId": 0,
      "inputModuleId": 1,
      "inputId": 0
    },
    {
      "outputModuleId": 2,
      "outputId": 0,
      "inputModuleId": 4,
      "inputId": 0
    }
  ]
}