{
  "version": "0.5.1",
  "modules": [
    {
      "plugin": "Core",
      "model": "AudioInterface",
      "pos": [
        0.0,
        0.0
      ],
      "params": [],
      "data": {
        "driver": 5,
        "device": 1,
        "sampleRate": 44100.0,
        "blockSize": 256
      }
    },
    {
      "plugin": "AS",
      "model": "SawOSC",
      "pos": [
        90.0,
        380.0
      ],
      "params": [
        -3.359999418258667,
        -4.1999998092651367
      ]
    },
    {
      "plugin": "AS",
      "model": "Mixer8ch",
      "pos": [
        180.0,
        0.0
      ],
      "params": [
        0.0,
        0.0,
        0.0,
        0.0,
        0.0,
        0.0,
        0.0,
        0.0,
        0.80000001192092896,
        0.80000001192092896,
        0.80000001192092896,
        0.80000001192092896,
        0.80000001192092896,
        0.80000001192092896,
        0.80000001192092896,
        0.80000001192092896,
        0.0,
        0.0,
        0.0,
        0.0,
        0.0,
        0.0,
        0.0,
        0.0,
        0.80000001192092896,
        0.0
      ],
      "data": {
        "as_MixerMutes": [
          0,
          0,
          0,
          0,
          0,
          0,
          0,
          0,
          0
        ]
      }
    },
    {
      "plugin": "AS",
      "model": "SuperDriveFx",
      "pos": [
        0.0,
        380.0
      ],
      "params": [
        0.90890717506408691,
        0.33450037240982056,
        1.0,
        0.0
      ],
      "data": {
        "as_FxBypass": [
          false
        ]
      }
    },
    {
      "plugin": "AmalgamatedHarmonics",
      "model": "Imperfect",
      "pos": [
        150.0,
        380.0
      ],
      "params": [
        1.0,
        1.0304099321365356,
        1.0010000467300415,
        1.0001562833786011,
        1.0,
        1.432220458984375,
        1.1746840476989746,
        1.9531280994415283,
        1.6400258541107178,
        2.1880707740783691,
        1.2799780368804932,
        1.865886926651001,
        1.1778912544250488,
        1.9831470251083374,
        0.94195461273193359,
        1.8525216579437256,
        1.8836427927017212,
        1.310763955116272,
        1.9547204971313477,
        3.3907933235168457,
        1.7538943290710449,
        1.731357216835022,
        1.9967782497406006,
        1.7482999563217163,
        4.9337105751037598,
        1.3584961891174316,
        1.5958256721496582,
        1.6435679197311401,
        1.1452361345291138,
        6.3114404678344727,
        1.1491074562072754,
        1.7080944776535034,
        1.1085362434387207,
        1.7688595056533813,
        0.017267704010009766,
        1.7495065927505493,
        1.471489429473877,
        1.9020912647247314,
        1.5105085372924805,
        3.7233009338378906
      ]
    },
    {
      "plugin": "AudibleInstruments",
      "model": "Braids",
      "pos": [
        0.0,
        760.0
      ],
      "params": [
        0.99487459659576416,
        -0.5826416015625,
        0.29877018928527832,
        -0.44378137588500977,
        0.42179596424102783,
        0.84484779834747314,
        0.25993078947067261
      ],
      "data": {
        "settings": [
          46,
          0,
          0,
          0,
          0,
          0,
          0,
          0,
          0,
          0,
          0,
          0,
          255,
          0,
          0,
          0,
          0,
          0,
          0,
          0
        ],
        "lowCpu": false
      }
    },
    {
      "plugin": "AudibleInstruments",
      "model": "Elements",
      "pos": [
        240.0,
        760.0
      ],
      "params": [
        0.13907378911972046,
        0.60912531614303589,
        0.67160958051681519,
        0.091972887516021729,
        -9.5784034729003906,
        -0.069064855575561523,
        0.73674726486206055,
        0.62155061960220337,
        0.77025860548019409,
        0.45561784505844116,
        0.60428321361541748,
        0.87894934415817261,
        0.92135483026504517,
        0.17895644903182983,
        0.73867315053939819,
        0.68644928932189941,
        1.9611624479293823,
        -0.61172604560852051,
        -0.96620762348175049,
        -0.22176110744476318,
        0.038694262504577637,
        0.0088994503021240234,
        -0.22435903549194336,
        -0.56380903720855713,
        0.0082579851150512695,
        -0.46675348281860352,
        -1.3333027362823486,
        0.0
      ],
      "data": {
        "model": 0
      }
    },
    {
      "plugin": "AudibleInstruments",
      "model": "Branches",
      "pos": [
        750.0,
        760.0
      ],
      "params": [
        0.5,
        0.0,
        0.5,
        0.0
      ]
    }
  ],
  "wires": [
    {
      "outputModuleId": 3,
      "outputId": 0,
      "inputModuleId": 4,
      "inputId": 0
    },
    {
      "outputModuleId": 1,
      "outputId": 0,
      "inputModuleId": 3,
      "inputId": 0
    },
    {
      "outputModuleId": 5,
      "outputId": 0,
      "inputModuleId": 6,
      "inputId": 4
    },
    {
      "outputModuleId": 5,
      "outputId": 0,
      "inputModuleId": 6,
      "inputId": 5
    },
    {
      "outputModuleId": 6,
      "outputId": 0,
      "inputModuleId": 7,
      "inputId": 0
    }
  ]
}