{
  "version": "0.6.0",
  "modules": [
    {
      "plugin": "Core",
      "version": "0.6.0",
      "model": "AudioInterface",
      "pos": [
        0,
        0
      ],
      "params": [],
      "data": {
        "audio": {
          "driver": 5,
          "deviceName": "Apple Inc.: Built-in Output",
          "offset": 0,
          "maxChannels": 8,
          "sampleRate": 44100,
          "blockSize": 256
        }
      }
    },
    {
      "plugin": "CharredDesert",
      "version": "0.6.0",
      "model": "CV Sequencer",
      "pos": [
        22,
        0
      ],
      "params": [
        {
          "paramId": 0,
          "value": 0.0
        },
        {
          "paramId": 1,
          "value": 2.65499759
        },
        {
          "paramId": 2,
          "value": 7.52999783
        },
        {
          "paramId": 3,
          "value": 1.09499693
        }
      ]
    },
    {
      "plugin": "Bogaudio",
      "version": "0.6.6",
      "model": "Bogaudio-VCO",
      "pos": [
        10,
        0
      ],
      "params": [
        {
          "paramId": 0,
          "value": 1.10399985
        },
        {
          "paramId": 1,
          "value": -0.00300026033
        },
        {
          "paramId": 2,
          "value": 1.0
        },
        {
          "paramId": 3,
          "value": -0.309000075
        },
        {
          "paramId": 4,
          "value": 0.344999939
        },
        {
          "paramId": 5,
          "value": 1.0
        }
      ]
    },
    {
      "plugin": "AudibleInstruments",
      "version": "0.6.0",
      "model": "Branches",
      "pos": [
        26,
        0
      ],
      "params": [
        {
          "paramId": 0,
          "value": 0.15649955
        },
        {
          "paramId": 2,
          "value": 0.0
        },
        {
          "paramId": 1,
          "value": 0.5
        },
        {
          "paramId": 3,
          "value": 0.0
        }
      ]
    },
    {
      "plugin": "DHE-Modules",
      "version": "0.6.0",
      "model": "Hostage",
      "pos": [
        37,
        0
      ],
      "params": [
        {
          "paramId": 2,
          "value": 0.0
        },
        {
          "paramId": 1,
          "value": 1.0
        },
        {
          "paramId": 0,
          "value": 1.0
        }
      ]
    },
    {
      "plugin": "Befaco",
      "version": "0.6.0",
      "model": "EvenVCO",
      "pos": [
        49,
        0
      ],
      "params": [
        {
          "paramId": 0,
          "value": -2.0
        },
        {
          "paramId": 1,
          "value": 0.0
        },
        {
          "paramId": 2,
          "value": 0.69599998
        }
      ]
    }
  ],
  "wires": [
    {
      "color": {
        "r": 0.0470588282,
        "g": 0.556862772,
        "b": 0.0823529437,
        "a": 1.0
      },
      "outputModuleId": 2,
      "outputId": 1,
      "inputModuleId": 1,
      "inputId": 0
    },
    {
      "color": {
        "r": 0.788235366,
        "g": 0.0941176564,
        "b": 0.278431386,
        "a": 1.0
      },
      "outputModuleId": 2,
      "outputId": 0,
      "inputModuleId": 3,
      "inputId": 0
    },
    {
      "color": {
        "r": 0.0470588282,
        "g": 0.556862772,
        "b": 0.0823529437,
        "a": 1.0
      },
      "outputModuleId": 3,
      "outputId": 0,
      "inputModuleId": 3,
      "inputId": 1
    },
    {
      "color": {
        "r": 0.0352941193,
        "g": 0.525490224,
        "b": 0.678431392,
        "a": 1.0
      },
      "outputModuleId": 3,
      "outputId": 2,
      "inputModuleId": 4,
      "inputId": 2
    },
    {
      "color": {
        "r": 0.788235366,
        "g": 0.717647076,
        "b": 0.054901965,
        "a": 1.0
      },
      "outputModuleId": 1,
      "outputId": 0,
      "inputModuleId": 3,
      "inputId": 2
    },
    {
      "color": {
        "r": 0.0470588282,
        "g": 0.556862772,
        "b": 0.0823529437,
        "a": 1.0
      },
      "outputModuleId": 4,
      "outputId": 1,
      "inputModuleId": 5,
      "inputId": 2
    },
    {
      "color": {
        "r": 0.788235366,
        "g": 0.717647076,
        "b": 0.054901965,
        "a": 1.0
      },
      "outputModuleId": 3,
      "outputId": 0,
      "inputModuleId": 4,
      "inputId": 3
    },
    {
      "color": {
        "r": 0.788235366,
        "g": 0.0941176564,
        "b": 0.278431386,
        "a": 1.0
      },
      "outputModuleId": 4,
      "outputId": 2,
      "inputModuleId": 5,
      "inputId": 4
    },
    {
      "color": {
        "r": 0.0470588282,
        "g": 0.556862772,
        "b": 0.0823529437,
        "a": 1.0
      },
      "outputModuleId": 5,
      "outputId": 3,
      "inputModuleId": 0,
      "inputId": 0
    }
  ]
}