{
  "version": "0.6.2b",
  "modules": [
    {
      "plugin": "Core",
      "version": "0.6.2b",
      "model": "AudioInterface",
      "params": [],
      "data": {
        "audio": {
          "driver": 5,
          "deviceName": "Apple Inc.: Built-in Output",
          "offset": 0,
          "maxChannels": 8,
          "sampleRate": 44100,
          "blockSize": 256
        }
      },
      "pos": [
        0,
        0
      ]
    },
    {
      "plugin": "NonLinearInstruments",
      "version": "0.6.0",
      "model": "QUADiT",
      "params": [
        {
          "paramId": 0,
          "value": 0.0
        },
        {
          "paramId": 2,
          "value": 0.0
        },
        {
          "paramId": 1,
          "value": 0.0
        }
      ],
      "pos": [
        10,
        0
      ]
    },
    {
      "plugin": "LindenbergResearch",
      "version": "0.6.3",
      "model": "VCF",
      "params": [
        {
          "paramId": 0,
          "value": 0.0
        },
        {
          "paramId": 1,
          "value": -0.0
        },
        {
          "paramId": 2,
          "value": 0.0
        },
        {
          "paramId": 3,
          "value": 0.0
        },
        {
          "paramId": 5,
          "value": -1.0
        },
        {
          "paramId": 4,
          "value": -1.0
        },
        {
          "paramId": 6,
          "value": -1.0
        }
      ],
      "pos": [
        16,
        0
      ]
    },
    {
      "plugin": "FrozenWasteland",
      "version": "0.6.7",
      "model": "EverlastingGlottalStopper",
      "params": [
        {
          "paramId": 0,
          "value": -54.0
        },
        {
          "paramId": 1,
          "value": 0.00999999978
        },
        {
          "paramId": 2,
          "value": 0.0
        },
        {
          "paramId": 3,
          "value": 0.0
        },
        {
          "paramId": 4,
          "value": 0.368999988
        },
        {
          "paramId": 5,
          "value": 0.0
        },
        {
          "paramId": 6,
          "value": 0.0
        },
        {
          "paramId": 7,
          "value": 0.0
        }
      ],
      "pos": [
        28,
        0
      ]
    },
    {
      "plugin": "alto777_LFSR",
      "version": "0.6.21",
      "model": "YASeq3",
      "params": [
        {
          "paramId": 0,
          "value": 2.15600038
        },
        {
          "paramId": 1,
          "value": 0.0
        },
        {
          "paramId": 2,
          "value": 0.0
        },
        {
          "paramId": 3,
          "value": 8.0
        },
        {
          "paramId": 39,
          "value": 1.0
        },
        {
          "paramId": 36,
          "value": 2.0
        },
        {
          "paramId": 40,
          "value": 1.0
        },
        {
          "paramId": 37,
          "value": 2.0
        },
        {
          "paramId": 41,
          "value": 0.0
        },
        {
          "paramId": 38,
          "value": 0.0
        },
        {
          "paramId": 4,
          "value": 3.85199976
        },
        {
          "paramId": 12,
          "value": 0.0
        },
        {
          "paramId": 20,
          "value": 0.0
        },
        {
          "paramId": 28,
          "value": 0.0
        },
        {
          "paramId": 5,
          "value": 3.99600148
        },
        {
          "paramId": 13,
          "value": 0.0
        },
        {
          "paramId": 21,
          "value": 1.7640003
        },
        {
          "paramId": 29,
          "value": 0.0
        },
        {
          "paramId": 6,
          "value": 2.80799985
        },
        {
          "paramId": 14,
          "value": 3.70800018
        },
        {
          "paramId": 22,
          "value": 4.06799984
        },
        {
          "paramId": 30,
          "value": 0.0
        },
        {
          "paramId": 7,
          "value": 0.0
        },
        {
          "paramId": 15,
          "value": 5.7599988
        },
        {
          "paramId": 23,
          "value": 1.72799993
        },
        {
          "paramId": 31,
          "value": 0.0
        },
        {
          "paramId": 8,
          "value": 4.39199972
        },
        {
          "paramId": 16,
          "value": 2.91600013
        },
        {
          "paramId": 24,
          "value": 5.07599831
        },
        {
          "paramId": 32,
          "value": 0.0
        },
        {
          "paramId": 9,
          "value": 2.73599982
        },
        {
          "paramId": 17,
          "value": 0.0
        },
        {
          "paramId": 25,
          "value": 9.1439991
        },
        {
          "paramId": 33,
          "value": 0.0
        },
        {
          "paramId": 10,
          "value": 6.33599854
        },
        {
          "paramId": 18,
          "value": 6.69599867
        },
        {
          "paramId": 26,
          "value": 3.24000001
        },
        {
          "paramId": 34,
          "value": 0.0
        },
        {
          "paramId": 11,
          "value": 4.46399927
        },
        {
          "paramId": 19,
          "value": 9.64799786
        },
        {
          "paramId": 27,
          "value": 7.19999599
        },
        {
          "paramId": 35,
          "value": 0.0
        }
      ],
      "data": {
        "running": true,
        "gates": [
          1,
          1,
          1,
          1,
          1,
          1,
          1,
          1
        ]
      },
      "pos": [
        0,
        1
      ]
    },
    {
      "plugin": "Autinn",
      "version": "0.6.7",
      "model": "Oxcart",
      "params": [
        {
          "paramId": 0,
          "value": -3.0
        }
      ],
      "pos": [
        26,
        1
      ]
    }
  ],
  "wires": [
    {
      "color": "#c9b70e",
      "outputModuleId": 1,
      "outputId": 0,
      "inputModuleId": 2,
      "inputId": 0
    },
    {
      "color": "#c91847",
      "outputModuleId": 1,
      "outputId": 1,
      "inputModuleId": 3,
      "inputId": 0
    },
    {
      "color": "#0c8e15",
      "outputModuleId": 4,
      "outputId": 1,
      "inputModuleId": 1,
      "inputId": 0
    },
    {
      "color": "#0986ad",
      "outputModuleId": 2,
      "outputId": 0,
      "inputModuleId": 0,
      "inputId": 0
    },
    {
      "color": "#c9b70e",
      "outputModuleId": 3,
      "outputId": 0,
      "inputModuleId": 0,
      "inputId": 1
    },
    {
      "color": "#c91847",
      "outputModuleId": 5,
      "outputId": 0,
      "inputModuleId": 3,
      "inputId": 1
    },
    {
      "color": "#0c8e15",
      "outputModuleId": 4,
      "outputId": 2,
      "inputModuleId": 5,
      "inputId": 0
    },
    {
      "color": "#0986ad",
      "outputModuleId": 4,
      "outputId": 0,
      "inputModuleId": 2,
      "inputId": 3
    }
  ]
}