{
  "version": "1.1.6",
  "modules": [
    {
      "id": 0,
      "plugin": "Autinn",
      "version": "1.0.0",
      "model": "Saw",
      "params": [
        {
          "id": 0,
          "value": 1.12400174
        }
      ],
      "leftModuleId": 1,
      "rightModuleId": 2,
      "pos": [
        20,
        0
      ]
    },
    {
      "id": 1,
      "plugin": "cf",
      "version": "1.1.1",
      "model": "CUTS",
      "params": [
        {
          "id": 0,
          "value": 0.300000697
        },
        {
          "id": 1,
          "value": 0.0390001796
        },
        {
          "id": 2,
          "value": 0.0
        },
        {
          "id": 3,
          "value": 4.0
        },
        {
          "id": 4,
          "value": 1.0
        },
        {
          "id": 5,
          "value": 0.0
        }
      ],
      "leftModuleId": 3,
      "rightModuleId": 0,
      "data": {
        "linkstate": 0,
        "linkdelta": 0.351000428
      },
      "pos": [
        16,
        0
      ]
    },
    {
      "id": 2,
      "plugin": "Core",
      "version": "1.1.6",
      "model": "AudioInterface",
      "params": [],
      "leftModuleId": 0,
      "rightModuleId": 4,
      "data": {
        "audio": {
          "driver": 5,
          "deviceName": "Apple Inc.: Built-in Output",
          "offset": 0,
          "maxChannels": 8,
          "sampleRate": 44100,
          "blockSize": 256
        }
      },
      "pos": [
        25,
        0
      ]
    },
    {
      "id": 3,
      "plugin": "AmalgamatedHarmonics",
      "version": "1.0.4",
      "model": "Generative",
      "params": [
        {
          "id": 0,
          "value": -0.574999928
        },
        {
          "id": 1,
          "value": 1.90199983
        },
        {
          "id": 2,
          "value": 0.0
        },
        {
          "id": 3,
          "value": 0.0
        },
        {
          "id": 4,
          "value": 0.0
        },
        {
          "id": 5,
          "value": -2.0
        },
        {
          "id": 6,
          "value": 0.0
        },
        {
          "id": 7,
          "value": 1.20999968
        },
        {
          "id": 8,
          "value": 1.28199983
        },
        {
          "id": 9,
          "value": 1.0
        },
        {
          "id": 10,
          "value": 1.0
        },
        {
          "id": 11,
          "value": 0.359999985
        },
        {
          "id": 12,
          "value": 0.329999954
        },
        {
          "id": 13,
          "value": 0.205500007
        }
      ],
      "rightModuleId": 1,
      "data": {
        "quantise": false,
        "offset": false
      },
      "pos": [
        0,
        0
      ]
    },
    {
      "id": 4,
      "plugin": "AudibleInstruments",
      "version": "1.0.0",
      "model": "Branches",
      "params": [
        {
          "id": 0,
          "value": 0.48450008
        },
        {
          "id": 1,
          "value": 0.789000392
        },
        {
          "id": 2,
          "value": 0.0
        },
        {
          "id": 3,
          "value": 0.0
        }
      ],
      "leftModuleId": 2,
      "rightModuleId": 5,
      "data": {
        "modes": [
          true,
          false
        ]
      },
      "pos": [
        35,
        0
      ]
    },
    {
      "id": 5,
      "plugin": "Bogaudio",
      "version": "1.1.26",
      "model": "Bogaudio-SampleHold",
      "params": [
        {
          "id": 0,
          "value": 0.0
        },
        {
          "id": 1,
          "value": 0.0
        },
        {
          "id": 2,
          "value": 1.0
        },
        {
          "id": 3,
          "value": 1.0
        },
        {
          "id": 4,
          "value": 0.0
        },
        {
          "id": 5,
          "value": 0.0
        }
      ],
      "leftModuleId": 4,
      "rightModuleId": 6,
      "data": {
        "poly_input": 0,
        "noise_type": 0,
        "range_offset": 1.0,
        "range_scale": 5.0
      },
      "pos": [
        41,
        0
      ]
    },
    {
      "id": 6,
      "plugin": "HetrickCV",
      "version": "1.0.0",
      "model": "RandomGates",
      "params": [
        {
          "id": 0,
          "value": 2.72999978
        },
        {
          "id": 1,
          "value": 3.42299986
        },
        {
          "id": 2,
          "value": 0.0
        },
        {
          "id": 3,
          "value": 0.0
        }
      ],
      "leftModuleId": 5,
      "data": {
        "mode": 2
      },
      "pos": [
        44,
        0
      ]
    },
    {
      "id": 7,
      "plugin": "Befaco",
      "version": "1.0.0",
      "model": "Rampage",
      "params": [
        {
          "id": 0,
          "value": 1.0
        },
        {
          "id": 1,
          "value": 2.0
        },
        {
          "id": 2,
          "value": 0.0
        },
        {
          "id": 3,
          "value": 0.0
        },
        {
          "id": 4,
          "value": 0.0
        },
        {
          "id": 5,
          "value": 0.0
        },
        {
          "id": 6,
          "value": 0.291000098
        },
        {
          "id": 7,
          "value": 0.345000803
        },
        {
          "id": 8,
          "value": 0.654000342
        },
        {
          "id": 9,
          "value": 0.57000047
        },
        {
          "id": 10,
          "value": 1.0
        },
        {
          "id": 11,
          "value": 1.0
        },
        {
          "id": 12,
          "value": 0.5
        }
      ],
      "rightModuleId": 8,
      "pos": [
        0,
        1
      ]
    },
    {
      "id": 8,
      "plugin": "SonusModular",
      "version": "1.3.0",
      "model": "Chainsaw",
      "params": [
        {
          "id": 0,
          "value": -0.55200094
        },
        {
          "id": 1,
          "value": -1.0
        },
        {
          "id": 2,
          "value": -1.0
        },
        {
          "id": 3,
          "value": -0.25300011
        },
        {
          "id": 4,
          "value": -1.0
        },
        {
          "id": 5,
          "value": -1.0
        },
        {
          "id": 6,
          "value": -1.0
        },
        {
          "id": 7,
          "value": 0.0
        }
      ],
      "leftModuleId": 7,
      "rightModuleId": 9,
      "pos": [
        18,
        1
      ]
    },
    {
      "id": 9,
      "plugin": "Core",
      "version": "1.1.6",
      "model": "MIDIToCVInterface",
      "params": [],
      "leftModuleId": 8,
      "data": {
        "channels": 1,
        "polyMode": 0,
        "clockDivision": 24,
        "lastPitch": 8192,
        "lastMod": 29,
        "midi": {
          "driver": 1,
          "deviceName": "Adafruit Trellis M4",
          "channel": -1
        }
      },
      "pos": [
        30,
        1
      ]
    }
  ],
  "cables": [
    {
      "id": 690,
      "outputModuleId": 0,
      "outputId": 0,
      "inputModuleId": 1,
      "inputId": 0,
      "color": "#c9b70e"
    },
    {
      "id": 692,
      "outputModuleId": 0,
      "outputId": 0,
      "inputModuleId": 4,
      "inputId": 0,
      "color": "#c91847"
    },
    {
      "id": 695,
      "outputModuleId": 4,
      "outputId": 2,
      "inputModuleId": 3,
      "inputId": 0,
      "color": "#c91847"
    },
    {
      "id": 696,
      "outputModuleId": 5,
      "outputId": 0,
      "inputModuleId": 1,
      "inputId": 3,
      "color": "#0c8e15"
    },
    {
      "id": 697,
      "outputModuleId": 6,
      "outputId": 4,
      "inputModuleId": 5,
      "inputId": 0,
      "color": "#c9b70e"
    },
    {
      "id": 699,
      "outputModuleId": 1,
      "outputId": 0,
      "inputModuleId": 7,
      "inputId": 0,
      "color": "#0986ad"
    },
    {
      "id": 700,
      "outputModuleId": 8,
      "outputId": 0,
      "inputModuleId": 7,
      "inputId": 1,
      "color": "#c9b70e"
    },
    {
      "id": 702,
      "outputModuleId": 7,
      "outputId": 9,
      "inputModuleId": 2,
      "inputId": 0,
      "color": "#0c8e15"
    },
    {
      "id": 703,
      "outputModuleId": 7,
      "outputId": 10,
      "inputModuleId": 2,
      "inputId": 1,
      "color": "#0986ad"
    },
    {
      "id": 704,
      "outputModuleId": 7,
      "outputId": 8,
      "inputModuleId": 4,
      "inputId": 1,
      "color": "#0986ad"
    },
    {
      "id": 705,
      "outputModuleId": 4,
      "outputId": 1,
      "inputModuleId": 3,
      "inputId": 7,
      "color": "#c9b70e"
    },
    {
      "id": 706,
      "outputModuleId": 4,
      "outputId": 3,
      "inputModuleId": 5,
      "inputId": 2,
      "color": "#c91847"
    },
    {
      "id": 707,
      "outputModuleId": 7,
      "outputId": 6,
      "inputModuleId": 5,
      "inputId": 3,
      "color": "#0c8e15"
    },
    {
      "id": 708,
      "outputModuleId": 6,
      "outputId": 2,
      "inputModuleId": 8,
      "inputId": 1,
      "color": "#c91847"
    },
    {
      "id": 709,
      "outputModuleId": 0,
      "outputId": 0,
      "inputModuleId": 6,
      "inputId": 2,
      "color": "#0c8e15"
    },
    {
      "id": 710,
      "outputModuleId": 7,
      "outputId": 3,
      "inputModuleId": 8,
      "inputId": 5,
      "color": "#0986ad"
    },
    {
      "id": 711,
      "outputModuleId": 7,
      "outputId": 2,
      "inputModuleId": 6,
      "inputId": 0,
      "color": "#c91847"
    },
    {
      "id": 712,
      "outputModuleId": 6,
      "outputId": 6,
      "inputModuleId": 8,
      "inputId": 7,
      "color": "#0c8e15"
    },
    {
      "id": 713,
      "outputModuleId": 7,
      "outputId": 5,
      "inputModuleId": 7,
      "inputId": 7,
      "color": "#c9b70e"
    },
    {
      "id": 714,
      "outputModuleId": 7,
      "outputId": 4,
      "inputModuleId": 7,
      "inputId": 4,
      "color": "#c91847"
    },
    {
      "id": 715,
      "outputModuleId": 7,
      "outputId": 0,
      "inputModuleId": 7,
      "inputId": 9,
      "color": "#0c8e15"
    },
    {
      "id": 716,
      "outputModuleId": 7,
      "outputId": 1,
      "inputModuleId": 7,
      "inputId": 8,
      "color": "#0986ad"
    },
    {
      "id": 717,
      "outputModuleId": 5,
      "outputId": 1,
      "inputModuleId": 8,
      "inputId": 3,
      "color": "#c91847"
    },
    {
      "id": 701,
      "outputModuleId": 3,
      "outputId": 3,
      "inputModuleId": 8,
      "inputId": 0,
      "color": "#c91847"
    },
    {
      "id": 691,
      "outputModuleId": 3,
      "outputId": 4,
      "inputModuleId": 5,
      "inputId": 1,
      "color": "#0986ad"
    },
    {
      "id": 718,
      "outputModuleId": 7,
      "outputId": 7,
      "inputModuleId": 3,
      "inputId": 4,
      "color": "#0986ad"
    },
    {
      "id": 719,
      "outputModuleId": 9,
      "outputId": 0,
      "inputModuleId": 0,
      "inputId": 0,
      "color": "#0986ad"
    }
  ]
}