{
  "version": "0.6.2b",
  "modules": [
    {
      "plugin": "Core",
      "version": "0.6.2b",
      "model": "AudioInterface",
      "params": [],
      "data": {
        "audio": {
          "driver": 5,
          "deviceName": "Apple Inc.: Built-in Output",
          "offset": 0,
          "maxChannels": 8,
          "sampleRate": 44100,
          "blockSize": 256
        }
      },
      "pos": [
        0,
        0
      ]
    },
    {
      "plugin": "AudibleInstruments",
      "version": "0.6.3",
      "model": "Veils",
      "params": [
        {
          "paramId": 0,
          "value": 0.616500258
        },
        {
          "paramId": 1,
          "value": 0.323499918
        },
        {
          "paramId": 2,
          "value": 0.346500397
        },
        {
          "paramId": 3,
          "value": 0.0
        },
        {
          "paramId": 4,
          "value": 0.556000113
        },
        {
          "paramId": 5,
          "value": 0.626499772
        },
        {
          "paramId": 6,
          "value": 0.0
        },
        {
          "paramId": 7,
          "value": 1.0
        }
      ],
      "pos": [
        10,
        0
      ]
    },
    {
      "plugin": "Befaco",
      "version": "0.6.0",
      "model": "Rampage",
      "params": [
        {
          "paramId": 0,
          "value": 1.0
        },
        {
          "paramId": 2,
          "value": 0.0759999081
        },
        {
          "paramId": 4,
          "value": 0.0
        },
        {
          "paramId": 6,
          "value": 0.351340413
        },
        {
          "paramId": 8,
          "value": 0.0719999969
        },
        {
          "paramId": 10,
          "value": 1.0
        },
        {
          "paramId": 1,
          "value": 1.0
        },
        {
          "paramId": 3,
          "value": -0.0260001812
        },
        {
          "paramId": 5,
          "value": 0.0
        },
        {
          "paramId": 7,
          "value": 0.11499992
        },
        {
          "paramId": 9,
          "value": 0.047999993
        },
        {
          "paramId": 11,
          "value": 1.0
        },
        {
          "paramId": 12,
          "value": 0.505064547
        }
      ],
      "pos": [
        58,
        0
      ]
    },
    {
      "plugin": "Befaco",
      "version": "0.6.0",
      "model": "DualAtenuverter",
      "params": [
        {
          "paramId": 0,
          "value": 0.0049998532
        },
        {
          "paramId": 1,
          "value": -4.4499979
        },
        {
          "paramId": 2,
          "value": -0.470000178
        },
        {
          "paramId": 3,
          "value": 2.08999753
        }
      ],
      "pos": [
        76,
        0
      ]
    },
    {
      "plugin": "Fundamental",
      "version": "0.6.2",
      "model": "SEQ3",
      "params": [
        {
          "paramId": 0,
          "value": 1.99599946
        },
        {
          "paramId": 1,
          "value": 0.0
        },
        {
          "paramId": 2,
          "value": 0.0
        },
        {
          "paramId": 3,
          "value": 8.0
        },
        {
          "paramId": 4,
          "value": 2.45106506
        },
        {
          "paramId": 12,
          "value": 5.71798372
        },
        {
          "paramId": 20,
          "value": 3.03792524
        },
        {
          "paramId": 28,
          "value": 0.0
        },
        {
          "paramId": 5,
          "value": 2.96443939
        },
        {
          "paramId": 13,
          "value": 5.73103428
        },
        {
          "paramId": 21,
          "value": 0.00634908676
        },
        {
          "paramId": 29,
          "value": 0.0
        },
        {
          "paramId": 6,
          "value": 4.63864708
        },
        {
          "paramId": 14,
          "value": 1.24105692
        },
        {
          "paramId": 22,
          "value": 7.06080198
        },
        {
          "paramId": 30,
          "value": 0.0
        },
        {
          "paramId": 7,
          "value": 9.22960854
        },
        {
          "paramId": 15,
          "value": 3.80903363
        },
        {
          "paramId": 23,
          "value": 3.26314259
        },
        {
          "paramId": 31,
          "value": 0.0
        },
        {
          "paramId": 8,
          "value": 1.05763972
        },
        {
          "paramId": 16,
          "value": 9.41582298
        },
        {
          "paramId": 24,
          "value": 7.39233398
        },
        {
          "paramId": 32,
          "value": 0.0
        },
        {
          "paramId": 9,
          "value": 4.17158842
        },
        {
          "paramId": 17,
          "value": 8.64187717
        },
        {
          "paramId": 25,
          "value": 9.63134575
        },
        {
          "paramId": 33,
          "value": 0.0
        },
        {
          "paramId": 10,
          "value": 1.56043589
        },
        {
          "paramId": 18,
          "value": 7.04064846
        },
        {
          "paramId": 26,
          "value": 8.80960369
        },
        {
          "paramId": 34,
          "value": 0.0
        },
        {
          "paramId": 11,
          "value": 8.45257092
        },
        {
          "paramId": 19,
          "value": 5.95966291
        },
        {
          "paramId": 27,
          "value": 7.26754665
        },
        {
          "paramId": 35,
          "value": 0.0
        }
      ],
      "data": {
        "running": true,
        "gates": [
          1,
          1,
          1,
          1,
          1,
          1,
          1,
          1
        ]
      },
      "pos": [
        81,
        0
      ]
    },
    {
      "plugin": "dBiz",
      "version": "0.6.1",
      "model": "TROSC",
      "params": [
        {
          "paramId": 11,
          "value": -21.9240131
        },
        {
          "paramId": 13,
          "value": 0.0
        },
        {
          "paramId": 15,
          "value": 0.0
        },
        {
          "paramId": 2,
          "value": 0.0
        },
        {
          "paramId": 4,
          "value": 0.0
        },
        {
          "paramId": 6,
          "value": 0.0
        },
        {
          "paramId": 3,
          "value": 1.0
        },
        {
          "paramId": 5,
          "value": 0.0
        },
        {
          "paramId": 7,
          "value": 0.0
        },
        {
          "paramId": 12,
          "value": -0.350999683
        },
        {
          "paramId": 14,
          "value": 0.0
        },
        {
          "paramId": 16,
          "value": 0.0
        },
        {
          "paramId": 17,
          "value": 0.0
        },
        {
          "paramId": 18,
          "value": 0.0
        },
        {
          "paramId": 19,
          "value": 0.0
        },
        {
          "paramId": 20,
          "value": 1.0
        },
        {
          "paramId": 21,
          "value": 0.0
        },
        {
          "paramId": 22,
          "value": 0.0
        },
        {
          "paramId": 23,
          "value": 0.0
        },
        {
          "paramId": 24,
          "value": 1.0
        },
        {
          "paramId": 25,
          "value": 0.0
        },
        {
          "paramId": 26,
          "value": 0.0
        },
        {
          "paramId": 27,
          "value": 0.0
        },
        {
          "paramId": 28,
          "value": 0.0
        },
        {
          "paramId": 8,
          "value": 1.0
        },
        {
          "paramId": 9,
          "value": 0.5
        },
        {
          "paramId": 10,
          "value": 0.5
        },
        {
          "paramId": 0,
          "value": 1.0
        },
        {
          "paramId": 1,
          "value": 0.0
        }
      ],
      "pos": [
        46,
        1
      ]
    },
    {
      "plugin": "Geodesics",
      "version": "0.6.4",
      "model": "Branes",
      "params": [
        {
          "paramId": 0,
          "value": 0.0
        },
        {
          "paramId": 1,
          "value": 0.0
        },
        {
          "paramId": 2,
          "value": 0.0
        },
        {
          "paramId": 3,
          "value": 0.0
        }
      ],
      "data": {
        "trigBypass0": 0.0,
        "trigBypass1": 0.0,
        "noiseRange0": 1.0,
        "noiseRange1": 1.0,
        "panelTheme": 0
      },
      "pos": [
        22,
        0
      ]
    },
    {
      "plugin": "21kHz",
      "version": "0.6.1",
      "model": "kHzTachyonEntangler",
      "params": [
        {
          "paramId": 0,
          "value": 8.0
        },
        {
          "paramId": 1,
          "value": 2.0
        },
        {
          "paramId": 2,
          "value": 0.00233331975
        },
        {
          "paramId": 3,
          "value": 3.03999972
        },
        {
          "paramId": 4,
          "value": 0.501499712
        },
        {
          "paramId": 5,
          "value": -11.5244999
        },
        {
          "paramId": 6,
          "value": 1.70000005
        },
        {
          "paramId": 7,
          "value": -3.90780354
        },
        {
          "paramId": 8,
          "value": 0.0209999979
        },
        {
          "paramId": 9,
          "value": 1.0
        },
        {
          "paramId": 10,
          "value": 0.0075000003
        },
        {
          "paramId": 11,
          "value": 1.0
        },
        {
          "paramId": 12,
          "value": -0.100000001
        },
        {
          "paramId": 13,
          "value": -0.100000001
        },
        {
          "paramId": 14,
          "value": -0.0942999944
        },
        {
          "paramId": 15,
          "value": -0.0988000035
        }
      ],
      "pos": [
        26,
        1
      ]
    },
    {
      "plugin": "AS",
      "version": "0.6.11",
      "model": "Mixer8ch",
      "params": [
        {
          "paramId": 9,
          "value": -0.0989999846
        },
        {
          "paramId": 10,
          "value": -0.294000447
        },
        {
          "paramId": 11,
          "value": 0.122999981
        },
        {
          "paramId": 12,
          "value": 0.284999937
        },
        {
          "paramId": 13,
          "value": 0.0
        },
        {
          "paramId": 14,
          "value": -0.612000108
        },
        {
          "paramId": 15,
          "value": 0.59100014
        },
        {
          "paramId": 16,
          "value": 0.0
        },
        {
          "paramId": 1,
          "value": 0.423000097
        },
        {
          "paramId": 2,
          "value": 0.420000464
        },
        {
          "paramId": 3,
          "value": 0.45799917
        },
        {
          "paramId": 4,
          "value": 0.419999808
        },
        {
          "paramId": 5,
          "value": 0.414999604
        },
        {
          "paramId": 6,
          "value": 0.444000363
        },
        {
          "paramId": 7,
          "value": 0.436999291
        },
        {
          "paramId": 8,
          "value": 0.800000012
        },
        {
          "paramId": 17,
          "value": 0.0
        },
        {
          "paramId": 18,
          "value": 0.0
        },
        {
          "paramId": 19,
          "value": 0.0
        },
        {
          "paramId": 20,
          "value": 0.0
        },
        {
          "paramId": 21,
          "value": 0.0
        },
        {
          "paramId": 22,
          "value": 0.0
        },
        {
          "paramId": 23,
          "value": 0.0
        },
        {
          "paramId": 24,
          "value": 0.0
        },
        {
          "paramId": 0,
          "value": 0.620000303
        },
        {
          "paramId": 25,
          "value": 0.0
        }
      ],
      "data": {
        "as_MixerMutes": [
          0,
          0,
          0,
          0,
          0,
          0,
          0,
          0,
          0
        ]
      },
      "pos": [
        0,
        1
      ]
    },
    {
      "plugin": "MSM",
      "version": "0.6.3",
      "model": "Dual Delay",
      "params": [
        {
          "paramId": 0,
          "value": 0.0
        },
        {
          "paramId": 12,
          "value": 0.503499925
        },
        {
          "paramId": 14,
          "value": 0.600747764
        },
        {
          "paramId": 2,
          "value": 0.661404848
        },
        {
          "paramId": 4,
          "value": 0.0440941937
        },
        {
          "paramId": 6,
          "value": 0.546536744
        },
        {
          "paramId": 7,
          "value": 0.603880882
        },
        {
          "paramId": 10,
          "value": 0.0
        },
        {
          "paramId": 1,
          "value": 0.0
        },
        {
          "paramId": 13,
          "value": 0.485499948
        },
        {
          "paramId": 15,
          "value": 0.338009357
        },
        {
          "paramId": 3,
          "value": 0.679938197
        },
        {
          "paramId": 5,
          "value": -0.346549779
        },
        {
          "paramId": 8,
          "value": 0.385824353
        },
        {
          "paramId": 9,
          "value": 0.600487888
        },
        {
          "paramId": 11,
          "value": 0.0
        }
      ],
      "data": {
        "Theme": 0,
        "DISPLAYA": 0,
        "DISPLAYB": 0
      },
      "pos": [
        33,
        0
      ]
    },
    {
      "plugin": "Fundamental",
      "version": "0.6.2",
      "model": "SEQ3",
      "params": [
        {
          "paramId": 0,
          "value": 1.94799995
        },
        {
          "paramId": 1,
          "value": 0.0
        },
        {
          "paramId": 2,
          "value": 0.0
        },
        {
          "paramId": 3,
          "value": 8.0
        },
        {
          "paramId": 4,
          "value": 3.0660646
        },
        {
          "paramId": 12,
          "value": 5.71798372
        },
        {
          "paramId": 20,
          "value": 3.03792524
        },
        {
          "paramId": 28,
          "value": 0.0
        },
        {
          "paramId": 5,
          "value": 3.02443838
        },
        {
          "paramId": 13,
          "value": 5.73103428
        },
        {
          "paramId": 21,
          "value": 0.00634908676
        },
        {
          "paramId": 29,
          "value": 0.0
        },
        {
          "paramId": 6,
          "value": 3.78364635
        },
        {
          "paramId": 14,
          "value": 1.24105692
        },
        {
          "paramId": 22,
          "value": 7.06080198
        },
        {
          "paramId": 30,
          "value": 0.0
        },
        {
          "paramId": 7,
          "value": 3.43960905
        },
        {
          "paramId": 15,
          "value": 3.80903363
        },
        {
          "paramId": 23,
          "value": 3.26314259
        },
        {
          "paramId": 31,
          "value": 0.0
        },
        {
          "paramId": 8,
          "value": 3.2626431
        },
        {
          "paramId": 16,
          "value": 9.41582298
        },
        {
          "paramId": 24,
          "value": 7.39233398
        },
        {
          "paramId": 32,
          "value": 0.0
        },
        {
          "paramId": 9,
          "value": 3.25658751
        },
        {
          "paramId": 17,
          "value": 8.64187717
        },
        {
          "paramId": 25,
          "value": 9.63134575
        },
        {
          "paramId": 33,
          "value": 0.0
        },
        {
          "paramId": 10,
          "value": 3.1954391
        },
        {
          "paramId": 18,
          "value": 7.04064846
        },
        {
          "paramId": 26,
          "value": 8.80960369
        },
        {
          "paramId": 34,
          "value": 0.0
        },
        {
          "paramId": 11,
          "value": 3.27757072
        },
        {
          "paramId": 19,
          "value": 5.95966291
        },
        {
          "paramId": 27,
          "value": 7.26754665
        },
        {
          "paramId": 35,
          "value": 0.0
        }
      ],
      "data": {
        "running": true,
        "gates": [
          1,
          1,
          1,
          1,
          1,
          1,
          1,
          1
        ]
      },
      "pos": [
        81,
        1
      ]
    },
    {
      "plugin": "dBiz",
      "version": "0.6.1",
      "model": "DVCO",
      "params": [
        {
          "paramId": 16,
          "value": 1.0
        },
        {
          "paramId": 18,
          "value": 0.468794465
        },
        {
          "paramId": 17,
          "value": 0.0
        },
        {
          "paramId": 0,
          "value": 0.343920648
        },
        {
          "paramId": 2,
          "value": 0.135064363
        },
        {
          "paramId": 1,
          "value": 0.192489743
        },
        {
          "paramId": 3,
          "value": 0.162986696
        },
        {
          "paramId": 4,
          "value": -48.1680107
        },
        {
          "paramId": 6,
          "value": 0.0660515428
        },
        {
          "paramId": 5,
          "value": 8.74958897
        },
        {
          "paramId": 7,
          "value": -0.71894753
        },
        {
          "paramId": 10,
          "value": 0.283011734
        },
        {
          "paramId": 8,
          "value": 0.286596864
        },
        {
          "paramId": 12,
          "value": 0.50696075
        },
        {
          "paramId": 11,
          "value": 1.0
        },
        {
          "paramId": 9,
          "value": 0.565687656
        },
        {
          "paramId": 13,
          "value": 1.0
        },
        {
          "paramId": 14,
          "value": 2.00099969
        },
        {
          "paramId": 15,
          "value": 2.18485689
        }
      ],
      "pos": [
        68,
        1
      ]
    },
    {
      "plugin": "AmalgamatedHarmonics",
      "version": "0.6.1",
      "model": "ScaleQuantizer2",
      "params": [
        {
          "paramId": 0,
          "value": 5.0
        },
        {
          "paramId": 1,
          "value": 8.0
        },
        {
          "paramId": 10,
          "value": -11.0
        },
        {
          "paramId": 2,
          "value": 0.0
        },
        {
          "paramId": 3,
          "value": 0.0
        },
        {
          "paramId": 4,
          "value": 0.0
        },
        {
          "paramId": 5,
          "value": 0.0
        },
        {
          "paramId": 6,
          "value": 0.0
        },
        {
          "paramId": 7,
          "value": 0.0
        },
        {
          "paramId": 8,
          "value": 0.0
        },
        {
          "paramId": 9,
          "value": 0.0
        }
      ],
      "pos": [
        103,
        0
      ]
    },
    {
      "plugin": "Fundamental",
      "version": "0.6.2",
      "model": "LFO",
      "params": [
        {
          "paramId": 0,
          "value": 0.0
        },
        {
          "paramId": 1,
          "value": 0.0
        },
        {
          "paramId": 2,
          "value": 2.73700547
        },
        {
          "paramId": 3,
          "value": 0.00150000001
        },
        {
          "paramId": 5,
          "value": 1.0
        },
        {
          "paramId": 4,
          "value": 0.0
        },
        {
          "paramId": 6,
          "value": 0.0
        }
      ],
      "pos": [
        103,
        1
      ]
    },
    {
      "plugin": "HetrickCV",
      "version": "0.6.0",
      "model": "RandomGates",
      "params": [
        {
          "paramId": 0,
          "value": 0.0
        },
        {
          "paramId": 1,
          "value": 7.0
        },
        {
          "paramId": 2,
          "value": 0.0
        }
      ],
      "data": {
        "mode": 0
      },
      "pos": [
        113,
        1
      ]
    }
  ],
  "wires": [
    {
      "color": "#c91847",
      "outputModuleId": 3,
      "outputId": 0,
      "inputModuleId": 2,
      "inputId": 0
    },
    {
      "color": "#c91847",
      "outputModuleId": 2,
      "outputId": 6,
      "inputModuleId": 1,
      "inputId": 0
    },
    {
      "color": "#c91847",
      "outputModuleId": 5,
      "outputId": 3,
      "inputModuleId": 3,
      "inputId": 0
    },
    {
      "color": "#0c8e15",
      "outputModuleId": 4,
      "outputId": 1,
      "inputModuleId": 5,
      "inputId": 0
    },
    {
      "color": "#c9b70e",
      "outputModuleId": 4,
      "outputId": 0,
      "inputModuleId": 2,
      "inputId": 2
    },
    {
      "color": "#0c8e15",
      "outputModuleId": 2,
      "outputId": 8,
      "inputModuleId": 3,
      "inputId": 1
    },
    {
      "color": "#0986ad",
      "outputModuleId": 3,
      "outputId": 1,
      "inputModuleId": 6,
      "inputId": 14
    },
    {
      "color": "#0c8e15",
      "outputModuleId": 2,
      "outputId": 2,
      "inputModuleId": 6,
      "inputId": 1
    },
    {
      "color": "#0986ad",
      "outputModuleId": 6,
      "outputId": 5,
      "inputModuleId": 5,
      "inputId": 12
    },
    {
      "color": "#c9b70e",
      "outputModuleId": 6,
      "outputId": 2,
      "inputModuleId": 5,
      "inputId": 3
    },
    {
      "color": "#c91847",
      "outputModuleId": 5,
      "outputId": 0,
      "inputModuleId": 7,
      "inputId": 4
    },
    {
      "color": "#c9b70e",
      "outputModuleId": 4,
      "outputId": 2,
      "inputModuleId": 7,
      "inputId": 10
    },
    {
      "color": "#c91847",
      "outputModuleId": 4,
      "outputId": 3,
      "inputModuleId": 7,
      "inputId": 11
    },
    {
      "color": "#0c8e15",
      "outputModuleId": 7,
      "outputId": 3,
      "inputModuleId": 2,
      "inputId": 1
    },
    {
      "color": "#0986ad",
      "outputModuleId": 1,
      "outputId": 1,
      "inputModuleId": 12,
      "inputId": 1
    },
    {
      "color": "#c91847",
      "outputModuleId": 2,
      "outputId": 7,
      "inputModuleId": 1,
      "inputId": 1
    },
    {
      "color": "#0c8e15",
      "outputModuleId": 1,
      "outputId": 0,
      "inputModuleId": 12,
      "inputId": 0
    },
    {
      "color": "#0986ad",
      "outputModuleId": 7,
      "outputId": 1,
      "inputModuleId": 1,
      "inputId": 2
    },
    {
      "color": "#c9b70e",
      "outputModuleId": 8,
      "outputId": 0,
      "inputModuleId": 9,
      "inputId": 11
    },
    {
      "color": "#c91847",
      "outputModuleId": 8,
      "outputId": 1,
      "inputModuleId": 9,
      "inputId": 12
    },
    {
      "color": "#0c8e15",
      "outputModuleId": 1,
      "outputId": 2,
      "inputModuleId": 12,
      "inputId": 2
    },
    {
      "color": "#0986ad",
      "outputModuleId": 7,
      "outputId": 2,
      "inputModuleId": 8,
      "inputId": 10
    },
    {
      "color": "#c9b70e",
      "outputModuleId": 7,
      "outputId": 0,
      "inputModuleId": 8,
      "inputId": 13
    },
    {
      "color": "#0986ad",
      "outputModuleId": 9,
      "outputId": 0,
      "inputModuleId": 0,
      "inputId": 0
    },
    {
      "color": "#c9b70e",
      "outputModuleId": 9,
      "outputId": 1,
      "inputModuleId": 0,
      "inputId": 1
    },
    {
      "color": "#c91847",
      "outputModuleId": 11,
      "outputId": 0,
      "inputModuleId": 12,
      "inputId": 3
    },
    {
      "color": "#0c8e15",
      "outputModuleId": 10,
      "outputId": 1,
      "inputModuleId": 11,
      "inputId": 0
    },
    {
      "color": "#c9b70e",
      "outputModuleId": 11,
      "outputId": 1,
      "inputModuleId": 12,
      "inputId": 4
    },
    {
      "color": "#0c8e15",
      "outputModuleId": 6,
      "outputId": 4,
      "inputModuleId": 11,
      "inputId": 2
    },
    {
      "color": "#c91847",
      "outputModuleId": 8,
      "outputId": 1,
      "inputModuleId": 6,
      "inputId": 18
    },
    {
      "color": "#0c8e15",
      "outputModuleId": 10,
      "outputId": 0,
      "inputModuleId": 6,
      "inputId": 16
    },
    {
      "color": "#0986ad",
      "outputModuleId": 11,
      "outputId": 3,
      "inputModuleId": 6,
      "inputId": 3
    },
    {
      "color": "#c9b70e",
      "outputModuleId": 11,
      "outputId": 2,
      "inputModuleId": 6,
      "inputId": 6
    },
    {
      "color": "#c91847",
      "outputModuleId": 10,
      "outputId": 2,
      "inputModuleId": 6,
      "inputId": 5
    },
    {
      "color": "#0c8e15",
      "outputModuleId": 10,
      "outputId": 3,
      "inputModuleId": 6,
      "inputId": 2
    },
    {
      "color": "#0986ad",
      "outputModuleId": 2,
      "outputId": 1,
      "inputModuleId": 6,
      "inputId": 4
    },
    {
      "color": "#c9b70e",
      "outputModuleId": 2,
      "outputId": 9,
      "inputModuleId": 6,
      "inputId": 0
    },
    {
      "color": "#c91847",
      "outputModuleId": 9,
      "outputId": 2,
      "inputModuleId": 7,
      "inputId": 1
    },
    {
      "color": "#c9b70e",
      "outputModuleId": 12,
      "outputId": 0,
      "inputModuleId": 8,
      "inputId": 1
    },
    {
      "color": "#c91847",
      "outputModuleId": 12,
      "outputId": 1,
      "inputModuleId": 8,
      "inputId": 4
    },
    {
      "color": "#0c8e15",
      "outputModuleId": 12,
      "outputId": 2,
      "inputModuleId": 8,
      "inputId": 7
    },
    {
      "color": "#c91847",
      "outputModuleId": 12,
      "outputId": 3,
      "inputModuleId": 8,
      "inputId": 16
    },
    {
      "color": "#0c8e15",
      "outputModuleId": 12,
      "outputId": 4,
      "inputModuleId": 8,
      "inputId": 19
    },
    {
      "color": "#c91847",
      "outputModuleId": 9,
      "outputId": 3,
      "inputModuleId": 7,
      "inputId": 3
    },
    {
      "color": "#0c8e15",
      "outputModuleId": 13,
      "outputId": 3,
      "inputModuleId": 10,
      "inputId": 1
    },
    {
      "color": "#0986ad",
      "outputModuleId": 13,
      "outputId": 3,
      "inputModuleId": 4,
      "inputId": 1
    },
    {
      "color": "#c9b70e",
      "outputModuleId": 13,
      "outputId": 3,
      "inputModuleId": 2,
      "inputId": 3
    },
    {
      "color": "#c91847",
      "outputModuleId": 14,
      "outputId": 0,
      "inputModuleId": 10,
      "inputId": 2
    },
    {
      "color": "#0c8e15",
      "outputModuleId": 13,
      "outputId": 3,
      "inputModuleId": 14,
      "inputId": 0
    },
    {
      "color": "#0986ad",
      "outputModuleId": 14,
      "outputId": 2,
      "inputModuleId": 4,
      "inputId": 2
    },
    {
      "color": "#c91847",
      "outputModuleId": 10,
      "outputId": 2,
      "inputModuleId": 12,
      "inputId": 10
    }
  ]
}