{
  "version": "1.1.6",
  "modules": [
    {
      "id": 1,
      "plugin": "Core",
      "version": "1.1.6",
      "model": "AudioInterface",
      "params": [],
      "leftModuleId": 2,
      "rightModuleId": 8,
      "data": {
        "audio": {
          "driver": 5,
          "deviceName": "Apple Inc.: Built-in Output",
          "offset": 0,
          "maxChannels": 8,
          "sampleRate": 44100,
          "blockSize": 256
        }
      },
      "pos": [
        57,
        0
      ]
    },
    {
      "id": 2,
      "plugin": "Fundamental",
      "version": "1.4.0",
      "model": "VCMixer",
      "params": [
        {
          "id": 0,
          "value": 2.0
        },
        {
          "id": 1,
          "value": 0.530329704
        },
        {
          "id": 2,
          "value": 0.70427835
        },
        {
          "id": 3,
          "value": 1.23036647
        },
        {
          "id": 4,
          "value": 1.41421354
        }
      ],
      "leftModuleId": 7,
      "rightModuleId": 1,
      "pos": [
        47,
        0
      ]
    },
    {
      "id": 3,
      "plugin": "Fundamental",
      "version": "1.4.0",
      "model": "VCO",
      "params": [
        {
          "id": 0,
          "value": 0.0
        },
        {
          "id": 1,
          "value": 1.0
        },
        {
          "id": 2,
          "value": -27.9179993
        },
        {
          "id": 3,
          "value": 0.0
        },
        {
          "id": 4,
          "value": 0.0
        },
        {
          "id": 5,
          "value": 0.507352352
        },
        {
          "id": 6,
          "value": 0.0
        }
      ],
      "leftModuleId": 5,
      "rightModuleId": 4,
      "pos": [
        8,
        0
      ]
    },
    {
      "id": 4,
      "plugin": "Fundamental",
      "version": "1.4.0",
      "model": "VCF",
      "params": [
        {
          "id": 0,
          "value": 0.605999172
        },
        {
          "id": 1,
          "value": 0.5
        },
        {
          "id": 2,
          "value": 0.234000027
        },
        {
          "id": 3,
          "value": 0.658000171
        },
        {
          "id": 4,
          "value": 0.436500013
        }
      ],
      "leftModuleId": 3,
      "rightModuleId": 6,
      "pos": [
        18,
        0
      ]
    },
    {
      "id": 5,
      "plugin": "Core",
      "version": "1.1.6",
      "model": "MIDIToCVInterface",
      "params": [],
      "rightModuleId": 3,
      "data": {
        "channels": 1,
        "polyMode": 0,
        "clockDivision": 24,
        "lastPitch": 8192,
        "lastMod": 0,
        "midi": {
          "driver": 1,
          "channel": 9
        }
      },
      "pos": [
        0,
        0
      ]
    },
    {
      "id": 6,
      "plugin": "Fundamental",
      "version": "1.4.0",
      "model": "ADSR",
      "params": [
        {
          "id": 0,
          "value": 0.588000536
        },
        {
          "id": 1,
          "value": 0.677000344
        },
        {
          "id": 2,
          "value": 0.5
        },
        {
          "id": 3,
          "value": 0.576500058
        }
      ],
      "leftModuleId": 4,
      "rightModuleId": 7,
      "pos": [
        26,
        0
      ]
    },
    {
      "id": 7,
      "plugin": "Fundamental",
      "version": "1.4.0",
      "model": "Scope",
      "params": [
        {
          "id": 0,
          "value": 0.0
        },
        {
          "id": 1,
          "value": 0.0
        },
        {
          "id": 2,
          "value": 0.0
        },
        {
          "id": 3,
          "value": 0.0
        },
        {
          "id": 4,
          "value": 14.0
        },
        {
          "id": 5,
          "value": 0.0
        },
        {
          "id": 6,
          "value": 0.0
        },
        {
          "id": 7,
          "value": 0.0
        }
      ],
      "leftModuleId": 6,
      "rightModuleId": 2,
      "data": {
        "lissajous": 0,
        "external": 0
      },
      "pos": [
        34,
        0
      ]
    },
    {
      "id": 8,
      "plugin": "Core",
      "version": "1.1.6",
      "model": "Notes",
      "params": [],
      "leftModuleId": 1,
      "text": "Demo patch instructions:\n\n1. Choose an audio driver and device in the AUDIO-8 module.\n\n2. Use the QWERTY and ZXCVB rows of your keyboard to generate MIDI notes, which are converted to 1V/oct and GATE signals.\n\n3. Drag knobs up/down. Hold Ctrl (Cmd on Mac) while dragging to fine-tune. Right-click knobs to edit, or double-click to initialize.\n\n4. Drag ports to create and move cables. Stack multiple cables on outputs by holding Ctrl (Cmd on Mac) and dragging from an output.\n\n5. Right-click on an empty rack space to add new modules.",
      "pos": [
        67,
        0
      ]
    },
    {
      "id": 9,
      "plugin": "Core",
      "version": "1.1.6",
      "model": "MIDIToCVInterface",
      "params": [],
      "rightModuleId": 10,
      "data": {
        "channels": 1,
        "polyMode": 0,
        "clockDivision": 24,
        "lastPitch": 8192,
        "lastMod": 0,
        "midi": {
          "driver": 1,
          "channel": 9
        }
      },
      "pos": [
        0,
        1
      ]
    },
    {
      "id": 10,
      "plugin": "Fundamental",
      "version": "1.4.0",
      "model": "VCO",
      "params": [
        {
          "id": 0,
          "value": 0.0
        },
        {
          "id": 1,
          "value": 1.0
        },
        {
          "id": 2,
          "value": 17.010067
        },
        {
          "id": 3,
          "value": 0.0
        },
        {
          "id": 4,
          "value": 0.0
        },
        {
          "id": 5,
          "value": 0.5
        },
        {
          "id": 6,
          "value": 0.0
        }
      ],
      "leftModuleId": 9,
      "rightModuleId": 11,
      "pos": [
        8,
        1
      ]
    },
    {
      "id": 11,
      "plugin": "Fundamental",
      "version": "1.4.0",
      "model": "VCF",
      "params": [
        {
          "id": 0,
          "value": 0.965999961
        },
        {
          "id": 1,
          "value": 0.641000271
        },
        {
          "id": 2,
          "value": 0.424500078
        },
        {
          "id": 3,
          "value": 1.0
        },
        {
          "id": 4,
          "value": 0.0
        }
      ],
      "leftModuleId": 10,
      "rightModuleId": 12,
      "pos": [
        18,
        1
      ]
    },
    {
      "id": 12,
      "plugin": "Fundamental",
      "version": "1.4.0",
      "model": "ADSR",
      "params": [
        {
          "id": 0,
          "value": 0.258000046
        },
        {
          "id": 1,
          "value": 0.743000448
        },
        {
          "id": 2,
          "value": 0.499999762
        },
        {
          "id": 3,
          "value": 0.584000111
        }
      ],
      "leftModuleId": 11,
      "rightModuleId": 19,
      "pos": [
        26,
        1
      ]
    },
    {
      "id": 13,
      "plugin": "Core",
      "version": "1.1.6",
      "model": "MIDIToCVInterface",
      "params": [],
      "rightModuleId": 14,
      "data": {
        "channels": 1,
        "polyMode": 0,
        "clockDivision": 24,
        "lastPitch": 8192,
        "lastMod": 0,
        "midi": {
          "driver": 1,
          "channel": 9
        }
      },
      "pos": [
        0,
        2
      ]
    },
    {
      "id": 14,
      "plugin": "Fundamental",
      "version": "1.4.0",
      "model": "VCO",
      "params": [
        {
          "id": 0,
          "value": 0.0
        },
        {
          "id": 1,
          "value": 0.0
        },
        {
          "id": 2,
          "value": -5.29200411
        },
        {
          "id": 3,
          "value": -1.0
        },
        {
          "id": 4,
          "value": 0.0
        },
        {
          "id": 5,
          "value": 0.5
        },
        {
          "id": 6,
          "value": 0.0
        }
      ],
      "leftModuleId": 13,
      "rightModuleId": 16,
      "pos": [
        8,
        2
      ]
    },
    {
      "id": 16,
      "plugin": "Fundamental",
      "version": "1.4.0",
      "model": "VCF",
      "params": [
        {
          "id": 0,
          "value": 0.382499695
        },
        {
          "id": 1,
          "value": 0.641000271
        },
        {
          "id": 2,
          "value": 0.613500834
        },
        {
          "id": 3,
          "value": 0.565000415
        },
        {
          "id": 4,
          "value": 0.0
        }
      ],
      "leftModuleId": 14,
      "rightModuleId": 17,
      "pos": [
        18,
        2
      ]
    },
    {
      "id": 17,
      "plugin": "Fundamental",
      "version": "1.4.0",
      "model": "ADSR",
      "params": [
        {
          "id": 0,
          "value": 0.342000097
        },
        {
          "id": 1,
          "value": 0.395000547
        },
        {
          "id": 2,
          "value": 0.5
        },
        {
          "id": 3,
          "value": 0.576500058
        }
      ],
      "leftModuleId": 16,
      "rightModuleId": 130,
      "pos": [
        26,
        2
      ]
    },
    {
      "id": 19,
      "plugin": "Fundamental",
      "version": "1.4.0",
      "model": "Scope",
      "params": [
        {
          "id": 0,
          "value": 1.0
        },
        {
          "id": 1,
          "value": 0.0
        },
        {
          "id": 2,
          "value": 1.0
        },
        {
          "id": 3,
          "value": 0.0
        },
        {
          "id": 4,
          "value": 14.0
        },
        {
          "id": 5,
          "value": 0.0
        },
        {
          "id": 6,
          "value": 0.0
        },
        {
          "id": 7,
          "value": 0.0
        }
      ],
      "leftModuleId": 12,
      "rightModuleId": 123,
      "data": {
        "lissajous": 0,
        "external": 0
      },
      "pos": [
        34,
        1
      ]
    },
    {
      "id": 123,
      "plugin": "Geodesics",
      "version": "1.1.0",
      "model": "Entropia",
      "params": [
        {
          "id": 0,
          "value": 0.0
        },
        {
          "id": 1,
          "value": 0.0
        },
        {
          "id": 2,
          "value": 0.0
        },
        {
          "id": 3,
          "value": 0.0
        },
        {
          "id": 4,
          "value": 0.0
        },
        {
          "id": 5,
          "value": 0.566000283
        },
        {
          "id": 6,
          "value": 0.605000675
        },
        {
          "id": 7,
          "value": 0.414499998
        },
        {
          "id": 8,
          "value": 0.614000022
        },
        {
          "id": 9,
          "value": 0.593000114
        },
        {
          "id": 10,
          "value": 0.421999961
        },
        {
          "id": 11,
          "value": 0.561499715
        },
        {
          "id": 12,
          "value": 0.459499985
        },
        {
          "id": 13,
          "value": 0.512000203
        },
        {
          "id": 14,
          "value": 0.575000167
        },
        {
          "id": 15,
          "value": 0.5
        },
        {
          "id": 16,
          "value": 0.5
        },
        {
          "id": 17,
          "value": 0.5
        },
        {
          "id": 18,
          "value": 0.5
        },
        {
          "id": 19,
          "value": 0.5
        },
        {
          "id": 20,
          "value": 0.5
        },
        {
          "id": 21,
          "value": 0.608499646
        },
        {
          "id": 22,
          "value": 0.933999777
        },
        {
          "id": 23,
          "value": 1.0
        },
        {
          "id": 24,
          "value": 1.0
        },
        {
          "id": 25,
          "value": 1.0
        },
        {
          "id": 26,
          "value": 1.0
        },
        {
          "id": 27,
          "value": 1.0
        },
        {
          "id": 28,
          "value": 1.0
        },
        {
          "id": 29,
          "value": 0.0
        },
        {
          "id": 30,
          "value": 0.0
        },
        {
          "id": 31,
          "value": 0.0
        },
        {
          "id": 32,
          "value": 0.0
        },
        {
          "id": 33,
          "value": 0.0
        },
        {
          "id": 34,
          "value": 0.0
        },
        {
          "id": 35,
          "value": 0.0
        },
        {
          "id": 36,
          "value": 0.0
        },
        {
          "id": 37,
          "value": 0.0
        },
        {
          "id": 38,
          "value": 0.0
        },
        {
          "id": 39,
          "value": 0.0
        },
        {
          "id": 40,
          "value": 0.0
        },
        {
          "id": 41,
          "value": 0.267000049
        },
        {
          "id": 42,
          "value": 0.0
        },
        {
          "id": 43,
          "value": 0.0
        },
        {
          "id": 44,
          "value": 0.0
        }
      ],
      "leftModuleId": 19,
      "rightModuleId": 124,
      "data": {
        "panelTheme": 1,
        "running": false,
        "resetOnRun": false,
        "length": 2,
        "quantize": 1,
        "audio": 0,
        "ranges0": 2,
        "ranges1": 1,
        "addMode": false,
        "sources0": 1,
        "sources1": 0,
        "stepIndex": 1,
        "pipeBlue": false,
        "randomCVs0": 0.787704051,
        "randomCVs1": 0.192263603,
        "clkSource": 0
      },
      "pos": [
        47,
        1
      ]
    },
    {
      "id": 124,
      "plugin": "Geodesics",
      "version": "1.1.0",
      "model": "Branes",
      "params": [
        {
          "id": 0,
          "value": 0.0
        },
        {
          "id": 1,
          "value": 0.0
        },
        {
          "id": 2,
          "value": 0.0
        },
        {
          "id": 3,
          "value": 0.0
        }
      ],
      "leftModuleId": 123,
      "data": {
        "panelTheme": 1,
        "vibrations0": 1,
        "vibrations1": 1,
        "noiseRange0": 1.0,
        "noiseRange1": 1.0
      },
      "pos": [
        68,
        1
      ]
    },
    {
      "id": 130,
      "plugin": "Bidoo",
      "version": "1.1.8",
      "model": "OUAIve",
      "params": [
        {
          "id": 0,
          "value": 1.0
        },
        {
          "id": 1,
          "value": 0.0
        },
        {
          "id": 2,
          "value": 0.0
        },
        {
          "id": 3,
          "value": 1.0
        },
        {
          "id": 4,
          "value": 0.0
        },
        {
          "id": 5,
          "value": 0.0
        }
      ],
      "leftModuleId": 17,
      "data": {
        "lastPath": "/Volumes/workStation/::A\\\\/Sound/2019/1.wav",
        "trigMode": 0,
        "readMode": 0
      },
      "pos": [
        34,
        2
      ]
    },
    {
      "id": 131,
      "plugin": "GlueTheGiant",
      "version": "1.1.1",
      "model": "MetroCityBus",
      "params": [
        {
          "id": 0,
          "value": 0.0
        },
        {
          "id": 1,
          "value": 0.0
        },
        {
          "id": 2,
          "value": 0.5
        },
        {
          "id": 3,
          "value": 0.0
        },
        {
          "id": 4,
          "value": 0.0
        },
        {
          "id": 5,
          "value": 0.0
        },
        {
          "id": 6,
          "value": 0.0
        },
        {
          "id": 7,
          "value": 1.0
        },
        {
          "id": 8,
          "value": 0.0
        },
        {
          "id": 9,
          "value": 0.0
        }
      ],
      "data": {
        "input_on": 1,
        "reverse_poly": 0,
        "blue_post_fade": 0,
        "orange_post_fade": 0,
        "gain": 1.0,
        "level_cv_filter": 1,
        "fade_in": 26.0,
        "fade_out": 26.0,
        "audition_mixer": 0,
        "auditioned": 0,
        "temped": 0,
        "color_theme": 0
      },
      "pos": [
        48,
        2
      ]
    }
  ],
  "cables": [
    {
      "id": 55,
      "outputModuleId": 2,
      "outputId": 0,
      "inputModuleId": 1,
      "inputId": 0,
      "color": "#0986ad"
    },
    {
      "id": 56,
      "outputModuleId": 2,
      "outputId": 0,
      "inputModuleId": 1,
      "inputId": 1,
      "color": "#c9b70e"
    },
    {
      "id": 57,
      "outputModuleId": 6,
      "outputId": 0,
      "inputModuleId": 4,
      "inputId": 0,
      "color": "#c91847"
    },
    {
      "id": 58,
      "outputModuleId": 5,
      "outputId": 1,
      "inputModuleId": 6,
      "inputId": 4,
      "color": "#c9b70e"
    },
    {
      "id": 61,
      "outputModuleId": 2,
      "outputId": 1,
      "inputModuleId": 7,
      "inputId": 0,
      "color": "#c9b70e"
    },
    {
      "id": 62,
      "outputModuleId": 5,
      "outputId": 6,
      "inputModuleId": 6,
      "inputId": 5,
      "color": "#c91847"
    },
    {
      "id": 63,
      "outputModuleId": 9,
      "outputId": 6,
      "inputModuleId": 12,
      "inputId": 5,
      "color": "#c91847"
    },
    {
      "id": 64,
      "outputModuleId": 9,
      "outputId": 1,
      "inputModuleId": 12,
      "inputId": 4,
      "color": "#0986ad"
    },
    {
      "id": 65,
      "outputModuleId": 9,
      "outputId": 0,
      "inputModuleId": 10,
      "inputId": 0,
      "color": "#c9b70e"
    },
    {
      "id": 66,
      "outputModuleId": 10,
      "outputId": 2,
      "inputModuleId": 11,
      "inputId": 3,
      "color": "#0c8e15"
    },
    {
      "id": 67,
      "outputModuleId": 12,
      "outputId": 0,
      "inputModuleId": 11,
      "inputId": 0,
      "color": "#c91847"
    },
    {
      "id": 69,
      "outputModuleId": 2,
      "outputId": 2,
      "inputModuleId": 7,
      "inputId": 1,
      "color": "#c9b70e"
    },
    {
      "id": 70,
      "outputModuleId": 12,
      "outputId": 0,
      "inputModuleId": 2,
      "inputId": 6,
      "color": "#0c8e15"
    },
    {
      "id": 71,
      "outputModuleId": 11,
      "outputId": 0,
      "inputModuleId": 2,
      "inputId": 2,
      "color": "#c91847"
    },
    {
      "id": 72,
      "outputModuleId": 13,
      "outputId": 0,
      "inputModuleId": 14,
      "inputId": 0,
      "color": "#0986ad"
    },
    {
      "id": 74,
      "outputModuleId": 16,
      "outputId": 0,
      "inputModuleId": 2,
      "inputId": 3,
      "color": "#c91847"
    },
    {
      "id": 75,
      "outputModuleId": 17,
      "outputId": 0,
      "inputModuleId": 16,
      "inputId": 0,
      "color": "#0986ad"
    },
    {
      "id": 76,
      "outputModuleId": 13,
      "outputId": 1,
      "inputModuleId": 17,
      "inputId": 4,
      "color": "#c9b70e"
    },
    {
      "id": 77,
      "outputModuleId": 13,
      "outputId": 6,
      "inputModuleId": 17,
      "inputId": 5,
      "color": "#0c8e15"
    },
    {
      "id": 79,
      "outputModuleId": 2,
      "outputId": 3,
      "inputModuleId": 19,
      "inputId": 0,
      "color": "#0986ad"
    },
    {
      "id": 85,
      "outputModuleId": 17,
      "outputId": 0,
      "inputModuleId": 2,
      "inputId": 7,
      "color": "#c91847"
    },
    {
      "id": 88,
      "outputModuleId": 2,
      "outputId": 4,
      "inputModuleId": 19,
      "inputId": 1,
      "color": "#c91847"
    },
    {
      "id": 73,
      "outputModuleId": 14,
      "outputId": 2,
      "inputModuleId": 16,
      "inputId": 3,
      "color": "#c9b70e"
    },
    {
      "id": 752,
      "outputModuleId": 5,
      "outputId": 1,
      "inputModuleId": 2,
      "inputId": 5,
      "color": "#0986ad"
    },
    {
      "id": 753,
      "outputModuleId": 123,
      "outputId": 0,
      "inputModuleId": 3,
      "inputId": 0,
      "color": "#c9b70e"
    },
    {
      "id": 754,
      "outputModuleId": 5,
      "outputId": 1,
      "inputModuleId": 123,
      "inputId": 3,
      "color": "#0c8e15"
    },
    {
      "id": 755,
      "outputModuleId": 5,
      "outputId": 6,
      "inputModuleId": 123,
      "inputId": 0,
      "color": "#c91847"
    },
    {
      "id": 60,
      "outputModuleId": 4,
      "outputId": 0,
      "inputModuleId": 2,
      "inputId": 1,
      "color": "#0986ad"
    },
    {
      "id": 54,
      "outputModuleId": 3,
      "outputId": 2,
      "inputModuleId": 4,
      "inputId": 3,
      "color": "#0c8e15"
    },
    {
      "id": 756,
      "outputModuleId": 3,
      "outputId": 3,
      "inputModuleId": 124,
      "inputId": 14,
      "color": "#0986ad"
    },
    {
      "id": 758,
      "outputModuleId": 124,
      "outputId": 0,
      "inputModuleId": 4,
      "inputId": 1,
      "color": "#0c8e15"
    },
    {
      "id": 757,
      "outputModuleId": 4,
      "outputId": 1,
      "inputModuleId": 124,
      "inputId": 15,
      "color": "#c9b70e"
    },
    {
      "id": 759,
      "outputModuleId": 124,
      "outputId": 3,
      "inputModuleId": 10,
      "inputId": 1,
      "color": "#c91847"
    },
    {
      "id": 760,
      "outputModuleId": 124,
      "outputId": 5,
      "inputModuleId": 10,
      "inputId": 3,
      "color": "#c9b70e"
    },
    {
      "id": 762,
      "outputModuleId": 123,
      "outputId": 0,
      "inputModuleId": 124,
      "inputId": 9,
      "color": "#c91847"
    },
    {
      "id": 761,
      "outputModuleId": 124,
      "outputId": 13,
      "inputModuleId": 3,
      "inputId": 1,
      "color": "#0c8e15"
    },
    {
      "id": 771,
      "outputModuleId": 130,
      "outputId": 0,
      "inputModuleId": 2,
      "inputId": 4,
      "color": "#c9b70e"
    },
    {
      "id": 776,
      "outputModuleId": 124,
      "outputId": 9,
      "inputModuleId": 16,
      "inputId": 2,
      "color": "#0986ad"
    },
    {
      "id": 777,
      "outputModuleId": 130,
      "outputId": 1,
      "inputModuleId": 123,
      "inputId": 9,
      "color": "#c9b70e"
    },
    {
      "id": 778,
      "outputModuleId": 124,
      "outputId": 8,
      "inputModuleId": 14,
      "inputId": 1,
      "color": "#0c8e15"
    },
    {
      "id": 779,
      "outputModuleId": 124,
      "outputId": 2,
      "inputModuleId": 16,
      "inputId": 1,
      "color": "#c91847"
    },
    {
      "id": 780,
      "outputModuleId": 124,
      "outputId": 4,
      "inputModuleId": 14,
      "inputId": 3,
      "color": "#0986ad"
    },
    {
      "id": 781,
      "outputModuleId": 16,
      "outputId": 1,
      "inputModuleId": 124,
      "inputId": 11,
      "color": "#c9b70e"
    },
    {
      "id": 782,
      "outputModuleId": 11,
      "outputId": 1,
      "inputModuleId": 124,
      "inputId": 1,
      "color": "#0c8e15"
    },
    {
      "id": 783,
      "outputModuleId": 10,
      "outputId": 1,
      "inputModuleId": 124,
      "inputId": 10,
      "color": "#c91847"
    },
    {
      "id": 784,
      "outputModuleId": 3,
      "outputId": 1,
      "inputModuleId": 124,
      "inputId": 5,
      "color": "#0986ad"
    },
    {
      "id": 785,
      "outputModuleId": 14,
      "outputId": 3,
      "inputModuleId": 124,
      "inputId": 3,
      "color": "#c9b70e"
    },
    {
      "id": 786,
      "outputModuleId": 13,
      "outputId": 1,
      "inputModuleId": 2,
      "inputId": 8,
      "color": "#0c8e15"
    },
    {
      "id": 787,
      "outputModuleId": 124,
      "outputId": 12,
      "inputModuleId": 130,
      "inputId": 3,
      "color": "#c91847"
    }
  ]
}