{
  "version": "0.6.2b",
  "modules": [
    {
      "plugin": "Core",
      "version": "0.6.2b",
      "model": "AudioInterface",
      "params": [],
      "data": {
        "audio": {
          "driver": 5,
          "deviceName": "Apple Inc.: Built-in Output",
          "offset": 0,
          "maxChannels": 8,
          "sampleRate": 44100,
          "blockSize": 256
        }
      },
      "pos": [
        0,
        0
      ]
    },
    {
      "plugin": "Core",
      "version": "0.6.2b",
      "model": "MIDIToCVInterface",
      "params": [],
      "data": {
        "divisions": [
          24,
          6
        ],
        "midi": {
          "driver": 1,
          "deviceName": "IAC Driver Bus 1",
          "channel": -1
        }
      },
      "pos": [
        0,
        1
      ]
    },
    {
      "plugin": "Core",
      "version": "0.6.2b",
      "model": "MIDIToCVInterface",
      "params": [],
      "data": {
        "divisions": [
          24,
          6
        ],
        "midi": {
          "driver": 1,
          "deviceName": "IAC Driver Bus 2",
          "channel": -1
        }
      },
      "pos": [
        8,
        1
      ]
    },
    {
      "plugin": "Befaco",
      "version": "0.6.0",
      "model": "EvenVCO",
      "params": [
        {
          "paramId": 0,
          "value": -5.0
        },
        {
          "paramId": 1,
          "value": 0.0
        },
        {
          "paramId": 2,
          "value": -0.542999983
        }
      ],
      "pos": [
        30,
        0
      ]
    },
    {
      "plugin": "squinkylabs-plug1",
      "version": "0.6.6",
      "model": "squinkylabs-vocalanimator",
      "params": [
        {
          "paramId": 0,
          "value": 0.710000992
        },
        {
          "paramId": 4,
          "value": -0.315999866
        },
        {
          "paramId": 10,
          "value": 2.0
        },
        {
          "paramId": 2,
          "value": -3.1150012
        },
        {
          "paramId": 6,
          "value": 1.0
        },
        {
          "paramId": 1,
          "value": 1.92000008
        },
        {
          "paramId": 5,
          "value": 1.0
        },
        {
          "paramId": 3,
          "value": 0.0750012994
        },
        {
          "paramId": 7,
          "value": 1.0
        },
        {
          "paramId": 8,
          "value": 0.0
        }
      ],
      "pos": [
        16,
        0
      ]
    },
    {
      "plugin": "ESeries",
      "version": "0.6.0",
      "model": "E340",
      "params": [
        {
          "paramId": 0,
          "value": 0.0
        },
        {
          "paramId": 1,
          "value": 0.0
        },
        {
          "paramId": 2,
          "value": 0.266999841
        },
        {
          "paramId": 3,
          "value": 0.103498928
        },
        {
          "paramId": 4,
          "value": 0.328500062
        },
        {
          "paramId": 5,
          "value": 0.598999739
        },
        {
          "paramId": 6,
          "value": 0.0
        }
      ],
      "pos": [
        38,
        0
      ]
    },
    {
      "plugin": "HetrickCV",
      "version": "0.6.0",
      "model": "Bitshift",
      "params": [
        {
          "paramId": 0,
          "value": -0.0100005567
        },
        {
          "paramId": 1,
          "value": 1.0
        },
        {
          "paramId": 2,
          "value": 0.0
        }
      ],
      "pos": [
        10,
        0
      ]
    },
    {
      "plugin": "Befaco",
      "version": "0.6.0",
      "model": "EvenVCO",
      "params": [
        {
          "paramId": 0,
          "value": -5.0
        },
        {
          "paramId": 1,
          "value": 0.0
        },
        {
          "paramId": 2,
          "value": 0.0
        }
      ],
      "pos": [
        57,
        0
      ]
    },
    {
      "plugin": "Befaco",
      "version": "0.6.0",
      "model": "Mixer",
      "params": [
        {
          "paramId": 0,
          "value": 0.357000023
        },
        {
          "paramId": 1,
          "value": 0.636000395
        },
        {
          "paramId": 2,
          "value": 0.0
        },
        {
          "paramId": 3,
          "value": 0.0
        }
      ],
      "pos": [
        52,
        0
      ]
    },
    {
      "plugin": "SonusModular",
      "version": "0.6.1",
      "model": "Deathcrush",
      "params": [
        {
          "paramId": 0,
          "value": 0.404999971
        },
        {
          "paramId": 1,
          "value": 0.571499169
        },
        {
          "paramId": 2,
          "value": 3.08999634
        }
      ],
      "pos": [
        65,
        0
      ]
    }
  ],
  "wires": [
    {
      "color": "#c91847",
      "outputModuleId": 3,
      "outputId": 2,
      "inputModuleId": 4,
      "inputId": 0
    },
    {
      "color": "#0986ad",
      "outputModuleId": 4,
      "outputId": 0,
      "inputModuleId": 5,
      "inputId": 4
    },
    {
      "color": "#c91847",
      "outputModuleId": 4,
      "outputId": 1,
      "inputModuleId": 5,
      "inputId": 3
    },
    {
      "color": "#0c8e15",
      "outputModuleId": 3,
      "outputId": 0,
      "inputModuleId": 6,
      "inputId": 0
    },
    {
      "color": "#0986ad",
      "outputModuleId": 6,
      "outputId": 0,
      "inputModuleId": 8,
      "inputId": 1
    },
    {
      "color": "#c9b70e",
      "outputModuleId": 2,
      "outputId": 0,
      "inputModuleId": 3,
      "inputId": 1
    },
    {
      "color": "#c91847",
      "outputModuleId": 2,
      "outputId": 0,
      "inputModuleId": 5,
      "inputId": 0
    },
    {
      "color": "#0c8e15",
      "outputModuleId": 5,
      "outputId": 0,
      "inputModuleId": 8,
      "inputId": 0
    },
    {
      "color": "#0986ad",
      "outputModuleId": 1,
      "outputId": 0,
      "inputModuleId": 7,
      "inputId": 1
    },
    {
      "color": "#c9b70e",
      "outputModuleId": 7,
      "outputId": 0,
      "inputModuleId": 9,
      "inputId": 0
    },
    {
      "color": "#c91847",
      "outputModuleId": 9,
      "outputId": 0,
      "inputModuleId": 8,
      "inputId": 2
    },
    {
      "color": "#0c8e15",
      "outputModuleId": 8,
      "outputId": 0,
      "inputModuleId": 0,
      "inputId": 0
    },
    {
      "color": "#0986ad",
      "outputModuleId": 8,
      "outputId": 1,
      "inputModuleId": 0,
      "inputId": 1
    }
  ]
}