{
  "version": "0.6.2b",
  "modules": [
    {
      "plugin": "Core",
      "version": "0.6.2b",
      "model": "QuadMIDIToCVInterface",
      "params": [],
      "data": {
        "midi": {
          "driver": 1,
          "deviceName": "IAC Driver Bus 1",
          "channel": -1
        },
        "polyMode": 2
      },
      "pos": [
        0,
        0
      ]
    },
    {
      "plugin": "Core",
      "version": "0.6.2b",
      "model": "QuadMIDIToCVInterface",
      "params": [],
      "data": {
        "midi": {
          "driver": 1,
          "deviceName": "IAC Driver Bus 2",
          "channel": -1
        },
        "polyMode": 2
      },
      "pos": [
        10,
        0
      ]
    },
    {
      "plugin": "Core",
      "version": "0.6.2b",
      "model": "AudioInterface",
      "params": [],
      "data": {
        "audio": {
          "driver": 5,
          "deviceName": "Apple Inc.: Built-in Output",
          "offset": 0,
          "maxChannels": 8,
          "sampleRate": 44100,
          "blockSize": 256
        }
      },
      "pos": [
        38,
        0
      ]
    },
    {
      "plugin": "SonusModular",
      "version": "0.6.1",
      "model": "Osculum",
      "params": [
        {
          "paramId": 0,
          "value": 3.0
        }
      ],
      "pos": [
        18,
        1
      ]
    },
    {
      "plugin": "AudibleInstruments",
      "version": "0.6.0",
      "model": "Veils",
      "params": [
        {
          "paramId": 0,
          "value": 1.0
        },
        {
          "paramId": 1,
          "value": 1.0
        },
        {
          "paramId": 2,
          "value": 1.0
        },
        {
          "paramId": 3,
          "value": 1.0
        },
        {
          "paramId": 4,
          "value": 0.312999874
        },
        {
          "paramId": 5,
          "value": 0.0910001472
        },
        {
          "paramId": 6,
          "value": 0.0820000917
        },
        {
          "paramId": 7,
          "value": 0.339999944
        }
      ],
      "pos": [
        57,
        1
      ]
    },
    {
      "plugin": "Core",
      "version": "0.6.2b",
      "model": "QuadMIDIToCVInterface",
      "params": [],
      "data": {
        "midi": {
          "driver": 1,
          "deviceName": "IAC Driver Bus 3",
          "channel": -1
        },
        "polyMode": 2
      },
      "pos": [
        20,
        0
      ]
    },
    {
      "plugin": "Befaco",
      "version": "0.6.0",
      "model": "Mixer",
      "params": [
        {
          "paramId": 0,
          "value": 0.477000058
        },
        {
          "paramId": 1,
          "value": 0.495000094
        },
        {
          "paramId": 2,
          "value": 0.556000113
        },
        {
          "paramId": 3,
          "value": 0.504000187
        }
      ],
      "pos": [
        70,
        0
      ]
    },
    {
      "plugin": "Befaco",
      "version": "0.6.0",
      "model": "EvenVCO",
      "params": [
        {
          "paramId": 0,
          "value": 2.0
        },
        {
          "paramId": 1,
          "value": 7.0
        },
        {
          "paramId": 2,
          "value": 0.270999998
        }
      ],
      "pos": [
        0,
        1
      ]
    },
    {
      "plugin": "Bogaudio",
      "version": "0.6.7",
      "model": "Bogaudio-VCO",
      "params": [
        {
          "paramId": 0,
          "value": 1.98150396
        },
        {
          "paramId": 1,
          "value": 0.0
        },
        {
          "paramId": 2,
          "value": 0.0
        },
        {
          "paramId": 3,
          "value": 1.0
        },
        {
          "paramId": 4,
          "value": 0.0
        },
        {
          "paramId": 5,
          "value": 1.0
        }
      ],
      "pos": [
        8,
        1
      ]
    },
    {
      "plugin": "AS",
      "version": "0.6.8",
      "model": "PhaserFx",
      "params": [
        {
          "paramId": 0,
          "value": 0.70600003
        },
        {
          "paramId": 1,
          "value": 0.417525351
        },
        {
          "paramId": 2,
          "value": 0.62800014
        },
        {
          "paramId": 3,
          "value": 0.0
        }
      ],
      "data": {
        "as_FxBypass": [
          false
        ]
      },
      "pos": [
        0,
        2
      ]
    },
    {
      "plugin": "AS",
      "version": "0.6.8",
      "model": "KillGate",
      "params": [
        {
          "paramId": 0,
          "value": 0.0
        },
        {
          "paramId": 1,
          "value": 1.0
        },
        {
          "paramId": 2,
          "value": 0.0
        },
        {
          "paramId": 3,
          "value": 1.0
        }
      ],
      "pos": [
        48,
        0
      ]
    },
    {
      "plugin": "Hora-ProcessorsFree",
      "version": "0.6.0",
      "model": "Delay",
      "params": [
        {
          "paramId": 0,
          "value": 0.210220039
        },
        {
          "paramId": 1,
          "value": 0.781499863
        },
        {
          "paramId": 2,
          "value": 1.0
        },
        {
          "paramId": 3,
          "value": 0.331499964
        },
        {
          "paramId": 4,
          "value": 0.0
        }
      ],
      "pos": [
        6,
        2
      ]
    },
    {
      "plugin": "ML_modules",
      "version": "0.6.2",
      "model": "VoltMeter",
      "params": [],
      "pos": [
        30,
        0
      ]
    },
    {
      "plugin": "JW-Modules",
      "version": "0.6.2",
      "model": "Quantizer",
      "params": [
        {
          "paramId": 0,
          "value": 11.0
        },
        {
          "paramId": 1,
          "value": 9.0
        }
      ],
      "data": {},
      "pos": [
        14,
        2
      ]
    },
    {
      "plugin": "mscHack",
      "version": "0.6.2",
      "model": "Mix_1x4_Stereo",
      "params": [
        {
          "paramId": 1,
          "value": 0.229997635
        },
        {
          "paramId": 5,
          "value": 0.0109999906
        },
        {
          "paramId": 20,
          "value": 0.454999864
        },
        {
          "paramId": 24,
          "value": 0.399499923
        },
        {
          "paramId": 28,
          "value": 0.332000166
        },
        {
          "paramId": 2,
          "value": 0.133999109
        },
        {
          "paramId": 6,
          "value": 0.0
        },
        {
          "paramId": 21,
          "value": 0.579500318
        },
        {
          "paramId": 25,
          "value": 0.39650014
        },
        {
          "paramId": 29,
          "value": 0.307500213
        },
        {
          "paramId": 3,
          "value": 0.0
        },
        {
          "paramId": 7,
          "value": 0.0
        },
        {
          "paramId": 22,
          "value": 0.5
        },
        {
          "paramId": 26,
          "value": 0.5
        },
        {
          "paramId": 30,
          "value": 0.5
        },
        {
          "paramId": 4,
          "value": 0.0
        },
        {
          "paramId": 8,
          "value": 0.0
        },
        {
          "paramId": 23,
          "value": 0.5
        },
        {
          "paramId": 27,
          "value": 0.5
        },
        {
          "paramId": 31,
          "value": 0.5
        },
        {
          "paramId": 10,
          "value": 0.0
        },
        {
          "paramId": 32,
          "value": 0.0
        },
        {
          "paramId": 34,
          "value": 0.0
        },
        {
          "paramId": 33,
          "value": 0.0
        },
        {
          "paramId": 35,
          "value": 0.0
        },
        {
          "paramId": 0,
          "value": 0.898999929
        },
        {
          "paramId": 40,
          "value": 0.0
        },
        {
          "paramId": 41,
          "value": 0.0
        },
        {
          "paramId": 42,
          "value": 0.0
        },
        {
          "paramId": 43,
          "value": 0.0
        }
      ],
      "data": {
        "Mix_1x4_Stereo_channel_mutes": [
          0,
          0,
          0,
          0
        ],
        "Mix_1x4_Stereo_channel_solos": [
          0,
          0,
          0,
          0
        ],
        "Mix_1x4_Stereo_group_mutes": [
          0
        ],
        "Mix_1x4_Stereo_group_AUX_prefade_states": [
          0,
          0,
          0,
          0
        ]
      },
      "pos": [
        54,
        0
      ]
    },
    {
      "plugin": "Bogaudio",
      "version": "0.6.7",
      "model": "Bogaudio-XCO",
      "params": [
        {
          "paramId": 0,
          "value": 1.46849811
        },
        {
          "paramId": 1,
          "value": 0.0
        },
        {
          "paramId": 2,
          "value": 1.0
        },
        {
          "paramId": 3,
          "value": 0.0
        },
        {
          "paramId": 4,
          "value": 1.0
        },
        {
          "paramId": 5,
          "value": 0.0931200981
        },
        {
          "paramId": 6,
          "value": 0.0
        },
        {
          "paramId": 7,
          "value": 1.0
        },
        {
          "paramId": 8,
          "value": 0.0
        },
        {
          "paramId": 9,
          "value": 0.0
        },
        {
          "paramId": 10,
          "value": 1.0
        },
        {
          "paramId": 11,
          "value": 0.0
        },
        {
          "paramId": 12,
          "value": 0.0
        },
        {
          "paramId": 13,
          "value": 1.0
        },
        {
          "paramId": 14,
          "value": 0.0
        },
        {
          "paramId": 15,
          "value": 0.0
        },
        {
          "paramId": 16,
          "value": 1.0
        }
      ],
      "pos": [
        37,
        1
      ]
    },
    {
      "plugin": "CharredDesert",
      "version": "0.6.2",
      "model": "Oscar^2",
      "params": [
        {
          "paramId": 0,
          "value": 0.0
        },
        {
          "paramId": 2,
          "value": 3.05999994
        },
        {
          "paramId": 4,
          "value": -2.0
        },
        {
          "paramId": 6,
          "value": 0.272999972
        },
        {
          "paramId": 8,
          "value": 0.892500043
        },
        {
          "paramId": 11,
          "value": 1.0
        },
        {
          "paramId": 1,
          "value": 1.0
        },
        {
          "paramId": 3,
          "value": 5.9100008
        },
        {
          "paramId": 5,
          "value": -1.0
        },
        {
          "paramId": 7,
          "value": -0.309000015
        },
        {
          "paramId": 9,
          "value": 2.8499999
        },
        {
          "paramId": 12,
          "value": 0.0
        },
        {
          "paramId": 10,
          "value": 9.63500023
        }
      ],
      "pos": [
        27,
        1
      ]
    },
    {
      "plugin": "mental",
      "version": "0.6.3",
      "model": "MentalFold",
      "params": [
        {
          "paramId": 0,
          "value": 0.177999884
        },
        {
          "paramId": 1,
          "value": 0.598999739
        },
        {
          "paramId": 2,
          "value": 0.387999982
        },
        {
          "paramId": 3,
          "value": 0.68599993
        }
      ],
      "pos": [
        24,
        2
      ]
    },
    {
      "plugin": "BaconMusic",
      "version": "0.6.2",
      "model": "Bitulator",
      "params": [
        {
          "paramId": 0,
          "value": 0.521500111
        },
        {
          "paramId": 3,
          "value": 1.0
        },
        {
          "paramId": 1,
          "value": 15.0299978
        },
        {
          "paramId": 4,
          "value": 1.0
        },
        {
          "paramId": 2,
          "value": 7.31800175
        }
      ],
      "pos": [
        18,
        2
      ]
    }
  ],
  "wires": [
    {
      "color": "#c9b70e",
      "outputModuleId": 4,
      "outputId": 0,
      "inputModuleId": 18,
      "inputId": 0
    },
    {
      "color": "#c91847",
      "outputModuleId": 4,
      "outputId": 2,
      "inputModuleId": 6,
      "inputId": 2
    },
    {
      "color": "#0c8e15",
      "outputModuleId": 4,
      "outputId": 3,
      "inputModuleId": 17,
      "inputId": 3
    },
    {
      "color": "#0986ad",
      "outputModuleId": 7,
      "outputId": 3,
      "inputModuleId": 4,
      "inputId": 1
    },
    {
      "color": "#c91847",
      "outputModuleId": 7,
      "outputId": 4,
      "inputModuleId": 9,
      "inputId": 0
    },
    {
      "color": "#0986ad",
      "outputModuleId": 1,
      "outputId": 0,
      "inputModuleId": 8,
      "inputId": 2
    },
    {
      "color": "#c91847",
      "outputModuleId": 1,
      "outputId": 0,
      "inputModuleId": 8,
      "inputId": 1
    },
    {
      "color": "#0c8e15",
      "outputModuleId": 1,
      "outputId": 7,
      "inputModuleId": 4,
      "inputId": 4
    },
    {
      "color": "#0986ad",
      "outputModuleId": 1,
      "outputId": 7,
      "inputModuleId": 4,
      "inputId": 5
    },
    {
      "color": "#0986ad",
      "outputModuleId": 1,
      "outputId": 0,
      "inputModuleId": 7,
      "inputId": 2
    },
    {
      "color": "#c91847",
      "outputModuleId": 1,
      "outputId": 0,
      "inputModuleId": 7,
      "inputId": 1
    },
    {
      "color": "#c91847",
      "outputModuleId": 0,
      "outputId": 0,
      "inputModuleId": 3,
      "inputId": 0
    },
    {
      "color": "#0c8e15",
      "outputModuleId": 11,
      "outputId": 0,
      "inputModuleId": 4,
      "inputId": 3
    },
    {
      "color": "#0986ad",
      "outputModuleId": 8,
      "outputId": 3,
      "inputModuleId": 11,
      "inputId": 2
    },
    {
      "color": "#c91847",
      "outputModuleId": 5,
      "outputId": 0,
      "inputModuleId": 10,
      "inputId": 1
    },
    {
      "color": "#0c8e15",
      "outputModuleId": 5,
      "outputId": 0,
      "inputModuleId": 10,
      "inputId": 4
    },
    {
      "color": "#c91847",
      "outputModuleId": 5,
      "outputId": 0,
      "inputModuleId": 12,
      "inputId": 0
    },
    {
      "color": "#0c8e15",
      "outputModuleId": 1,
      "outputId": 0,
      "inputModuleId": 12,
      "inputId": 1
    },
    {
      "color": "#0986ad",
      "outputModuleId": 0,
      "outputId": 0,
      "inputModuleId": 12,
      "inputId": 2
    },
    {
      "color": "#0c8e15",
      "outputModuleId": 0,
      "outputId": 0,
      "inputModuleId": 8,
      "inputId": 0
    },
    {
      "color": "#c9b70e",
      "outputModuleId": 3,
      "outputId": 1,
      "inputModuleId": 13,
      "inputId": 2
    },
    {
      "color": "#c91847",
      "outputModuleId": 13,
      "outputId": 0,
      "inputModuleId": 4,
      "inputId": 0
    },
    {
      "color": "#c9b70e",
      "outputModuleId": 1,
      "outputId": 6,
      "inputModuleId": 4,
      "inputId": 6
    },
    {
      "color": "#c91847",
      "outputModuleId": 1,
      "outputId": 6,
      "inputModuleId": 4,
      "inputId": 7
    },
    {
      "color": "#c9b70e",
      "outputModuleId": 14,
      "outputId": 0,
      "inputModuleId": 10,
      "inputId": 0
    },
    {
      "color": "#c9b70e",
      "outputModuleId": 6,
      "outputId": 0,
      "inputModuleId": 14,
      "inputId": 0
    },
    {
      "color": "#c91847",
      "outputModuleId": 6,
      "outputId": 1,
      "inputModuleId": 14,
      "inputId": 1
    },
    {
      "color": "#0c8e15",
      "outputModuleId": 14,
      "outputId": 1,
      "inputModuleId": 10,
      "inputId": 3
    },
    {
      "color": "#0986ad",
      "outputModuleId": 10,
      "outputId": 0,
      "inputModuleId": 2,
      "inputId": 0
    },
    {
      "color": "#c9b70e",
      "outputModuleId": 10,
      "outputId": 1,
      "inputModuleId": 2,
      "inputId": 1
    },
    {
      "color": "#c9b70e",
      "outputModuleId": 15,
      "outputId": 0,
      "inputModuleId": 11,
      "inputId": 1
    },
    {
      "color": "#0c8e15",
      "outputModuleId": 16,
      "outputId": 0,
      "inputModuleId": 15,
      "inputId": 0
    },
    {
      "color": "#0986ad",
      "outputModuleId": 0,
      "outputId": 0,
      "inputModuleId": 16,
      "inputId": 11
    },
    {
      "color": "#c9b70e",
      "outputModuleId": 0,
      "outputId": 0,
      "inputModuleId": 7,
      "inputId": 0
    },
    {
      "color": "#c91847",
      "outputModuleId": 4,
      "outputId": 1,
      "inputModuleId": 17,
      "inputId": 0
    },
    {
      "color": "#0986ad",
      "outputModuleId": 17,
      "outputId": 0,
      "inputModuleId": 6,
      "inputId": 1
    },
    {
      "color": "#c9b70e",
      "outputModuleId": 0,
      "outputId": 4,
      "inputModuleId": 10,
      "inputId": 2
    },
    {
      "color": "#c91847",
      "outputModuleId": 0,
      "outputId": 4,
      "inputModuleId": 10,
      "inputId": 5
    },
    {
      "color": "#0c8e15",
      "outputModuleId": 17,
      "outputId": 1,
      "inputModuleId": 6,
      "inputId": 3
    },
    {
      "color": "#0986ad",
      "outputModuleId": 18,
      "outputId": 0,
      "inputModuleId": 6,
      "inputId": 0
    },
    {
      "color": "#c9b70e",
      "outputModuleId": 9,
      "outputId": 0,
      "inputModuleId": 4,
      "inputId": 2
    }
  ]
}