{
  "version": "1.1.6",
  "modules": [
    {
      "id": 0,
      "plugin": "Core",
      "version": "1.1.6",
      "model": "MIDIToCVInterface",
      "params": [],
      "rightModuleId": 3,
      "data": {
        "channels": 1,
        "polyMode": 0,
        "clockDivision": 24,
        "lastPitch": 8192,
        "lastMod": 0,
        "midi": {
          "driver": 1,
          "deviceName": "Adafruit Trellis M4",
          "channel": -1
        }
      },
      "pos": [
        15,
        0
      ]
    },
    {
      "id": 1,
      "plugin": "Core",
      "version": "1.1.6",
      "model": "AudioInterface",
      "params": [],
      "leftModuleId": 10,
      "data": {
        "audio": {
          "driver": 5,
          "deviceName": "Apple Inc.: Built-in Output",
          "offset": 0,
          "maxChannels": 8,
          "sampleRate": 44100,
          "blockSize": 256
        }
      },
      "pos": [
        81,
        1
      ]
    },
    {
      "id": 2,
      "plugin": "Befaco",
      "version": "1.0.1",
      "model": "EvenVCO",
      "params": [
        {
          "id": 0,
          "value": -3.0
        },
        {
          "id": 1,
          "value": 0.0
        },
        {
          "id": 2,
          "value": -0.263000309
        }
      ],
      "leftModuleId": 3,
      "rightModuleId": 7,
      "pos": [
        31,
        0
      ]
    },
    {
      "id": 3,
      "plugin": "Core",
      "version": "1.1.6",
      "model": "MIDIToCVInterface",
      "params": [],
      "leftModuleId": 0,
      "rightModuleId": 2,
      "data": {
        "channels": 1,
        "polyMode": 0,
        "clockDivision": 24,
        "lastPitch": 8192,
        "lastMod": 0,
        "midi": {
          "driver": 1,
          "deviceName": "Adafruit Trellis M4",
          "channel": -1
        }
      },
      "pos": [
        23,
        0
      ]
    },
    {
      "id": 4,
      "plugin": "Befaco",
      "version": "1.0.1",
      "model": "Mixer",
      "params": [
        {
          "id": 0,
          "value": 1.0
        },
        {
          "id": 1,
          "value": 1.0
        },
        {
          "id": 2,
          "value": 1.0
        },
        {
          "id": 3,
          "value": 1.0
        }
      ],
      "leftModuleId": 11,
      "rightModuleId": 5,
      "pos": [
        73,
        0
      ]
    },
    {
      "id": 5,
      "plugin": "AudibleInstruments",
      "version": "1.0.2",
      "model": "Veils",
      "params": [
        {
          "id": 0,
          "value": 0.913000107
        },
        {
          "id": 1,
          "value": 0.781000078
        },
        {
          "id": 2,
          "value": 0.523000062
        },
        {
          "id": 3,
          "value": 0.989499927
        },
        {
          "id": 4,
          "value": 1.0
        },
        {
          "id": 5,
          "value": 1.0
        },
        {
          "id": 6,
          "value": 1.0
        },
        {
          "id": 7,
          "value": 1.0
        }
      ],
      "leftModuleId": 4,
      "pos": [
        78,
        0
      ]
    },
    {
      "id": 7,
      "plugin": "Befaco",
      "version": "1.0.1",
      "model": "EvenVCO",
      "params": [
        {
          "id": 0,
          "value": -4.0
        },
        {
          "id": 1,
          "value": 0.0
        },
        {
          "id": 2,
          "value": 0.0
        }
      ],
      "leftModuleId": 2,
      "rightModuleId": 8,
      "pos": [
        39,
        0
      ]
    },
    {
      "id": 8,
      "plugin": "Befaco",
      "version": "1.0.1",
      "model": "DualAtenuverter",
      "params": [
        {
          "id": 0,
          "value": 0.00300010107
        },
        {
          "id": 1,
          "value": 0.0900041461
        },
        {
          "id": 2,
          "value": 0.0
        },
        {
          "id": 3,
          "value": 0.0
        }
      ],
      "leftModuleId": 7,
      "rightModuleId": 14,
      "pos": [
        47,
        0
      ]
    },
    {
      "id": 9,
      "plugin": "AS",
      "version": "1.0.4",
      "model": "DelayPlusStereoFx",
      "params": [
        {
          "id": 0,
          "value": 1.45499933
        },
        {
          "id": 1,
          "value": 0.617500067
        },
        {
          "id": 2,
          "value": 0.554500282
        },
        {
          "id": 3,
          "value": 1.42499971
        },
        {
          "id": 4,
          "value": 0.502000093
        },
        {
          "id": 5,
          "value": 0.626499891
        },
        {
          "id": 6,
          "value": 0.0
        },
        {
          "id": 7,
          "value": 1.0
        },
        {
          "id": 8,
          "value": 0.30249995
        },
        {
          "id": 9,
          "value": 0.0
        }
      ],
      "leftModuleId": 14,
      "rightModuleId": 11,
      "data": {
        "as_FxBypass": [
          false
        ]
      },
      "pos": [
        58,
        0
      ]
    },
    {
      "id": 10,
      "plugin": "Koralfx-Modules",
      "version": "1.0.2",
      "model": "Scorovnik",
      "params": [
        {
          "id": 0,
          "value": 0.0
        },
        {
          "id": 1,
          "value": 2.0
        },
        {
          "id": 2,
          "value": 0.0
        },
        {
          "id": 3,
          "value": 0.0
        },
        {
          "id": 4,
          "value": 1.0
        },
        {
          "id": 5,
          "value": 2.0
        },
        {
          "id": 6,
          "value": 1.0
        },
        {
          "id": 7,
          "value": 2.0
        },
        {
          "id": 8,
          "value": 0.0
        },
        {
          "id": 9,
          "value": 0.0
        },
        {
          "id": 10,
          "value": 2.0
        },
        {
          "id": 11,
          "value": 0.0
        },
        {
          "id": 12,
          "value": 0.0
        },
        {
          "id": 13,
          "value": 1.0
        },
        {
          "id": 14,
          "value": 2.0
        },
        {
          "id": 15,
          "value": 0.0
        },
        {
          "id": 16,
          "value": 0.0
        },
        {
          "id": 17,
          "value": 0.0
        },
        {
          "id": 18,
          "value": 0.0
        },
        {
          "id": 19,
          "value": 0.0
        },
        {
          "id": 20,
          "value": 0.0
        },
        {
          "id": 21,
          "value": 0.0
        },
        {
          "id": 22,
          "value": 0.0
        },
        {
          "id": 23,
          "value": 0.0
        },
        {
          "id": 24,
          "value": 0.0
        },
        {
          "id": 25,
          "value": 0.0
        },
        {
          "id": 26,
          "value": 0.0
        },
        {
          "id": 27,
          "value": 0.0
        },
        {
          "id": 28,
          "value": 0.0
        },
        {
          "id": 29,
          "value": 0.0
        },
        {
          "id": 30,
          "value": 0.0
        },
        {
          "id": 31,
          "value": 0.0
        },
        {
          "id": 32,
          "value": 2.0
        },
        {
          "id": 33,
          "value": 8.0
        },
        {
          "id": 34,
          "value": 18.0
        },
        {
          "id": 35,
          "value": 10.0
        },
        {
          "id": 36,
          "value": 15.0
        },
        {
          "id": 37,
          "value": 15.0
        },
        {
          "id": 38,
          "value": 24.0
        },
        {
          "id": 39,
          "value": 13.0
        },
        {
          "id": 40,
          "value": 5.0
        },
        {
          "id": 41,
          "value": -1.0
        },
        {
          "id": 42,
          "value": 12.0
        },
        {
          "id": 43,
          "value": 19.0
        },
        {
          "id": 44,
          "value": 24.0
        },
        {
          "id": 45,
          "value": 13.0
        },
        {
          "id": 46,
          "value": 7.0
        },
        {
          "id": 47,
          "value": 3.0
        },
        {
          "id": 48,
          "value": 4.0
        },
        {
          "id": 49,
          "value": 12.0
        },
        {
          "id": 50,
          "value": 12.0
        },
        {
          "id": 51,
          "value": 0.0
        },
        {
          "id": 52,
          "value": 0.0
        },
        {
          "id": 53,
          "value": 0.0
        },
        {
          "id": 54,
          "value": 0.0
        },
        {
          "id": 55,
          "value": 0.0
        },
        {
          "id": 56,
          "value": 0.0
        },
        {
          "id": 57,
          "value": 6.0
        },
        {
          "id": 58,
          "value": 23.0
        },
        {
          "id": 59,
          "value": -11.0
        },
        {
          "id": 60,
          "value": -5.0
        },
        {
          "id": 61,
          "value": -19.0
        },
        {
          "id": 62,
          "value": -13.0
        },
        {
          "id": 63,
          "value": -8.0
        },
        {
          "id": 64,
          "value": 0.0
        },
        {
          "id": 65,
          "value": 0.0
        },
        {
          "id": 66,
          "value": 0.0
        },
        {
          "id": 67,
          "value": 0.0
        },
        {
          "id": 68,
          "value": 0.0
        },
        {
          "id": 69,
          "value": 0.0
        },
        {
          "id": 70,
          "value": 0.0
        },
        {
          "id": 71,
          "value": 0.0
        },
        {
          "id": 72,
          "value": 0.0
        },
        {
          "id": 73,
          "value": 0.0
        },
        {
          "id": 74,
          "value": 0.0
        },
        {
          "id": 75,
          "value": 0.0
        },
        {
          "id": 76,
          "value": 0.0
        },
        {
          "id": 77,
          "value": 0.0
        },
        {
          "id": 78,
          "value": 0.0
        },
        {
          "id": 79,
          "value": 0.0
        },
        {
          "id": 80,
          "value": 0.0
        },
        {
          "id": 81,
          "value": 0.0
        },
        {
          "id": 82,
          "value": 0.0
        },
        {
          "id": 83,
          "value": 0.0
        },
        {
          "id": 84,
          "value": 0.0
        },
        {
          "id": 85,
          "value": 0.0
        },
        {
          "id": 86,
          "value": 0.0
        },
        {
          "id": 87,
          "value": 0.0
        },
        {
          "id": 88,
          "value": 0.0
        },
        {
          "id": 89,
          "value": 0.0
        },
        {
          "id": 90,
          "value": 0.0
        },
        {
          "id": 91,
          "value": 0.0
        },
        {
          "id": 92,
          "value": 0.0
        },
        {
          "id": 93,
          "value": 0.0
        },
        {
          "id": 94,
          "value": 0.0
        },
        {
          "id": 95,
          "value": 0.0
        },
        {
          "id": 96,
          "value": 1.0
        },
        {
          "id": 97,
          "value": 1.0
        },
        {
          "id": 98,
          "value": 1.0
        },
        {
          "id": 99,
          "value": 1.0
        },
        {
          "id": 100,
          "value": 1.0
        },
        {
          "id": 101,
          "value": 1.0
        },
        {
          "id": 102,
          "value": 1.0
        },
        {
          "id": 103,
          "value": 1.0
        },
        {
          "id": 104,
          "value": 1.0
        },
        {
          "id": 105,
          "value": 1.0
        },
        {
          "id": 106,
          "value": 1.0
        },
        {
          "id": 107,
          "value": 1.0
        },
        {
          "id": 108,
          "value": 1.0
        },
        {
          "id": 109,
          "value": 1.0
        },
        {
          "id": 110,
          "value": 1.0
        },
        {
          "id": 111,
          "value": 1.0
        },
        {
          "id": 112,
          "value": 1.0
        },
        {
          "id": 113,
          "value": 1.0
        },
        {
          "id": 114,
          "value": 1.0
        },
        {
          "id": 115,
          "value": 1.0
        },
        {
          "id": 116,
          "value": 1.0
        },
        {
          "id": 117,
          "value": 1.0
        },
        {
          "id": 118,
          "value": 1.0
        },
        {
          "id": 119,
          "value": 1.0
        },
        {
          "id": 120,
          "value": 1.0
        },
        {
          "id": 121,
          "value": 1.0
        },
        {
          "id": 122,
          "value": 1.0
        },
        {
          "id": 123,
          "value": 1.0
        },
        {
          "id": 124,
          "value": 1.0
        },
        {
          "id": 125,
          "value": 1.0
        },
        {
          "id": 126,
          "value": 1.0
        },
        {
          "id": 127,
          "value": 1.0
        },
        {
          "id": 128,
          "value": 0.0
        },
        {
          "id": 129,
          "value": 0.0
        },
        {
          "id": 130,
          "value": 0.0
        },
        {
          "id": 131,
          "value": 0.0
        },
        {
          "id": 132,
          "value": 0.0
        },
        {
          "id": 133,
          "value": 0.0
        },
        {
          "id": 134,
          "value": 0.0
        },
        {
          "id": 135,
          "value": 0.0
        },
        {
          "id": 136,
          "value": 0.0
        },
        {
          "id": 137,
          "value": 0.0
        },
        {
          "id": 138,
          "value": 0.0
        },
        {
          "id": 139,
          "value": 0.0
        },
        {
          "id": 140,
          "value": 0.0
        },
        {
          "id": 141,
          "value": 0.0
        },
        {
          "id": 142,
          "value": 0.0
        },
        {
          "id": 143,
          "value": 0.0
        },
        {
          "id": 144,
          "value": 0.0
        },
        {
          "id": 145,
          "value": 0.0
        },
        {
          "id": 146,
          "value": 0.0
        },
        {
          "id": 147,
          "value": 0.0
        },
        {
          "id": 148,
          "value": 0.0
        },
        {
          "id": 149,
          "value": 0.0
        },
        {
          "id": 150,
          "value": 0.0
        },
        {
          "id": 151,
          "value": 0.0
        },
        {
          "id": 152,
          "value": 0.0
        },
        {
          "id": 153,
          "value": 0.0
        },
        {
          "id": 154,
          "value": 0.0
        },
        {
          "id": 155,
          "value": 0.0
        },
        {
          "id": 156,
          "value": 0.0
        },
        {
          "id": 157,
          "value": 0.0
        },
        {
          "id": 158,
          "value": 0.0
        },
        {
          "id": 159,
          "value": 0.0
        },
        {
          "id": 160,
          "value": 0.0
        },
        {
          "id": 161,
          "value": 0.0
        },
        {
          "id": 162,
          "value": 0.0
        },
        {
          "id": 163,
          "value": 0.0
        },
        {
          "id": 164,
          "value": 0.0
        },
        {
          "id": 165,
          "value": 0.0
        },
        {
          "id": 166,
          "value": 0.0
        },
        {
          "id": 167,
          "value": 0.0
        },
        {
          "id": 168,
          "value": 0.0
        },
        {
          "id": 169,
          "value": 0.0
        },
        {
          "id": 170,
          "value": 0.0
        },
        {
          "id": 171,
          "value": 0.0
        },
        {
          "id": 172,
          "value": 0.0
        },
        {
          "id": 173,
          "value": 0.0
        },
        {
          "id": 174,
          "value": 0.0
        },
        {
          "id": 175,
          "value": 0.0
        },
        {
          "id": 176,
          "value": 0.0
        },
        {
          "id": 177,
          "value": 0.0
        },
        {
          "id": 178,
          "value": 0.0
        },
        {
          "id": 179,
          "value": 0.0
        },
        {
          "id": 180,
          "value": 0.0
        },
        {
          "id": 181,
          "value": 0.0
        },
        {
          "id": 182,
          "value": 0.0
        },
        {
          "id": 183,
          "value": 0.0
        },
        {
          "id": 184,
          "value": 0.0
        },
        {
          "id": 185,
          "value": 0.0
        },
        {
          "id": 186,
          "value": 0.0
        },
        {
          "id": 187,
          "value": 0.0
        },
        {
          "id": 188,
          "value": 0.0
        },
        {
          "id": 189,
          "value": 0.0
        },
        {
          "id": 190,
          "value": 0.0
        },
        {
          "id": 191,
          "value": 0.0
        },
        {
          "id": 192,
          "value": 120.0
        },
        {
          "id": 193,
          "value": 0.0
        },
        {
          "id": 194,
          "value": 1.0
        },
        {
          "id": 195,
          "value": 0.0
        },
        {
          "id": 196,
          "value": 0.0
        },
        {
          "id": 197,
          "value": 0.0
        },
        {
          "id": 198,
          "value": 0.0
        },
        {
          "id": 199,
          "value": 1.0
        },
        {
          "id": 200,
          "value": 0.0
        }
      ],
      "leftModuleId": 15,
      "rightModuleId": 1,
      "data": {
        "groupPlayA": 1,
        "groupPlayB": 0,
        "groupPlayC": 1,
        "groupPlayD": 0,
        "mode1SeqEnd": 8,
        "mode2SeqEndA": 16,
        "mode2SeqEndC": 16,
        "mode3SeqEndA": 8,
        "mode3SeqEndB": 8,
        "mode3SeqEndC": 8,
        "mode3SeqEndD": 8
      },
      "pos": [
        15,
        1
      ]
    },
    {
      "id": 11,
      "plugin": "SynthKit",
      "version": "1.0.1",
      "model": "And",
      "params": [],
      "leftModuleId": 9,
      "rightModuleId": 4,
      "pos": [
        70,
        0
      ]
    },
    {
      "id": 14,
      "plugin": "NonlinearCircuits",
      "version": "1.0.0",
      "model": "BOOLs",
      "params": [
        {
          "id": 0,
          "value": 0.342000008
        }
      ],
      "leftModuleId": 8,
      "rightModuleId": 9,
      "data": {
        "logicmode": 2
      },
      "pos": [
        52,
        0
      ]
    },
    {
      "id": 15,
      "plugin": "Hora-ModulationFree",
      "version": "1.0.2",
      "model": "TwinQuartet-LFO",
      "params": [
        {
          "id": 0,
          "value": 2.25502491
        },
        {
          "id": 1,
          "value": 2.0
        },
        {
          "id": 2,
          "value": 2.0
        },
        {
          "id": 3,
          "value": 2.0
        },
        {
          "id": 4,
          "value": 90.0
        },
        {
          "id": 5,
          "value": 67.9950409
        },
        {
          "id": 6,
          "value": 0.0
        }
      ],
      "rightModuleId": 10,
      "pos": [
        0,
        1
      ]
    }
  ],
  "cables": [
    {
      "id": 68,
      "outputModuleId": 4,
      "outputId": 0,
      "inputModuleId": 1,
      "inputId": 0,
      "color": "#00000000"
    },
    {
      "id": 69,
      "outputModuleId": 4,
      "outputId": 1,
      "inputModuleId": 1,
      "inputId": 1,
      "color": "#00000000"
    },
    {
      "id": 73,
      "outputModuleId": 2,
      "outputId": 0,
      "inputModuleId": 9,
      "inputId": 9,
      "color": "#00000000"
    },
    {
      "id": 76,
      "outputModuleId": 9,
      "outputId": 3,
      "inputModuleId": 11,
      "inputId": 1,
      "color": "#00000000"
    },
    {
      "id": 81,
      "outputModuleId": 5,
      "outputId": 3,
      "inputModuleId": 4,
      "inputId": 3,
      "color": "#00000000"
    },
    {
      "id": 83,
      "outputModuleId": 3,
      "outputId": 1,
      "inputModuleId": 5,
      "inputId": 4,
      "color": "#00000000"
    },
    {
      "id": 84,
      "outputModuleId": 3,
      "outputId": 1,
      "inputModuleId": 5,
      "inputId": 5,
      "color": "#00000000"
    },
    {
      "id": 85,
      "outputModuleId": 0,
      "outputId": 1,
      "inputModuleId": 5,
      "inputId": 6,
      "color": "#00000000"
    },
    {
      "id": 86,
      "outputModuleId": 0,
      "outputId": 1,
      "inputModuleId": 5,
      "inputId": 7,
      "color": "#00000000"
    },
    {
      "id": 90,
      "outputModuleId": 10,
      "outputId": 6,
      "inputModuleId": 7,
      "inputId": 0,
      "color": "#0c8e15"
    },
    {
      "id": 78,
      "outputModuleId": 5,
      "outputId": 0,
      "inputModuleId": 4,
      "inputId": 0,
      "color": "#00000000"
    },
    {
      "id": 88,
      "outputModuleId": 11,
      "outputId": 0,
      "inputModuleId": 5,
      "inputId": 2,
      "color": "#0986ad"
    },
    {
      "id": 79,
      "outputModuleId": 5,
      "outputId": 1,
      "inputModuleId": 4,
      "inputId": 1,
      "color": "#00000000"
    },
    {
      "id": 91,
      "outputModuleId": 0,
      "outputId": 0,
      "inputModuleId": 2,
      "inputId": 0,
      "color": "#0986ad"
    },
    {
      "id": 92,
      "outputModuleId": 3,
      "outputId": 0,
      "inputModuleId": 7,
      "inputId": 1,
      "color": "#c9b70e"
    },
    {
      "id": 77,
      "outputModuleId": 8,
      "outputId": 0,
      "inputModuleId": 5,
      "inputId": 1,
      "color": "#00000000"
    },
    {
      "id": 80,
      "outputModuleId": 5,
      "outputId": 2,
      "inputModuleId": 4,
      "inputId": 2,
      "color": "#00000000"
    },
    {
      "id": 75,
      "outputModuleId": 9,
      "outputId": 2,
      "inputModuleId": 11,
      "inputId": 0,
      "color": "#00000000"
    },
    {
      "id": 70,
      "outputModuleId": 7,
      "outputId": 1,
      "inputModuleId": 8,
      "inputId": 0,
      "color": "#00000000"
    },
    {
      "id": 82,
      "outputModuleId": 7,
      "outputId": 3,
      "inputModuleId": 5,
      "inputId": 0,
      "color": "#00000000"
    },
    {
      "id": 93,
      "outputModuleId": 9,
      "outputId": 0,
      "inputModuleId": 14,
      "inputId": 0,
      "color": "#0c8e15"
    },
    {
      "id": 94,
      "outputModuleId": 14,
      "outputId": 0,
      "inputModuleId": 9,
      "inputId": 3,
      "color": "#c91847"
    },
    {
      "id": 95,
      "outputModuleId": 9,
      "outputId": 1,
      "inputModuleId": 14,
      "inputId": 1,
      "color": "#0986ad"
    },
    {
      "id": 96,
      "outputModuleId": 14,
      "outputId": 1,
      "inputModuleId": 9,
      "inputId": 7,
      "color": "#c9b70e"
    },
    {
      "id": 97,
      "outputModuleId": 10,
      "outputId": 7,
      "inputModuleId": 2,
      "inputId": 1,
      "color": "#0c8e15"
    },
    {
      "id": 74,
      "outputModuleId": 2,
      "outputId": 2,
      "inputModuleId": 9,
      "inputId": 10,
      "color": "#00000000"
    },
    {
      "id": 99,
      "outputModuleId": 10,
      "outputId": 9,
      "inputModuleId": 9,
      "inputId": 8,
      "color": "#0c8e15"
    },
    {
      "id": 100,
      "outputModuleId": 10,
      "outputId": 8,
      "inputModuleId": 2,
      "inputId": 4,
      "color": "#c91847"
    },
    {
      "id": 101,
      "outputModuleId": 10,
      "outputId": 8,
      "inputModuleId": 7,
      "inputId": 4,
      "color": "#0986ad"
    },
    {
      "id": 98,
      "outputModuleId": 15,
      "outputId": 2,
      "inputModuleId": 10,
      "inputId": 13,
      "color": "#c91847"
    }
  ]
}