{
  "version": "0.6.2b",
  "modules": [
    {
      "plugin": "AudibleInstruments",
      "version": "0.6.3",
      "model": "Warps",
      "params": [
        {
          "paramId": 0,
          "value": 2.81601
        },
        {
          "paramId": 1,
          "value": 0.00300000771
        },
        {
          "paramId": 2,
          "value": 0.0
        },
        {
          "paramId": 3,
          "value": 0.439249545
        },
        {
          "paramId": 4,
          "value": 0.41944173
        }
      ],
      "data": {
        "shape": 1
      },
      "pos": [
        40,
        0
      ]
    },
    {
      "plugin": "AudibleInstruments",
      "version": "0.6.3",
      "model": "Marbles",
      "params": [
        {
          "paramId": 0,
          "value": 0.0
        },
        {
          "paramId": 1,
          "value": 0.0
        },
        {
          "paramId": 2,
          "value": 0.764150441
        },
        {
          "paramId": 3,
          "value": -0.170873925
        },
        {
          "paramId": 4,
          "value": 0.585878789
        },
        {
          "paramId": 5,
          "value": 0.0
        },
        {
          "paramId": 6,
          "value": 0.0
        },
        {
          "paramId": 7,
          "value": 0.861575902
        },
        {
          "paramId": 8,
          "value": 0.410650194
        },
        {
          "paramId": 9,
          "value": 0.189252064
        },
        {
          "paramId": 10,
          "value": 0.0
        },
        {
          "paramId": 11,
          "value": 0.0
        },
        {
          "paramId": 12,
          "value": 0.0
        },
        {
          "paramId": 13,
          "value": 0.677588761
        },
        {
          "paramId": 14,
          "value": 0.700418472
        }
      ],
      "data": {
        "t_deja_vu": false,
        "x_deja_vu": true,
        "t_mode": 1,
        "x_mode": 1,
        "t_range": 1,
        "x_range": 1,
        "external": true,
        "x_scale": 0,
        "y_divider_index": 8,
        "x_clock_source_internal": 0
      },
      "pos": [
        50,
        0
      ]
    },
    {
      "plugin": "BeckstromResearch",
      "version": "0.6.0",
      "model": "HFO",
      "params": [
        {
          "paramId": 0,
          "value": -2.06099916
        }
      ],
      "pos": [
        27,
        0
      ]
    },
    {
      "plugin": "Bidoo",
      "version": "0.6.19",
      "model": "tOCAnTe",
      "params": [
        {
          "paramId": 4,
          "value": 0.0
        },
        {
          "paramId": 5,
          "value": 0.0
        },
        {
          "paramId": 0,
          "value": 119.67894
        },
        {
          "paramId": 1,
          "value": 0.0
        },
        {
          "paramId": 2,
          "value": 4.0
        },
        {
          "paramId": 3,
          "value": 2.0
        }
      ],
      "data": {
        "running": true
      },
      "pos": [
        33,
        0
      ]
    },
    {
      "plugin": "Core",
      "version": "0.6.2b",
      "model": "AudioInterface",
      "params": [],
      "data": {
        "audio": {
          "driver": 5,
          "deviceName": "Apple Inc.: Built-in Output",
          "offset": 0,
          "maxChannels": 8,
          "sampleRate": 44100,
          "blockSize": 256
        }
      },
      "pos": [
        0,
        0
      ]
    },
    {
      "plugin": "Befaco",
      "version": "0.6.0",
      "model": "EvenVCO",
      "params": [
        {
          "paramId": 0,
          "value": -2.0
        },
        {
          "paramId": 1,
          "value": -4.8197422
        },
        {
          "paramId": 2,
          "value": -0.00326067209
        }
      ],
      "pos": [
        76,
        0
      ]
    },
    {
      "plugin": "Befaco",
      "version": "0.6.0",
      "model": "EvenVCO",
      "params": [
        {
          "paramId": 0,
          "value": -2.0
        },
        {
          "paramId": 1,
          "value": -5.04748106
        },
        {
          "paramId": 2,
          "value": -0.0229420681
        }
      ],
      "pos": [
        68,
        0
      ]
    },
    {
      "plugin": "Befaco",
      "version": "0.6.0",
      "model": "ABC",
      "params": [
        {
          "paramId": 0,
          "value": -0.471999884
        },
        {
          "paramId": 1,
          "value": 0.377000242
        },
        {
          "paramId": 2,
          "value": -0.535000145
        },
        {
          "paramId": 3,
          "value": 0.382999718
        }
      ],
      "pos": [
        10,
        0
      ]
    },
    {
      "plugin": "mscHack",
      "version": "0.6.3",
      "model": "SynthDrums",
      "params": [
        {
          "paramId": 0,
          "value": 0.180000126
        },
        {
          "paramId": 3,
          "value": 0.0549000353
        },
        {
          "paramId": 6,
          "value": 0.832500517
        },
        {
          "paramId": 1,
          "value": 0.345000058
        },
        {
          "paramId": 4,
          "value": 0.0438000076
        },
        {
          "paramId": 7,
          "value": 0.727500021
        },
        {
          "paramId": 2,
          "value": 0.491999328
        },
        {
          "paramId": 5,
          "value": 0.0673500672
        },
        {
          "paramId": 8,
          "value": 0.237001404
        }
      ],
      "data": {
        "wavetypes": [
          2,
          2,
          2
        ]
      },
      "pos": [
        16,
        0
      ]
    },
    {
      "plugin": "FrozenWasteland",
      "version": "0.6.7",
      "model": "RouletteLFO",
      "params": [
        {
          "paramId": 0,
          "value": 1.05699992
        },
        {
          "paramId": 1,
          "value": 1.02699995
        },
        {
          "paramId": 2,
          "value": 1.0
        },
        {
          "paramId": 3,
          "value": 0.399997771
        },
        {
          "paramId": 4,
          "value": 1.0
        },
        {
          "paramId": 5,
          "value": 1.0
        }
      ],
      "pos": [
        54,
        1
      ]
    },
    {
      "plugin": "AS",
      "version": "0.6.12",
      "model": "Mixer8ch",
      "params": [
        {
          "paramId": 9,
          "value": 0.00799999945
        },
        {
          "paramId": 10,
          "value": 0.0159998927
        },
        {
          "paramId": 11,
          "value": -0.00200013537
        },
        {
          "paramId": 12,
          "value": 0.0
        },
        {
          "paramId": 13,
          "value": 0.0
        },
        {
          "paramId": 14,
          "value": 0.0
        },
        {
          "paramId": 15,
          "value": 0.0
        },
        {
          "paramId": 16,
          "value": 0.0
        },
        {
          "paramId": 1,
          "value": 0.564000189
        },
        {
          "paramId": 2,
          "value": 0.105000027
        },
        {
          "paramId": 3,
          "value": 0.104999982
        },
        {
          "paramId": 4,
          "value": 0.201999977
        },
        {
          "paramId": 5,
          "value": 0.800000012
        },
        {
          "paramId": 6,
          "value": 0.800000012
        },
        {
          "paramId": 7,
          "value": 0.800000012
        },
        {
          "paramId": 8,
          "value": 0.800000012
        },
        {
          "paramId": 17,
          "value": 0.0
        },
        {
          "paramId": 18,
          "value": 0.0
        },
        {
          "paramId": 19,
          "value": 0.0
        },
        {
          "paramId": 20,
          "value": 0.0
        },
        {
          "paramId": 21,
          "value": 0.0
        },
        {
          "paramId": 22,
          "value": 0.0
        },
        {
          "paramId": 23,
          "value": 0.0
        },
        {
          "paramId": 24,
          "value": 0.0
        },
        {
          "paramId": 0,
          "value": 0.800000012
        },
        {
          "paramId": 25,
          "value": 0.0
        }
      ],
      "data": {
        "as_MixerMutes": [
          0,
          0,
          0,
          0,
          0,
          0,
          0,
          0,
          0
        ]
      },
      "pos": [
        0,
        1
      ]
    },
    {
      "plugin": "AudibleInstruments",
      "version": "0.6.3",
      "model": "Branches",
      "params": [
        {
          "paramId": 0,
          "value": 0.606999516
        },
        {
          "paramId": 2,
          "value": 0.0
        },
        {
          "paramId": 1,
          "value": 0.64849931
        },
        {
          "paramId": 3,
          "value": 0.0
        }
      ],
      "data": {
        "modes": [
          true,
          true
        ]
      },
      "pos": [
        67,
        1
      ]
    },
    {
      "plugin": "Geodesics",
      "version": "0.6.4",
      "model": "Ions",
      "params": [
        {
          "paramId": 2,
          "value": 0.80152458
        },
        {
          "paramId": 3,
          "value": 0.41325438
        },
        {
          "paramId": 4,
          "value": 0.723803341
        },
        {
          "paramId": 5,
          "value": 0.124678195
        },
        {
          "paramId": 6,
          "value": 0.292111158
        },
        {
          "paramId": 7,
          "value": 0.873324096
        },
        {
          "paramId": 8,
          "value": 0.404988647
        },
        {
          "paramId": 9,
          "value": 0.0700893998
        },
        {
          "paramId": 10,
          "value": 0.20205754
        },
        {
          "paramId": 11,
          "value": 0.898064017
        },
        {
          "paramId": 12,
          "value": 0.902677
        },
        {
          "paramId": 13,
          "value": 0.337454408
        },
        {
          "paramId": 14,
          "value": 0.212235197
        },
        {
          "paramId": 15,
          "value": 0.225147471
        },
        {
          "paramId": 16,
          "value": 0.698167801
        },
        {
          "paramId": 17,
          "value": 0.500354528
        },
        {
          "paramId": 23,
          "value": 0.0
        },
        {
          "paramId": 27,
          "value": 0.0
        },
        {
          "paramId": 18,
          "value": 0.0
        },
        {
          "paramId": 19,
          "value": 0.0
        },
        {
          "paramId": 0,
          "value": 0.0
        },
        {
          "paramId": 1,
          "value": 0.0
        },
        {
          "paramId": 26,
          "value": 0.0
        },
        {
          "paramId": 25,
          "value": 0.0
        },
        {
          "paramId": 21,
          "value": 0.0
        },
        {
          "paramId": 22,
          "value": 0.0
        },
        {
          "paramId": 20,
          "value": 0.0
        },
        {
          "paramId": 24,
          "value": 0.0
        }
      ],
      "data": {
        "panelTheme": 0,
        "resetOnRun": false,
        "quantize": 2,
        "uncertainty": false,
        "running": true,
        "stepIndexes0": 0,
        "stepIndexes1": 0,
        "states0": 2,
        "states1": 2,
        "ranges0": 2,
        "ranges1": 0,
        "leap": true
      },
      "pos": [
        73,
        1
      ]
    },
    {
      "plugin": "Befaco",
      "version": "0.6.0",
      "model": "EvenVCO",
      "params": [
        {
          "paramId": 0,
          "value": 4.0
        },
        {
          "paramId": 1,
          "value": -4.8197422
        },
        {
          "paramId": 2,
          "value": -1.0
        }
      ],
      "pos": [
        84,
        0
      ]
    },
    {
      "plugin": "NYSTHI",
      "version": "0.6.30",
      "model": "DissonantVerb",
      "params": [
        {
          "paramId": 0,
          "value": 0.26513657
        },
        {
          "paramId": 1,
          "value": 0.655191779
        },
        {
          "paramId": 2,
          "value": 0.607567012
        },
        {
          "paramId": 3,
          "value": 0.700728297
        },
        {
          "paramId": 5,
          "value": 0.342011273
        },
        {
          "paramId": 4,
          "value": 0.6769315
        },
        {
          "paramId": 6,
          "value": 0.326319933
        },
        {
          "paramId": 7,
          "value": 0.587374151
        },
        {
          "paramId": 8,
          "value": 0.220472589
        },
        {
          "paramId": 9,
          "value": 0.686199009
        },
        {
          "paramId": 10,
          "value": 0.425539672
        },
        {
          "paramId": 11,
          "value": 0.613936305
        },
        {
          "paramId": 12,
          "value": 0.0
        }
      ],
      "pos": [
        26,
        1
      ]
    },
    {
      "plugin": "BaconMusic",
      "version": "0.6.2",
      "model": "SampleDelay",
      "params": [
        {
          "paramId": 0,
          "value": 14.0
        }
      ],
      "pos": [
        33,
        1
      ]
    }
  ],
  "wires": [
    {
      "color": "#0986ad",
      "outputModuleId": 3,
      "outputId": 1,
      "inputModuleId": 1,
      "inputId": 2
    },
    {
      "color": "#c91847",
      "outputModuleId": 3,
      "outputId": 4,
      "inputModuleId": 1,
      "inputId": 8
    },
    {
      "color": "#0986ad",
      "outputModuleId": 1,
      "outputId": 4,
      "inputModuleId": 11,
      "inputId": 0
    },
    {
      "color": "#c9b70e",
      "outputModuleId": 1,
      "outputId": 6,
      "inputModuleId": 11,
      "inputId": 1
    },
    {
      "color": "#c91847",
      "outputModuleId": 6,
      "outputId": 3,
      "inputModuleId": 0,
      "inputId": 4
    },
    {
      "color": "#0c8e15",
      "outputModuleId": 5,
      "outputId": 1,
      "inputModuleId": 0,
      "inputId": 5
    },
    {
      "color": "#0986ad",
      "outputModuleId": 1,
      "outputId": 5,
      "inputModuleId": 2,
      "inputId": 0
    },
    {
      "color": "#c9b70e",
      "outputModuleId": 2,
      "outputId": 0,
      "inputModuleId": 0,
      "inputId": 3
    },
    {
      "color": "#c91847",
      "outputModuleId": 0,
      "outputId": 0,
      "inputModuleId": 15,
      "inputId": 0
    },
    {
      "color": "#0c8e15",
      "outputModuleId": 1,
      "outputId": 3,
      "inputModuleId": 6,
      "inputId": 4
    },
    {
      "color": "#0986ad",
      "outputModuleId": 1,
      "outputId": 3,
      "inputModuleId": 5,
      "inputId": 4
    },
    {
      "color": "#c9b70e",
      "outputModuleId": 5,
      "outputId": 4,
      "inputModuleId": 7,
      "inputId": 2
    },
    {
      "color": "#c91847",
      "outputModuleId": 6,
      "outputId": 4,
      "inputModuleId": 7,
      "inputId": 0
    },
    {
      "color": "#0c8e15",
      "outputModuleId": 7,
      "outputId": 0,
      "inputModuleId": 8,
      "inputId": 3
    },
    {
      "color": "#0986ad",
      "outputModuleId": 8,
      "outputId": 0,
      "inputModuleId": 14,
      "inputId": 0
    },
    {
      "color": "#c9b70e",
      "outputModuleId": 1,
      "outputId": 1,
      "inputModuleId": 8,
      "inputId": 0
    },
    {
      "color": "#c91847",
      "outputModuleId": 1,
      "outputId": 5,
      "inputModuleId": 7,
      "inputId": 1
    },
    {
      "color": "#0c8e15",
      "outputModuleId": 9,
      "outputId": 0,
      "inputModuleId": 7,
      "inputId": 3
    },
    {
      "color": "#0986ad",
      "outputModuleId": 9,
      "outputId": 1,
      "inputModuleId": 7,
      "inputId": 4
    },
    {
      "color": "#c9b70e",
      "outputModuleId": 5,
      "outputId": 4,
      "inputModuleId": 7,
      "inputId": 5
    },
    {
      "color": "#0c8e15",
      "outputModuleId": 10,
      "outputId": 0,
      "inputModuleId": 4,
      "inputId": 0
    },
    {
      "color": "#0986ad",
      "outputModuleId": 10,
      "outputId": 1,
      "inputModuleId": 4,
      "inputId": 1
    },
    {
      "color": "#c9b70e",
      "outputModuleId": 7,
      "outputId": 1,
      "inputModuleId": 8,
      "inputId": 4
    },
    {
      "color": "#c91847",
      "outputModuleId": 8,
      "outputId": 1,
      "inputModuleId": 14,
      "inputId": 1
    },
    {
      "color": "#0c8e15",
      "outputModuleId": 1,
      "outputId": 1,
      "inputModuleId": 8,
      "inputId": 1
    },
    {
      "color": "#0986ad",
      "outputModuleId": 1,
      "outputId": 3,
      "inputModuleId": 8,
      "inputId": 6
    },
    {
      "color": "#c9b70e",
      "outputModuleId": 5,
      "outputId": 2,
      "inputModuleId": 8,
      "inputId": 7
    },
    {
      "color": "#c91847",
      "outputModuleId": 6,
      "outputId": 2,
      "inputModuleId": 9,
      "inputId": 1
    },
    {
      "color": "#0c8e15",
      "outputModuleId": 5,
      "outputId": 4,
      "inputModuleId": 9,
      "inputId": 2
    },
    {
      "color": "#0986ad",
      "outputModuleId": 0,
      "outputId": 1,
      "inputModuleId": 9,
      "inputId": 0
    },
    {
      "color": "#c9b70e",
      "outputModuleId": 10,
      "outputId": 1,
      "inputModuleId": 9,
      "inputId": 3
    },
    {
      "color": "#c91847",
      "outputModuleId": 11,
      "outputId": 3,
      "inputModuleId": 5,
      "inputId": 1
    },
    {
      "color": "#0c8e15",
      "outputModuleId": 11,
      "outputId": 2,
      "inputModuleId": 6,
      "inputId": 1
    },
    {
      "color": "#0986ad",
      "outputModuleId": 1,
      "outputId": 1,
      "inputModuleId": 11,
      "inputId": 2
    },
    {
      "color": "#c9b70e",
      "outputModuleId": 1,
      "outputId": 1,
      "inputModuleId": 11,
      "inputId": 3
    },
    {
      "color": "#0c8e15",
      "outputModuleId": 1,
      "outputId": 6,
      "inputModuleId": 13,
      "inputId": 1
    },
    {
      "color": "#0986ad",
      "outputModuleId": 9,
      "outputId": 1,
      "inputModuleId": 13,
      "inputId": 0
    },
    {
      "color": "#c9b70e",
      "outputModuleId": 12,
      "outputId": 0,
      "inputModuleId": 1,
      "inputId": 5
    },
    {
      "color": "#c91847",
      "outputModuleId": 3,
      "outputId": 1,
      "inputModuleId": 12,
      "inputId": 0
    },
    {
      "color": "#0c8e15",
      "outputModuleId": 12,
      "outputId": 1,
      "inputModuleId": 5,
      "inputId": 0
    },
    {
      "color": "#c9b70e",
      "outputModuleId": 13,
      "outputId": 4,
      "inputModuleId": 12,
      "inputId": 5
    },
    {
      "color": "#c91847",
      "outputModuleId": 12,
      "outputId": 0,
      "inputModuleId": 6,
      "inputId": 0
    },
    {
      "color": "#0c8e15",
      "outputModuleId": 3,
      "outputId": 1,
      "inputModuleId": 12,
      "inputId": 2
    },
    {
      "color": "#0986ad",
      "outputModuleId": 3,
      "outputId": 5,
      "inputModuleId": 12,
      "inputId": 1
    },
    {
      "color": "#c9b70e",
      "outputModuleId": 1,
      "outputId": 0,
      "inputModuleId": 12,
      "inputId": 3
    },
    {
      "color": "#c91847",
      "outputModuleId": 14,
      "outputId": 0,
      "inputModuleId": 10,
      "inputId": 4
    },
    {
      "color": "#0c8e15",
      "outputModuleId": 14,
      "outputId": 1,
      "inputModuleId": 10,
      "inputId": 7
    },
    {
      "color": "#0986ad",
      "outputModuleId": 11,
      "outputId": 1,
      "inputModuleId": 1,
      "inputId": 3
    },
    {
      "color": "#c9b70e",
      "outputModuleId": 11,
      "outputId": 0,
      "inputModuleId": 1,
      "inputId": 7
    },
    {
      "color": "#c91847",
      "outputModuleId": 3,
      "outputId": 3,
      "inputModuleId": 1,
      "inputId": 1
    },
    {
      "color": "#0c8e15",
      "outputModuleId": 3,
      "outputId": 3,
      "inputModuleId": 1,
      "inputId": 0
    },
    {
      "color": "#0986ad",
      "outputModuleId": 12,
      "outputId": 2,
      "inputModuleId": 1,
      "inputId": 4
    },
    {
      "color": "#c91847",
      "outputModuleId": 8,
      "outputId": 2,
      "inputModuleId": 10,
      "inputId": 10
    },
    {
      "color": "#0c8e15",
      "outputModuleId": 13,
      "outputId": 2,
      "inputModuleId": 8,
      "inputId": 8
    },
    {
      "color": "#c9b70e",
      "outputModuleId": 12,
      "outputId": 2,
      "inputModuleId": 8,
      "inputId": 5
    },
    {
      "color": "#c91847",
      "outputModuleId": 13,
      "outputId": 0,
      "inputModuleId": 8,
      "inputId": 2
    },
    {
      "color": "#0c8e15",
      "outputModuleId": 15,
      "outputId": 0,
      "inputModuleId": 10,
      "inputId": 1
    },
    {
      "color": "#0986ad",
      "outputModuleId": 1,
      "outputId": 2,
      "inputModuleId": 12,
      "inputId": 4
    },
    {
      "color": "#c9b70e",
      "outputModuleId": 1,
      "outputId": 3,
      "inputModuleId": 12,
      "inputId": 6
    }
  ]
}