{
  "version": "1.1.6",
  "modules": [
    {
      "id": 1,
      "plugin": "Core",
      "version": "1.1.6",
      "model": "AudioInterface",
      "params": [],
      "leftModuleId": 8,
      "data": {
        "audio": {
          "driver": 5,
          "deviceName": "Apple Inc.: MacBook Pro Speakers",
          "offset": 0,
          "maxChannels": 8,
          "sampleRate": 44100,
          "blockSize": 256
        }
      },
      "pos": [
        94,
        0
      ]
    },
    {
      "id": 4,
      "plugin": "Fundamental",
      "version": "1.4.0",
      "model": "VCF",
      "params": [
        {
          "id": 0,
          "value": 0.514500022
        },
        {
          "id": 1,
          "value": 0.4760001
        },
        {
          "id": 2,
          "value": 0.234000027
        },
        {
          "id": 3,
          "value": 0.696999967
        },
        {
          "id": 4,
          "value": 0.198000044
        }
      ],
      "leftModuleId": 89,
      "rightModuleId": 6,
      "pos": [
        8,
        2
      ]
    },
    {
      "id": 6,
      "plugin": "Fundamental",
      "version": "1.4.0",
      "model": "ADSR",
      "params": [
        {
          "id": 0,
          "value": 0.258000046
        },
        {
          "id": 1,
          "value": 0.677000463
        },
        {
          "id": 2,
          "value": 0.418999851
        },
        {
          "id": 3,
          "value": 0.731000483
        }
      ],
      "leftModuleId": 4,
      "rightModuleId": 90,
      "pos": [
        16,
        2
      ]
    },
    {
      "id": 7,
      "plugin": "Fundamental",
      "version": "1.4.0",
      "model": "Scope",
      "params": [
        {
          "id": 0,
          "value": 0.0
        },
        {
          "id": 1,
          "value": 0.0
        },
        {
          "id": 2,
          "value": 2.0
        },
        {
          "id": 3,
          "value": 0.0299997181
        },
        {
          "id": 4,
          "value": 14.0
        },
        {
          "id": 5,
          "value": 0.0
        },
        {
          "id": 6,
          "value": 0.0
        },
        {
          "id": 7,
          "value": 0.0
        }
      ],
      "rightModuleId": 94,
      "data": {
        "lissajous": 0,
        "external": 0
      },
      "pos": [
        0,
        1
      ]
    },
    {
      "id": 8,
      "plugin": "Core",
      "version": "1.1.6",
      "model": "Notes",
      "params": [],
      "leftModuleId": 80,
      "rightModuleId": 1,
      "text": "Demo patch instructions:\n\n1. Choose an audio driver and device in the AUDIO-8 module.\n\n2. Use the QWERTY and ZXCVB rows of your keyboard to generate MIDI notes, which are converted to 1V/oct and GATE signals.\n\n3. Drag knobs up/down. Hold Ctrl (Cmd on Mac) while dragging to fine-tune. Right-click knobs to edit, or double-click to initialize.\n\n4. Drag ports to create and move cables. Stack multiple cables on outputs by holding Ctrl (Cmd on Mac) and dragging from an output.\n\n5. Right-click on an empty rack space to add new modules.",
      "pos": [
        78,
        0
      ]
    },
    {
      "id": 80,
      "plugin": "AS",
      "version": "1.0.3",
      "model": "BPMClock",
      "params": [
        {
          "id": 0,
          "value": 180.0
        },
        {
          "id": 1,
          "value": 1.0
        },
        {
          "id": 2,
          "value": 10.8834915
        },
        {
          "id": 3,
          "value": 3.0
        },
        {
          "id": 4,
          "value": 0.0
        },
        {
          "id": 5,
          "value": 0.0
        }
      ],
      "leftModuleId": 86,
      "rightModuleId": 8,
      "data": {
        "run": [
          1
        ]
      },
      "pos": [
        72,
        0
      ]
    },
    {
      "id": 81,
      "plugin": "SonusModular",
      "version": "1.3.0",
      "model": "Micromacro",
      "params": [
        {
          "id": 0,
          "value": 20.0
        },
        {
          "id": 1,
          "value": 16.0
        },
        {
          "id": 2,
          "value": 1.0
        },
        {
          "id": 3,
          "value": 10.0
        },
        {
          "id": 4,
          "value": 436.181
        },
        {
          "id": 5,
          "value": 0.0
        },
        {
          "id": 6,
          "value": 1.0
        },
        {
          "id": 7,
          "value": 1.0
        },
        {
          "id": 8,
          "value": 0.0
        },
        {
          "id": 9,
          "value": 1.0
        },
        {
          "id": 10,
          "value": 1.0
        },
        {
          "id": 11,
          "value": 5.0
        },
        {
          "id": 12,
          "value": 1.0
        },
        {
          "id": 13,
          "value": 15.0
        },
        {
          "id": 14,
          "value": 1.0
        },
        {
          "id": 15,
          "value": 15.0
        },
        {
          "id": 16,
          "value": 1.0
        },
        {
          "id": 17,
          "value": 12.0
        },
        {
          "id": 18,
          "value": 1.0
        },
        {
          "id": 19,
          "value": 5.0
        },
        {
          "id": 20,
          "value": 1.0
        },
        {
          "id": 21,
          "value": 7.0
        },
        {
          "id": 22,
          "value": 1.0
        },
        {
          "id": 23,
          "value": 8.0
        },
        {
          "id": 24,
          "value": 1.0
        },
        {
          "id": 25,
          "value": 13.0
        },
        {
          "id": 26,
          "value": 1.0
        },
        {
          "id": 27,
          "value": 12.0
        },
        {
          "id": 28,
          "value": 1.0
        },
        {
          "id": 29,
          "value": 7.0
        },
        {
          "id": 30,
          "value": 1.0
        },
        {
          "id": 31,
          "value": 12.0
        },
        {
          "id": 32,
          "value": 1.0
        },
        {
          "id": 33,
          "value": 12.0
        },
        {
          "id": 34,
          "value": 1.0
        },
        {
          "id": 35,
          "value": 10.0
        },
        {
          "id": 36,
          "value": 1.0
        },
        {
          "id": 37,
          "value": 10.0
        },
        {
          "id": 38,
          "value": 1.0
        },
        {
          "id": 39,
          "value": 7.0
        },
        {
          "id": 40,
          "value": 1.0
        },
        {
          "id": 41,
          "value": 2.0
        },
        {
          "id": 42,
          "value": 1.0
        },
        {
          "id": 43,
          "value": 8.0
        },
        {
          "id": 44,
          "value": 1.0
        },
        {
          "id": 45,
          "value": 6.0
        },
        {
          "id": 46,
          "value": 1.0
        },
        {
          "id": 47,
          "value": 8.0
        },
        {
          "id": 48,
          "value": 1.0
        },
        {
          "id": 49,
          "value": 8.0
        },
        {
          "id": 50,
          "value": 1.0
        },
        {
          "id": 51,
          "value": 11.0
        },
        {
          "id": 52,
          "value": 1.0
        },
        {
          "id": 53,
          "value": 7.0
        },
        {
          "id": 54,
          "value": 1.0
        },
        {
          "id": 55,
          "value": 4.0
        },
        {
          "id": 56,
          "value": 1.0
        },
        {
          "id": 57,
          "value": 2.0
        },
        {
          "id": 58,
          "value": 1.0
        },
        {
          "id": 59,
          "value": 12.0
        },
        {
          "id": 60,
          "value": 1.0
        },
        {
          "id": 61,
          "value": 4.0
        },
        {
          "id": 62,
          "value": 1.0
        },
        {
          "id": 63,
          "value": 5.0
        },
        {
          "id": 64,
          "value": 1.0
        },
        {
          "id": 65,
          "value": 11.0
        },
        {
          "id": 66,
          "value": 1.0
        },
        {
          "id": 67,
          "value": 5.0
        },
        {
          "id": 68,
          "value": 1.0
        },
        {
          "id": 69,
          "value": 9.0
        },
        {
          "id": 70,
          "value": 1.0
        },
        {
          "id": 71,
          "value": 12.0
        },
        {
          "id": 72,
          "value": 1.0
        },
        {
          "id": 73,
          "value": 5.0
        },
        {
          "id": 74,
          "value": 1.0
        },
        {
          "id": 75,
          "value": 15.0
        },
        {
          "id": 76,
          "value": 1.0
        },
        {
          "id": 77,
          "value": 2.0
        },
        {
          "id": 78,
          "value": 1.0
        },
        {
          "id": 79,
          "value": 0.0
        },
        {
          "id": 80,
          "value": 1.0
        },
        {
          "id": 81,
          "value": 16.0
        },
        {
          "id": 82,
          "value": 1.0
        },
        {
          "id": 83,
          "value": 12.0
        },
        {
          "id": 84,
          "value": 1.0
        },
        {
          "id": 85,
          "value": 9.0
        },
        {
          "id": 86,
          "value": 1.0
        },
        {
          "id": 87,
          "value": 15.0
        },
        {
          "id": 88,
          "value": 1.0
        },
        {
          "id": 89,
          "value": 16.0
        },
        {
          "id": 90,
          "value": 1.0
        },
        {
          "id": 91,
          "value": 14.0
        },
        {
          "id": 92,
          "value": 1.0
        },
        {
          "id": 93,
          "value": 6.0
        },
        {
          "id": 94,
          "value": 1.0
        },
        {
          "id": 95,
          "value": 15.0
        },
        {
          "id": 96,
          "value": 1.0
        },
        {
          "id": 97,
          "value": 4.0
        },
        {
          "id": 98,
          "value": 1.0
        },
        {
          "id": 99,
          "value": 13.0
        },
        {
          "id": 100,
          "value": 1.0
        },
        {
          "id": 101,
          "value": 10.0
        },
        {
          "id": 102,
          "value": 1.0
        },
        {
          "id": 103,
          "value": 10.0
        },
        {
          "id": 104,
          "value": 1.0
        }
      ],
      "rightModuleId": 86,
      "pos": [
        0,
        0
      ]
    },
    {
      "id": 86,
      "plugin": "StellareModular",
      "version": "1.0.0",
      "model": "TuringMachine",
      "params": [
        {
          "id": 0,
          "value": 0.617423236
        },
        {
          "id": 1,
          "value": 0.467622936
        },
        {
          "id": 2,
          "value": 0.633758962
        },
        {
          "id": 3,
          "value": 0.742197812
        },
        {
          "id": 4,
          "value": 0.289735079
        },
        {
          "id": 5,
          "value": 0.363787979
        },
        {
          "id": 6,
          "value": 7.0
        },
        {
          "id": 7,
          "value": 0.367754459
        },
        {
          "id": 8,
          "value": 0.0
        },
        {
          "id": 9,
          "value": 0.0
        },
        {
          "id": 10,
          "value": 0.0
        },
        {
          "id": 11,
          "value": 0.0
        },
        {
          "id": 12,
          "value": 0.0
        }
      ],
      "leftModuleId": 81,
      "rightModuleId": 80,
      "data": {
        "pulses_mode": 0
      },
      "pos": [
        54,
        0
      ]
    },
    {
      "id": 89,
      "plugin": "Befaco",
      "version": "1.0.0",
      "model": "EvenVCO",
      "params": [
        {
          "id": 0,
          "value": -3.0
        },
        {
          "id": 1,
          "value": 0.0
        },
        {
          "id": 2,
          "value": 0.780000031
        }
      ],
      "rightModuleId": 4,
      "pos": [
        0,
        2
      ]
    },
    {
      "id": 90,
      "plugin": "RJModules",
      "version": "1.5.0",
      "model": "Acid",
      "params": [
        {
          "id": 0,
          "value": 0.0
        },
        {
          "id": 1,
          "value": 0.0
        },
        {
          "id": 2,
          "value": 0.0
        },
        {
          "id": 3,
          "value": 0.100000001
        },
        {
          "id": 4,
          "value": 1.0
        },
        {
          "id": 5,
          "value": 1.0
        },
        {
          "id": 6,
          "value": 0.880501568
        },
        {
          "id": 7,
          "value": 0.300000012
        },
        {
          "id": 8,
          "value": 0.300000012
        },
        {
          "id": 9,
          "value": 0.699999988
        },
        {
          "id": 10,
          "value": 1.0
        },
        {
          "id": 11,
          "value": 0.899999976
        },
        {
          "id": 12,
          "value": 0.400000006
        },
        {
          "id": 13,
          "value": 0.200000003
        },
        {
          "id": 14,
          "value": 50.0
        }
      ],
      "leftModuleId": 6,
      "rightModuleId": 91,
      "pos": [
        24,
        2
      ]
    },
    {
      "id": 91,
      "plugin": "Bidoo",
      "version": "1.1.8",
      "model": "SIGMA",
      "params": [],
      "leftModuleId": 90,
      "rightModuleId": 92,
      "pos": [
        44,
        2
      ]
    },
    {
      "id": 92,
      "plugin": "RJModules",
      "version": "1.5.0",
      "model": "RandomFilter",
      "params": [
        {
          "id": 0,
          "value": 0.0
        },
        {
          "id": 1,
          "value": 0.88650012
        }
      ],
      "leftModuleId": 91,
      "rightModuleId": 97,
      "pos": [
        49,
        2
      ]
    },
    {
      "id": 93,
      "plugin": "Geodesics",
      "version": "1.1.0",
      "model": "Energy",
      "params": [
        {
          "id": 0,
          "value": 0.0
        },
        {
          "id": 1,
          "value": 0.0
        },
        {
          "id": 2,
          "value": 0.0
        },
        {
          "id": 3,
          "value": 0.0
        },
        {
          "id": 4,
          "value": 0.0
        },
        {
          "id": 5,
          "value": 0.720000446
        },
        {
          "id": 6,
          "value": 1.48499787
        },
        {
          "id": 7,
          "value": 0.232500002
        },
        {
          "id": 8,
          "value": 0.359499991
        },
        {
          "id": 9,
          "value": 0.0
        }
      ],
      "leftModuleId": 97,
      "rightModuleId": 95,
      "data": {
        "panelTheme": 0,
        "oscM_phase": 30238448,
        "oscC_phase": 2549133536,
        "osc1M_phase": 0,
        "osc1C_phase": 0,
        "osc2M_phase": 0,
        "osc2C_phase": 0,
        "osc3M_phase": 0,
        "osc3C_phase": 0,
        "osc4M_phase": 0,
        "osc4C_phase": 0,
        "osc5M_phase": 0,
        "osc5C_phase": 0,
        "osc6M_phase": 0,
        "osc6C_phase": 0,
        "osc7M_phase": 0,
        "osc7C_phase": 0,
        "osc8M_phase": 0,
        "osc8C_phase": 0,
        "osc9M_phase": 0,
        "osc9C_phase": 0,
        "osc10M_phase": 0,
        "osc10C_phase": 0,
        "osc11M_phase": 0,
        "osc11C_phase": 0,
        "osc12M_phase": 0,
        "osc12C_phase": 0,
        "osc13M_phase": 0,
        "osc13C_phase": 0,
        "osc14M_phase": 0,
        "osc14C_phase": 0,
        "osc15M_phase": 0,
        "osc15C_phase": 0,
        "routing": 0,
        "planck0": 2,
        "planck1": 2,
        "modtype0": 0,
        "modtype1": 2,
        "cross": 1
      },
      "pos": [
        73,
        2
      ]
    },
    {
      "id": 94,
      "plugin": "Fundamental",
      "version": "1.4.0",
      "model": "Scope",
      "params": [
        {
          "id": 0,
          "value": 0.0
        },
        {
          "id": 1,
          "value": 0.0
        },
        {
          "id": 2,
          "value": 0.0
        },
        {
          "id": 3,
          "value": 0.0
        },
        {
          "id": 4,
          "value": 14.0
        },
        {
          "id": 5,
          "value": 0.0
        },
        {
          "id": 6,
          "value": 0.0
        },
        {
          "id": 7,
          "value": 0.0
        }
      ],
      "leftModuleId": 7,
      "rightModuleId": 99,
      "data": {
        "lissajous": 0,
        "external": 0
      },
      "pos": [
        13,
        1
      ]
    },
    {
      "id": 95,
      "plugin": "Fundamental",
      "version": "1.4.0",
      "model": "ADSR",
      "params": [
        {
          "id": 0,
          "value": 0.681000233
        },
        {
          "id": 1,
          "value": 0.743000448
        },
        {
          "id": 2,
          "value": 0.410000175
        },
        {
          "id": 3,
          "value": 0.645500004
        }
      ],
      "leftModuleId": 93,
      "rightModuleId": 101,
      "pos": [
        80,
        2
      ]
    },
    {
      "id": 97,
      "plugin": "Blamsoft-XFXF35",
      "version": "1.0.0",
      "model": "Blamsoft-XFXF35",
      "params": [
        {
          "id": 0,
          "value": 0.798000038
        },
        {
          "id": 1,
          "value": 0.5
        },
        {
          "id": 2,
          "value": 0.420999855
        },
        {
          "id": 3,
          "value": 0.5
        },
        {
          "id": 4,
          "value": 0.172500014
        },
        {
          "id": 5,
          "value": 0.5
        },
        {
          "id": 6,
          "value": 0.656499565
        }
      ],
      "leftModuleId": 92,
      "rightModuleId": 93,
      "data": {
        "mode": 3
      },
      "pos": [
        59,
        2
      ]
    },
    {
      "id": 98,
      "plugin": "Hora-Mixers",
      "version": "1.0.2",
      "model": "StereoMixer-8-2",
      "params": [
        {
          "id": 0,
          "value": 0.366000146
        },
        {
          "id": 1,
          "value": 1.0
        },
        {
          "id": 2,
          "value": 1.0
        },
        {
          "id": 3,
          "value": 1.0
        },
        {
          "id": 4,
          "value": 1.0
        },
        {
          "id": 5,
          "value": 0.0
        },
        {
          "id": 6,
          "value": 0.0
        },
        {
          "id": 7,
          "value": 0.0
        },
        {
          "id": 8,
          "value": 0.0
        },
        {
          "id": 9,
          "value": 0.0
        },
        {
          "id": 10,
          "value": 0.0
        },
        {
          "id": 11,
          "value": 0.0
        },
        {
          "id": 12,
          "value": 0.0
        },
        {
          "id": 13,
          "value": 0.0
        },
        {
          "id": 14,
          "value": 0.0
        },
        {
          "id": 15,
          "value": 0.0
        },
        {
          "id": 16,
          "value": 0.0
        },
        {
          "id": 17,
          "value": 0.0
        },
        {
          "id": 18,
          "value": 0.0
        },
        {
          "id": 19,
          "value": 0.0
        },
        {
          "id": 20,
          "value": 0.0
        },
        {
          "id": 21,
          "value": 1.0
        },
        {
          "id": 22,
          "value": 1.0
        },
        {
          "id": 23,
          "value": 1.0
        },
        {
          "id": 24,
          "value": 0.231999904
        },
        {
          "id": 25,
          "value": 1.0
        },
        {
          "id": 26,
          "value": 1.0
        },
        {
          "id": 27,
          "value": 1.0
        },
        {
          "id": 28,
          "value": 1.0
        },
        {
          "id": 29,
          "value": 1.0
        },
        {
          "id": 30,
          "value": 1.0
        },
        {
          "id": 31,
          "value": 1.0
        },
        {
          "id": 32,
          "value": 1.0
        },
        {
          "id": 33,
          "value": 1.0
        },
        {
          "id": 34,
          "value": 1.0
        },
        {
          "id": 35,
          "value": 1.0
        },
        {
          "id": 36,
          "value": 1.0
        },
        {
          "id": 37,
          "value": 0.0
        },
        {
          "id": 38,
          "value": 0.0
        },
        {
          "id": 39,
          "value": 0.0
        },
        {
          "id": 40,
          "value": 0.0
        },
        {
          "id": 41,
          "value": 0.0
        },
        {
          "id": 42,
          "value": 0.0
        },
        {
          "id": 43,
          "value": 0.0
        },
        {
          "id": 44,
          "value": 0.0
        },
        {
          "id": 45,
          "value": 1.0
        },
        {
          "id": 46,
          "value": 1.0
        },
        {
          "id": 47,
          "value": 1.0
        },
        {
          "id": 48,
          "value": 1.0
        },
        {
          "id": 49,
          "value": 1.0
        },
        {
          "id": 50,
          "value": 1.0
        },
        {
          "id": 51,
          "value": 1.0
        },
        {
          "id": 52,
          "value": 1.0
        },
        {
          "id": 53,
          "value": 1.0
        },
        {
          "id": 54,
          "value": 1.0
        },
        {
          "id": 55,
          "value": 1.0
        },
        {
          "id": 56,
          "value": 1.0
        },
        {
          "id": 57,
          "value": 1.0
        },
        {
          "id": 58,
          "value": 1.0
        },
        {
          "id": 59,
          "value": 1.0
        },
        {
          "id": 60,
          "value": 1.0
        }
      ],
      "leftModuleId": 99,
      "pos": [
        52,
        1
      ]
    },
    {
      "id": 99,
      "plugin": "squinkylabs-plug1",
      "version": "1.0.5",
      "model": "squinkylabs-mix8",
      "params": [
        {
          "id": 0,
          "value": 1.0
        },
        {
          "id": 1,
          "value": 0.0
        },
        {
          "id": 2,
          "value": 0.302500039
        },
        {
          "id": 3,
          "value": 1.0
        },
        {
          "id": 4,
          "value": 1.0
        },
        {
          "id": 5,
          "value": 0.800000012
        },
        {
          "id": 6,
          "value": 0.800000012
        },
        {
          "id": 7,
          "value": 0.800000012
        },
        {
          "id": 8,
          "value": 0.65350008
        },
        {
          "id": 9,
          "value": 0.646000028
        },
        {
          "id": 10,
          "value": 0.0
        },
        {
          "id": 11,
          "value": 0.0
        },
        {
          "id": 12,
          "value": 0.0
        },
        {
          "id": 13,
          "value": 0.0
        },
        {
          "id": 14,
          "value": 0.0
        },
        {
          "id": 15,
          "value": 0.0
        },
        {
          "id": 16,
          "value": 0.0
        },
        {
          "id": 17,
          "value": 0.0
        },
        {
          "id": 18,
          "value": 0.0
        },
        {
          "id": 19,
          "value": 1.0
        },
        {
          "id": 20,
          "value": 1.0
        },
        {
          "id": 21,
          "value": 0.0
        },
        {
          "id": 22,
          "value": 0.0
        },
        {
          "id": 23,
          "value": 0.0
        },
        {
          "id": 24,
          "value": 0.0
        },
        {
          "id": 25,
          "value": 0.0
        },
        {
          "id": 26,
          "value": 0.0
        },
        {
          "id": 27,
          "value": 0.0
        },
        {
          "id": 28,
          "value": 0.0
        },
        {
          "id": 29,
          "value": 0.0
        },
        {
          "id": 30,
          "value": 0.0
        },
        {
          "id": 31,
          "value": 0.0
        },
        {
          "id": 32,
          "value": 0.0
        },
        {
          "id": 33,
          "value": 0.0
        },
        {
          "id": 34,
          "value": 1.0
        },
        {
          "id": 35,
          "value": 1.0
        },
        {
          "id": 36,
          "value": 1.0
        },
        {
          "id": 37,
          "value": 0.0
        },
        {
          "id": 38,
          "value": 0.0
        },
        {
          "id": 39,
          "value": 0.0
        },
        {
          "id": 40,
          "value": 0.0
        },
        {
          "id": 41,
          "value": 0.0
        },
        {
          "id": 42,
          "value": 1.0
        }
      ],
      "leftModuleId": 94,
      "rightModuleId": 98,
      "pos": [
        26,
        1
      ]
    },
    {
      "id": 101,
      "plugin": "AudibleInstruments",
      "version": "1.0.0",
      "model": "Tides2",
      "params": [
        {
          "id": 0,
          "value": 0.0
        },
        {
          "id": 1,
          "value": 0.0
        },
        {
          "id": 2,
          "value": 0.0
        },
        {
          "id": 3,
          "value": 0.0
        },
        {
          "id": 4,
          "value": 0.557000041
        },
        {
          "id": 5,
          "value": 0.5
        },
        {
          "id": 6,
          "value": 0.5
        },
        {
          "id": 7,
          "value": 0.5
        },
        {
          "id": 8,
          "value": 0.0
        },
        {
          "id": 9,
          "value": 0.0
        },
        {
          "id": 10,
          "value": 0.0
        },
        {
          "id": 11,
          "value": 0.0
        },
        {
          "id": 12,
          "value": 0.0
        }
      ],
      "leftModuleId": 95,
      "data": {
        "range": 1,
        "output": 2,
        "ramp": 1
      },
      "pos": [
        88,
        2
      ]
    },
    {
      "id": 102,
      "plugin": "OhmerPrems",
      "version": "1.0.2",
      "model": "QuadPercs",
      "params": [
        {
          "id": 0,
          "value": 0.0
        },
        {
          "id": 1,
          "value": 0.0
        },
        {
          "id": 2,
          "value": 0.0
        },
        {
          "id": 3,
          "value": 0.0
        }
      ],
      "rightModuleId": 103,
      "data": {
        "Theme": 0,
        "Channel": 0,
        "DrumMachines": [
          12,
          0,
          12,
          0
        ],
        "KitPieces": [
          0,
          3,
          8,
          6
        ],
        "Memory": [
          0,
          0,
          0,
          0,
          0,
          0,
          0,
          0,
          0,
          0,
          0,
          0,
          0,
          0,
          0,
          0
        ]
      },
      "pos": [
        0,
        3
      ]
    },
    {
      "id": 103,
      "plugin": "FrozenWasteland",
      "version": "1.10.0",
      "model": "DrunkenRampage",
      "params": [
        {
          "id": 0,
          "value": 0.0
        },
        {
          "id": 1,
          "value": 2.0
        },
        {
          "id": 2,
          "value": 0.0
        },
        {
          "id": 3,
          "value": 0.0
        },
        {
          "id": 4,
          "value": 0.0
        },
        {
          "id": 5,
          "value": 0.0
        },
        {
          "id": 6,
          "value": 0.368999988
        },
        {
          "id": 7,
          "value": 0.354000032
        },
        {
          "id": 8,
          "value": 0.34799999
        },
        {
          "id": 9,
          "value": 0.444000006
        },
        {
          "id": 10,
          "value": 1.0
        },
        {
          "id": 11,
          "value": 1.0
        },
        {
          "id": 12,
          "value": 0.5
        },
        {
          "id": 13,
          "value": 0.0
        },
        {
          "id": 14,
          "value": 0.0
        },
        {
          "id": 15,
          "value": 0.0
        },
        {
          "id": 16,
          "value": 0.0
        }
      ],
      "leftModuleId": 102,
      "pos": [
        10,
        3
      ]
    }
  ],
  "cables": [
    {
      "id": 605,
      "outputModuleId": 6,
      "outputId": 0,
      "inputModuleId": 4,
      "inputId": 0,
      "color": "#c91847"
    },
    {
      "id": 615,
      "outputModuleId": 80,
      "outputId": 0,
      "inputModuleId": 81,
      "inputId": 0,
      "color": "#0c8e15"
    },
    {
      "id": 625,
      "outputModuleId": 86,
      "outputId": 14,
      "inputModuleId": 6,
      "inputId": 4,
      "color": "#0986ad"
    },
    {
      "id": 626,
      "outputModuleId": 80,
      "outputId": 1,
      "inputModuleId": 86,
      "inputId": 0,
      "color": "#0c8e15"
    },
    {
      "id": 602,
      "outputModuleId": 89,
      "outputId": 3,
      "inputModuleId": 4,
      "inputId": 3,
      "color": "#0c8e15"
    },
    {
      "id": 633,
      "outputModuleId": 81,
      "outputId": 1,
      "inputModuleId": 89,
      "inputId": 1,
      "color": "#c91847"
    },
    {
      "id": 634,
      "outputModuleId": 86,
      "outputId": 12,
      "inputModuleId": 89,
      "inputId": 4,
      "color": "#0986ad"
    },
    {
      "id": 635,
      "outputModuleId": 86,
      "outputId": 2,
      "inputModuleId": 89,
      "inputId": 3,
      "color": "#c9b70e"
    },
    {
      "id": 640,
      "outputModuleId": 86,
      "outputId": 6,
      "inputModuleId": 91,
      "inputId": 0,
      "color": "#c91847"
    },
    {
      "id": 644,
      "outputModuleId": 86,
      "outputId": 4,
      "inputModuleId": 91,
      "inputId": 1,
      "color": "#c91847"
    },
    {
      "id": 645,
      "outputModuleId": 86,
      "outputId": 7,
      "inputModuleId": 91,
      "inputId": 2,
      "color": "#0986ad"
    },
    {
      "id": 643,
      "outputModuleId": 81,
      "outputId": 3,
      "inputModuleId": 90,
      "inputId": 0,
      "color": "#0c8e15"
    },
    {
      "id": 647,
      "outputModuleId": 81,
      "outputId": 5,
      "inputModuleId": 90,
      "inputId": 1,
      "color": "#0c8e15"
    },
    {
      "id": 646,
      "outputModuleId": 91,
      "outputId": 0,
      "inputModuleId": 90,
      "inputId": 9,
      "color": "#c9b70e"
    },
    {
      "id": 636,
      "outputModuleId": 90,
      "outputId": 0,
      "inputModuleId": 92,
      "inputId": 0,
      "color": "#c91847"
    },
    {
      "id": 650,
      "outputModuleId": 81,
      "outputId": 3,
      "inputModuleId": 93,
      "inputId": 2,
      "color": "#0c8e15"
    },
    {
      "id": 654,
      "outputModuleId": 86,
      "outputId": 3,
      "inputModuleId": 93,
      "inputId": 5,
      "color": "#0c8e15"
    },
    {
      "id": 655,
      "outputModuleId": 86,
      "outputId": 9,
      "inputModuleId": 93,
      "inputId": 4,
      "color": "#c91847"
    },
    {
      "id": 657,
      "outputModuleId": 86,
      "outputId": 8,
      "inputModuleId": 95,
      "inputId": 4,
      "color": "#c91847"
    },
    {
      "id": 659,
      "outputModuleId": 86,
      "outputId": 13,
      "inputModuleId": 93,
      "inputId": 3,
      "color": "#c9b70e"
    },
    {
      "id": 662,
      "outputModuleId": 93,
      "outputId": 0,
      "inputModuleId": 97,
      "inputId": 5,
      "color": "#0986ad"
    },
    {
      "id": 631,
      "outputModuleId": 6,
      "outputId": 0,
      "inputModuleId": 99,
      "inputId": 9,
      "color": "#c9b70e"
    },
    {
      "id": 607,
      "outputModuleId": 6,
      "outputId": 0,
      "inputModuleId": 99,
      "inputId": 8,
      "color": "#0c8e15"
    },
    {
      "id": 639,
      "outputModuleId": 99,
      "outputId": 3,
      "inputModuleId": 7,
      "inputId": 1,
      "color": "#0c8e15"
    },
    {
      "id": 609,
      "outputModuleId": 99,
      "outputId": 2,
      "inputModuleId": 7,
      "inputId": 0,
      "color": "#c9b70e"
    },
    {
      "id": 649,
      "outputModuleId": 92,
      "outputId": 0,
      "inputModuleId": 99,
      "inputId": 1,
      "color": "#c9b70e"
    },
    {
      "id": 666,
      "outputModuleId": 99,
      "outputId": 0,
      "inputModuleId": 1,
      "inputId": 0,
      "color": "#c9b70e"
    },
    {
      "id": 667,
      "outputModuleId": 99,
      "outputId": 1,
      "inputModuleId": 1,
      "inputId": 1,
      "color": "#0c8e15"
    },
    {
      "id": 658,
      "outputModuleId": 95,
      "outputId": 0,
      "inputModuleId": 99,
      "inputId": 10,
      "color": "#0986ad"
    },
    {
      "id": 663,
      "outputModuleId": 97,
      "outputId": 0,
      "inputModuleId": 99,
      "inputId": 2,
      "color": "#c9b70e"
    },
    {
      "id": 608,
      "outputModuleId": 4,
      "outputId": 0,
      "inputModuleId": 99,
      "inputId": 0,
      "color": "#0986ad"
    },
    {
      "id": 669,
      "outputModuleId": 99,
      "outputId": 4,
      "inputModuleId": 94,
      "inputId": 0,
      "color": "#0986ad"
    },
    {
      "id": 672,
      "outputModuleId": 98,
      "outputId": 2,
      "inputModuleId": 99,
      "inputId": 6,
      "color": "#c91847"
    },
    {
      "id": 673,
      "outputModuleId": 98,
      "outputId": 3,
      "inputModuleId": 99,
      "inputId": 7,
      "color": "#0986ad"
    },
    {
      "id": 677,
      "outputModuleId": 80,
      "outputId": 3,
      "inputModuleId": 101,
      "inputId": 7,
      "color": "#0986ad"
    },
    {
      "id": 648,
      "outputModuleId": 86,
      "outputId": 12,
      "inputModuleId": 92,
      "inputId": 2,
      "color": "#0986ad"
    },
    {
      "id": 678,
      "outputModuleId": 89,
      "outputId": 2,
      "inputModuleId": 92,
      "inputId": 1,
      "color": "#c9b70e"
    },
    {
      "id": 679,
      "outputModuleId": 102,
      "outputId": 0,
      "inputModuleId": 98,
      "inputId": 4,
      "color": "#0c8e15"
    },
    {
      "id": 681,
      "outputModuleId": 102,
      "outputId": 1,
      "inputModuleId": 98,
      "inputId": 5,
      "color": "#c9b70e"
    },
    {
      "id": 683,
      "outputModuleId": 102,
      "outputId": 2,
      "inputModuleId": 98,
      "inputId": 6,
      "color": "#c9b70e"
    },
    {
      "id": 687,
      "outputModuleId": 102,
      "outputId": 3,
      "inputModuleId": 98,
      "inputId": 7,
      "color": "#c91847"
    },
    {
      "id": 692,
      "outputModuleId": 99,
      "outputId": 8,
      "inputModuleId": 94,
      "inputId": 1,
      "color": "#0986ad"
    },
    {
      "id": 693,
      "outputModuleId": 89,
      "outputId": 0,
      "inputModuleId": 103,
      "inputId": 0,
      "color": "#c9b70e"
    },
    {
      "id": 694,
      "outputModuleId": 90,
      "outputId": 0,
      "inputModuleId": 103,
      "inputId": 1,
      "color": "#0c8e15"
    },
    {
      "id": 695,
      "outputModuleId": 103,
      "outputId": 1,
      "inputModuleId": 102,
      "inputId": 0,
      "color": "#c91847"
    },
    {
      "id": 696,
      "outputModuleId": 103,
      "outputId": 3,
      "inputModuleId": 102,
      "inputId": 1,
      "color": "#0986ad"
    },
    {
      "id": 698,
      "outputModuleId": 103,
      "outputId": 0,
      "inputModuleId": 102,
      "inputId": 3,
      "color": "#0c8e15"
    },
    {
      "id": 697,
      "outputModuleId": 103,
      "outputId": 7,
      "inputModuleId": 102,
      "inputId": 2,
      "color": "#c9b70e"
    }
  ]
}