{
  "version": "1.1.6",
  "modules": [
    {
      "id": 1,
      "plugin": "Core",
      "version": "1.1.6",
      "model": "AudioInterface",
      "params": [],
      "leftModuleId": 2,
      "rightModuleId": 8,
      "data": {
        "audio": {
          "driver": 5,
          "deviceName": "Apple Inc.: MacBook Pro Speakers",
          "offset": 0,
          "maxChannels": 8,
          "sampleRate": 44100,
          "blockSize": 256
        }
      },
      "pos": [
        57,
        0
      ]
    },
    {
      "id": 2,
      "plugin": "Fundamental",
      "version": "1.4.0",
      "model": "VCMixer",
      "params": [
        {
          "id": 0,
          "value": 1.0
        },
        {
          "id": 1,
          "value": 1.30547023
        },
        {
          "id": 2,
          "value": 1.0
        },
        {
          "id": 3,
          "value": 1.0
        },
        {
          "id": 4,
          "value": 1.0
        }
      ],
      "leftModuleId": 7,
      "rightModuleId": 1,
      "pos": [
        47,
        0
      ]
    },
    {
      "id": 3,
      "plugin": "Fundamental",
      "version": "1.4.0",
      "model": "VCO",
      "params": [
        {
          "id": 0,
          "value": 0.0
        },
        {
          "id": 1,
          "value": 0.0
        },
        {
          "id": 2,
          "value": -39.5279961
        },
        {
          "id": 3,
          "value": 0.0
        },
        {
          "id": 4,
          "value": 0.0
        },
        {
          "id": 5,
          "value": 0.5
        },
        {
          "id": 6,
          "value": 0.0
        }
      ],
      "leftModuleId": 5,
      "rightModuleId": 4,
      "pos": [
        8,
        0
      ]
    },
    {
      "id": 4,
      "plugin": "Fundamental",
      "version": "1.4.0",
      "model": "VCF",
      "params": [
        {
          "id": 0,
          "value": 0.587499976
        },
        {
          "id": 1,
          "value": 0.5
        },
        {
          "id": 2,
          "value": 0.234000027
        },
        {
          "id": 3,
          "value": 1.0
        },
        {
          "id": 4,
          "value": 0.0
        }
      ],
      "leftModuleId": 3,
      "rightModuleId": 6,
      "pos": [
        18,
        0
      ]
    },
    {
      "id": 5,
      "plugin": "Core",
      "version": "1.1.6",
      "model": "MIDIToCVInterface",
      "params": [],
      "rightModuleId": 3,
      "data": {
        "channels": 1,
        "polyMode": 0,
        "clockDivision": 24,
        "lastPitch": 8192,
        "lastMod": 0,
        "midi": {
          "driver": -11,
          "deviceName": "QWERTY keyboard (US)",
          "channel": -1
        }
      },
      "pos": [
        0,
        0
      ]
    },
    {
      "id": 6,
      "plugin": "Fundamental",
      "version": "1.4.0",
      "model": "ADSR",
      "params": [
        {
          "id": 0,
          "value": 0.583500028
        },
        {
          "id": 1,
          "value": 0.58700043
        },
        {
          "id": 2,
          "value": 0.643999934
        },
        {
          "id": 3,
          "value": 0.576500058
        }
      ],
      "leftModuleId": 4,
      "rightModuleId": 7,
      "pos": [
        26,
        0
      ]
    },
    {
      "id": 7,
      "plugin": "Fundamental",
      "version": "1.4.0",
      "model": "Scope",
      "params": [
        {
          "id": 0,
          "value": -0.0
        },
        {
          "id": 1,
          "value": 0.0
        },
        {
          "id": 2,
          "value": 0.0
        },
        {
          "id": 3,
          "value": 0.0
        },
        {
          "id": 4,
          "value": 16.0
        },
        {
          "id": 5,
          "value": 0.0
        },
        {
          "id": 6,
          "value": 0.0
        },
        {
          "id": 7,
          "value": 0.0
        }
      ],
      "leftModuleId": 6,
      "rightModuleId": 2,
      "data": {
        "lissajous": 0,
        "external": 0
      },
      "pos": [
        34,
        0
      ]
    },
    {
      "id": 8,
      "plugin": "Core",
      "version": "1.1.6",
      "model": "Notes",
      "params": [],
      "leftModuleId": 1,
      "text": "Demo patch instructions:\n\n1. Choose an audio driver and device in the AUDIO-8 module.\n\n2. Use the QWERTY and ZXCVB rows of your keyboard to generate MIDI notes, which are converted to 1V/oct and GATE signals.\n\n3. Drag knobs up/down. Hold Ctrl (Cmd on Mac) while dragging to fine-tune. Right-click knobs to edit, or double-click to initialize.\n\n4. Drag ports to create and move cables. Stack multiple cables on outputs by holding Ctrl (Cmd on Mac) and dragging from an output.\n\n5. Right-click on an empty rack space to add new modules.",
      "pos": [
        67,
        0
      ]
    },
    {
      "id": 120,
      "plugin": "Nozoid",
      "version": "1.1.1",
      "model": "Nozori_68_NOISE",
      "params": [
        {
          "id": 0,
          "value": 0.645765722
        },
        {
          "id": 1,
          "value": 0.290913135
        },
        {
          "id": 2,
          "value": 0.450238824
        },
        {
          "id": 3,
          "value": 0.632208884
        },
        {
          "id": 4,
          "value": 0.630002439
        },
        {
          "id": 5,
          "value": 0.464303225
        },
        {
          "id": 6,
          "value": 2.0
        }
      ],
      "pos": [
        0,
        1
      ]
    },
    {
      "id": 121,
      "plugin": "Fundamental",
      "version": "1.4.0",
      "model": "VCF",
      "params": [
        {
          "id": 0,
          "value": 0.587499976
        },
        {
          "id": 1,
          "value": 0.5
        },
        {
          "id": 2,
          "value": 0.234000027
        },
        {
          "id": 3,
          "value": 1.0
        },
        {
          "id": 4,
          "value": 0.0
        }
      ],
      "rightModuleId": 122,
      "pos": [
        18,
        1
      ]
    },
    {
      "id": 122,
      "plugin": "ParableInstruments",
      "version": "1.0.0",
      "model": "Neil",
      "params": [
        {
          "id": 0,
          "value": 0.302000016
        },
        {
          "id": 1,
          "value": 0.722000062
        },
        {
          "id": 2,
          "value": 0.0
        },
        {
          "id": 3,
          "value": 0.819500029
        },
        {
          "id": 4,
          "value": 0.416000038
        },
        {
          "id": 5,
          "value": 0.538999975
        },
        {
          "id": 6,
          "value": 0.555500031
        },
        {
          "id": 7,
          "value": 0.39199999
        },
        {
          "id": 8,
          "value": 0.762499988
        },
        {
          "id": 9,
          "value": 0.657499969
        },
        {
          "id": 10,
          "value": 0.0
        },
        {
          "id": 11,
          "value": 0.0
        }
      ],
      "leftModuleId": 121,
      "data": {
        "playbackmode": 2,
        "lofi": 0,
        "mono": 0,
        "freeze": 0,
        "buffersize": 1,
        "reverse": 0
      },
      "pos": [
        26,
        1
      ]
    }
  ],
  "cables": [
    {
      "id": 746,
      "outputModuleId": 5,
      "outputId": 0,
      "inputModuleId": 3,
      "inputId": 0,
      "color": "#c91847"
    },
    {
      "id": 748,
      "outputModuleId": 2,
      "outputId": 0,
      "inputModuleId": 1,
      "inputId": 0,
      "color": "#0986ad"
    },
    {
      "id": 749,
      "outputModuleId": 2,
      "outputId": 0,
      "inputModuleId": 1,
      "inputId": 1,
      "color": "#c9b70e"
    },
    {
      "id": 751,
      "outputModuleId": 5,
      "outputId": 1,
      "inputModuleId": 6,
      "inputId": 4,
      "color": "#c9b70e"
    },
    {
      "id": 754,
      "outputModuleId": 2,
      "outputId": 1,
      "inputModuleId": 7,
      "inputId": 0,
      "color": "#c9b70e"
    },
    {
      "id": 755,
      "outputModuleId": 5,
      "outputId": 6,
      "inputModuleId": 6,
      "inputId": 5,
      "color": "#c91847"
    },
    {
      "id": 756,
      "outputModuleId": 5,
      "outputId": 6,
      "inputModuleId": 120,
      "inputId": 2,
      "color": "#0986ad"
    },
    {
      "id": 757,
      "outputModuleId": 3,
      "outputId": 2,
      "inputModuleId": 120,
      "inputId": 4,
      "color": "#c9b70e"
    },
    {
      "id": 747,
      "outputModuleId": 120,
      "outputId": 1,
      "inputModuleId": 4,
      "inputId": 3,
      "color": "#0c8e15"
    },
    {
      "id": 752,
      "outputModuleId": 5,
      "outputId": 1,
      "inputModuleId": 2,
      "inputId": 5,
      "color": "#0c8e15"
    },
    {
      "id": 758,
      "outputModuleId": 120,
      "outputId": 0,
      "inputModuleId": 121,
      "inputId": 3,
      "color": "#0c8e15"
    },
    {
      "id": 760,
      "outputModuleId": 5,
      "outputId": 1,
      "inputModuleId": 2,
      "inputId": 6,
      "color": "#0986ad"
    },
    {
      "id": 761,
      "outputModuleId": 6,
      "outputId": 0,
      "inputModuleId": 4,
      "inputId": 0,
      "color": "#c9b70e"
    },
    {
      "id": 759,
      "outputModuleId": 121,
      "outputId": 1,
      "inputModuleId": 122,
      "inputId": 10,
      "color": "#c91847"
    },
    {
      "id": 753,
      "outputModuleId": 4,
      "outputId": 1,
      "inputModuleId": 122,
      "inputId": 9,
      "color": "#0986ad"
    },
    {
      "id": 762,
      "outputModuleId": 6,
      "outputId": 0,
      "inputModuleId": 121,
      "inputId": 0,
      "color": "#0c8e15"
    },
    {
      "id": 763,
      "outputModuleId": 122,
      "outputId": 0,
      "inputModuleId": 2,
      "inputId": 1,
      "color": "#c91847"
    },
    {
      "id": 764,
      "outputModuleId": 122,
      "outputId": 1,
      "inputModuleId": 2,
      "inputId": 2,
      "color": "#0986ad"
    },
    {
      "id": 765,
      "outputModuleId": 5,
      "outputId": 6,
      "inputModuleId": 122,
      "inputId": 1,
      "color": "#c9b70e"
    },
    {
      "id": 766,
      "outputModuleId": 2,
      "outputId": 2,
      "inputModuleId": 7,
      "inputId": 1,
      "color": "#0c8e15"
    },
    {
      "id": 767,
      "outputModuleId": 5,
      "outputId": 0,
      "inputModuleId": 122,
      "inputId": 4,
      "color": "#c91847"
    }
  ]
}