{
  "version": "0.6.2b",
  "modules": [
    {
      "plugin": "Befaco",
      "version": "0.6.0",
      "model": "Rampage",
      "params": [
        {
          "paramId": 0,
          "value": 0.0
        },
        {
          "paramId": 2,
          "value": -0.476999968
        },
        {
          "paramId": 4,
          "value": 0.0
        },
        {
          "paramId": 6,
          "value": 0.186000004
        },
        {
          "paramId": 8,
          "value": 0.225000083
        },
        {
          "paramId": 10,
          "value": 1.0
        },
        {
          "paramId": 1,
          "value": 0.0
        },
        {
          "paramId": 3,
          "value": 0.0
        },
        {
          "paramId": 5,
          "value": 0.0
        },
        {
          "paramId": 7,
          "value": 0.254999965
        },
        {
          "paramId": 9,
          "value": 0.29399994
        },
        {
          "paramId": 11,
          "value": 1.0
        },
        {
          "paramId": 12,
          "value": 0.5
        }
      ],
      "pos": [
        65,
        1
      ]
    },
    {
      "plugin": "Befaco",
      "version": "0.6.0",
      "model": "DualAtenuverter",
      "params": [
        {
          "paramId": 0,
          "value": 0.0360002257
        },
        {
          "paramId": 1,
          "value": 1.91999984
        },
        {
          "paramId": 2,
          "value": -0.0089999754
        },
        {
          "paramId": 3,
          "value": -5.58000374
        }
      ],
      "pos": [
        32,
        0
      ]
    },
    {
      "plugin": "AudibleInstruments",
      "version": "0.6.0",
      "model": "Branches",
      "params": [
        {
          "paramId": 0,
          "value": 0.0644999892
        },
        {
          "paramId": 2,
          "value": 0.0
        },
        {
          "paramId": 1,
          "value": 0.0989999995
        },
        {
          "paramId": 3,
          "value": 0.0
        }
      ],
      "pos": [
        37,
        0
      ]
    },
    {
      "plugin": "AudibleInstruments",
      "version": "0.6.0",
      "model": "Veils",
      "params": [
        {
          "paramId": 0,
          "value": 0.56799984
        },
        {
          "paramId": 1,
          "value": 0.571500361
        },
        {
          "paramId": 2,
          "value": 0.374999911
        },
        {
          "paramId": 3,
          "value": 1.0
        },
        {
          "paramId": 4,
          "value": 1.0
        },
        {
          "paramId": 5,
          "value": 0.228999808
        },
        {
          "paramId": 6,
          "value": 0.138999909
        },
        {
          "paramId": 7,
          "value": 0.314499974
        }
      ],
      "pos": [
        44,
        1
      ]
    },
    {
      "plugin": "AudibleInstruments",
      "version": "0.6.0",
      "model": "Kinks",
      "params": [],
      "pos": [
        28,
        0
      ]
    },
    {
      "plugin": "AudibleInstruments",
      "version": "0.6.0",
      "model": "Kinks",
      "params": [],
      "pos": [
        24,
        0
      ]
    },
    {
      "plugin": "AudibleInstruments",
      "version": "0.6.0",
      "model": "Kinks",
      "params": [],
      "pos": [
        43,
        0
      ]
    },
    {
      "plugin": "Befaco",
      "version": "0.6.0",
      "model": "DualAtenuverter",
      "params": [
        {
          "paramId": 0,
          "value": 0.0
        },
        {
          "paramId": 1,
          "value": 0.0
        },
        {
          "paramId": 2,
          "value": 0.433000118
        },
        {
          "paramId": 3,
          "value": 0.200006306
        }
      ],
      "pos": [
        47,
        0
      ]
    },
    {
      "plugin": "ML_modules",
      "version": "0.6.2",
      "model": "Quantum",
      "params": [
        {
          "paramId": 0,
          "value": 0.0
        },
        {
          "paramId": 1,
          "value": 0.0
        },
        {
          "paramId": 2,
          "value": 0.0
        },
        {
          "paramId": 3,
          "value": 0.0
        },
        {
          "paramId": 4,
          "value": 0.0
        },
        {
          "paramId": 5,
          "value": 0.0
        },
        {
          "paramId": 6,
          "value": 0.0
        },
        {
          "paramId": 7,
          "value": 0.0
        },
        {
          "paramId": 8,
          "value": 0.0
        },
        {
          "paramId": 9,
          "value": 0.0
        },
        {
          "paramId": 10,
          "value": 0.0
        },
        {
          "paramId": 11,
          "value": 0.0
        }
      ],
      "data": {
        "scale": [
          1,
          0,
          0,
          1,
          1,
          1,
          0,
          1,
          0,
          1,
          1,
          0
        ],
        "mode": 0
      },
      "pos": [
        52,
        0
      ]
    },
    {
      "plugin": "Core",
      "version": "0.6.2b",
      "model": "AudioInterface",
      "params": [],
      "data": {
        "audio": {
          "driver": 5,
          "deviceName": "Apple Inc.: Built-in Output",
          "offset": 0,
          "maxChannels": 8,
          "sampleRate": 44100,
          "blockSize": 256
        }
      },
      "pos": [
        0,
        1
      ]
    },
    {
      "plugin": "Befaco",
      "version": "0.6.0",
      "model": "EvenVCO",
      "params": [
        {
          "paramId": 0,
          "value": -5.0
        },
        {
          "paramId": 1,
          "value": -5.41799736
        },
        {
          "paramId": 2,
          "value": -1.0
        }
      ],
      "pos": [
        76,
        0
      ]
    },
    {
      "plugin": "ML_modules",
      "version": "0.6.2",
      "model": "SeqSwitch",
      "params": [
        {
          "paramId": 0,
          "value": 8.0
        },
        {
          "paramId": 1,
          "value": 0.0
        },
        {
          "paramId": 2,
          "value": 0.0
        },
        {
          "paramId": 3,
          "value": 0.0
        },
        {
          "paramId": 4,
          "value": 0.0
        },
        {
          "paramId": 5,
          "value": 0.0
        },
        {
          "paramId": 6,
          "value": 0.0
        },
        {
          "paramId": 7,
          "value": 0.0
        },
        {
          "paramId": 8,
          "value": 0.0
        }
      ],
      "data": {
        "inputRange": 0
      },
      "pos": [
        68,
        0
      ]
    },
    {
      "plugin": "ML_modules",
      "version": "0.6.2",
      "model": "SeqSwitch2",
      "params": [
        {
          "paramId": 0,
          "value": 8.0
        },
        {
          "paramId": 1,
          "value": 0.0
        },
        {
          "paramId": 2,
          "value": 0.0
        },
        {
          "paramId": 3,
          "value": 0.0
        },
        {
          "paramId": 4,
          "value": 0.0
        },
        {
          "paramId": 5,
          "value": 0.0
        },
        {
          "paramId": 6,
          "value": 0.0
        },
        {
          "paramId": 7,
          "value": 0.0
        },
        {
          "paramId": 8,
          "value": 0.0
        }
      ],
      "data": {
        "outMode": 0,
        "inputRange": 0
      },
      "pos": [
        60,
        0
      ]
    },
    {
      "plugin": "Autinn",
      "version": "0.6.5",
      "model": "Vibrato",
      "params": [
        {
          "paramId": 0,
          "value": 1.0
        },
        {
          "paramId": 1,
          "value": 0.00100000005
        },
        {
          "paramId": 2,
          "value": 1.0
        },
        {
          "paramId": 4,
          "value": 0.0
        },
        {
          "paramId": 3,
          "value": 0.0
        },
        {
          "paramId": 5,
          "value": 0.0
        }
      ],
      "pos": [
        56,
        1
      ]
    },
    {
      "plugin": "Core",
      "version": "0.6.2b",
      "model": "MIDIToCVInterface",
      "params": [],
      "data": {
        "divisions": [
          24,
          6
        ],
        "midi": {
          "driver": 1,
          "deviceName": "USB Uno MIDI Interface",
          "channel": -1
        }
      },
      "pos": [
        16,
        0
      ]
    },
    {
      "plugin": "Befaco",
      "version": "0.6.0",
      "model": "Mixer",
      "params": [
        {
          "paramId": 0,
          "value": 0.505499899
        },
        {
          "paramId": 1,
          "value": 0.508499861
        },
        {
          "paramId": 2,
          "value": 0.49300006
        },
        {
          "paramId": 3,
          "value": 0.499500275
        }
      ],
      "pos": [
        39,
        1
      ]
    },
    {
      "plugin": "JW-Modules",
      "version": "0.6.2",
      "model": "Quantizer",
      "params": [
        {
          "paramId": 0,
          "value": 7.0
        },
        {
          "paramId": 1,
          "value": 9.0
        }
      ],
      "data": {},
      "pos": [
        31,
        1
      ]
    },
    {
      "plugin": "JW-Modules",
      "version": "0.6.2",
      "model": "Quantizer",
      "params": [
        {
          "paramId": 0,
          "value": 7.0
        },
        {
          "paramId": 1,
          "value": 9.0
        }
      ],
      "data": {},
      "pos": [
        35,
        1
      ]
    },
    {
      "plugin": "Bogaudio",
      "version": "0.6.7",
      "model": "Bogaudio-VCO",
      "params": [
        {
          "paramId": 0,
          "value": -3.0
        },
        {
          "paramId": 1,
          "value": 0.207000226
        },
        {
          "paramId": 2,
          "value": 0.0
        },
        {
          "paramId": 3,
          "value": 0.0180000123
        },
        {
          "paramId": 4,
          "value": 0.0
        },
        {
          "paramId": 5,
          "value": 0.0
        }
      ],
      "pos": [
        84,
        0
      ]
    },
    {
      "plugin": "Autinn",
      "version": "0.6.5",
      "model": "Rails",
      "params": [],
      "pos": [
        83,
        1
      ]
    },
    {
      "plugin": "SonusModular",
      "version": "0.6.1",
      "model": "Deathcrush",
      "params": [
        {
          "paramId": 0,
          "value": 0.0
        },
        {
          "paramId": 1,
          "value": 0.826499999
        },
        {
          "paramId": 2,
          "value": 5.55399895
        }
      ],
      "pos": [
        25,
        1
      ]
    },
    {
      "plugin": "Befaco",
      "version": "0.6.0",
      "model": "SpringReverb",
      "params": [
        {
          "paramId": 0,
          "value": 0.273500293
        },
        {
          "paramId": 1,
          "value": 0.390000135
        },
        {
          "paramId": 2,
          "value": 0.252000362
        },
        {
          "paramId": 3,
          "value": 0.354499459
        }
      ],
      "pos": [
        17,
        1
      ]
    },
    {
      "plugin": "AS",
      "version": "0.6.9",
      "model": "KillGate",
      "params": [
        {
          "paramId": 0,
          "value": 0.0
        },
        {
          "paramId": 1,
          "value": 1.0
        },
        {
          "paramId": 2,
          "value": 0.0
        },
        {
          "paramId": 3,
          "value": 1.0
        }
      ],
      "pos": [
        10,
        1
      ]
    },
    {
      "plugin": "Core",
      "version": "0.6.2b",
      "model": "MIDIToCVInterface",
      "params": [],
      "data": {
        "divisions": [
          24,
          6
        ],
        "midi": {
          "driver": 1,
          "deviceName": "IAC Driver Bus 1",
          "channel": -1
        }
      },
      "pos": [
        0,
        0
      ]
    },
    {
      "plugin": "Core",
      "version": "0.6.2b",
      "model": "MIDIToCVInterface",
      "params": [],
      "data": {
        "divisions": [
          24,
          6
        ],
        "midi": {
          "driver": 1,
          "deviceName": "IAC Driver Bus 3",
          "channel": -1
        }
      },
      "pos": [
        8,
        0
      ]
    },
    {
      "plugin": "JW-Modules",
      "version": "0.6.2",
      "model": "Quantizer",
      "params": [
        {
          "paramId": 0,
          "value": 7.0
        },
        {
          "paramId": 1,
          "value": 9.0
        }
      ],
      "data": {},
      "pos": [
        88,
        1
      ]
    }
  ],
  "wires": [
    {
      "color": "#c91847",
      "outputModuleId": 4,
      "outputId": 6,
      "inputModuleId": 1,
      "inputId": 1
    },
    {
      "color": "#0c8e15",
      "outputModuleId": 5,
      "outputId": 6,
      "inputModuleId": 1,
      "inputId": 0
    },
    {
      "color": "#0986ad",
      "outputModuleId": 1,
      "outputId": 1,
      "inputModuleId": 0,
      "inputId": 6
    },
    {
      "color": "#c9b70e",
      "outputModuleId": 1,
      "outputId": 0,
      "inputModuleId": 0,
      "inputId": 4
    },
    {
      "color": "#0c8e15",
      "outputModuleId": 2,
      "outputId": 0,
      "inputModuleId": 6,
      "inputId": 4
    },
    {
      "color": "#0986ad",
      "outputModuleId": 6,
      "outputId": 6,
      "inputModuleId": 7,
      "inputId": 1
    },
    {
      "color": "#c9b70e",
      "outputModuleId": 7,
      "outputId": 1,
      "inputModuleId": 8,
      "inputId": 0
    },
    {
      "color": "#0986ad",
      "outputModuleId": 8,
      "outputId": 0,
      "inputModuleId": 12,
      "inputId": 0
    },
    {
      "color": "#c9b70e",
      "outputModuleId": 10,
      "outputId": 4,
      "inputModuleId": 13,
      "inputId": 0
    },
    {
      "color": "#c91847",
      "outputModuleId": 3,
      "outputId": 0,
      "inputModuleId": 15,
      "inputId": 0
    },
    {
      "color": "#0986ad",
      "outputModuleId": 12,
      "outputId": 0,
      "inputModuleId": 11,
      "inputId": 0
    },
    {
      "color": "#c9b70e",
      "outputModuleId": 12,
      "outputId": 4,
      "inputModuleId": 11,
      "inputId": 4
    },
    {
      "color": "#c91847",
      "outputModuleId": 12,
      "outputId": 1,
      "inputModuleId": 11,
      "inputId": 1
    },
    {
      "color": "#0c8e15",
      "outputModuleId": 12,
      "outputId": 5,
      "inputModuleId": 11,
      "inputId": 5
    },
    {
      "color": "#0986ad",
      "outputModuleId": 12,
      "outputId": 2,
      "inputModuleId": 11,
      "inputId": 2
    },
    {
      "color": "#c9b70e",
      "outputModuleId": 12,
      "outputId": 6,
      "inputModuleId": 11,
      "inputId": 6
    },
    {
      "color": "#c91847",
      "outputModuleId": 12,
      "outputId": 3,
      "inputModuleId": 11,
      "inputId": 3
    },
    {
      "color": "#0c8e15",
      "outputModuleId": 12,
      "outputId": 7,
      "inputModuleId": 11,
      "inputId": 7
    },
    {
      "color": "#c91847",
      "outputModuleId": 11,
      "outputId": 0,
      "inputModuleId": 10,
      "inputId": 2
    },
    {
      "color": "#0986ad",
      "outputModuleId": 13,
      "outputId": 0,
      "inputModuleId": 3,
      "inputId": 0
    },
    {
      "color": "#c91847",
      "outputModuleId": 14,
      "outputId": 0,
      "inputModuleId": 5,
      "inputId": 4
    },
    {
      "color": "#0c8e15",
      "outputModuleId": 14,
      "outputId": 0,
      "inputModuleId": 4,
      "inputId": 4
    },
    {
      "color": "#0986ad",
      "outputModuleId": 14,
      "outputId": 0,
      "inputModuleId": 2,
      "inputId": 0
    },
    {
      "color": "#c9b70e",
      "outputModuleId": 1,
      "outputId": 1,
      "inputModuleId": 10,
      "inputId": 3
    },
    {
      "color": "#c91847",
      "outputModuleId": 0,
      "outputId": 6,
      "inputModuleId": 3,
      "inputId": 1
    },
    {
      "color": "#0c8e15",
      "outputModuleId": 10,
      "outputId": 2,
      "inputModuleId": 0,
      "inputId": 0
    },
    {
      "color": "#0986ad",
      "outputModuleId": 14,
      "outputId": 0,
      "inputModuleId": 2,
      "inputId": 1
    },
    {
      "color": "#c91847",
      "outputModuleId": 14,
      "outputId": 1,
      "inputModuleId": 0,
      "inputId": 2
    },
    {
      "color": "#0986ad",
      "outputModuleId": 13,
      "outputId": 0,
      "inputModuleId": 13,
      "inputId": 2
    },
    {
      "color": "#c9b70e",
      "outputModuleId": 14,
      "outputId": 1,
      "inputModuleId": 3,
      "inputId": 4
    },
    {
      "color": "#c91847",
      "outputModuleId": 3,
      "outputId": 1,
      "inputModuleId": 15,
      "inputId": 1
    },
    {
      "color": "#0c8e15",
      "outputModuleId": 14,
      "outputId": 1,
      "inputModuleId": 3,
      "inputId": 5
    },
    {
      "color": "#c91847",
      "outputModuleId": 3,
      "outputId": 2,
      "inputModuleId": 15,
      "inputId": 2
    },
    {
      "color": "#0c8e15",
      "outputModuleId": 14,
      "outputId": 1,
      "inputModuleId": 3,
      "inputId": 6
    },
    {
      "color": "#0986ad",
      "outputModuleId": 15,
      "outputId": 0,
      "inputModuleId": 16,
      "inputId": 2
    },
    {
      "color": "#c9b70e",
      "outputModuleId": 15,
      "outputId": 1,
      "inputModuleId": 17,
      "inputId": 2
    },
    {
      "color": "#0c8e15",
      "outputModuleId": 10,
      "outputId": 0,
      "inputModuleId": 3,
      "inputId": 2
    },
    {
      "color": "#0986ad",
      "outputModuleId": 3,
      "outputId": 3,
      "inputModuleId": 15,
      "inputId": 3
    },
    {
      "color": "#c9b70e",
      "outputModuleId": 14,
      "outputId": 1,
      "inputModuleId": 3,
      "inputId": 7
    },
    {
      "color": "#c9b70e",
      "outputModuleId": 18,
      "outputId": 1,
      "inputModuleId": 25,
      "inputId": 2
    },
    {
      "color": "#c91847",
      "outputModuleId": 19,
      "outputId": 1,
      "inputModuleId": 3,
      "inputId": 3
    },
    {
      "color": "#0c8e15",
      "outputModuleId": 0,
      "outputId": 2,
      "inputModuleId": 18,
      "inputId": 3
    },
    {
      "color": "#0c8e15",
      "outputModuleId": 16,
      "outputId": 0,
      "inputModuleId": 20,
      "inputId": 0
    },
    {
      "color": "#0986ad",
      "outputModuleId": 20,
      "outputId": 0,
      "inputModuleId": 21,
      "inputId": 2
    },
    {
      "color": "#c9b70e",
      "outputModuleId": 21,
      "outputId": 0,
      "inputModuleId": 22,
      "inputId": 3
    },
    {
      "color": "#c91847",
      "outputModuleId": 21,
      "outputId": 0,
      "inputModuleId": 22,
      "inputId": 0
    },
    {
      "color": "#0c8e15",
      "outputModuleId": 17,
      "outputId": 0,
      "inputModuleId": 21,
      "inputId": 3
    },
    {
      "color": "#0986ad",
      "outputModuleId": 23,
      "outputId": 0,
      "inputModuleId": 22,
      "inputId": 2
    },
    {
      "color": "#c9b70e",
      "outputModuleId": 23,
      "outputId": 0,
      "inputModuleId": 22,
      "inputId": 5
    },
    {
      "color": "#c91847",
      "outputModuleId": 22,
      "outputId": 0,
      "inputModuleId": 9,
      "inputId": 1
    },
    {
      "color": "#0c8e15",
      "outputModuleId": 22,
      "outputId": 1,
      "inputModuleId": 9,
      "inputId": 0
    },
    {
      "color": "#0986ad",
      "outputModuleId": 24,
      "outputId": 0,
      "inputModuleId": 22,
      "inputId": 1
    },
    {
      "color": "#c9b70e",
      "outputModuleId": 24,
      "outputId": 0,
      "inputModuleId": 22,
      "inputId": 4
    },
    {
      "color": "#c91847",
      "outputModuleId": 25,
      "outputId": 0,
      "inputModuleId": 19,
      "inputId": 0
    },
    {
      "color": "#0986ad",
      "outputModuleId": 0,
      "outputId": 4,
      "inputModuleId": 12,
      "inputId": 5
    },
    {
      "color": "#c9b70e",
      "outputModuleId": 0,
      "outputId": 4,
      "inputModuleId": 11,
      "inputId": 8
    },
    {
      "color": "#c91847",
      "outputModuleId": 14,
      "outputId": 0,
      "inputModuleId": 10,
      "inputId": 0
    },
    {
      "color": "#0c8e15",
      "outputModuleId": 14,
      "outputId": 1,
      "inputModuleId": 8,
      "inputId": 3
    },
    {
      "color": "#0986ad",
      "outputModuleId": 14,
      "outputId": 0,
      "inputModuleId": 18,
      "inputId": 0
    }
  ]
}