{
  "version": "1.1.6",
  "modules": [
    {
      "id": 1,
      "plugin": "Core",
      "version": "1.1.6",
      "model": "AudioInterface",
      "params": [],
      "leftModuleId": 2,
      "data": {
        "audio": {
          "driver": 5,
          "offset": 0,
          "maxChannels": 8,
          "sampleRate": 44100,
          "blockSize": 256
        }
      },
      "pos": [
        59,
        0
      ]
    },
    {
      "id": 2,
      "plugin": "Fundamental",
      "version": "1.4.0",
      "model": "VCMixer",
      "params": [
        {
          "id": 0,
          "value": 0.321999937
        },
        {
          "id": 1,
          "value": 1.0
        },
        {
          "id": 2,
          "value": 1.41421354
        },
        {
          "id": 3,
          "value": 1.41421354
        },
        {
          "id": 4,
          "value": 0.524824321
        }
      ],
      "rightModuleId": 1,
      "pos": [
        49,
        0
      ]
    },
    {
      "id": 3,
      "plugin": "Fundamental",
      "version": "1.4.0",
      "model": "VCO",
      "params": [
        {
          "id": 0,
          "value": 1.0
        },
        {
          "id": 1,
          "value": 1.0
        },
        {
          "id": 2,
          "value": -5.77799416
        },
        {
          "id": 3,
          "value": 0.0
        },
        {
          "id": 4,
          "value": 0.0
        },
        {
          "id": 5,
          "value": 0.5
        },
        {
          "id": 6,
          "value": 0.0
        }
      ],
      "leftModuleId": 21,
      "rightModuleId": 4,
      "pos": [
        1,
        1
      ]
    },
    {
      "id": 4,
      "plugin": "Fundamental",
      "version": "1.4.0",
      "model": "VCF",
      "params": [
        {
          "id": 0,
          "value": 0.00299999863
        },
        {
          "id": 1,
          "value": 0.5
        },
        {
          "id": 2,
          "value": 0.729000032
        },
        {
          "id": 3,
          "value": 0.804999948
        },
        {
          "id": 4,
          "value": 0.262500018
        }
      ],
      "leftModuleId": 3,
      "rightModuleId": 22,
      "pos": [
        11,
        1
      ]
    },
    {
      "id": 5,
      "plugin": "Core",
      "version": "1.1.6",
      "model": "MIDIToCVInterface",
      "params": [],
      "leftModuleId": 13,
      "rightModuleId": 24,
      "data": {
        "channels": 1,
        "polyMode": 0,
        "clockDivision": 24,
        "lastPitch": 8192,
        "lastMod": 0,
        "midi": {
          "driver": 1,
          "channel": -1
        }
      },
      "pos": [
        10,
        0
      ]
    },
    {
      "id": 6,
      "plugin": "Fundamental",
      "version": "1.4.0",
      "model": "ADSR",
      "params": [
        {
          "id": 0,
          "value": 0.258000046
        },
        {
          "id": 1,
          "value": 0.743000448
        },
        {
          "id": 2,
          "value": 0.5
        },
        {
          "id": 3,
          "value": 0.576500058
        }
      ],
      "leftModuleId": 22,
      "rightModuleId": 20,
      "pos": [
        20,
        1
      ]
    },
    {
      "id": 7,
      "plugin": "Fundamental",
      "version": "1.4.0",
      "model": "Scope",
      "params": [
        {
          "id": 0,
          "value": 0.0
        },
        {
          "id": 1,
          "value": 0.0
        },
        {
          "id": 2,
          "value": 0.0
        },
        {
          "id": 3,
          "value": 0.0
        },
        {
          "id": 4,
          "value": 14.0
        },
        {
          "id": 5,
          "value": 0.0
        },
        {
          "id": 6,
          "value": 0.0
        },
        {
          "id": 7,
          "value": 0.0
        }
      ],
      "leftModuleId": 19,
      "rightModuleId": 124,
      "data": {
        "lissajous": 0,
        "external": 0
      },
      "pos": [
        44,
        1
      ]
    },
    {
      "id": 11,
      "plugin": "Befaco",
      "version": "1.0.1",
      "model": "ABC",
      "params": [
        {
          "id": 0,
          "value": 0.657000005
        },
        {
          "id": 1,
          "value": 0.968999982
        },
        {
          "id": 2,
          "value": 0.426000029
        },
        {
          "id": 3,
          "value": 0.599999964
        }
      ],
      "rightModuleId": 16,
      "pos": [
        0,
        2
      ]
    },
    {
      "id": 12,
      "plugin": "Fundamental",
      "version": "1.4.0",
      "model": "VCF",
      "params": [
        {
          "id": 0,
          "value": 0.127499998
        },
        {
          "id": 1,
          "value": 0.5
        },
        {
          "id": 2,
          "value": 0.729000032
        },
        {
          "id": 3,
          "value": 0.804999948
        },
        {
          "id": 4,
          "value": 0.262500018
        }
      ],
      "leftModuleId": 16,
      "rightModuleId": 17,
      "pos": [
        10,
        2
      ]
    },
    {
      "id": 13,
      "plugin": "Core",
      "version": "1.1.6",
      "model": "MIDITriggerToCVInterface",
      "params": [],
      "rightModuleId": 5,
      "data": {
        "notes": [
          60,
          62,
          50,
          51,
          44,
          45,
          46,
          47,
          40,
          41,
          42,
          43,
          36,
          37,
          38,
          39
        ],
        "velocity": false,
        "midi": {
          "driver": 1,
          "channel": -1
        }
      },
      "pos": [
        0,
        0
      ]
    },
    {
      "id": 16,
      "plugin": "JW-Modules",
      "version": "1.0.11",
      "model": "SimpleClock",
      "params": [
        {
          "id": 0,
          "value": 1.0600003
        },
        {
          "id": 1,
          "value": 0.0
        },
        {
          "id": 2,
          "value": -2.0
        },
        {
          "id": 3,
          "value": 0.0
        }
      ],
      "leftModuleId": 11,
      "rightModuleId": 12,
      "data": {
        "running": true
      },
      "pos": [
        6,
        2
      ]
    },
    {
      "id": 17,
      "plugin": "voxglitch",
      "version": "1.12.0",
      "model": "wavbank",
      "params": [
        {
          "id": 0,
          "value": 0.286499977
        },
        {
          "id": 1,
          "value": 0.189000025
        },
        {
          "id": 2,
          "value": 1.0
        }
      ],
      "leftModuleId": 12,
      "rightModuleId": 18,
      "data": {
        "path": "/Users/bseverns/Desktop"
      },
      "pos": [
        18,
        2
      ]
    },
    {
      "id": 18,
      "plugin": "Bogaudio",
      "version": "1.1.31",
      "model": "Bogaudio-EightFO",
      "params": [
        {
          "id": 0,
          "value": -3.39300036
        },
        {
          "id": 1,
          "value": 2.0
        },
        {
          "id": 2,
          "value": 0.0
        },
        {
          "id": 3,
          "value": 0.0
        },
        {
          "id": 4,
          "value": 0.0
        },
        {
          "id": 5,
          "value": 0.0
        },
        {
          "id": 6,
          "value": 0.0
        },
        {
          "id": 7,
          "value": 0.0
        },
        {
          "id": 8,
          "value": 0.0
        },
        {
          "id": 9,
          "value": 0.0
        },
        {
          "id": 10,
          "value": 0.0
        },
        {
          "id": 11,
          "value": 0.0
        },
        {
          "id": 12,
          "value": 0.0
        },
        {
          "id": 13,
          "value": 1.0
        }
      ],
      "leftModuleId": 17,
      "rightModuleId": 23,
      "pos": [
        27,
        2
      ]
    },
    {
      "id": 19,
      "plugin": "Bidoo",
      "version": "1.1.21",
      "model": "vOId",
      "params": [],
      "leftModuleId": 20,
      "rightModuleId": 7,
      "pos": [
        32,
        1
      ]
    },
    {
      "id": 20,
      "plugin": "ModularFungi",
      "version": "1.0.1",
      "model": "Blank4HP",
      "params": [],
      "leftModuleId": 6,
      "rightModuleId": 19,
      "style": 0.0,
      "pos": [
        28,
        1
      ]
    },
    {
      "id": 21,
      "plugin": "ModularFungi",
      "version": "1.0.1",
      "model": "Blank1HP",
      "params": [],
      "rightModuleId": 3,
      "style": 0.0,
      "pos": [
        0,
        1
      ]
    },
    {
      "id": 22,
      "plugin": "ModularFungi",
      "version": "1.0.1",
      "model": "Blank1HP",
      "params": [],
      "leftModuleId": 4,
      "rightModuleId": 6,
      "style": 0.0,
      "pos": [
        19,
        1
      ]
    },
    {
      "id": 23,
      "plugin": "LOGinstruments",
      "version": "1.0.1",
      "model": "Velvet",
      "params": [
        {
          "id": 0,
          "value": 0.457999974
        },
        {
          "id": 1,
          "value": 1.0
        }
      ],
      "leftModuleId": 18,
      "pos": [
        44,
        2
      ]
    },
    {
      "id": 24,
      "plugin": "Bogaudio",
      "version": "1.1.31",
      "model": "Bogaudio-Pgmr",
      "params": [
        {
          "id": 0,
          "value": 0.0
        },
        {
          "id": 1,
          "value": 1.0
        },
        {
          "id": 2,
          "value": 0.540097713
        },
        {
          "id": 3,
          "value": -0.412831903
        },
        {
          "id": 4,
          "value": 0.0713412762
        },
        {
          "id": 5,
          "value": -0.503686666
        },
        {
          "id": 6,
          "value": 0.0
        },
        {
          "id": 7,
          "value": 0.715363264
        },
        {
          "id": 8,
          "value": 0.251581192
        },
        {
          "id": 9,
          "value": 0.322546363
        },
        {
          "id": 10,
          "value": -0.515777349
        },
        {
          "id": 11,
          "value": 0.0
        },
        {
          "id": 12,
          "value": -0.64119935
        },
        {
          "id": 13,
          "value": -0.401084661
        },
        {
          "id": 14,
          "value": -0.737232566
        },
        {
          "id": 15,
          "value": 0.0617551804
        },
        {
          "id": 16,
          "value": 0.0
        },
        {
          "id": 17,
          "value": -0.0880427361
        },
        {
          "id": 18,
          "value": 0.224722505
        },
        {
          "id": 19,
          "value": -0.480816364
        },
        {
          "id": 20,
          "value": 0.765855312
        },
        {
          "id": 21,
          "value": 0.0
        }
      ],
      "leftModuleId": 5,
      "data": {
        "poly_input": 0,
        "select_on_clock": true,
        "triggered_select": false,
        "reverse_on_negative_clock": false,
        "range_offset": 0.0,
        "range_scale": 10.0,
        "SELECT_TRIGGERS": false
      },
      "pos": [
        18,
        0
      ]
    },
    {
      "id": 124,
      "plugin": "Fundamental",
      "version": "1.4.0",
      "model": "Scope",
      "params": [
        {
          "id": 0,
          "value": 0.0
        },
        {
          "id": 1,
          "value": 0.0
        },
        {
          "id": 2,
          "value": 0.0
        },
        {
          "id": 3,
          "value": 0.0
        },
        {
          "id": 4,
          "value": 14.0
        },
        {
          "id": 5,
          "value": 0.0
        },
        {
          "id": 6,
          "value": 0.0
        },
        {
          "id": 7,
          "value": 0.0
        }
      ],
      "leftModuleId": 7,
      "data": {
        "lissajous": 0,
        "external": 0
      },
      "pos": [
        57,
        1
      ]
    }
  ],
  "cables": [
    {
      "id": 21,
      "outputModuleId": 3,
      "outputId": 2,
      "inputModuleId": 4,
      "inputId": 3,
      "color": "#0c8e15"
    },
    {
      "id": 22,
      "outputModuleId": 2,
      "outputId": 0,
      "inputModuleId": 1,
      "inputId": 0,
      "color": "#0986ad"
    },
    {
      "id": 23,
      "outputModuleId": 2,
      "outputId": 0,
      "inputModuleId": 1,
      "inputId": 1,
      "color": "#c9b70e"
    },
    {
      "id": 24,
      "outputModuleId": 6,
      "outputId": 0,
      "inputModuleId": 4,
      "inputId": 0,
      "color": "#c91847"
    },
    {
      "id": 26,
      "outputModuleId": 6,
      "outputId": 0,
      "inputModuleId": 2,
      "inputId": 5,
      "color": "#0c8e15"
    },
    {
      "id": 27,
      "outputModuleId": 4,
      "outputId": 0,
      "inputModuleId": 2,
      "inputId": 1,
      "color": "#0986ad"
    },
    {
      "id": 28,
      "outputModuleId": 2,
      "outputId": 1,
      "inputModuleId": 7,
      "inputId": 0,
      "color": "#c9b70e"
    },
    {
      "id": 29,
      "outputModuleId": 5,
      "outputId": 6,
      "inputModuleId": 6,
      "inputId": 5,
      "color": "#c91847"
    },
    {
      "id": 39,
      "outputModuleId": 3,
      "outputId": 1,
      "inputModuleId": 11,
      "inputId": 0,
      "color": "#0986ad"
    },
    {
      "id": 40,
      "outputModuleId": 4,
      "outputId": 1,
      "inputModuleId": 11,
      "inputId": 1,
      "color": "#c9b70e"
    },
    {
      "id": 41,
      "outputModuleId": 3,
      "outputId": 3,
      "inputModuleId": 11,
      "inputId": 2,
      "color": "#0c8e15"
    },
    {
      "id": 42,
      "outputModuleId": 11,
      "outputId": 0,
      "inputModuleId": 12,
      "inputId": 3,
      "color": "#c91847"
    },
    {
      "id": 43,
      "outputModuleId": 12,
      "outputId": 0,
      "inputModuleId": 2,
      "inputId": 2,
      "color": "#0986ad"
    },
    {
      "id": 44,
      "outputModuleId": 6,
      "outputId": 0,
      "inputModuleId": 12,
      "inputId": 0,
      "color": "#c9b70e"
    },
    {
      "id": 45,
      "outputModuleId": 2,
      "outputId": 2,
      "inputModuleId": 7,
      "inputId": 1,
      "color": "#0c8e15"
    },
    {
      "id": 46,
      "outputModuleId": 6,
      "outputId": 0,
      "inputModuleId": 2,
      "inputId": 6,
      "color": "#c91847"
    },
    {
      "id": 47,
      "outputModuleId": 13,
      "outputId": 1,
      "inputModuleId": 6,
      "inputId": 4,
      "color": "#c91847"
    },
    {
      "id": 55,
      "outputModuleId": 17,
      "outputId": 0,
      "inputModuleId": 2,
      "inputId": 3,
      "color": "#0c8e15"
    },
    {
      "id": 59,
      "outputModuleId": 18,
      "outputId": 2,
      "inputModuleId": 17,
      "inputId": 1,
      "color": "#0c8e15"
    },
    {
      "id": 63,
      "outputModuleId": 13,
      "outputId": 0,
      "inputModuleId": 17,
      "inputId": 0,
      "color": "#c9b70e"
    },
    {
      "id": 64,
      "outputModuleId": 13,
      "outputId": 0,
      "inputModuleId": 2,
      "inputId": 7,
      "color": "#0c8e15"
    },
    {
      "id": 66,
      "outputModuleId": 18,
      "outputId": 5,
      "inputModuleId": 3,
      "inputId": 1,
      "color": "#0986ad"
    },
    {
      "id": 67,
      "outputModuleId": 18,
      "outputId": 7,
      "inputModuleId": 3,
      "inputId": 2,
      "color": "#c9b70e"
    },
    {
      "id": 68,
      "outputModuleId": 18,
      "outputId": 0,
      "inputModuleId": 4,
      "inputId": 1,
      "color": "#0c8e15"
    },
    {
      "id": 69,
      "outputModuleId": 18,
      "outputId": 3,
      "inputModuleId": 4,
      "inputId": 2,
      "color": "#c91847"
    },
    {
      "id": 70,
      "outputModuleId": 6,
      "outputId": 0,
      "inputModuleId": 17,
      "inputId": 2,
      "color": "#0986ad"
    },
    {
      "id": 73,
      "outputModuleId": 13,
      "outputId": 0,
      "inputModuleId": 2,
      "inputId": 8,
      "color": "#c9b70e"
    },
    {
      "id": 74,
      "outputModuleId": 18,
      "outputId": 4,
      "inputModuleId": 23,
      "inputId": 0,
      "color": "#0c8e15"
    },
    {
      "id": 20,
      "outputModuleId": 24,
      "outputId": 0,
      "inputModuleId": 3,
      "inputId": 0,
      "color": "#c91847"
    },
    {
      "id": 75,
      "outputModuleId": 5,
      "outputId": 6,
      "inputModuleId": 24,
      "inputId": 0,
      "color": "#c9b70e"
    },
    {
      "id": 76,
      "outputModuleId": 24,
      "outputId": 1,
      "inputModuleId": 11,
      "inputId": 3,
      "color": "#c91847"
    },
    {
      "id": 77,
      "outputModuleId": 24,
      "outputId": 2,
      "inputModuleId": 11,
      "inputId": 4,
      "color": "#0986ad"
    },
    {
      "id": 78,
      "outputModuleId": 24,
      "outputId": 3,
      "inputModuleId": 11,
      "inputId": 5,
      "color": "#c9b70e"
    },
    {
      "id": 79,
      "outputModuleId": 11,
      "outputId": 1,
      "inputModuleId": 18,
      "inputId": 9,
      "color": "#0c8e15"
    },
    {
      "id": 919,
      "outputModuleId": 2,
      "outputId": 3,
      "inputModuleId": 124,
      "inputId": 0,
      "color": "#0c8e15"
    },
    {
      "id": 920,
      "outputModuleId": 2,
      "outputId": 4,
      "inputModuleId": 124,
      "inputId": 1,
      "color": "#c91847"
    },
    {
      "id": 921,
      "outputModuleId": 17,
      "outputId": 1,
      "inputModuleId": 2,
      "inputId": 4,
      "color": "#0986ad"
    }
  ]
}