{
  "version": "0.6.2b",
  "modules": [
    {
      "plugin": "Bidoo",
      "version": "0.6.28",
      "model": "OUAIve",
      "params": [
        {
          "paramId": 1,
          "value": 0.0
        },
        {
          "paramId": 2,
          "value": 0.0
        },
        {
          "paramId": 0,
          "value": 6.14390564
        },
        {
          "paramId": 4,
          "value": 1.0
        },
        {
          "paramId": 3,
          "value": 0.839424193
        },
        {
          "paramId": 5,
          "value": 1.0
        }
      ],
      "data": {
        "lastPath": "/Volumes/workStation/::A\\\\/sound::art/T1.wav",
        "trigMode": 2,
        "readMode": 1
      },
      "pos": [
        36,
        0
      ]
    },
    {
      "plugin": "Core",
      "version": "0.6.2b",
      "model": "AudioInterface",
      "params": [],
      "data": {
        "audio": {
          "driver": 5,
          "deviceName": "Apple Inc.: Built-in Output",
          "offset": 0,
          "maxChannels": 8,
          "sampleRate": 44100,
          "blockSize": 256
        }
      },
      "pos": [
        26,
        0
      ]
    },
    {
      "plugin": "AmalgamatedHarmonics",
      "version": "0.6.4",
      "model": "Generative",
      "params": [
        {
          "paramId": 0,
          "value": 4.5010004
        },
        {
          "paramId": 1,
          "value": 0.0
        },
        {
          "paramId": 2,
          "value": 0.972499967
        },
        {
          "paramId": 3,
          "value": 0.5
        },
        {
          "paramId": 4,
          "value": 0.358500063
        },
        {
          "paramId": 5,
          "value": 1.0
        },
        {
          "paramId": 6,
          "value": 0.440999985
        },
        {
          "paramId": 7,
          "value": 1.38699973
        },
        {
          "paramId": 9,
          "value": 1.34800005
        },
        {
          "paramId": 8,
          "value": 1.60149992
        },
        {
          "paramId": 10,
          "value": 1.30150008
        },
        {
          "paramId": 11,
          "value": 0.450000048
        },
        {
          "paramId": 12,
          "value": 0.379500061
        },
        {
          "paramId": 13,
          "value": 0.38199991
        }
      ],
      "data": {
        "quantise": true,
        "offset": true
      },
      "pos": [
        45,
        0
      ]
    },
    {
      "plugin": "squinkylabs-plug1",
      "version": "0.6.14",
      "model": "squinkylabs-lfn",
      "params": [
        {
          "paramId": 5,
          "value": -4.59000063
        },
        {
          "paramId": 0,
          "value": 0.0
        },
        {
          "paramId": 1,
          "value": -1.73999989
        },
        {
          "paramId": 2,
          "value": 1.60499978
        },
        {
          "paramId": 3,
          "value": 0.0
        },
        {
          "paramId": 4,
          "value": -0.390000343
        },
        {
          "paramId": 6,
          "value": 0.0
        }
      ],
      "pos": [
        32,
        1
      ]
    },
    {
      "plugin": "Geodesics",
      "version": "0.6.6",
      "model": "Entropia",
      "params": [
        {
          "paramId": 5,
          "value": 0.970258772
        },
        {
          "paramId": 6,
          "value": 0.952701628
        },
        {
          "paramId": 7,
          "value": 0.0203656554
        },
        {
          "paramId": 8,
          "value": 0.978835583
        },
        {
          "paramId": 9,
          "value": 0.545722544
        },
        {
          "paramId": 10,
          "value": 0.0684138536
        },
        {
          "paramId": 11,
          "value": 0.240940452
        },
        {
          "paramId": 12,
          "value": 0.878466785
        },
        {
          "paramId": 13,
          "value": 0.413907528
        },
        {
          "paramId": 14,
          "value": 0.326493442
        },
        {
          "paramId": 15,
          "value": 0.988370836
        },
        {
          "paramId": 16,
          "value": 0.247265339
        },
        {
          "paramId": 17,
          "value": 0.400054038
        },
        {
          "paramId": 18,
          "value": 0.690457284
        },
        {
          "paramId": 19,
          "value": 0.366868317
        },
        {
          "paramId": 20,
          "value": 0.968696594
        },
        {
          "paramId": 21,
          "value": 0.335585892
        },
        {
          "paramId": 22,
          "value": 0.82264924
        },
        {
          "paramId": 23,
          "value": 0.741193831
        },
        {
          "paramId": 24,
          "value": 0.98906517
        },
        {
          "paramId": 25,
          "value": 0.68012464
        },
        {
          "paramId": 26,
          "value": 0.986086786
        },
        {
          "paramId": 27,
          "value": 0.540284157
        },
        {
          "paramId": 28,
          "value": 0.498962939
        },
        {
          "paramId": 4,
          "value": 0.0
        },
        {
          "paramId": 42,
          "value": 0.0
        },
        {
          "paramId": 34,
          "value": 0.0
        },
        {
          "paramId": 33,
          "value": 0.0
        },
        {
          "paramId": 31,
          "value": 0.0
        },
        {
          "paramId": 32,
          "value": 0.0
        },
        {
          "paramId": 29,
          "value": 0.0
        },
        {
          "paramId": 30,
          "value": 0.0
        },
        {
          "paramId": 41,
          "value": -0.485989392
        },
        {
          "paramId": 37,
          "value": 0.0
        },
        {
          "paramId": 39,
          "value": 0.0
        },
        {
          "paramId": 35,
          "value": 0.0
        },
        {
          "paramId": 43,
          "value": 0.0
        },
        {
          "paramId": 38,
          "value": 0.0
        },
        {
          "paramId": 40,
          "value": 0.0
        },
        {
          "paramId": 36,
          "value": 0.0
        },
        {
          "paramId": 44,
          "value": 0.0
        },
        {
          "paramId": 0,
          "value": 0.0
        },
        {
          "paramId": 2,
          "value": 0.0
        },
        {
          "paramId": 1,
          "value": 0.0
        },
        {
          "paramId": 3,
          "value": 0.0
        }
      ],
      "data": {
        "panelTheme": 0,
        "running": true,
        "resetOnRun": false,
        "length": 8,
        "quantize": 0,
        "audio": 0,
        "ranges0": 2,
        "ranges1": 0,
        "addMode": true,
        "sources0": 1,
        "sources1": 0,
        "stepIndex": 0,
        "pipeBlue": false,
        "randomCVs0": 0.0399297476,
        "randomCVs1": 0.0959315896,
        "clkSource": 2
      },
      "pos": [
        38,
        1
      ]
    },
    {
      "plugin": "SynthKit",
      "version": "0.6.2",
      "model": "Fibonacci Clock Divider",
      "params": [],
      "pos": [
        59,
        1
      ]
    },
    {
      "plugin": "squinkylabs-plug1",
      "version": "0.6.14",
      "model": "squinkylabs-lfn",
      "params": [
        {
          "paramId": 5,
          "value": -4.96999979
        },
        {
          "paramId": 0,
          "value": 0.0
        },
        {
          "paramId": 1,
          "value": 0.0
        },
        {
          "paramId": 2,
          "value": 0.0
        },
        {
          "paramId": 3,
          "value": 3.19500041
        },
        {
          "paramId": 4,
          "value": 0.0
        },
        {
          "paramId": 6,
          "value": 1.0
        }
      ],
      "pos": [
        26,
        1
      ]
    },
    {
      "plugin": "ModularFungi",
      "version": "0.6.2",
      "model": "Blank 1HP",
      "params": [],
      "style": 0.0,
      "pos": [
        61,
        0
      ]
    }
  ],
  "wires": [
    {
      "color": "#c91847",
      "outputModuleId": 0,
      "outputId": 0,
      "inputModuleId": 1,
      "inputId": 0
    },
    {
      "color": "#c91847",
      "outputModuleId": 0,
      "outputId": 1,
      "inputModuleId": 1,
      "inputId": 1
    },
    {
      "color": "#0986ad",
      "outputModuleId": 2,
      "outputId": 3,
      "inputModuleId": 3,
      "inputId": 1
    },
    {
      "color": "#c91847",
      "outputModuleId": 2,
      "outputId": 2,
      "inputModuleId": 3,
      "inputId": 4
    },
    {
      "color": "#c9b70e",
      "outputModuleId": 2,
      "outputId": 4,
      "inputModuleId": 4,
      "inputId": 9
    },
    {
      "color": "#c91847",
      "outputModuleId": 4,
      "outputId": 0,
      "inputModuleId": 3,
      "inputId": 3
    },
    {
      "color": "#0c8e15",
      "outputModuleId": 2,
      "outputId": 0,
      "inputModuleId": 4,
      "inputId": 6
    },
    {
      "color": "#c9b70e",
      "outputModuleId": 4,
      "outputId": 0,
      "inputModuleId": 0,
      "inputId": 5
    },
    {
      "color": "#0c8e15",
      "outputModuleId": 3,
      "outputId": 0,
      "inputModuleId": 0,
      "inputId": 3
    },
    {
      "color": "#c9b70e",
      "outputModuleId": 4,
      "outputId": 0,
      "inputModuleId": 5,
      "inputId": 0
    },
    {
      "color": "#c91847",
      "outputModuleId": 5,
      "outputId": 0,
      "inputModuleId": 3,
      "inputId": 2
    },
    {
      "color": "#0986ad",
      "outputModuleId": 6,
      "outputId": 0,
      "inputModuleId": 4,
      "inputId": 5
    },
    {
      "color": "#c9b70e",
      "outputModuleId": 5,
      "outputId": 2,
      "inputModuleId": 4,
      "inputId": 2
    },
    {
      "color": "#0c8e15",
      "outputModuleId": 2,
      "outputId": 1,
      "inputModuleId": 4,
      "inputId": 10
    },
    {
      "color": "#c9b70e",
      "outputModuleId": 4,
      "outputId": 0,
      "inputModuleId": 2,
      "inputId": 5
    },
    {
      "color": "#0c8e15",
      "outputModuleId": 2,
      "outputId": 0,
      "inputModuleId": 0,
      "inputId": 0
    },
    {
      "color": "#0986ad",
      "outputModuleId": 6,
      "outputId": 0,
      "inputModuleId": 0,
      "inputId": 2
    },
    {
      "color": "#c9b70e",
      "outputModuleId": 4,
      "outputId": 0,
      "inputModuleId": 0,
      "inputId": 1
    }
  ]
}