{
  "version": "1.1.6",
  "modules": [
    {
      "id": 1,
      "plugin": "Core",
      "version": "1.1.6",
      "model": "AudioInterface",
      "params": [],
      "leftModuleId": 2,
      "data": {
        "audio": {
          "driver": 5,
          "offset": 0,
          "maxChannels": 8,
          "sampleRate": 44100,
          "blockSize": 256
        }
      },
      "pos": [
        71,
        1
      ]
    },
    {
      "id": 2,
      "plugin": "Fundamental",
      "version": "1.4.0",
      "model": "VCMixer",
      "params": [
        {
          "id": 0,
          "value": 1.0
        },
        {
          "id": 1,
          "value": 0.575735927
        },
        {
          "id": 2,
          "value": 1.0
        },
        {
          "id": 3,
          "value": 1.0
        },
        {
          "id": 4,
          "value": 1.0
        }
      ],
      "rightModuleId": 1,
      "pos": [
        61,
        1
      ]
    },
    {
      "id": 4,
      "plugin": "Fundamental",
      "version": "1.4.0",
      "model": "VCF",
      "params": [
        {
          "id": 0,
          "value": 0.0
        },
        {
          "id": 1,
          "value": 0.5
        },
        {
          "id": 2,
          "value": 0.0
        },
        {
          "id": 3,
          "value": 1.0
        },
        {
          "id": 4,
          "value": 0.0
        }
      ],
      "leftModuleId": 5,
      "rightModuleId": 6,
      "pos": [
        8,
        1
      ]
    },
    {
      "id": 5,
      "plugin": "Core",
      "version": "1.1.6",
      "model": "MIDIToCVInterface",
      "params": [],
      "rightModuleId": 4,
      "data": {
        "channels": 1,
        "polyMode": 0,
        "clockDivision": 24,
        "lastPitch": 8192,
        "lastMod": 0,
        "midi": {
          "driver": -11,
          "deviceName": "QWERTY keyboard (US)",
          "channel": -1
        }
      },
      "pos": [
        0,
        1
      ]
    },
    {
      "id": 6,
      "plugin": "Fundamental",
      "version": "1.4.0",
      "model": "ADSR",
      "params": [
        {
          "id": 0,
          "value": 0.0
        },
        {
          "id": 1,
          "value": 0.664000034
        },
        {
          "id": 2,
          "value": 0.5
        },
        {
          "id": 3,
          "value": 0.0550000109
        }
      ],
      "leftModuleId": 4,
      "rightModuleId": 204,
      "pos": [
        16,
        1
      ]
    },
    {
      "id": 7,
      "plugin": "Fundamental",
      "version": "1.4.0",
      "model": "Scope",
      "params": [
        {
          "id": 0,
          "value": 0.0
        },
        {
          "id": 1,
          "value": 0.0
        },
        {
          "id": 2,
          "value": 0.0
        },
        {
          "id": 3,
          "value": 0.0
        },
        {
          "id": 4,
          "value": 8.49500179
        },
        {
          "id": 5,
          "value": 0.0
        },
        {
          "id": 6,
          "value": 0.0
        },
        {
          "id": 7,
          "value": 0.0
        }
      ],
      "leftModuleId": 211,
      "data": {
        "lissajous": 0,
        "external": 0
      },
      "pos": [
        61,
        0
      ]
    },
    {
      "id": 200,
      "plugin": "21kHz",
      "version": "1.0.1",
      "model": "kHzTachyonEntangler",
      "params": [
        {
          "id": 0,
          "value": 8.0
        },
        {
          "id": 1,
          "value": -1.0
        },
        {
          "id": 2,
          "value": 0.0
        },
        {
          "id": 3,
          "value": 0.352500379
        },
        {
          "id": 4,
          "value": 0.0
        },
        {
          "id": 5,
          "value": -2.21130061
        },
        {
          "id": 6,
          "value": 0.69870007
        },
        {
          "id": 7,
          "value": 2.59740019
        },
        {
          "id": 8,
          "value": 0.0839999467
        },
        {
          "id": 9,
          "value": 0.0600000434
        },
        {
          "id": 10,
          "value": 0.143999994
        },
        {
          "id": 11,
          "value": 0.0264998171
        },
        {
          "id": 12,
          "value": 0.0507000014
        },
        {
          "id": 13,
          "value": 0.0
        },
        {
          "id": 14,
          "value": 0.0494999997
        },
        {
          "id": 15,
          "value": 0.0174000002
        }
      ],
      "leftModuleId": 203,
      "rightModuleId": 201,
      "pos": [
        22,
        2
      ]
    },
    {
      "id": 201,
      "plugin": "AudibleInstruments",
      "version": "1.3.1",
      "model": "Tides2",
      "params": [
        {
          "id": 0,
          "value": 0.0
        },
        {
          "id": 1,
          "value": 0.0
        },
        {
          "id": 2,
          "value": 0.0
        },
        {
          "id": 3,
          "value": 0.0
        },
        {
          "id": 4,
          "value": 0.5
        },
        {
          "id": 5,
          "value": 0.5
        },
        {
          "id": 6,
          "value": 0.2465
        },
        {
          "id": 7,
          "value": 0.598999977
        },
        {
          "id": 8,
          "value": 0.0
        },
        {
          "id": 9,
          "value": 0.0
        },
        {
          "id": 10,
          "value": 0.0
        },
        {
          "id": 11,
          "value": 0.0
        },
        {
          "id": 12,
          "value": 0.0
        }
      ],
      "leftModuleId": 200,
      "rightModuleId": 202,
      "data": {
        "range": 2,
        "output": 2,
        "ramp": 1
      },
      "pos": [
        42,
        2
      ]
    },
    {
      "id": 202,
      "plugin": "NoraCodes",
      "version": "1.2.2",
      "model": "NoraCodes_FivesAstable",
      "params": [
        {
          "id": 0,
          "value": 0.333000004
        },
        {
          "id": 1,
          "value": 0.333000004
        },
        {
          "id": 2,
          "value": 0.0
        }
      ],
      "leftModuleId": 201,
      "rightModuleId": 205,
      "pos": [
        56,
        2
      ]
    },
    {
      "id": 203,
      "plugin": "KarateSnoopy",
      "version": "1.0.0",
      "model": "KSnpy2DGridSeq",
      "params": [
        {
          "id": 0,
          "value": 2.0
        },
        {
          "id": 1,
          "value": 0.0
        },
        {
          "id": 2,
          "value": 0.0
        },
        {
          "id": 3,
          "value": 8.0
        },
        {
          "id": 4,
          "value": 7.84500027
        },
        {
          "id": 5,
          "value": 0.0
        },
        {
          "id": 6,
          "value": 1.35000002
        },
        {
          "id": 7,
          "value": 2.52000022
        },
        {
          "id": 8,
          "value": 2.16000009
        },
        {
          "id": 9,
          "value": 0.0
        },
        {
          "id": 10,
          "value": 0.0
        },
        {
          "id": 11,
          "value": 0.0
        },
        {
          "id": 12,
          "value": 0.0
        },
        {
          "id": 13,
          "value": 0.0
        },
        {
          "id": 14,
          "value": 1.21499991
        },
        {
          "id": 15,
          "value": 2.17500019
        },
        {
          "id": 16,
          "value": 3.34500003
        },
        {
          "id": 17,
          "value": 0.0
        },
        {
          "id": 18,
          "value": 0.0
        },
        {
          "id": 19,
          "value": 0.0
        },
        {
          "id": 20,
          "value": 0.0
        },
        {
          "id": 21,
          "value": 0.0
        },
        {
          "id": 22,
          "value": 0.0
        },
        {
          "id": 23,
          "value": 0.0
        },
        {
          "id": 24,
          "value": 0.0
        },
        {
          "id": 25,
          "value": 0.0
        },
        {
          "id": 26,
          "value": 0.0
        },
        {
          "id": 27,
          "value": 0.0
        },
        {
          "id": 28,
          "value": 0.0
        },
        {
          "id": 29,
          "value": 0.0
        },
        {
          "id": 30,
          "value": 0.0
        },
        {
          "id": 31,
          "value": 0.0
        },
        {
          "id": 32,
          "value": 0.0
        },
        {
          "id": 33,
          "value": 0.0
        },
        {
          "id": 34,
          "value": 0.0
        },
        {
          "id": 35,
          "value": 0.0
        },
        {
          "id": 36,
          "value": 0.0
        },
        {
          "id": 37,
          "value": 0.0
        },
        {
          "id": 38,
          "value": 0.0
        },
        {
          "id": 39,
          "value": 0.0
        },
        {
          "id": 40,
          "value": 0.0
        },
        {
          "id": 41,
          "value": 0.0
        },
        {
          "id": 42,
          "value": 0.0
        },
        {
          "id": 43,
          "value": 0.0
        },
        {
          "id": 44,
          "value": 0.0
        },
        {
          "id": 45,
          "value": 0.0
        },
        {
          "id": 46,
          "value": 0.0
        },
        {
          "id": 47,
          "value": 0.0
        },
        {
          "id": 48,
          "value": 0.0
        },
        {
          "id": 49,
          "value": 0.0
        },
        {
          "id": 50,
          "value": 0.0
        },
        {
          "id": 51,
          "value": 0.0
        },
        {
          "id": 52,
          "value": 0.0
        }
      ],
      "rightModuleId": 200,
      "data": {
        "running": true,
        "gates": [
          1,
          1,
          1,
          1,
          1,
          1,
          1,
          1,
          1,
          1,
          1,
          1,
          1,
          1,
          1,
          1
        ],
        "skips": [
          0,
          0,
          0,
          0,
          0,
          0,
          0,
          0,
          0,
          0,
          0,
          0,
          0,
          0,
          0,
          0
        ],
        "gateMode": 0
      },
      "pos": [
        0,
        2
      ]
    },
    {
      "id": 204,
      "plugin": "StellareModular",
      "version": "1.0.0",
      "model": "TuringMachine",
      "params": [
        {
          "id": 0,
          "value": 0.5
        },
        {
          "id": 1,
          "value": 0.330499977
        },
        {
          "id": 2,
          "value": 0.551000059
        },
        {
          "id": 3,
          "value": 0.600499988
        },
        {
          "id": 4,
          "value": 0.5
        },
        {
          "id": 5,
          "value": 0.504000068
        },
        {
          "id": 6,
          "value": 7.0
        },
        {
          "id": 7,
          "value": 0.5
        },
        {
          "id": 8,
          "value": 0.0
        },
        {
          "id": 9,
          "value": 0.0
        },
        {
          "id": 10,
          "value": 0.0
        },
        {
          "id": 11,
          "value": 0.0
        },
        {
          "id": 12,
          "value": 0.0
        }
      ],
      "leftModuleId": 6,
      "rightModuleId": 209,
      "data": {
        "pulses_mode": 0
      },
      "pos": [
        24,
        1
      ]
    },
    {
      "id": 205,
      "plugin": "VultModulesFree",
      "version": "1.11",
      "model": "Trummor2",
      "params": [
        {
          "id": 0,
          "value": 0.0500000007
        },
        {
          "id": 1,
          "value": 0.5
        },
        {
          "id": 2,
          "value": 0.0
        },
        {
          "id": 3,
          "value": 0.261000037
        },
        {
          "id": 4,
          "value": 0.653999984
        },
        {
          "id": 5,
          "value": 0.0
        },
        {
          "id": 6,
          "value": 0.411000043
        },
        {
          "id": 7,
          "value": 0.200000003
        },
        {
          "id": 8,
          "value": 0.546999931
        },
        {
          "id": 9,
          "value": 1.0
        },
        {
          "id": 10,
          "value": 0.0
        },
        {
          "id": 11,
          "value": 0.632500112
        },
        {
          "id": 12,
          "value": 0.100000001
        },
        {
          "id": 13,
          "value": 0.0
        },
        {
          "id": 14,
          "value": 0.0
        },
        {
          "id": 15,
          "value": 0.66784972
        },
        {
          "id": 16,
          "value": 0.0
        },
        {
          "id": 17,
          "value": 2.0
        },
        {
          "id": 18,
          "value": 0.155999988
        },
        {
          "id": 19,
          "value": 0.36499998
        },
        {
          "id": 20,
          "value": 0.0500000007
        },
        {
          "id": 21,
          "value": 0.0
        },
        {
          "id": 22,
          "value": 0.0
        },
        {
          "id": 23,
          "value": 0.548500061
        },
        {
          "id": 24,
          "value": 0.0
        },
        {
          "id": 25,
          "value": 0.0
        },
        {
          "id": 26,
          "value": 0.0
        },
        {
          "id": 27,
          "value": 0.0
        },
        {
          "id": 28,
          "value": 0.0
        },
        {
          "id": 29,
          "value": 0.0
        },
        {
          "id": 30,
          "value": 0.0
        },
        {
          "id": 31,
          "value": 0.0
        },
        {
          "id": 32,
          "value": 0.0
        }
      ],
      "leftModuleId": 202,
      "data": {
        "mod_a": 0,
        "mod_b": 0,
        "mod_c": 0,
        "mod_d": 0,
        "mk2": true
      },
      "pos": [
        61,
        2
      ]
    },
    {
      "id": 209,
      "plugin": "JW-Modules",
      "version": "1.0.14",
      "model": "Quantizer",
      "params": [
        {
          "id": 0,
          "value": 10.0
        },
        {
          "id": 1,
          "value": 11.0
        }
      ],
      "leftModuleId": 204,
      "rightModuleId": 210,
      "data": {},
      "pos": [
        42,
        1
      ]
    },
    {
      "id": 210,
      "plugin": "Valley",
      "version": "1.1.0",
      "model": "Plateau",
      "params": [
        {
          "id": 0,
          "value": 0.346000105
        },
        {
          "id": 1,
          "value": 0.44749999
        },
        {
          "id": 2,
          "value": 0.00574999629
        },
        {
          "id": 3,
          "value": 10.0
        },
        {
          "id": 4,
          "value": 4.26999903
        },
        {
          "id": 5,
          "value": 0.648500025
        },
        {
          "id": 6,
          "value": 10.0
        },
        {
          "id": 7,
          "value": 0.593145132
        },
        {
          "id": 8,
          "value": 7.26999903
        },
        {
          "id": 9,
          "value": 10.0
        },
        {
          "id": 10,
          "value": 0.223499984
        },
        {
          "id": 11,
          "value": 0.3935
        },
        {
          "id": 12,
          "value": 6.35600042
        },
        {
          "id": 13,
          "value": 0.0
        },
        {
          "id": 14,
          "value": 0.0
        },
        {
          "id": 15,
          "value": 0.0
        },
        {
          "id": 16,
          "value": 0.0
        },
        {
          "id": 17,
          "value": 0.0
        },
        {
          "id": 18,
          "value": 0.0
        },
        {
          "id": 19,
          "value": 0.0
        },
        {
          "id": 20,
          "value": 0.0
        },
        {
          "id": 21,
          "value": 0.0
        },
        {
          "id": 22,
          "value": 0.0
        },
        {
          "id": 23,
          "value": 0.0
        },
        {
          "id": 24,
          "value": 0.0
        },
        {
          "id": 25,
          "value": 0.0
        },
        {
          "id": 26,
          "value": 0.0
        },
        {
          "id": 27,
          "value": 0.0
        },
        {
          "id": 28,
          "value": 0.0
        },
        {
          "id": 29,
          "value": 1.0
        },
        {
          "id": 30,
          "value": 1.0
        }
      ],
      "leftModuleId": 209,
      "data": {
        "frozen": true,
        "freezeToggle": false,
        "panelStyle": 0,
        "tuned": 1,
        "diffuseInput": 1,
        "preDelayCVSens": 0,
        "inputSensitivity": 0,
        "outputSaturation": 0
      },
      "pos": [
        46,
        1
      ]
    },
    {
      "id": 211,
      "plugin": "Bogaudio",
      "version": "1.1.34",
      "model": "Bogaudio-EightFO",
      "params": [
        {
          "id": 0,
          "value": -2.32050037
        },
        {
          "id": 1,
          "value": 4.0
        },
        {
          "id": 2,
          "value": 0.0
        },
        {
          "id": 3,
          "value": 0.0
        },
        {
          "id": 4,
          "value": 0.0
        },
        {
          "id": 5,
          "value": 0.0
        },
        {
          "id": 6,
          "value": 0.0
        },
        {
          "id": 7,
          "value": 0.0
        },
        {
          "id": 8,
          "value": 0.0
        },
        {
          "id": 9,
          "value": 0.0
        },
        {
          "id": 10,
          "value": 0.0
        },
        {
          "id": 11,
          "value": 0.0
        },
        {
          "id": 12,
          "value": 0.333000034
        },
        {
          "id": 13,
          "value": 0.776500046
        }
      ],
      "rightModuleId": 7,
      "data": {},
      "pos": [
        44,
        0
      ]
    }
  ],
  "cables": [
    {
      "id": 1245,
      "outputModuleId": 2,
      "outputId": 0,
      "inputModuleId": 1,
      "inputId": 0,
      "color": "#0986ad"
    },
    {
      "id": 1246,
      "outputModuleId": 2,
      "outputId": 0,
      "inputModuleId": 1,
      "inputId": 1,
      "color": "#c9b70e"
    },
    {
      "id": 1247,
      "outputModuleId": 6,
      "outputId": 0,
      "inputModuleId": 4,
      "inputId": 0,
      "color": "#c91847"
    },
    {
      "id": 1249,
      "outputModuleId": 6,
      "outputId": 0,
      "inputModuleId": 2,
      "inputId": 5,
      "color": "#0c8e15"
    },
    {
      "id": 1251,
      "outputModuleId": 2,
      "outputId": 1,
      "inputModuleId": 7,
      "inputId": 0,
      "color": "#c9b70e"
    },
    {
      "id": 1244,
      "outputModuleId": 200,
      "outputId": 0,
      "inputModuleId": 4,
      "inputId": 3,
      "color": "#0c8e15"
    },
    {
      "id": 1255,
      "outputModuleId": 205,
      "outputId": 4,
      "inputModuleId": 2,
      "inputId": 2,
      "color": "#0c8e15"
    },
    {
      "id": 1257,
      "outputModuleId": 6,
      "outputId": 0,
      "inputModuleId": 201,
      "inputId": 6,
      "color": "#0c8e15"
    },
    {
      "id": 1258,
      "outputModuleId": 201,
      "outputId": 2,
      "inputModuleId": 200,
      "inputId": 4,
      "color": "#c91847"
    },
    {
      "id": 1259,
      "outputModuleId": 201,
      "outputId": 3,
      "inputModuleId": 200,
      "inputId": 6,
      "color": "#0986ad"
    },
    {
      "id": 1260,
      "outputModuleId": 201,
      "outputId": 1,
      "inputModuleId": 200,
      "inputId": 0,
      "color": "#c9b70e"
    },
    {
      "id": 1261,
      "outputModuleId": 201,
      "outputId": 0,
      "inputModuleId": 200,
      "inputId": 2,
      "color": "#0c8e15"
    },
    {
      "id": 1248,
      "outputModuleId": 203,
      "outputId": 3,
      "inputModuleId": 6,
      "inputId": 4,
      "color": "#c9b70e"
    },
    {
      "id": 1254,
      "outputModuleId": 203,
      "outputId": 1,
      "inputModuleId": 205,
      "inputId": 7,
      "color": "#c9b70e"
    },
    {
      "id": 1252,
      "outputModuleId": 203,
      "outputId": 2,
      "inputModuleId": 6,
      "inputId": 5,
      "color": "#c91847"
    },
    {
      "id": 1243,
      "outputModuleId": 203,
      "outputId": 0,
      "inputModuleId": 200,
      "inputId": 10,
      "color": "#c91847"
    },
    {
      "id": 1262,
      "outputModuleId": 203,
      "outputId": 1,
      "inputModuleId": 201,
      "inputId": 7,
      "color": "#0986ad"
    },
    {
      "id": 1263,
      "outputModuleId": 200,
      "outputId": 3,
      "inputModuleId": 201,
      "inputId": 2,
      "color": "#0c8e15"
    },
    {
      "id": 1268,
      "outputModuleId": 4,
      "outputId": 0,
      "inputModuleId": 209,
      "inputId": 2,
      "color": "#c91847"
    },
    {
      "id": 1270,
      "outputModuleId": 203,
      "outputId": 0,
      "inputModuleId": 4,
      "inputId": 2,
      "color": "#c9b70e"
    },
    {
      "id": 1272,
      "outputModuleId": 203,
      "outputId": 1,
      "inputModuleId": 204,
      "inputId": 0,
      "color": "#c91847"
    },
    {
      "id": 1275,
      "outputModuleId": 202,
      "outputId": 0,
      "inputModuleId": 204,
      "inputId": 3,
      "color": "#0c8e15"
    },
    {
      "id": 1273,
      "outputModuleId": 204,
      "outputId": 12,
      "inputModuleId": 4,
      "inputId": 1,
      "color": "#0986ad"
    },
    {
      "id": 1276,
      "outputModuleId": 204,
      "outputId": 14,
      "inputModuleId": 203,
      "inputId": 3,
      "color": "#c91847"
    },
    {
      "id": 1277,
      "outputModuleId": 204,
      "outputId": 4,
      "inputModuleId": 200,
      "inputId": 7,
      "color": "#c9b70e"
    },
    {
      "id": 1278,
      "outputModuleId": 204,
      "outputId": 1,
      "inputModuleId": 200,
      "inputId": 5,
      "color": "#0c8e15"
    },
    {
      "id": 1279,
      "outputModuleId": 204,
      "outputId": 13,
      "inputModuleId": 200,
      "inputId": 1,
      "color": "#c91847"
    },
    {
      "id": 1280,
      "outputModuleId": 204,
      "outputId": 13,
      "inputModuleId": 200,
      "inputId": 3,
      "color": "#0986ad"
    },
    {
      "id": 1269,
      "outputModuleId": 209,
      "outputId": 0,
      "inputModuleId": 210,
      "inputId": 0,
      "color": "#0986ad"
    },
    {
      "id": 1281,
      "outputModuleId": 210,
      "outputId": 0,
      "inputModuleId": 2,
      "inputId": 1,
      "color": "#c9b70e"
    },
    {
      "id": 1282,
      "outputModuleId": 205,
      "outputId": 5,
      "inputModuleId": 210,
      "inputId": 15,
      "color": "#0c8e15"
    },
    {
      "id": 1284,
      "outputModuleId": 205,
      "outputId": 4,
      "inputModuleId": 205,
      "inputId": 8,
      "color": "#0986ad"
    },
    {
      "id": 1285,
      "outputModuleId": 203,
      "outputId": 0,
      "inputModuleId": 211,
      "inputId": 9,
      "color": "#c9b70e"
    },
    {
      "id": 1286,
      "outputModuleId": 211,
      "outputId": 5,
      "inputModuleId": 210,
      "inputId": 8,
      "color": "#0c8e15"
    },
    {
      "id": 1287,
      "outputModuleId": 211,
      "outputId": 2,
      "inputModuleId": 210,
      "inputId": 13,
      "color": "#c91847"
    },
    {
      "id": 1288,
      "outputModuleId": 6,
      "outputId": 0,
      "inputModuleId": 2,
      "inputId": 6,
      "color": "#0986ad"
    },
    {
      "id": 1289,
      "outputModuleId": 204,
      "outputId": 14,
      "inputModuleId": 6,
      "inputId": 3,
      "color": "#c9b70e"
    },
    {
      "id": 1290,
      "outputModuleId": 204,
      "outputId": 3,
      "inputModuleId": 211,
      "inputId": 6,
      "color": "#0c8e15"
    },
    {
      "id": 1291,
      "outputModuleId": 204,
      "outputId": 7,
      "inputModuleId": 211,
      "inputId": 3,
      "color": "#c91847"
    },
    {
      "id": 1292,
      "outputModuleId": 204,
      "outputId": 10,
      "inputModuleId": 203,
      "inputId": 2,
      "color": "#c9b70e"
    },
    {
      "id": 1293,
      "outputModuleId": 204,
      "outputId": 14,
      "inputModuleId": 200,
      "inputId": 11,
      "color": "#c91847"
    },
    {
      "id": 1294,
      "outputModuleId": 211,
      "outputId": 7,
      "inputModuleId": 204,
      "inputId": 2,
      "color": "#0986ad"
    },
    {
      "id": 1295,
      "outputModuleId": 2,
      "outputId": 2,
      "inputModuleId": 7,
      "inputId": 1,
      "color": "#c9b70e"
    }
  ]
}