{
  "version": "1.1.6",
  "modules": [
    {
      "id": 0,
      "plugin": "Core",
      "version": "1.1.6",
      "model": "AudioInterface",
      "params": [],
      "data": {
        "audio": {
          "driver": 5,
          "deviceName": "Apple Inc.: MacBook Pro Speakers",
          "offset": 0,
          "maxChannels": 8,
          "sampleRate": 44100,
          "blockSize": 256
        }
      },
      "pos": [
        15,
        0
      ]
    },
    {
      "id": 4,
      "plugin": "Core",
      "version": "1.1.6",
      "model": "MIDIToCVInterface",
      "params": [],
      "data": {
        "channels": 1,
        "polyMode": 0,
        "clockDivision": 24,
        "lastPitch": 8192,
        "lastMod": 0,
        "midi": {
          "driver": -12512,
          "deviceName": "Port 1",
          "channel": -1
        }
      },
      "pos": [
        0,
        0
      ]
    },
    {
      "id": 5,
      "plugin": "MicMusic",
      "version": "1.0.0",
      "model": "Cuter",
      "params": [
        {
          "id": 0,
          "value": 0.309999675
        },
        {
          "id": 1,
          "value": -2.8900001
        },
        {
          "id": 2,
          "value": 0.466500014
        },
        {
          "id": 3,
          "value": 0.280500025
        }
      ],
      "leftModuleId": 6,
      "rightModuleId": 8,
      "pos": [
        42,
        0
      ]
    },
    {
      "id": 6,
      "plugin": "LOGinstruments",
      "version": "1.0.1",
      "model": "Crystal",
      "params": [
        {
          "id": 0,
          "value": 0.0
        },
        {
          "id": 1,
          "value": 32.0
        },
        {
          "id": 2,
          "value": 0.0
        },
        {
          "id": 3,
          "value": 1.0
        },
        {
          "id": 4,
          "value": -2.26799989
        },
        {
          "id": 5,
          "value": 0.0
        },
        {
          "id": 6,
          "value": 0.0
        },
        {
          "id": 7,
          "value": 0.0
        },
        {
          "id": 8,
          "value": 0.0
        }
      ],
      "rightModuleId": 5,
      "pos": [
        30,
        0
      ]
    },
    {
      "id": 7,
      "plugin": "AudibleInstruments",
      "version": "1.3.1",
      "model": "Tides2",
      "params": [
        {
          "id": 0,
          "value": 0.0
        },
        {
          "id": 1,
          "value": 0.0
        },
        {
          "id": 2,
          "value": 0.0
        },
        {
          "id": 3,
          "value": -11.2986851
        },
        {
          "id": 4,
          "value": 0.80947274
        },
        {
          "id": 5,
          "value": 0.310056925
        },
        {
          "id": 6,
          "value": 0.0697655976
        },
        {
          "id": 7,
          "value": 0.59267956
        },
        {
          "id": 8,
          "value": -0.394967914
        },
        {
          "id": 9,
          "value": -0.245826006
        },
        {
          "id": 10,
          "value": -0.28728354
        },
        {
          "id": 11,
          "value": -0.199769735
        },
        {
          "id": 12,
          "value": -0.873676896
        }
      ],
      "leftModuleId": 10,
      "data": {
        "range": 1,
        "output": 3,
        "ramp": 1
      },
      "pos": [
        55,
        1
      ]
    },
    {
      "id": 8,
      "plugin": "MicMusic",
      "version": "1.0.0",
      "model": "Cuter",
      "params": [
        {
          "id": 0,
          "value": 0.369999766
        },
        {
          "id": 1,
          "value": -5.88999987
        },
        {
          "id": 2,
          "value": 0.466500014
        },
        {
          "id": 3,
          "value": 0.448500037
        }
      ],
      "leftModuleId": 5,
      "pos": [
        48,
        0
      ]
    },
    {
      "id": 9,
      "plugin": "AudibleInstruments",
      "version": "1.3.1",
      "model": "Tides2",
      "params": [
        {
          "id": 0,
          "value": 0.0
        },
        {
          "id": 1,
          "value": 0.0
        },
        {
          "id": 2,
          "value": 0.0
        },
        {
          "id": 3,
          "value": 18.5681381
        },
        {
          "id": 4,
          "value": 0.516947091
        },
        {
          "id": 5,
          "value": 0.900431931
        },
        {
          "id": 6,
          "value": 0.291803896
        },
        {
          "id": 7,
          "value": 0.28108874
        },
        {
          "id": 8,
          "value": -0.24112916
        },
        {
          "id": 9,
          "value": -0.181832552
        },
        {
          "id": 10,
          "value": 0.0662612915
        },
        {
          "id": 11,
          "value": -0.0216926336
        },
        {
          "id": 12,
          "value": 0.362504363
        }
      ],
      "data": {
        "range": 1,
        "output": 3,
        "ramp": 1
      },
      "pos": [
        56,
        0
      ]
    },
    {
      "id": 10,
      "plugin": "AlrightDevices",
      "version": "1.0.3",
      "model": "Chronoblob2",
      "params": [
        {
          "id": 0,
          "value": 0.671000004
        },
        {
          "id": 1,
          "value": 0.324500024
        },
        {
          "id": 2,
          "value": 0.399500012
        },
        {
          "id": 3,
          "value": 0.0
        },
        {
          "id": 4,
          "value": 0.0
        },
        {
          "id": 5,
          "value": 0.0
        },
        {
          "id": 6,
          "value": 0.0
        },
        {
          "id": 7,
          "value": 0.0
        },
        {
          "id": 8,
          "value": 0.0
        },
        {
          "id": 9,
          "value": 0.0
        }
      ],
      "leftModuleId": 11,
      "rightModuleId": 7,
      "data": {
        "delay_mode": 2,
        "hold_behavior": 0,
        "sync_prescaler": 6
      },
      "pos": [
        43,
        1
      ]
    },
    {
      "id": 11,
      "plugin": "Geodesics",
      "version": "1.2.0",
      "model": "Branes",
      "params": [
        {
          "id": 0,
          "value": 0.0
        },
        {
          "id": 1,
          "value": 0.0
        },
        {
          "id": 2,
          "value": 0.0
        },
        {
          "id": 3,
          "value": 0.0
        }
      ],
      "rightModuleId": 10,
      "data": {
        "panelTheme": 1,
        "vibrations0": 1,
        "vibrations1": 0,
        "noiseRange0": 0.0,
        "noiseRange1": 0.0
      },
      "pos": [
        32,
        1
      ]
    }
  ],
  "cables": [
    {
      "id": 2,
      "outputModuleId": 7,
      "outputId": 1,
      "inputModuleId": 6,
      "inputId": 0,
      "color": "#c91847"
    },
    {
      "id": 3,
      "outputModuleId": 7,
      "outputId": 2,
      "inputModuleId": 6,
      "inputId": 1,
      "color": "#0986ad"
    },
    {
      "id": 4,
      "outputModuleId": 7,
      "outputId": 3,
      "inputModuleId": 6,
      "inputId": 2,
      "color": "#c9b70e"
    },
    {
      "id": 0,
      "outputModuleId": 6,
      "outputId": 2,
      "inputModuleId": 5,
      "inputId": 2,
      "color": "#c9b70e"
    },
    {
      "id": 6,
      "outputModuleId": 6,
      "outputId": 1,
      "inputModuleId": 8,
      "inputId": 2,
      "color": "#0986ad"
    },
    {
      "id": 8,
      "outputModuleId": 9,
      "outputId": 1,
      "inputModuleId": 5,
      "inputId": 1,
      "color": "#c91847"
    },
    {
      "id": 9,
      "outputModuleId": 9,
      "outputId": 0,
      "inputModuleId": 5,
      "inputId": 0,
      "color": "#0986ad"
    },
    {
      "id": 10,
      "outputModuleId": 9,
      "outputId": 3,
      "inputModuleId": 8,
      "inputId": 1,
      "color": "#c9b70e"
    },
    {
      "id": 11,
      "outputModuleId": 9,
      "outputId": 2,
      "inputModuleId": 8,
      "inputId": 0,
      "color": "#0c8e15"
    },
    {
      "id": 14,
      "outputModuleId": 7,
      "outputId": 0,
      "inputModuleId": 7,
      "inputId": 1,
      "color": "#0c8e15"
    },
    {
      "id": 7,
      "outputModuleId": 8,
      "outputId": 0,
      "inputModuleId": 10,
      "inputId": 6,
      "color": "#0c8e15"
    },
    {
      "id": 15,
      "outputModuleId": 10,
      "outputId": 1,
      "inputModuleId": 0,
      "inputId": 1,
      "color": "#c9b70e"
    },
    {
      "id": 1,
      "outputModuleId": 5,
      "outputId": 0,
      "inputModuleId": 10,
      "inputId": 5,
      "color": "#0c8e15"
    },
    {
      "id": 16,
      "outputModuleId": 10,
      "outputId": 0,
      "inputModuleId": 0,
      "inputId": 0,
      "color": "#0c8e15"
    },
    {
      "id": 17,
      "outputModuleId": 7,
      "outputId": 1,
      "inputModuleId": 10,
      "inputId": 1,
      "color": "#c91847"
    },
    {
      "id": 18,
      "outputModuleId": 9,
      "outputId": 2,
      "inputModuleId": 10,
      "inputId": 3,
      "color": "#0986ad"
    },
    {
      "id": 19,
      "outputModuleId": 7,
      "outputId": 3,
      "inputModuleId": 10,
      "inputId": 0,
      "color": "#c9b70e"
    },
    {
      "id": 20,
      "outputModuleId": 9,
      "outputId": 0,
      "inputModuleId": 10,
      "inputId": 4,
      "color": "#0c8e15"
    },
    {
      "id": 21,
      "outputModuleId": 6,
      "outputId": 0,
      "inputModuleId": 11,
      "inputId": 14,
      "color": "#c91847"
    },
    {
      "id": 22,
      "outputModuleId": 11,
      "outputId": 6,
      "inputModuleId": 10,
      "inputId": 2,
      "color": "#0986ad"
    },
    {
      "id": 23,
      "outputModuleId": 11,
      "outputId": 9,
      "inputModuleId": 7,
      "inputId": 3,
      "color": "#c9b70e"
    },
    {
      "id": 24,
      "outputModuleId": 11,
      "outputId": 0,
      "inputModuleId": 7,
      "inputId": 5,
      "color": "#0c8e15"
    },
    {
      "id": 25,
      "outputModuleId": 9,
      "outputId": 1,
      "inputModuleId": 11,
      "inputId": 1,
      "color": "#c91847"
    },
    {
      "id": 26,
      "outputModuleId": 11,
      "outputId": 3,
      "inputModuleId": 7,
      "inputId": 7,
      "color": "#0986ad"
    }
  ]
}