{
  "version": "1.1.6",
  "modules": [
    {
      "id": 1,
      "plugin": "Core",
      "version": "1.1.6",
      "model": "AudioInterface",
      "params": [],
      "leftModuleId": 2,
      "rightModuleId": 8,
      "data": {
        "audio": {
          "driver": 5,
          "deviceName": "Apple Inc.: External Headphones",
          "offset": 0,
          "maxChannels": 8,
          "sampleRate": 44100,
          "blockSize": 256
        }
      },
      "pos": [
        101,
        0
      ]
    },
    {
      "id": 2,
      "plugin": "Fundamental",
      "version": "1.4.0",
      "model": "VCMixer",
      "params": [
        {
          "id": 0,
          "value": 1.023
        },
        {
          "id": 1,
          "value": 0.73695612
        },
        {
          "id": 2,
          "value": 0.872720778
        },
        {
          "id": 3,
          "value": 0.673316717
        },
        {
          "id": 4,
          "value": 0.753926814
        }
      ],
      "leftModuleId": 6,
      "rightModuleId": 1,
      "pos": [
        91,
        0
      ]
    },
    {
      "id": 4,
      "plugin": "Fundamental",
      "version": "1.4.0",
      "model": "VCF",
      "params": [
        {
          "id": 0,
          "value": 0.153000072
        },
        {
          "id": 1,
          "value": 0.5
        },
        {
          "id": 2,
          "value": 0.234000027
        },
        {
          "id": 3,
          "value": 1.0
        },
        {
          "id": 4,
          "value": 0.385499895
        }
      ],
      "leftModuleId": 36,
      "rightModuleId": 38,
      "pos": [
        24,
        0
      ]
    },
    {
      "id": 5,
      "plugin": "Core",
      "version": "1.1.6",
      "model": "MIDIToCVInterface",
      "params": [],
      "rightModuleId": 36,
      "data": {
        "channels": 1,
        "polyMode": 0,
        "clockDivision": 24,
        "lastPitch": 8192,
        "lastMod": 0,
        "midi": {
          "driver": 1,
          "deviceName": "USB Uno MIDI Interface",
          "channel": -1
        }
      },
      "pos": [
        0,
        0
      ]
    },
    {
      "id": 6,
      "plugin": "Fundamental",
      "version": "1.4.0",
      "model": "ADSR",
      "params": [
        {
          "id": 0,
          "value": 0.258000046
        },
        {
          "id": 1,
          "value": 0.743000448
        },
        {
          "id": 2,
          "value": 0.5
        },
        {
          "id": 3,
          "value": 0.576500058
        }
      ],
      "leftModuleId": 37,
      "rightModuleId": 2,
      "pos": [
        83,
        0
      ]
    },
    {
      "id": 7,
      "plugin": "Fundamental",
      "version": "1.4.0",
      "model": "Scope",
      "params": [
        {
          "id": 0,
          "value": 0.0
        },
        {
          "id": 1,
          "value": 0.0
        },
        {
          "id": 2,
          "value": 0.0
        },
        {
          "id": 3,
          "value": 0.0
        },
        {
          "id": 4,
          "value": 7.72500086
        },
        {
          "id": 5,
          "value": 0.0
        },
        {
          "id": 6,
          "value": 0.0
        },
        {
          "id": 7,
          "value": 0.0
        }
      ],
      "data": {
        "lissajous": 0,
        "external": 0
      },
      "pos": [
        70,
        1
      ]
    },
    {
      "id": 8,
      "plugin": "Core",
      "version": "1.1.6",
      "model": "Notes",
      "params": [],
      "leftModuleId": 1,
      "text": "Demo patch instructions:\n\n1. Choose an audio driver and device in the AUDIO-8 module.\n\n2. Use the QWERTY and ZXCVB rows of your keyboard to generate MIDI notes, which are converted to 1V/oct and GATE signals.\n\n3. Drag knobs up/down. Hold Ctrl (Cmd on Mac) while dragging to fine-tune. Right-click knobs to edit, or double-click to initialize.\n\n4. Drag ports to create and move cables. Stack multiple cables on outputs by holding Ctrl (Cmd on Mac) and dragging from an output.\n\n5. Right-click on an empty rack space to add new modules.",
      "pos": [
        111,
        0
      ]
    },
    {
      "id": 31,
      "plugin": "Bogaudio",
      "version": "1.1.31",
      "model": "Bogaudio-Additator",
      "params": [
        {
          "id": 0,
          "value": 0.0
        },
        {
          "id": 1,
          "value": 20.0
        },
        {
          "id": 2,
          "value": 1.0
        },
        {
          "id": 3,
          "value": 0.0
        },
        {
          "id": 4,
          "value": 0.0
        },
        {
          "id": 5,
          "value": 3.0
        },
        {
          "id": 6,
          "value": 1.0
        },
        {
          "id": 7,
          "value": 0.0
        },
        {
          "id": 8,
          "value": 1.0
        },
        {
          "id": 9,
          "value": 1.0
        },
        {
          "id": 10,
          "value": 0.0
        }
      ],
      "rightModuleId": 32,
      "pos": [
        8,
        1
      ]
    },
    {
      "id": 32,
      "plugin": "RJModules",
      "version": "1.7.2",
      "model": "Filter",
      "params": [
        {
          "id": 0,
          "value": 0.378500044
        },
        {
          "id": 1,
          "value": 0.708499968
        },
        {
          "id": 2,
          "value": 0.828999937
        }
      ],
      "leftModuleId": 31,
      "rightModuleId": 33,
      "pos": [
        23,
        1
      ]
    },
    {
      "id": 33,
      "plugin": "Bogaudio",
      "version": "1.1.31",
      "model": "Bogaudio-EightFO",
      "params": [
        {
          "id": 0,
          "value": 0.584999979
        },
        {
          "id": 1,
          "value": 4.0
        },
        {
          "id": 2,
          "value": 0.0
        },
        {
          "id": 3,
          "value": 0.0
        },
        {
          "id": 4,
          "value": 0.0
        },
        {
          "id": 5,
          "value": 0.0
        },
        {
          "id": 6,
          "value": 0.0
        },
        {
          "id": 7,
          "value": 0.0
        },
        {
          "id": 8,
          "value": 0.0
        },
        {
          "id": 9,
          "value": 0.0
        },
        {
          "id": 10,
          "value": 0.0
        },
        {
          "id": 11,
          "value": 1.0
        },
        {
          "id": 12,
          "value": 0.0
        },
        {
          "id": 13,
          "value": 1.0
        }
      ],
      "leftModuleId": 32,
      "rightModuleId": 39,
      "pos": [
        33,
        1
      ]
    },
    {
      "id": 34,
      "plugin": "FrozenWasteland",
      "version": "1.13.1",
      "model": "DrunkenRampage",
      "params": [
        {
          "id": 0,
          "value": 1.0
        },
        {
          "id": 1,
          "value": 2.0
        },
        {
          "id": 2,
          "value": 0.0
        },
        {
          "id": 3,
          "value": 0.0
        },
        {
          "id": 4,
          "value": 0.0
        },
        {
          "id": 5,
          "value": 0.0
        },
        {
          "id": 6,
          "value": 0.0
        },
        {
          "id": 7,
          "value": 0.602999985
        },
        {
          "id": 8,
          "value": 0.431999981
        },
        {
          "id": 9,
          "value": 0.663000107
        },
        {
          "id": 10,
          "value": 1.0
        },
        {
          "id": 11,
          "value": 1.0
        },
        {
          "id": 12,
          "value": 0.5
        },
        {
          "id": 13,
          "value": 0.0
        },
        {
          "id": 14,
          "value": 0.0
        },
        {
          "id": 15,
          "value": 0.0
        },
        {
          "id": 16,
          "value": 0.0
        }
      ],
      "leftModuleId": 38,
      "rightModuleId": 37,
      "pos": [
        46,
        0
      ]
    },
    {
      "id": 36,
      "plugin": "AudibleInstruments",
      "version": "1.2.0",
      "model": "Braids",
      "params": [
        {
          "id": 0,
          "value": 0.0
        },
        {
          "id": 1,
          "value": -1.0
        },
        {
          "id": 2,
          "value": 0.0
        },
        {
          "id": 3,
          "value": 0.5
        },
        {
          "id": 4,
          "value": 0.0
        },
        {
          "id": 5,
          "value": 0.5
        },
        {
          "id": 6,
          "value": 0.0
        }
      ],
      "leftModuleId": 5,
      "rightModuleId": 4,
      "data": {
        "settings": [
          0,
          0,
          0,
          0,
          0,
          0,
          0,
          0,
          0,
          0,
          0,
          0,
          0,
          0,
          0,
          0,
          0,
          0,
          0,
          0
        ],
        "lowCpu": false
      },
      "pos": [
        8,
        0
      ]
    },
    {
      "id": 37,
      "plugin": "Fundamental",
      "version": "1.4.0",
      "model": "Scope",
      "params": [
        {
          "id": 0,
          "value": 0.0
        },
        {
          "id": 1,
          "value": 0.0
        },
        {
          "id": 2,
          "value": 0.0
        },
        {
          "id": 3,
          "value": 0.0
        },
        {
          "id": 4,
          "value": 8.19500065
        },
        {
          "id": 5,
          "value": 0.0
        },
        {
          "id": 6,
          "value": 0.0
        },
        {
          "id": 7,
          "value": 0.0
        }
      ],
      "leftModuleId": 34,
      "rightModuleId": 6,
      "data": {
        "lissajous": 0,
        "external": 0
      },
      "pos": [
        70,
        0
      ]
    },
    {
      "id": 38,
      "plugin": "Blamsoft-XFXReverb",
      "version": "1.0.0",
      "model": "Blamsoft-XFXReverb",
      "params": [
        {
          "id": 0,
          "value": 1.0
        },
        {
          "id": 1,
          "value": 0.587500036
        },
        {
          "id": 2,
          "value": 0.400000006
        },
        {
          "id": 3,
          "value": 0.283999979
        },
        {
          "id": 4,
          "value": 0.786500037
        },
        {
          "id": 5,
          "value": 0.25
        },
        {
          "id": 6,
          "value": 0.25
        },
        {
          "id": 7,
          "value": 0.345499992
        },
        {
          "id": 8,
          "value": 0.596500039
        }
      ],
      "leftModuleId": 4,
      "rightModuleId": 34,
      "pos": [
        32,
        0
      ]
    },
    {
      "id": 39,
      "plugin": "Blamsoft-XFXReverb",
      "version": "1.0.0",
      "model": "Blamsoft-XFXReverb",
      "params": [
        {
          "id": 0,
          "value": 1.0
        },
        {
          "id": 1,
          "value": 0.400000006
        },
        {
          "id": 2,
          "value": 0.400000006
        },
        {
          "id": 3,
          "value": 0.28549996
        },
        {
          "id": 4,
          "value": 0.754999995
        },
        {
          "id": 5,
          "value": 0.25
        },
        {
          "id": 6,
          "value": 0.25
        },
        {
          "id": 7,
          "value": 0.368000031
        },
        {
          "id": 8,
          "value": 0.674499989
        }
      ],
      "leftModuleId": 33,
      "pos": [
        50,
        1
      ]
    }
  ],
  "cables": [
    {
      "id": 881,
      "outputModuleId": 2,
      "outputId": 0,
      "inputModuleId": 1,
      "inputId": 0,
      "color": "#0986ad"
    },
    {
      "id": 882,
      "outputModuleId": 2,
      "outputId": 0,
      "inputModuleId": 1,
      "inputId": 1,
      "color": "#c9b70e"
    },
    {
      "id": 883,
      "outputModuleId": 6,
      "outputId": 0,
      "inputModuleId": 4,
      "inputId": 0,
      "color": "#c91847"
    },
    {
      "id": 884,
      "outputModuleId": 5,
      "outputId": 1,
      "inputModuleId": 6,
      "inputId": 4,
      "color": "#c9b70e"
    },
    {
      "id": 885,
      "outputModuleId": 6,
      "outputId": 0,
      "inputModuleId": 2,
      "inputId": 5,
      "color": "#0c8e15"
    },
    {
      "id": 887,
      "outputModuleId": 2,
      "outputId": 1,
      "inputModuleId": 7,
      "inputId": 0,
      "color": "#c9b70e"
    },
    {
      "id": 889,
      "outputModuleId": 5,
      "outputId": 0,
      "inputModuleId": 31,
      "inputId": 0,
      "color": "#0c8e15"
    },
    {
      "id": 890,
      "outputModuleId": 31,
      "outputId": 0,
      "inputModuleId": 32,
      "inputId": 0,
      "color": "#c91847"
    },
    {
      "id": 888,
      "outputModuleId": 5,
      "outputId": 6,
      "inputModuleId": 6,
      "inputId": 5,
      "color": "#c91847"
    },
    {
      "id": 891,
      "outputModuleId": 6,
      "outputId": 0,
      "inputModuleId": 32,
      "inputId": 1,
      "color": "#c9b70e"
    },
    {
      "id": 893,
      "outputModuleId": 6,
      "outputId": 0,
      "inputModuleId": 2,
      "inputId": 6,
      "color": "#c91847"
    },
    {
      "id": 894,
      "outputModuleId": 33,
      "outputId": 7,
      "inputModuleId": 31,
      "inputId": 6,
      "color": "#0986ad"
    },
    {
      "id": 895,
      "outputModuleId": 33,
      "outputId": 4,
      "inputModuleId": 31,
      "inputId": 7,
      "color": "#c9b70e"
    },
    {
      "id": 896,
      "outputModuleId": 33,
      "outputId": 5,
      "inputModuleId": 31,
      "inputId": 9,
      "color": "#0c8e15"
    },
    {
      "id": 897,
      "outputModuleId": 2,
      "outputId": 2,
      "inputModuleId": 7,
      "inputId": 1,
      "color": "#c91847"
    },
    {
      "id": 900,
      "outputModuleId": 33,
      "outputId": 3,
      "inputModuleId": 31,
      "inputId": 4,
      "color": "#c9b70e"
    },
    {
      "id": 901,
      "outputModuleId": 33,
      "outputId": 2,
      "inputModuleId": 31,
      "inputId": 2,
      "color": "#0c8e15"
    },
    {
      "id": 902,
      "outputModuleId": 33,
      "outputId": 1,
      "inputModuleId": 4,
      "inputId": 2,
      "color": "#c91847"
    },
    {
      "id": 898,
      "outputModuleId": 5,
      "outputId": 0,
      "inputModuleId": 33,
      "inputId": 9,
      "color": "#0986ad"
    },
    {
      "id": 904,
      "outputModuleId": 31,
      "outputId": 0,
      "inputModuleId": 34,
      "inputId": 0,
      "color": "#c9b70e"
    },
    {
      "id": 908,
      "outputModuleId": 6,
      "outputId": 0,
      "inputModuleId": 2,
      "inputId": 7,
      "color": "#c9b70e"
    },
    {
      "id": 909,
      "outputModuleId": 6,
      "outputId": 0,
      "inputModuleId": 2,
      "inputId": 8,
      "color": "#0c8e15"
    },
    {
      "id": 905,
      "outputModuleId": 36,
      "outputId": 0,
      "inputModuleId": 34,
      "inputId": 1,
      "color": "#0c8e15"
    },
    {
      "id": 880,
      "outputModuleId": 36,
      "outputId": 0,
      "inputModuleId": 4,
      "inputId": 3,
      "color": "#0c8e15"
    },
    {
      "id": 879,
      "outputModuleId": 5,
      "outputId": 0,
      "inputModuleId": 36,
      "inputId": 1,
      "color": "#c91847"
    },
    {
      "id": 910,
      "outputModuleId": 2,
      "outputId": 3,
      "inputModuleId": 37,
      "inputId": 0,
      "color": "#c91847"
    },
    {
      "id": 911,
      "outputModuleId": 2,
      "outputId": 4,
      "inputModuleId": 37,
      "inputId": 1,
      "color": "#0986ad"
    },
    {
      "id": 899,
      "outputModuleId": 4,
      "outputId": 0,
      "inputModuleId": 38,
      "inputId": 5,
      "color": "#c9b70e"
    },
    {
      "id": 892,
      "outputModuleId": 32,
      "outputId": 0,
      "inputModuleId": 38,
      "inputId": 6,
      "color": "#0c8e15"
    },
    {
      "id": 906,
      "outputModuleId": 34,
      "outputId": 6,
      "inputModuleId": 39,
      "inputId": 5,
      "color": "#c91847"
    },
    {
      "id": 912,
      "outputModuleId": 38,
      "outputId": 0,
      "inputModuleId": 2,
      "inputId": 1,
      "color": "#c9b70e"
    },
    {
      "id": 913,
      "outputModuleId": 38,
      "outputId": 1,
      "inputModuleId": 2,
      "inputId": 2,
      "color": "#0c8e15"
    },
    {
      "id": 914,
      "outputModuleId": 39,
      "outputId": 0,
      "inputModuleId": 2,
      "inputId": 3,
      "color": "#c91847"
    },
    {
      "id": 907,
      "outputModuleId": 34,
      "outputId": 8,
      "inputModuleId": 39,
      "inputId": 6,
      "color": "#0986ad"
    },
    {
      "id": 915,
      "outputModuleId": 39,
      "outputId": 1,
      "inputModuleId": 2,
      "inputId": 4,
      "color": "#0986ad"
    }
  ]
}