{
  "version": "0.6.2b",
  "modules": [
    {
      "plugin": "Core",
      "version": "0.6.2b",
      "model": "AudioInterface",
      "params": [],
      "data": {
        "audio": {
          "driver": 5,
          "deviceName": "Apple Inc.: Built-in Output",
          "offset": 0,
          "maxChannels": 8,
          "sampleRate": 44100,
          "blockSize": 256
        }
      },
      "pos": [
        0,
        0
      ]
    },
    {
      "plugin": "aP-Modules",
      "version": "0.6.0",
      "model": "Buffer Sampler",
      "params": [
        {
          "paramId": 1,
          "value": 0.0
        },
        {
          "paramId": 2,
          "value": 0.0
        },
        {
          "paramId": 5,
          "value": -4.0
        },
        {
          "paramId": 3,
          "value": 0.396525323
        },
        {
          "paramId": 4,
          "value": 0.60990119
        },
        {
          "paramId": 0,
          "value": 0.692838192
        }
      ],
      "data": {
        "Fades": 1,
        "Freeze": 0
      },
      "pos": [
        34,
        2
      ]
    },
    {
      "plugin": "Bidoo",
      "version": "0.6.24",
      "model": "ChUTE",
      "params": [
        {
          "paramId": 0,
          "value": 1.7677598
        },
        {
          "paramId": 1,
          "value": 5.59517574
        },
        {
          "paramId": 2,
          "value": 0.721948445
        },
        {
          "paramId": 3,
          "value": 0.0
        }
      ],
      "pos": [
        0,
        2
      ]
    },
    {
      "plugin": "AS",
      "version": "0.6.12",
      "model": "SEQ16",
      "params": [
        {
          "paramId": 0,
          "value": 4.47285795
        },
        {
          "paramId": 1,
          "value": 0.0
        },
        {
          "paramId": 2,
          "value": 0.0
        },
        {
          "paramId": 4,
          "value": 0.0
        },
        {
          "paramId": 5,
          "value": 0.0
        },
        {
          "paramId": 6,
          "value": 0.0
        },
        {
          "paramId": 7,
          "value": 1.0
        },
        {
          "paramId": 3,
          "value": 16.0
        },
        {
          "paramId": 8,
          "value": 3.01629782
        },
        {
          "paramId": 24,
          "value": 2.44914508
        },
        {
          "paramId": 40,
          "value": 2.18305397
        },
        {
          "paramId": 56,
          "value": 0.0
        },
        {
          "paramId": 9,
          "value": 2.53737259
        },
        {
          "paramId": 25,
          "value": 2.68697476
        },
        {
          "paramId": 41,
          "value": 1.37538552
        },
        {
          "paramId": 57,
          "value": 0.0
        },
        {
          "paramId": 10,
          "value": 2.62154818
        },
        {
          "paramId": 26,
          "value": 3.22331619
        },
        {
          "paramId": 42,
          "value": 1.65890992
        },
        {
          "paramId": 58,
          "value": 0.0
        },
        {
          "paramId": 11,
          "value": 2.18140173
        },
        {
          "paramId": 27,
          "value": 2.99261427
        },
        {
          "paramId": 43,
          "value": 2.2757237
        },
        {
          "paramId": 59,
          "value": 0.0
        },
        {
          "paramId": 12,
          "value": 2.75949168
        },
        {
          "paramId": 28,
          "value": 2.95944643
        },
        {
          "paramId": 44,
          "value": 1.40286517
        },
        {
          "paramId": 60,
          "value": 0.0
        },
        {
          "paramId": 13,
          "value": 2.48999977
        },
        {
          "paramId": 29,
          "value": 3.23452497
        },
        {
          "paramId": 45,
          "value": 2.32748604
        },
        {
          "paramId": 61,
          "value": 0.0
        },
        {
          "paramId": 14,
          "value": 1.81848681
        },
        {
          "paramId": 30,
          "value": 3.05411935
        },
        {
          "paramId": 46,
          "value": 2.70930505
        },
        {
          "paramId": 62,
          "value": 0.0
        },
        {
          "paramId": 15,
          "value": 2.28416371
        },
        {
          "paramId": 31,
          "value": 3.52226496
        },
        {
          "paramId": 47,
          "value": 2.50955319
        },
        {
          "paramId": 63,
          "value": 0.0
        },
        {
          "paramId": 16,
          "value": 2.97291636
        },
        {
          "paramId": 32,
          "value": 3.01529646
        },
        {
          "paramId": 48,
          "value": 2.77738261
        },
        {
          "paramId": 64,
          "value": 0.0
        },
        {
          "paramId": 17,
          "value": 2.89681578
        },
        {
          "paramId": 33,
          "value": 2.00769949
        },
        {
          "paramId": 49,
          "value": 2.59815979
        },
        {
          "paramId": 65,
          "value": 0.0
        },
        {
          "paramId": 18,
          "value": 2.81219673
        },
        {
          "paramId": 34,
          "value": 2.70712829
        },
        {
          "paramId": 50,
          "value": 2.4180274
        },
        {
          "paramId": 66,
          "value": 0.0
        },
        {
          "paramId": 19,
          "value": 3.0085578
        },
        {
          "paramId": 35,
          "value": 3.60955763
        },
        {
          "paramId": 51,
          "value": 2.88758492
        },
        {
          "paramId": 67,
          "value": 0.0
        },
        {
          "paramId": 20,
          "value": 2.35519171
        },
        {
          "paramId": 36,
          "value": 3.15497708
        },
        {
          "paramId": 52,
          "value": 3.40643954
        },
        {
          "paramId": 68,
          "value": 0.0
        },
        {
          "paramId": 21,
          "value": 2.98676372
        },
        {
          "paramId": 37,
          "value": 2.56311297
        },
        {
          "paramId": 53,
          "value": 3.33817434
        },
        {
          "paramId": 69,
          "value": 0.0
        },
        {
          "paramId": 22,
          "value": 2.34943485
        },
        {
          "paramId": 38,
          "value": 1.46314096
        },
        {
          "paramId": 54,
          "value": 2.49449253
        },
        {
          "paramId": 70,
          "value": 0.0
        },
        {
          "paramId": 23,
          "value": 1.13499916
        },
        {
          "paramId": 39,
          "value": 0.220138431
        },
        {
          "paramId": 55,
          "value": 2.32386661
        },
        {
          "paramId": 71,
          "value": 0.0
        }
      ],
      "data": {
        "running": true,
        "gates": [
          1,
          1,
          1,
          1,
          1,
          1,
          1,
          1,
          1,
          1,
          1,
          1,
          1,
          1,
          1,
          1
        ],
        "gateMode": 1
      },
      "pos": [
        10,
        1
      ]
    },
    {
      "plugin": "21kHz",
      "version": "0.6.1",
      "model": "kHzPalmLoop",
      "params": [
        {
          "paramId": 0,
          "value": 4.0
        },
        {
          "paramId": 1,
          "value": 1.0
        },
        {
          "paramId": 2,
          "value": -0.0121617988
        },
        {
          "paramId": 3,
          "value": -0.0784183964
        },
        {
          "paramId": 4,
          "value": 3.19085503
        }
      ],
      "pos": [
        44,
        2
      ]
    },
    {
      "plugin": "Befaco",
      "version": "0.6.0",
      "model": "Rampage",
      "params": [
        {
          "paramId": 0,
          "value": 1.0
        },
        {
          "paramId": 2,
          "value": -0.944782138
        },
        {
          "paramId": 4,
          "value": 0.0
        },
        {
          "paramId": 6,
          "value": 0.185581088
        },
        {
          "paramId": 8,
          "value": 0.0960000008
        },
        {
          "paramId": 10,
          "value": 1.0
        },
        {
          "paramId": 1,
          "value": 0.0
        },
        {
          "paramId": 3,
          "value": 0.127167597
        },
        {
          "paramId": 5,
          "value": 0.0
        },
        {
          "paramId": 7,
          "value": 0.388110936
        },
        {
          "paramId": 9,
          "value": 0.137736604
        },
        {
          "paramId": 11,
          "value": 0.0
        },
        {
          "paramId": 12,
          "value": 0.303000122
        }
      ],
      "pos": [
        52,
        2
      ]
    },
    {
      "plugin": "AS",
      "version": "0.6.12",
      "model": "Mixer8ch",
      "params": [
        {
          "paramId": 9,
          "value": 0.0
        },
        {
          "paramId": 10,
          "value": 0.0
        },
        {
          "paramId": 11,
          "value": 0.0
        },
        {
          "paramId": 12,
          "value": 0.0
        },
        {
          "paramId": 13,
          "value": 0.0
        },
        {
          "paramId": 14,
          "value": 0.0
        },
        {
          "paramId": 15,
          "value": 0.0
        },
        {
          "paramId": 16,
          "value": 0.0
        },
        {
          "paramId": 1,
          "value": 0.229999959
        },
        {
          "paramId": 2,
          "value": 0.210999921
        },
        {
          "paramId": 3,
          "value": 0.807999492
        },
        {
          "paramId": 4,
          "value": 0.705999672
        },
        {
          "paramId": 5,
          "value": 0.750999868
        },
        {
          "paramId": 6,
          "value": 0.800000012
        },
        {
          "paramId": 7,
          "value": 0.800000012
        },
        {
          "paramId": 8,
          "value": 0.800000012
        },
        {
          "paramId": 17,
          "value": 0.0
        },
        {
          "paramId": 18,
          "value": 0.0
        },
        {
          "paramId": 19,
          "value": 0.0
        },
        {
          "paramId": 20,
          "value": 0.0
        },
        {
          "paramId": 21,
          "value": 0.0
        },
        {
          "paramId": 22,
          "value": 0.0
        },
        {
          "paramId": 23,
          "value": 0.0
        },
        {
          "paramId": 24,
          "value": 0.0
        },
        {
          "paramId": 0,
          "value": 0.800000012
        },
        {
          "paramId": 25,
          "value": 0.0
        }
      ],
      "data": {
        "as_MixerMutes": [
          0,
          0,
          0,
          0,
          0,
          0,
          0,
          0,
          0
        ]
      },
      "pos": [
        60,
        0
      ]
    },
    {
      "plugin": "AS",
      "version": "0.6.12",
      "model": "QuadVCA",
      "params": [
        {
          "paramId": 0,
          "value": 0.741999984
        },
        {
          "paramId": 1,
          "value": 0.336999923
        },
        {
          "paramId": 2,
          "value": 0.618999898
        },
        {
          "paramId": 3,
          "value": 0.5
        },
        {
          "paramId": 4,
          "value": 1.0
        },
        {
          "paramId": 5,
          "value": 1.0
        },
        {
          "paramId": 6,
          "value": 1.0
        },
        {
          "paramId": 7,
          "value": 1.0
        }
      ],
      "pos": [
        106,
        3
      ]
    },
    {
      "plugin": "Bogaudio",
      "version": "0.6.13",
      "model": "Bogaudio-Pressor",
      "params": [
        {
          "paramId": 0,
          "value": 0.289499909
        },
        {
          "paramId": 1,
          "value": 0.495819867
        },
        {
          "paramId": 2,
          "value": 0.381416529
        },
        {
          "paramId": 3,
          "value": 0.694951773
        },
        {
          "paramId": 4,
          "value": 0.671500027
        },
        {
          "paramId": 5,
          "value": 0.465351522
        },
        {
          "paramId": 6,
          "value": -0.378872931
        },
        {
          "paramId": 7,
          "value": 1.0
        },
        {
          "paramId": 8,
          "value": 1.0
        },
        {
          "paramId": 9,
          "value": 1.0
        }
      ],
      "pos": [
        0,
        5
      ]
    },
    {
      "plugin": "AudibleInstruments",
      "version": "0.6.3",
      "model": "Branches",
      "params": [
        {
          "paramId": 0,
          "value": 0.459499657
        },
        {
          "paramId": 2,
          "value": 0.0
        },
        {
          "paramId": 1,
          "value": 0.1264994
        },
        {
          "paramId": 3,
          "value": 0.0
        }
      ],
      "data": {
        "modes": [
          false,
          false
        ]
      },
      "pos": [
        70,
        2
      ]
    },
    {
      "plugin": "DrumKit",
      "version": "0.6.4",
      "model": "Snare Drum N",
      "params": [
        {
          "paramId": 0,
          "value": 2.0
        },
        {
          "paramId": 1,
          "value": 11.0
        }
      ],
      "pos": [
        164,
        4
      ]
    },
    {
      "plugin": "DrumKit",
      "version": "0.6.4",
      "model": "Synthetic Bass Drum",
      "params": [
        {
          "paramId": 0,
          "value": 2.65499926
        },
        {
          "paramId": 1,
          "value": 0.751999974
        },
        {
          "paramId": 2,
          "value": 1.04999983
        },
        {
          "paramId": 3,
          "value": 0.788000107
        },
        {
          "paramId": 4,
          "value": 5.82500172
        },
        {
          "paramId": 5,
          "value": 1.48625016
        },
        {
          "paramId": 6,
          "value": 0.0
        },
        {
          "paramId": 7,
          "value": 1.0
        }
      ],
      "pos": [
        76,
        2
      ]
    },
    {
      "plugin": "AudibleInstruments",
      "version": "0.6.3",
      "model": "Veils",
      "params": [
        {
          "paramId": 0,
          "value": 0.857500672
        },
        {
          "paramId": 1,
          "value": 0.512499809
        },
        {
          "paramId": 2,
          "value": 1.0
        },
        {
          "paramId": 3,
          "value": 0.558000028
        },
        {
          "paramId": 4,
          "value": 0.092499949
        },
        {
          "paramId": 5,
          "value": 0.0535000488
        },
        {
          "paramId": 6,
          "value": 1.0
        },
        {
          "paramId": 7,
          "value": 0.125499934
        }
      ],
      "pos": [
        22,
        0
      ]
    },
    {
      "plugin": "AudibleInstruments",
      "version": "0.6.3",
      "model": "Veils",
      "params": [
        {
          "paramId": 0,
          "value": 1.0
        },
        {
          "paramId": 1,
          "value": 0.729999542
        },
        {
          "paramId": 2,
          "value": 0.938999951
        },
        {
          "paramId": 3,
          "value": 1.0
        },
        {
          "paramId": 4,
          "value": 0.532000005
        },
        {
          "paramId": 5,
          "value": 0.0774999112
        },
        {
          "paramId": 6,
          "value": 0.533500314
        },
        {
          "paramId": 7,
          "value": 0.331000119
        }
      ],
      "pos": [
        10,
        0
      ]
    },
    {
      "plugin": "squinkylabs-plug1",
      "version": "0.6.14",
      "model": "squinkylabs-vocalanimator",
      "params": [
        {
          "paramId": 0,
          "value": -0.576197743
        },
        {
          "paramId": 4,
          "value": 0.424380392
        },
        {
          "paramId": 10,
          "value": 0.0
        },
        {
          "paramId": 2,
          "value": -2.8162322
        },
        {
          "paramId": 6,
          "value": -0.714555144
        },
        {
          "paramId": 1,
          "value": -3.19412446
        },
        {
          "paramId": 5,
          "value": 0.0425462723
        },
        {
          "paramId": 3,
          "value": -3.76695395
        },
        {
          "paramId": 7,
          "value": -0.890451789
        },
        {
          "paramId": 8,
          "value": 0.0
        }
      ],
      "pos": [
        75,
        1
      ]
    },
    {
      "plugin": "AS",
      "version": "0.6.12",
      "model": "Mixer8ch",
      "params": [
        {
          "paramId": 9,
          "value": 0.0
        },
        {
          "paramId": 10,
          "value": 0.0
        },
        {
          "paramId": 11,
          "value": 0.0
        },
        {
          "paramId": 12,
          "value": 0.0
        },
        {
          "paramId": 13,
          "value": 0.0
        },
        {
          "paramId": 14,
          "value": 0.0
        },
        {
          "paramId": 15,
          "value": 0.0
        },
        {
          "paramId": 16,
          "value": 0.0
        },
        {
          "paramId": 1,
          "value": 0.837999642
        },
        {
          "paramId": 2,
          "value": 0.647000015
        },
        {
          "paramId": 3,
          "value": 1.0
        },
        {
          "paramId": 4,
          "value": 0.637999237
        },
        {
          "paramId": 5,
          "value": 0.295000076
        },
        {
          "paramId": 6,
          "value": 0.463998079
        },
        {
          "paramId": 7,
          "value": 0.520999551
        },
        {
          "paramId": 8,
          "value": 0.352999777
        },
        {
          "paramId": 17,
          "value": 0.0
        },
        {
          "paramId": 18,
          "value": 0.0
        },
        {
          "paramId": 19,
          "value": 0.0
        },
        {
          "paramId": 20,
          "value": 0.0
        },
        {
          "paramId": 21,
          "value": 0.0
        },
        {
          "paramId": 22,
          "value": 0.0
        },
        {
          "paramId": 23,
          "value": 0.0
        },
        {
          "paramId": 24,
          "value": 0.0
        },
        {
          "paramId": 0,
          "value": 0.800000012
        },
        {
          "paramId": 25,
          "value": 0.0
        }
      ],
      "data": {
        "as_MixerMutes": [
          0,
          0,
          0,
          0,
          0,
          0,
          0,
          0,
          0
        ]
      },
      "pos": [
        34,
        0
      ]
    },
    {
      "plugin": "Befaco",
      "version": "0.6.0",
      "model": "EvenVCO",
      "params": [
        {
          "paramId": 0,
          "value": -5.0
        },
        {
          "paramId": 1,
          "value": 0.252002656
        },
        {
          "paramId": 2,
          "value": 0.0
        }
      ],
      "pos": [
        128,
        0
      ]
    },
    {
      "plugin": "dBiz",
      "version": "0.6.1",
      "model": "Chord",
      "params": [
        {
          "paramId": 3,
          "value": 0.358735025
        },
        {
          "paramId": 4,
          "value": 0.262102485
        },
        {
          "paramId": 5,
          "value": 0.320298016
        },
        {
          "paramId": 0,
          "value": 0.211121067
        },
        {
          "paramId": 1,
          "value": 0.276456714
        },
        {
          "paramId": 2,
          "value": 0.312168926
        },
        {
          "paramId": 6,
          "value": 0.48278451
        },
        {
          "paramId": 7,
          "value": 0.786997199
        },
        {
          "paramId": 8,
          "value": 0.60464561
        },
        {
          "paramId": 15,
          "value": 0.0
        },
        {
          "paramId": 16,
          "value": 0.0220922828
        },
        {
          "paramId": 9,
          "value": 0.60207659
        },
        {
          "paramId": 10,
          "value": 0.0
        },
        {
          "paramId": 11,
          "value": 0.705540717
        },
        {
          "paramId": 12,
          "value": 0.0
        },
        {
          "paramId": 13,
          "value": 1.0
        },
        {
          "paramId": 14,
          "value": 0.0
        }
      ],
      "pos": [
        97,
        1
      ]
    },
    {
      "plugin": "luckyxxl",
      "version": "0.6.0",
      "model": "Tick",
      "params": [
        {
          "paramId": 0,
          "value": 119.984329
        }
      ],
      "pos": [
        88,
        2
      ]
    },
    {
      "plugin": "Autinn",
      "version": "0.6.8",
      "model": "Square",
      "params": [
        {
          "paramId": 0,
          "value": -2.51061249
        }
      ],
      "pos": [
        118,
        0
      ]
    },
    {
      "plugin": "Geodesics",
      "version": "0.6.4",
      "model": "BlackHoles",
      "params": [
        {
          "paramId": 0,
          "value": 0.588849247
        },
        {
          "paramId": 1,
          "value": 0.35640949
        },
        {
          "paramId": 2,
          "value": 0.77300024
        },
        {
          "paramId": 3,
          "value": 0.440000206
        },
        {
          "paramId": 4,
          "value": -0.701469541
        },
        {
          "paramId": 5,
          "value": -0.437638283
        },
        {
          "paramId": 6,
          "value": -0.519906998
        },
        {
          "paramId": 7,
          "value": -0.862270355
        },
        {
          "paramId": 8,
          "value": 0.0
        },
        {
          "paramId": 9,
          "value": 0.0
        },
        {
          "paramId": 10,
          "value": 0.0
        },
        {
          "paramId": 11,
          "value": 0.0
        },
        {
          "paramId": 12,
          "value": 0.0
        }
      ],
      "data": {
        "isExponential0": 0.0,
        "isExponential1": 0.0,
        "wormhole": false,
        "panelTheme": 0,
        "cvMode": 2
      },
      "pos": [
        106,
        1
      ]
    },
    {
      "plugin": "Southpole",
      "version": "0.6.0",
      "model": "Piste",
      "params": [
        {
          "paramId": 6,
          "value": 0.631500185
        },
        {
          "paramId": 0,
          "value": 0.261000007
        },
        {
          "paramId": 1,
          "value": 0.709499896
        },
        {
          "paramId": 4,
          "value": 0.310999781
        },
        {
          "paramId": 5,
          "value": 0.612999976
        },
        {
          "paramId": 2,
          "value": 0.451999724
        },
        {
          "paramId": 3,
          "value": 0.86499989
        }
      ],
      "pos": [
        167,
        4
      ]
    },
    {
      "plugin": "Southpole",
      "version": "0.6.0",
      "model": "Piste",
      "params": [
        {
          "paramId": 6,
          "value": 0.647499681
        },
        {
          "paramId": 0,
          "value": 0.261255831
        },
        {
          "paramId": 1,
          "value": 0.743894637
        },
        {
          "paramId": 4,
          "value": 0.271852136
        },
        {
          "paramId": 5,
          "value": 0.36886245
        },
        {
          "paramId": 2,
          "value": 0.629145682
        },
        {
          "paramId": 3,
          "value": 0.638006628
        }
      ],
      "pos": [
        171,
        4
      ]
    },
    {
      "plugin": "Southpole",
      "version": "0.6.0",
      "model": "Piste",
      "params": [
        {
          "paramId": 6,
          "value": 0.822999716
        },
        {
          "paramId": 0,
          "value": -0.380001128
        },
        {
          "paramId": 1,
          "value": 0.548500001
        },
        {
          "paramId": 4,
          "value": 0.717352092
        },
        {
          "paramId": 5,
          "value": 0.685000002
        },
        {
          "paramId": 2,
          "value": 0.434499741
        },
        {
          "paramId": 3,
          "value": 0.905499935
        }
      ],
      "pos": [
        175,
        4
      ]
    },
    {
      "plugin": "RJModules",
      "version": "0.6.1",
      "model": "Stutter",
      "params": [
        {
          "paramId": 2,
          "value": 0.0
        },
        {
          "paramId": 0,
          "value": 0.0
        },
        {
          "paramId": 1,
          "value": 0.690000057
        }
      ],
      "pos": [
        0,
        1
      ]
    },
    {
      "plugin": "Autinn",
      "version": "0.6.8",
      "model": "Square",
      "params": [
        {
          "paramId": 0,
          "value": -2.69400239
        }
      ],
      "pos": [
        123,
        0
      ]
    },
    {
      "plugin": "AmalgamatedHarmonics",
      "version": "0.6.4",
      "model": "ScaleQuantizer2",
      "params": [
        {
          "paramId": 0,
          "value": 7.0
        },
        {
          "paramId": 1,
          "value": 8.0
        },
        {
          "paramId": 10,
          "value": 0.0
        },
        {
          "paramId": 2,
          "value": -1.0
        },
        {
          "paramId": 3,
          "value": -1.0
        },
        {
          "paramId": 4,
          "value": -2.0
        },
        {
          "paramId": 5,
          "value": -2.0
        },
        {
          "paramId": 6,
          "value": -2.0
        },
        {
          "paramId": 7,
          "value": 0.0
        },
        {
          "paramId": 8,
          "value": 0.0
        },
        {
          "paramId": 9,
          "value": 0.0
        }
      ],
      "pos": [
        34,
        4
      ]
    },
    {
      "plugin": "Bogaudio",
      "version": "0.6.13",
      "model": "Bogaudio-Additator",
      "params": [
        {
          "paramId": 0,
          "value": -3.0
        },
        {
          "paramId": 1,
          "value": 60.0
        },
        {
          "paramId": 10,
          "value": 0.0
        },
        {
          "paramId": 2,
          "value": 1.16499972
        },
        {
          "paramId": 3,
          "value": 0.311850011
        },
        {
          "paramId": 4,
          "value": 0.178200006
        },
        {
          "paramId": 5,
          "value": 1.7880044
        },
        {
          "paramId": 6,
          "value": -0.0439998209
        },
        {
          "paramId": 7,
          "value": 0.186000004
        },
        {
          "paramId": 8,
          "value": 1.14040339
        },
        {
          "paramId": 9,
          "value": 1.0
        }
      ],
      "pos": [
        100,
        0
      ]
    },
    {
      "plugin": "SynthKit",
      "version": "0.6.2",
      "model": "Fibonacci Clock Divider",
      "params": [],
      "pos": [
        104,
        2
      ]
    },
    {
      "plugin": "FrozenWasteland",
      "version": "0.6.7",
      "model": "HairPick",
      "params": [
        {
          "paramId": 0,
          "value": 0.0
        },
        {
          "paramId": 1,
          "value": 3.57467794
        },
        {
          "paramId": 2,
          "value": 3.41999984
        },
        {
          "paramId": 3,
          "value": 45.4780121
        },
        {
          "paramId": 4,
          "value": 0.633500874
        },
        {
          "paramId": 5,
          "value": 0.796999454
        },
        {
          "paramId": 6,
          "value": 17.9195156
        },
        {
          "paramId": 7,
          "value": 0.751499772
        },
        {
          "paramId": 8,
          "value": 0.657000184
        }
      ],
      "pos": [
        86,
        0
      ]
    }
  ],
  "wires": [
    {
      "color": "#c9b70e",
      "outputModuleId": 3,
      "outputId": 1,
      "inputModuleId": 2,
      "inputId": 3
    },
    {
      "color": "#0986ad",
      "outputModuleId": 26,
      "outputId": 3,
      "inputModuleId": 4,
      "inputId": 1
    },
    {
      "color": "#0c8e15",
      "outputModuleId": 2,
      "outputId": 1,
      "inputModuleId": 4,
      "inputId": 2
    },
    {
      "color": "#0986ad",
      "outputModuleId": 1,
      "outputId": 0,
      "inputModuleId": 29,
      "inputId": 12
    },
    {
      "color": "#c9b70e",
      "outputModuleId": 1,
      "outputId": 1,
      "inputModuleId": 29,
      "inputId": 11
    },
    {
      "color": "#c91847",
      "outputModuleId": 3,
      "outputId": 0,
      "inputModuleId": 1,
      "inputId": 6
    },
    {
      "color": "#0c8e15",
      "outputModuleId": 4,
      "outputId": 3,
      "inputModuleId": 1,
      "inputId": 0
    },
    {
      "color": "#0986ad",
      "outputModuleId": 4,
      "outputId": 0,
      "inputModuleId": 1,
      "inputId": 1
    },
    {
      "color": "#c9b70e",
      "outputModuleId": 4,
      "outputId": 2,
      "inputModuleId": 5,
      "inputId": 0
    },
    {
      "color": "#c91847",
      "outputModuleId": 4,
      "outputId": 2,
      "inputModuleId": 5,
      "inputId": 1
    },
    {
      "color": "#0c8e15",
      "outputModuleId": 6,
      "outputId": 0,
      "inputModuleId": 8,
      "inputId": 4
    },
    {
      "color": "#0986ad",
      "outputModuleId": 6,
      "outputId": 1,
      "inputModuleId": 8,
      "inputId": 0
    },
    {
      "color": "#c9b70e",
      "outputModuleId": 5,
      "outputId": 6,
      "inputModuleId": 7,
      "inputId": 1
    },
    {
      "color": "#c91847",
      "outputModuleId": 5,
      "outputId": 7,
      "inputModuleId": 7,
      "inputId": 3
    },
    {
      "color": "#0c8e15",
      "outputModuleId": 5,
      "outputId": 10,
      "inputModuleId": 7,
      "inputId": 5
    },
    {
      "color": "#c91847",
      "outputModuleId": 7,
      "outputId": 0,
      "inputModuleId": 6,
      "inputId": 7
    },
    {
      "color": "#0c8e15",
      "outputModuleId": 7,
      "outputId": 1,
      "inputModuleId": 6,
      "inputId": 10
    },
    {
      "color": "#0986ad",
      "outputModuleId": 7,
      "outputId": 2,
      "inputModuleId": 6,
      "inputId": 13
    },
    {
      "color": "#c9b70e",
      "outputModuleId": 3,
      "outputId": 10,
      "inputModuleId": 1,
      "inputId": 4
    },
    {
      "color": "#c91847",
      "outputModuleId": 3,
      "outputId": 13,
      "inputModuleId": 1,
      "inputId": 2
    },
    {
      "color": "#0c8e15",
      "outputModuleId": 8,
      "outputId": 1,
      "inputModuleId": 14,
      "inputId": 0
    },
    {
      "color": "#0986ad",
      "outputModuleId": 8,
      "outputId": 2,
      "inputModuleId": 12,
      "inputId": 1
    },
    {
      "color": "#c91847",
      "outputModuleId": 8,
      "outputId": 0,
      "inputModuleId": 5,
      "inputId": 2
    },
    {
      "color": "#0c8e15",
      "outputModuleId": 8,
      "outputId": 0,
      "inputModuleId": 5,
      "inputId": 3
    },
    {
      "color": "#0986ad",
      "outputModuleId": 3,
      "outputId": 3,
      "inputModuleId": 8,
      "inputId": 8
    },
    {
      "color": "#c9b70e",
      "outputModuleId": 3,
      "outputId": 2,
      "inputModuleId": 8,
      "inputId": 7
    },
    {
      "color": "#0c8e15",
      "outputModuleId": 2,
      "outputId": 0,
      "inputModuleId": 4,
      "inputId": 3
    },
    {
      "color": "#0986ad",
      "outputModuleId": 3,
      "outputId": 2,
      "inputModuleId": 2,
      "inputId": 2
    },
    {
      "color": "#c9b70e",
      "outputModuleId": 3,
      "outputId": 2,
      "inputModuleId": 2,
      "inputId": 1
    },
    {
      "color": "#c91847",
      "outputModuleId": 3,
      "outputId": 16,
      "inputModuleId": 9,
      "inputId": 0
    },
    {
      "color": "#0986ad",
      "outputModuleId": 9,
      "outputId": 0,
      "inputModuleId": 9,
      "inputId": 1
    },
    {
      "color": "#c9b70e",
      "outputModuleId": 4,
      "outputId": 1,
      "inputModuleId": 9,
      "inputId": 2
    },
    {
      "color": "#c91847",
      "outputModuleId": 9,
      "outputId": 1,
      "inputModuleId": 2,
      "inputId": 0
    },
    {
      "color": "#0c8e15",
      "outputModuleId": 4,
      "outputId": 4,
      "inputModuleId": 9,
      "inputId": 3
    },
    {
      "color": "#c9b70e",
      "outputModuleId": 3,
      "outputId": 0,
      "inputModuleId": 28,
      "inputId": 0
    },
    {
      "color": "#0c8e15",
      "outputModuleId": 14,
      "outputId": 0,
      "inputModuleId": 12,
      "inputId": 0
    },
    {
      "color": "#0986ad",
      "outputModuleId": 12,
      "outputId": 0,
      "inputModuleId": 15,
      "inputId": 1
    },
    {
      "color": "#c9b70e",
      "outputModuleId": 14,
      "outputId": 2,
      "inputModuleId": 5,
      "inputId": 8
    },
    {
      "color": "#c91847",
      "outputModuleId": 14,
      "outputId": 3,
      "inputModuleId": 5,
      "inputId": 9
    },
    {
      "color": "#0c8e15",
      "outputModuleId": 12,
      "outputId": 1,
      "inputModuleId": 15,
      "inputId": 4
    },
    {
      "color": "#0986ad",
      "outputModuleId": 15,
      "outputId": 0,
      "inputModuleId": 0,
      "inputId": 0
    },
    {
      "color": "#c9b70e",
      "outputModuleId": 15,
      "outputId": 1,
      "inputModuleId": 0,
      "inputId": 1
    },
    {
      "color": "#c91847",
      "outputModuleId": 16,
      "outputId": 0,
      "inputModuleId": 17,
      "inputId": 0
    },
    {
      "color": "#0c8e15",
      "outputModuleId": 26,
      "outputId": 2,
      "inputModuleId": 16,
      "inputId": 1
    },
    {
      "color": "#c9b70e",
      "outputModuleId": 17,
      "outputId": 6,
      "inputModuleId": 13,
      "inputId": 3
    },
    {
      "color": "#c91847",
      "outputModuleId": 16,
      "outputId": 2,
      "inputModuleId": 17,
      "inputId": 10
    },
    {
      "color": "#0c8e15",
      "outputModuleId": 17,
      "outputId": 4,
      "inputModuleId": 17,
      "inputId": 1
    },
    {
      "color": "#0986ad",
      "outputModuleId": 17,
      "outputId": 1,
      "inputModuleId": 17,
      "inputId": 2
    },
    {
      "color": "#c9b70e",
      "outputModuleId": 17,
      "outputId": 0,
      "inputModuleId": 17,
      "inputId": 3
    },
    {
      "color": "#c91847",
      "outputModuleId": 17,
      "outputId": 7,
      "inputModuleId": 17,
      "inputId": 8
    },
    {
      "color": "#0c8e15",
      "outputModuleId": 17,
      "outputId": 3,
      "inputModuleId": 17,
      "inputId": 13
    },
    {
      "color": "#0986ad",
      "outputModuleId": 17,
      "outputId": 5,
      "inputModuleId": 17,
      "inputId": 12
    },
    {
      "color": "#c9b70e",
      "outputModuleId": 17,
      "outputId": 2,
      "inputModuleId": 17,
      "inputId": 5
    },
    {
      "color": "#0c8e15",
      "outputModuleId": 11,
      "outputId": 0,
      "inputModuleId": 13,
      "inputId": 2
    },
    {
      "color": "#0986ad",
      "outputModuleId": 10,
      "outputId": 0,
      "inputModuleId": 13,
      "inputId": 0
    },
    {
      "color": "#c9b70e",
      "outputModuleId": 13,
      "outputId": 2,
      "inputModuleId": 23,
      "inputId": 0
    },
    {
      "color": "#0c8e15",
      "outputModuleId": 10,
      "outputId": 1,
      "inputModuleId": 13,
      "inputId": 1
    },
    {
      "color": "#0986ad",
      "outputModuleId": 13,
      "outputId": 1,
      "inputModuleId": 21,
      "inputId": 0
    },
    {
      "color": "#c9b70e",
      "outputModuleId": 13,
      "outputId": 0,
      "inputModuleId": 22,
      "inputId": 0
    },
    {
      "color": "#c91847",
      "outputModuleId": 18,
      "outputId": 2,
      "inputModuleId": 3,
      "inputId": 1
    },
    {
      "color": "#0c8e15",
      "outputModuleId": 19,
      "outputId": 0,
      "inputModuleId": 20,
      "inputId": 4
    },
    {
      "color": "#0986ad",
      "outputModuleId": 20,
      "outputId": 8,
      "inputModuleId": 12,
      "inputId": 3
    },
    {
      "color": "#c9b70e",
      "outputModuleId": 12,
      "outputId": 3,
      "inputModuleId": 15,
      "inputId": 19
    },
    {
      "color": "#c91847",
      "outputModuleId": 26,
      "outputId": 0,
      "inputModuleId": 19,
      "inputId": 0
    },
    {
      "color": "#0c8e15",
      "outputModuleId": 20,
      "outputId": 2,
      "inputModuleId": 14,
      "inputId": 3
    },
    {
      "color": "#c9b70e",
      "outputModuleId": 16,
      "outputId": 3,
      "inputModuleId": 20,
      "inputId": 11
    },
    {
      "color": "#0c8e15",
      "outputModuleId": 16,
      "outputId": 1,
      "inputModuleId": 20,
      "inputId": 2
    },
    {
      "color": "#0986ad",
      "outputModuleId": 21,
      "outputId": 2,
      "inputModuleId": 15,
      "inputId": 16
    },
    {
      "color": "#c9b70e",
      "outputModuleId": 22,
      "outputId": 2,
      "inputModuleId": 15,
      "inputId": 13
    },
    {
      "color": "#c9b70e",
      "outputModuleId": 23,
      "outputId": 2,
      "inputModuleId": 15,
      "inputId": 10
    },
    {
      "color": "#0986ad",
      "outputModuleId": 24,
      "outputId": 0,
      "inputModuleId": 22,
      "inputId": 3
    },
    {
      "color": "#c9b70e",
      "outputModuleId": 16,
      "outputId": 2,
      "inputModuleId": 24,
      "inputId": 0
    },
    {
      "color": "#c91847",
      "outputModuleId": 16,
      "outputId": 4,
      "inputModuleId": 24,
      "inputId": 2
    },
    {
      "color": "#0c8e15",
      "outputModuleId": 26,
      "outputId": 1,
      "inputModuleId": 25,
      "inputId": 0
    },
    {
      "color": "#0986ad",
      "outputModuleId": 25,
      "outputId": 0,
      "inputModuleId": 20,
      "inputId": 9
    },
    {
      "color": "#c91847",
      "outputModuleId": 3,
      "outputId": 0,
      "inputModuleId": 24,
      "inputId": 3
    },
    {
      "color": "#0c8e15",
      "outputModuleId": 3,
      "outputId": 0,
      "inputModuleId": 21,
      "inputId": 3
    },
    {
      "color": "#0986ad",
      "outputModuleId": 3,
      "outputId": 0,
      "inputModuleId": 23,
      "inputId": 3
    },
    {
      "color": "#c9b70e",
      "outputModuleId": 3,
      "outputId": 0,
      "inputModuleId": 11,
      "inputId": 0
    },
    {
      "color": "#c91847",
      "outputModuleId": 3,
      "outputId": 3,
      "inputModuleId": 26,
      "inputId": 0
    },
    {
      "color": "#0c8e15",
      "outputModuleId": 3,
      "outputId": 2,
      "inputModuleId": 26,
      "inputId": 1
    },
    {
      "color": "#0986ad",
      "outputModuleId": 3,
      "outputId": 3,
      "inputModuleId": 26,
      "inputId": 2
    },
    {
      "color": "#c9b70e",
      "outputModuleId": 3,
      "outputId": 2,
      "inputModuleId": 26,
      "inputId": 3
    },
    {
      "color": "#c91847",
      "outputModuleId": 27,
      "outputId": 0,
      "inputModuleId": 12,
      "inputId": 2
    },
    {
      "color": "#0c8e15",
      "outputModuleId": 12,
      "outputId": 2,
      "inputModuleId": 15,
      "inputId": 22
    },
    {
      "color": "#0986ad",
      "outputModuleId": 26,
      "outputId": 4,
      "inputModuleId": 27,
      "inputId": 0
    },
    {
      "color": "#c9b70e",
      "outputModuleId": 3,
      "outputId": 1,
      "inputModuleId": 26,
      "inputId": 4
    },
    {
      "color": "#c9b70e",
      "outputModuleId": 22,
      "outputId": 2,
      "inputModuleId": 10,
      "inputId": 1
    },
    {
      "color": "#c91847",
      "outputModuleId": 3,
      "outputId": 2,
      "inputModuleId": 23,
      "inputId": 4
    },
    {
      "color": "#0c8e15",
      "outputModuleId": 28,
      "outputId": 0,
      "inputModuleId": 10,
      "inputId": 0
    },
    {
      "color": "#c9b70e",
      "outputModuleId": 13,
      "outputId": 3,
      "inputModuleId": 15,
      "inputId": 7
    },
    {
      "color": "#0986ad",
      "outputModuleId": 29,
      "outputId": 1,
      "inputModuleId": 6,
      "inputId": 4
    },
    {
      "color": "#c9b70e",
      "outputModuleId": 29,
      "outputId": 0,
      "inputModuleId": 6,
      "inputId": 1
    },
    {
      "color": "#c91847",
      "outputModuleId": 20,
      "outputId": 1,
      "inputModuleId": 27,
      "inputId": 4
    },
    {
      "color": "#0c8e15",
      "outputModuleId": 5,
      "outputId": 2,
      "inputModuleId": 5,
      "inputId": 5
    },
    {
      "color": "#0986ad",
      "outputModuleId": 5,
      "outputId": 3,
      "inputModuleId": 5,
      "inputId": 4
    },
    {
      "color": "#c9b70e",
      "outputModuleId": 5,
      "outputId": 0,
      "inputModuleId": 5,
      "inputId": 7
    }
  ]
}