{
  "version": "0.6.2b",
  "modules": [
    {
      "plugin": "Core",
      "version": "0.6.2b",
      "model": "AudioInterface",
      "params": [],
      "data": {
        "audio": {
          "driver": 5,
          "deviceName": "Apple Inc.: Built-in Output",
          "offset": 0,
          "maxChannels": 8,
          "sampleRate": 44100,
          "blockSize": 256
        }
      },
      "pos": [
        0,
        0
      ]
    },
    {
      "plugin": "Geodesics",
      "version": "0.6.4",
      "model": "Pulsars",
      "params": [
        {
          "paramId": 0,
          "value": 0.0
        },
        {
          "paramId": 2,
          "value": 0.0
        },
        {
          "paramId": 4,
          "value": 0.0
        },
        {
          "paramId": 6,
          "value": 0.0
        },
        {
          "paramId": 1,
          "value": 0.0
        },
        {
          "paramId": 3,
          "value": 0.0
        },
        {
          "paramId": 5,
          "value": 0.0
        },
        {
          "paramId": 7,
          "value": 0.0
        }
      ],
      "data": {
        "isVoid0": 0.0,
        "isVoid1": 1.0,
        "isReverse0": 0.0,
        "isReverse1": 0.0,
        "isRandom0": 1.0,
        "isRandom1": 1.0,
        "panelTheme": 0,
        "cvMode": 0
      },
      "pos": [
        10,
        0
      ]
    },
    {
      "plugin": "FrozenWasteland",
      "version": "0.6.7",
      "model": "LissajousLFO",
      "params": [
        {
          "paramId": 0,
          "value": 2.04329681
        },
        {
          "paramId": 2,
          "value": -0.446445942
        },
        {
          "paramId": 3,
          "value": 2.20125604
        },
        {
          "paramId": 1,
          "value": 3.92164111
        },
        {
          "paramId": 4,
          "value": -4.63843966
        },
        {
          "paramId": 5,
          "value": 3.0
        }
      ],
      "pos": [
        31,
        0
      ]
    },
    {
      "plugin": "Befaco",
      "version": "0.6.0",
      "model": "EvenVCO",
      "params": [
        {
          "paramId": 0,
          "value": -4.0
        },
        {
          "paramId": 1,
          "value": 0.147088259
        },
        {
          "paramId": 2,
          "value": 0.190518379
        }
      ],
      "pos": [
        33,
        1
      ]
    },
    {
      "plugin": "CharredDesert",
      "version": "0.6.4",
      "model": "Oscar^2",
      "params": [
        {
          "paramId": 0,
          "value": 1.0
        },
        {
          "paramId": 2,
          "value": 2.65114856
        },
        {
          "paramId": 4,
          "value": -3.0
        },
        {
          "paramId": 6,
          "value": 0.0368958935
        },
        {
          "paramId": 8,
          "value": 1.11500025
        },
        {
          "paramId": 11,
          "value": 1.0
        },
        {
          "paramId": 1,
          "value": 2.0
        },
        {
          "paramId": 3,
          "value": 6.50539064
        },
        {
          "paramId": 5,
          "value": -2.0
        },
        {
          "paramId": 7,
          "value": 0.0253379513
        },
        {
          "paramId": 9,
          "value": 3.32249999
        },
        {
          "paramId": 12,
          "value": 0.0
        },
        {
          "paramId": 10,
          "value": 10.0
        }
      ],
      "pos": [
        21,
        0
      ]
    },
    {
      "plugin": "ParableInstruments",
      "version": "0.6.0",
      "model": "Neil",
      "params": [
        {
          "paramId": 0,
          "value": 0.296500087
        },
        {
          "paramId": 1,
          "value": 0.397726357
        },
        {
          "paramId": 2,
          "value": 0.619255543
        },
        {
          "paramId": 3,
          "value": 0.792002082
        },
        {
          "paramId": 4,
          "value": 0.703640878
        },
        {
          "paramId": 5,
          "value": 0.261893094
        },
        {
          "paramId": 6,
          "value": 0.731196404
        },
        {
          "paramId": 7,
          "value": 0.429647744
        },
        {
          "paramId": 8,
          "value": 0.586745918
        },
        {
          "paramId": 9,
          "value": 0.829307795
        },
        {
          "paramId": 10,
          "value": 0.0
        },
        {
          "paramId": 11,
          "value": 0.0
        }
      ],
      "data": {
        "playbackmode": 2,
        "lofi": 1,
        "mono": 0,
        "freeze": 1,
        "buffersize": 1,
        "reverse": 1
      },
      "pos": [
        41,
        1
      ]
    },
    {
      "plugin": "Bogaudio",
      "version": "0.6.10",
      "model": "Bogaudio-AMRM",
      "params": [
        {
          "paramId": 0,
          "value": 1.0
        },
        {
          "paramId": 1,
          "value": 0.502882242
        }
      ],
      "pos": [
        21,
        1
      ]
    },
    {
      "plugin": "Bogaudio",
      "version": "0.6.10",
      "model": "Bogaudio-AMRM",
      "params": [
        {
          "paramId": 0,
          "value": 1.0
        },
        {
          "paramId": 1,
          "value": 0.494499505
        }
      ],
      "pos": [
        27,
        1
      ]
    },
    {
      "plugin": "Fundamental",
      "version": "0.6.2",
      "model": "SEQ3",
      "params": [
        {
          "paramId": 0,
          "value": 0.65200007
        },
        {
          "paramId": 1,
          "value": 0.0
        },
        {
          "paramId": 2,
          "value": 0.0
        },
        {
          "paramId": 3,
          "value": 8.0
        },
        {
          "paramId": 4,
          "value": 4.45390272
        },
        {
          "paramId": 12,
          "value": 2.26782608
        },
        {
          "paramId": 20,
          "value": 8.73767757
        },
        {
          "paramId": 28,
          "value": 0.0
        },
        {
          "paramId": 5,
          "value": 2.48687387
        },
        {
          "paramId": 13,
          "value": 6.31279278
        },
        {
          "paramId": 21,
          "value": 5.93821049
        },
        {
          "paramId": 29,
          "value": 0.0
        },
        {
          "paramId": 6,
          "value": 4.23305416
        },
        {
          "paramId": 14,
          "value": 2.57213712
        },
        {
          "paramId": 22,
          "value": 4.84408855
        },
        {
          "paramId": 30,
          "value": 0.0
        },
        {
          "paramId": 7,
          "value": 6.33432293
        },
        {
          "paramId": 15,
          "value": 5.0094223
        },
        {
          "paramId": 23,
          "value": 0.614164472
        },
        {
          "paramId": 31,
          "value": 0.0
        },
        {
          "paramId": 8,
          "value": 2.50040293
        },
        {
          "paramId": 16,
          "value": 0.80653131
        },
        {
          "paramId": 24,
          "value": 7.35329533
        },
        {
          "paramId": 32,
          "value": 0.0
        },
        {
          "paramId": 9,
          "value": 4.07931566
        },
        {
          "paramId": 17,
          "value": 4.53313637
        },
        {
          "paramId": 25,
          "value": 6.37689495
        },
        {
          "paramId": 33,
          "value": 0.0
        },
        {
          "paramId": 10,
          "value": 0.700740218
        },
        {
          "paramId": 18,
          "value": 6.37957287
        },
        {
          "paramId": 26,
          "value": 4.54379988
        },
        {
          "paramId": 34,
          "value": 0.0
        },
        {
          "paramId": 11,
          "value": 2.28284168
        },
        {
          "paramId": 19,
          "value": 6.07050514
        },
        {
          "paramId": 27,
          "value": 0.406742096
        },
        {
          "paramId": 35,
          "value": 0.0
        }
      ],
      "data": {
        "running": true,
        "gates": [
          1,
          1,
          1,
          0,
          0,
          0,
          0,
          0
        ]
      },
      "pos": [
        44,
        0
      ]
    },
    {
      "plugin": "AudibleInstruments",
      "version": "0.6.3",
      "model": "Veils",
      "params": [
        {
          "paramId": 0,
          "value": 1.0
        },
        {
          "paramId": 1,
          "value": 1.0
        },
        {
          "paramId": 2,
          "value": 1.0
        },
        {
          "paramId": 3,
          "value": 0.670501173
        },
        {
          "paramId": 4,
          "value": 0.638499677
        },
        {
          "paramId": 5,
          "value": 0.659499824
        },
        {
          "paramId": 6,
          "value": 0.83950007
        },
        {
          "paramId": 7,
          "value": 0.187000006
        }
      ],
      "pos": [
        74,
        0
      ]
    },
    {
      "plugin": "mental",
      "version": "0.6.3",
      "model": "MentalMasterClock",
      "params": [
        {
          "paramId": 0,
          "value": 180.480026
        },
        {
          "paramId": 1,
          "value": 5.20900488
        },
        {
          "paramId": 2,
          "value": 1.98999965
        },
        {
          "paramId": 3,
          "value": 0.0
        },
        {
          "paramId": 4,
          "value": 0.0
        }
      ],
      "data": {
        "run": [
          1
        ]
      },
      "pos": [
        66,
        0
      ]
    },
    {
      "plugin": "DrumKit",
      "version": "0.6.4",
      "model": "Bass Drum 9",
      "params": [
        {
          "paramId": 0,
          "value": 10.0
        },
        {
          "paramId": 1,
          "value": 8.0
        }
      ],
      "pos": [
        72,
        1
      ]
    },
    {
      "plugin": "Befaco",
      "version": "0.6.0",
      "model": "Mixer",
      "params": [
        {
          "paramId": 0,
          "value": 1.0
        },
        {
          "paramId": 1,
          "value": 1.0
        },
        {
          "paramId": 2,
          "value": 1.0
        },
        {
          "paramId": 3,
          "value": 1.0
        }
      ],
      "pos": [
        10,
        1
      ]
    },
    {
      "plugin": "RODENTMODULES",
      "version": "0.6.1",
      "model": "MessedUpOsc",
      "params": [
        {
          "paramId": 0,
          "value": 0.136303782
        },
        {
          "paramId": 1,
          "value": -1.199628
        }
      ],
      "pos": [
        75,
        1
      ]
    },
    {
      "plugin": "Befaco",
      "version": "0.6.0",
      "model": "Mixer",
      "params": [
        {
          "paramId": 0,
          "value": 1.0
        },
        {
          "paramId": 1,
          "value": 0.0
        },
        {
          "paramId": 2,
          "value": 1.0
        },
        {
          "paramId": 3,
          "value": 0.0
        }
      ],
      "pos": [
        0,
        1
      ]
    },
    {
      "plugin": "Befaco",
      "version": "0.6.0",
      "model": "Mixer",
      "params": [
        {
          "paramId": 0,
          "value": 0.503999889
        },
        {
          "paramId": 1,
          "value": 0.50699991
        },
        {
          "paramId": 2,
          "value": 0.504000127
        },
        {
          "paramId": 3,
          "value": 0.503999829
        }
      ],
      "pos": [
        5,
        1
      ]
    },
    {
      "plugin": "NYSTHI",
      "version": "0.6.30",
      "model": "MagisterFuzz",
      "params": [
        {
          "paramId": 0,
          "value": 0.0
        },
        {
          "paramId": 2,
          "value": 0.587169766
        },
        {
          "paramId": 5,
          "value": 0.100000001
        },
        {
          "paramId": 1,
          "value": 1.0
        },
        {
          "paramId": 4,
          "value": 0.100000001
        },
        {
          "paramId": 3,
          "value": 1.11399961
        },
        {
          "paramId": 6,
          "value": 0.100399986
        }
      ],
      "data": {
        "m_bypass": false
      },
      "pos": [
        0,
        2
      ]
    },
    {
      "plugin": "Bogaudio",
      "version": "0.6.10",
      "model": "Bogaudio-VCA",
      "params": [
        {
          "paramId": 0,
          "value": 1.0
        },
        {
          "paramId": 1,
          "value": 0.800000012
        },
        {
          "paramId": 2,
          "value": 0.0
        }
      ],
      "pos": [
        86,
        0
      ]
    },
    {
      "plugin": "AS",
      "version": "0.6.12",
      "model": "ReverbStereoFx",
      "params": [
        {
          "paramId": 0,
          "value": 0.0892998874
        },
        {
          "paramId": 1,
          "value": 0.242254585
        },
        {
          "paramId": 2,
          "value": 0.549860775
        },
        {
          "paramId": 3,
          "value": 0.0
        }
      ],
      "data": {
        "as_FxBypass": [
          false
        ]
      },
      "pos": [
        15,
        1
      ]
    },
    {
      "plugin": "AudibleInstruments",
      "version": "0.6.3",
      "model": "Clouds",
      "params": [
        {
          "paramId": 3,
          "value": 0.705784738
        },
        {
          "paramId": 4,
          "value": 0.663596451
        },
        {
          "paramId": 5,
          "value": 0.602492273
        },
        {
          "paramId": 6,
          "value": 1.0
        },
        {
          "paramId": 7,
          "value": 0.958777547
        },
        {
          "paramId": 8,
          "value": 0.789090335
        },
        {
          "paramId": 9,
          "value": 0.742000282
        },
        {
          "paramId": 10,
          "value": 0.432146728
        },
        {
          "paramId": 11,
          "value": 0.348593593
        },
        {
          "paramId": 12,
          "value": 0.2298581
        },
        {
          "paramId": 0,
          "value": 0.0
        },
        {
          "paramId": 1,
          "value": 0.0
        },
        {
          "paramId": 2,
          "value": 0.0
        }
      ],
      "data": {
        "playback": 0,
        "quality": 0,
        "blendMode": 0
      },
      "pos": [
        6,
        2
      ]
    }
  ],
  "wires": [
    {
      "color": "#0986ad",
      "outputModuleId": 4,
      "outputId": 0,
      "inputModuleId": 1,
      "inputId": 9
    },
    {
      "color": "#0986ad",
      "outputModuleId": 3,
      "outputId": 2,
      "inputModuleId": 5,
      "inputId": 9
    },
    {
      "color": "#0986ad",
      "outputModuleId": 5,
      "outputId": 1,
      "inputModuleId": 6,
      "inputId": 1
    },
    {
      "color": "#0c8e15",
      "outputModuleId": 5,
      "outputId": 0,
      "inputModuleId": 7,
      "inputId": 1
    },
    {
      "color": "#c91847",
      "outputModuleId": 8,
      "outputId": 1,
      "inputModuleId": 4,
      "inputId": 4
    },
    {
      "color": "#0c8e15",
      "outputModuleId": 8,
      "outputId": 2,
      "inputModuleId": 4,
      "inputId": 5
    },
    {
      "color": "#c9b70e",
      "outputModuleId": 6,
      "outputId": 0,
      "inputModuleId": 9,
      "inputId": 0
    },
    {
      "color": "#c91847",
      "outputModuleId": 7,
      "outputId": 0,
      "inputModuleId": 9,
      "inputId": 1
    },
    {
      "color": "#0c8e15",
      "outputModuleId": 8,
      "outputId": 0,
      "inputModuleId": 9,
      "inputId": 5
    },
    {
      "color": "#c9b70e",
      "outputModuleId": 8,
      "outputId": 0,
      "inputModuleId": 9,
      "inputId": 4
    },
    {
      "color": "#c91847",
      "outputModuleId": 9,
      "outputId": 0,
      "inputModuleId": 12,
      "inputId": 0
    },
    {
      "color": "#0c8e15",
      "outputModuleId": 9,
      "outputId": 1,
      "inputModuleId": 12,
      "inputId": 1
    },
    {
      "color": "#0c8e15",
      "outputModuleId": 10,
      "outputId": 0,
      "inputModuleId": 8,
      "inputId": 1
    },
    {
      "color": "#c9b70e",
      "outputModuleId": 10,
      "outputId": 3,
      "inputModuleId": 11,
      "inputId": 0
    },
    {
      "color": "#c91847",
      "outputModuleId": 11,
      "outputId": 0,
      "inputModuleId": 9,
      "inputId": 2
    },
    {
      "color": "#0c8e15",
      "outputModuleId": 9,
      "outputId": 2,
      "inputModuleId": 12,
      "inputId": 2
    },
    {
      "color": "#0986ad",
      "outputModuleId": 9,
      "outputId": 3,
      "inputModuleId": 12,
      "inputId": 3
    },
    {
      "color": "#c9b70e",
      "outputModuleId": 12,
      "outputId": 0,
      "inputModuleId": 14,
      "inputId": 0
    },
    {
      "color": "#c91847",
      "outputModuleId": 12,
      "outputId": 1,
      "inputModuleId": 14,
      "inputId": 1
    },
    {
      "color": "#0c8e15",
      "outputModuleId": 8,
      "outputId": 0,
      "inputModuleId": 9,
      "inputId": 6
    },
    {
      "color": "#0986ad",
      "outputModuleId": 8,
      "outputId": 2,
      "inputModuleId": 13,
      "inputId": 0
    },
    {
      "color": "#c9b70e",
      "outputModuleId": 13,
      "outputId": 0,
      "inputModuleId": 17,
      "inputId": 1
    },
    {
      "color": "#0c8e15",
      "outputModuleId": 15,
      "outputId": 1,
      "inputModuleId": 14,
      "inputId": 3
    },
    {
      "color": "#0986ad",
      "outputModuleId": 15,
      "outputId": 0,
      "inputModuleId": 14,
      "inputId": 2
    },
    {
      "color": "#c9b70e",
      "outputModuleId": 14,
      "outputId": 0,
      "inputModuleId": 16,
      "inputId": 0
    },
    {
      "color": "#c91847",
      "outputModuleId": 14,
      "outputId": 1,
      "inputModuleId": 16,
      "inputId": 1
    },
    {
      "color": "#0c8e15",
      "outputModuleId": 17,
      "outputId": 0,
      "inputModuleId": 9,
      "inputId": 3
    },
    {
      "color": "#c91847",
      "outputModuleId": 8,
      "outputId": 1,
      "inputModuleId": 4,
      "inputId": 11
    },
    {
      "color": "#0c8e15",
      "outputModuleId": 8,
      "outputId": 0,
      "inputModuleId": 9,
      "inputId": 7
    },
    {
      "color": "#0986ad",
      "outputModuleId": 8,
      "outputId": 0,
      "inputModuleId": 17,
      "inputId": 0
    },
    {
      "color": "#0c8e15",
      "outputModuleId": 18,
      "outputId": 0,
      "inputModuleId": 0,
      "inputId": 1
    },
    {
      "color": "#0986ad",
      "outputModuleId": 18,
      "outputId": 1,
      "inputModuleId": 0,
      "inputId": 0
    },
    {
      "color": "#c9b70e",
      "outputModuleId": 19,
      "outputId": 0,
      "inputModuleId": 18,
      "inputId": 0
    },
    {
      "color": "#c91847",
      "outputModuleId": 19,
      "outputId": 1,
      "inputModuleId": 18,
      "inputId": 1
    },
    {
      "color": "#0c8e15",
      "outputModuleId": 8,
      "outputId": 0,
      "inputModuleId": 19,
      "inputId": 0
    },
    {
      "color": "#0986ad",
      "outputModuleId": 16,
      "outputId": 0,
      "inputModuleId": 19,
      "inputId": 6
    },
    {
      "color": "#c9b70e",
      "outputModuleId": 16,
      "outputId": 1,
      "inputModuleId": 19,
      "inputId": 7
    },
    {
      "color": "#0986ad",
      "outputModuleId": 8,
      "outputId": 1,
      "inputModuleId": 13,
      "inputId": 1
    },
    {
      "color": "#c9b70e",
      "outputModuleId": 8,
      "outputId": 3,
      "inputModuleId": 3,
      "inputId": 1
    },
    {
      "color": "#0c8e15",
      "outputModuleId": 8,
      "outputId": 2,
      "inputModuleId": 4,
      "inputId": 8
    },
    {
      "color": "#0986ad",
      "outputModuleId": 8,
      "outputId": 2,
      "inputModuleId": 4,
      "inputId": 9
    },
    {
      "color": "#c9b70e",
      "outputModuleId": 3,
      "outputId": 4,
      "inputModuleId": 5,
      "inputId": 10
    },
    {
      "color": "#c9b70e",
      "outputModuleId": 2,
      "outputId": 2,
      "inputModuleId": 5,
      "inputId": 1
    }
  ]
}