{
  "version": "0.6.0",
  "modules": [
    {
      "plugin": "Core",
      "version": "0.6.0",
      "model": "AudioInterface",
      "pos": [
        3,
        0
      ],
      "params": [],
      "data": {
        "audio": {
          "driver": 5,
          "deviceName": "Apple Inc.: Built-in Output",
          "offset": 0,
          "maxChannels": 8,
          "sampleRate": 44100,
          "blockSize": 256
        }
      }
    },
    {
      "plugin": "PvC",
      "version": "0.6.0",
      "model": "TaHaSaHaN",
      "pos": [
        13,
        0
      ],
      "params": [
        {
          "paramId": 0,
          "value": 0.544999957
        }
      ]
    },
    {
      "plugin": "Ohmer",
      "version": "0.6.2",
      "model": "KlokSpid",
      "pos": [
        40,
        0
      ],
      "params": [
        {
          "paramId": 0,
          "value": 1.05000031
        },
        {
          "paramId": 1,
          "value": 0.0
        },
        {
          "paramId": 1,
          "value": 0.0
        }
      ],
      "data": {
        "Theme": 0,
        "bipolarCV": true,
        "pulseDurationExt": 5,
        "outVoltage": 5.0,
        "jack4LFO": 0,
        "transportTrig": false,
        "Ratio": 25,
        "BPM": 120,
        "runBPMOnInit": true
      }
    },
    {
      "plugin": "Fundamental",
      "version": "0.6.0",
      "model": "VCO2",
      "pos": [
        16,
        0
      ],
      "params": [
        {
          "paramId": 0,
          "value": 1.0
        },
        {
          "paramId": 1,
          "value": 1.0
        },
        {
          "paramId": 2,
          "value": -7.93799639
        },
        {
          "paramId": 3,
          "value": 0.802500069
        },
        {
          "paramId": 4,
          "value": 0.0
        }
      ]
    },
    {
      "plugin": "Fundamental",
      "version": "0.6.0",
      "model": "VCF",
      "pos": [
        22,
        0
      ],
      "params": [
        {
          "paramId": 0,
          "value": 1.0
        },
        {
          "paramId": 1,
          "value": 0.754999936
        },
        {
          "paramId": 2,
          "value": 0.406500012
        },
        {
          "paramId": 3,
          "value": 0.531000018
        },
        {
          "paramId": 4,
          "value": 1.0
        }
      ]
    },
    {
      "plugin": "Fundamental",
      "version": "0.6.0",
      "model": "LFO",
      "pos": [
        30,
        0
      ],
      "params": [
        {
          "paramId": 0,
          "value": 0.0
        },
        {
          "paramId": 1,
          "value": 0.0
        },
        {
          "paramId": 2,
          "value": 0.413999259
        },
        {
          "paramId": 3,
          "value": 0.603000045
        },
        {
          "paramId": 5,
          "value": 0.576499939
        },
        {
          "paramId": 4,
          "value": 0.391500026
        },
        {
          "paramId": 6,
          "value": 0.476999968
        }
      ]
    },
    {
      "plugin": "Fundamental",
      "version": "0.6.0",
      "model": "Delay",
      "pos": [
        48,
        0
      ],
      "params": [
        {
          "paramId": 0,
          "value": 0.5
        },
        {
          "paramId": 1,
          "value": 0.5
        },
        {
          "paramId": 2,
          "value": 0.5
        },
        {
          "paramId": 3,
          "value": 0.5
        }
      ]
    },
    {
      "plugin": "Fundamental",
      "version": "0.6.0",
      "model": "ADSR",
      "pos": [
        10,
        1
      ],
      "params": [
        {
          "paramId": 0,
          "value": 0.5
        },
        {
          "paramId": 1,
          "value": 0.5
        },
        {
          "paramId": 2,
          "value": 0.5
        },
        {
          "paramId": 3,
          "value": 0.291499734
        }
      ]
    },
    {
      "plugin": "HetrickCV",
      "version": "0.6.0",
      "model": "Boolean3",
      "pos": [
        22,
        1
      ],
      "params": []
    },
    {
      "plugin": "HetrickCV",
      "version": "0.6.0",
      "model": "Exponent",
      "pos": [
        35,
        1
      ],
      "params": [
        {
          "paramId": 0,
          "value": -3.39000201
        },
        {
          "paramId": 1,
          "value": 0.94900012
        },
        {
          "paramId": 2,
          "value": 1.0
        }
      ]
    }
  ],
  "wires": [
    {
      "color": {
        "r": 0.788235366,
        "g": 0.717647076,
        "b": 0.054901965,
        "a": 1.0
      },
      "outputModuleId": 2,
      "outputId": 0,
      "inputModuleId": 1,
      "inputId": 1
    },
    {
      "color": {
        "r": 0.788235366,
        "g": 0.0941176564,
        "b": 0.278431386,
        "a": 1.0
      },
      "outputModuleId": 3,
      "outputId": 0,
      "inputModuleId": 4,
      "inputId": 3
    },
    {
      "color": {
        "r": 0.0352941193,
        "g": 0.525490224,
        "b": 0.678431392,
        "a": 1.0
      },
      "outputModuleId": 1,
      "outputId": 3,
      "inputModuleId": 3,
      "inputId": 2
    },
    {
      "color": {
        "r": 0.788235366,
        "g": 0.717647076,
        "b": 0.054901965,
        "a": 1.0
      },
      "outputModuleId": 4,
      "outputId": 0,
      "inputModuleId": 6,
      "inputId": 4
    },
    {
      "color": {
        "r": 0.0470588282,
        "g": 0.556862772,
        "b": 0.0823529437,
        "a": 1.0
      },
      "outputModuleId": 5,
      "outputId": 0,
      "inputModuleId": 2,
      "inputId": 0
    },
    {
      "color": {
        "r": 0.788235366,
        "g": 0.0941176564,
        "b": 0.278431386,
        "a": 1.0
      },
      "outputModuleId": 6,
      "outputId": 0,
      "inputModuleId": 5,
      "inputId": 3
    },
    {
      "color": {
        "r": 0.0470588282,
        "g": 0.556862772,
        "b": 0.0823529437,
        "a": 1.0
      },
      "outputModuleId": 4,
      "outputId": 1,
      "inputModuleId": 1,
      "inputId": 0
    },
    {
      "color": {
        "r": 0.0352941193,
        "g": 0.525490224,
        "b": 0.678431392,
        "a": 1.0
      },
      "outputModuleId": 5,
      "outputId": 1,
      "inputModuleId": 7,
      "inputId": 4
    },
    {
      "color": {
        "r": 0.788235366,
        "g": 0.0941176564,
        "b": 0.278431386,
        "a": 1.0
      },
      "outputModuleId": 2,
      "outputId": 1,
      "inputModuleId": 7,
      "inputId": 5
    },
    {
      "color": {
        "r": 0.0352941193,
        "g": 0.525490224,
        "b": 0.678431392,
        "a": 1.0
      },
      "outputModuleId": 7,
      "outputId": 0,
      "inputModuleId": 2,
      "inputId": 1
    },
    {
      "color": {
        "r": 0.788235366,
        "g": 0.717647076,
        "b": 0.054901965,
        "a": 1.0
      },
      "outputModuleId": 3,
      "outputId": 0,
      "inputModuleId": 7,
      "inputId": 3
    },
    {
      "color": {
        "r": 0.0470588282,
        "g": 0.556862772,
        "b": 0.0823529437,
        "a": 1.0
      },
      "outputModuleId": 1,
      "outputId": 0,
      "inputModuleId": 8,
      "inputId": 0
    },
    {
      "color": {
        "r": 0.0352941193,
        "g": 0.525490224,
        "b": 0.678431392,
        "a": 1.0
      },
      "outputModuleId": 8,
      "outputId": 3,
      "inputModuleId": 0,
      "inputId": 0
    },
    {
      "color": {
        "r": 0.788235366,
        "g": 0.717647076,
        "b": 0.054901965,
        "a": 1.0
      },
      "outputModuleId": 4,
      "outputId": 1,
      "inputModuleId": 9,
      "inputId": 0
    },
    {
      "color": {
        "r": 0.788235366,
        "g": 0.0941176564,
        "b": 0.278431386,
        "a": 1.0
      },
      "outputModuleId": 9,
      "outputId": 0,
      "inputModuleId": 8,
      "inputId": 1
    }
  ]
}