{
  "version": "0.6.1",
  "modules": [
    {
      "plugin": "Core",
      "version": "0.6.1",
      "model": "MIDIToCVInterface",
      "pos": [
        69,
        0
      ],
      "params": [],
      "data": {
        "divisions": [
          24,
          6
        ],
        "midi": {
          "driver": 1,
          "deviceName": "USB Uno MIDI Interface",
          "channel": -1
        }
      }
    },
    {
      "plugin": "Core",
      "version": "0.6.1",
      "model": "AudioInterface",
      "pos": [
        49,
        0
      ],
      "params": [],
      "data": {
        "audio": {
          "driver": 5,
          "deviceName": "Lynx Studio Technology, Inc.: 1: Aurora 16",
          "offset": 0,
          "maxChannels": 8,
          "sampleRate": 44100,
          "blockSize": 256
        }
      }
    },
    {
      "plugin": "Core",
      "version": "0.6.1",
      "model": "AudioInterface",
      "pos": [
        59,
        0
      ],
      "params": [],
      "data": {
        "audio": {
          "driver": 5,
          "deviceName": "Corel: Internal Audio Driver (Corel Painter)",
          "offset": 0,
          "maxChannels": 8,
          "sampleRate": 44100,
          "blockSize": 256
        }
      }
    },
    {
      "plugin": "Koralfx-Modules",
      "version": "0.6.9",
      "model": "Beatovnik",
      "pos": [
        0,
        0
      ],
      "params": [
        {
          "paramId": 0,
          "value": 0.216290087
        },
        {
          "paramId": 1,
          "value": 5.0
        },
        {
          "paramId": 2,
          "value": 1.0
        }
      ],
      "data": {
        "panelStyle": 0
      }
    },
    {
      "plugin": "BaconMusic",
      "version": "0.6.2",
      "model": "Bitulator",
      "pos": [
        16,
        0
      ],
      "params": [
        {
          "paramId": 0,
          "value": 0.0
        },
        {
          "paramId": 3,
          "value": 0.0
        },
        {
          "paramId": 1,
          "value": 6.40999889
        },
        {
          "paramId": 4,
          "value": 0.0
        },
        {
          "paramId": 2,
          "value": 2.86301017
        }
      ]
    },
    {
      "plugin": "Fundamental",
      "version": "0.6.0",
      "model": "VCO",
      "pos": [
        6,
        0
      ],
      "params": [
        {
          "paramId": 0,
          "value": 1.0
        },
        {
          "paramId": 1,
          "value": 1.0
        },
        {
          "paramId": 2,
          "value": -36.6660118
        },
        {
          "paramId": 3,
          "value": -0.659999788
        },
        {
          "paramId": 5,
          "value": 0.758000255
        },
        {
          "paramId": 4,
          "value": 0.364500076
        },
        {
          "paramId": 6,
          "value": 0.822000027
        }
      ]
    },
    {
      "plugin": "Bogaudio",
      "version": "0.6.7",
      "model": "Bogaudio-Mix8",
      "pos": [
        22,
        0
      ],
      "params": [
        {
          "paramId": 0,
          "value": 0.772499382
        },
        {
          "paramId": 1,
          "value": 0.0
        },
        {
          "paramId": 2,
          "value": -1.0
        },
        {
          "paramId": 3,
          "value": 0.62500006
        },
        {
          "paramId": 4,
          "value": 0.0
        },
        {
          "paramId": 5,
          "value": 1.0
        },
        {
          "paramId": 6,
          "value": 0.611999929
        },
        {
          "paramId": 7,
          "value": 0.0
        },
        {
          "paramId": 8,
          "value": -1.0
        },
        {
          "paramId": 9,
          "value": 0.466496438
        },
        {
          "paramId": 10,
          "value": 0.0
        },
        {
          "paramId": 11,
          "value": 0.0
        },
        {
          "paramId": 12,
          "value": 0.631500661
        },
        {
          "paramId": 13,
          "value": 0.0
        },
        {
          "paramId": 14,
          "value": 1.0
        },
        {
          "paramId": 15,
          "value": 0.543000162
        },
        {
          "paramId": 16,
          "value": 0.0
        },
        {
          "paramId": 17,
          "value": 0.0
        },
        {
          "paramId": 18,
          "value": 0.71109134
        },
        {
          "paramId": 19,
          "value": 0.0
        },
        {
          "paramId": 20,
          "value": -1.0
        },
        {
          "paramId": 21,
          "value": 0.909090936
        },
        {
          "paramId": 22,
          "value": 0.0
        },
        {
          "paramId": 23,
          "value": 0.0
        },
        {
          "paramId": 24,
          "value": 1.0
        }
      ]
    },
    {
      "plugin": "LindenbergResearch",
      "version": "0.6.0",
      "model": "VCO",
      "pos": [
        1,
        1
      ],
      "params": [
        {
          "paramId": 0,
          "value": 6.02999783
        },
        {
          "paramId": 1,
          "value": -1.0
        },
        {
          "paramId": 6,
          "value": 1.0
        },
        {
          "paramId": 3,
          "value": 0.0
        },
        {
          "paramId": 2,
          "value": 0.588
        },
        {
          "paramId": 4,
          "value": 1.0
        },
        {
          "paramId": 5,
          "value": 1.0
        }
      ]
    },
    {
      "plugin": "Southpole-parasites",
      "version": "0.6.0",
      "model": "Smoke",
      "pos": [
        15,
        1
      ],
      "params": [
        {
          "paramId": 10,
          "value": 0.0
        },
        {
          "paramId": 11,
          "value": 0.0
        },
        {
          "paramId": 0,
          "value": 0.328999847
        },
        {
          "paramId": 1,
          "value": 0.975499988
        },
        {
          "paramId": 2,
          "value": 1.47600269
        },
        {
          "paramId": 4,
          "value": 1.0
        },
        {
          "paramId": 5,
          "value": 0.162500158
        },
        {
          "paramId": 6,
          "value": 0.836000264
        },
        {
          "paramId": 7,
          "value": 0.0455000438
        },
        {
          "paramId": 8,
          "value": 0.292999893
        },
        {
          "paramId": 9,
          "value": 0.870500386
        },
        {
          "paramId": 3,
          "value": 0.5
        }
      ],
      "data": {
        "playbackmode": 0,
        "lofi": 0,
        "mono": 0,
        "freeze": 0,
        "buffersize": 1,
        "reverse": 1
      }
    },
    {
      "plugin": "AudibleInstruments",
      "version": "0.6.0",
      "model": "Branches",
      "pos": [
        21,
        1
      ],
      "params": [
        {
          "paramId": 0,
          "value": 0.290499717
        },
        {
          "paramId": 2,
          "value": 0.0
        },
        {
          "paramId": 1,
          "value": 0.5
        },
        {
          "paramId": 3,
          "value": 0.0
        }
      ]
    },
    {
      "plugin": "DrumKit",
      "version": "0.6.0",
      "model": "Bass Drum 9",
      "pos": [
        59,
        1
      ],
      "params": [
        {
          "paramId": 0,
          "value": 7.0
        },
        {
          "paramId": 1,
          "value": 13.0
        }
      ]
    },
    {
      "plugin": "Autinn",
      "version": "0.6.5",
      "model": "Jette",
      "pos": [
        27,
        1
      ],
      "params": [
        {
          "paramId": 9,
          "value": 0.0
        },
        {
          "paramId": 0,
          "value": -3.0
        },
        {
          "paramId": 1,
          "value": 0.0310769677
        },
        {
          "paramId": 2,
          "value": 0.0415045023
        },
        {
          "paramId": 3,
          "value": 0.645664632
        },
        {
          "paramId": 4,
          "value": 0.419299364
        },
        {
          "paramId": 5,
          "value": 0.515194774
        },
        {
          "paramId": 6,
          "value": 0.65790695
        },
        {
          "paramId": 7,
          "value": 0.28634429
        },
        {
          "paramId": 8,
          "value": 0.366498888
        }
      ],
      "data": {
        "shape": 2
      }
    },
    {
      "plugin": "Hora-ProcessorsFree",
      "version": "0.6.0",
      "model": "Delay",
      "pos": [
        43,
        1
      ],
      "params": [
        {
          "paramId": 0,
          "value": 0.00999999978
        },
        {
          "paramId": 1,
          "value": 0.0
        },
        {
          "paramId": 2,
          "value": 0.0
        },
        {
          "paramId": 3,
          "value": 0.0
        },
        {
          "paramId": 4,
          "value": 2.0
        }
      ]
    },
    {
      "plugin": "Hora-treasureFree",
      "version": "0.6.0",
      "model": "SnareDrum-VCV",
      "pos": [
        51,
        1
      ],
      "params": [
        {
          "paramId": 1,
          "value": 1622.92969
        },
        {
          "paramId": 4,
          "value": 0.655974329
        },
        {
          "paramId": 0,
          "value": 0.568200052
        },
        {
          "paramId": 10,
          "value": 0.596000075
        },
        {
          "paramId": 11,
          "value": 0.800000012
        },
        {
          "paramId": 8,
          "value": 0.157499999
        },
        {
          "paramId": 9,
          "value": 0.643700182
        },
        {
          "paramId": 6,
          "value": 0.632600248
        },
        {
          "paramId": 7,
          "value": 0.696000159
        },
        {
          "paramId": 12,
          "value": 0.24255006
        },
        {
          "paramId": 5,
          "value": 1.0
        },
        {
          "paramId": 13,
          "value": 0.725500047
        }
      ]
    },
    {
      "plugin": "FrozenWasteland",
      "version": "0.6.7",
      "model": "RouletteLFO",
      "pos": [
        65,
        1
      ],
      "params": [
        {
          "paramId": 0,
          "value": 5.0
        },
        {
          "paramId": 1,
          "value": 3.0
        },
        {
          "paramId": 2,
          "value": 5.0
        },
        {
          "paramId": 3,
          "value": 0.0
        },
        {
          "paramId": 4,
          "value": 0.0
        },
        {
          "paramId": 5,
          "value": 1.0
        }
      ]
    },
    {
      "plugin": "Befaco",
      "version": "0.6.0",
      "model": "Rampage",
      "pos": [
        77,
        0
      ],
      "params": [
        {
          "paramId": 0,
          "value": 1.0
        },
        {
          "paramId": 2,
          "value": 0.0
        },
        {
          "paramId": 4,
          "value": 0.0
        },
        {
          "paramId": 6,
          "value": 0.194999993
        },
        {
          "paramId": 8,
          "value": 0.00300027337
        },
        {
          "paramId": 10,
          "value": 0.0
        },
        {
          "paramId": 1,
          "value": 0.0
        },
        {
          "paramId": 3,
          "value": 0.0
        },
        {
          "paramId": 5,
          "value": 0.0
        },
        {
          "paramId": 7,
          "value": 0.122999839
        },
        {
          "paramId": 9,
          "value": 0.0
        },
        {
          "paramId": 11,
          "value": 0.0
        },
        {
          "paramId": 12,
          "value": 0.5
        }
      ]
    }
  ],
  "wires": [
    {
      "color": "#0986ad",
      "outputModuleId": 0,
      "outputId": 1,
      "inputModuleId": 5,
      "inputId": 1
    },
    {
      "color": "#0c8e15",
      "outputModuleId": 3,
      "outputId": 0,
      "inputModuleId": 7,
      "inputId": 3
    },
    {
      "color": "#0986ad",
      "outputModuleId": 5,
      "outputId": 1,
      "inputModuleId": 3,
      "inputId": 0
    },
    {
      "color": "#c9b70e",
      "outputModuleId": 5,
      "outputId": 2,
      "inputModuleId": 4,
      "inputId": 0
    },
    {
      "color": "#0c8e15",
      "outputModuleId": 0,
      "outputId": 0,
      "inputModuleId": 5,
      "inputId": 0
    },
    {
      "color": "#c9b70e",
      "outputModuleId": 6,
      "outputId": 0,
      "inputModuleId": 1,
      "inputId": 0
    },
    {
      "color": "#c91847",
      "outputModuleId": 6,
      "outputId": 1,
      "inputModuleId": 1,
      "inputId": 1
    },
    {
      "color": "#0c8e15",
      "outputModuleId": 0,
      "outputId": 0,
      "inputModuleId": 7,
      "inputId": 0
    },
    {
      "color": "#c9b70e",
      "outputModuleId": 7,
      "outputId": 0,
      "inputModuleId": 8,
      "inputId": 10
    },
    {
      "color": "#0986ad",
      "outputModuleId": 7,
      "outputId": 1,
      "inputModuleId": 8,
      "inputId": 9
    },
    {
      "color": "#c91847",
      "outputModuleId": 0,
      "outputId": 0,
      "inputModuleId": 8,
      "inputId": 7
    },
    {
      "color": "#0c8e15",
      "outputModuleId": 0,
      "outputId": 1,
      "inputModuleId": 8,
      "inputId": 1
    },
    {
      "color": "#0c8e15",
      "outputModuleId": 7,
      "outputId": 0,
      "inputModuleId": 9,
      "inputId": 0
    },
    {
      "color": "#0986ad",
      "outputModuleId": 6,
      "outputId": 0,
      "inputModuleId": 2,
      "inputId": 0
    },
    {
      "color": "#c9b70e",
      "outputModuleId": 6,
      "outputId": 1,
      "inputModuleId": 2,
      "inputId": 1
    },
    {
      "color": "#c91847",
      "outputModuleId": 9,
      "outputId": 2,
      "inputModuleId": 10,
      "inputId": 0
    },
    {
      "color": "#0c8e15",
      "outputModuleId": 10,
      "outputId": 0,
      "inputModuleId": 6,
      "inputId": 20
    },
    {
      "color": "#0986ad",
      "outputModuleId": 9,
      "outputId": 0,
      "inputModuleId": 11,
      "inputId": 0
    },
    {
      "color": "#c9b70e",
      "outputModuleId": 11,
      "outputId": 0,
      "inputModuleId": 6,
      "inputId": 2
    },
    {
      "color": "#c91847",
      "outputModuleId": 9,
      "outputId": 0,
      "inputModuleId": 13,
      "inputId": 0
    },
    {
      "color": "#0c8e15",
      "outputModuleId": 13,
      "outputId": 2,
      "inputModuleId": 6,
      "inputId": 17
    },
    {
      "color": "#0986ad",
      "outputModuleId": 4,
      "outputId": 0,
      "inputModuleId": 10,
      "inputId": 1
    },
    {
      "color": "#c9b70e",
      "outputModuleId": 10,
      "outputId": 1,
      "inputModuleId": 6,
      "inputId": 14
    },
    {
      "color": "#c91847",
      "outputModuleId": 14,
      "outputId": 0,
      "inputModuleId": 6,
      "inputId": 5
    },
    {
      "color": "#0c8e15",
      "outputModuleId": 0,
      "outputId": 2,
      "inputModuleId": 14,
      "inputId": 0
    },
    {
      "color": "#0986ad",
      "outputModuleId": 0,
      "outputId": 2,
      "inputModuleId": 14,
      "inputId": 1
    },
    {
      "color": "#c9b70e",
      "outputModuleId": 14,
      "outputId": 1,
      "inputModuleId": 6,
      "inputId": 8
    },
    {
      "color": "#c91847",
      "outputModuleId": 0,
      "outputId": 1,
      "inputModuleId": 14,
      "inputId": 2
    },
    {
      "color": "#0c8e15",
      "outputModuleId": 5,
      "outputId": 3,
      "inputModuleId": 15,
      "inputId": 0
    },
    {
      "color": "#0986ad",
      "outputModuleId": 15,
      "outputId": 6,
      "inputModuleId": 6,
      "inputId": 11
    },
    {
      "color": "#c9b70e",
      "outputModuleId": 7,
      "outputId": 3,
      "inputModuleId": 15,
      "inputId": 1
    },
    {
      "color": "#c91847",
      "outputModuleId": 15,
      "outputId": 7,
      "inputModuleId": 6,
      "inputId": 23
    },
    {
      "color": "#0c8e15",
      "outputModuleId": 0,
      "outputId": 0,
      "inputModuleId": 15,
      "inputId": 8
    },
    {
      "color": "#0986ad",
      "outputModuleId": 0,
      "outputId": 0,
      "inputModuleId": 15,
      "inputId": 9
    }
  ]
}