{
  "version": "1.1.6",
  "modules": [
    {
      "id": 1,
      "plugin": "Core",
      "version": "1.1.6",
      "model": "AudioInterface",
      "params": [],
      "leftModuleId": 221,
      "data": {
        "audio": {
          "driver": 5,
          "deviceName": "Apple Inc.: MacBook Pro Speakers",
          "offset": 0,
          "maxChannels": 8,
          "sampleRate": 44100,
          "blockSize": 256
        }
      },
      "pos": [
        83,
        1
      ]
    },
    {
      "id": 3,
      "plugin": "Fundamental",
      "version": "1.4.0",
      "model": "VCO",
      "params": [
        {
          "id": 0,
          "value": 1.0
        },
        {
          "id": 1,
          "value": 1.0
        },
        {
          "id": 2,
          "value": -16.0380001
        },
        {
          "id": 3,
          "value": 0.0
        },
        {
          "id": 4,
          "value": 0.0
        },
        {
          "id": 5,
          "value": 0.5
        },
        {
          "id": 6,
          "value": 0.0
        }
      ],
      "leftModuleId": 5,
      "rightModuleId": 4,
      "pos": [
        18,
        1
      ]
    },
    {
      "id": 4,
      "plugin": "Fundamental",
      "version": "1.4.0",
      "model": "VCF",
      "params": [
        {
          "id": 0,
          "value": 0.0
        },
        {
          "id": 1,
          "value": 0.5
        },
        {
          "id": 2,
          "value": 0.234000027
        },
        {
          "id": 3,
          "value": 1.0
        },
        {
          "id": 4,
          "value": 0.0
        }
      ],
      "leftModuleId": 3,
      "rightModuleId": 6,
      "pos": [
        28,
        1
      ]
    },
    {
      "id": 5,
      "plugin": "Core",
      "version": "1.1.6",
      "model": "MIDIToCVInterface",
      "params": [],
      "rightModuleId": 3,
      "data": {
        "channels": 1,
        "polyMode": 0,
        "clockDivision": 24,
        "lastPitch": 8192,
        "lastMod": 0,
        "midi": {
          "driver": -11,
          "deviceName": "QWERTY keyboard (US)",
          "channel": -1
        }
      },
      "pos": [
        10,
        1
      ]
    },
    {
      "id": 6,
      "plugin": "Fundamental",
      "version": "1.4.0",
      "model": "ADSR",
      "params": [
        {
          "id": 0,
          "value": 0.597000003
        },
        {
          "id": 1,
          "value": 0.596000433
        },
        {
          "id": 2,
          "value": 0.349999994
        },
        {
          "id": 3,
          "value": 0.576500058
        }
      ],
      "leftModuleId": 4,
      "rightModuleId": 233,
      "pos": [
        36,
        1
      ]
    },
    {
      "id": 7,
      "plugin": "Fundamental",
      "version": "1.4.0",
      "model": "Scope",
      "params": [
        {
          "id": 0,
          "value": 0.0
        },
        {
          "id": 1,
          "value": 0.0
        },
        {
          "id": 2,
          "value": 0.0
        },
        {
          "id": 3,
          "value": 0.0
        },
        {
          "id": 4,
          "value": 14.0
        },
        {
          "id": 5,
          "value": 0.0
        },
        {
          "id": 6,
          "value": 0.0
        },
        {
          "id": 7,
          "value": 0.0
        }
      ],
      "rightModuleId": 222,
      "data": {
        "lissajous": 0,
        "external": 0
      },
      "pos": [
        44,
        0
      ]
    },
    {
      "id": 8,
      "plugin": "Core",
      "version": "1.1.6",
      "model": "Notes",
      "params": [],
      "text": "Demo patch instructions:\n\n1. Choose an audio driver and device in the AUDIO-8 module.\n\n2. Use the QWERTY and ZXCVB rows of your keyboard to generate MIDI notes, which are converted to 1V/oct and GATE signals.\n\n3. Drag knobs up/down. Hold Ctrl (Cmd on Mac) while dragging to fine-tune. Right-click knobs to edit, or double-click to initialize.\n\n4. Drag ports to create and move cables. Stack multiple cables on outputs by holding Ctrl (Cmd on Mac) and dragging from an output.\n\n5. Right-click on an empty rack space to add new modules.",
      "pos": [
        113,
        1
      ]
    },
    {
      "id": 221,
      "plugin": "squinkylabs-plug1",
      "version": "1.0.7",
      "model": "squinkylabs-mix8",
      "params": [
        {
          "id": 0,
          "value": 0.828999937
        },
        {
          "id": 1,
          "value": 0.0
        },
        {
          "id": 2,
          "value": 0.582999885
        },
        {
          "id": 3,
          "value": 0.800000012
        },
        {
          "id": 4,
          "value": 0.800000012
        },
        {
          "id": 5,
          "value": 0.800000012
        },
        {
          "id": 6,
          "value": 0.800000012
        },
        {
          "id": 7,
          "value": 0.800000012
        },
        {
          "id": 8,
          "value": 0.800000012
        },
        {
          "id": 9,
          "value": 0.800000012
        },
        {
          "id": 10,
          "value": 0.0
        },
        {
          "id": 11,
          "value": 0.0
        },
        {
          "id": 12,
          "value": 0.0
        },
        {
          "id": 13,
          "value": 0.0
        },
        {
          "id": 14,
          "value": 0.0
        },
        {
          "id": 15,
          "value": 0.0
        },
        {
          "id": 16,
          "value": 0.0
        },
        {
          "id": 17,
          "value": 0.0
        },
        {
          "id": 18,
          "value": 0.0
        },
        {
          "id": 19,
          "value": 0.0
        },
        {
          "id": 20,
          "value": 0.0
        },
        {
          "id": 21,
          "value": 0.0
        },
        {
          "id": 22,
          "value": 0.0
        },
        {
          "id": 23,
          "value": 0.0
        },
        {
          "id": 24,
          "value": 0.0
        },
        {
          "id": 25,
          "value": 0.0
        },
        {
          "id": 26,
          "value": 0.0
        },
        {
          "id": 27,
          "value": 0.0
        },
        {
          "id": 28,
          "value": 0.0
        },
        {
          "id": 29,
          "value": 0.0
        },
        {
          "id": 30,
          "value": 0.0
        },
        {
          "id": 31,
          "value": 0.0
        },
        {
          "id": 32,
          "value": 0.0
        },
        {
          "id": 33,
          "value": 0.0
        },
        {
          "id": 34,
          "value": 1.0
        },
        {
          "id": 35,
          "value": 0.0
        },
        {
          "id": 36,
          "value": 0.0
        },
        {
          "id": 37,
          "value": 0.0
        },
        {
          "id": 38,
          "value": 0.0
        },
        {
          "id": 39,
          "value": 0.0
        },
        {
          "id": 40,
          "value": 0.0
        },
        {
          "id": 41,
          "value": 0.0
        },
        {
          "id": 42,
          "value": 1.0
        }
      ],
      "rightModuleId": 1,
      "pos": [
        57,
        1
      ]
    },
    {
      "id": 222,
      "plugin": "Fundamental",
      "version": "1.4.0",
      "model": "Scope",
      "params": [
        {
          "id": 0,
          "value": 0.0
        },
        {
          "id": 1,
          "value": 0.0
        },
        {
          "id": 2,
          "value": 0.0
        },
        {
          "id": 3,
          "value": 0.0
        },
        {
          "id": 4,
          "value": 14.0
        },
        {
          "id": 5,
          "value": 0.0
        },
        {
          "id": 6,
          "value": 0.0
        },
        {
          "id": 7,
          "value": 0.0
        }
      ],
      "leftModuleId": 7,
      "rightModuleId": 223,
      "data": {
        "lissajous": 0,
        "external": 0
      },
      "pos": [
        57,
        0
      ]
    },
    {
      "id": 223,
      "plugin": "Fundamental",
      "version": "1.4.0",
      "model": "Scope",
      "params": [
        {
          "id": 0,
          "value": 0.0
        },
        {
          "id": 1,
          "value": 0.0
        },
        {
          "id": 2,
          "value": 0.0
        },
        {
          "id": 3,
          "value": 0.0
        },
        {
          "id": 4,
          "value": 14.0
        },
        {
          "id": 5,
          "value": 0.0
        },
        {
          "id": 6,
          "value": 0.0
        },
        {
          "id": 7,
          "value": 0.0
        }
      ],
      "leftModuleId": 222,
      "rightModuleId": 225,
      "data": {
        "lissajous": 0,
        "external": 0
      },
      "pos": [
        70,
        0
      ]
    },
    {
      "id": 225,
      "plugin": "Fundamental",
      "version": "1.4.0",
      "model": "Scope",
      "params": [
        {
          "id": 0,
          "value": 0.0
        },
        {
          "id": 1,
          "value": 0.0
        },
        {
          "id": 2,
          "value": 0.0
        },
        {
          "id": 3,
          "value": 0.0
        },
        {
          "id": 4,
          "value": 14.0
        },
        {
          "id": 5,
          "value": 0.0
        },
        {
          "id": 6,
          "value": 0.0
        },
        {
          "id": 7,
          "value": 0.0
        }
      ],
      "leftModuleId": 223,
      "data": {
        "lissajous": 0,
        "external": 0
      },
      "pos": [
        83,
        0
      ]
    },
    {
      "id": 226,
      "plugin": "LindenbergResearch",
      "version": "1.3.3",
      "model": "Westcoast_VCS",
      "params": [
        {
          "id": 0,
          "value": 9.58000088
        },
        {
          "id": 1,
          "value": 0.0
        },
        {
          "id": 2,
          "value": 0.0
        },
        {
          "id": 3,
          "value": -1.31399989
        },
        {
          "id": 4,
          "value": 6.0
        }
      ],
      "leftModuleId": 228,
      "rightModuleId": 237,
      "gestaltID": 1,
      "gradient": true,
      "patina": false,
      "patina_i_x": false,
      "patina_i_y": false,
      "patina_a_x": 511.179565,
      "patina_a_y": 261.516998,
      "overlay": false,
      "overlay_r": 0.540709019,
      "overlay_g": 0.965507329,
      "overlay_b": 0.200464129,
      "overlay_a": 0.322072864,
      "pos": [
        68,
        2
      ]
    },
    {
      "id": 227,
      "plugin": "LindenbergResearch",
      "version": "1.3.3",
      "model": "Westcoast_VCS",
      "params": [
        {
          "id": 0,
          "value": 10.329999
        },
        {
          "id": 1,
          "value": 0.0
        },
        {
          "id": 2,
          "value": 0.0
        },
        {
          "id": 3,
          "value": -1.602
        },
        {
          "id": 4,
          "value": 6.0
        }
      ],
      "leftModuleId": 238,
      "gestaltID": 1,
      "gradient": true,
      "patina": false,
      "patina_i_x": false,
      "patina_i_y": false,
      "patina_a_x": 511.179565,
      "patina_a_y": 261.516998,
      "overlay": false,
      "overlay_r": 0.191060662,
      "overlay_g": 0.960156977,
      "overlay_b": 0.965079546,
      "overlay_a": 0.248781294,
      "pos": [
        102,
        2
      ]
    },
    {
      "id": 228,
      "plugin": "AlrightDevices",
      "version": "1.0.2",
      "model": "Chronoblob2",
      "params": [
        {
          "id": 0,
          "value": 0.315500051
        },
        {
          "id": 1,
          "value": 0.348499894
        },
        {
          "id": 2,
          "value": 0.285499901
        },
        {
          "id": 3,
          "value": -0.417999923
        },
        {
          "id": 4,
          "value": -0.196000054
        },
        {
          "id": 5,
          "value": 0.119000055
        },
        {
          "id": 6,
          "value": -0.654999971
        },
        {
          "id": 7,
          "value": 0.0
        },
        {
          "id": 8,
          "value": 0.0
        },
        {
          "id": 9,
          "value": 0.0
        }
      ],
      "leftModuleId": 229,
      "rightModuleId": 226,
      "data": {
        "delay_mode": 1,
        "hold_behavior": 0,
        "sync_prescaler": 6
      },
      "pos": [
        56,
        2
      ]
    },
    {
      "id": 229,
      "plugin": "AudibleInstruments",
      "version": "1.0.2",
      "model": "Tides2",
      "params": [
        {
          "id": 0,
          "value": 0.0
        },
        {
          "id": 1,
          "value": 0.0
        },
        {
          "id": 2,
          "value": 0.0
        },
        {
          "id": 3,
          "value": -17.1360054
        },
        {
          "id": 4,
          "value": 0.708500087
        },
        {
          "id": 5,
          "value": 0.794000089
        },
        {
          "id": 6,
          "value": 0.5
        },
        {
          "id": 7,
          "value": 0.340999961
        },
        {
          "id": 8,
          "value": 0.0
        },
        {
          "id": 9,
          "value": 0.0
        },
        {
          "id": 10,
          "value": 0.0
        },
        {
          "id": 11,
          "value": 0.0
        },
        {
          "id": 12,
          "value": 0.0
        }
      ],
      "leftModuleId": 232,
      "rightModuleId": 228,
      "data": {
        "range": 0,
        "output": 0,
        "ramp": 1
      },
      "pos": [
        42,
        2
      ]
    },
    {
      "id": 230,
      "plugin": "Fundamental",
      "version": "1.4.0",
      "model": "Scope",
      "params": [
        {
          "id": 0,
          "value": 0.0
        },
        {
          "id": 1,
          "value": 0.0
        },
        {
          "id": 2,
          "value": 0.0
        },
        {
          "id": 3,
          "value": 0.0
        },
        {
          "id": 4,
          "value": 14.0
        },
        {
          "id": 5,
          "value": 0.0
        },
        {
          "id": 6,
          "value": 0.0
        },
        {
          "id": 7,
          "value": 0.0
        }
      ],
      "data": {
        "lissajous": 0,
        "external": 0
      },
      "pos": [
        116,
        0
      ]
    },
    {
      "id": 231,
      "plugin": "Geodesics",
      "version": "1.1.1",
      "model": "Energy",
      "params": [
        {
          "id": 0,
          "value": 0.0
        },
        {
          "id": 1,
          "value": 0.0
        },
        {
          "id": 2,
          "value": 0.0
        },
        {
          "id": 3,
          "value": 0.0
        },
        {
          "id": 4,
          "value": 0.0
        },
        {
          "id": 5,
          "value": 0.0
        },
        {
          "id": 6,
          "value": 0.0
        },
        {
          "id": 7,
          "value": 0.295499951
        },
        {
          "id": 8,
          "value": 0.204000056
        },
        {
          "id": 9,
          "value": 0.0
        }
      ],
      "leftModuleId": 234,
      "data": {
        "panelTheme": 0,
        "oscM_phase": 651834368,
        "oscC_phase": 2585668032,
        "osc1M_phase": 0,
        "osc1C_phase": 0,
        "osc2M_phase": 0,
        "osc2C_phase": 0,
        "osc3M_phase": 0,
        "osc3C_phase": 0,
        "osc4M_phase": 0,
        "osc4C_phase": 0,
        "osc5M_phase": 0,
        "osc5C_phase": 0,
        "osc6M_phase": 0,
        "osc6C_phase": 0,
        "osc7M_phase": 0,
        "osc7C_phase": 0,
        "osc8M_phase": 0,
        "osc8C_phase": 0,
        "osc9M_phase": 0,
        "osc9C_phase": 0,
        "osc10M_phase": 0,
        "osc10C_phase": 0,
        "osc11M_phase": 0,
        "osc11C_phase": 0,
        "osc12M_phase": 0,
        "osc12C_phase": 0,
        "osc13M_phase": 0,
        "osc13C_phase": 0,
        "osc14M_phase": 0,
        "osc14C_phase": 0,
        "osc15M_phase": 0,
        "osc15C_phase": 0,
        "routing": 1,
        "planck0": 0,
        "planck1": 0,
        "modtype0": 1,
        "modtype1": 1,
        "cross": 1
      },
      "pos": [
        18,
        2
      ]
    },
    {
      "id": 232,
      "plugin": "Autinn",
      "version": "1.0.0",
      "model": "Bass",
      "params": [
        {
          "id": 0,
          "value": 0.722500026
        },
        {
          "id": 1,
          "value": 0.710500002
        },
        {
          "id": 2,
          "value": 0.786249936
        },
        {
          "id": 3,
          "value": 0.75
        },
        {
          "id": 4,
          "value": 1.88569999
        },
        {
          "id": 5,
          "value": 0.0
        },
        {
          "id": 6,
          "value": 0.155249983
        },
        {
          "id": 7,
          "value": 0.0
        },
        {
          "id": 8,
          "value": 0.0
        },
        {
          "id": 9,
          "value": 0.0
        }
      ],
      "rightModuleId": 229,
      "data": {
        "gateInput": false,
        "Gcomp": 1.0
      },
      "pos": [
        26,
        2
      ]
    },
    {
      "id": 233,
      "plugin": "Bogaudio",
      "version": "1.1.28",
      "model": "Bogaudio-ADSR",
      "params": [
        {
          "id": 0,
          "value": 0.141421005
        },
        {
          "id": 1,
          "value": 0.316229999
        },
        {
          "id": 2,
          "value": 1.0
        },
        {
          "id": 3,
          "value": 0.316229999
        },
        {
          "id": 4,
          "value": 0.0
        }
      ],
      "leftModuleId": 6,
      "rightModuleId": 239,
      "data": {
        "invert": 1.0
      },
      "pos": [
        44,
        1
      ]
    },
    {
      "id": 234,
      "plugin": "AudibleInstruments",
      "version": "1.0.2",
      "model": "Marbles",
      "params": [
        {
          "id": 0,
          "value": 0.0
        },
        {
          "id": 1,
          "value": 0.0
        },
        {
          "id": 2,
          "value": 0.735500038
        },
        {
          "id": 3,
          "value": 0.0
        },
        {
          "id": 4,
          "value": 0.5
        },
        {
          "id": 5,
          "value": 0.0
        },
        {
          "id": 6,
          "value": 0.0
        },
        {
          "id": 7,
          "value": 1.0
        },
        {
          "id": 8,
          "value": 0.357499987
        },
        {
          "id": 9,
          "value": 0.5
        },
        {
          "id": 10,
          "value": 0.0
        },
        {
          "id": 11,
          "value": 0.0
        },
        {
          "id": 12,
          "value": 0.0
        },
        {
          "id": 13,
          "value": 0.26699999
        },
        {
          "id": 14,
          "value": 0.5
        }
      ],
      "rightModuleId": 231,
      "data": {
        "t_deja_vu": false,
        "x_deja_vu": false,
        "t_mode": 0,
        "x_mode": 0,
        "t_range": 0,
        "x_range": 1,
        "external": false,
        "x_scale": 0,
        "y_divider_index": 8,
        "x_clock_source_internal": 0
      },
      "pos": [
        0,
        2
      ]
    },
    {
      "id": 235,
      "plugin": "Core",
      "version": "1.1.6",
      "model": "AudioInterface",
      "params": [],
      "data": {
        "audio": {
          "driver": 5,
          "deviceName": "Apple Inc.: MacBook Pro Speakers",
          "offset": 0,
          "maxChannels": 8,
          "sampleRate": 44100,
          "blockSize": 256
        }
      },
      "pos": [
        100,
        1
      ]
    },
    {
      "id": 237,
      "plugin": "RJModules",
      "version": "1.7.2",
      "model": "BPF",
      "params": [
        {
          "id": 0,
          "value": 30.0
        },
        {
          "id": 1,
          "value": 0.5
        },
        {
          "id": 2,
          "value": 0.0
        }
      ],
      "leftModuleId": 226,
      "rightModuleId": 238,
      "pos": [
        82,
        2
      ]
    },
    {
      "id": 238,
      "plugin": "RJModules",
      "version": "1.7.2",
      "model": "BPF",
      "params": [
        {
          "id": 0,
          "value": 248.294998
        },
        {
          "id": 1,
          "value": 0.5
        },
        {
          "id": 2,
          "value": 0.0
        }
      ],
      "leftModuleId": 237,
      "rightModuleId": 227,
      "pos": [
        92,
        2
      ]
    },
    {
      "id": 239,
      "plugin": "Bogaudio",
      "version": "1.1.28",
      "model": "Bogaudio-Mix1",
      "params": [
        {
          "id": 0,
          "value": 0.99909085
        },
        {
          "id": 1,
          "value": 0.0
        }
      ],
      "leftModuleId": 233,
      "rightModuleId": 240,
      "pos": [
        47,
        1
      ]
    },
    {
      "id": 240,
      "plugin": "Bogaudio",
      "version": "1.1.28",
      "model": "Bogaudio-Mix1",
      "params": [
        {
          "id": 0,
          "value": 1.0
        },
        {
          "id": 1,
          "value": 0.0
        }
      ],
      "leftModuleId": 239,
      "pos": [
        50,
        1
      ]
    }
  ],
  "cables": [
    {
      "id": 973,
      "outputModuleId": 5,
      "outputId": 0,
      "inputModuleId": 3,
      "inputId": 0,
      "color": "#c91847"
    },
    {
      "id": 974,
      "outputModuleId": 3,
      "outputId": 2,
      "inputModuleId": 4,
      "inputId": 3,
      "color": "#0c8e15"
    },
    {
      "id": 977,
      "outputModuleId": 6,
      "outputId": 0,
      "inputModuleId": 4,
      "inputId": 0,
      "color": "#c91847"
    },
    {
      "id": 982,
      "outputModuleId": 5,
      "outputId": 6,
      "inputModuleId": 6,
      "inputId": 5,
      "color": "#c91847"
    },
    {
      "id": 981,
      "outputModuleId": 221,
      "outputId": 2,
      "inputModuleId": 7,
      "inputId": 0,
      "color": "#c9b70e"
    },
    {
      "id": 979,
      "outputModuleId": 6,
      "outputId": 0,
      "inputModuleId": 221,
      "inputId": 8,
      "color": "#0c8e15"
    },
    {
      "id": 980,
      "outputModuleId": 4,
      "outputId": 0,
      "inputModuleId": 221,
      "inputId": 0,
      "color": "#0986ad"
    },
    {
      "id": 983,
      "outputModuleId": 221,
      "outputId": 3,
      "inputModuleId": 7,
      "inputId": 1,
      "color": "#0986ad"
    },
    {
      "id": 984,
      "outputModuleId": 221,
      "outputId": 4,
      "inputModuleId": 222,
      "inputId": 0,
      "color": "#c9b70e"
    },
    {
      "id": 985,
      "outputModuleId": 221,
      "outputId": 5,
      "inputModuleId": 222,
      "inputId": 1,
      "color": "#0c8e15"
    },
    {
      "id": 986,
      "outputModuleId": 221,
      "outputId": 6,
      "inputModuleId": 223,
      "inputId": 0,
      "color": "#c91847"
    },
    {
      "id": 987,
      "outputModuleId": 221,
      "outputId": 7,
      "inputModuleId": 223,
      "inputId": 1,
      "color": "#0986ad"
    },
    {
      "id": 988,
      "outputModuleId": 221,
      "outputId": 8,
      "inputModuleId": 225,
      "inputId": 0,
      "color": "#c9b70e"
    },
    {
      "id": 989,
      "outputModuleId": 221,
      "outputId": 9,
      "inputModuleId": 225,
      "inputId": 1,
      "color": "#0c8e15"
    },
    {
      "id": 994,
      "outputModuleId": 228,
      "outputId": 0,
      "inputModuleId": 226,
      "inputId": 0,
      "color": "#0986ad"
    },
    {
      "id": 995,
      "outputModuleId": 228,
      "outputId": 1,
      "inputModuleId": 227,
      "inputId": 0,
      "color": "#c9b70e"
    },
    {
      "id": 1002,
      "outputModuleId": 5,
      "outputId": 6,
      "inputModuleId": 229,
      "inputId": 6,
      "color": "#0986ad"
    },
    {
      "id": 1003,
      "outputModuleId": 5,
      "outputId": 0,
      "inputModuleId": 229,
      "inputId": 2,
      "color": "#c9b70e"
    },
    {
      "id": 1006,
      "outputModuleId": 221,
      "outputId": 1,
      "inputModuleId": 230,
      "inputId": 1,
      "color": "#0986ad"
    },
    {
      "id": 1005,
      "outputModuleId": 221,
      "outputId": 0,
      "inputModuleId": 230,
      "inputId": 0,
      "color": "#c91847"
    },
    {
      "id": 1008,
      "outputModuleId": 5,
      "outputId": 0,
      "inputModuleId": 231,
      "inputId": 2,
      "color": "#0c8e15"
    },
    {
      "id": 1009,
      "outputModuleId": 234,
      "outputId": 2,
      "inputModuleId": 231,
      "inputId": 0,
      "color": "#c91847"
    },
    {
      "id": 1010,
      "outputModuleId": 234,
      "outputId": 5,
      "inputModuleId": 231,
      "inputId": 1,
      "color": "#0986ad"
    },
    {
      "id": 1011,
      "outputModuleId": 231,
      "outputId": 0,
      "inputModuleId": 232,
      "inputId": 2,
      "color": "#c9b70e"
    },
    {
      "id": 1012,
      "outputModuleId": 232,
      "outputId": 0,
      "inputModuleId": 221,
      "inputId": 1,
      "color": "#0c8e15"
    },
    {
      "id": 1013,
      "outputModuleId": 5,
      "outputId": 1,
      "inputModuleId": 232,
      "inputId": 0,
      "color": "#c91847"
    },
    {
      "id": 1015,
      "outputModuleId": 234,
      "outputId": 6,
      "inputModuleId": 231,
      "inputId": 5,
      "color": "#c9b70e"
    },
    {
      "id": 1017,
      "outputModuleId": 6,
      "outputId": 0,
      "inputModuleId": 221,
      "inputId": 9,
      "color": "#0c8e15"
    },
    {
      "id": 1018,
      "outputModuleId": 6,
      "outputId": 0,
      "inputModuleId": 221,
      "inputId": 10,
      "color": "#c91847"
    },
    {
      "id": 1019,
      "outputModuleId": 6,
      "outputId": 0,
      "inputModuleId": 221,
      "inputId": 11,
      "color": "#0986ad"
    },
    {
      "id": 1020,
      "outputModuleId": 6,
      "outputId": 0,
      "inputModuleId": 221,
      "inputId": 14,
      "color": "#c9b70e"
    },
    {
      "id": 1021,
      "outputModuleId": 6,
      "outputId": 0,
      "inputModuleId": 221,
      "inputId": 13,
      "color": "#0c8e15"
    },
    {
      "id": 1022,
      "outputModuleId": 6,
      "outputId": 0,
      "inputModuleId": 221,
      "inputId": 15,
      "color": "#c91847"
    },
    {
      "id": 1023,
      "outputModuleId": 6,
      "outputId": 0,
      "inputModuleId": 221,
      "inputId": 12,
      "color": "#0986ad"
    },
    {
      "id": 1024,
      "outputModuleId": 234,
      "outputId": 3,
      "inputModuleId": 229,
      "inputId": 0,
      "color": "#c9b70e"
    },
    {
      "id": 1025,
      "outputModuleId": 234,
      "outputId": 4,
      "inputModuleId": 229,
      "inputId": 4,
      "color": "#0c8e15"
    },
    {
      "id": 1026,
      "outputModuleId": 234,
      "outputId": 1,
      "inputModuleId": 229,
      "inputId": 5,
      "color": "#c91847"
    },
    {
      "id": 1029,
      "outputModuleId": 5,
      "outputId": 0,
      "inputModuleId": 231,
      "inputId": 4,
      "color": "#0c8e15"
    },
    {
      "id": 1037,
      "outputModuleId": 221,
      "outputId": 0,
      "inputModuleId": 1,
      "inputId": 0,
      "color": "#0c8e15"
    },
    {
      "id": 1038,
      "outputModuleId": 221,
      "outputId": 1,
      "inputModuleId": 1,
      "inputId": 1,
      "color": "#c91847"
    },
    {
      "id": 1039,
      "outputModuleId": 226,
      "outputId": 0,
      "inputModuleId": 237,
      "inputId": 0,
      "color": "#0986ad"
    },
    {
      "id": 1040,
      "outputModuleId": 227,
      "outputId": 0,
      "inputModuleId": 238,
      "inputId": 0,
      "color": "#c9b70e"
    },
    {
      "id": 1042,
      "outputModuleId": 237,
      "outputId": 0,
      "inputModuleId": 239,
      "inputId": 2,
      "color": "#c91847"
    },
    {
      "id": 1041,
      "outputModuleId": 238,
      "outputId": 0,
      "inputModuleId": 240,
      "inputId": 2,
      "color": "#0c8e15"
    },
    {
      "id": 1043,
      "outputModuleId": 239,
      "outputId": 0,
      "inputModuleId": 221,
      "inputId": 32,
      "color": "#0986ad"
    },
    {
      "id": 1044,
      "outputModuleId": 240,
      "outputId": 0,
      "inputModuleId": 221,
      "inputId": 33,
      "color": "#c9b70e"
    },
    {
      "id": 1045,
      "outputModuleId": 6,
      "outputId": 0,
      "inputModuleId": 239,
      "inputId": 0,
      "color": "#0c8e15"
    },
    {
      "id": 1046,
      "outputModuleId": 6,
      "outputId": 0,
      "inputModuleId": 240,
      "inputId": 0,
      "color": "#c91847"
    },
    {
      "id": 1047,
      "outputModuleId": 5,
      "outputId": 1,
      "inputModuleId": 6,
      "inputId": 4,
      "color": "#0986ad"
    },
    {
      "id": 1048,
      "outputModuleId": 221,
      "outputId": 11,
      "inputModuleId": 228,
      "inputId": 6,
      "color": "#c9b70e"
    },
    {
      "id": 1049,
      "outputModuleId": 221,
      "outputId": 10,
      "inputModuleId": 228,
      "inputId": 5,
      "color": "#0c8e15"
    },
    {
      "id": 1050,
      "outputModuleId": 229,
      "outputId": 0,
      "inputModuleId": 232,
      "inputId": 4,
      "color": "#c91847"
    },
    {
      "id": 1051,
      "outputModuleId": 229,
      "outputId": 2,
      "inputModuleId": 232,
      "inputId": 6,
      "color": "#0986ad"
    },
    {
      "id": 1052,
      "outputModuleId": 229,
      "outputId": 0,
      "inputModuleId": 228,
      "inputId": 2,
      "color": "#0c8e15"
    },
    {
      "id": 1053,
      "outputModuleId": 229,
      "outputId": 1,
      "inputModuleId": 228,
      "inputId": 4,
      "color": "#c91847"
    },
    {
      "id": 1054,
      "outputModuleId": 229,
      "outputId": 3,
      "inputModuleId": 228,
      "inputId": 0,
      "color": "#0986ad"
    }
  ]
}