{
  "version": "0.6.2b",
  "modules": [
    {
      "plugin": "Geodesics",
      "version": "0.6.6",
      "model": "Entropia",
      "params": [
        {
          "paramId": 5,
          "value": 0.457958877
        },
        {
          "paramId": 6,
          "value": 0.319523931
        },
        {
          "paramId": 7,
          "value": 0.643282533
        },
        {
          "paramId": 8,
          "value": 0.4827874
        },
        {
          "paramId": 9,
          "value": 0.299806297
        },
        {
          "paramId": 10,
          "value": 0.470805973
        },
        {
          "paramId": 11,
          "value": 0.593663156
        },
        {
          "paramId": 12,
          "value": 0.79883188
        },
        {
          "paramId": 13,
          "value": 0.322733402
        },
        {
          "paramId": 14,
          "value": 0.604499876
        },
        {
          "paramId": 15,
          "value": 0.605538368
        },
        {
          "paramId": 16,
          "value": 0.31886515
        },
        {
          "paramId": 17,
          "value": 0.663626552
        },
        {
          "paramId": 18,
          "value": 0.550330818
        },
        {
          "paramId": 19,
          "value": 0.353269786
        },
        {
          "paramId": 20,
          "value": 0.507922828
        },
        {
          "paramId": 21,
          "value": 0.628018618
        },
        {
          "paramId": 22,
          "value": 0.514499962
        },
        {
          "paramId": 23,
          "value": 0.565359652
        },
        {
          "paramId": 24,
          "value": 0.511730313
        },
        {
          "paramId": 25,
          "value": 0.550500035
        },
        {
          "paramId": 26,
          "value": 0.606729031
        },
        {
          "paramId": 27,
          "value": 0.544058681
        },
        {
          "paramId": 28,
          "value": 0.929717779
        },
        {
          "paramId": 4,
          "value": 0.0
        },
        {
          "paramId": 42,
          "value": 0.0
        },
        {
          "paramId": 34,
          "value": 0.0
        },
        {
          "paramId": 33,
          "value": 0.0
        },
        {
          "paramId": 31,
          "value": 0.0
        },
        {
          "paramId": 32,
          "value": 0.0
        },
        {
          "paramId": 29,
          "value": 0.0
        },
        {
          "paramId": 30,
          "value": 0.0
        },
        {
          "paramId": 41,
          "value": 0.0949435234
        },
        {
          "paramId": 37,
          "value": 0.0
        },
        {
          "paramId": 39,
          "value": 0.0
        },
        {
          "paramId": 35,
          "value": 0.0
        },
        {
          "paramId": 43,
          "value": 0.0
        },
        {
          "paramId": 38,
          "value": 0.0
        },
        {
          "paramId": 40,
          "value": 0.0
        },
        {
          "paramId": 36,
          "value": 0.0
        },
        {
          "paramId": 44,
          "value": 0.0
        },
        {
          "paramId": 0,
          "value": 0.0
        },
        {
          "paramId": 2,
          "value": 0.0
        },
        {
          "paramId": 1,
          "value": 0.0
        },
        {
          "paramId": 3,
          "value": 0.0
        }
      ],
      "data": {
        "panelTheme": 0,
        "running": true,
        "resetOnRun": false,
        "length": 5,
        "quantize": 3,
        "audio": 1,
        "ranges0": 2,
        "ranges1": 2,
        "addMode": true,
        "sources0": 0,
        "sources1": 0,
        "stepIndex": 2,
        "pipeBlue": true,
        "randomCVs0": 0.100666881,
        "randomCVs1": 0.623864889,
        "clkSource": 0
      },
      "pos": [
        47,
        0
      ]
    },
    {
      "plugin": "SonusModular",
      "version": "0.6.2",
      "model": "Chainsaw",
      "params": [
        {
          "paramId": 0,
          "value": -1.5510006
        },
        {
          "paramId": 1,
          "value": -0.420999914
        },
        {
          "paramId": 2,
          "value": 0.203000143
        },
        {
          "paramId": 3,
          "value": -0.0789999366
        },
        {
          "paramId": 4,
          "value": 0.269000083
        },
        {
          "paramId": 5,
          "value": -0.129999951
        },
        {
          "paramId": 6,
          "value": -0.0879998505
        },
        {
          "paramId": 7,
          "value": 0.0
        }
      ],
      "pos": [
        0,
        0
      ]
    },
    {
      "plugin": "Core",
      "version": "0.6.2b",
      "model": "AudioInterface",
      "params": [],
      "data": {
        "audio": {
          "driver": 5,
          "deviceName": "Apple Inc.: Built-in Output",
          "offset": 0,
          "maxChannels": 8,
          "sampleRate": 44100,
          "blockSize": 256
        }
      },
      "pos": [
        0,
        1
      ]
    },
    {
      "plugin": "JW-Modules",
      "version": "0.6.3",
      "model": "SimpleClock",
      "params": [
        {
          "paramId": 1,
          "value": 0.0
        },
        {
          "paramId": 0,
          "value": 2.00799751
        },
        {
          "paramId": 3,
          "value": 0.0
        },
        {
          "paramId": 2,
          "value": 0.952000499
        }
      ],
      "data": {
        "running": true
      },
      "pos": [
        68,
        0
      ]
    },
    {
      "plugin": "AmalgamatedHarmonics",
      "version": "0.6.4",
      "model": "Generative",
      "params": [
        {
          "paramId": 0,
          "value": -1.55564952
        },
        {
          "paramId": 1,
          "value": 2.82502842
        },
        {
          "paramId": 2,
          "value": 0.487948835
        },
        {
          "paramId": 3,
          "value": 0.412480056
        },
        {
          "paramId": 4,
          "value": 0.0664553046
        },
        {
          "paramId": 5,
          "value": 1.35039949
        },
        {
          "paramId": 6,
          "value": 0.365373075
        },
        {
          "paramId": 7,
          "value": 1.19629836
        },
        {
          "paramId": 9,
          "value": 1.47474098
        },
        {
          "paramId": 8,
          "value": 1.90763462
        },
        {
          "paramId": 10,
          "value": 1.86372745
        },
        {
          "paramId": 11,
          "value": 0.60699439
        },
        {
          "paramId": 12,
          "value": 0.421998262
        },
        {
          "paramId": 13,
          "value": 0.338010371
        }
      ],
      "data": {
        "quantise": false,
        "offset": false
      },
      "pos": [
        31,
        0
      ]
    },
    {
      "plugin": "NYSTHI",
      "version": "0.6.42",
      "model": "ClockMultiplier",
      "params": [
        {
          "paramId": 0,
          "value": 0.0
        },
        {
          "paramId": 3,
          "value": 0.0
        },
        {
          "paramId": 2,
          "value": 0.0
        },
        {
          "paramId": 1,
          "value": 0.0
        }
      ],
      "data": {
        "m_multiplier_values0": 1.0,
        "m_multiplier_values1": 1.88,
        "m_multiplier_values2": 3.0,
        "m_divmode": false,
        "m_no_clockout_if_no_clockin": false,
        "m_active_mode": true
      },
      "pos": [
        72,
        0
      ]
    },
    {
      "plugin": "Fundamental",
      "version": "0.6.2",
      "model": "VCA-1",
      "params": [
        {
          "paramId": 0,
          "value": 1.0
        },
        {
          "paramId": 1,
          "value": 0.0
        }
      ],
      "pos": [
        12,
        0
      ]
    },
    {
      "plugin": "Southpole",
      "version": "0.6.0",
      "model": "Gnome",
      "params": [
        {
          "paramId": 2,
          "value": -13.4459915
        },
        {
          "paramId": 1,
          "value": 0.0240000002
        },
        {
          "paramId": 0,
          "value": 0.384000093
        },
        {
          "paramId": 3,
          "value": 0.430499971
        },
        {
          "paramId": 4,
          "value": 0.903000057
        },
        {
          "paramId": 5,
          "value": 0.181000054
        },
        {
          "paramId": 7,
          "value": 0.241500005
        },
        {
          "paramId": 8,
          "value": 0.0
        },
        {
          "paramId": 9,
          "value": -1.0
        },
        {
          "paramId": 10,
          "value": 1.0
        },
        {
          "paramId": 11,
          "value": 0.0
        },
        {
          "paramId": 12,
          "value": 0.812000394
        },
        {
          "paramId": 13,
          "value": 0.228499964
        },
        {
          "paramId": 14,
          "value": 0.868999898
        },
        {
          "paramId": 15,
          "value": 0.220999882
        },
        {
          "paramId": 16,
          "value": 0.656999946
        },
        {
          "paramId": 17,
          "value": 0.0
        },
        {
          "paramId": 18,
          "value": 0.0
        },
        {
          "paramId": 19,
          "value": 0.263999999
        },
        {
          "paramId": 20,
          "value": 0.219000056
        }
      ],
      "pos": [
        15,
        0
      ]
    },
    {
      "plugin": "AudibleInstruments",
      "version": "0.6.3",
      "model": "Branches",
      "params": [
        {
          "paramId": 0,
          "value": 0.525500655
        },
        {
          "paramId": 2,
          "value": 0.0
        },
        {
          "paramId": 1,
          "value": 0.971000612
        },
        {
          "paramId": 3,
          "value": 0.0
        }
      ],
      "data": {
        "modes": [
          false,
          false
        ]
      },
      "pos": [
        25,
        0
      ]
    },
    {
      "plugin": "VultModulesFree",
      "version": "0.6.26",
      "model": "Julste",
      "params": [
        {
          "paramId": 0,
          "value": 1.0
        },
        {
          "paramId": 2,
          "value": 0.0
        },
        {
          "paramId": 1,
          "value": 0.740999043
        },
        {
          "paramId": 3,
          "value": 0.0
        },
        {
          "paramId": 4,
          "value": 0.64300108
        },
        {
          "paramId": 5,
          "value": 0.0
        },
        {
          "paramId": 8,
          "value": 0.0
        },
        {
          "paramId": 6,
          "value": 1.59899879
        },
        {
          "paramId": 7,
          "value": 0.0
        }
      ],
      "pos": [
        83,
        1
      ]
    },
    {
      "plugin": "VultModulesFree",
      "version": "0.6.26",
      "model": "Julste",
      "params": [
        {
          "paramId": 0,
          "value": 1.0
        },
        {
          "paramId": 2,
          "value": 0.0
        },
        {
          "paramId": 1,
          "value": 0.740999043
        },
        {
          "paramId": 3,
          "value": 0.0
        },
        {
          "paramId": 4,
          "value": 0.64300108
        },
        {
          "paramId": 5,
          "value": 0.0
        },
        {
          "paramId": 8,
          "value": 0.0
        },
        {
          "paramId": 6,
          "value": 1.59899879
        },
        {
          "paramId": 7,
          "value": 0.0
        }
      ],
      "pos": [
        73,
        1
      ]
    },
    {
      "plugin": "Bogaudio",
      "version": "0.6.14",
      "model": "Bogaudio-Mix8",
      "params": [
        {
          "paramId": 0,
          "value": 0.570997477
        },
        {
          "paramId": 1,
          "value": 0.0
        },
        {
          "paramId": 2,
          "value": 0.0
        },
        {
          "paramId": 3,
          "value": 0.926503241
        },
        {
          "paramId": 4,
          "value": 0.0
        },
        {
          "paramId": 5,
          "value": 0.0
        },
        {
          "paramId": 6,
          "value": 0.78309077
        },
        {
          "paramId": 7,
          "value": 1.0
        },
        {
          "paramId": 8,
          "value": 0.0
        },
        {
          "paramId": 9,
          "value": 0.697590232
        },
        {
          "paramId": 10,
          "value": 0.0
        },
        {
          "paramId": 11,
          "value": 0.0
        },
        {
          "paramId": 12,
          "value": 0.909090936
        },
        {
          "paramId": 13,
          "value": 0.0
        },
        {
          "paramId": 14,
          "value": 0.0
        },
        {
          "paramId": 15,
          "value": 0.909090936
        },
        {
          "paramId": 16,
          "value": 0.0
        },
        {
          "paramId": 17,
          "value": 0.0
        },
        {
          "paramId": 18,
          "value": 0.909090936
        },
        {
          "paramId": 19,
          "value": 0.0
        },
        {
          "paramId": 20,
          "value": 0.0
        },
        {
          "paramId": 21,
          "value": 0.909090936
        },
        {
          "paramId": 22,
          "value": 0.0
        },
        {
          "paramId": 23,
          "value": 0.0
        },
        {
          "paramId": 24,
          "value": 0.909090936
        },
        {
          "paramId": 25,
          "value": 0.0
        }
      ],
      "pos": [
        16,
        1
      ]
    },
    {
      "plugin": "Fundamental",
      "version": "0.6.2",
      "model": "VCF",
      "params": [
        {
          "paramId": 0,
          "value": 1.0
        },
        {
          "paramId": 1,
          "value": 0.186499998
        },
        {
          "paramId": 2,
          "value": 0.186000019
        },
        {
          "paramId": 3,
          "value": -0.870000124
        },
        {
          "paramId": 4,
          "value": 0.933001101
        }
      ],
      "pos": [
        57,
        1
      ]
    },
    {
      "plugin": "squinkylabs-plug1",
      "version": "0.6.14",
      "model": "squinkylabs-vocalanimator",
      "params": [
        {
          "paramId": 0,
          "value": 0.0
        },
        {
          "paramId": 4,
          "value": 1.0
        },
        {
          "paramId": 10,
          "value": 2.0
        },
        {
          "paramId": 2,
          "value": 2.91000175
        },
        {
          "paramId": 6,
          "value": 1.0
        },
        {
          "paramId": 1,
          "value": 0.0
        },
        {
          "paramId": 5,
          "value": 1.0
        },
        {
          "paramId": 3,
          "value": 2.31000113
        },
        {
          "paramId": 7,
          "value": 1.0
        },
        {
          "paramId": 8,
          "value": 0.0
        }
      ],
      "pos": [
        43,
        1
      ]
    },
    {
      "plugin": "Fundamental",
      "version": "0.6.2",
      "model": "VCF",
      "params": [
        {
          "paramId": 0,
          "value": 0.749499738
        },
        {
          "paramId": 1,
          "value": 0.384499907
        },
        {
          "paramId": 2,
          "value": 0.367499977
        },
        {
          "paramId": 3,
          "value": 0.0
        },
        {
          "paramId": 4,
          "value": 1.0
        }
      ],
      "pos": [
        65,
        1
      ]
    },
    {
      "plugin": "huaba",
      "version": "0.6.3",
      "model": "EQ3",
      "params": [
        {
          "paramId": 2,
          "value": 1.5910008
        },
        {
          "paramId": 1,
          "value": 0.813999772
        },
        {
          "paramId": 0,
          "value": 1.19800115
        }
      ],
      "pos": [
        10,
        1
      ]
    },
    {
      "plugin": "huaba",
      "version": "0.6.3",
      "model": "EQ3",
      "params": [
        {
          "paramId": 2,
          "value": 1.5940007
        },
        {
          "paramId": 1,
          "value": 0.822999597
        },
        {
          "paramId": 0,
          "value": 1.22800028
        }
      ],
      "pos": [
        13,
        1
      ]
    },
    {
      "plugin": "NYSTHI",
      "version": "0.6.42",
      "model": "confusingSimpler",
      "params": [
        {
          "paramId": 6,
          "value": 0.0
        },
        {
          "paramId": 33,
          "value": 0.0
        },
        {
          "paramId": 32,
          "value": 0.0
        },
        {
          "paramId": 29,
          "value": 0.5
        },
        {
          "paramId": 0,
          "value": 1.0
        },
        {
          "paramId": 1,
          "value": 0.0
        },
        {
          "paramId": 13,
          "value": 0.0
        },
        {
          "paramId": 30,
          "value": 0.0
        },
        {
          "paramId": 31,
          "value": 1.0
        },
        {
          "paramId": 2,
          "value": 0.0
        },
        {
          "paramId": 18,
          "value": 0.0
        },
        {
          "paramId": 17,
          "value": 0.0
        },
        {
          "paramId": 4,
          "value": 6.80461454
        },
        {
          "paramId": 5,
          "value": 0.354000419
        },
        {
          "paramId": 15,
          "value": 0.0
        },
        {
          "paramId": 16,
          "value": 0.0
        },
        {
          "paramId": 8,
          "value": 0.0
        },
        {
          "paramId": 9,
          "value": 0.0
        },
        {
          "paramId": 10,
          "value": 0.0
        },
        {
          "paramId": 11,
          "value": 1.0
        },
        {
          "paramId": 12,
          "value": 2.0
        },
        {
          "paramId": 19,
          "value": 0.0
        },
        {
          "paramId": 20,
          "value": 0.0
        },
        {
          "paramId": 27,
          "value": 0.0
        },
        {
          "paramId": 26,
          "value": 0.0
        },
        {
          "paramId": 14,
          "value": 0.0
        }
      ],
      "data": {
        "nysthi_id": "CONFUSEDSIMPLER_cPSax1XO",
        "m_nysthi_file_id": "/Users/bseverns/Documents/Rack/plugins/NYSTHI/cache/CONFUSEDSIMPLER_cPSax1XO_20190417_123324_9OqJvG.wav",
        "m_original_file_name": "",
        "m_gated": false,
        "m_cycled": true,
        "m_waveform": 2,
        "m_lfo_is_uni": false,
        "m_lfo_is_inverted": false,
        "m_grid_mode": false,
        "m_slices": 1,
        "m_curr_slice": 1,
        "m_rnd_on_eoc": false,
        "m_show_channels": 0,
        "m_video_inverted": false,
        "m_show_time_mode": 0,
        "slice_start": 0,
        "slice_end": 350884,
        "m_can_use_delays": false,
        "m_delays_at_work": 1,
        "m_preview_sos": true,
        "m_active_sos": true,
        "m_kfs_vector": [
          0,
          32001,
          0,
          350882,
          0,
          350882,
          0,
          350882,
          0,
          350882,
          0,
          350882,
          0,
          350882,
          0,
          350882,
          0,
          350882,
          0,
          350882,
          0,
          350882,
          0,
          350882,
          0,
          350882,
          0,
          350882,
          0,
          350882,
          0,
          350882,
          0,
          350882,
          0,
          350882,
          0,
          350882,
          0,
          350882,
          0,
          350882,
          0,
          350882
        ]
      },
      "pos": [
        79,
        0
      ]
    },
    {
      "plugin": "s-ol",
      "version": "0.6.1",
      "model": "CircleVCO",
      "params": [
        {
          "paramId": 0,
          "value": -12.6359806
        }
      ],
      "pos": [
        86,
        0
      ]
    },
    {
      "plugin": "s-ol",
      "version": "0.6.1",
      "model": "CircleVCO",
      "params": [
        {
          "paramId": 0,
          "value": -12.4739895
        }
      ],
      "pos": [
        90,
        0
      ]
    },
    {
      "plugin": "Southpole",
      "version": "0.6.0",
      "model": "Gnome",
      "params": [
        {
          "paramId": 2,
          "value": -11.3939981
        },
        {
          "paramId": 1,
          "value": 1.14799976
        },
        {
          "paramId": 0,
          "value": 1.04099989
        },
        {
          "paramId": 3,
          "value": 0.0
        },
        {
          "paramId": 4,
          "value": 0.581999779
        },
        {
          "paramId": 5,
          "value": 0.25
        },
        {
          "paramId": 7,
          "value": 0.0
        },
        {
          "paramId": 8,
          "value": 2.46000075
        },
        {
          "paramId": 9,
          "value": 0.0500000194
        },
        {
          "paramId": 10,
          "value": 0.441999912
        },
        {
          "paramId": 11,
          "value": 0.0
        },
        {
          "paramId": 12,
          "value": 0.5
        },
        {
          "paramId": 13,
          "value": 0.5
        },
        {
          "paramId": 14,
          "value": 0.5
        },
        {
          "paramId": 15,
          "value": 0.5
        },
        {
          "paramId": 16,
          "value": 1.03950012
        },
        {
          "paramId": 17,
          "value": 0.0
        },
        {
          "paramId": 18,
          "value": 0.298500031
        },
        {
          "paramId": 19,
          "value": 0.0
        },
        {
          "paramId": 20,
          "value": 0.189000085
        }
      ],
      "pos": [
        93,
        1
      ]
    },
    {
      "plugin": "AudibleInstruments",
      "version": "0.6.3",
      "model": "Tides",
      "params": [
        {
          "paramId": 0,
          "value": 0.0
        },
        {
          "paramId": 1,
          "value": 0.0
        },
        {
          "paramId": 2,
          "value": -27.5039406
        },
        {
          "paramId": 3,
          "value": 8.00399876
        },
        {
          "paramId": 4,
          "value": 0.120000713
        },
        {
          "paramId": 5,
          "value": -0.105999768
        },
        {
          "paramId": 6,
          "value": 1.0
        }
      ],
      "data": {
        "mode": 1,
        "range": 0,
        "sheep": false
      },
      "pos": [
        94,
        0
      ]
    }
  ],
  "wires": [
    {
      "color": "#c91847",
      "outputModuleId": 3,
      "outputId": 0,
      "inputModuleId": 5,
      "inputId": 0
    },
    {
      "color": "#0c8e15",
      "outputModuleId": 8,
      "outputId": 1,
      "inputModuleId": 7,
      "inputId": 0
    },
    {
      "color": "#0986ad",
      "outputModuleId": 1,
      "outputId": 0,
      "inputModuleId": 8,
      "inputId": 1
    },
    {
      "color": "#0986ad",
      "outputModuleId": 11,
      "outputId": 0,
      "inputModuleId": 15,
      "inputId": 0
    },
    {
      "color": "#c9b70e",
      "outputModuleId": 11,
      "outputId": 1,
      "inputModuleId": 16,
      "inputId": 0
    },
    {
      "color": "#0c8e15",
      "outputModuleId": 15,
      "outputId": 0,
      "inputModuleId": 2,
      "inputId": 0
    },
    {
      "color": "#0986ad",
      "outputModuleId": 16,
      "outputId": 0,
      "inputModuleId": 2,
      "inputId": 1
    },
    {
      "color": "#c9b70e",
      "outputModuleId": 17,
      "outputId": 0,
      "inputModuleId": 11,
      "inputId": 8
    },
    {
      "color": "#0986ad",
      "outputModuleId": 18,
      "outputId": 2,
      "inputModuleId": 17,
      "inputId": 0
    },
    {
      "color": "#c91847",
      "outputModuleId": 19,
      "outputId": 1,
      "inputModuleId": 17,
      "inputId": 1
    },
    {
      "color": "#0986ad",
      "outputModuleId": 3,
      "outputId": 5,
      "inputModuleId": 17,
      "inputId": 2
    },
    {
      "color": "#0986ad",
      "outputModuleId": 6,
      "outputId": 0,
      "inputModuleId": 6,
      "inputId": 1
    },
    {
      "color": "#c9b70e",
      "outputModuleId": 8,
      "outputId": 3,
      "inputModuleId": 11,
      "inputId": 2
    },
    {
      "color": "#c91847",
      "outputModuleId": 7,
      "outputId": 0,
      "inputModuleId": 11,
      "inputId": 5
    },
    {
      "color": "#0c8e15",
      "outputModuleId": 0,
      "outputId": 0,
      "inputModuleId": 7,
      "inputId": 1
    },
    {
      "color": "#0986ad",
      "outputModuleId": 0,
      "outputId": 0,
      "inputModuleId": 1,
      "inputId": 0
    },
    {
      "color": "#c91847",
      "outputModuleId": 5,
      "outputId": 0,
      "inputModuleId": 0,
      "inputId": 0
    },
    {
      "color": "#0c8e15",
      "outputModuleId": 5,
      "outputId": 1,
      "inputModuleId": 0,
      "inputId": 1
    },
    {
      "color": "#0986ad",
      "outputModuleId": 4,
      "outputId": 0,
      "inputModuleId": 0,
      "inputId": 13
    },
    {
      "color": "#c9b70e",
      "outputModuleId": 7,
      "outputId": 1,
      "inputModuleId": 7,
      "inputId": 3
    },
    {
      "color": "#0986ad",
      "outputModuleId": 3,
      "outputId": 2,
      "inputModuleId": 7,
      "inputId": 6
    },
    {
      "color": "#0c8e15",
      "outputModuleId": 7,
      "outputId": 3,
      "inputModuleId": 1,
      "inputId": 1
    }
  ]
}