{
  "version": "1.1.3",
  "modules": [
    {
      "id": 25,
      "plugin": "Core",
      "version": "1.1.3",
      "model": "AudioInterface",
      "params": [],
      "leftModuleId": 48,
      "rightModuleId": 47,
      "data": {
        "audio": {
          "driver": 8,
          "offset": 1134365321,
          "maxChannels": 8,
          "sampleRate": 44100,
          "blockSize": 256
        }
      },
      "pos": [
        80,
        0
      ]
    },
    {
      "id": 35,
      "plugin": "Autodafe",
      "version": "1.0.1",
      "model": "Multiple18",
      "params": [],
      "leftModuleId": 92,
      "pos": [
        44,
        1
      ]
    },
    {
      "id": 36,
      "plugin": "Fundamental",
      "version": "1.1.1",
      "model": "VCO",
      "params": [
        {
          "id": 0,
          "value": 1.0
        },
        {
          "id": 1,
          "value": 1.0
        },
        {
          "id": 2,
          "value": 0.0
        },
        {
          "id": 3,
          "value": 0.0
        },
        {
          "id": 4,
          "value": 0.245999992
        },
        {
          "id": 5,
          "value": 0.5
        },
        {
          "id": 6,
          "value": 0.0
        }
      ],
      "leftModuleId": 90,
      "rightModuleId": 37,
      "pos": [
        50,
        0
      ]
    },
    {
      "id": 37,
      "plugin": "Fundamental",
      "version": "1.1.1",
      "model": "VCA-1",
      "params": [
        {
          "id": 0,
          "value": 1.0
        },
        {
          "id": 1,
          "value": 1.0
        }
      ],
      "leftModuleId": 36,
      "pos": [
        60,
        0
      ]
    },
    {
      "id": 41,
      "plugin": "Fundamental",
      "version": "1.1.1",
      "model": "ADSR",
      "params": [
        {
          "id": 0,
          "value": 0.0
        },
        {
          "id": 1,
          "value": 0.351500094
        },
        {
          "id": 2,
          "value": 0.0
        },
        {
          "id": 3,
          "value": 0.0
        }
      ],
      "rightModuleId": 91,
      "pos": [
        50,
        1
      ]
    },
    {
      "id": 45,
      "plugin": "Fundamental",
      "version": "1.1.1",
      "model": "Mutes",
      "params": [
        {
          "id": 0,
          "value": 0.0
        },
        {
          "id": 1,
          "value": 0.0
        },
        {
          "id": 2,
          "value": 0.0
        },
        {
          "id": 3,
          "value": 0.0
        },
        {
          "id": 4,
          "value": 0.0
        },
        {
          "id": 5,
          "value": 0.0
        },
        {
          "id": 6,
          "value": 0.0
        },
        {
          "id": 7,
          "value": 0.0
        },
        {
          "id": 8,
          "value": 0.0
        },
        {
          "id": 9,
          "value": 0.0
        }
      ],
      "leftModuleId": 51,
      "rightModuleId": 46,
      "data": {
        "states": [
          true,
          true,
          true,
          true,
          true,
          true,
          true,
          true,
          true,
          true
        ]
      },
      "pos": [
        86,
        1
      ]
    },
    {
      "id": 46,
      "plugin": "Core",
      "version": "1.1.3",
      "model": "Notes",
      "params": [],
      "leftModuleId": 45,
      "text": "Yellow - audio\n\n\n\n\nGray - 1V/oct pitch control\n         voltage\n\n\n\nBlue - all other control voltages\n\n\n\n\nRed - triggers and gates\n\n\n\n\nGreen - master clocks",
      "pos": [
        94,
        1
      ]
    },
    {
      "id": 47,
      "plugin": "Core",
      "version": "1.1.3",
      "model": "Notes",
      "params": [],
      "leftModuleId": 25,
      "rightModuleId": 49,
      "text": "Don't forget to choose your audio device and unmute the mixer.\n\nList of used module collections:\n--------------------------------\n- VCV\n- BogAudio\n- AutoDafe\n- Impromptu\n\nHave fun!",
      "pos": [
        90,
        0
      ]
    },
    {
      "id": 48,
      "plugin": "Bogaudio",
      "version": "1.1.21",
      "model": "Bogaudio-Mix4",
      "params": [
        {
          "id": 0,
          "value": 0.909090936
        },
        {
          "id": 1,
          "value": 0.0
        },
        {
          "id": 2,
          "value": 0.0
        },
        {
          "id": 3,
          "value": 0.909090936
        },
        {
          "id": 4,
          "value": 0.0
        },
        {
          "id": 5,
          "value": 0.0
        },
        {
          "id": 6,
          "value": 0.909090936
        },
        {
          "id": 7,
          "value": 0.0
        },
        {
          "id": 8,
          "value": 0.0
        },
        {
          "id": 9,
          "value": 0.909090936
        },
        {
          "id": 10,
          "value": 0.0
        },
        {
          "id": 11,
          "value": 0.0
        },
        {
          "id": 12,
          "value": 0.909090936
        },
        {
          "id": 13,
          "value": 1.0
        }
      ],
      "rightModuleId": 25,
      "pos": [
        65,
        0
      ]
    },
    {
      "id": 49,
      "plugin": "PatchAndTweak",
      "version": "1.0.1",
      "model": "Blank",
      "params": [],
      "leftModuleId": 47,
      "pos": [
        106,
        0
      ]
    },
    {
      "id": 51,
      "plugin": "PatchAndTweak",
      "version": "1.0.1",
      "model": "BlankBenders",
      "params": [],
      "rightModuleId": 45,
      "pos": [
        74,
        1
      ]
    },
    {
      "id": 90,
      "plugin": "Fundamental",
      "version": "1.1.1",
      "model": "VCO",
      "params": [
        {
          "id": 0,
          "value": 1.0
        },
        {
          "id": 1,
          "value": 1.0
        },
        {
          "id": 2,
          "value": -12.3120003
        },
        {
          "id": 3,
          "value": 0.0
        },
        {
          "id": 4,
          "value": 0.0
        },
        {
          "id": 5,
          "value": 0.5
        },
        {
          "id": 6,
          "value": 0.0
        }
      ],
      "leftModuleId": 93,
      "rightModuleId": 36,
      "pos": [
        40,
        0
      ]
    },
    {
      "id": 91,
      "plugin": "Fundamental",
      "version": "1.1.1",
      "model": "ADSR",
      "params": [
        {
          "id": 0,
          "value": 0.0
        },
        {
          "id": 1,
          "value": 0.0
        },
        {
          "id": 2,
          "value": 1.0
        },
        {
          "id": 3,
          "value": 0.37199986
        }
      ],
      "leftModuleId": 41,
      "pos": [
        58,
        1
      ]
    },
    {
      "id": 92,
      "plugin": "ImpromptuModular",
      "version": "1.1.0",
      "model": "Twelve-Key",
      "params": [
        {
          "id": 0,
          "value": 0.0
        },
        {
          "id": 1,
          "value": 0.0
        },
        {
          "id": 2,
          "value": 0.0
        },
        {
          "id": 3,
          "value": 0.0
        }
      ],
      "leftModuleId": 119,
      "rightModuleId": 35,
      "data": {
        "panelTheme": 0,
        "octave": 4,
        "cv": 0.416666687,
        "vel": 0.54285717,
        "maxVel": 10.0,
        "stateInternal": true,
        "invertVel": false,
        "linkVelSettings": false
      },
      "pos": [
        24,
        1
      ]
    },
    {
      "id": 93,
      "plugin": "Core",
      "version": "1.1.3",
      "model": "Notes",
      "params": [],
      "rightModuleId": 90,
      "text": "Hard sync, P.112\n------------------\n\nA typical sync patch, where the pitch CV goes through a buffered multiple and the trigger for the envelopes is split, with one modulating the CV and the other the amplitude.\n",
      "pos": [
        24,
        0
      ]
    },
    {
      "id": 119,
      "plugin": "Core",
      "version": "1.1.3",
      "model": "Notes",
      "params": [],
      "leftModuleId": 120,
      "rightModuleId": 92,
      "text": "You can use the Twelve-Key from Impromptu ----->\nOr connect your own Midi keyboard and use the VCV Midi module\n<-----",
      "pos": [
        8,
        1
      ]
    },
    {
      "id": 120,
      "plugin": "Core",
      "version": "1.1.3",
      "model": "MIDIToCVInterface",
      "params": [],
      "rightModuleId": 119,
      "data": {
        "channels": 1,
        "polyMode": 0,
        "clockDivision": 24,
        "lastPitch": 8192,
        "lastMod": 0,
        "midi": {
          "driver": 4,
          "channel": -1
        }
      },
      "pos": [
        0,
        1
      ]
    }
  ],
  "cables": [
    {
      "id": 127,
      "outputModuleId": 45,
      "outputId": 0,
      "inputModuleId": 45,
      "inputId": 0,
      "color": "#c9b70e"
    },
    {
      "id": 128,
      "outputModuleId": 45,
      "outputId": 2,
      "inputModuleId": 45,
      "inputId": 2,
      "color": "#707070"
    },
    {
      "id": 129,
      "outputModuleId": 45,
      "outputId": 4,
      "inputModuleId": 45,
      "inputId": 4,
      "color": "#0986ad"
    },
    {
      "id": 130,
      "outputModuleId": 45,
      "outputId": 6,
      "inputModuleId": 45,
      "inputId": 6,
      "color": "#c91847"
    },
    {
      "id": 131,
      "outputModuleId": 45,
      "outputId": 8,
      "inputModuleId": 45,
      "inputId": 8,
      "color": "#0c8e15"
    },
    {
      "id": 132,
      "outputModuleId": 48,
      "outputId": 0,
      "inputModuleId": 25,
      "inputId": 0,
      "color": "#c9b70e"
    },
    {
      "id": 133,
      "outputModuleId": 48,
      "outputId": 1,
      "inputModuleId": 25,
      "inputId": 1,
      "color": "#c9b70e"
    },
    {
      "id": 134,
      "outputModuleId": 36,
      "outputId": 2,
      "inputModuleId": 37,
      "inputId": 1,
      "color": "#c9b70e"
    },
    {
      "id": 135,
      "outputModuleId": 90,
      "outputId": 3,
      "inputModuleId": 36,
      "inputId": 2,
      "color": "#c9b70e"
    },
    {
      "id": 138,
      "outputModuleId": 35,
      "outputId": 0,
      "inputModuleId": 90,
      "inputId": 0,
      "color": "#707070"
    },
    {
      "id": 139,
      "outputModuleId": 35,
      "outputId": 1,
      "inputModuleId": 36,
      "inputId": 0,
      "color": "#707070"
    },
    {
      "id": 143,
      "outputModuleId": 91,
      "outputId": 0,
      "inputModuleId": 37,
      "inputId": 0,
      "color": "#0986ad"
    },
    {
      "id": 144,
      "outputModuleId": 37,
      "outputId": 0,
      "inputModuleId": 48,
      "inputId": 2,
      "color": "#c9b70e"
    },
    {
      "id": 141,
      "outputModuleId": 41,
      "outputId": 0,
      "inputModuleId": 36,
      "inputId": 1,
      "color": "#0986ad"
    },
    {
      "id": 142,
      "outputModuleId": 92,
      "outputId": 0,
      "inputModuleId": 91,
      "inputId": 4,
      "color": "#c91847"
    },
    {
      "id": 140,
      "outputModuleId": 92,
      "outputId": 0,
      "inputModuleId": 41,
      "inputId": 4,
      "color": "#c91847"
    },
    {
      "id": 136,
      "outputModuleId": 92,
      "outputId": 1,
      "inputModuleId": 35,
      "inputId": 0,
      "color": "#707070"
    }
  ]
}