{
  "version": "1.1.3",
  "modules": [
    {
      "id": 25,
      "plugin": "Core",
      "version": "1.1.3",
      "model": "AudioInterface",
      "params": [],
      "leftModuleId": 48,
      "rightModuleId": 47,
      "data": {
        "audio": {
          "driver": 8,
          "offset": 1263940943,
          "maxChannels": 8,
          "sampleRate": 44100,
          "blockSize": 256
        }
      },
      "pos": [
        106,
        0
      ]
    },
    {
      "id": 35,
      "plugin": "Autodafe",
      "version": "1.0.1",
      "model": "Multiple18",
      "params": [],
      "leftModuleId": 97,
      "rightModuleId": 36,
      "pos": [
        44,
        0
      ]
    },
    {
      "id": 36,
      "plugin": "Fundamental",
      "version": "1.1.1",
      "model": "VCO",
      "params": [
        {
          "id": 0,
          "value": 1.0
        },
        {
          "id": 1,
          "value": 1.0
        },
        {
          "id": 2,
          "value": -11.987999
        },
        {
          "id": 3,
          "value": 0.0
        },
        {
          "id": 4,
          "value": 0.0
        },
        {
          "id": 5,
          "value": 0.5
        },
        {
          "id": 6,
          "value": 0.0
        }
      ],
      "leftModuleId": 35,
      "rightModuleId": 37,
      "pos": [
        47,
        0
      ]
    },
    {
      "id": 37,
      "plugin": "Fundamental",
      "version": "1.1.1",
      "model": "VCA-1",
      "params": [
        {
          "id": 0,
          "value": 1.0
        },
        {
          "id": 1,
          "value": 1.0
        }
      ],
      "leftModuleId": 36,
      "rightModuleId": 98,
      "pos": [
        57,
        0
      ]
    },
    {
      "id": 41,
      "plugin": "Fundamental",
      "version": "1.1.1",
      "model": "ADSR",
      "params": [
        {
          "id": 0,
          "value": 0.0
        },
        {
          "id": 1,
          "value": 0.323000044
        },
        {
          "id": 2,
          "value": 0.0
        },
        {
          "id": 3,
          "value": 0.0
        }
      ],
      "rightModuleId": 102,
      "pos": [
        57,
        1
      ]
    },
    {
      "id": 45,
      "plugin": "Fundamental",
      "version": "1.1.1",
      "model": "Mutes",
      "params": [
        {
          "id": 0,
          "value": 0.0
        },
        {
          "id": 1,
          "value": 0.0
        },
        {
          "id": 2,
          "value": 0.0
        },
        {
          "id": 3,
          "value": 0.0
        },
        {
          "id": 4,
          "value": 0.0
        },
        {
          "id": 5,
          "value": 0.0
        },
        {
          "id": 6,
          "value": 0.0
        },
        {
          "id": 7,
          "value": 0.0
        },
        {
          "id": 8,
          "value": 0.0
        },
        {
          "id": 9,
          "value": 0.0
        }
      ],
      "leftModuleId": 53,
      "rightModuleId": 46,
      "data": {
        "states": [
          true,
          true,
          true,
          true,
          true,
          true,
          true,
          true,
          true,
          true
        ]
      },
      "pos": [
        112,
        1
      ]
    },
    {
      "id": 46,
      "plugin": "Core",
      "version": "1.1.3",
      "model": "Notes",
      "params": [],
      "leftModuleId": 45,
      "text": "Yellow - audio\n\n\n\n\nGray - 1V/oct pitch control\n         voltage\n\n\n\nBlue - all other control voltages\n\n\n\n\nRed - triggers and gates\n\n\n\n\nGreen - master clocks",
      "pos": [
        120,
        1
      ]
    },
    {
      "id": 47,
      "plugin": "Core",
      "version": "1.1.3",
      "model": "Notes",
      "params": [],
      "leftModuleId": 25,
      "rightModuleId": 49,
      "text": "Don't forget to choose your audio device and unmute the mixer.\n\nList of used module collections:\n--------------------------------\n- VCV\n- BogAudio\n- AutoDafe\n- Impromptu\n- Lindenberg Research\n\nHave fun!",
      "pos": [
        116,
        0
      ]
    },
    {
      "id": 48,
      "plugin": "Bogaudio",
      "version": "1.1.21",
      "model": "Bogaudio-Mix4",
      "params": [
        {
          "id": 0,
          "value": 0.909090936
        },
        {
          "id": 1,
          "value": 0.0
        },
        {
          "id": 2,
          "value": 0.0
        },
        {
          "id": 3,
          "value": 0.909090936
        },
        {
          "id": 4,
          "value": 0.0
        },
        {
          "id": 5,
          "value": 0.0
        },
        {
          "id": 6,
          "value": 0.909090936
        },
        {
          "id": 7,
          "value": 0.0
        },
        {
          "id": 8,
          "value": 0.0
        },
        {
          "id": 9,
          "value": 0.909090936
        },
        {
          "id": 10,
          "value": 0.0
        },
        {
          "id": 11,
          "value": 0.0
        },
        {
          "id": 12,
          "value": 0.909090936
        },
        {
          "id": 13,
          "value": 1.0
        }
      ],
      "rightModuleId": 25,
      "pos": [
        91,
        0
      ]
    },
    {
      "id": 49,
      "plugin": "PatchAndTweak",
      "version": "1.0.1",
      "model": "Blank",
      "params": [],
      "leftModuleId": 47,
      "pos": [
        132,
        0
      ]
    },
    {
      "id": 53,
      "plugin": "PatchAndTweak",
      "version": "1.0.1",
      "model": "BlankRimbaud",
      "params": [],
      "rightModuleId": 45,
      "pos": [
        102,
        1
      ]
    },
    {
      "id": 97,
      "plugin": "ImpromptuModular",
      "version": "1.1.0",
      "model": "Twelve-Key",
      "params": [
        {
          "id": 0,
          "value": 0.0
        },
        {
          "id": 1,
          "value": 0.0
        },
        {
          "id": 2,
          "value": 0.0
        },
        {
          "id": 3,
          "value": 0.0
        }
      ],
      "leftModuleId": 123,
      "rightModuleId": 35,
      "data": {
        "panelTheme": 0,
        "octave": 4,
        "cv": 0.5,
        "vel": 0.54285717,
        "maxVel": 10.0,
        "stateInternal": true,
        "invertVel": false,
        "linkVelSettings": false
      },
      "pos": [
        24,
        0
      ]
    },
    {
      "id": 98,
      "plugin": "Fundamental",
      "version": "1.1.1",
      "model": "VCO",
      "params": [
        {
          "id": 0,
          "value": 1.0
        },
        {
          "id": 1,
          "value": 1.0
        },
        {
          "id": 2,
          "value": 0.0
        },
        {
          "id": 3,
          "value": 0.0
        },
        {
          "id": 4,
          "value": 0.618999839
        },
        {
          "id": 5,
          "value": 0.5
        },
        {
          "id": 6,
          "value": 0.0
        }
      ],
      "leftModuleId": 37,
      "rightModuleId": 108,
      "pos": [
        60,
        0
      ]
    },
    {
      "id": 100,
      "plugin": "Fundamental",
      "version": "1.1.1",
      "model": "VCA-1",
      "params": [
        {
          "id": 0,
          "value": 1.0
        },
        {
          "id": 1,
          "value": 1.0
        }
      ],
      "leftModuleId": 107,
      "pos": [
        87,
        0
      ]
    },
    {
      "id": 101,
      "plugin": "Fundamental",
      "version": "1.1.1",
      "model": "ADSR",
      "params": [
        {
          "id": 0,
          "value": 0.0
        },
        {
          "id": 1,
          "value": 0.71600014
        },
        {
          "id": 2,
          "value": 0.0
        },
        {
          "id": 3,
          "value": 0.0
        }
      ],
      "pos": [
        74,
        1
      ]
    },
    {
      "id": 102,
      "plugin": "Fundamental",
      "version": "1.1.1",
      "model": "ADSR",
      "params": [
        {
          "id": 0,
          "value": 0.0
        },
        {
          "id": 1,
          "value": 0.733999968
        },
        {
          "id": 2,
          "value": 0.0
        },
        {
          "id": 3,
          "value": 0.0
        }
      ],
      "leftModuleId": 41,
      "pos": [
        65,
        1
      ]
    },
    {
      "id": 103,
      "plugin": "Fundamental",
      "version": "1.1.1",
      "model": "Scope",
      "params": [
        {
          "id": 0,
          "value": 2.0
        },
        {
          "id": 1,
          "value": 0.0
        },
        {
          "id": 2,
          "value": 0.0
        },
        {
          "id": 3,
          "value": 0.0
        },
        {
          "id": 4,
          "value": 16.0
        },
        {
          "id": 5,
          "value": 0.0
        },
        {
          "id": 6,
          "value": 0.0
        },
        {
          "id": 7,
          "value": 0.0
        }
      ],
      "data": {
        "lissajous": 0,
        "external": 0
      },
      "pos": [
        87,
        1
      ]
    },
    {
      "id": 107,
      "plugin": "LindenbergResearch",
      "version": "1.1.0",
      "model": "Westcoast_VCS",
      "params": [
        {
          "id": 0,
          "value": 1.0
        },
        {
          "id": 1,
          "value": 0.6426
        },
        {
          "id": 2,
          "value": 0.0
        },
        {
          "id": 3,
          "value": 0.0
        },
        {
          "id": 4,
          "value": 2.0
        }
      ],
      "leftModuleId": 108,
      "rightModuleId": 100,
      "gestaltID": 1,
      "gradient": true,
      "patina": false,
      "patina_a_x": -206.860352,
      "patina_a_y": -60.7382507,
      "patina_b_x": -334.123108,
      "patina_b_y": -318.179047,
      "pos": [
        73,
        0
      ]
    },
    {
      "id": 108,
      "plugin": "Fundamental",
      "version": "1.1.1",
      "model": "VCA-1",
      "params": [
        {
          "id": 0,
          "value": 1.0
        },
        {
          "id": 1,
          "value": 1.0
        }
      ],
      "leftModuleId": 98,
      "rightModuleId": 107,
      "pos": [
        70,
        0
      ]
    },
    {
      "id": 109,
      "plugin": "Core",
      "version": "1.1.3",
      "model": "Notes",
      "params": [],
      "rightModuleId": 110,
      "text": "Comlex oscillators, P.115\n-------------------------\n\nPatch your own.\nYou don't need to buy a single, specialized module to get a complex oscillator's sound; you can also patch your own 'complex oscillator'. You just need two VCOs (preferably with sine or triangle waveforms), a VCA, and a waveshaper or wave folder module. You can even mix and match manufacturers. Patch the sine or triangle from one VCO through a VCA to the second VCO's FM input. Then patch that VCO's output to the wave folder. For bonus points, also patch the second VCO through a VCA to the wave folder's depth CV. Drive the VCA(s) and the wavefolding depth with AD envelopes or better. ",
      "pos": [
        24,
        1
      ]
    },
    {
      "id": 110,
      "plugin": "Core",
      "version": "1.1.3",
      "model": "Notes",
      "params": [],
      "leftModuleId": 109,
      "text": "You can optionally patch the carrier's square wave back to the sync input of the modulator.",
      "pos": [
        40,
        1
      ]
    },
    {
      "id": 123,
      "plugin": "Core",
      "version": "1.1.3",
      "model": "Notes",
      "params": [],
      "leftModuleId": 124,
      "rightModuleId": 97,
      "text": "You can use the Twelve-Key from Impromptu ----->\nOr connect your own Midi keyboard and use the VCV Midi module\n<-----",
      "pos": [
        8,
        0
      ]
    },
    {
      "id": 124,
      "plugin": "Core",
      "version": "1.1.3",
      "model": "MIDIToCVInterface",
      "params": [],
      "rightModuleId": 123,
      "data": {
        "channels": 1,
        "polyMode": 0,
        "clockDivision": 24,
        "lastPitch": 8192,
        "lastMod": 0,
        "midi": {
          "driver": 4,
          "channel": -1
        }
      },
      "pos": [
        0,
        0
      ]
    }
  ],
  "cables": [
    {
      "id": 127,
      "outputModuleId": 45,
      "outputId": 0,
      "inputModuleId": 45,
      "inputId": 0,
      "color": "#c9b70e"
    },
    {
      "id": 128,
      "outputModuleId": 45,
      "outputId": 2,
      "inputModuleId": 45,
      "inputId": 2,
      "color": "#707070"
    },
    {
      "id": 129,
      "outputModuleId": 45,
      "outputId": 4,
      "inputModuleId": 45,
      "inputId": 4,
      "color": "#0986ad"
    },
    {
      "id": 130,
      "outputModuleId": 45,
      "outputId": 6,
      "inputModuleId": 45,
      "inputId": 6,
      "color": "#c91847"
    },
    {
      "id": 131,
      "outputModuleId": 45,
      "outputId": 8,
      "inputModuleId": 45,
      "inputId": 8,
      "color": "#0c8e15"
    },
    {
      "id": 132,
      "outputModuleId": 48,
      "outputId": 0,
      "inputModuleId": 25,
      "inputId": 0,
      "color": "#c9b70e"
    },
    {
      "id": 133,
      "outputModuleId": 48,
      "outputId": 1,
      "inputModuleId": 25,
      "inputId": 1,
      "color": "#c9b70e"
    },
    {
      "id": 134,
      "outputModuleId": 97,
      "outputId": 1,
      "inputModuleId": 35,
      "inputId": 0,
      "color": "#707070"
    },
    {
      "id": 135,
      "outputModuleId": 35,
      "outputId": 0,
      "inputModuleId": 36,
      "inputId": 0,
      "color": "#707070"
    },
    {
      "id": 136,
      "outputModuleId": 35,
      "outputId": 1,
      "inputModuleId": 98,
      "inputId": 0,
      "color": "#707070"
    },
    {
      "id": 137,
      "outputModuleId": 36,
      "outputId": 0,
      "inputModuleId": 37,
      "inputId": 1,
      "color": "#c9b70e"
    },
    {
      "id": 138,
      "outputModuleId": 37,
      "outputId": 0,
      "inputModuleId": 98,
      "inputId": 1,
      "color": "#0986ad"
    },
    {
      "id": 142,
      "outputModuleId": 97,
      "outputId": 0,
      "inputModuleId": 41,
      "inputId": 4,
      "color": "#c91847"
    },
    {
      "id": 143,
      "outputModuleId": 97,
      "outputId": 0,
      "inputModuleId": 101,
      "inputId": 4,
      "color": "#c91847"
    },
    {
      "id": 144,
      "outputModuleId": 97,
      "outputId": 0,
      "inputModuleId": 102,
      "inputId": 4,
      "color": "#c91847"
    },
    {
      "id": 145,
      "outputModuleId": 41,
      "outputId": 0,
      "inputModuleId": 37,
      "inputId": 0,
      "color": "#0986ad"
    },
    {
      "id": 146,
      "outputModuleId": 101,
      "outputId": 0,
      "inputModuleId": 100,
      "inputId": 0,
      "color": "#0986ad"
    },
    {
      "id": 148,
      "outputModuleId": 100,
      "outputId": 0,
      "inputModuleId": 48,
      "inputId": 2,
      "color": "#c9b70e"
    },
    {
      "id": 149,
      "outputModuleId": 100,
      "outputId": 0,
      "inputModuleId": 103,
      "inputId": 0,
      "color": "#c9b70e"
    },
    {
      "id": 139,
      "outputModuleId": 98,
      "outputId": 0,
      "inputModuleId": 107,
      "inputId": 0,
      "color": "#c9b70e"
    },
    {
      "id": 140,
      "outputModuleId": 107,
      "outputId": 0,
      "inputModuleId": 100,
      "inputId": 1,
      "color": "#c9b70e"
    },
    {
      "id": 154,
      "outputModuleId": 108,
      "outputId": 0,
      "inputModuleId": 107,
      "inputId": 1,
      "color": "#0986ad"
    },
    {
      "id": 155,
      "outputModuleId": 36,
      "outputId": 1,
      "inputModuleId": 108,
      "inputId": 1,
      "color": "#0986ad"
    },
    {
      "id": 156,
      "outputModuleId": 102,
      "outputId": 0,
      "inputModuleId": 108,
      "inputId": 0,
      "color": "#0986ad"
    },
    {
      "id": 157,
      "outputModuleId": 98,
      "outputId": 3,
      "inputModuleId": 36,
      "inputId": 2,
      "color": "#c9b70e"
    }
  ]
}