{
  "version": "1.1.3",
  "modules": [
    {
      "id": 25,
      "plugin": "Core",
      "version": "1.1.3",
      "model": "AudioInterface",
      "params": [],
      "leftModuleId": 48,
      "rightModuleId": 47,
      "data": {
        "audio": {
          "driver": 8,
          "offset": 1116613201,
          "maxChannels": 8,
          "sampleRate": 44100,
          "blockSize": 256
        }
      },
      "pos": [
        69,
        0
      ]
    },
    {
      "id": 36,
      "plugin": "Fundamental",
      "version": "1.1.1",
      "model": "VCO",
      "params": [
        {
          "id": 0,
          "value": 1.0
        },
        {
          "id": 1,
          "value": 0.0
        },
        {
          "id": 2,
          "value": -12.9599915
        },
        {
          "id": 3,
          "value": 0.0
        },
        {
          "id": 4,
          "value": 1.0
        },
        {
          "id": 5,
          "value": 0.5
        },
        {
          "id": 6,
          "value": 0.0
        }
      ],
      "leftModuleId": 146,
      "rightModuleId": 142,
      "pos": [
        33,
        1
      ]
    },
    {
      "id": 45,
      "plugin": "Fundamental",
      "version": "1.1.1",
      "model": "Mutes",
      "params": [
        {
          "id": 0,
          "value": 0.0
        },
        {
          "id": 1,
          "value": 0.0
        },
        {
          "id": 2,
          "value": 0.0
        },
        {
          "id": 3,
          "value": 0.0
        },
        {
          "id": 4,
          "value": 0.0
        },
        {
          "id": 5,
          "value": 0.0
        },
        {
          "id": 6,
          "value": 0.0
        },
        {
          "id": 7,
          "value": 0.0
        },
        {
          "id": 8,
          "value": 0.0
        },
        {
          "id": 9,
          "value": 0.0
        }
      ],
      "leftModuleId": 53,
      "rightModuleId": 46,
      "data": {
        "states": [
          true,
          true,
          true,
          true,
          true,
          true,
          true,
          true,
          true,
          true
        ]
      },
      "pos": [
        75,
        1
      ]
    },
    {
      "id": 46,
      "plugin": "Core",
      "version": "1.1.3",
      "model": "Notes",
      "params": [],
      "leftModuleId": 45,
      "text": "Yellow - audio\n\n\n\n\nGray - 1V/oct pitch control\n         voltage\n\n\n\nBlue - all other control voltages\n\n\n\n\nRed - triggers and gates\n\n\n\n\nGreen - master clocks",
      "pos": [
        83,
        1
      ]
    },
    {
      "id": 47,
      "plugin": "Core",
      "version": "1.1.3",
      "model": "Notes",
      "params": [],
      "leftModuleId": 25,
      "rightModuleId": 49,
      "text": "Don't forget to choose your audio device and unmute the mixer.\n\nList of used module collections:\n--------------------------------\n- VCV\n- BogAudio\n- Audible Instruments\n- Vult\n\nHave fun!",
      "pos": [
        79,
        0
      ]
    },
    {
      "id": 48,
      "plugin": "Bogaudio",
      "version": "1.1.21",
      "model": "Bogaudio-Mix4",
      "params": [
        {
          "id": 0,
          "value": 0.909090936
        },
        {
          "id": 1,
          "value": 0.0
        },
        {
          "id": 2,
          "value": 0.0
        },
        {
          "id": 3,
          "value": 0.909090936
        },
        {
          "id": 4,
          "value": 0.0
        },
        {
          "id": 5,
          "value": 0.0
        },
        {
          "id": 6,
          "value": 0.909090936
        },
        {
          "id": 7,
          "value": 0.0
        },
        {
          "id": 8,
          "value": 0.0
        },
        {
          "id": 9,
          "value": 0.909090936
        },
        {
          "id": 10,
          "value": 0.0
        },
        {
          "id": 11,
          "value": 0.0
        },
        {
          "id": 12,
          "value": 0.909090936
        },
        {
          "id": 13,
          "value": 1.0
        }
      ],
      "rightModuleId": 25,
      "pos": [
        54,
        0
      ]
    },
    {
      "id": 49,
      "plugin": "PatchAndTweak",
      "version": "1.0.0",
      "model": "Blank",
      "params": [],
      "leftModuleId": 47,
      "pos": [
        95,
        0
      ]
    },
    {
      "id": 53,
      "plugin": "PatchAndTweak",
      "version": "1.0.0",
      "model": "BlankRimbaud",
      "params": [],
      "rightModuleId": 45,
      "pos": [
        65,
        1
      ]
    },
    {
      "id": 139,
      "plugin": "Bogaudio",
      "version": "1.1.21",
      "model": "Bogaudio-Slew",
      "params": [
        {
          "id": 0,
          "value": 0.723999977
        },
        {
          "id": 1,
          "value": 0.0
        },
        {
          "id": 2,
          "value": 0.70600009
        },
        {
          "id": 3,
          "value": 0.0
        }
      ],
      "leftModuleId": 143,
      "rightModuleId": 141,
      "pos": [
        30,
        0
      ]
    },
    {
      "id": 141,
      "plugin": "Fundamental",
      "version": "1.1.1",
      "model": "VCO",
      "params": [
        {
          "id": 0,
          "value": 1.0
        },
        {
          "id": 1,
          "value": 0.0
        },
        {
          "id": 2,
          "value": 7.66799021
        },
        {
          "id": 3,
          "value": 0.0
        },
        {
          "id": 4,
          "value": 0.321999937
        },
        {
          "id": 5,
          "value": 0.215799972
        },
        {
          "id": 6,
          "value": 0.0
        }
      ],
      "leftModuleId": 139,
      "rightModuleId": 148,
      "pos": [
        33,
        0
      ]
    },
    {
      "id": 142,
      "plugin": "Fundamental",
      "version": "1.1.1",
      "model": "LFO",
      "params": [
        {
          "id": 0,
          "value": 1.0
        },
        {
          "id": 1,
          "value": 1.0
        },
        {
          "id": 2,
          "value": 3.99700069
        },
        {
          "id": 3,
          "value": 0.505500197
        },
        {
          "id": 4,
          "value": 0.0
        },
        {
          "id": 5,
          "value": 0.5
        },
        {
          "id": 6,
          "value": 0.0
        }
      ],
      "leftModuleId": 36,
      "pos": [
        43,
        1
      ]
    },
    {
      "id": 143,
      "plugin": "AudibleInstruments",
      "version": "1.0.0",
      "model": "Kinks",
      "params": [],
      "leftModuleId": 145,
      "rightModuleId": 139,
      "pos": [
        26,
        0
      ]
    },
    {
      "id": 145,
      "plugin": "Fundamental",
      "version": "1.1.1",
      "model": "LFO",
      "params": [
        {
          "id": 0,
          "value": 1.0
        },
        {
          "id": 1,
          "value": 1.0
        },
        {
          "id": 2,
          "value": 1.94499958
        },
        {
          "id": 3,
          "value": 0.0
        },
        {
          "id": 4,
          "value": 0.0
        },
        {
          "id": 5,
          "value": 0.5
        },
        {
          "id": 6,
          "value": 0.0
        }
      ],
      "leftModuleId": 147,
      "rightModuleId": 143,
      "pos": [
        16,
        0
      ]
    },
    {
      "id": 146,
      "plugin": "Core",
      "version": "1.1.3",
      "model": "Notes",
      "params": [],
      "rightModuleId": 36,
      "text": "Talking Chaos patch by Robert Rich, P.128\n------------------------------\n\nThe sample and hold clock is set to a moderate pace; it could also be driven by a sequencer.  The slew generator is set rather high to smooth out the sliding pitches.\nThe lower VCO is tuned slightly lower than the main VCO above it, and has its FM depth set to maximum compared to about 40% for the main VCO.",
      "pos": [
        17,
        1
      ]
    },
    {
      "id": 147,
      "plugin": "Core",
      "version": "1.1.3",
      "model": "Notes",
      "params": [],
      "rightModuleId": 145,
      "text": "An LFO-1 is acting as the clock in this case, and Utilities (Kinks) from Audible Instruments is the sample and hold, which has already an internal noise source. \nTangents from Vult is the filter, and another LFO-1 is modulating its frequency. ",
      "pos": [
        0,
        0
      ]
    },
    {
      "id": 148,
      "plugin": "VultModulesFree",
      "version": "1.1.0",
      "model": "Tangents",
      "params": [
        {
          "id": 0,
          "value": 0.5
        },
        {
          "id": 1,
          "value": 0.326999992
        },
        {
          "id": 2,
          "value": 0.42899996
        },
        {
          "id": 3,
          "value": 0.0
        },
        {
          "id": 4,
          "value": 0.618000031
        },
        {
          "id": 5,
          "value": 0.0
        },
        {
          "id": 6,
          "value": 0.0
        }
      ],
      "leftModuleId": 141,
      "pos": [
        43,
        0
      ]
    }
  ],
  "cables": [
    {
      "id": 127,
      "outputModuleId": 45,
      "outputId": 0,
      "inputModuleId": 45,
      "inputId": 0,
      "color": "#c9b70e"
    },
    {
      "id": 128,
      "outputModuleId": 45,
      "outputId": 2,
      "inputModuleId": 45,
      "inputId": 2,
      "color": "#707070"
    },
    {
      "id": 129,
      "outputModuleId": 45,
      "outputId": 4,
      "inputModuleId": 45,
      "inputId": 4,
      "color": "#0986ad"
    },
    {
      "id": 130,
      "outputModuleId": 45,
      "outputId": 6,
      "inputModuleId": 45,
      "inputId": 6,
      "color": "#c91847"
    },
    {
      "id": 131,
      "outputModuleId": 45,
      "outputId": 8,
      "inputModuleId": 45,
      "inputId": 8,
      "color": "#0c8e15"
    },
    {
      "id": 132,
      "outputModuleId": 48,
      "outputId": 0,
      "inputModuleId": 25,
      "inputId": 0,
      "color": "#c9b70e"
    },
    {
      "id": 133,
      "outputModuleId": 48,
      "outputId": 1,
      "inputModuleId": 25,
      "inputId": 1,
      "color": "#c9b70e"
    },
    {
      "id": 211,
      "outputModuleId": 139,
      "outputId": 0,
      "inputModuleId": 141,
      "inputId": 0,
      "color": "#0986ad"
    },
    {
      "id": 212,
      "outputModuleId": 36,
      "outputId": 3,
      "inputModuleId": 141,
      "inputId": 2,
      "color": "#c91847"
    },
    {
      "id": 214,
      "outputModuleId": 36,
      "outputId": 1,
      "inputModuleId": 141,
      "inputId": 1,
      "color": "#0986ad"
    },
    {
      "id": 215,
      "outputModuleId": 141,
      "outputId": 1,
      "inputModuleId": 36,
      "inputId": 1,
      "color": "#0986ad"
    },
    {
      "id": 209,
      "outputModuleId": 143,
      "outputId": 6,
      "inputModuleId": 139,
      "inputId": 2,
      "color": "#0986ad"
    },
    {
      "id": 213,
      "outputModuleId": 141,
      "outputId": 3,
      "inputModuleId": 36,
      "inputId": 2,
      "color": "#c91847"
    },
    {
      "id": 216,
      "outputModuleId": 139,
      "outputId": 0,
      "inputModuleId": 142,
      "inputId": 0,
      "color": "#0986ad"
    },
    {
      "id": 221,
      "outputModuleId": 145,
      "outputId": 3,
      "inputModuleId": 143,
      "inputId": 4,
      "color": "#c91847"
    },
    {
      "id": 219,
      "outputModuleId": 148,
      "outputId": 0,
      "inputModuleId": 48,
      "inputId": 2,
      "color": "#c9b70e"
    },
    {
      "id": 217,
      "outputModuleId": 142,
      "outputId": 1,
      "inputModuleId": 148,
      "inputId": 3,
      "color": "#0986ad"
    },
    {
      "id": 218,
      "outputModuleId": 141,
      "outputId": 0,
      "inputModuleId": 148,
      "inputId": 1,
      "color": "#c9b70e"
    }
  ]
}