{
  "version": "1.1.3",
  "modules": [
    {
      "id": 25,
      "plugin": "Core",
      "version": "1.1.3",
      "model": "AudioInterface",
      "params": [],
      "leftModuleId": 48,
      "rightModuleId": 47,
      "data": {
        "audio": {
          "driver": 8,
          "offset": 1073771109,
          "maxChannels": 8,
          "sampleRate": 44100,
          "blockSize": 256
        }
      },
      "pos": [
        64,
        0
      ]
    },
    {
      "id": 45,
      "plugin": "Fundamental",
      "version": "1.1.1",
      "model": "Mutes",
      "params": [
        {
          "id": 0,
          "value": 0.0
        },
        {
          "id": 1,
          "value": 0.0
        },
        {
          "id": 2,
          "value": 0.0
        },
        {
          "id": 3,
          "value": 0.0
        },
        {
          "id": 4,
          "value": 0.0
        },
        {
          "id": 5,
          "value": 0.0
        },
        {
          "id": 6,
          "value": 0.0
        },
        {
          "id": 7,
          "value": 0.0
        },
        {
          "id": 8,
          "value": 0.0
        },
        {
          "id": 9,
          "value": 0.0
        }
      ],
      "leftModuleId": 50,
      "rightModuleId": 46,
      "data": {
        "states": [
          true,
          true,
          true,
          true,
          true,
          true,
          true,
          true,
          true,
          true
        ]
      },
      "pos": [
        70,
        1
      ]
    },
    {
      "id": 46,
      "plugin": "Core",
      "version": "1.1.3",
      "model": "Notes",
      "params": [],
      "leftModuleId": 45,
      "text": "Yellow - audio\n\n\n\n\nGray - 1V/oct pitch control\n         voltage\n\n\n\nBlue - all other control voltages\n\n\n\n\nRed - triggers and gates\n\n\n\n\nGreen - master clocks",
      "pos": [
        78,
        1
      ]
    },
    {
      "id": 47,
      "plugin": "Core",
      "version": "1.1.3",
      "model": "Notes",
      "params": [],
      "leftModuleId": 25,
      "rightModuleId": 49,
      "text": "Don't forget to choose your audio device and unmute the mixer.\n\nList of used module collections:\n--------------------------------\n- VCV\n- BogAudio\n\nHave fun!",
      "pos": [
        74,
        0
      ]
    },
    {
      "id": 48,
      "plugin": "Bogaudio",
      "version": "1.1.21",
      "model": "Bogaudio-Mix4",
      "params": [
        {
          "id": 0,
          "value": 0.909090936
        },
        {
          "id": 1,
          "value": 0.0
        },
        {
          "id": 2,
          "value": 0.0
        },
        {
          "id": 3,
          "value": 0.909090936
        },
        {
          "id": 4,
          "value": 0.0
        },
        {
          "id": 5,
          "value": 0.0
        },
        {
          "id": 6,
          "value": 0.909090936
        },
        {
          "id": 7,
          "value": 0.0
        },
        {
          "id": 8,
          "value": 0.0
        },
        {
          "id": 9,
          "value": 0.909090936
        },
        {
          "id": 10,
          "value": 0.0
        },
        {
          "id": 11,
          "value": 0.0
        },
        {
          "id": 12,
          "value": 0.909090936
        },
        {
          "id": 13,
          "value": 1.0
        }
      ],
      "rightModuleId": 25,
      "pos": [
        49,
        0
      ]
    },
    {
      "id": 49,
      "plugin": "PatchAndTweak",
      "version": "1.0.0",
      "model": "Blank",
      "params": [],
      "leftModuleId": 47,
      "pos": [
        90,
        0
      ]
    },
    {
      "id": 50,
      "plugin": "PatchAndTweak",
      "version": "1.0.0",
      "model": "BlankBarbieri",
      "params": [],
      "rightModuleId": 45,
      "pos": [
        58,
        1
      ]
    },
    {
      "id": 115,
      "plugin": "Bogaudio",
      "version": "1.1.21",
      "model": "Bogaudio-Noise",
      "params": [],
      "rightModuleId": 116,
      "pos": [
        16,
        0
      ]
    },
    {
      "id": 116,
      "plugin": "Fundamental",
      "version": "1.1.1",
      "model": "VCA-1",
      "params": [
        {
          "id": 0,
          "value": 1.0
        },
        {
          "id": 1,
          "value": 1.0
        }
      ],
      "leftModuleId": 115,
      "rightModuleId": 118,
      "pos": [
        19,
        0
      ]
    },
    {
      "id": 117,
      "plugin": "Fundamental",
      "version": "1.1.1",
      "model": "ADSR",
      "params": [
        {
          "id": 0,
          "value": 0.0
        },
        {
          "id": 1,
          "value": 0.0
        },
        {
          "id": 2,
          "value": 0.0
        },
        {
          "id": 3,
          "value": 0.0
        }
      ],
      "leftModuleId": 121,
      "rightModuleId": 122,
      "pos": [
        19,
        1
      ]
    },
    {
      "id": 118,
      "plugin": "Fundamental",
      "version": "1.1.1",
      "model": "VCMixer",
      "params": [
        {
          "id": 0,
          "value": 1.0
        },
        {
          "id": 1,
          "value": 1.0
        },
        {
          "id": 2,
          "value": 1.0
        },
        {
          "id": 3,
          "value": 1.0
        },
        {
          "id": 4,
          "value": 1.0
        }
      ],
      "leftModuleId": 116,
      "rightModuleId": 119,
      "pos": [
        22,
        0
      ]
    },
    {
      "id": 119,
      "plugin": "Fundamental",
      "version": "1.1.1",
      "model": "Delay",
      "params": [
        {
          "id": 0,
          "value": 0.0
        },
        {
          "id": 1,
          "value": 1.0
        },
        {
          "id": 2,
          "value": 0.5
        },
        {
          "id": 3,
          "value": 1.0
        }
      ],
      "leftModuleId": 118,
      "rightModuleId": 120,
      "pos": [
        32,
        0
      ]
    },
    {
      "id": 120,
      "plugin": "Fundamental",
      "version": "1.1.1",
      "model": "VCF",
      "params": [
        {
          "id": 0,
          "value": 0.810499787
        },
        {
          "id": 1,
          "value": 0.5
        },
        {
          "id": 2,
          "value": 0.357000023
        },
        {
          "id": 3,
          "value": 0.0
        },
        {
          "id": 4,
          "value": 0.335999995
        }
      ],
      "leftModuleId": 119,
      "pos": [
        40,
        0
      ]
    },
    {
      "id": 121,
      "plugin": "Bogaudio",
      "version": "1.1.21",
      "model": "Bogaudio-Manual",
      "params": [
        {
          "id": 0,
          "value": 0.0
        }
      ],
      "leftModuleId": 124,
      "rightModuleId": 117,
      "data": {
        "triggerOnLoad": false,
        "shouldTriggerOnLoad": true
      },
      "pos": [
        16,
        1
      ]
    },
    {
      "id": 122,
      "plugin": "Core",
      "version": "1.1.3",
      "model": "Notes",
      "params": [],
      "leftModuleId": 117,
      "text": "Create your own Karplus-Strong patch, P.135\n-------------------------------\n\nSend white noise through a VCA with an instant attack and very short release. The audio delay should also be very short; the most common filter is a one pole (6dB/oct) low-pass. The delay time sets the pitch. Experiment with different 'impulse' sounds in place of the whaite noise, different filters, etc. For example, enveloping the delay line's pitch can create drum sounds. ",
      "pos": [
        27,
        1
      ]
    },
    {
      "id": 124,
      "plugin": "Core",
      "version": "1.1.3",
      "model": "Notes",
      "params": [],
      "rightModuleId": 121,
      "text": "Trigger the Manual module from BogAudio to trigger the sound --> ",
      "pos": [
        0,
        1
      ]
    }
  ],
  "cables": [
    {
      "id": 127,
      "outputModuleId": 45,
      "outputId": 0,
      "inputModuleId": 45,
      "inputId": 0,
      "color": "#c9b70e"
    },
    {
      "id": 128,
      "outputModuleId": 45,
      "outputId": 2,
      "inputModuleId": 45,
      "inputId": 2,
      "color": "#707070"
    },
    {
      "id": 129,
      "outputModuleId": 45,
      "outputId": 4,
      "inputModuleId": 45,
      "inputId": 4,
      "color": "#0986ad"
    },
    {
      "id": 130,
      "outputModuleId": 45,
      "outputId": 6,
      "inputModuleId": 45,
      "inputId": 6,
      "color": "#c91847"
    },
    {
      "id": 131,
      "outputModuleId": 45,
      "outputId": 8,
      "inputModuleId": 45,
      "inputId": 8,
      "color": "#0c8e15"
    },
    {
      "id": 132,
      "outputModuleId": 48,
      "outputId": 0,
      "inputModuleId": 25,
      "inputId": 0,
      "color": "#c9b70e"
    },
    {
      "id": 133,
      "outputModuleId": 48,
      "outputId": 1,
      "inputModuleId": 25,
      "inputId": 1,
      "color": "#c9b70e"
    },
    {
      "id": 139,
      "outputModuleId": 115,
      "outputId": 0,
      "inputModuleId": 116,
      "inputId": 1,
      "color": "#c9b70e"
    },
    {
      "id": 140,
      "outputModuleId": 116,
      "outputId": 0,
      "inputModuleId": 118,
      "inputId": 1,
      "color": "#c9b70e"
    },
    {
      "id": 141,
      "outputModuleId": 117,
      "outputId": 0,
      "inputModuleId": 116,
      "inputId": 0,
      "color": "#0986ad"
    },
    {
      "id": 142,
      "outputModuleId": 121,
      "outputId": 0,
      "inputModuleId": 117,
      "inputId": 4,
      "color": "#c91847"
    },
    {
      "id": 143,
      "outputModuleId": 118,
      "outputId": 1,
      "inputModuleId": 119,
      "inputId": 4,
      "color": "#c9b70e"
    },
    {
      "id": 144,
      "outputModuleId": 119,
      "outputId": 0,
      "inputModuleId": 120,
      "inputId": 3,
      "color": "#c9b70e"
    },
    {
      "id": 145,
      "outputModuleId": 120,
      "outputId": 0,
      "inputModuleId": 118,
      "inputId": 2,
      "color": "#c9b70e"
    },
    {
      "id": 146,
      "outputModuleId": 118,
      "outputId": 2,
      "inputModuleId": 48,
      "inputId": 2,
      "color": "#c9b70e"
    }
  ]
}