{
  "version": "1.1.3",
  "modules": [
    {
      "id": 25,
      "plugin": "Core",
      "version": "1.1.3",
      "model": "AudioInterface",
      "params": [],
      "leftModuleId": 48,
      "rightModuleId": 47,
      "data": {
        "audio": {
          "driver": 8,
          "offset": 570456352,
          "maxChannels": 8,
          "sampleRate": 44100,
          "blockSize": 256
        }
      },
      "pos": [
        104,
        0
      ]
    },
    {
      "id": 36,
      "plugin": "Fundamental",
      "version": "1.1.1",
      "model": "VCO",
      "params": [
        {
          "id": 0,
          "value": 1.0
        },
        {
          "id": 1,
          "value": 1.0
        },
        {
          "id": 2,
          "value": -41.7960014
        },
        {
          "id": 3,
          "value": 0.0
        },
        {
          "id": 4,
          "value": 0.64350009
        },
        {
          "id": 5,
          "value": 0.5
        },
        {
          "id": 6,
          "value": 0.0
        }
      ],
      "rightModuleId": 115,
      "pos": [
        60,
        1
      ]
    },
    {
      "id": 37,
      "plugin": "Fundamental",
      "version": "1.1.1",
      "model": "VCA-1",
      "params": [
        {
          "id": 0,
          "value": 1.0
        },
        {
          "id": 1,
          "value": 1.0
        }
      ],
      "leftModuleId": 112,
      "pos": [
        51,
        0
      ]
    },
    {
      "id": 41,
      "plugin": "Fundamental",
      "version": "1.1.1",
      "model": "ADSR",
      "params": [
        {
          "id": 0,
          "value": 0.0
        },
        {
          "id": 1,
          "value": 0.178500026
        },
        {
          "id": 2,
          "value": 0.0
        },
        {
          "id": 3,
          "value": 0.0
        }
      ],
      "leftModuleId": 113,
      "pos": [
        51,
        1
      ]
    },
    {
      "id": 45,
      "plugin": "Fundamental",
      "version": "1.1.1",
      "model": "Mutes",
      "params": [
        {
          "id": 0,
          "value": 0.0
        },
        {
          "id": 1,
          "value": 0.0
        },
        {
          "id": 2,
          "value": 0.0
        },
        {
          "id": 3,
          "value": 0.0
        },
        {
          "id": 4,
          "value": 0.0
        },
        {
          "id": 5,
          "value": 0.0
        },
        {
          "id": 6,
          "value": 0.0
        },
        {
          "id": 7,
          "value": 0.0
        },
        {
          "id": 8,
          "value": 0.0
        },
        {
          "id": 9,
          "value": 0.0
        }
      ],
      "leftModuleId": 51,
      "rightModuleId": 46,
      "data": {
        "states": [
          true,
          true,
          true,
          true,
          true,
          true,
          true,
          true,
          true,
          true
        ]
      },
      "pos": [
        110,
        1
      ]
    },
    {
      "id": 46,
      "plugin": "Core",
      "version": "1.1.3",
      "model": "Notes",
      "params": [],
      "leftModuleId": 45,
      "text": "Yellow - audio\n\n\n\n\nGray - 1V/oct pitch control\n         voltage\n\n\n\nBlue - all other control voltages\n\n\n\n\nRed - triggers and gates\n\n\n\n\nGreen - master clocks",
      "pos": [
        118,
        1
      ]
    },
    {
      "id": 47,
      "plugin": "Core",
      "version": "1.1.3",
      "model": "Notes",
      "params": [],
      "leftModuleId": 25,
      "rightModuleId": 49,
      "text": "Don't forget to choose your audio device and unmute the mixer.\n\nList of used module collections:\n--------------------------------\n- VCV\n- BogAudio\n\nHave fun!",
      "pos": [
        114,
        0
      ]
    },
    {
      "id": 48,
      "plugin": "Bogaudio",
      "version": "1.1.21",
      "model": "Bogaudio-Mix4",
      "params": [
        {
          "id": 0,
          "value": 0.909090936
        },
        {
          "id": 1,
          "value": 0.0
        },
        {
          "id": 2,
          "value": 0.0
        },
        {
          "id": 3,
          "value": 0.909090936
        },
        {
          "id": 4,
          "value": 0.0
        },
        {
          "id": 5,
          "value": 0.0
        },
        {
          "id": 6,
          "value": 0.909090936
        },
        {
          "id": 7,
          "value": 0.0
        },
        {
          "id": 8,
          "value": 0.0
        },
        {
          "id": 9,
          "value": 0.909090936
        },
        {
          "id": 10,
          "value": 0.0
        },
        {
          "id": 11,
          "value": 0.0
        },
        {
          "id": 12,
          "value": 0.909090936
        },
        {
          "id": 13,
          "value": 1.0
        }
      ],
      "leftModuleId": 114,
      "rightModuleId": 25,
      "pos": [
        89,
        0
      ]
    },
    {
      "id": 49,
      "plugin": "PatchAndTweak",
      "version": "1.0.0",
      "model": "Blank",
      "params": [],
      "leftModuleId": 47,
      "pos": [
        130,
        0
      ]
    },
    {
      "id": 51,
      "plugin": "PatchAndTweak",
      "version": "1.0.0",
      "model": "BlankBenders",
      "params": [],
      "rightModuleId": 45,
      "pos": [
        98,
        1
      ]
    },
    {
      "id": 112,
      "plugin": "Bogaudio",
      "version": "1.1.21",
      "model": "Bogaudio-Noise",
      "params": [],
      "leftModuleId": 141,
      "rightModuleId": 37,
      "pos": [
        48,
        0
      ]
    },
    {
      "id": 113,
      "plugin": "Bogaudio",
      "version": "1.1.21",
      "model": "Bogaudio-Manual",
      "params": [
        {
          "id": 0,
          "value": 0.0
        }
      ],
      "leftModuleId": 139,
      "rightModuleId": 41,
      "data": {
        "triggerOnLoad": false,
        "shouldTriggerOnLoad": true
      },
      "pos": [
        48,
        1
      ]
    },
    {
      "id": 114,
      "plugin": "Fundamental",
      "version": "1.1.1",
      "model": "VCMixer",
      "params": [
        {
          "id": 0,
          "value": 1.0
        },
        {
          "id": 1,
          "value": 0.639375567
        },
        {
          "id": 2,
          "value": 1.0
        },
        {
          "id": 3,
          "value": 1.0
        },
        {
          "id": 4,
          "value": 1.0
        }
      ],
      "rightModuleId": 48,
      "pos": [
        79,
        0
      ]
    },
    {
      "id": 115,
      "plugin": "Fundamental",
      "version": "1.1.1",
      "model": "VCA-1",
      "params": [
        {
          "id": 0,
          "value": 1.0
        },
        {
          "id": 1,
          "value": 1.0
        }
      ],
      "leftModuleId": 36,
      "rightModuleId": 116,
      "pos": [
        70,
        1
      ]
    },
    {
      "id": 116,
      "plugin": "Fundamental",
      "version": "1.1.1",
      "model": "ADSR",
      "params": [
        {
          "id": 0,
          "value": 0.0
        },
        {
          "id": 1,
          "value": 0.458000004
        },
        {
          "id": 2,
          "value": 0.0
        },
        {
          "id": 3,
          "value": 0.0
        }
      ],
      "leftModuleId": 115,
      "rightModuleId": 117,
      "pos": [
        73,
        1
      ]
    },
    {
      "id": 117,
      "plugin": "Fundamental",
      "version": "1.1.1",
      "model": "ADSR",
      "params": [
        {
          "id": 0,
          "value": 0.0
        },
        {
          "id": 1,
          "value": 0.65749979
        },
        {
          "id": 2,
          "value": 0.0
        },
        {
          "id": 3,
          "value": 0.0
        }
      ],
      "leftModuleId": 116,
      "pos": [
        81,
        1
      ]
    },
    {
      "id": 118,
      "plugin": "Bogaudio",
      "version": "1.1.21",
      "model": "Bogaudio-Noise",
      "params": [],
      "leftModuleId": 140,
      "rightModuleId": 119,
      "pos": [
        48,
        2
      ]
    },
    {
      "id": 119,
      "plugin": "Fundamental",
      "version": "1.1.1",
      "model": "VCA-1",
      "params": [
        {
          "id": 0,
          "value": 1.0
        },
        {
          "id": 1,
          "value": 1.0
        }
      ],
      "leftModuleId": 118,
      "pos": [
        51,
        2
      ]
    },
    {
      "id": 120,
      "plugin": "Bogaudio",
      "version": "1.1.21",
      "model": "Bogaudio-Manual",
      "params": [
        {
          "id": 0,
          "value": 0.0
        }
      ],
      "leftModuleId": 138,
      "rightModuleId": 121,
      "data": {
        "triggerOnLoad": false,
        "shouldTriggerOnLoad": true
      },
      "pos": [
        48,
        3
      ]
    },
    {
      "id": 121,
      "plugin": "Fundamental",
      "version": "1.1.1",
      "model": "ADSR",
      "params": [
        {
          "id": 0,
          "value": 0.0
        },
        {
          "id": 1,
          "value": 0.178500026
        },
        {
          "id": 2,
          "value": 0.0
        },
        {
          "id": 3,
          "value": 0.0
        }
      ],
      "leftModuleId": 120,
      "pos": [
        51,
        3
      ]
    },
    {
      "id": 122,
      "plugin": "Fundamental",
      "version": "1.1.1",
      "model": "VCO",
      "params": [
        {
          "id": 0,
          "value": 1.0
        },
        {
          "id": 1,
          "value": 1.0
        },
        {
          "id": 2,
          "value": -10.0440016
        },
        {
          "id": 3,
          "value": 0.0
        },
        {
          "id": 4,
          "value": 0.351000041
        },
        {
          "id": 5,
          "value": 0.5
        },
        {
          "id": 6,
          "value": 0.0
        }
      ],
      "rightModuleId": 123,
      "pos": [
        60,
        3
      ]
    },
    {
      "id": 123,
      "plugin": "Fundamental",
      "version": "1.1.1",
      "model": "VCA-1",
      "params": [
        {
          "id": 0,
          "value": 1.0
        },
        {
          "id": 1,
          "value": 1.0
        }
      ],
      "leftModuleId": 122,
      "rightModuleId": 124,
      "pos": [
        70,
        3
      ]
    },
    {
      "id": 124,
      "plugin": "Fundamental",
      "version": "1.1.1",
      "model": "ADSR",
      "params": [
        {
          "id": 0,
          "value": 0.0
        },
        {
          "id": 1,
          "value": 0.458000004
        },
        {
          "id": 2,
          "value": 0.0
        },
        {
          "id": 3,
          "value": 0.0
        }
      ],
      "leftModuleId": 123,
      "rightModuleId": 125,
      "pos": [
        73,
        3
      ]
    },
    {
      "id": 125,
      "plugin": "Fundamental",
      "version": "1.1.1",
      "model": "ADSR",
      "params": [
        {
          "id": 0,
          "value": 0.0
        },
        {
          "id": 1,
          "value": 0.405499876
        },
        {
          "id": 2,
          "value": 0.0
        },
        {
          "id": 3,
          "value": 0.0
        }
      ],
      "leftModuleId": 124,
      "pos": [
        81,
        3
      ]
    },
    {
      "id": 126,
      "plugin": "Fundamental",
      "version": "1.1.1",
      "model": "VCMixer",
      "params": [
        {
          "id": 0,
          "value": 1.0
        },
        {
          "id": 1,
          "value": 0.346633613
        },
        {
          "id": 2,
          "value": 1.0
        },
        {
          "id": 3,
          "value": 1.0
        },
        {
          "id": 4,
          "value": 1.0
        }
      ],
      "pos": [
        79,
        2
      ]
    },
    {
      "id": 127,
      "plugin": "Bogaudio",
      "version": "1.1.21",
      "model": "Bogaudio-Noise",
      "params": [],
      "leftModuleId": 136,
      "rightModuleId": 128,
      "pos": [
        48,
        4
      ]
    },
    {
      "id": 128,
      "plugin": "Fundamental",
      "version": "1.1.1",
      "model": "VCA-1",
      "params": [
        {
          "id": 0,
          "value": 1.0
        },
        {
          "id": 1,
          "value": 1.0
        }
      ],
      "leftModuleId": 127,
      "pos": [
        51,
        4
      ]
    },
    {
      "id": 129,
      "plugin": "Fundamental",
      "version": "1.1.1",
      "model": "VCMixer",
      "params": [
        {
          "id": 0,
          "value": 1.0
        },
        {
          "id": 1,
          "value": 1.0
        },
        {
          "id": 2,
          "value": 1.0
        },
        {
          "id": 3,
          "value": 1.0
        },
        {
          "id": 4,
          "value": 1.0
        }
      ],
      "pos": [
        79,
        4
      ]
    },
    {
      "id": 130,
      "plugin": "Bogaudio",
      "version": "1.1.21",
      "model": "Bogaudio-Manual",
      "params": [
        {
          "id": 0,
          "value": 0.0
        }
      ],
      "leftModuleId": 137,
      "rightModuleId": 131,
      "data": {
        "triggerOnLoad": false,
        "shouldTriggerOnLoad": true
      },
      "pos": [
        48,
        5
      ]
    },
    {
      "id": 131,
      "plugin": "Fundamental",
      "version": "1.1.1",
      "model": "ADSR",
      "params": [
        {
          "id": 0,
          "value": 0.0
        },
        {
          "id": 1,
          "value": 0.361500055
        },
        {
          "id": 2,
          "value": 0.0
        },
        {
          "id": 3,
          "value": 0.0
        }
      ],
      "leftModuleId": 130,
      "pos": [
        51,
        5
      ]
    },
    {
      "id": 132,
      "plugin": "Fundamental",
      "version": "1.1.1",
      "model": "VCO",
      "params": [
        {
          "id": 0,
          "value": 1.0
        },
        {
          "id": 1,
          "value": 1.0
        },
        {
          "id": 2,
          "value": 0.0
        },
        {
          "id": 3,
          "value": 0.0
        },
        {
          "id": 4,
          "value": 0.351000041
        },
        {
          "id": 5,
          "value": 0.5
        },
        {
          "id": 6,
          "value": 0.0
        }
      ],
      "rightModuleId": 133,
      "pos": [
        60,
        5
      ]
    },
    {
      "id": 133,
      "plugin": "Fundamental",
      "version": "1.1.1",
      "model": "VCA-1",
      "params": [
        {
          "id": 0,
          "value": 1.0
        },
        {
          "id": 1,
          "value": 1.0
        }
      ],
      "leftModuleId": 132,
      "rightModuleId": 134,
      "pos": [
        70,
        5
      ]
    },
    {
      "id": 134,
      "plugin": "Fundamental",
      "version": "1.1.1",
      "model": "ADSR",
      "params": [
        {
          "id": 0,
          "value": 0.0
        },
        {
          "id": 1,
          "value": 0.458000004
        },
        {
          "id": 2,
          "value": 0.0
        },
        {
          "id": 3,
          "value": 0.0
        }
      ],
      "leftModuleId": 133,
      "rightModuleId": 135,
      "pos": [
        73,
        5
      ]
    },
    {
      "id": 135,
      "plugin": "Fundamental",
      "version": "1.1.1",
      "model": "ADSR",
      "params": [
        {
          "id": 0,
          "value": 0.0
        },
        {
          "id": 1,
          "value": 0.405499876
        },
        {
          "id": 2,
          "value": 0.0
        },
        {
          "id": 3,
          "value": 0.0
        }
      ],
      "leftModuleId": 134,
      "pos": [
        81,
        5
      ]
    },
    {
      "id": 136,
      "plugin": "Core",
      "version": "1.1.3",
      "model": "Notes",
      "params": [],
      "rightModuleId": 127,
      "text": "Snare -------------------------->",
      "pos": [
        32,
        4
      ]
    },
    {
      "id": 137,
      "plugin": "Core",
      "version": "1.1.3",
      "model": "Notes",
      "params": [],
      "rightModuleId": 130,
      "text": "Trigger the Manual module from BogAudio to trigger the sound -->",
      "pos": [
        32,
        5
      ]
    },
    {
      "id": 138,
      "plugin": "Core",
      "version": "1.1.3",
      "model": "Notes",
      "params": [],
      "rightModuleId": 120,
      "text": "Trigger the Manual module from BogAudio to trigger the sound -->",
      "pos": [
        32,
        3
      ]
    },
    {
      "id": 139,
      "plugin": "Core",
      "version": "1.1.3",
      "model": "Notes",
      "params": [],
      "rightModuleId": 113,
      "text": "Trigger the Manual module from BogAudio to trigger the sound -->",
      "pos": [
        32,
        1
      ]
    },
    {
      "id": 140,
      "plugin": "Core",
      "version": "1.1.3",
      "model": "Notes",
      "params": [],
      "rightModuleId": 118,
      "text": "Tom ---------------------------->",
      "pos": [
        32,
        2
      ]
    },
    {
      "id": 141,
      "plugin": "Core",
      "version": "1.1.3",
      "model": "Notes",
      "params": [],
      "leftModuleId": 143,
      "rightModuleId": 112,
      "text": "Kick --------------------------->",
      "pos": [
        32,
        0
      ]
    },
    {
      "id": 142,
      "plugin": "Core",
      "version": "1.1.3",
      "model": "Notes",
      "params": [],
      "rightModuleId": 143,
      "text": "Analog kick, tom, and snare, P.140\n------------------------------\n\nAn analog kick drum or tom sound may be as simple as a very brief noise burst to simulate the stick or beater hitting the drum head or skin, mixed with a sine or triangle wave that is faded to silence with a VCA to simulate the resonant decay of the drum head and shell. Another common trick is to patch an AD envelope through an attenuator to a pitch input on the VCO to create a slight pitch bend, simulating the drum head being stretched when initially hit. Many exaggerate the depth and length of this envelope.",
      "pos": [
        0,
        0
      ]
    },
    {
      "id": 143,
      "plugin": "Core",
      "version": "1.1.3",
      "model": "Notes",
      "params": [],
      "leftModuleId": 142,
      "rightModuleId": 141,
      "text": "To create a snare sound, increase the pitch of the VCO, and add a noise element patched through a VCA with another AD envelope to replicate the snare rattles. This decay would be longer then the brief \"strike\" noise used for a kick or a tom.",
      "pos": [
        16,
        0
      ]
    }
  ],
  "cables": [
    {
      "id": 127,
      "outputModuleId": 45,
      "outputId": 0,
      "inputModuleId": 45,
      "inputId": 0,
      "color": "#c9b70e"
    },
    {
      "id": 128,
      "outputModuleId": 45,
      "outputId": 2,
      "inputModuleId": 45,
      "inputId": 2,
      "color": "#707070"
    },
    {
      "id": 129,
      "outputModuleId": 45,
      "outputId": 4,
      "inputModuleId": 45,
      "inputId": 4,
      "color": "#0986ad"
    },
    {
      "id": 130,
      "outputModuleId": 45,
      "outputId": 6,
      "inputModuleId": 45,
      "inputId": 6,
      "color": "#c91847"
    },
    {
      "id": 131,
      "outputModuleId": 45,
      "outputId": 8,
      "inputModuleId": 45,
      "inputId": 8,
      "color": "#0c8e15"
    },
    {
      "id": 132,
      "outputModuleId": 48,
      "outputId": 0,
      "inputModuleId": 25,
      "inputId": 0,
      "color": "#c9b70e"
    },
    {
      "id": 133,
      "outputModuleId": 48,
      "outputId": 1,
      "inputModuleId": 25,
      "inputId": 1,
      "color": "#c9b70e"
    },
    {
      "id": 134,
      "outputModuleId": 112,
      "outputId": 0,
      "inputModuleId": 37,
      "inputId": 1,
      "color": "#c9b70e"
    },
    {
      "id": 135,
      "outputModuleId": 37,
      "outputId": 0,
      "inputModuleId": 114,
      "inputId": 1,
      "color": "#c9b70e"
    },
    {
      "id": 136,
      "outputModuleId": 114,
      "outputId": 0,
      "inputModuleId": 48,
      "inputId": 2,
      "color": "#c9b70e"
    },
    {
      "id": 137,
      "outputModuleId": 41,
      "outputId": 0,
      "inputModuleId": 37,
      "inputId": 0,
      "color": "#0986ad"
    },
    {
      "id": 138,
      "outputModuleId": 113,
      "outputId": 0,
      "inputModuleId": 41,
      "inputId": 4,
      "color": "#c91847"
    },
    {
      "id": 139,
      "outputModuleId": 116,
      "outputId": 0,
      "inputModuleId": 36,
      "inputId": 1,
      "color": "#0986ad"
    },
    {
      "id": 140,
      "outputModuleId": 117,
      "outputId": 0,
      "inputModuleId": 115,
      "inputId": 0,
      "color": "#0986ad"
    },
    {
      "id": 141,
      "outputModuleId": 36,
      "outputId": 0,
      "inputModuleId": 115,
      "inputId": 1,
      "color": "#c9b70e"
    },
    {
      "id": 142,
      "outputModuleId": 115,
      "outputId": 0,
      "inputModuleId": 114,
      "inputId": 2,
      "color": "#c9b70e"
    },
    {
      "id": 143,
      "outputModuleId": 113,
      "outputId": 1,
      "inputModuleId": 116,
      "inputId": 4,
      "color": "#c91847"
    },
    {
      "id": 144,
      "outputModuleId": 113,
      "outputId": 2,
      "inputModuleId": 117,
      "inputId": 4,
      "color": "#c91847"
    },
    {
      "id": 145,
      "outputModuleId": 118,
      "outputId": 0,
      "inputModuleId": 119,
      "inputId": 1,
      "color": "#c9b70e"
    },
    {
      "id": 146,
      "outputModuleId": 121,
      "outputId": 0,
      "inputModuleId": 119,
      "inputId": 0,
      "color": "#0986ad"
    },
    {
      "id": 147,
      "outputModuleId": 120,
      "outputId": 0,
      "inputModuleId": 121,
      "inputId": 4,
      "color": "#c91847"
    },
    {
      "id": 148,
      "outputModuleId": 120,
      "outputId": 1,
      "inputModuleId": 124,
      "inputId": 4,
      "color": "#c91847"
    },
    {
      "id": 149,
      "outputModuleId": 120,
      "outputId": 2,
      "inputModuleId": 125,
      "inputId": 4,
      "color": "#c91847"
    },
    {
      "id": 150,
      "outputModuleId": 124,
      "outputId": 0,
      "inputModuleId": 122,
      "inputId": 1,
      "color": "#0986ad"
    },
    {
      "id": 151,
      "outputModuleId": 125,
      "outputId": 0,
      "inputModuleId": 123,
      "inputId": 0,
      "color": "#0986ad"
    },
    {
      "id": 152,
      "outputModuleId": 122,
      "outputId": 0,
      "inputModuleId": 123,
      "inputId": 1,
      "color": "#c9b70e"
    },
    {
      "id": 153,
      "outputModuleId": 119,
      "outputId": 0,
      "inputModuleId": 126,
      "inputId": 1,
      "color": "#c9b70e"
    },
    {
      "id": 154,
      "outputModuleId": 123,
      "outputId": 0,
      "inputModuleId": 126,
      "inputId": 2,
      "color": "#c9b70e"
    },
    {
      "id": 155,
      "outputModuleId": 126,
      "outputId": 0,
      "inputModuleId": 48,
      "inputId": 5,
      "color": "#c9b70e"
    },
    {
      "id": 156,
      "outputModuleId": 127,
      "outputId": 0,
      "inputModuleId": 128,
      "inputId": 1,
      "color": "#c9b70e"
    },
    {
      "id": 157,
      "outputModuleId": 130,
      "outputId": 0,
      "inputModuleId": 131,
      "inputId": 4,
      "color": "#c91847"
    },
    {
      "id": 158,
      "outputModuleId": 130,
      "outputId": 1,
      "inputModuleId": 134,
      "inputId": 4,
      "color": "#c91847"
    },
    {
      "id": 159,
      "outputModuleId": 130,
      "outputId": 2,
      "inputModuleId": 135,
      "inputId": 4,
      "color": "#c91847"
    },
    {
      "id": 160,
      "outputModuleId": 131,
      "outputId": 0,
      "inputModuleId": 128,
      "inputId": 0,
      "color": "#0986ad"
    },
    {
      "id": 161,
      "outputModuleId": 134,
      "outputId": 0,
      "inputModuleId": 132,
      "inputId": 1,
      "color": "#0986ad"
    },
    {
      "id": 163,
      "outputModuleId": 135,
      "outputId": 0,
      "inputModuleId": 133,
      "inputId": 0,
      "color": "#0986ad"
    },
    {
      "id": 164,
      "outputModuleId": 128,
      "outputId": 0,
      "inputModuleId": 129,
      "inputId": 1,
      "color": "#c9b70e"
    },
    {
      "id": 165,
      "outputModuleId": 132,
      "outputId": 1,
      "inputModuleId": 133,
      "inputId": 1,
      "color": "#c9b70e"
    },
    {
      "id": 166,
      "outputModuleId": 133,
      "outputId": 0,
      "inputModuleId": 129,
      "inputId": 2,
      "color": "#c9b70e"
    },
    {
      "id": 167,
      "outputModuleId": 129,
      "outputId": 0,
      "inputModuleId": 48,
      "inputId": 8,
      "color": "#c9b70e"
    }
  ]
}