{
  "version": "1.1.3",
  "modules": [
    {
      "id": 25,
      "plugin": "Core",
      "version": "1.1.3",
      "model": "AudioInterface",
      "params": [],
      "leftModuleId": 48,
      "rightModuleId": 47,
      "data": {
        "audio": {
          "driver": 8,
          "offset": 1135312390,
          "maxChannels": 8,
          "sampleRate": 44100,
          "blockSize": 256
        }
      },
      "pos": [
        71,
        0
      ]
    },
    {
      "id": 36,
      "plugin": "Fundamental",
      "version": "1.1.1",
      "model": "VCO",
      "params": [
        {
          "id": 0,
          "value": 1.0
        },
        {
          "id": 1,
          "value": 1.0
        },
        {
          "id": 2,
          "value": -10.0439997
        },
        {
          "id": 3,
          "value": 0.0
        },
        {
          "id": 4,
          "value": 0.0
        },
        {
          "id": 5,
          "value": 0.5
        },
        {
          "id": 6,
          "value": 0.0
        }
      ],
      "leftModuleId": 149,
      "rightModuleId": 145,
      "pos": [
        24,
        0
      ]
    },
    {
      "id": 37,
      "plugin": "Fundamental",
      "version": "1.1.1",
      "model": "VCA-1",
      "params": [
        {
          "id": 0,
          "value": 1.0
        },
        {
          "id": 1,
          "value": 1.0
        }
      ],
      "leftModuleId": 146,
      "pos": [
        52,
        0
      ]
    },
    {
      "id": 41,
      "plugin": "Fundamental",
      "version": "1.1.1",
      "model": "ADSR",
      "params": [
        {
          "id": 0,
          "value": 0.0
        },
        {
          "id": 1,
          "value": 0.5
        },
        {
          "id": 2,
          "value": 0.0
        },
        {
          "id": 3,
          "value": 0.0
        }
      ],
      "pos": [
        52,
        1
      ]
    },
    {
      "id": 45,
      "plugin": "Fundamental",
      "version": "1.1.1",
      "model": "Mutes",
      "params": [
        {
          "id": 0,
          "value": 0.0
        },
        {
          "id": 1,
          "value": 0.0
        },
        {
          "id": 2,
          "value": 0.0
        },
        {
          "id": 3,
          "value": 0.0
        },
        {
          "id": 4,
          "value": 0.0
        },
        {
          "id": 5,
          "value": 0.0
        },
        {
          "id": 6,
          "value": 0.0
        },
        {
          "id": 7,
          "value": 0.0
        },
        {
          "id": 8,
          "value": 0.0
        },
        {
          "id": 9,
          "value": 0.0
        }
      ],
      "leftModuleId": 53,
      "rightModuleId": 46,
      "data": {
        "states": [
          true,
          true,
          true,
          true,
          true,
          true,
          true,
          true,
          true,
          true
        ]
      },
      "pos": [
        77,
        1
      ]
    },
    {
      "id": 46,
      "plugin": "Core",
      "version": "1.1.3",
      "model": "Notes",
      "params": [],
      "leftModuleId": 45,
      "text": "Yellow - audio\n\n\n\n\nGray - 1V/oct pitch control\n         voltage\n\n\n\nBlue - all other control voltages\n\n\n\n\nRed - triggers and gates\n\n\n\n\nGreen - master clocks",
      "pos": [
        85,
        1
      ]
    },
    {
      "id": 47,
      "plugin": "Core",
      "version": "1.1.3",
      "model": "Notes",
      "params": [],
      "leftModuleId": 25,
      "rightModuleId": 49,
      "text": "Don't forget to choose your audio device and unmute the mixer.\n\nList of used module collections:\n--------------------------------\n- VCV\n- BogAudio\n- AutoDafe\n- Impromptu\n\nHave fun!",
      "pos": [
        81,
        0
      ]
    },
    {
      "id": 48,
      "plugin": "Bogaudio",
      "version": "1.1.21",
      "model": "Bogaudio-Mix4",
      "params": [
        {
          "id": 0,
          "value": 0.909090936
        },
        {
          "id": 1,
          "value": 0.0
        },
        {
          "id": 2,
          "value": 0.0
        },
        {
          "id": 3,
          "value": 0.909090936
        },
        {
          "id": 4,
          "value": 0.0
        },
        {
          "id": 5,
          "value": 0.0
        },
        {
          "id": 6,
          "value": 0.909090936
        },
        {
          "id": 7,
          "value": 0.0
        },
        {
          "id": 8,
          "value": 0.0
        },
        {
          "id": 9,
          "value": 0.909090936
        },
        {
          "id": 10,
          "value": 0.0
        },
        {
          "id": 11,
          "value": 0.0
        },
        {
          "id": 12,
          "value": 0.909090936
        },
        {
          "id": 13,
          "value": 1.0
        }
      ],
      "rightModuleId": 25,
      "pos": [
        56,
        0
      ]
    },
    {
      "id": 49,
      "plugin": "PatchAndTweak",
      "version": "1.0.1",
      "model": "Blank",
      "params": [],
      "leftModuleId": 47,
      "pos": [
        97,
        0
      ]
    },
    {
      "id": 53,
      "plugin": "PatchAndTweak",
      "version": "1.0.1",
      "model": "BlankRimbaud",
      "params": [],
      "rightModuleId": 45,
      "pos": [
        67,
        1
      ]
    },
    {
      "id": 145,
      "plugin": "Fundamental",
      "version": "1.1.1",
      "model": "VCO",
      "params": [
        {
          "id": 0,
          "value": 1.0
        },
        {
          "id": 1,
          "value": 1.0
        },
        {
          "id": 2,
          "value": 0.0
        },
        {
          "id": 3,
          "value": 0.0
        },
        {
          "id": 4,
          "value": 0.546999931
        },
        {
          "id": 5,
          "value": 0.5
        },
        {
          "id": 6,
          "value": 0.0
        }
      ],
      "leftModuleId": 36,
      "rightModuleId": 146,
      "pos": [
        34,
        0
      ]
    },
    {
      "id": 146,
      "plugin": "Fundamental",
      "version": "1.1.1",
      "model": "VCF",
      "params": [
        {
          "id": 0,
          "value": 0.5
        },
        {
          "id": 1,
          "value": 0.5
        },
        {
          "id": 2,
          "value": 0.0
        },
        {
          "id": 3,
          "value": 0.540000081
        },
        {
          "id": 4,
          "value": 0.0
        }
      ],
      "leftModuleId": 145,
      "rightModuleId": 37,
      "pos": [
        44,
        0
      ]
    },
    {
      "id": 147,
      "plugin": "ImpromptuModular",
      "version": "1.1.0",
      "model": "Twelve-Key",
      "params": [
        {
          "id": 0,
          "value": 0.0
        },
        {
          "id": 1,
          "value": 0.0
        },
        {
          "id": 2,
          "value": 0.0
        },
        {
          "id": 3,
          "value": 0.0
        }
      ],
      "leftModuleId": 151,
      "rightModuleId": 148,
      "data": {
        "panelTheme": 0,
        "octave": 4,
        "cv": 0.416666687,
        "vel": 0.442857146,
        "maxVel": 10.0,
        "stateInternal": true,
        "invertVel": false,
        "linkVelSettings": false
      },
      "pos": [
        24,
        1
      ]
    },
    {
      "id": 148,
      "plugin": "Autodafe",
      "version": "1.0.1",
      "model": "Multiple18",
      "params": [],
      "leftModuleId": 147,
      "pos": [
        44,
        1
      ]
    },
    {
      "id": 149,
      "plugin": "Core",
      "version": "1.1.3",
      "model": "Notes",
      "params": [],
      "rightModuleId": 36,
      "text": "Buchla bongos, P.141\n--------------------\n\nA very popular 'West Coast' patch is to use a complex oscillator or one VCO modulating the frequency of another to create a comlex tone with a lot of harmonics. This is then sent through a low-pass gate - a low-pass filter that can have its cutoff frequency dropped so low that no sound gets through, or a low-pass VCF combined with a VCA - to reduce the higher harmonics as the sound dies away. \nThis 'Buchla Bongo' patch creates a complex set of harmonics using FM, then filters it using an LPG: a low-pass VCF combined with a VCA. ",
      "pos": [
        8,
        0
      ]
    },
    {
      "id": 150,
      "plugin": "Core",
      "version": "1.1.3",
      "model": "MIDIToCVInterface",
      "params": [],
      "rightModuleId": 151,
      "data": {
        "channels": 1,
        "polyMode": 0,
        "clockDivision": 24,
        "lastPitch": 8192,
        "lastMod": 0,
        "midi": {
          "driver": 4,
          "channel": -1
        }
      },
      "pos": [
        0,
        1
      ]
    },
    {
      "id": 151,
      "plugin": "Core",
      "version": "1.1.3",
      "model": "Notes",
      "params": [],
      "leftModuleId": 150,
      "rightModuleId": 147,
      "text": "You can use the Twelve-Key from Impromptu ----->\nOr connect your own Midi keyboard and use the VCV Midi module\n<-----",
      "pos": [
        8,
        1
      ]
    }
  ],
  "cables": [
    {
      "id": 127,
      "outputModuleId": 45,
      "outputId": 0,
      "inputModuleId": 45,
      "inputId": 0,
      "color": "#c9b70e"
    },
    {
      "id": 128,
      "outputModuleId": 45,
      "outputId": 2,
      "inputModuleId": 45,
      "inputId": 2,
      "color": "#707070"
    },
    {
      "id": 129,
      "outputModuleId": 45,
      "outputId": 4,
      "inputModuleId": 45,
      "inputId": 4,
      "color": "#0986ad"
    },
    {
      "id": 130,
      "outputModuleId": 45,
      "outputId": 6,
      "inputModuleId": 45,
      "inputId": 6,
      "color": "#c91847"
    },
    {
      "id": 131,
      "outputModuleId": 45,
      "outputId": 8,
      "inputModuleId": 45,
      "inputId": 8,
      "color": "#0c8e15"
    },
    {
      "id": 132,
      "outputModuleId": 48,
      "outputId": 0,
      "inputModuleId": 25,
      "inputId": 0,
      "color": "#c9b70e"
    },
    {
      "id": 133,
      "outputModuleId": 48,
      "outputId": 1,
      "inputModuleId": 25,
      "inputId": 1,
      "color": "#c9b70e"
    },
    {
      "id": 170,
      "outputModuleId": 36,
      "outputId": 2,
      "inputModuleId": 145,
      "inputId": 1,
      "color": "#0986ad"
    },
    {
      "id": 171,
      "outputModuleId": 145,
      "outputId": 0,
      "inputModuleId": 146,
      "inputId": 3,
      "color": "#c9b70e"
    },
    {
      "id": 172,
      "outputModuleId": 146,
      "outputId": 0,
      "inputModuleId": 37,
      "inputId": 1,
      "color": "#c9b70e"
    },
    {
      "id": 173,
      "outputModuleId": 41,
      "outputId": 0,
      "inputModuleId": 37,
      "inputId": 0,
      "color": "#0986ad"
    },
    {
      "id": 174,
      "outputModuleId": 37,
      "outputId": 0,
      "inputModuleId": 48,
      "inputId": 2,
      "color": "#c9b70e"
    },
    {
      "id": 175,
      "outputModuleId": 147,
      "outputId": 0,
      "inputModuleId": 41,
      "inputId": 4,
      "color": "#c91847"
    },
    {
      "id": 176,
      "outputModuleId": 147,
      "outputId": 1,
      "inputModuleId": 148,
      "inputId": 0,
      "color": "#707070"
    },
    {
      "id": 177,
      "outputModuleId": 148,
      "outputId": 0,
      "inputModuleId": 36,
      "inputId": 0,
      "color": "#707070"
    },
    {
      "id": 178,
      "outputModuleId": 148,
      "outputId": 1,
      "inputModuleId": 145,
      "inputId": 0,
      "color": "#707070"
    },
    {
      "id": 179,
      "outputModuleId": 41,
      "outputId": 0,
      "inputModuleId": 146,
      "inputId": 0,
      "color": "#0986ad"
    }
  ]
}