{
  "version": "1.1.3",
  "modules": [
    {
      "id": 25,
      "plugin": "Core",
      "version": "1.1.3",
      "model": "AudioInterface",
      "params": [],
      "leftModuleId": 48,
      "rightModuleId": 47,
      "data": {
        "audio": {
          "driver": 8,
          "offset": 1119241672,
          "maxChannels": 8,
          "sampleRate": 44100,
          "blockSize": 512
        }
      },
      "pos": [
        89,
        0
      ]
    },
    {
      "id": 36,
      "plugin": "Fundamental",
      "version": "1.2.0",
      "model": "VCO",
      "params": [
        {
          "id": 0,
          "value": 1.0
        },
        {
          "id": 1,
          "value": 1.0
        },
        {
          "id": 2,
          "value": -10.8540001
        },
        {
          "id": 3,
          "value": 0.0
        },
        {
          "id": 4,
          "value": 0.0
        },
        {
          "id": 5,
          "value": 0.5
        },
        {
          "id": 6,
          "value": 0.0
        }
      ],
      "leftModuleId": 88,
      "rightModuleId": 187,
      "pos": [
        60,
        0
      ]
    },
    {
      "id": 45,
      "plugin": "Fundamental",
      "version": "1.2.0",
      "model": "Mutes",
      "params": [
        {
          "id": 0,
          "value": 0.0
        },
        {
          "id": 1,
          "value": 0.0
        },
        {
          "id": 2,
          "value": 0.0
        },
        {
          "id": 3,
          "value": 0.0
        },
        {
          "id": 4,
          "value": 0.0
        },
        {
          "id": 5,
          "value": 0.0
        },
        {
          "id": 6,
          "value": 0.0
        },
        {
          "id": 7,
          "value": 0.0
        },
        {
          "id": 8,
          "value": 0.0
        },
        {
          "id": 9,
          "value": 0.0
        }
      ],
      "leftModuleId": 50,
      "rightModuleId": 46,
      "data": {
        "states": [
          true,
          true,
          true,
          true,
          true,
          true,
          true,
          true,
          true,
          true
        ]
      },
      "pos": [
        95,
        1
      ]
    },
    {
      "id": 46,
      "plugin": "Core",
      "version": "1.1.3",
      "model": "Notes",
      "params": [],
      "leftModuleId": 45,
      "text": "Yellow - audio\n\n\n\n\nGray - 1V/oct pitch control\n         voltage\n\n\n\nBlue - all other control voltages\n\n\n\n\nRed - triggers and gates\n\n\n\n\nGreen - master clocks",
      "pos": [
        103,
        1
      ]
    },
    {
      "id": 47,
      "plugin": "Core",
      "version": "1.1.3",
      "model": "Notes",
      "params": [],
      "leftModuleId": 25,
      "rightModuleId": 49,
      "text": "Don't forget to choose your audio device and unmute the mixer.\n\nList of used module collections:\n--------------------------------\n- VCV\n- BogAudio\n- Audible Instruments\n- JW\n- Stellare\n- Repelzen\n\nHave fun!",
      "pos": [
        99,
        0
      ]
    },
    {
      "id": 48,
      "plugin": "Bogaudio",
      "version": "1.1.21",
      "model": "Bogaudio-Mix4",
      "params": [
        {
          "id": 0,
          "value": 0.909090936
        },
        {
          "id": 1,
          "value": 0.0
        },
        {
          "id": 2,
          "value": 0.0
        },
        {
          "id": 3,
          "value": 0.909090936
        },
        {
          "id": 4,
          "value": 0.0
        },
        {
          "id": 5,
          "value": 0.0
        },
        {
          "id": 6,
          "value": 0.909090936
        },
        {
          "id": 7,
          "value": 0.0
        },
        {
          "id": 8,
          "value": 0.0
        },
        {
          "id": 9,
          "value": 0.909090936
        },
        {
          "id": 10,
          "value": 0.0
        },
        {
          "id": 11,
          "value": 0.0
        },
        {
          "id": 12,
          "value": 0.909090936
        },
        {
          "id": 13,
          "value": 1.0
        }
      ],
      "rightModuleId": 25,
      "pos": [
        74,
        0
      ]
    },
    {
      "id": 49,
      "plugin": "PatchAndTweak",
      "version": "1.0.1",
      "model": "Blank",
      "params": [],
      "leftModuleId": 47,
      "pos": [
        115,
        0
      ]
    },
    {
      "id": 50,
      "plugin": "PatchAndTweak",
      "version": "1.0.1",
      "model": "BlankBarbieri",
      "params": [],
      "rightModuleId": 45,
      "pos": [
        83,
        1
      ]
    },
    {
      "id": 88,
      "plugin": "JW-Modules",
      "version": "1.0.7",
      "model": "Quantizer",
      "params": [
        {
          "id": 0,
          "value": 0.0
        },
        {
          "id": 1,
          "value": 11.0
        }
      ],
      "leftModuleId": 185,
      "rightModuleId": 36,
      "data": {},
      "pos": [
        56,
        0
      ]
    },
    {
      "id": 183,
      "plugin": "repelzen",
      "version": "1.1.0",
      "model": "reburst",
      "params": [
        {
          "id": 0,
          "value": 0.0
        },
        {
          "id": 1,
          "value": 0.710859954
        },
        {
          "id": 2,
          "value": 5.0
        },
        {
          "id": 3,
          "value": 1.55949938
        },
        {
          "id": 4,
          "value": 0.0
        },
        {
          "id": 5,
          "value": 0.0
        },
        {
          "id": 6,
          "value": 0.0
        },
        {
          "id": 7,
          "value": 0.0
        },
        {
          "id": 8,
          "value": 0.0
        }
      ],
      "leftModuleId": 184,
      "rightModuleId": 185,
      "pos": [
        30,
        0
      ]
    },
    {
      "id": 184,
      "plugin": "AudibleInstruments",
      "version": "1.0.0",
      "model": "Kinks",
      "params": [],
      "leftModuleId": 190,
      "rightModuleId": 183,
      "pos": [
        26,
        0
      ]
    },
    {
      "id": 185,
      "plugin": "StellareModular",
      "version": "1.0.0",
      "model": "TuringMachine",
      "params": [
        {
          "id": 0,
          "value": 1.0
        },
        {
          "id": 1,
          "value": 0.207500011
        },
        {
          "id": 2,
          "value": 0.753499925
        },
        {
          "id": 3,
          "value": 0.25849998
        },
        {
          "id": 4,
          "value": 0.518000007
        },
        {
          "id": 5,
          "value": 0.0
        },
        {
          "id": 6,
          "value": 7.0
        },
        {
          "id": 7,
          "value": 0.159499913
        },
        {
          "id": 8,
          "value": 0.0
        },
        {
          "id": 9,
          "value": 0.0
        },
        {
          "id": 10,
          "value": 0.0
        },
        {
          "id": 11,
          "value": 0.0
        },
        {
          "id": 12,
          "value": 0.0
        }
      ],
      "leftModuleId": 183,
      "rightModuleId": 88,
      "data": {
        "pulses_mode": 0
      },
      "pos": [
        38,
        0
      ]
    },
    {
      "id": 186,
      "plugin": "JW-Modules",
      "version": "1.0.7",
      "model": "SimpleClock",
      "params": [
        {
          "id": 0,
          "value": 2.07999969
        },
        {
          "id": 1,
          "value": 0.0
        },
        {
          "id": 2,
          "value": -2.0
        },
        {
          "id": 3,
          "value": 0.0
        }
      ],
      "leftModuleId": 192,
      "rightModuleId": 190,
      "data": {
        "running": true
      },
      "pos": [
        16,
        0
      ]
    },
    {
      "id": 187,
      "plugin": "Fundamental",
      "version": "1.2.0",
      "model": "VCA-1",
      "params": [
        {
          "id": 0,
          "value": 1.0
        },
        {
          "id": 1,
          "value": 1.0
        }
      ],
      "leftModuleId": 36,
      "pos": [
        70,
        0
      ]
    },
    {
      "id": 188,
      "plugin": "Fundamental",
      "version": "1.2.0",
      "model": "ADSR",
      "params": [
        {
          "id": 0,
          "value": 0.0
        },
        {
          "id": 1,
          "value": 0.36499995
        },
        {
          "id": 2,
          "value": 0.0
        },
        {
          "id": 3,
          "value": 0.5
        }
      ],
      "pos": [
        65,
        1
      ]
    },
    {
      "id": 189,
      "plugin": "Core",
      "version": "1.1.3",
      "model": "Notes",
      "params": [],
      "rightModuleId": 191,
      "text": "White Noises - Randomize you randomness, P.160\n------------------------------\n\n\"Use chains of random pulses to create highly unpredictable rhythms. For example, set one channel of ALM Pamela's New Workout to output a random voltage, and play about with the Skip and Slop parameters so that the voltage is triggered irregularly. Patch this voltage into the Burst input of Qu-Bit Pulsar to trigger a set of pulses. As the voltage coming from Pamela's New Workout is random it will not always be high enough to trigger Pulsar, adding another layer of unpredictability. ",
      "pos": [
        16,
        1
      ]
    },
    {
      "id": 190,
      "plugin": "AudibleInstruments",
      "version": "1.0.0",
      "model": "Branches",
      "params": [
        {
          "id": 0,
          "value": 0.5
        },
        {
          "id": 1,
          "value": 0.5
        },
        {
          "id": 2,
          "value": 0.0
        },
        {
          "id": 3,
          "value": 0.0
        }
      ],
      "leftModuleId": 186,
      "rightModuleId": 184,
      "data": {
        "modes": [
          false,
          false
        ]
      },
      "pos": [
        20,
        0
      ]
    },
    {
      "id": 191,
      "plugin": "Core",
      "version": "1.1.3",
      "model": "Notes",
      "params": [],
      "leftModuleId": 189,
      "text": "\"Use the output of Pulsar to clock a Music Thing Modular Turing Machine, with the lock knob set to 12 o'clock so that its patterns aren't repeated. The pulse and output voltages from the Turing Machine can then be used to trigger a sound and alter one of its parameters respectively. This process of randomly clocking random voltage and pulse generators will result in chaotic and highly unpredictable triggers that can be used for special effects, additional percussion, or even hi-hats if you're feeling adventurous!\"",
      "pos": [
        32,
        1
      ]
    },
    {
      "id": 192,
      "plugin": "Core",
      "version": "1.1.3",
      "model": "Notes",
      "params": [],
      "rightModuleId": 186,
      "text": "A clock is being sent through the Bernoulli Gate from Audible instruments to trigger the S&H section of utilities, which emulates the behavior of ALM Pamela's New Workout. This is randomly triggering the ReBurst module from Repelzen, which emulates the Burst input of the Qu-Bit Pulsar. The Turing Machine is sending pitch information to an oscillator, and the Volt expander is modulating the release time of the envelope. ",
      "pos": [
        0,
        0
      ]
    }
  ],
  "cables": [
    {
      "id": 127,
      "outputModuleId": 45,
      "outputId": 0,
      "inputModuleId": 45,
      "inputId": 0,
      "color": "#c9b70e"
    },
    {
      "id": 128,
      "outputModuleId": 45,
      "outputId": 2,
      "inputModuleId": 45,
      "inputId": 2,
      "color": "#707070"
    },
    {
      "id": 129,
      "outputModuleId": 45,
      "outputId": 4,
      "inputModuleId": 45,
      "inputId": 4,
      "color": "#0986ad"
    },
    {
      "id": 130,
      "outputModuleId": 45,
      "outputId": 6,
      "inputModuleId": 45,
      "inputId": 6,
      "color": "#c91847"
    },
    {
      "id": 131,
      "outputModuleId": 45,
      "outputId": 8,
      "inputModuleId": 45,
      "inputId": 8,
      "color": "#0c8e15"
    },
    {
      "id": 132,
      "outputModuleId": 48,
      "outputId": 0,
      "inputModuleId": 25,
      "inputId": 0,
      "color": "#c9b70e"
    },
    {
      "id": 133,
      "outputModuleId": 48,
      "outputId": 1,
      "inputModuleId": 25,
      "inputId": 1,
      "color": "#c9b70e"
    },
    {
      "id": 147,
      "outputModuleId": 184,
      "outputId": 6,
      "inputModuleId": 183,
      "inputId": 0,
      "color": "#c91847"
    },
    {
      "id": 148,
      "outputModuleId": 183,
      "outputId": 0,
      "inputModuleId": 185,
      "inputId": 0,
      "color": "#c91847"
    },
    {
      "id": 149,
      "outputModuleId": 185,
      "outputId": 14,
      "inputModuleId": 88,
      "inputId": 2,
      "color": "#707070"
    },
    {
      "id": 150,
      "outputModuleId": 88,
      "outputId": 0,
      "inputModuleId": 36,
      "inputId": 0,
      "color": "#707070"
    },
    {
      "id": 152,
      "outputModuleId": 188,
      "outputId": 0,
      "inputModuleId": 187,
      "inputId": 0,
      "color": "#0986ad"
    },
    {
      "id": 151,
      "outputModuleId": 36,
      "outputId": 1,
      "inputModuleId": 187,
      "inputId": 1,
      "color": "#c9b70e"
    },
    {
      "id": 153,
      "outputModuleId": 187,
      "outputId": 0,
      "inputModuleId": 48,
      "inputId": 2,
      "color": "#c9b70e"
    },
    {
      "id": 154,
      "outputModuleId": 183,
      "outputId": 0,
      "inputModuleId": 188,
      "inputId": 4,
      "color": "#c91847"
    },
    {
      "id": 146,
      "outputModuleId": 186,
      "outputId": 0,
      "inputModuleId": 190,
      "inputId": 0,
      "color": "#0c8e15"
    },
    {
      "id": 155,
      "outputModuleId": 190,
      "outputId": 0,
      "inputModuleId": 184,
      "inputId": 4,
      "color": "#0986ad"
    },
    {
      "id": 156,
      "outputModuleId": 185,
      "outputId": 12,
      "inputModuleId": 188,
      "inputId": 3,
      "color": "#0986ad"
    }
  ]
}