{
  "version": "1.1.3",
  "modules": [
    {
      "id": 25,
      "plugin": "Core",
      "version": "1.1.3",
      "model": "AudioInterface",
      "params": [],
      "leftModuleId": 48,
      "rightModuleId": 47,
      "data": {
        "audio": {
          "driver": 8,
          "offset": 1075235812,
          "maxChannels": 8,
          "sampleRate": 44100,
          "blockSize": 512
        }
      },
      "pos": [
        55,
        0
      ]
    },
    {
      "id": 36,
      "plugin": "Fundamental",
      "version": "1.2.0",
      "model": "VCO",
      "params": [
        {
          "id": 0,
          "value": 1.0
        },
        {
          "id": 1,
          "value": 1.0
        },
        {
          "id": 2,
          "value": 15.8760014
        },
        {
          "id": 3,
          "value": 0.0
        },
        {
          "id": 4,
          "value": 0.0
        },
        {
          "id": 5,
          "value": 0.5
        },
        {
          "id": 6,
          "value": 0.0
        }
      ],
      "leftModuleId": 202,
      "rightModuleId": 37,
      "pos": [
        16,
        0
      ]
    },
    {
      "id": 37,
      "plugin": "Fundamental",
      "version": "1.2.0",
      "model": "VCA-1",
      "params": [
        {
          "id": 0,
          "value": 1.0
        },
        {
          "id": 1,
          "value": 1.0
        }
      ],
      "leftModuleId": 36,
      "pos": [
        26,
        0
      ]
    },
    {
      "id": 41,
      "plugin": "Fundamental",
      "version": "1.2.0",
      "model": "ADSR",
      "params": [
        {
          "id": 0,
          "value": 0.0
        },
        {
          "id": 1,
          "value": 0.5
        },
        {
          "id": 2,
          "value": 0.0
        },
        {
          "id": 3,
          "value": 0.5
        }
      ],
      "leftModuleId": 201,
      "rightModuleId": 89,
      "pos": [
        19,
        1
      ]
    },
    {
      "id": 45,
      "plugin": "Fundamental",
      "version": "1.2.0",
      "model": "Mutes",
      "params": [
        {
          "id": 0,
          "value": 0.0
        },
        {
          "id": 1,
          "value": 0.0
        },
        {
          "id": 2,
          "value": 0.0
        },
        {
          "id": 3,
          "value": 0.0
        },
        {
          "id": 4,
          "value": 0.0
        },
        {
          "id": 5,
          "value": 0.0
        },
        {
          "id": 6,
          "value": 0.0
        },
        {
          "id": 7,
          "value": 0.0
        },
        {
          "id": 8,
          "value": 0.0
        },
        {
          "id": 9,
          "value": 0.0
        }
      ],
      "leftModuleId": 50,
      "rightModuleId": 46,
      "data": {
        "states": [
          true,
          true,
          true,
          true,
          true,
          true,
          true,
          true,
          true,
          true
        ]
      },
      "pos": [
        61,
        1
      ]
    },
    {
      "id": 46,
      "plugin": "Core",
      "version": "1.1.3",
      "model": "Notes",
      "params": [],
      "leftModuleId": 45,
      "text": "Yellow - audio\n\n\n\n\nGray - 1V/oct pitch control\n         voltage\n\n\n\nBlue - all other control voltages\n\n\n\n\nRed - triggers and gates\n\n\n\n\nGreen - master clocks",
      "pos": [
        69,
        1
      ]
    },
    {
      "id": 47,
      "plugin": "Core",
      "version": "1.1.3",
      "model": "Notes",
      "params": [],
      "leftModuleId": 25,
      "rightModuleId": 49,
      "text": "Don't forget to choose your audio device and unmute the mixer.\n\nList of used module collections:\n--------------------------------\n- VCV\n- BogAudio\n- Audible Instruments\n\nHave fun!",
      "pos": [
        65,
        0
      ]
    },
    {
      "id": 48,
      "plugin": "Bogaudio",
      "version": "1.1.21",
      "model": "Bogaudio-Mix4",
      "params": [
        {
          "id": 0,
          "value": 0.909090936
        },
        {
          "id": 1,
          "value": 0.0
        },
        {
          "id": 2,
          "value": 0.0
        },
        {
          "id": 3,
          "value": 0.909090936
        },
        {
          "id": 4,
          "value": 0.0
        },
        {
          "id": 5,
          "value": 0.0
        },
        {
          "id": 6,
          "value": 0.909090936
        },
        {
          "id": 7,
          "value": 0.0
        },
        {
          "id": 8,
          "value": 0.0
        },
        {
          "id": 9,
          "value": 0.909090936
        },
        {
          "id": 10,
          "value": 0.0
        },
        {
          "id": 11,
          "value": 0.0
        },
        {
          "id": 12,
          "value": 0.909090936
        },
        {
          "id": 13,
          "value": 1.0
        }
      ],
      "rightModuleId": 25,
      "pos": [
        40,
        0
      ]
    },
    {
      "id": 49,
      "plugin": "PatchAndTweak",
      "version": "1.0.1",
      "model": "Blank",
      "params": [],
      "leftModuleId": 47,
      "pos": [
        81,
        0
      ]
    },
    {
      "id": 50,
      "plugin": "PatchAndTweak",
      "version": "1.0.1",
      "model": "BlankBarbieri",
      "params": [],
      "rightModuleId": 45,
      "pos": [
        49,
        1
      ]
    },
    {
      "id": 89,
      "plugin": "Fundamental",
      "version": "1.2.0",
      "model": "VCF",
      "params": [
        {
          "id": 0,
          "value": 0.0
        },
        {
          "id": 1,
          "value": 0.5
        },
        {
          "id": 2,
          "value": 0.600000322
        },
        {
          "id": 3,
          "value": 0.0
        },
        {
          "id": 4,
          "value": 1.0
        }
      ],
      "leftModuleId": 41,
      "rightModuleId": 200,
      "pos": [
        27,
        1
      ]
    },
    {
      "id": 200,
      "plugin": "Fundamental",
      "version": "1.2.0",
      "model": "Scope",
      "params": [
        {
          "id": 0,
          "value": 0.0
        },
        {
          "id": 1,
          "value": 0.0
        },
        {
          "id": 2,
          "value": 0.0
        },
        {
          "id": 3,
          "value": 0.0
        },
        {
          "id": 4,
          "value": 7.27499914
        },
        {
          "id": 5,
          "value": 0.0
        },
        {
          "id": 6,
          "value": 0.0
        },
        {
          "id": 7,
          "value": 0.0
        }
      ],
      "leftModuleId": 89,
      "data": {
        "lissajous": 0,
        "external": 0
      },
      "pos": [
        35,
        1
      ]
    },
    {
      "id": 201,
      "plugin": "Bogaudio",
      "version": "1.1.21",
      "model": "Bogaudio-Manual",
      "params": [
        {
          "id": 0,
          "value": 0.0
        }
      ],
      "leftModuleId": 210,
      "rightModuleId": 41,
      "data": {
        "triggerOnLoad": false,
        "shouldTriggerOnLoad": true
      },
      "pos": [
        16,
        1
      ]
    },
    {
      "id": 202,
      "plugin": "Core",
      "version": "1.1.3",
      "model": "Notes",
      "params": [],
      "rightModuleId": 36,
      "text": "Ringing filters for control voltages, P.166\n------------------------------\n\nA variation on the 'pinging filter' trick is to find a VCF that can pass DC voltages, and with a cutoff frequency that can be tuned very low. Patch the CV output of an envelope generator ore stepped random voltage source into the audio input, tune the cutoff low, and turn the resonance up. The result is a 'damped' (decaying) ringing pattern being superimposed on top of whatever voltage is going through it. ",
      "pos": [
        0,
        0
      ]
    },
    {
      "id": 203,
      "plugin": "AudibleInstruments",
      "version": "1.0.0",
      "model": "Kinks",
      "params": [],
      "leftModuleId": 204,
      "pos": [
        19,
        2
      ]
    },
    {
      "id": 204,
      "plugin": "Bogaudio",
      "version": "1.1.21",
      "model": "Bogaudio-Manual",
      "params": [
        {
          "id": 0,
          "value": 0.0
        }
      ],
      "leftModuleId": 211,
      "rightModuleId": 203,
      "data": {
        "triggerOnLoad": false,
        "shouldTriggerOnLoad": true
      },
      "pos": [
        16,
        2
      ]
    },
    {
      "id": 205,
      "plugin": "Fundamental",
      "version": "1.2.0",
      "model": "VCF",
      "params": [
        {
          "id": 0,
          "value": 0.0555000007
        },
        {
          "id": 1,
          "value": 0.5
        },
        {
          "id": 2,
          "value": 0.600000322
        },
        {
          "id": 3,
          "value": 0.0
        },
        {
          "id": 4,
          "value": 0.0
        }
      ],
      "rightModuleId": 206,
      "pos": [
        27,
        2
      ]
    },
    {
      "id": 206,
      "plugin": "Fundamental",
      "version": "1.2.0",
      "model": "Scope",
      "params": [
        {
          "id": 0,
          "value": 0.0
        },
        {
          "id": 1,
          "value": 0.0
        },
        {
          "id": 2,
          "value": 0.0
        },
        {
          "id": 3,
          "value": 0.0
        },
        {
          "id": 4,
          "value": 7.27499914
        },
        {
          "id": 5,
          "value": 0.0
        },
        {
          "id": 6,
          "value": 0.0
        },
        {
          "id": 7,
          "value": 0.0
        }
      ],
      "leftModuleId": 205,
      "data": {
        "lissajous": 0,
        "external": 0
      },
      "pos": [
        35,
        2
      ]
    },
    {
      "id": 207,
      "plugin": "Fundamental",
      "version": "1.2.0",
      "model": "VCO",
      "params": [
        {
          "id": 0,
          "value": 1.0
        },
        {
          "id": 1,
          "value": 1.0
        },
        {
          "id": 2,
          "value": 0.0
        },
        {
          "id": 3,
          "value": 0.0
        },
        {
          "id": 4,
          "value": 0.0
        },
        {
          "id": 5,
          "value": 0.5
        },
        {
          "id": 6,
          "value": 0.0
        }
      ],
      "rightModuleId": 208,
      "pos": [
        49,
        2
      ]
    },
    {
      "id": 208,
      "plugin": "Fundamental",
      "version": "1.2.0",
      "model": "VCA-1",
      "params": [
        {
          "id": 0,
          "value": 1.0
        },
        {
          "id": 1,
          "value": 1.0
        }
      ],
      "leftModuleId": 207,
      "rightModuleId": 209,
      "pos": [
        59,
        2
      ]
    },
    {
      "id": 209,
      "plugin": "Fundamental",
      "version": "1.2.0",
      "model": "ADSR",
      "params": [
        {
          "id": 0,
          "value": 0.0
        },
        {
          "id": 1,
          "value": 0.5
        },
        {
          "id": 2,
          "value": 1.0
        },
        {
          "id": 3,
          "value": 0.597500026
        }
      ],
      "leftModuleId": 208,
      "pos": [
        62,
        2
      ]
    },
    {
      "id": 210,
      "plugin": "Core",
      "version": "1.1.3",
      "model": "Notes",
      "params": [],
      "rightModuleId": 201,
      "text": "Trigger the Manual module from BogAudio to trigger the voice ->",
      "pos": [
        0,
        1
      ]
    },
    {
      "id": 211,
      "plugin": "Core",
      "version": "1.1.3",
      "model": "Notes",
      "params": [],
      "rightModuleId": 204,
      "text": "Trigger the Manual module from BogAudio to trigger the voice ->",
      "pos": [
        0,
        2
      ]
    }
  ],
  "cables": [
    {
      "id": 127,
      "outputModuleId": 45,
      "outputId": 0,
      "inputModuleId": 45,
      "inputId": 0,
      "color": "#c9b70e"
    },
    {
      "id": 128,
      "outputModuleId": 45,
      "outputId": 2,
      "inputModuleId": 45,
      "inputId": 2,
      "color": "#707070"
    },
    {
      "id": 129,
      "outputModuleId": 45,
      "outputId": 4,
      "inputModuleId": 45,
      "inputId": 4,
      "color": "#0986ad"
    },
    {
      "id": 130,
      "outputModuleId": 45,
      "outputId": 6,
      "inputModuleId": 45,
      "inputId": 6,
      "color": "#c91847"
    },
    {
      "id": 131,
      "outputModuleId": 45,
      "outputId": 8,
      "inputModuleId": 45,
      "inputId": 8,
      "color": "#0c8e15"
    },
    {
      "id": 132,
      "outputModuleId": 48,
      "outputId": 0,
      "inputModuleId": 25,
      "inputId": 0,
      "color": "#c9b70e"
    },
    {
      "id": 133,
      "outputModuleId": 48,
      "outputId": 1,
      "inputModuleId": 25,
      "inputId": 1,
      "color": "#c9b70e"
    },
    {
      "id": 170,
      "outputModuleId": 201,
      "outputId": 0,
      "inputModuleId": 41,
      "inputId": 4,
      "color": "#c91847"
    },
    {
      "id": 171,
      "outputModuleId": 41,
      "outputId": 0,
      "inputModuleId": 89,
      "inputId": 3,
      "color": "#0986ad"
    },
    {
      "id": 172,
      "outputModuleId": 89,
      "outputId": 0,
      "inputModuleId": 200,
      "inputId": 0,
      "color": "#0986ad"
    },
    {
      "id": 173,
      "outputModuleId": 89,
      "outputId": 0,
      "inputModuleId": 37,
      "inputId": 0,
      "color": "#0986ad"
    },
    {
      "id": 174,
      "outputModuleId": 36,
      "outputId": 1,
      "inputModuleId": 37,
      "inputId": 1,
      "color": "#c9b70e"
    },
    {
      "id": 175,
      "outputModuleId": 37,
      "outputId": 0,
      "inputModuleId": 48,
      "inputId": 2,
      "color": "#c9b70e"
    },
    {
      "id": 176,
      "outputModuleId": 204,
      "outputId": 0,
      "inputModuleId": 203,
      "inputId": 4,
      "color": "#c91847"
    },
    {
      "id": 177,
      "outputModuleId": 203,
      "outputId": 6,
      "inputModuleId": 205,
      "inputId": 3,
      "color": "#0986ad"
    },
    {
      "id": 178,
      "outputModuleId": 205,
      "outputId": 0,
      "inputModuleId": 206,
      "inputId": 0,
      "color": "#0986ad"
    },
    {
      "id": 179,
      "outputModuleId": 205,
      "outputId": 0,
      "inputModuleId": 207,
      "inputId": 0,
      "color": "#707070"
    },
    {
      "id": 181,
      "outputModuleId": 209,
      "outputId": 0,
      "inputModuleId": 208,
      "inputId": 0,
      "color": "#0986ad"
    },
    {
      "id": 180,
      "outputModuleId": 208,
      "outputId": 0,
      "inputModuleId": 48,
      "inputId": 5,
      "color": "#c9b70e"
    },
    {
      "id": 182,
      "outputModuleId": 207,
      "outputId": 1,
      "inputModuleId": 208,
      "inputId": 1,
      "color": "#c9b70e"
    },
    {
      "id": 183,
      "outputModuleId": 204,
      "outputId": 1,
      "inputModuleId": 209,
      "inputId": 4,
      "color": "#c91847"
    }
  ]
}