{
  "version": "1.1.3",
  "modules": [
    {
      "id": 25,
      "plugin": "Core",
      "version": "1.1.3",
      "model": "AudioInterface",
      "params": [],
      "leftModuleId": 48,
      "rightModuleId": 47,
      "data": {
        "audio": {
          "driver": 8,
          "offset": 0,
          "maxChannels": 8,
          "sampleRate": 44100,
          "blockSize": 256
        }
      },
      "pos": [
        79,
        0
      ]
    },
    {
      "id": 34,
      "plugin": "Fundamental",
      "version": "1.1.1",
      "model": "SEQ3",
      "params": [
        {
          "id": 0,
          "value": 2.0
        },
        {
          "id": 1,
          "value": 0.0
        },
        {
          "id": 2,
          "value": 0.0
        },
        {
          "id": 3,
          "value": 7.0
        },
        {
          "id": 4,
          "value": 0.375
        },
        {
          "id": 5,
          "value": 1.05000007
        },
        {
          "id": 6,
          "value": 0.0
        },
        {
          "id": 7,
          "value": 0.0600000024
        },
        {
          "id": 8,
          "value": 0.960000038
        },
        {
          "id": 9,
          "value": 1.15499997
        },
        {
          "id": 10,
          "value": 1.44000113
        },
        {
          "id": 11,
          "value": 0.495000064
        },
        {
          "id": 12,
          "value": 0.0
        },
        {
          "id": 13,
          "value": 0.0
        },
        {
          "id": 14,
          "value": 0.0
        },
        {
          "id": 15,
          "value": 0.0
        },
        {
          "id": 16,
          "value": 0.0
        },
        {
          "id": 17,
          "value": 0.0
        },
        {
          "id": 18,
          "value": 0.0
        },
        {
          "id": 19,
          "value": 0.0
        },
        {
          "id": 20,
          "value": 0.0
        },
        {
          "id": 21,
          "value": 0.0
        },
        {
          "id": 22,
          "value": 0.0
        },
        {
          "id": 23,
          "value": 0.0
        },
        {
          "id": 24,
          "value": 0.0
        },
        {
          "id": 25,
          "value": 0.0
        },
        {
          "id": 26,
          "value": 0.0
        },
        {
          "id": 27,
          "value": 0.0
        },
        {
          "id": 28,
          "value": 0.0
        },
        {
          "id": 29,
          "value": 0.0
        },
        {
          "id": 30,
          "value": 0.0
        },
        {
          "id": 31,
          "value": 0.0
        },
        {
          "id": 32,
          "value": 0.0
        },
        {
          "id": 33,
          "value": 0.0
        },
        {
          "id": 34,
          "value": 0.0
        },
        {
          "id": 35,
          "value": 0.0
        }
      ],
      "leftModuleId": 184,
      "rightModuleId": 88,
      "data": {
        "running": true,
        "gates": [
          1,
          1,
          1,
          1,
          1,
          1,
          1,
          1
        ]
      },
      "pos": [
        24,
        0
      ]
    },
    {
      "id": 36,
      "plugin": "Fundamental",
      "version": "1.1.1",
      "model": "VCO",
      "params": [
        {
          "id": 0,
          "value": 1.0
        },
        {
          "id": 1,
          "value": 1.0
        },
        {
          "id": 2,
          "value": -24.300005
        },
        {
          "id": 3,
          "value": 0.0
        },
        {
          "id": 4,
          "value": 0.0
        },
        {
          "id": 5,
          "value": 0.5
        },
        {
          "id": 6,
          "value": 0.0
        }
      ],
      "leftModuleId": 88,
      "rightModuleId": 37,
      "pos": [
        50,
        0
      ]
    },
    {
      "id": 37,
      "plugin": "Fundamental",
      "version": "1.1.1",
      "model": "VCA-1",
      "params": [
        {
          "id": 0,
          "value": 1.0
        },
        {
          "id": 1,
          "value": 1.0
        }
      ],
      "leftModuleId": 36,
      "pos": [
        60,
        0
      ]
    },
    {
      "id": 41,
      "plugin": "Fundamental",
      "version": "1.1.1",
      "model": "ADSR",
      "params": [
        {
          "id": 0,
          "value": 0.0
        },
        {
          "id": 1,
          "value": 0.0
        },
        {
          "id": 2,
          "value": 1.0
        },
        {
          "id": 3,
          "value": 0.423499882
        }
      ],
      "pos": [
        60,
        1
      ]
    },
    {
      "id": 45,
      "plugin": "Fundamental",
      "version": "1.1.1",
      "model": "Mutes",
      "params": [
        {
          "id": 0,
          "value": 0.0
        },
        {
          "id": 1,
          "value": 0.0
        },
        {
          "id": 2,
          "value": 0.0
        },
        {
          "id": 3,
          "value": 0.0
        },
        {
          "id": 4,
          "value": 0.0
        },
        {
          "id": 5,
          "value": 0.0
        },
        {
          "id": 6,
          "value": 0.0
        },
        {
          "id": 7,
          "value": 0.0
        },
        {
          "id": 8,
          "value": 0.0
        },
        {
          "id": 9,
          "value": 0.0
        }
      ],
      "leftModuleId": 52,
      "rightModuleId": 46,
      "data": {
        "states": [
          true,
          true,
          true,
          true,
          true,
          true,
          true,
          true,
          true,
          true
        ]
      },
      "pos": [
        85,
        1
      ]
    },
    {
      "id": 46,
      "plugin": "Core",
      "version": "1.1.3",
      "model": "Notes",
      "params": [],
      "leftModuleId": 45,
      "text": "Yellow - audio\n\n\n\n\nGray - 1V/oct pitch control\n         voltage\n\n\n\nBlue - all other control voltages\n\n\n\n\nRed - triggers and gates\n\n\n\n\nGreen - master clocks",
      "pos": [
        93,
        1
      ]
    },
    {
      "id": 47,
      "plugin": "Core",
      "version": "1.1.3",
      "model": "Notes",
      "params": [],
      "leftModuleId": 25,
      "rightModuleId": 49,
      "text": "Don't forget to choose your audio device and unmute the mixer.\n\nList of used module collections:\n--------------------------------\n- VCV\n- BogAudio\n- AutoDafe\n- JW\n- Valley\n\nHave fun!",
      "pos": [
        89,
        0
      ]
    },
    {
      "id": 48,
      "plugin": "Bogaudio",
      "version": "1.1.21",
      "model": "Bogaudio-Mix4",
      "params": [
        {
          "id": 0,
          "value": 0.909090936
        },
        {
          "id": 1,
          "value": 0.0
        },
        {
          "id": 2,
          "value": 0.0
        },
        {
          "id": 3,
          "value": 0.909090936
        },
        {
          "id": 4,
          "value": 0.0
        },
        {
          "id": 5,
          "value": 0.0
        },
        {
          "id": 6,
          "value": 0.909090936
        },
        {
          "id": 7,
          "value": 0.0
        },
        {
          "id": 8,
          "value": 0.0
        },
        {
          "id": 9,
          "value": 0.909090936
        },
        {
          "id": 10,
          "value": 0.0
        },
        {
          "id": 11,
          "value": 0.0
        },
        {
          "id": 12,
          "value": 0.909090936
        },
        {
          "id": 13,
          "value": 1.0
        }
      ],
      "rightModuleId": 25,
      "pos": [
        64,
        0
      ]
    },
    {
      "id": 49,
      "plugin": "PatchAndTweak",
      "version": "1.0.1",
      "model": "Blank",
      "params": [],
      "leftModuleId": 47,
      "pos": [
        105,
        0
      ]
    },
    {
      "id": 52,
      "plugin": "PatchAndTweak",
      "version": "1.0.1",
      "model": "BlankStarlight",
      "params": [],
      "rightModuleId": 45,
      "pos": [
        75,
        1
      ]
    },
    {
      "id": 88,
      "plugin": "JW-Modules",
      "version": "1.0.7",
      "model": "Quantizer",
      "params": [
        {
          "id": 0,
          "value": 9.0
        },
        {
          "id": 1,
          "value": 5.0
        }
      ],
      "leftModuleId": 34,
      "rightModuleId": 36,
      "data": {},
      "pos": [
        46,
        0
      ]
    },
    {
      "id": 182,
      "plugin": "Valley",
      "version": "1.0.1",
      "model": "Topograph",
      "params": [
        {
          "id": 0,
          "value": 0.0
        },
        {
          "id": 1,
          "value": 0.0
        },
        {
          "id": 2,
          "value": 0.0
        },
        {
          "id": 3,
          "value": 0.586499989
        },
        {
          "id": 4,
          "value": 0.679500103
        },
        {
          "id": 5,
          "value": 1.0
        },
        {
          "id": 6,
          "value": 0.321499974
        },
        {
          "id": 7,
          "value": 0.5
        },
        {
          "id": 8,
          "value": 0.5
        },
        {
          "id": 9,
          "value": 0.0
        }
      ],
      "data": {
        "sequencerMode": 0,
        "triggerOutputMode": 1,
        "accOutputMode": 0,
        "extClockResolution": 0,
        "chaosKnobMode": 0,
        "runMode": 0,
        "panelStyle": 0,
        "running": 1
      },
      "pos": [
        24,
        1
      ]
    },
    {
      "id": 183,
      "plugin": "JW-Modules",
      "version": "1.0.7",
      "model": "SimpleClock",
      "params": [
        {
          "id": 0,
          "value": 3.2919991
        },
        {
          "id": 1,
          "value": 0.0
        },
        {
          "id": 2,
          "value": -2.0
        },
        {
          "id": 3,
          "value": 0.0
        }
      ],
      "leftModuleId": 185,
      "rightModuleId": 184,
      "data": {
        "running": true
      },
      "pos": [
        16,
        0
      ]
    },
    {
      "id": 184,
      "plugin": "Autodafe",
      "version": "1.0.1",
      "model": "ClockDivider",
      "params": [
        {
          "id": 0,
          "value": 0.0
        }
      ],
      "leftModuleId": 183,
      "rightModuleId": 34,
      "pos": [
        20,
        0
      ]
    },
    {
      "id": 185,
      "plugin": "Core",
      "version": "1.1.3",
      "model": "Notes",
      "params": [],
      "rightModuleId": 183,
      "text": "Mylar Melodies - One-voice patch, P.218\n---------------------------------\n\n\"... Instead of using one big 'ol complex sequencer, generate your gates and pitches from two independent modules, so that by varying the settings of just one of those (either the gate pattern, pitch information, or loop length, or clock divisions that are driving either), you instantly alter your resulting melody.\" ",
      "pos": [
        0,
        0
      ]
    },
    {
      "id": 186,
      "plugin": "Core",
      "version": "1.1.3",
      "model": "Notes",
      "params": [],
      "text": "The pitch sequencer, in this case, is the SEQ-3 from VCV, and the gate sequencer is Topograph from Valley, which is a clone of the Mutable Instruments Grids sequencer. ",
      "pos": [
        1,
        1
      ]
    }
  ],
  "cables": [
    {
      "id": 127,
      "outputModuleId": 45,
      "outputId": 0,
      "inputModuleId": 45,
      "inputId": 0,
      "color": "#c9b70e"
    },
    {
      "id": 128,
      "outputModuleId": 45,
      "outputId": 2,
      "inputModuleId": 45,
      "inputId": 2,
      "color": "#707070"
    },
    {
      "id": 129,
      "outputModuleId": 45,
      "outputId": 4,
      "inputModuleId": 45,
      "inputId": 4,
      "color": "#0986ad"
    },
    {
      "id": 130,
      "outputModuleId": 45,
      "outputId": 6,
      "inputModuleId": 45,
      "inputId": 6,
      "color": "#c91847"
    },
    {
      "id": 131,
      "outputModuleId": 45,
      "outputId": 8,
      "inputModuleId": 45,
      "inputId": 8,
      "color": "#0c8e15"
    },
    {
      "id": 132,
      "outputModuleId": 48,
      "outputId": 0,
      "inputModuleId": 25,
      "inputId": 0,
      "color": "#c9b70e"
    },
    {
      "id": 133,
      "outputModuleId": 48,
      "outputId": 1,
      "inputModuleId": 25,
      "inputId": 1,
      "color": "#c9b70e"
    },
    {
      "id": 186,
      "outputModuleId": 183,
      "outputId": 0,
      "inputModuleId": 182,
      "inputId": 0,
      "color": "#0c8e15"
    },
    {
      "id": 187,
      "outputModuleId": 183,
      "outputId": 0,
      "inputModuleId": 184,
      "inputId": 0,
      "color": "#0c8e15"
    },
    {
      "id": 189,
      "outputModuleId": 34,
      "outputId": 1,
      "inputModuleId": 88,
      "inputId": 2,
      "color": "#707070"
    },
    {
      "id": 190,
      "outputModuleId": 88,
      "outputId": 0,
      "inputModuleId": 36,
      "inputId": 0,
      "color": "#707070"
    },
    {
      "id": 191,
      "outputModuleId": 36,
      "outputId": 2,
      "inputModuleId": 37,
      "inputId": 1,
      "color": "#c9b70e"
    },
    {
      "id": 192,
      "outputModuleId": 37,
      "outputId": 0,
      "inputModuleId": 48,
      "inputId": 2,
      "color": "#c9b70e"
    },
    {
      "id": 193,
      "outputModuleId": 41,
      "outputId": 0,
      "inputModuleId": 37,
      "inputId": 0,
      "color": "#0986ad"
    },
    {
      "id": 194,
      "outputModuleId": 182,
      "outputId": 0,
      "inputModuleId": 41,
      "inputId": 4,
      "color": "#c91847"
    },
    {
      "id": 188,
      "outputModuleId": 184,
      "outputId": 1,
      "inputModuleId": 34,
      "inputId": 1,
      "color": "#0c8e15"
    }
  ]
}