{
  "version": "1.1.3",
  "modules": [
    {
      "id": 25,
      "plugin": "Core",
      "version": "1.1.3",
      "model": "AudioInterface",
      "params": [],
      "leftModuleId": 48,
      "rightModuleId": 47,
      "data": {
        "audio": {
          "driver": 8,
          "offset": 0,
          "maxChannels": 8,
          "sampleRate": 44100,
          "blockSize": 512
        }
      },
      "pos": [
        91,
        0
      ]
    },
    {
      "id": 36,
      "plugin": "Fundamental",
      "version": "1.1.1",
      "model": "VCO",
      "params": [
        {
          "id": 0,
          "value": 1.0
        },
        {
          "id": 1,
          "value": 1.0
        },
        {
          "id": 2,
          "value": -0.107905492
        },
        {
          "id": 3,
          "value": 0.0
        },
        {
          "id": 4,
          "value": 0.0
        },
        {
          "id": 5,
          "value": 0.5
        },
        {
          "id": 6,
          "value": 0.0
        }
      ],
      "leftModuleId": 188,
      "rightModuleId": 37,
      "pos": [
        44,
        0
      ]
    },
    {
      "id": 37,
      "plugin": "Fundamental",
      "version": "1.1.1",
      "model": "VCA-1",
      "params": [
        {
          "id": 0,
          "value": 1.0
        },
        {
          "id": 1,
          "value": 1.0
        }
      ],
      "leftModuleId": 36,
      "rightModuleId": 187,
      "pos": [
        54,
        0
      ]
    },
    {
      "id": 41,
      "plugin": "Fundamental",
      "version": "1.1.1",
      "model": "ADSR",
      "params": [
        {
          "id": 0,
          "value": 0.0
        },
        {
          "id": 1,
          "value": 0.0
        },
        {
          "id": 2,
          "value": 1.0
        },
        {
          "id": 3,
          "value": 0.406999618
        }
      ],
      "pos": [
        54,
        1
      ]
    },
    {
      "id": 45,
      "plugin": "Fundamental",
      "version": "1.1.1",
      "model": "Mutes",
      "params": [
        {
          "id": 0,
          "value": 0.0
        },
        {
          "id": 1,
          "value": 0.0
        },
        {
          "id": 2,
          "value": 0.0
        },
        {
          "id": 3,
          "value": 0.0
        },
        {
          "id": 4,
          "value": 0.0
        },
        {
          "id": 5,
          "value": 0.0
        },
        {
          "id": 6,
          "value": 0.0
        },
        {
          "id": 7,
          "value": 0.0
        },
        {
          "id": 8,
          "value": 0.0
        },
        {
          "id": 9,
          "value": 0.0
        }
      ],
      "leftModuleId": 52,
      "rightModuleId": 46,
      "data": {
        "states": [
          true,
          true,
          true,
          true,
          true,
          true,
          true,
          true,
          true,
          true
        ]
      },
      "pos": [
        87,
        1
      ]
    },
    {
      "id": 46,
      "plugin": "Core",
      "version": "1.1.3",
      "model": "Notes",
      "params": [],
      "leftModuleId": 45,
      "text": "Yellow - audio\n\n\n\n\nGray - 1V/oct pitch control\n         voltage\n\n\n\nBlue - all other control voltages\n\n\n\n\nRed - triggers and gates\n\n\n\n\nGreen - master clocks",
      "pos": [
        95,
        1
      ]
    },
    {
      "id": 47,
      "plugin": "Core",
      "version": "1.1.3",
      "model": "Notes",
      "params": [],
      "leftModuleId": 25,
      "rightModuleId": 49,
      "text": "Don't forget to choose your audio device and unmute the mixer.\n\nList of used module collections:\n--------------------------------\n- VCV\n- BogAudio\n- AutoDafe\n- JW\n- Valley\n\nHave fun!",
      "pos": [
        101,
        0
      ]
    },
    {
      "id": 48,
      "plugin": "Bogaudio",
      "version": "1.1.21",
      "model": "Bogaudio-Mix4",
      "params": [
        {
          "id": 0,
          "value": 0.909090936
        },
        {
          "id": 1,
          "value": 0.0
        },
        {
          "id": 2,
          "value": 0.0
        },
        {
          "id": 3,
          "value": 0.86709106
        },
        {
          "id": 4,
          "value": 0.0
        },
        {
          "id": 5,
          "value": 0.0
        },
        {
          "id": 6,
          "value": 0.909090936
        },
        {
          "id": 7,
          "value": 0.0
        },
        {
          "id": 8,
          "value": 0.0
        },
        {
          "id": 9,
          "value": 0.909090936
        },
        {
          "id": 10,
          "value": 0.0
        },
        {
          "id": 11,
          "value": 0.0
        },
        {
          "id": 12,
          "value": 0.909090936
        },
        {
          "id": 13,
          "value": 1.0
        }
      ],
      "rightModuleId": 25,
      "pos": [
        76,
        0
      ]
    },
    {
      "id": 49,
      "plugin": "PatchAndTweak",
      "version": "1.0.1",
      "model": "Blank",
      "params": [],
      "leftModuleId": 47,
      "pos": [
        117,
        0
      ]
    },
    {
      "id": 52,
      "plugin": "PatchAndTweak",
      "version": "1.0.1",
      "model": "BlankStarlight",
      "params": [],
      "rightModuleId": 45,
      "pos": [
        77,
        1
      ]
    },
    {
      "id": 88,
      "plugin": "JW-Modules",
      "version": "1.0.7",
      "model": "Quantizer",
      "params": [
        {
          "id": 0,
          "value": 9.0
        },
        {
          "id": 1,
          "value": 5.0
        }
      ],
      "leftModuleId": 192,
      "rightModuleId": 188,
      "data": {},
      "pos": [
        36,
        0
      ]
    },
    {
      "id": 182,
      "plugin": "Valley",
      "version": "1.0.1",
      "model": "Topograph",
      "params": [
        {
          "id": 0,
          "value": 0.0
        },
        {
          "id": 1,
          "value": 0.0
        },
        {
          "id": 2,
          "value": 0.0
        },
        {
          "id": 3,
          "value": 0.586499989
        },
        {
          "id": 4,
          "value": 0.679500103
        },
        {
          "id": 5,
          "value": 1.0
        },
        {
          "id": 6,
          "value": 0.321499974
        },
        {
          "id": 7,
          "value": 0.0919999406
        },
        {
          "id": 8,
          "value": 0.5
        },
        {
          "id": 9,
          "value": 0.0
        }
      ],
      "data": {
        "sequencerMode": 0,
        "triggerOutputMode": 1,
        "accOutputMode": 0,
        "extClockResolution": 0,
        "chaosKnobMode": 0,
        "runMode": 0,
        "panelStyle": 0,
        "running": 1
      },
      "pos": [
        24,
        1
      ]
    },
    {
      "id": 183,
      "plugin": "JW-Modules",
      "version": "1.0.7",
      "model": "SimpleClock",
      "params": [
        {
          "id": 0,
          "value": 3.2919991
        },
        {
          "id": 1,
          "value": 0.0
        },
        {
          "id": 2,
          "value": -2.0
        },
        {
          "id": 3,
          "value": 0.0
        }
      ],
      "leftModuleId": 185,
      "rightModuleId": 184,
      "data": {
        "running": true
      },
      "pos": [
        16,
        0
      ]
    },
    {
      "id": 184,
      "plugin": "Autodafe",
      "version": "1.0.1",
      "model": "ClockDivider",
      "params": [
        {
          "id": 0,
          "value": 0.0
        }
      ],
      "leftModuleId": 183,
      "rightModuleId": 191,
      "pos": [
        20,
        0
      ]
    },
    {
      "id": 185,
      "plugin": "Core",
      "version": "1.1.3",
      "model": "Notes",
      "params": [],
      "rightModuleId": 183,
      "text": "Mylar Melodies - Two-voice patch, P.218\n---------------------------------\n\n\"To further enhance the potential, clock a second pitch sequencer and sum the two sequencers together...\" \n\"...By altering the pitch or clock rate of any of the two sequencers, you add another layer of variation to what the gate sequencer 'picks out'.\"    ",
      "pos": [
        0,
        0
      ]
    },
    {
      "id": 186,
      "plugin": "Core",
      "version": "1.1.3",
      "model": "Notes",
      "params": [],
      "text": "The pitch sequencers, in this case, Are the ADDR-SEQ from BogAudio, and the gate sequencer is Topograph from Valley, which is a clone of the Mutable Instruments Grids sequencer. ",
      "pos": [
        0,
        1
      ]
    },
    {
      "id": 187,
      "plugin": "Fundamental",
      "version": "1.1.1",
      "model": "VCO",
      "params": [
        {
          "id": 0,
          "value": 1.0
        },
        {
          "id": 1,
          "value": 1.0
        },
        {
          "id": 2,
          "value": -36.1078796
        },
        {
          "id": 3,
          "value": 0.0
        },
        {
          "id": 4,
          "value": 0.0
        },
        {
          "id": 5,
          "value": 0.5
        },
        {
          "id": 6,
          "value": 0.0
        }
      ],
      "leftModuleId": 37,
      "rightModuleId": 189,
      "pos": [
        57,
        0
      ]
    },
    {
      "id": 188,
      "plugin": "JW-Modules",
      "version": "1.0.7",
      "model": "Quantizer",
      "params": [
        {
          "id": 0,
          "value": 9.0
        },
        {
          "id": 1,
          "value": 5.0
        }
      ],
      "leftModuleId": 88,
      "rightModuleId": 36,
      "data": {},
      "pos": [
        40,
        0
      ]
    },
    {
      "id": 189,
      "plugin": "Fundamental",
      "version": "1.1.1",
      "model": "VCA-1",
      "params": [
        {
          "id": 0,
          "value": 1.0
        },
        {
          "id": 1,
          "value": 1.0
        }
      ],
      "leftModuleId": 187,
      "pos": [
        67,
        0
      ]
    },
    {
      "id": 190,
      "plugin": "Fundamental",
      "version": "1.1.1",
      "model": "ADSR",
      "params": [
        {
          "id": 0,
          "value": 0.0
        },
        {
          "id": 1,
          "value": 0.0
        },
        {
          "id": 2,
          "value": 1.0
        },
        {
          "id": 3,
          "value": 0.432499856
        }
      ],
      "pos": [
        67,
        1
      ]
    },
    {
      "id": 191,
      "plugin": "Bogaudio",
      "version": "1.1.21",
      "model": "Bogaudio-AddrSeq",
      "params": [
        {
          "id": 0,
          "value": 7.0
        },
        {
          "id": 1,
          "value": 1.0
        },
        {
          "id": 2,
          "value": 0.0
        },
        {
          "id": 3,
          "value": 0.80977118
        },
        {
          "id": 4,
          "value": 0.0411020517
        },
        {
          "id": 5,
          "value": 0.82250905
        },
        {
          "id": 6,
          "value": 0.0183144808
        },
        {
          "id": 7,
          "value": 0.420867682
        },
        {
          "id": 8,
          "value": -0.271743655
        },
        {
          "id": 9,
          "value": 0.436548591
        },
        {
          "id": 10,
          "value": -0.335917115
        }
      ],
      "leftModuleId": 184,
      "rightModuleId": 192,
      "data": {
        "select_on_clock": false,
        "range_offset": 1.0,
        "range_scale": 0.5
      },
      "pos": [
        24,
        0
      ]
    },
    {
      "id": 192,
      "plugin": "Bogaudio",
      "version": "1.1.21",
      "model": "Bogaudio-AddrSeq",
      "params": [
        {
          "id": 0,
          "value": 5.0
        },
        {
          "id": 1,
          "value": 1.0
        },
        {
          "id": 2,
          "value": 0.0
        },
        {
          "id": 3,
          "value": 0.362157106
        },
        {
          "id": 4,
          "value": 0.396451831
        },
        {
          "id": 5,
          "value": -0.514055371
        },
        {
          "id": 6,
          "value": -0.093044281
        },
        {
          "id": 7,
          "value": -0.0688720942
        },
        {
          "id": 8,
          "value": -0.198973298
        },
        {
          "id": 9,
          "value": 0.567765355
        },
        {
          "id": 10,
          "value": -0.673265934
        }
      ],
      "leftModuleId": 191,
      "rightModuleId": 88,
      "data": {
        "select_on_clock": false,
        "range_offset": 1.0,
        "range_scale": 1.5
      },
      "pos": [
        30,
        0
      ]
    }
  ],
  "cables": [
    {
      "id": 127,
      "outputModuleId": 45,
      "outputId": 0,
      "inputModuleId": 45,
      "inputId": 0,
      "color": "#c9b70e"
    },
    {
      "id": 128,
      "outputModuleId": 45,
      "outputId": 2,
      "inputModuleId": 45,
      "inputId": 2,
      "color": "#707070"
    },
    {
      "id": 129,
      "outputModuleId": 45,
      "outputId": 4,
      "inputModuleId": 45,
      "inputId": 4,
      "color": "#0986ad"
    },
    {
      "id": 130,
      "outputModuleId": 45,
      "outputId": 6,
      "inputModuleId": 45,
      "inputId": 6,
      "color": "#c91847"
    },
    {
      "id": 131,
      "outputModuleId": 45,
      "outputId": 8,
      "inputModuleId": 45,
      "inputId": 8,
      "color": "#0c8e15"
    },
    {
      "id": 132,
      "outputModuleId": 48,
      "outputId": 0,
      "inputModuleId": 25,
      "inputId": 0,
      "color": "#c9b70e"
    },
    {
      "id": 133,
      "outputModuleId": 48,
      "outputId": 1,
      "inputModuleId": 25,
      "inputId": 1,
      "color": "#c9b70e"
    },
    {
      "id": 186,
      "outputModuleId": 183,
      "outputId": 0,
      "inputModuleId": 182,
      "inputId": 0,
      "color": "#0c8e15"
    },
    {
      "id": 187,
      "outputModuleId": 183,
      "outputId": 0,
      "inputModuleId": 184,
      "inputId": 0,
      "color": "#0c8e15"
    },
    {
      "id": 190,
      "outputModuleId": 88,
      "outputId": 0,
      "inputModuleId": 36,
      "inputId": 0,
      "color": "#707070"
    },
    {
      "id": 191,
      "outputModuleId": 36,
      "outputId": 2,
      "inputModuleId": 37,
      "inputId": 1,
      "color": "#c9b70e"
    },
    {
      "id": 192,
      "outputModuleId": 37,
      "outputId": 0,
      "inputModuleId": 48,
      "inputId": 2,
      "color": "#c9b70e"
    },
    {
      "id": 193,
      "outputModuleId": 41,
      "outputId": 0,
      "inputModuleId": 37,
      "inputId": 0,
      "color": "#0986ad"
    },
    {
      "id": 194,
      "outputModuleId": 182,
      "outputId": 0,
      "inputModuleId": 41,
      "inputId": 4,
      "color": "#c91847"
    },
    {
      "id": 196,
      "outputModuleId": 182,
      "outputId": 1,
      "inputModuleId": 190,
      "inputId": 4,
      "color": "#c91847"
    },
    {
      "id": 197,
      "outputModuleId": 190,
      "outputId": 0,
      "inputModuleId": 189,
      "inputId": 0,
      "color": "#0986ad"
    },
    {
      "id": 198,
      "outputModuleId": 187,
      "outputId": 3,
      "inputModuleId": 189,
      "inputId": 1,
      "color": "#c9b70e"
    },
    {
      "id": 199,
      "outputModuleId": 189,
      "outputId": 0,
      "inputModuleId": 48,
      "inputId": 5,
      "color": "#c9b70e"
    },
    {
      "id": 200,
      "outputModuleId": 188,
      "outputId": 0,
      "inputModuleId": 187,
      "inputId": 0,
      "color": "#707070"
    },
    {
      "id": 188,
      "outputModuleId": 184,
      "outputId": 1,
      "inputModuleId": 191,
      "inputId": 0,
      "color": "#0c8e15"
    },
    {
      "id": 201,
      "outputModuleId": 184,
      "outputId": 2,
      "inputModuleId": 192,
      "inputId": 0,
      "color": "#0c8e15"
    },
    {
      "id": 189,
      "outputModuleId": 191,
      "outputId": 0,
      "inputModuleId": 88,
      "inputId": 2,
      "color": "#707070"
    },
    {
      "id": 195,
      "outputModuleId": 192,
      "outputId": 0,
      "inputModuleId": 188,
      "inputId": 2,
      "color": "#707070"
    }
  ]
}