{
  "version": "1.1.3",
  "modules": [
    {
      "id": 25,
      "plugin": "Core",
      "version": "1.1.3",
      "model": "AudioInterface",
      "params": [],
      "leftModuleId": 48,
      "rightModuleId": 47,
      "data": {
        "audio": {
          "driver": 8,
          "offset": 0,
          "maxChannels": 8,
          "sampleRate": 44100,
          "blockSize": 256
        }
      },
      "pos": [
        94,
        0
      ]
    },
    {
      "id": 35,
      "plugin": "Autodafe",
      "version": "1.0.1",
      "model": "Multiple18",
      "params": [],
      "leftModuleId": 97,
      "pos": [
        44,
        1
      ]
    },
    {
      "id": 37,
      "plugin": "Fundamental",
      "version": "1.2.0",
      "model": "VCA-1",
      "params": [
        {
          "id": 0,
          "value": 1.0
        },
        {
          "id": 1,
          "value": 1.0
        }
      ],
      "leftModuleId": 89,
      "pos": [
        75,
        0
      ]
    },
    {
      "id": 41,
      "plugin": "Fundamental",
      "version": "1.2.0",
      "model": "ADSR",
      "params": [
        {
          "id": 0,
          "value": 0.0
        },
        {
          "id": 1,
          "value": 0.3155002
        },
        {
          "id": 2,
          "value": 0.0
        },
        {
          "id": 3,
          "value": 0.0
        }
      ],
      "leftModuleId": 176,
      "rightModuleId": 177,
      "pos": [
        59,
        1
      ]
    },
    {
      "id": 45,
      "plugin": "Fundamental",
      "version": "1.2.0",
      "model": "Mutes",
      "params": [
        {
          "id": 0,
          "value": 0.0
        },
        {
          "id": 1,
          "value": 0.0
        },
        {
          "id": 2,
          "value": 0.0
        },
        {
          "id": 3,
          "value": 0.0
        },
        {
          "id": 4,
          "value": 0.0
        },
        {
          "id": 5,
          "value": 0.0
        },
        {
          "id": 6,
          "value": 0.0
        },
        {
          "id": 7,
          "value": 0.0
        },
        {
          "id": 8,
          "value": 0.0
        },
        {
          "id": 9,
          "value": 0.0
        }
      ],
      "leftModuleId": 53,
      "rightModuleId": 46,
      "data": {
        "states": [
          true,
          true,
          true,
          true,
          true,
          true,
          true,
          true,
          true,
          true
        ]
      },
      "pos": [
        100,
        1
      ]
    },
    {
      "id": 46,
      "plugin": "Core",
      "version": "1.1.3",
      "model": "Notes",
      "params": [],
      "leftModuleId": 45,
      "text": "Yellow - audio\n\n\n\n\nGray - 1V/oct pitch control\n         voltage\n\n\n\nBlue - all other control voltages\n\n\n\n\nRed - triggers and gates\n\n\n\n\nGreen - master clocks",
      "pos": [
        108,
        1
      ]
    },
    {
      "id": 47,
      "plugin": "Core",
      "version": "1.1.3",
      "model": "Notes",
      "params": [],
      "leftModuleId": 25,
      "rightModuleId": 49,
      "text": "Don't forget to choose your audio device and unmute the mixer.\n\nList of used module collections:\n--------------------------------\n- VCV\n- BogAudio\n- AutoDafe\n- Impromptu\n\nHave fun!",
      "pos": [
        104,
        0
      ]
    },
    {
      "id": 48,
      "plugin": "Bogaudio",
      "version": "1.1.21",
      "model": "Bogaudio-Mix4",
      "params": [
        {
          "id": 0,
          "value": 0.909090936
        },
        {
          "id": 1,
          "value": 0.0
        },
        {
          "id": 2,
          "value": 0.0
        },
        {
          "id": 3,
          "value": 0.909090936
        },
        {
          "id": 4,
          "value": 0.0
        },
        {
          "id": 5,
          "value": 0.0
        },
        {
          "id": 6,
          "value": 0.909090936
        },
        {
          "id": 7,
          "value": 0.0
        },
        {
          "id": 8,
          "value": 0.0
        },
        {
          "id": 9,
          "value": 0.909090936
        },
        {
          "id": 10,
          "value": 0.0
        },
        {
          "id": 11,
          "value": 0.0
        },
        {
          "id": 12,
          "value": 0.909090936
        },
        {
          "id": 13,
          "value": 1.0
        }
      ],
      "rightModuleId": 25,
      "pos": [
        79,
        0
      ]
    },
    {
      "id": 49,
      "plugin": "PatchAndTweak",
      "version": "1.0.1",
      "model": "Blank",
      "params": [],
      "leftModuleId": 47,
      "pos": [
        120,
        0
      ]
    },
    {
      "id": 53,
      "plugin": "PatchAndTweak",
      "version": "1.0.1",
      "model": "BlankRimbaud",
      "params": [],
      "rightModuleId": 45,
      "pos": [
        90,
        1
      ]
    },
    {
      "id": 89,
      "plugin": "Fundamental",
      "version": "1.2.0",
      "model": "VCF",
      "params": [
        {
          "id": 0,
          "value": 0.36649999
        },
        {
          "id": 1,
          "value": 0.5
        },
        {
          "id": 2,
          "value": 0.0
        },
        {
          "id": 3,
          "value": 0.771000087
        },
        {
          "id": 4,
          "value": 0.0
        }
      ],
      "leftModuleId": 175,
      "rightModuleId": 37,
      "pos": [
        67,
        0
      ]
    },
    {
      "id": 97,
      "plugin": "ImpromptuModular",
      "version": "1.1.0",
      "model": "Twelve-Key",
      "params": [
        {
          "id": 0,
          "value": 0.0
        },
        {
          "id": 1,
          "value": 0.0
        },
        {
          "id": 2,
          "value": 0.0
        },
        {
          "id": 3,
          "value": 0.0
        }
      ],
      "leftModuleId": 155,
      "rightModuleId": 35,
      "data": {
        "panelTheme": 0,
        "octave": 4,
        "cv": 0.583333373,
        "vel": 0.582310259,
        "maxVel": 10.0,
        "stateInternal": true,
        "invertVel": false,
        "linkVelSettings": false
      },
      "pos": [
        24,
        1
      ]
    },
    {
      "id": 154,
      "plugin": "Core",
      "version": "1.1.3",
      "model": "MIDIToCVInterface",
      "params": [],
      "rightModuleId": 155,
      "data": {
        "channels": 1,
        "polyMode": 0,
        "clockDivision": 24,
        "lastPitch": 8192,
        "lastMod": 0,
        "midi": {
          "driver": 4,
          "channel": -1
        }
      },
      "pos": [
        0,
        1
      ]
    },
    {
      "id": 155,
      "plugin": "Core",
      "version": "1.1.3",
      "model": "Notes",
      "params": [],
      "leftModuleId": 154,
      "rightModuleId": 97,
      "text": "You can use the Twelve-Key from Impromptu ----->\nOr connect your own Midi keyboard and use the VCV Midi module\n<-----",
      "pos": [
        8,
        1
      ]
    },
    {
      "id": 175,
      "plugin": "Fundamental",
      "version": "1.2.0",
      "model": "VCMixer",
      "params": [
        {
          "id": 0,
          "value": 1.0
        },
        {
          "id": 1,
          "value": 1.0
        },
        {
          "id": 2,
          "value": 1.0
        },
        {
          "id": 3,
          "value": 1.0
        },
        {
          "id": 4,
          "value": 1.0
        }
      ],
      "leftModuleId": 184,
      "rightModuleId": 89,
      "pos": [
        57,
        0
      ]
    },
    {
      "id": 176,
      "plugin": "Bogaudio",
      "version": "1.1.21",
      "model": "Bogaudio-Bool",
      "params": [],
      "leftModuleId": 178,
      "rightModuleId": 41,
      "pos": [
        56,
        1
      ]
    },
    {
      "id": 177,
      "plugin": "Fundamental",
      "version": "1.2.0",
      "model": "VCMixer",
      "params": [
        {
          "id": 0,
          "value": 1.0
        },
        {
          "id": 1,
          "value": 1.0
        },
        {
          "id": 2,
          "value": 1.0
        },
        {
          "id": 3,
          "value": 1.0
        },
        {
          "id": 4,
          "value": 1.0
        }
      ],
      "leftModuleId": 41,
      "pos": [
        67,
        1
      ]
    },
    {
      "id": 178,
      "plugin": "Fundamental",
      "version": "1.2.0",
      "model": "ADSR",
      "params": [
        {
          "id": 0,
          "value": 0.0
        },
        {
          "id": 1,
          "value": 0.680000067
        },
        {
          "id": 2,
          "value": 0.0
        },
        {
          "id": 3,
          "value": 0.363499969
        }
      ],
      "rightModuleId": 176,
      "pos": [
        48,
        1
      ]
    },
    {
      "id": 183,
      "plugin": "Fundamental",
      "version": "1.2.0",
      "model": "VCO",
      "params": [
        {
          "id": 0,
          "value": 1.0
        },
        {
          "id": 1,
          "value": 1.0
        },
        {
          "id": 2,
          "value": -12.1078959
        },
        {
          "id": 3,
          "value": -0.053999994
        },
        {
          "id": 4,
          "value": 0.0
        },
        {
          "id": 5,
          "value": 0.5
        },
        {
          "id": 6,
          "value": 0.0
        }
      ],
      "rightModuleId": 184,
      "pos": [
        37,
        0
      ]
    },
    {
      "id": 184,
      "plugin": "Fundamental",
      "version": "1.2.0",
      "model": "VCO",
      "params": [
        {
          "id": 0,
          "value": 1.0
        },
        {
          "id": 1,
          "value": 1.0
        },
        {
          "id": 2,
          "value": -0.107905492
        },
        {
          "id": 3,
          "value": 0.0210000016
        },
        {
          "id": 4,
          "value": 0.0
        },
        {
          "id": 5,
          "value": 0.5
        },
        {
          "id": 6,
          "value": 0.0
        }
      ],
      "leftModuleId": 183,
      "rightModuleId": 175,
      "pos": [
        47,
        0
      ]
    },
    {
      "id": 185,
      "plugin": "Core",
      "version": "1.1.3",
      "model": "Notes",
      "params": [],
      "text": "Logic Funtions, P.308\n---------------------\n\nThis patch uses an inverted gate to create a second envelope spike when a key is released. This simulates the plectrum re-sriking and damping the string of a harpsichord when its key is released.",
      "pos": [
        0,
        0
      ]
    }
  ],
  "cables": [
    {
      "id": 127,
      "outputModuleId": 45,
      "outputId": 0,
      "inputModuleId": 45,
      "inputId": 0,
      "color": "#c9b70e"
    },
    {
      "id": 128,
      "outputModuleId": 45,
      "outputId": 2,
      "inputModuleId": 45,
      "inputId": 2,
      "color": "#707070"
    },
    {
      "id": 129,
      "outputModuleId": 45,
      "outputId": 4,
      "inputModuleId": 45,
      "inputId": 4,
      "color": "#0986ad"
    },
    {
      "id": 130,
      "outputModuleId": 45,
      "outputId": 6,
      "inputModuleId": 45,
      "inputId": 6,
      "color": "#c91847"
    },
    {
      "id": 131,
      "outputModuleId": 45,
      "outputId": 8,
      "inputModuleId": 45,
      "inputId": 8,
      "color": "#0c8e15"
    },
    {
      "id": 132,
      "outputModuleId": 48,
      "outputId": 0,
      "inputModuleId": 25,
      "inputId": 0,
      "color": "#c9b70e"
    },
    {
      "id": 133,
      "outputModuleId": 48,
      "outputId": 1,
      "inputModuleId": 25,
      "inputId": 1,
      "color": "#c9b70e"
    },
    {
      "id": 134,
      "outputModuleId": 97,
      "outputId": 1,
      "inputModuleId": 35,
      "inputId": 0,
      "color": "#707070"
    },
    {
      "id": 141,
      "outputModuleId": 97,
      "outputId": 0,
      "inputModuleId": 178,
      "inputId": 4,
      "color": "#c91847"
    },
    {
      "id": 142,
      "outputModuleId": 97,
      "outputId": 0,
      "inputModuleId": 176,
      "inputId": 2,
      "color": "#c91847"
    },
    {
      "id": 143,
      "outputModuleId": 176,
      "outputId": 3,
      "inputModuleId": 41,
      "inputId": 4,
      "color": "#c91847"
    },
    {
      "id": 148,
      "outputModuleId": 37,
      "outputId": 0,
      "inputModuleId": 48,
      "inputId": 2,
      "color": "#c9b70e"
    },
    {
      "id": 140,
      "outputModuleId": 89,
      "outputId": 0,
      "inputModuleId": 37,
      "inputId": 1,
      "color": "#c9b70e"
    },
    {
      "id": 144,
      "outputModuleId": 178,
      "outputId": 0,
      "inputModuleId": 177,
      "inputId": 1,
      "color": "#0986ad"
    },
    {
      "id": 145,
      "outputModuleId": 41,
      "outputId": 0,
      "inputModuleId": 177,
      "inputId": 2,
      "color": "#0986ad"
    },
    {
      "id": 146,
      "outputModuleId": 177,
      "outputId": 0,
      "inputModuleId": 89,
      "inputId": 0,
      "color": "#0986ad"
    },
    {
      "id": 147,
      "outputModuleId": 177,
      "outputId": 0,
      "inputModuleId": 37,
      "inputId": 0,
      "color": "#0986ad"
    },
    {
      "id": 135,
      "outputModuleId": 35,
      "outputId": 0,
      "inputModuleId": 183,
      "inputId": 0,
      "color": "#707070"
    },
    {
      "id": 136,
      "outputModuleId": 35,
      "outputId": 1,
      "inputModuleId": 184,
      "inputId": 0,
      "color": "#707070"
    },
    {
      "id": 150,
      "outputModuleId": 183,
      "outputId": 3,
      "inputModuleId": 175,
      "inputId": 1,
      "color": "#c9b70e"
    },
    {
      "id": 151,
      "outputModuleId": 175,
      "outputId": 0,
      "inputModuleId": 89,
      "inputId": 3,
      "color": "#c9b70e"
    },
    {
      "id": 152,
      "outputModuleId": 184,
      "outputId": 3,
      "inputModuleId": 175,
      "inputId": 2,
      "color": "#c9b70e"
    }
  ]
}