{
  "version": "1.1.3",
  "modules": [
    {
      "id": 25,
      "plugin": "Core",
      "version": "1.1.3",
      "model": "AudioInterface",
      "params": [],
      "leftModuleId": 48,
      "rightModuleId": 47,
      "data": {
        "audio": {
          "driver": 8,
          "offset": 29285,
          "maxChannels": 8,
          "sampleRate": 44100,
          "blockSize": 512
        }
      },
      "pos": [
        85,
        0
      ]
    },
    {
      "id": 45,
      "plugin": "Fundamental",
      "version": "1.2.0",
      "model": "Mutes",
      "params": [
        {
          "id": 0,
          "value": 0.0
        },
        {
          "id": 1,
          "value": 0.0
        },
        {
          "id": 2,
          "value": 0.0
        },
        {
          "id": 3,
          "value": 0.0
        },
        {
          "id": 4,
          "value": 0.0
        },
        {
          "id": 5,
          "value": 0.0
        },
        {
          "id": 6,
          "value": 0.0
        },
        {
          "id": 7,
          "value": 0.0
        },
        {
          "id": 8,
          "value": 0.0
        },
        {
          "id": 9,
          "value": 0.0
        }
      ],
      "leftModuleId": 53,
      "rightModuleId": 46,
      "data": {
        "states": [
          true,
          true,
          true,
          true,
          true,
          true,
          true,
          true,
          true,
          true
        ]
      },
      "pos": [
        91,
        1
      ]
    },
    {
      "id": 46,
      "plugin": "Core",
      "version": "1.1.3",
      "model": "Notes",
      "params": [],
      "leftModuleId": 45,
      "text": "Yellow - audio\n\n\n\n\nGray - 1V/oct pitch control\n         voltage\n\n\n\nBlue - all other control voltages\n\n\n\n\nRed - triggers and gates\n\n\n\n\nGreen - master clocks",
      "pos": [
        99,
        1
      ]
    },
    {
      "id": 47,
      "plugin": "Core",
      "version": "1.1.3",
      "model": "Notes",
      "params": [],
      "leftModuleId": 25,
      "rightModuleId": 49,
      "text": "Don't forget to choose your audio device and unmute the mixer.\n\nList of used module collections:\n--------------------------------\n- VCV\n- BogAudio\n- Audible Instruments\n- JW\n- HetrickCV\n\nHave fun!",
      "pos": [
        95,
        0
      ]
    },
    {
      "id": 48,
      "plugin": "Bogaudio",
      "version": "1.1.21",
      "model": "Bogaudio-Mix4",
      "params": [
        {
          "id": 0,
          "value": 0.909090936
        },
        {
          "id": 1,
          "value": 0.0
        },
        {
          "id": 2,
          "value": 0.0
        },
        {
          "id": 3,
          "value": 0.909090936
        },
        {
          "id": 4,
          "value": 0.0
        },
        {
          "id": 5,
          "value": 0.0
        },
        {
          "id": 6,
          "value": 0.909090936
        },
        {
          "id": 7,
          "value": 0.0
        },
        {
          "id": 8,
          "value": 0.0
        },
        {
          "id": 9,
          "value": 0.909090936
        },
        {
          "id": 10,
          "value": 0.0
        },
        {
          "id": 11,
          "value": 0.0
        },
        {
          "id": 12,
          "value": 0.909090936
        },
        {
          "id": 13,
          "value": 1.0
        }
      ],
      "rightModuleId": 25,
      "pos": [
        70,
        0
      ]
    },
    {
      "id": 49,
      "plugin": "PatchAndTweak",
      "version": "1.0.1",
      "model": "Blank",
      "params": [],
      "leftModuleId": 47,
      "pos": [
        111,
        0
      ]
    },
    {
      "id": 53,
      "plugin": "PatchAndTweak",
      "version": "1.0.1",
      "model": "BlankRimbaud",
      "params": [],
      "rightModuleId": 45,
      "pos": [
        81,
        1
      ]
    },
    {
      "id": 206,
      "plugin": "AudibleInstruments",
      "version": "1.0.0",
      "model": "Braids",
      "params": [
        {
          "id": 0,
          "value": 0.0
        },
        {
          "id": 1,
          "value": 0.0
        },
        {
          "id": 2,
          "value": 0.0
        },
        {
          "id": 3,
          "value": 0.42050001
        },
        {
          "id": 4,
          "value": 0.0
        },
        {
          "id": 5,
          "value": 0.5
        },
        {
          "id": 6,
          "value": 0.61800015
        }
      ],
      "leftModuleId": 208,
      "data": {
        "settings": [
          28,
          0,
          0,
          0,
          0,
          0,
          0,
          0,
          0,
          0,
          0,
          0,
          0,
          0,
          0,
          0,
          0,
          0,
          0,
          0
        ],
        "lowCpu": false
      },
      "pos": [
        53,
        0
      ]
    },
    {
      "id": 207,
      "plugin": "JW-Modules",
      "version": "1.0.7",
      "model": "SimpleClock",
      "params": [
        {
          "id": 0,
          "value": 2.94400072
        },
        {
          "id": 1,
          "value": 0.0
        },
        {
          "id": 2,
          "value": -2.0
        },
        {
          "id": 3,
          "value": 0.0
        }
      ],
      "leftModuleId": 211,
      "rightModuleId": 208,
      "data": {
        "running": true
      },
      "pos": [
        46,
        0
      ]
    },
    {
      "id": 208,
      "plugin": "Bogaudio",
      "version": "1.1.21",
      "model": "Bogaudio-Bool",
      "params": [],
      "leftModuleId": 207,
      "rightModuleId": 206,
      "pos": [
        50,
        0
      ]
    },
    {
      "id": 209,
      "plugin": "Bogaudio",
      "version": "1.1.21",
      "model": "Bogaudio-Walk",
      "params": [
        {
          "id": 0,
          "value": 0.535000086
        },
        {
          "id": 1,
          "value": 0.0
        },
        {
          "id": 2,
          "value": 1.0
        }
      ],
      "leftModuleId": 212,
      "rightModuleId": 211,
      "pos": [
        37,
        0
      ]
    },
    {
      "id": 211,
      "plugin": "HetrickCV",
      "version": "1.0.0",
      "model": "Comparator",
      "params": [
        {
          "id": 0,
          "value": 0.0
        },
        {
          "id": 1,
          "value": 1.0
        }
      ],
      "leftModuleId": 209,
      "rightModuleId": 207,
      "pos": [
        40,
        0
      ]
    },
    {
      "id": 212,
      "plugin": "Fundamental",
      "version": "1.2.0",
      "model": "Scope",
      "params": [
        {
          "id": 0,
          "value": 0.0
        },
        {
          "id": 1,
          "value": 0.0
        },
        {
          "id": 2,
          "value": 0.0
        },
        {
          "id": 3,
          "value": 0.0
        },
        {
          "id": 4,
          "value": 6.0
        },
        {
          "id": 5,
          "value": 0.0
        },
        {
          "id": 6,
          "value": 0.0
        },
        {
          "id": 7,
          "value": 0.0
        }
      ],
      "leftModuleId": 218,
      "rightModuleId": 209,
      "data": {
        "lissajous": 0,
        "external": 0
      },
      "pos": [
        24,
        0
      ]
    },
    {
      "id": 213,
      "plugin": "Core",
      "version": "1.1.3",
      "model": "Notes",
      "params": [],
      "rightModuleId": 214,
      "text": "Gated rhythm patterns, P.311\n----------------------------\n\nThe AND function acts as a gatekeeper: it will not let one input go through unless the other input says it's okay. Patch your gatekeeper voltage source to a comparator, and then combine the clock and comparator with an AND function. With this you can 'gate' clock or trigger pulses in a number of ways. For example, you can open and close the gate by adjusting a bias voltage, such as a mod wheel or slider on your controller. You can also rely on chance by using a random voltage generator, as shown in this patch. Changing the Comparator's threshold will also alter how many pulses get through.",
      "pos": [
        24,
        1
      ]
    },
    {
      "id": 214,
      "plugin": "Core",
      "version": "1.1.3",
      "model": "Notes",
      "params": [],
      "leftModuleId": 213,
      "rightModuleId": 215,
      "text": "If you don't have a random source module with control over the speed of changes, use noise patched into a sample and hold, and then clock the sample and hold at some division of your master clock. This division will determine how many consecutive pulses or rests you will hear.\n--------------------------------->",
      "pos": [
        40,
        1
      ]
    },
    {
      "id": 215,
      "plugin": "Bogaudio",
      "version": "1.1.21",
      "model": "Bogaudio-Noise",
      "params": [],
      "leftModuleId": 214,
      "rightModuleId": 216,
      "pos": [
        56,
        1
      ]
    },
    {
      "id": 216,
      "plugin": "Bogaudio",
      "version": "1.1.21",
      "model": "Bogaudio-SampleHold",
      "params": [
        {
          "id": 0,
          "value": 0.0
        },
        {
          "id": 1,
          "value": 0.0
        },
        {
          "id": 2,
          "value": 0.0
        },
        {
          "id": 3,
          "value": 0.0
        }
      ],
      "leftModuleId": 215,
      "pos": [
        59,
        1
      ]
    },
    {
      "id": 217,
      "plugin": "Core",
      "version": "1.1.3",
      "model": "MIDIToCVInterface",
      "params": [],
      "rightModuleId": 218,
      "data": {
        "channels": 1,
        "polyMode": 0,
        "clockDivision": 24,
        "lastPitch": 8192,
        "lastMod": 0,
        "midi": {
          "driver": 4,
          "channel": -1
        }
      },
      "pos": [
        0,
        0
      ]
    },
    {
      "id": 218,
      "plugin": "Core",
      "version": "1.1.3",
      "model": "Notes",
      "params": [],
      "leftModuleId": 217,
      "rightModuleId": 212,
      "text": "If you want to use the mod wheel or slider of your controller, use the Midi-CV module\n<----------------------",
      "pos": [
        8,
        0
      ]
    }
  ],
  "cables": [
    {
      "id": 127,
      "outputModuleId": 45,
      "outputId": 0,
      "inputModuleId": 45,
      "inputId": 0,
      "color": "#c9b70e"
    },
    {
      "id": 128,
      "outputModuleId": 45,
      "outputId": 2,
      "inputModuleId": 45,
      "inputId": 2,
      "color": "#707070"
    },
    {
      "id": 129,
      "outputModuleId": 45,
      "outputId": 4,
      "inputModuleId": 45,
      "inputId": 4,
      "color": "#0986ad"
    },
    {
      "id": 130,
      "outputModuleId": 45,
      "outputId": 6,
      "inputModuleId": 45,
      "inputId": 6,
      "color": "#c91847"
    },
    {
      "id": 131,
      "outputModuleId": 45,
      "outputId": 8,
      "inputModuleId": 45,
      "inputId": 8,
      "color": "#0c8e15"
    },
    {
      "id": 132,
      "outputModuleId": 48,
      "outputId": 0,
      "inputModuleId": 25,
      "inputId": 0,
      "color": "#c9b70e"
    },
    {
      "id": 133,
      "outputModuleId": 48,
      "outputId": 1,
      "inputModuleId": 25,
      "inputId": 1,
      "color": "#c9b70e"
    },
    {
      "id": 179,
      "outputModuleId": 207,
      "outputId": 0,
      "inputModuleId": 208,
      "inputId": 0,
      "color": "#0c8e15"
    },
    {
      "id": 181,
      "outputModuleId": 211,
      "outputId": 0,
      "inputModuleId": 208,
      "inputId": 1,
      "color": "#c91847"
    },
    {
      "id": 182,
      "outputModuleId": 208,
      "outputId": 0,
      "inputModuleId": 206,
      "inputId": 0,
      "color": "#c91847"
    },
    {
      "id": 183,
      "outputModuleId": 206,
      "outputId": 0,
      "inputModuleId": 48,
      "inputId": 2,
      "color": "#c9b70e"
    },
    {
      "id": 184,
      "outputModuleId": 209,
      "outputId": 0,
      "inputModuleId": 212,
      "inputId": 0,
      "color": "#0986ad"
    },
    {
      "id": 185,
      "outputModuleId": 211,
      "outputId": 0,
      "inputModuleId": 212,
      "inputId": 1,
      "color": "#c91847"
    },
    {
      "id": 186,
      "outputModuleId": 215,
      "outputId": 5,
      "inputModuleId": 216,
      "inputId": 1,
      "color": "#c9b70e"
    },
    {
      "id": 187,
      "outputModuleId": 207,
      "outputId": 2,
      "inputModuleId": 216,
      "inputId": 0,
      "color": "#c91847"
    },
    {
      "id": 189,
      "outputModuleId": 209,
      "outputId": 0,
      "inputModuleId": 211,
      "inputId": 0,
      "color": "#0986ad"
    }
  ]
}