{
  "version": "1.1.3",
  "modules": [
    {
      "id": 25,
      "plugin": "Core",
      "version": "1.1.3",
      "model": "AudioInterface",
      "params": [],
      "leftModuleId": 51,
      "rightModuleId": 56,
      "data": {
        "audio": {
          "driver": 8,
          "offset": 1127860352,
          "maxChannels": 8,
          "sampleRate": 44100,
          "blockSize": 256
        }
      },
      "pos": [
        86,
        0
      ]
    },
    {
      "id": 34,
      "plugin": "Fundamental",
      "version": "1.2.0",
      "model": "SEQ3",
      "params": [
        {
          "id": 0,
          "value": 2.51600099
        },
        {
          "id": 1,
          "value": 0.0
        },
        {
          "id": 2,
          "value": 0.0
        },
        {
          "id": 3,
          "value": 8.0
        },
        {
          "id": 4,
          "value": 0.0
        },
        {
          "id": 5,
          "value": 0.0
        },
        {
          "id": 6,
          "value": 0.0
        },
        {
          "id": 7,
          "value": 0.0
        },
        {
          "id": 8,
          "value": 0.0
        },
        {
          "id": 9,
          "value": 0.0
        },
        {
          "id": 10,
          "value": 0.0
        },
        {
          "id": 11,
          "value": 0.0
        },
        {
          "id": 12,
          "value": 0.0
        },
        {
          "id": 13,
          "value": 0.0
        },
        {
          "id": 14,
          "value": 0.0
        },
        {
          "id": 15,
          "value": 0.0
        },
        {
          "id": 16,
          "value": 0.0
        },
        {
          "id": 17,
          "value": 0.0
        },
        {
          "id": 18,
          "value": 0.0
        },
        {
          "id": 19,
          "value": 0.0
        },
        {
          "id": 20,
          "value": 0.0
        },
        {
          "id": 21,
          "value": 0.0
        },
        {
          "id": 22,
          "value": 0.0
        },
        {
          "id": 23,
          "value": 0.0
        },
        {
          "id": 24,
          "value": 0.0
        },
        {
          "id": 25,
          "value": 0.0
        },
        {
          "id": 26,
          "value": 0.0
        },
        {
          "id": 27,
          "value": 0.0
        },
        {
          "id": 28,
          "value": 0.0
        },
        {
          "id": 29,
          "value": 0.0
        },
        {
          "id": 30,
          "value": 0.0
        },
        {
          "id": 31,
          "value": 0.0
        },
        {
          "id": 32,
          "value": 0.0
        },
        {
          "id": 33,
          "value": 0.0
        },
        {
          "id": 34,
          "value": 0.0
        },
        {
          "id": 35,
          "value": 0.0
        }
      ],
      "rightModuleId": 49,
      "data": {
        "running": true,
        "gates": [
          1,
          0,
          0,
          1,
          0,
          1,
          0,
          0
        ]
      },
      "pos": [
        0,
        0
      ]
    },
    {
      "id": 36,
      "plugin": "Fundamental",
      "version": "1.2.0",
      "model": "VCO",
      "params": [
        {
          "id": 0,
          "value": 1.0
        },
        {
          "id": 1,
          "value": 1.0
        },
        {
          "id": 2,
          "value": 12.1500025
        },
        {
          "id": 3,
          "value": 0.0
        },
        {
          "id": 4,
          "value": 0.0
        },
        {
          "id": 5,
          "value": 0.5
        },
        {
          "id": 6,
          "value": 0.0
        }
      ],
      "leftModuleId": 49,
      "rightModuleId": 48,
      "pos": [
        32,
        0
      ]
    },
    {
      "id": 37,
      "plugin": "Fundamental",
      "version": "1.2.0",
      "model": "VCA-1",
      "params": [
        {
          "id": 0,
          "value": 1.0
        },
        {
          "id": 1,
          "value": 1.0
        }
      ],
      "leftModuleId": 48,
      "rightModuleId": 50,
      "pos": [
        48,
        0
      ]
    },
    {
      "id": 41,
      "plugin": "Fundamental",
      "version": "1.2.0",
      "model": "ADSR",
      "params": [
        {
          "id": 0,
          "value": 0.0
        },
        {
          "id": 1,
          "value": 0.0
        },
        {
          "id": 2,
          "value": 1.0
        },
        {
          "id": 3,
          "value": 0.268999964
        }
      ],
      "leftModuleId": 53,
      "rightModuleId": 54,
      "pos": [
        13,
        1
      ]
    },
    {
      "id": 45,
      "plugin": "Fundamental",
      "version": "1.2.0",
      "model": "Mutes",
      "params": [
        {
          "id": 0,
          "value": 0.0
        },
        {
          "id": 1,
          "value": 0.0
        },
        {
          "id": 2,
          "value": 0.0
        },
        {
          "id": 3,
          "value": 0.0
        },
        {
          "id": 4,
          "value": 0.0
        },
        {
          "id": 5,
          "value": 0.0
        },
        {
          "id": 6,
          "value": 0.0
        },
        {
          "id": 7,
          "value": 0.0
        },
        {
          "id": 8,
          "value": 0.0
        },
        {
          "id": 9,
          "value": 0.0
        }
      ],
      "leftModuleId": 62,
      "rightModuleId": 46,
      "data": {
        "states": [
          true,
          true,
          true,
          true,
          true,
          true,
          true,
          true,
          true,
          true
        ]
      },
      "pos": [
        92,
        1
      ]
    },
    {
      "id": 46,
      "plugin": "Core",
      "version": "1.1.3",
      "model": "Notes",
      "params": [],
      "leftModuleId": 45,
      "text": "Yellow - audio\n\n\n\n\nGray - 1V/oct pitch control\n         voltage\n\n\n\nBlue - all other control voltages\n\n\n\n\nRed - triggers and gates\n\n\n\n\nGreen - master clocks",
      "pos": [
        100,
        1
      ]
    },
    {
      "id": 48,
      "plugin": "Bogaudio",
      "version": "1.1.21",
      "model": "Bogaudio-AMRM",
      "params": [
        {
          "id": 0,
          "value": 0.0
        },
        {
          "id": 1,
          "value": 1.0
        }
      ],
      "leftModuleId": 36,
      "rightModuleId": 37,
      "pos": [
        42,
        0
      ]
    },
    {
      "id": 49,
      "plugin": "Fundamental",
      "version": "1.2.0",
      "model": "VCO",
      "params": [
        {
          "id": 0,
          "value": 1.0
        },
        {
          "id": 1,
          "value": 1.0
        },
        {
          "id": 2,
          "value": -9.88199139
        },
        {
          "id": 3,
          "value": 0.0
        },
        {
          "id": 4,
          "value": 0.0
        },
        {
          "id": 5,
          "value": 0.5
        },
        {
          "id": 6,
          "value": 0.0
        }
      ],
      "leftModuleId": 34,
      "rightModuleId": 36,
      "pos": [
        22,
        0
      ]
    },
    {
      "id": 50,
      "plugin": "AlrightDevices",
      "version": "1.0.0",
      "model": "Chronoblob2",
      "params": [
        {
          "id": 0,
          "value": 0.369499981
        },
        {
          "id": 1,
          "value": 0.5
        },
        {
          "id": 2,
          "value": 0.396500021
        },
        {
          "id": 3,
          "value": 0.0
        },
        {
          "id": 4,
          "value": 0.248999998
        },
        {
          "id": 5,
          "value": 0.0
        },
        {
          "id": 6,
          "value": 0.0
        },
        {
          "id": 7,
          "value": 0.0
        },
        {
          "id": 8,
          "value": 1.0
        },
        {
          "id": 9,
          "value": 0.0
        }
      ],
      "leftModuleId": 37,
      "data": {
        "delay_mode": 1,
        "hold_behavior": 0,
        "sync_prescaler": 6
      },
      "pos": [
        51,
        0
      ]
    },
    {
      "id": 51,
      "plugin": "Bogaudio",
      "version": "1.1.21",
      "model": "Bogaudio-Mix4",
      "params": [
        {
          "id": 0,
          "value": 0.816090941
        },
        {
          "id": 1,
          "value": -1.0
        },
        {
          "id": 2,
          "value": 0.0
        },
        {
          "id": 3,
          "value": 0.820590913
        },
        {
          "id": 4,
          "value": 1.0
        },
        {
          "id": 5,
          "value": 0.0
        },
        {
          "id": 6,
          "value": 0.909090936
        },
        {
          "id": 7,
          "value": 0.0
        },
        {
          "id": 8,
          "value": 0.0
        },
        {
          "id": 9,
          "value": 0.909090936
        },
        {
          "id": 10,
          "value": 0.0
        },
        {
          "id": 11,
          "value": 0.0
        },
        {
          "id": 12,
          "value": 0.828091085
        },
        {
          "id": 13,
          "value": 1.0
        }
      ],
      "rightModuleId": 25,
      "pos": [
        71,
        0
      ]
    },
    {
      "id": 52,
      "plugin": "Fundamental",
      "version": "1.2.0",
      "model": "LFO",
      "params": [
        {
          "id": 0,
          "value": 1.0
        },
        {
          "id": 1,
          "value": 1.0
        },
        {
          "id": 2,
          "value": -2.72600031
        },
        {
          "id": 3,
          "value": 0.0
        },
        {
          "id": 4,
          "value": 0.0
        },
        {
          "id": 5,
          "value": 0.5
        },
        {
          "id": 6,
          "value": 0.0
        }
      ],
      "rightModuleId": 53,
      "pos": [
        0,
        1
      ]
    },
    {
      "id": 53,
      "plugin": "Fundamental",
      "version": "1.2.0",
      "model": "VCA-1",
      "params": [
        {
          "id": 0,
          "value": 0.380499959
        },
        {
          "id": 1,
          "value": 1.0
        }
      ],
      "leftModuleId": 52,
      "rightModuleId": 41,
      "pos": [
        10,
        1
      ]
    },
    {
      "id": 54,
      "plugin": "Core",
      "version": "1.1.3",
      "model": "Notes",
      "params": [],
      "leftModuleId": 41,
      "rightModuleId": 55,
      "text": "Bana Haffar - Metallic Bouncing Marbles patch, P.96\n--------------------------------\n\n- \"Use two VCOs with sine wave output and patch them into the carrier and signal input of the ring modulator. Ideally, you would tune the oscillator going to the carrier input to several octaves above the oscillator going to the signal input. Then microadjust pitch to achieve the desired metallic tonal quality.\n \n",
      "pos": [
        21,
        1
      ]
    },
    {
      "id": 55,
      "plugin": "Core",
      "version": "1.1.3",
      "model": "Notes",
      "params": [],
      "leftModuleId": 54,
      "text": "\"Patch the audio signal through a VCA controlled by an AR envelope generator set to fast attack and medium release. Modulate the release time with a slow sine or triangle LFO through an attenuator. The final result is patched from the VCA audio output to a stereo delay.\"",
      "pos": [
        37,
        1
      ]
    },
    {
      "id": 56,
      "plugin": "Core",
      "version": "1.1.3",
      "model": "Notes",
      "params": [],
      "leftModuleId": 25,
      "rightModuleId": 61,
      "text": "Don't forget to choose your audio device and unmute the mixer.\n\nList of used module collections:\n--------------------------------\n- VCV\n- BogAudio\n- Akright Devices\n\nHave fun!",
      "pos": [
        96,
        0
      ]
    },
    {
      "id": 61,
      "plugin": "PatchAndTweak",
      "version": "1.0.1",
      "model": "Blank",
      "params": [],
      "leftModuleId": 56,
      "pos": [
        112,
        0
      ]
    },
    {
      "id": 62,
      "plugin": "PatchAndTweak",
      "version": "1.0.1",
      "model": "BlankBenders",
      "params": [],
      "rightModuleId": 45,
      "pos": [
        80,
        1
      ]
    }
  ],
  "cables": [
    {
      "id": 127,
      "outputModuleId": 45,
      "outputId": 0,
      "inputModuleId": 45,
      "inputId": 0,
      "color": "#c9b70e"
    },
    {
      "id": 128,
      "outputModuleId": 45,
      "outputId": 2,
      "inputModuleId": 45,
      "inputId": 2,
      "color": "#707070"
    },
    {
      "id": 129,
      "outputModuleId": 45,
      "outputId": 4,
      "inputModuleId": 45,
      "inputId": 4,
      "color": "#0986ad"
    },
    {
      "id": 130,
      "outputModuleId": 45,
      "outputId": 6,
      "inputModuleId": 45,
      "inputId": 6,
      "color": "#c91847"
    },
    {
      "id": 131,
      "outputModuleId": 45,
      "outputId": 8,
      "inputModuleId": 45,
      "inputId": 8,
      "color": "#0c8e15"
    },
    {
      "id": 135,
      "outputModuleId": 49,
      "outputId": 0,
      "inputModuleId": 48,
      "inputId": 0,
      "color": "#c9b70e"
    },
    {
      "id": 136,
      "outputModuleId": 36,
      "outputId": 0,
      "inputModuleId": 48,
      "inputId": 1,
      "color": "#c9b70e"
    },
    {
      "id": 137,
      "outputModuleId": 48,
      "outputId": 0,
      "inputModuleId": 37,
      "inputId": 1,
      "color": "#c9b70e"
    },
    {
      "id": 138,
      "outputModuleId": 37,
      "outputId": 0,
      "inputModuleId": 50,
      "inputId": 5,
      "color": "#c9b70e"
    },
    {
      "id": 108,
      "outputModuleId": 51,
      "outputId": 1,
      "inputModuleId": 25,
      "inputId": 1,
      "color": "#c9b70e"
    },
    {
      "id": 107,
      "outputModuleId": 51,
      "outputId": 0,
      "inputModuleId": 25,
      "inputId": 0,
      "color": "#c9b70e"
    },
    {
      "id": 139,
      "outputModuleId": 50,
      "outputId": 0,
      "inputModuleId": 51,
      "inputId": 2,
      "color": "#c9b70e"
    },
    {
      "id": 140,
      "outputModuleId": 50,
      "outputId": 1,
      "inputModuleId": 51,
      "inputId": 5,
      "color": "#c9b70e"
    },
    {
      "id": 141,
      "outputModuleId": 52,
      "outputId": 1,
      "inputModuleId": 53,
      "inputId": 1,
      "color": "#0986ad"
    },
    {
      "id": 142,
      "outputModuleId": 53,
      "outputId": 0,
      "inputModuleId": 41,
      "inputId": 3,
      "color": "#0986ad"
    },
    {
      "id": 143,
      "outputModuleId": 41,
      "outputId": 0,
      "inputModuleId": 37,
      "inputId": 0,
      "color": "#0986ad"
    },
    {
      "id": 144,
      "outputModuleId": 34,
      "outputId": 0,
      "inputModuleId": 41,
      "inputId": 4,
      "color": "#c91847"
    },
    {
      "id": 145,
      "outputModuleId": 34,
      "outputId": 0,
      "inputModuleId": 50,
      "inputId": 7,
      "color": "#c91847"
    }
  ]
}