{
  "version": "1.1.3",
  "modules": [
    {
      "id": 25,
      "plugin": "Core",
      "version": "1.1.3",
      "model": "AudioInterface",
      "params": [],
      "leftModuleId": 48,
      "rightModuleId": 47,
      "data": {
        "audio": {
          "driver": 7,
          "offset": 1135949363,
          "maxChannels": 8,
          "sampleRate": 44100,
          "blockSize": 128
        }
      },
      "pos": [
        69,
        0
      ]
    },
    {
      "id": 34,
      "plugin": "Fundamental",
      "version": "1.1.1",
      "model": "SEQ3",
      "params": [
        {
          "id": 0,
          "value": 2.44400167
        },
        {
          "id": 1,
          "value": 0.0
        },
        {
          "id": 2,
          "value": 0.0
        },
        {
          "id": 3,
          "value": 8.0
        },
        {
          "id": 4,
          "value": 0.0
        },
        {
          "id": 5,
          "value": 0.0
        },
        {
          "id": 6,
          "value": 0.542812407
        },
        {
          "id": 7,
          "value": 0.715312839
        },
        {
          "id": 8,
          "value": 0.0
        },
        {
          "id": 9,
          "value": 0.0
        },
        {
          "id": 10,
          "value": 0.0
        },
        {
          "id": 11,
          "value": 0.37499997
        },
        {
          "id": 12,
          "value": 0.0
        },
        {
          "id": 13,
          "value": 0.0
        },
        {
          "id": 14,
          "value": 0.0
        },
        {
          "id": 15,
          "value": 0.0
        },
        {
          "id": 16,
          "value": 0.0
        },
        {
          "id": 17,
          "value": 0.0
        },
        {
          "id": 18,
          "value": 0.0
        },
        {
          "id": 19,
          "value": 0.0
        },
        {
          "id": 20,
          "value": 0.0
        },
        {
          "id": 21,
          "value": 0.0
        },
        {
          "id": 22,
          "value": 0.0
        },
        {
          "id": 23,
          "value": 0.0
        },
        {
          "id": 24,
          "value": 0.0
        },
        {
          "id": 25,
          "value": 0.0
        },
        {
          "id": 26,
          "value": 0.0
        },
        {
          "id": 27,
          "value": 0.0
        },
        {
          "id": 28,
          "value": 0.0
        },
        {
          "id": 29,
          "value": 0.0
        },
        {
          "id": 30,
          "value": 0.0
        },
        {
          "id": 31,
          "value": 0.0
        },
        {
          "id": 32,
          "value": 0.0
        },
        {
          "id": 33,
          "value": 0.0
        },
        {
          "id": 34,
          "value": 0.0
        },
        {
          "id": 35,
          "value": 0.0
        }
      ],
      "rightModuleId": 87,
      "data": {
        "running": true,
        "gates": [
          1,
          0,
          1,
          1,
          0,
          1,
          0,
          1
        ]
      },
      "pos": [
        6,
        0
      ]
    },
    {
      "id": 36,
      "plugin": "Fundamental",
      "version": "1.1.1",
      "model": "VCO",
      "params": [
        {
          "id": 0,
          "value": 1.0
        },
        {
          "id": 1,
          "value": 1.0
        },
        {
          "id": 2,
          "value": -21.8700104
        },
        {
          "id": 3,
          "value": 0.0
        },
        {
          "id": 4,
          "value": 0.570000172
        },
        {
          "id": 5,
          "value": 0.5
        },
        {
          "id": 6,
          "value": 0.0
        }
      ],
      "leftModuleId": 87,
      "rightModuleId": 82,
      "pos": [
        32,
        0
      ]
    },
    {
      "id": 37,
      "plugin": "Fundamental",
      "version": "1.1.1",
      "model": "VCA-1",
      "params": [
        {
          "id": 0,
          "value": 1.0
        },
        {
          "id": 1,
          "value": 1.0
        }
      ],
      "leftModuleId": 82,
      "pos": [
        50,
        0
      ]
    },
    {
      "id": 41,
      "plugin": "Fundamental",
      "version": "1.1.1",
      "model": "ADSR",
      "params": [
        {
          "id": 0,
          "value": 0.0
        },
        {
          "id": 1,
          "value": 0.13500008
        },
        {
          "id": 2,
          "value": 0.0
        },
        {
          "id": 3,
          "value": 0.0
        }
      ],
      "leftModuleId": 86,
      "pos": [
        32,
        1
      ]
    },
    {
      "id": 45,
      "plugin": "Fundamental",
      "version": "1.1.1",
      "model": "Mutes",
      "params": [
        {
          "id": 0,
          "value": 0.0
        },
        {
          "id": 1,
          "value": 0.0
        },
        {
          "id": 2,
          "value": 0.0
        },
        {
          "id": 3,
          "value": 0.0
        },
        {
          "id": 4,
          "value": 0.0
        },
        {
          "id": 5,
          "value": 0.0
        },
        {
          "id": 6,
          "value": 0.0
        },
        {
          "id": 7,
          "value": 0.0
        },
        {
          "id": 8,
          "value": 0.0
        },
        {
          "id": 9,
          "value": 0.0
        }
      ],
      "leftModuleId": 50,
      "rightModuleId": 46,
      "data": {
        "states": [
          true,
          true,
          true,
          true,
          true,
          true,
          true,
          true,
          true,
          true
        ]
      },
      "pos": [
        75,
        1
      ]
    },
    {
      "id": 46,
      "plugin": "Core",
      "version": "1.1.3",
      "model": "Notes",
      "params": [],
      "leftModuleId": 45,
      "text": "Yellow - audio\n\n\n\n\nGray - 1V/oct pitch control\n         voltage\n\n\n\nBlue - all other control voltages\n\n\n\n\nRed - triggers and gates\n\n\n\n\nGreen - master clocks",
      "pos": [
        83,
        1
      ]
    },
    {
      "id": 47,
      "plugin": "Core",
      "version": "1.1.3",
      "model": "Notes",
      "params": [],
      "leftModuleId": 25,
      "rightModuleId": 49,
      "text": "Don't forget to choose your audio device and unmute the mixer.\n\nList of used module collections:\n--------------------------------\n- VCV\n- JW\n- BogAudio\n\nHave fun!",
      "pos": [
        79,
        0
      ]
    },
    {
      "id": 48,
      "plugin": "Bogaudio",
      "version": "1.1.21",
      "model": "Bogaudio-Mix4",
      "params": [
        {
          "id": 0,
          "value": 0.909090936
        },
        {
          "id": 1,
          "value": 0.0
        },
        {
          "id": 2,
          "value": 0.0
        },
        {
          "id": 3,
          "value": 0.909090936
        },
        {
          "id": 4,
          "value": 0.0
        },
        {
          "id": 5,
          "value": 0.0
        },
        {
          "id": 6,
          "value": 0.909090936
        },
        {
          "id": 7,
          "value": 0.0
        },
        {
          "id": 8,
          "value": 0.0
        },
        {
          "id": 9,
          "value": 0.909090936
        },
        {
          "id": 10,
          "value": 0.0
        },
        {
          "id": 11,
          "value": 0.0
        },
        {
          "id": 12,
          "value": 0.909090936
        },
        {
          "id": 13,
          "value": 1.0
        }
      ],
      "rightModuleId": 25,
      "pos": [
        54,
        0
      ]
    },
    {
      "id": 49,
      "plugin": "PatchAndTweak",
      "version": "1.0.0",
      "model": "Blank",
      "params": [],
      "leftModuleId": 47,
      "pos": [
        95,
        0
      ]
    },
    {
      "id": 50,
      "plugin": "PatchAndTweak",
      "version": "1.0.0",
      "model": "BlankBarbieri",
      "params": [],
      "rightModuleId": 45,
      "pos": [
        63,
        1
      ]
    },
    {
      "id": 82,
      "plugin": "Fundamental",
      "version": "1.1.1",
      "model": "VCF",
      "params": [
        {
          "id": 0,
          "value": 0.37650007
        },
        {
          "id": 1,
          "value": 0.5
        },
        {
          "id": 2,
          "value": 0.0
        },
        {
          "id": 3,
          "value": 0.771999836
        },
        {
          "id": 4,
          "value": 0.0
        }
      ],
      "leftModuleId": 36,
      "rightModuleId": 37,
      "pos": [
        42,
        0
      ]
    },
    {
      "id": 83,
      "plugin": "Fundamental",
      "version": "1.1.1",
      "model": "ADSR",
      "params": [
        {
          "id": 0,
          "value": 0.0
        },
        {
          "id": 1,
          "value": 0.5
        },
        {
          "id": 2,
          "value": 0.5
        },
        {
          "id": 3,
          "value": 0.657000005
        }
      ],
      "rightModuleId": 84,
      "pos": [
        42,
        1
      ]
    },
    {
      "id": 84,
      "plugin": "Fundamental",
      "version": "1.1.1",
      "model": "ADSR",
      "params": [
        {
          "id": 0,
          "value": 0.0
        },
        {
          "id": 1,
          "value": 0.719000161
        },
        {
          "id": 2,
          "value": 1.0
        },
        {
          "id": 3,
          "value": 0.71450007
        }
      ],
      "leftModuleId": 83,
      "pos": [
        50,
        1
      ]
    },
    {
      "id": 85,
      "plugin": "Core",
      "version": "1.1.3",
      "model": "Notes",
      "params": [],
      "rightModuleId": 86,
      "text": "DivKid - Three envelopes magic, P.98\n--------------------------------\n\n\"To get the most out of a patch I like to have at least three envelopes to control pitch, tone and amplitude. In many cases two envelopes - one to a filter's cutoff and another to a VCA to control amplitude - is enough. But experiment with a third envelope to pitch. A very fast decaying envelope going into the FM input of your VCO can create a little click or thump as each note playes which pushes the sound forward in a mix as that little percussive edge ensures the front end of the note is heard.  ",
      "pos": [
        0,
        1
      ]
    },
    {
      "id": 86,
      "plugin": "Core",
      "version": "1.1.3",
      "model": "Notes",
      "params": [],
      "leftModuleId": 85,
      "rightModuleId": 41,
      "text": "For more obvious percussion sounds you'll want a larger depth of pitch modulation and a slightly longer decay time.\" ",
      "pos": [
        16,
        1
      ]
    },
    {
      "id": 87,
      "plugin": "JW-Modules",
      "version": "1.0.7",
      "model": "Quantizer",
      "params": [
        {
          "id": 0,
          "value": 2.0
        },
        {
          "id": 1,
          "value": 11.0
        }
      ],
      "leftModuleId": 34,
      "rightModuleId": 36,
      "data": {},
      "pos": [
        28,
        0
      ]
    }
  ],
  "cables": [
    {
      "id": 127,
      "outputModuleId": 45,
      "outputId": 0,
      "inputModuleId": 45,
      "inputId": 0,
      "color": "#c9b70e"
    },
    {
      "id": 128,
      "outputModuleId": 45,
      "outputId": 2,
      "inputModuleId": 45,
      "inputId": 2,
      "color": "#707070"
    },
    {
      "id": 129,
      "outputModuleId": 45,
      "outputId": 4,
      "inputModuleId": 45,
      "inputId": 4,
      "color": "#0986ad"
    },
    {
      "id": 130,
      "outputModuleId": 45,
      "outputId": 6,
      "inputModuleId": 45,
      "inputId": 6,
      "color": "#c91847"
    },
    {
      "id": 131,
      "outputModuleId": 45,
      "outputId": 8,
      "inputModuleId": 45,
      "inputId": 8,
      "color": "#0c8e15"
    },
    {
      "id": 132,
      "outputModuleId": 48,
      "outputId": 0,
      "inputModuleId": 25,
      "inputId": 0,
      "color": "#c9b70e"
    },
    {
      "id": 133,
      "outputModuleId": 48,
      "outputId": 1,
      "inputModuleId": 25,
      "inputId": 1,
      "color": "#c9b70e"
    },
    {
      "id": 165,
      "outputModuleId": 36,
      "outputId": 2,
      "inputModuleId": 82,
      "inputId": 3,
      "color": "#c9b70e"
    },
    {
      "id": 166,
      "outputModuleId": 82,
      "outputId": 0,
      "inputModuleId": 37,
      "inputId": 1,
      "color": "#c9b70e"
    },
    {
      "id": 167,
      "outputModuleId": 34,
      "outputId": 0,
      "inputModuleId": 41,
      "inputId": 4,
      "color": "#c91847"
    },
    {
      "id": 168,
      "outputModuleId": 41,
      "outputId": 0,
      "inputModuleId": 36,
      "inputId": 1,
      "color": "#0986ad"
    },
    {
      "id": 169,
      "outputModuleId": 34,
      "outputId": 0,
      "inputModuleId": 83,
      "inputId": 4,
      "color": "#c91847"
    },
    {
      "id": 170,
      "outputModuleId": 34,
      "outputId": 0,
      "inputModuleId": 84,
      "inputId": 4,
      "color": "#c91847"
    },
    {
      "id": 171,
      "outputModuleId": 83,
      "outputId": 0,
      "inputModuleId": 82,
      "inputId": 0,
      "color": "#0986ad"
    },
    {
      "id": 172,
      "outputModuleId": 84,
      "outputId": 0,
      "inputModuleId": 37,
      "inputId": 0,
      "color": "#0986ad"
    },
    {
      "id": 173,
      "outputModuleId": 37,
      "outputId": 0,
      "inputModuleId": 48,
      "inputId": 2,
      "color": "#c9b70e"
    },
    {
      "id": 164,
      "outputModuleId": 34,
      "outputId": 1,
      "inputModuleId": 87,
      "inputId": 2,
      "color": "#707070"
    },
    {
      "id": 174,
      "outputModuleId": 87,
      "outputId": 0,
      "inputModuleId": 36,
      "inputId": 0,
      "color": "#707070"
    }
  ]
}